<svg width="64" height="64" viewBox="0 0 64 64" fill="none" xmlns="http://www.w3.org/2000/svg">
<path d="M39.6625 13.3392H36.9938V10.6705H39.6625M26.3301 13.3392H23.6642V10.6705H26.3329M41.0755 5.76846L44.5673 2.27384C44.8115 2.01914 44.9478 1.67997 44.9478 1.32715C44.9478 0.97433 44.8115 0.635154 44.5673 0.380453C44.3126 0.136307 43.9735 0 43.6206 0C43.2678 0 42.9286 0.136307 42.6739 0.380453L38.7298 4.33016C36.5305 3.24804 34.1131 2.68213 31.6619 2.67555C29.1999 2.67601 26.7721 3.25124 24.5716 4.35545L20.5966 0.380453C20.3468 0.136628 20.0116 0.000137134 19.6625 0.000137134C19.3135 0.000137134 18.9783 0.136628 18.7285 0.380453C18.6019 0.5035 18.5013 0.650679 18.4326 0.813285C18.3639 0.975891 18.3285 1.15062 18.3285 1.32715C18.3285 1.50367 18.3639 1.6784 18.4326 1.84101C18.5013 2.00362 18.6019 2.1508 18.7285 2.27384L22.2259 5.76846C18.2509 8.70125 15.6665 13.3392 15.6665 18.671H47.663C47.663 13.3392 44.9943 8.67316 41.0755 5.76846ZM54.3292 21.3398C53.2688 21.3398 52.2517 21.7608 51.5016 22.5104C50.7515 23.26 50.3297 24.2768 50.329 25.3372V44.0014C50.329 45.0624 50.7504 46.0799 51.5006 46.83C52.2508 47.5802 53.2683 48.0017 54.3292 48.0017C55.3897 48.001 56.4065 47.5792 57.156 46.8291C57.9056 46.0789 58.3267 45.0619 58.3267 44.0014V25.3372C58.326 24.2773 57.9046 23.2609 57.1551 22.5114C56.4055 21.7619 55.3892 21.3405 54.3292 21.3398ZM9.00028 21.3398C7.93982 21.3398 6.92276 21.7608 6.17265 22.5104C5.42253 23.26 5.00074 24.2768 5 25.3372V44.0014C5 45.0624 5.42146 46.0799 6.17165 46.83C6.92185 47.5802 7.93934 48.0017 9.00028 48.0017C10.0607 48.001 11.0775 47.5792 11.8271 46.8291C12.5767 46.0789 12.9977 45.0619 12.9977 44.0014V25.3372C12.997 24.2773 12.5756 23.2609 11.8261 22.5114C11.0766 21.7619 10.0602 21.3405 9.00028 21.3398ZM15.6637 48.0017C15.6637 48.7095 15.9448 49.3883 16.4453 49.8888C16.9458 50.3893 17.6246 50.6704 18.3324 50.6704H20.9983V59.9997C20.9983 61.0602 21.4194 62.0772 22.169 62.8273C22.9185 63.5775 23.9353 63.9993 24.9958 64C26.0567 64 27.0742 63.5785 27.8244 62.8283C28.5746 62.0781 28.996 61.0607 28.996 59.9997V50.6676H34.3279V59.9997C34.3279 61.0607 34.7493 62.0781 35.4995 62.8283C36.2497 63.5785 37.2672 64 38.3281 64C39.3891 64 40.4066 63.5785 41.1568 62.8283C41.907 62.0781 42.3284 61.0607 42.3284 59.9997V50.6676H44.9943C45.7016 50.6676 46.38 50.3868 46.8804 49.887C47.3808 49.3871 47.6623 48.709 47.663 48.0017V21.3398H15.6637V48.0017Z" fill="#22C55E"/>
</svg>
