<svg width="64" height="64" viewBox="0 0 64 64" fill="none" xmlns="http://www.w3.org/2000/svg">
<path d="M31.1055 0.239215C31.5397 0.0845027 32.014 0.084503 32.4482 0.239216L60.0572 10.0773C60.9335 10.3895 61.4788 11.2647 61.3729 12.1888L57.1572 48.9975C57.0837 49.6398 56.7042 50.2069 56.1385 50.5199L32.7452 63.4642C32.1427 63.7976 31.411 63.7976 30.8085 63.4642L7.41515 50.5199C6.84949 50.2069 6.47001 49.6398 6.39645 48.9975L2.18076 12.1888C2.07492 11.2647 2.62021 10.3895 3.49645 10.0773L31.1055 0.239215ZM33.6001 11.1843C32.8977 9.6006 30.6509 9.59833 29.9453 11.1806L14.4047 46.0275C13.8148 47.3503 14.7829 48.8421 16.2313 48.8421H18.7334C19.5517 48.8421 20.2874 48.3437 20.5909 47.5837L23.3249 40.7363C23.6284 39.9763 24.3641 39.4779 25.1823 39.4779H38.304C39.1222 39.4779 39.858 39.9763 40.1614 40.7363L42.8955 47.5837C43.1989 48.3437 43.9346 48.8421 44.7529 48.8421H47.2282C48.6748 48.8421 49.6429 47.3536 49.0564 46.0312L33.6001 11.1843ZM36.0732 30.9119C36.6248 32.2297 35.6569 33.6842 34.2283 33.6842H29.3519C27.9252 33.6842 26.9573 32.2332 27.5053 30.916L29.936 25.0734C30.6184 23.4329 32.9414 23.4304 33.6274 25.0693L36.0732 30.9119Z" fill="#EF4444"/>
</svg>
