<svg width="64" height="64" viewBox="0 0 64 64" fill="none" xmlns="http://www.w3.org/2000/svg">
<g clip-path="url(#clip0_762_6136)">
<path d="M32 2.92809e-05C14.3271 2.92809e-05 0 14.3271 0 32C0 49.6729 14.3271 64 32 64C49.6759 64 64 49.6698 64 32C64 29.012 63.5913 26.1192 62.8261 23.374C62.8256 23.3723 62.8241 23.3712 62.8224 23.3712V23.3712C62.8205 23.3712 62.8189 23.3698 62.8186 23.368C62.8018 23.2716 62.7763 23.1769 62.7422 23.0852C62.7365 23.066 62.7212 23.0337 62.7105 23.0121C62.7031 22.9972 62.6958 22.9822 62.6885 22.9672C62.5604 22.7008 62.3608 22.4749 62.1118 22.3149C61.8558 22.1504 61.5582 22.0624 61.2539 22.0611C61.0434 22.0603 60.8348 22.1011 60.64 22.1811C60.4453 22.2611 60.2683 22.3787 60.1192 22.5273C59.97 22.6759 59.8517 22.8524 59.771 23.0469C59.6902 23.2413 59.6486 23.4497 59.6486 23.6602C59.6504 23.8326 59.68 24.0035 59.7363 24.1664C59.7372 24.169 59.7366 24.1719 59.7346 24.1739V24.1739C59.7328 24.1757 59.7321 24.1784 59.7328 24.1809C60.4438 26.7263 60.8024 29.3572 60.7987 32C60.8096 35.7837 60.07 39.532 58.6226 43.0279C57.1753 46.5238 55.0489 49.698 52.3667 52.3667C49.6981 55.0491 46.5239 57.1755 43.028 58.6229C39.532 60.0703 35.7837 60.8098 32 60.7988C28.2158 60.8102 24.4669 60.0709 20.9703 58.6235C17.4738 57.1761 14.2992 55.0495 11.6302 52.3667C8.94755 49.6982 6.82074 46.5241 5.37286 43.0282C3.92498 39.5322 3.18477 35.7839 3.19508 32C3.19508 24.306 6.19027 17.0702 11.6302 11.6302C14.2994 8.94804 17.4742 6.82198 20.9707 5.37513C24.4672 3.92829 28.216 3.1894 32 3.20126C38.628 3.20126 44.9096 5.42247 50.0026 9.51694C50.3364 9.78532 50.4372 10.2392 50.3559 10.6598C50.3085 10.9051 50.2846 11.1548 50.2848 11.4058C50.2848 12.2378 50.5502 13.0481 51.0422 13.719C51.5343 14.3899 52.2275 14.8864 53.021 15.1364C53.8146 15.3864 54.6672 15.3769 55.455 15.1092C56.2427 14.8415 56.9246 14.3296 57.4015 13.6478C57.8785 12.9661 58.1256 12.15 58.107 11.3182C58.0884 10.4864 57.8051 9.68223 57.2982 9.02247C56.7913 8.3627 56.0873 7.88175 55.2883 7.64949C54.6782 7.4721 54.0369 7.44684 53.4198 7.57185C53.0648 7.64377 52.6863 7.58337 52.4076 7.35195C46.6785 2.5952 39.4588 -0.010075 32 2.92809e-05ZM28.6423 14.9173C28.2288 14.9175 27.8581 15.172 27.7095 15.5578L16.6929 44.1527C16.4405 44.8078 16.924 45.5122 17.626 45.5122H22.8634C23.2814 45.5122 23.6553 45.2523 23.8008 44.8605L25.2416 40.9823C25.3872 40.5905 25.7611 40.3306 26.179 40.3306H35.2104C35.8998 40.3306 36.3824 39.6493 36.1538 38.9989L34.8396 35.2607C34.6988 34.8603 34.3206 34.5924 33.8962 34.5924H28.6969C28.0032 34.5924 27.5203 33.9034 27.7568 33.2514L31.0893 24.0632C31.4096 23.1802 32.6604 23.1859 32.9726 24.0718L40.2921 44.8445C40.4331 45.2446 40.8111 45.5122 41.2353 45.5122H46.4509C47.1529 45.5122 47.6364 44.8078 47.384 44.1527L36.3675 15.5553C36.2188 15.1692 35.8477 14.9146 35.434 14.9148L28.6423 14.9173Z" fill="#A855F7"/>
</g>
<defs>
<clipPath id="clip0_762_6136">
<rect width="64" height="64" fill="white"/>
</clipPath>
</defs>
</svg>
