<svg width="64" height="64" viewBox="0 0 64 64" fill="none" xmlns="http://www.w3.org/2000/svg">
<path d="M53.5027 55.9963C50.8469 59.964 48.0311 63.8358 43.7434 63.8998C39.4557 63.9957 38.0798 61.3719 33.2161 61.3719C28.3204 61.3719 26.8165 63.8358 22.7528 63.9957C18.5611 64.1557 15.3933 59.772 12.7054 55.9003C7.23381 47.9968 3.04208 33.4378 8.67371 23.6464C11.4575 18.7828 16.4492 15.711 21.8568 15.615C25.9526 15.551 29.8563 18.3988 32.3841 18.3988C34.88 18.3988 39.6157 14.975 44.5753 15.487C46.3782 15.5702 50.9941 16.1342 54.6299 19.8676C55.5996 20.8633 55.2488 22.4163 54.2135 23.3436C52.1656 25.1781 49.3009 28.6893 49.343 34.0137C49.4059 40.345 53.0263 43.9154 55.5426 45.6339C56.7504 46.4588 57.5415 48.1374 56.9894 49.4918C56.2885 51.2113 55.1615 53.5944 53.5027 55.9963ZM35.2319 4.79968C37.0292 2.75626 39.7356 1.09168 42.3457 0.374376C43.611 0.0266456 44.7771 1.01839 44.6608 2.32543C44.3992 5.26437 43.0865 8.07742 41.3115 10.2073C39.5186 12.416 36.7762 14.2237 33.8896 14.671C32.7236 14.8517 31.7341 13.9081 31.824 12.7315C32.0542 9.71771 33.5575 6.78807 35.2319 4.79968Z" fill="#868E96"/>
</svg>
