<svg width="64" height="64" viewBox="0 0 64 64" fill="none" xmlns="http://www.w3.org/2000/svg">
<g clip-path="url(#clip0_762_3202)">
<path d="M1.99941 0.00246995C0.895073 0.0027965 0 0.898131 0 2.00247V61.9878C0 63.0923 0.89543 63.9878 2 63.9878H8.3524C9.45697 63.9878 10.3524 63.0923 10.3524 61.9878V59.5963C10.3524 58.4918 9.45697 57.5963 8.3524 57.5963H7.1762C6.07163 57.5963 5.1762 56.7009 5.1762 55.5963V8.39755C5.1762 7.29298 6.07163 6.39755 7.1762 6.39755H8.3524C9.45697 6.39755 10.3524 5.50212 10.3524 4.39755V2.00059C10.3524 0.895791 9.45661 0.000264883 8.35181 0.000591569L1.99941 0.00246995ZM54.7054 0.0036525C53.6006 0.00332594 52.7048 0.898852 52.7048 2.00365V4.40061C52.7048 5.50518 53.6002 6.40061 54.7048 6.40061H55.8902C56.9947 6.40061 57.8902 7.29604 57.8902 8.40061V55.6024C57.8902 56.707 56.9948 57.6025 55.8902 57.6025H54.7048C53.6002 57.6025 52.7048 58.4979 52.7048 59.6025V62C52.7048 63.1046 53.6002 64 54.7048 64H61.0603C62.1648 64 63.0603 63.1046 63.0603 62V2.00553C63.0603 0.901192 62.1652 0.00585742 61.0609 0.00553101L54.7054 0.0036525ZM41.2168 7.53625C39.6862 7.53625 38.37 7.76583 37.268 8.22499C36.1661 8.68108 35.2722 9.36369 34.5835 10.2759C33.8522 11.293 33.3376 12.4495 33.0714 13.6736C32.731 15.2213 32.5708 16.8031 32.5938 18.3876C32.5754 19.9568 32.7294 21.5232 33.053 23.0587C33.3622 24.4117 33.8642 25.5443 34.5529 26.4565C35.2355 27.3717 36.1232 28.0635 37.2252 28.5288C38.3271 28.9941 39.6587 29.2328 41.2168 29.2328C42.8024 29.2328 44.137 29.0033 45.2206 28.5441C46.27 28.1041 47.1861 27.397 47.8776 26.4932C48.551 25.6055 49.0438 24.4668 49.3622 23.0863C49.6805 21.6966 49.8397 20.1263 49.8397 18.3723C49.8397 16.6183 49.6805 15.0725 49.3744 13.7379C49.1209 12.5183 48.6152 11.3651 47.8898 10.3524C47.208 9.42605 46.2891 8.70064 45.2298 8.25253C44.1492 7.77501 42.8116 7.53625 41.2168 7.53625ZM21.8393 7.90358C21.0133 7.90358 20.368 8.60117 19.9365 9.30553C19.6642 9.70267 19.2869 10.0164 18.8468 10.2116C18.358 10.4293 17.8387 10.5707 17.3071 10.631C17.2291 10.6403 17.151 10.649 17.0729 10.6572C16.1394 10.7548 15.3755 11.506 15.3755 12.4446C15.3755 13.382 16.1355 14.142 17.0729 14.142H17.7681C18.8727 14.142 19.7681 15.0374 19.7681 16.142V23.1617C19.7681 24.2662 18.8727 25.1617 17.7681 25.1617H17.1938C16.1896 25.1617 15.3755 25.9757 15.3755 26.9799C15.3755 27.9841 16.1896 28.7982 17.1938 28.7982H27.4681C28.4732 28.7982 29.2879 27.9834 29.2879 26.9784C29.2879 25.9733 28.4732 25.1586 27.4681 25.1586H26.9872C25.8826 25.1586 24.9872 24.2632 24.9872 23.1586V9.90358C24.9872 8.79901 24.0918 7.90358 22.9872 7.90358H21.8393ZM41.2168 11.387C42.3646 11.387 43.185 11.9258 43.6809 13.0002C44.1737 14.0624 44.4186 15.8531 44.4186 18.3754C44.4186 20.864 44.1676 22.6577 43.6625 23.7475C43.1605 24.8403 42.3463 25.3821 41.2168 25.3821C40.0872 25.3821 39.2699 24.8403 38.7649 23.7475C38.2598 22.6547 38.0088 20.8701 38.0088 18.3968C38.0088 15.8561 38.2598 14.0624 38.7526 13.0002C39.2485 11.9288 40.0689 11.387 41.2168 11.387ZM21.8404 34.7718C21.8404 34.7726 21.8398 34.7733 21.8389 34.7733C20.309 34.7734 18.9933 34.9969 17.8917 35.4559C16.8265 35.8863 15.8985 36.5984 15.2072 37.516C14.5154 38.4373 14.0134 39.5669 13.695 40.9015C13.3767 42.2361 13.2206 43.8064 13.2206 45.6155C13.2206 47.3694 13.3706 48.9275 13.6797 50.2896C13.9858 51.6426 14.4879 52.7783 15.1796 53.6935C15.8592 54.6088 16.753 55.2975 17.855 55.7658C18.957 56.2342 20.2824 56.4637 21.8404 56.4637C23.4261 56.4637 24.7607 56.2342 25.8443 55.775C26.8941 55.3342 27.8109 54.6273 28.5043 53.7241C29.1747 52.8364 29.6675 51.6977 29.9858 50.3172C30.3042 48.9275 30.4634 47.3572 30.4634 45.6032C30.4634 43.8492 30.3103 42.3034 30.0042 40.9688C29.7486 39.7488 29.2408 38.5957 28.5135 37.5833C27.834 36.6572 26.9171 35.9317 25.8596 35.4834C24.7794 35.0061 23.4361 34.7704 21.842 34.7702C21.8411 34.7702 21.8404 34.7709 21.8404 34.7718ZM39.7322 35.1345C39.7154 35.6301 39.5709 36.113 39.3128 36.5364C39.0397 36.934 38.6613 37.2478 38.22 37.4425C37.8098 37.6384 37.2986 37.7792 36.6834 37.8619C36.6064 37.8711 36.5293 37.8797 36.4522 37.8878C35.5171 37.9857 34.7519 38.7382 34.7519 39.6785C34.7519 40.6177 35.5132 41.379 36.4523 41.379H37.1444C38.249 41.379 39.1444 42.2744 39.1444 43.379V50.3895C39.1444 51.4941 38.249 52.3895 37.1444 52.3895H36.5716C35.5666 52.3895 34.7519 53.2043 34.7519 54.2093C34.7519 55.2143 35.5666 56.0291 36.5716 56.0291H46.8399C47.8457 56.0291 48.6612 55.2136 48.6612 54.2078C48.6612 53.2019 47.8458 52.3865 46.8399 52.3865H46.3635C45.2589 52.3865 44.3635 51.491 44.3635 50.3865V37.1314C44.3635 36.0269 43.4681 35.1314 42.3635 35.1314H39.7352C39.7335 35.1314 39.7322 35.1328 39.7322 35.1345ZM21.8404 38.6179C22.9883 38.6179 23.8087 39.1567 24.3046 40.2311C24.7974 41.2933 25.0423 43.084 25.0423 45.6032C25.0423 48.0949 24.7974 49.8887 24.2923 50.9784C23.7903 52.0712 22.97 52.613 21.8435 52.613C20.717 52.613 19.8936 52.0712 19.3886 50.9784C18.8835 49.8856 18.6386 48.1041 18.6386 45.6338C18.6386 43.0932 18.8835 41.2933 19.3763 40.2311C19.8722 39.1597 20.6926 38.6179 21.8404 38.6179Z" fill="#F97316"/>
</g>
<defs>
<clipPath id="clip0_762_3202">
<rect width="64" height="64" fill="white"/>
</clipPath>
</defs>
</svg>
