<svg width="64" height="64" viewBox="0 0 64 64" fill="none" xmlns="http://www.w3.org/2000/svg">
<g clip-path="url(#clip0_721_2466)">
<path fill-rule="evenodd" clip-rule="evenodd" d="M7.36738 38.8326C6.53824 40.8243 6.07504 42.9492 6 45.1053C6.11442 46.435 6.56792 47.7132 7.31718 48.8177C8.72703 50.45 10.4225 51.8118 12.3205 52.8362L24.5791 60.9974C26.0875 62.1979 27.7837 63.1413 29.5992 63.7896C30.778 64.0701 32.0062 64.0701 33.185 63.7896C35.0126 63.1492 36.7224 62.2124 38.2457 61.0166L50.6358 52.8506C52.5532 51.8231 54.2679 50.4558 55.6965 48.8154C56.4511 47.7049 56.9042 46.4173 57.0113 45.079C56.9299 42.9053 56.4544 40.7646 55.608 38.7608L44.7718 4.6577C44.5299 3.55323 44.0928 2.50082 43.4809 1.55002C43.0353 1.00856 42.4596 0.589069 41.8076 0.330857C40.7182 0.0354997 39.5849 -0.06326 38.4609 0.0392138H24.352C23.2275 -0.0630001 22.0939 0.0382218 21.0053 0.338029C20.3517 0.59572 19.7755 1.01721 19.3319 1.56197C18.7228 2.51282 18.2896 3.56547 18.053 4.66965L7.36738 38.8326ZM39.0178 7.2777C39.5219 8.07902 39.8789 8.96383 40.0721 9.89054L49.376 40.4509C45.8814 38.6383 42.1304 37.3703 38.2529 36.6906L32.2073 16.2278C32.1701 16.1069 32.1045 15.9967 32.016 15.9064C31.9275 15.8161 31.8186 15.7484 31.6985 15.7088C31.5784 15.6692 31.4506 15.659 31.3257 15.6791C31.2009 15.6991 31.0826 15.7487 30.9809 15.8238C30.8444 15.9237 30.7445 16.0656 30.6964 16.2278L24.7202 36.6835C20.8243 37.3617 17.0559 38.6347 13.5469 40.4581L22.889 9.89771C23.0803 8.96928 23.4383 8.08322 23.9456 7.28249C24.3156 6.82838 24.7941 6.47485 25.3369 6.25456C26.2513 6.00739 27.2027 5.92642 28.1458 6.01551H34.8225C35.7663 5.92634 36.7185 6.00731 37.6337 6.25456C38.1781 6.47548 38.6576 6.83078 39.0274 7.28727L39.0178 7.2777ZM31.8152 44.1228C34.6922 44.2893 37.5452 43.5148 39.943 41.9163C40.2155 42.7743 40.3122 43.6786 40.2271 44.5748C40.1421 45.4711 39.8772 46.341 39.4481 47.1324C38.5662 48.6315 37.2861 49.857 35.75 50.6728C34.1388 51.6959 32.7523 52.5852 32.7523 54.9446C32.7503 55.7015 32.9212 56.4488 33.2519 57.1296C32.1654 56.6783 31.2369 55.9152 30.5838 54.9367C29.9307 53.9581 29.5823 52.8079 29.5825 51.6314V51.4856C29.5825 49.8528 29.5825 47.8424 27.2828 47.8424C26.9622 47.8422 26.6447 47.9048 26.3481 48.0265C25.7513 48.2736 25.2767 48.7473 25.0285 49.3437C24.9053 49.6399 24.8411 49.9575 24.8397 50.2784C23.2634 48.557 22.4167 46.2911 22.4778 43.9578C22.4667 42.948 22.6077 41.9423 22.8962 40.9745C23.8524 42.7841 27.486 44.1299 31.8152 44.1299V44.1228Z" fill="#F97316"/>
</g>
<defs>
<clipPath id="clip0_721_2466">
<rect width="64" height="64" fill="white"/>
</clipPath>
</defs>
</svg>
