<svg width="64" height="64" viewBox="0 0 64 64" fill="none" xmlns="http://www.w3.org/2000/svg">
<path fill-rule="evenodd" clip-rule="evenodd" d="M63.9999 6.56405V36.989C63.9999 44.5115 58.1635 51.0557 50.8416 50.8687C42.4528 50.6521 35.9967 42.1317 39.1497 33.0109C40.8875 27.9828 45.7527 24.6976 50.9471 24.6156C53.426 24.5795 54.3237 25.2223 57.6109 26.371V16.4101C57.6109 14.5985 56.1797 13.1281 54.4163 13.1281H28.8601C27.0967 13.1281 25.6656 14.5985 25.6656 16.4101V50.1069C25.6656 57.6655 19.7749 64.2333 12.421 63.9936C5.3803 63.7639 -0.274041 57.6884 0.0102719 50.3366C0.288195 43.2507 6.36742 37.8945 13.2708 37.7304C16.5324 37.6516 17.1266 38.1641 19.2765 39.4999V6.56405C19.2765 2.93737 22.1388 0 25.6656 0H57.6109C61.1408 0 63.9999 2.93737 63.9999 6.56405Z" fill="#F43F5E"/>
</svg>
