<svg width="64" height="64" viewBox="0 0 64 64" fill="none" xmlns="http://www.w3.org/2000/svg">
<path fill-rule="evenodd" clip-rule="evenodd" d="M41.9141 12.5492L35.973 16.513L29.8546 7.34376L35.7941 3.37849L41.9141 12.5492Z" fill="url(#paint0_linear_762_3216)"/>
<path fill-rule="evenodd" clip-rule="evenodd" d="M56.8924 55.3061L44.8024 63.3742L32.8821 45.5145L44.9706 37.4448L56.8924 55.3061Z" fill="url(#paint1_linear_762_3216)"/>
<path fill-rule="evenodd" clip-rule="evenodd" d="M33.7519 53.6083L24.5491 59.7481L20.5425 53.7474L29.7469 47.6061L33.7519 53.6083Z" fill="url(#paint2_linear_762_3216)"/>
<path fill-rule="evenodd" clip-rule="evenodd" d="M51.769 32.9051L54.3503 31.1832L58.3553 37.1854L52.4143 41.1491L50.1817 37.8001L53.5413 35.5583L51.769 32.9051ZM50.1786 37.8001L48.4108 35.1469L51.769 32.9051L53.5413 35.5583L50.1786 37.8001Z" fill="url(#paint3_linear_762_3216)"/>
<path fill-rule="evenodd" clip-rule="evenodd" d="M10.1133 33.77L8.10238 35.1111L1.98396 25.9404L11.1853 19.799L15.4747 26.2279L8.28435 31.025L15.4763 26.2263L17.3068 28.9682L10.1133 33.77Z" fill="url(#paint4_linear_762_3216)"/>
<path fill-rule="evenodd" clip-rule="evenodd" d="M30.7042 16.0659L32.5347 18.8078L20.4431 26.8759L8.55958 9.06817L20.6496 1L30.7042 16.0659Z" fill="url(#paint5_linear_762_3216)"/>
<path fill-rule="evenodd" clip-rule="evenodd" d="M35.9756 16.5139L29.8546 7.34376L35.7941 3.37849L41.9166 12.5486L35.9756 16.5139Z" fill="url(#paint6_linear_762_3216)"/>
<path fill-rule="evenodd" clip-rule="evenodd" d="M24.3203 55.0609L22.5509 52.4052L29.7422 47.6067L31.5148 50.2592L24.3203 55.0609Z" fill="#714896"/>
<path fill-rule="evenodd" clip-rule="evenodd" d="M50.1796 37.8048L48.4102 35.1523L51.7705 32.9089L53.5399 35.5614L50.1796 37.8048Z" fill="#6F4795"/>
<path fill-rule="evenodd" clip-rule="evenodd" d="M10.1133 33.77L8.28211 31.0261L15.4766 26.2276L17.3045 28.971L10.1133 33.77Z" fill="#88519F"/>
<path fill-rule="evenodd" clip-rule="evenodd" d="M35.973 16.513L34.1414 13.7701L37.5016 11.5299L39.3327 14.27L35.973 16.513Z" fill="#85509E"/>
<path fill-rule="evenodd" clip-rule="evenodd" d="M46.7415 40.0972L34.6511 48.1651L32.8817 45.5126L44.9721 37.4448L46.7415 40.0972Z" fill="#8D166A"/>
<path fill-rule="evenodd" clip-rule="evenodd" d="M30.7042 16.0659L32.5342 18.8059L20.4438 26.8737L18.6127 24.1336L30.7042 16.0659Z" fill="#A70D6F"/>
<path fill-rule="evenodd" clip-rule="evenodd" d="M6.68463 13.8709L8.967 17.2929L5.54832 19.572L3.26595 16.1533L6.68463 13.8709Z" fill="#9E61AD"/>
<path fill-rule="evenodd" clip-rule="evenodd" d="M19.0088 54.8658L21.2912 58.2877L17.8692 60.5701L15.5901 57.1482L19.0088 54.8658Z" fill="#8053A3"/>
<path fill-rule="evenodd" clip-rule="evenodd" d="M10.0113 58.3106L0 43.1868L53.5024 7.39765L64 22.2801L10.0113 58.3106Z" fill="url(#paint7_linear_762_3216)"/>
<defs>
<linearGradient id="paint0_linear_762_3216" x1="-248.413" y1="-88.926" x2="142.665" y2="279.491" gradientUnits="userSpaceOnUse">
<stop stop-color="#C06FBB"/>
<stop offset="1" stop-color="#6E4D9B"/>
</linearGradient>
<linearGradient id="paint1_linear_762_3216" x1="46.6856" y1="53.6581" x2="-58.5002" y2="-93.7046" gradientUnits="userSpaceOnUse">
<stop stop-color="#6E4D9B"/>
<stop offset="0.14" stop-color="#77327A"/>
<stop offset="0.29" stop-color="#B31777"/>
<stop offset="0.84" stop-color="#CD0F7E"/>
<stop offset="1" stop-color="#ED2C89"/>
</linearGradient>
<linearGradient id="paint2_linear_762_3216" x1="-181.653" y1="-431.652" x2="171.794" y2="72.9896" gradientUnits="userSpaceOnUse">
<stop stop-color="#C06FBB"/>
<stop offset="1" stop-color="#6E4D9B"/>
</linearGradient>
<linearGradient id="paint3_linear_762_3216" x1="-525.627" y1="-291.562" x2="52.9172" y2="195.455" gradientUnits="userSpaceOnUse">
<stop stop-color="#C06FBB"/>
<stop offset="1" stop-color="#6E4D9B"/>
</linearGradient>
<linearGradient id="paint4_linear_762_3216" x1="-89.8249" y1="-143.034" x2="260.079" y2="173.316" gradientUnits="userSpaceOnUse">
<stop stop-color="#C06FBB"/>
<stop offset="1" stop-color="#6E4D9B"/>
</linearGradient>
<linearGradient id="paint5_linear_762_3216" x1="122.29" y1="159.404" x2="16.6583" y2="11.1404" gradientUnits="userSpaceOnUse">
<stop stop-color="#6E4D9B"/>
<stop offset="0.14" stop-color="#77327A"/>
<stop offset="0.29" stop-color="#B31777"/>
<stop offset="0.84" stop-color="#CD0F7E"/>
<stop offset="1" stop-color="#ED2C89"/>
</linearGradient>
<linearGradient id="paint6_linear_762_3216" x1="-248.375" y1="-107.43" x2="140.768" y2="334.675" gradientUnits="userSpaceOnUse">
<stop stop-color="#C06FBB"/>
<stop offset="1" stop-color="#6E4D9B"/>
</linearGradient>
<linearGradient id="paint7_linear_762_3216" x1="5.10197" y1="51.1653" x2="59.313" y2="15.2666" gradientUnits="userSpaceOnUse">
<stop stop-color="#6E4D9B"/>
<stop offset="0.14" stop-color="#77327A"/>
<stop offset="0.53" stop-color="#B31777"/>
<stop offset="0.79" stop-color="#CD0F7E"/>
<stop offset="1" stop-color="#ED2C89"/>
</linearGradient>
</defs>
</svg>
