<svg width="64" height="64" viewBox="0 0 64 64" fill="none" xmlns="http://www.w3.org/2000/svg">
<g clip-path="url(#clip0_763_2678)">
<path d="M56.1099 13.0536L35.8983 1.06404C34.723 0.367522 33.3819 0 32.0156 0C30.6494 0 29.3083 0.367522 28.1329 1.06404L7.92989 13.0536C6.72824 13.7706 5.73398 14.7882 5.04496 16.0062C4.35593 17.2241 3.99588 18.6005 4.00023 19.9998V43.9959C3.99309 45.3913 4.34833 46.7645 5.03117 47.9814C5.71401 49.1982 6.70107 50.217 7.89576 50.9379L28.103 62.936C29.2784 63.6325 30.6195 64 31.9857 64C33.352 64 34.6931 63.6325 35.8685 62.936L56.0757 50.9379C57.2707 50.2173 58.258 49.1986 58.9409 47.9817C59.6237 46.7648 59.9788 45.3913 59.9713 43.9959V19.9998C59.9824 18.6082 59.633 17.2373 58.957 16.0208C58.2811 14.8043 57.3017 13.7835 56.1141 13.0578L56.1099 13.0536ZM40.4552 50.5198V52.2435C40.4535 52.3496 40.4253 52.4536 40.3732 52.546C40.321 52.6385 40.2465 52.7163 40.1565 52.7726L39.1368 53.3571C38.9747 53.4425 38.8381 53.3571 38.8381 53.131V51.4414C38.1158 51.7953 37.2897 51.8756 36.5127 51.6675C36.4514 51.6273 36.4062 51.5667 36.3852 51.4965C36.3641 51.4263 36.3685 51.3508 36.3975 51.2835L36.7645 49.7261C36.7849 49.641 36.8223 49.5609 36.8743 49.4906C36.9264 49.4202 36.9921 49.361 37.0674 49.3165C37.093 49.3055 37.1206 49.2998 37.1485 49.2998C37.1764 49.2998 37.204 49.3055 37.2296 49.3165C37.9443 49.5082 38.7058 49.4117 39.3501 49.0477C39.8066 48.8239 40.1943 48.481 40.4721 48.0552C40.75 47.6294 40.9078 47.1365 40.9288 46.6285C40.9288 45.7495 40.4509 45.3826 39.2904 45.3783C37.8226 45.3783 36.4701 45.0967 36.4317 42.9292C36.4489 42.0033 36.6709 41.0927 37.0818 40.2628C37.4927 39.4328 38.0823 38.7042 38.8083 38.1292V36.3926C38.8077 36.2849 38.8349 36.1788 38.8872 36.0847C38.9395 35.9905 39.0152 35.9114 39.1069 35.855L40.0925 35.2278C40.2547 35.1424 40.3912 35.2278 40.3912 35.4582V37.2033C40.9958 36.9273 41.671 36.8453 42.324 36.9686C42.3927 37.0074 42.4442 37.0708 42.4679 37.146C42.4917 37.2213 42.486 37.3027 42.452 37.374L42.1064 38.9185C42.0642 39.0762 41.9655 39.2128 41.8291 39.3025C41.7806 39.3188 41.7282 39.3188 41.6798 39.3025C41.0432 39.1645 40.3779 39.2744 39.8195 39.6097C39.4117 39.7859 39.0624 40.0744 38.8123 40.4415C38.5622 40.8087 38.4217 41.2394 38.4072 41.6834C38.4072 42.4727 38.8253 42.7159 40.2205 42.7415C42.0894 42.7415 42.8958 43.5906 42.9171 45.4679C42.8988 46.4385 42.6695 47.3936 42.2451 48.2666C41.8207 49.1397 41.2114 49.91 40.4595 50.524L40.4552 50.5198ZM51.041 47.6184C51.0543 47.6916 51.047 47.7671 51.0199 47.8365C50.9928 47.9058 50.9469 47.9662 50.8874 48.0109L45.7758 51.1128C45.7524 51.1328 45.7233 51.1448 45.6926 51.1471C45.6619 51.1494 45.6313 51.1419 45.6052 51.1256C45.5789 51.1096 45.5582 51.0858 45.546 51.0575C45.5338 51.0293 45.5306 50.9979 45.5369 50.9678V49.6451C45.5404 49.5741 45.5645 49.5057 45.6061 49.4481C45.6478 49.3906 45.7052 49.3463 45.7716 49.3208L50.802 46.3085C50.8262 46.2892 50.8558 46.2779 50.8866 46.2761C50.9175 46.2743 50.9482 46.2821 50.9744 46.2985C51.0006 46.3149 51.0211 46.339 51.033 46.3676C51.045 46.3961 51.0477 46.4277 51.041 46.4578V47.6184ZM54.5696 18.1182L35.4461 29.9285C33.061 31.3408 31.3073 32.8853 31.3073 35.7611V59.3135C31.3073 61.0373 32.0113 62.1381 33.0695 62.4751C32.7204 62.5407 32.3664 62.5764 32.0113 62.5818C30.8849 62.5818 29.7841 62.2746 28.8198 61.6986L8.6083 49.7048C7.62778 49.1101 6.81779 48.2718 6.25706 47.2715C5.69632 46.2711 5.40391 45.1427 5.40825 43.9959V19.9998C5.40244 18.8516 5.69415 17.7214 6.25495 16.7195C6.81576 15.7175 7.62654 14.8779 8.6083 14.2824L28.8241 2.29286C29.7856 1.72286 30.8829 1.42208 32.0007 1.42208C33.1185 1.42208 34.2157 1.72286 35.1773 2.29286L55.3845 14.2909C56.2075 14.7886 56.9118 15.4599 57.4483 16.2581C57.9848 17.0562 58.3406 17.9619 58.4907 18.9118C57.8336 17.4867 56.3232 17.0899 54.5653 18.1224H54.5738L54.5696 18.1182Z" fill="#22C55E"/>
</g>
<defs>
<clipPath id="clip0_763_2678">
<rect width="64" height="64" fill="white"/>
</clipPath>
</defs>
</svg>
