<svg width="64" height="64" viewBox="0 0 64 64" fill="none" xmlns="http://www.w3.org/2000/svg">
<path d="M62.7791 31.4812C59.4873 28.3182 43.0261 26.3436 37.8321 25.7688C38.0854 25.1694 38.3001 24.5543 38.4747 23.9273C39.1828 23.6175 39.9473 23.3289 40.7375 23.088C40.8337 23.3721 41.2873 24.4605 41.5458 24.9771C51.9898 25.2651 52.5261 17.2157 52.9508 15.0106C53.3663 12.8542 53.345 10.7708 56.9275 6.96209C51.5904 5.40672 43.9152 9.37276 41.3442 15.2754C40.3782 14.9133 39.4098 14.6461 38.4523 14.4808C37.766 11.7124 34.1924 4 24.8146 4C12.9414 4 0 13.7952 0 30.3768C0 44.3149 9.51599 56.5301 14.8921 56.5301C17.2401 56.5301 19.2598 54.7716 19.734 53.1955C20.1315 54.2763 21.3513 57.6357 21.7518 58.491C22.3439 59.7559 25.0822 60.8502 26.2804 59.5378C27.8211 60.3936 30.6483 60.9094 32.1891 58.6266C35.1565 59.2543 37.7797 57.4848 37.8372 55.3733C39.2932 55.2955 40.0075 53.2511 39.6895 51.623C39.4552 50.4242 36.9512 46.123 35.9746 44.6381C37.908 46.2107 42.8051 46.6559 43.3998 44.6391C46.517 47.0858 51.3746 45.8017 51.7597 43.8118C55.5474 44.796 59.8916 42.6345 59.1782 40.0169C65.2628 39.596 64.4839 33.1224 62.7768 31.4817L62.7791 31.4812Z" fill="#543729"/>
<path d="M45.8364 17.674C47.1469 15.074 48.7937 12.2348 50.8736 10.4785C48.5843 11.401 46.324 14.1591 44.9876 17.1071C44.3203 16.6821 43.6292 16.2959 42.9175 15.9503C44.7817 11.9711 49.1136 8.64782 53.8874 8.38813C50.69 11.2882 51.8248 17.3155 49.1959 20.5064C48.4436 19.7507 46.7161 18.2924 45.8364 17.674ZM43.7694 21.9081C43.7707 21.8085 43.808 21.0411 43.878 20.6908C43.6945 20.6476 42.555 20.4246 41.9607 20.4385C41.9174 21.1849 42.2744 22.4543 42.627 23.2186C45.0561 23.1677 46.8106 22.4402 47.8433 21.7715C46.9642 21.3617 45.464 20.9973 44.3232 20.7794C44.1958 21.0427 43.8827 21.7137 43.7694 21.9081Z" fill="#00ACEE"/>
<path d="M34.7437 42.4795C34.7442 42.4829 34.7458 42.4876 34.7462 42.4911C34.4382 41.8286 34.1113 41.0239 33.7208 39.972C35.2413 42.1851 40.0065 41.0436 39.7565 39.0605C42.0889 40.8154 46.8899 38.7682 45.7985 36.3073C48.1348 37.396 50.8015 35.2055 50.2035 34.2509C54.1868 35.0192 58.0039 35.7849 59.2023 36.0915C58.4064 37.3894 56.5934 38.306 53.8606 37.6691C55.3372 39.6806 52.4703 42.0941 48.4768 40.7647C49.356 42.7397 45.8003 44.5175 41.7593 42.459C41.8106 44.4349 36.746 44.6625 34.7437 42.4795ZM42.6453 32.4936C47.2683 32.8485 54.9136 33.5378 59.6469 34.2003C59.3479 32.6599 58.531 32.2199 55.9616 31.5298C53.1982 31.8245 46.1873 32.5131 42.6453 32.4936Z" fill="#2BAF2B"/>
<path d="M39.7565 39.0605C42.0889 40.8154 46.8899 38.7682 45.7985 36.3073C48.1348 37.396 50.8015 35.2055 50.2035 34.2509C45.4942 33.3429 40.5529 32.4321 39.432 32.2728C40.112 32.3089 41.2386 32.3856 42.6453 32.4936C46.1873 32.5131 53.1982 31.8245 55.9616 31.5298C51.4872 30.3952 42.3524 28.7402 36.0439 28.3323C35.7516 28.7595 35.2141 29.4842 34.278 30.2543C31.5177 36.0945 26.5167 39.9764 20.9832 39.9764C19.3706 39.9764 17.5663 39.7044 15.5441 39.0579C14.2829 40.409 8.90602 41.4329 4.54316 39.2914C8.0038 47.3947 16.0293 52.8039 24.9135 52.8039C32.3952 52.8039 35.7129 45.1639 34.9868 43.1424C34.8107 42.6516 34.1114 41.0239 33.7208 39.972C35.2413 42.1851 40.0065 41.0436 39.7565 39.0605Z" fill="#FFCC2F"/>
<path d="M35.2231 23.6839C35.8837 23.3246 38.1665 21.9408 40.3418 21.4208C40.3071 21.1791 40.2817 20.9361 40.2655 20.6924C38.8384 21.0343 36.1478 22.1876 34.6058 20.5984C37.8587 21.58 39.4829 19.7236 41.8739 19.7236C43.2985 19.7236 45.3316 20.1217 46.9342 20.7508C45.6451 19.56 41.4184 15.9665 36.1852 15.9542C35.0168 17.3706 33.7541 20.4392 35.2231 23.6839Z" fill="#CECECE"/>
<path d="M15.5441 39.0579C17.5663 39.7044 19.3706 39.9764 20.9832 39.9764C26.5167 39.9764 31.5177 36.0945 34.278 30.2543C32.2364 31.9583 28.6884 33.4152 23.1474 33.4152C28.083 32.2961 32.3318 29.8364 34.4931 26.2413C32.9738 23.8232 31.326 18.4735 35.4989 14.2445C34.857 12.1821 31.7326 6.7379 24.8158 6.7379C12.7449 6.7379 2.74113 16.8386 2.74113 30.3746C2.74113 33.579 3.38757 36.5864 4.54316 39.2914C8.90602 41.4329 14.2829 40.409 15.5441 39.0579Z" fill="#EF5734"/>
<path d="M19.1646 18.4459C19.1646 21.525 21.6607 24.0212 24.7398 24.0212C27.8189 24.0212 30.3153 21.5248 30.3153 18.4459C30.3153 15.3668 27.8189 12.8705 24.7398 12.8705C21.6607 12.8705 19.1646 15.3668 19.1646 18.4459Z" fill="#FFCC2F"/>
<path d="M21.4024 18.4459C21.4024 20.2893 22.8971 21.7837 24.7403 21.7837C26.584 21.7837 28.0783 20.2891 28.0783 18.4459C28.0783 16.6023 26.584 15.1078 24.7403 15.1078C22.897 15.1078 21.4024 16.6024 21.4024 18.4459Z" fill="#543729"/>
<path d="M24.7398 18.1749C25.8141 18.1749 26.685 17.6334 26.685 16.9655C26.685 16.2976 25.8141 15.7561 24.7398 15.7561C23.6656 15.7561 22.7947 16.2976 22.7947 16.9655C22.7947 17.6334 23.6656 18.1749 24.7398 18.1749Z" fill="white"/>
</svg>
