<svg width="64" height="64" viewBox="0 0 64 64" fill="none" xmlns="http://www.w3.org/2000/svg">
<g clip-path="url(#clip0_762_2503)">
<path d="M32 0C49.673 0 64 14.327 64 32C64 49.673 49.673 64 32 64C14.327 64 0 49.673 0 32C0 14.327 14.327 0 32 0Z" fill="#EAB308"/>
<path d="M43.7428 14.6001C44.0043 15.5086 43.3141 23.7146 56.4283 28.6573C55.4948 30.5483 51.3283 32.3396 43.8571 34.0286C42.9718 23.0821 40.9143 17.6286 43.7428 14.6001Z" fill="#EAB308"/>
<path d="M45.9696 33.2022C45.7586 33.2497 45.5467 33.2953 45.334 33.339C44.7474 33.4596 44.2006 33.0223 44.1568 32.425C44.0374 30.7982 43.8598 29.3011 43.6686 27.911C43.5751 27.231 44.2364 26.6319 44.8104 26.2554C45.1969 26.0019 45.4876 25.6025 45.5923 25.1142C45.8041 24.127 45.1753 23.155 44.1881 22.943C43.995 22.9016 43.9287 23.2143 44.0446 23.3742C44.241 23.6451 44.3173 23.9995 44.222 24.3472C44.1898 24.4652 44.1403 24.5737 44.0769 24.6708C43.7787 25.1281 43.2042 24.7456 43.1264 24.2053C42.898 22.6198 42.7242 21.1782 42.7081 19.8269C42.6951 18.7418 44.133 18.8094 44.5873 19.7949C45.2609 21.256 46.2558 22.6187 47.5333 23.8662C49.7807 26.062 52.8747 27.7846 55.4074 28.5044C55.6087 28.5616 55.8328 28.6749 55.823 28.8839C55.8198 28.9526 55.8004 29.027 55.763 29.1082C55.7167 29.2086 55.6372 29.2889 55.5482 29.3545C55.3736 29.4834 55.1863 29.6086 54.9936 29.722C52.5263 31.1682 49.5076 32.4067 45.9696 33.2022ZM57.9763 27.017C57.9763 25.502 56.7483 24.274 55.2336 24.274C54.3982 24.274 53.6513 24.648 53.1491 25.2375C52.7292 25.7303 52.0203 26.0709 51.4662 25.7359C47.5924 23.3942 43.6899 19.2261 44.6335 13.4377C44.6574 13.2913 44.7167 13.1511 44.8056 13.0323C45.2919 12.3828 45.8776 11.731 46.5818 11.0684C47.2377 10.4513 46.9045 9.34152 46.0043 9.36764C44.0232 9.42512 42.0023 9.80573 40.0225 10.4445C39.367 10.656 38.6741 10.1931 38.7105 9.50531C38.7528 8.70453 38.8517 7.86814 39.0139 6.97796C39.1496 6.23346 38.4809 5.57772 37.7701 5.83737C35.6821 6.60007 33.6851 7.78105 31.8547 9.25148C31.3188 9.68206 30.5081 9.4984 30.2956 8.84454C30.0456 8.07519 29.8367 7.25127 29.6681 6.35337C29.5284 5.60959 28.6693 5.237 28.0988 5.73417C26.4097 7.20597 24.9592 9.04144 23.772 11.0895C23.4273 11.6843 22.6049 11.8051 22.1711 11.2718C21.6535 10.6353 21.1553 9.93142 20.6686 9.14139C20.2716 8.49709 19.3361 8.45711 18.9816 9.12569C17.9365 11.0967 17.2416 13.3195 16.8661 15.6463C16.7562 16.3274 16.0268 16.7339 15.4308 16.3862C14.7529 15.9907 14.0689 15.5314 13.3666 14.9953C12.7651 14.5361 11.8775 14.8341 11.7861 15.5853C11.5166 17.8004 11.6644 20.1251 12.1481 22.4324C12.289 23.1046 11.7592 23.7438 11.0806 23.6385C10.2673 23.5124 9.4233 23.323 8.52975 23.0611C7.80359 22.8482 7.08161 23.4445 7.26552 24.1785C7.80764 26.3423 8.77842 28.459 10.0562 30.4391C10.4303 31.0189 10.1603 31.8091 9.48494 31.9501C8.7177 32.1103 7.90352 32.2275 7.02427 32.2996C6.27012 32.3615 5.80993 33.177 6.24467 33.7963C7.56701 35.6801 9.29729 37.3536 11.2757 38.7729C11.7626 39.1223 11.7935 39.8462 11.2954 40.1795C10.1734 40.9304 8.87671 41.6073 7.31699 42.2376C7.31689 42.2376 7.31692 42.2377 7.31702 42.2377C7.31704 42.2377 7.31706 42.2378 7.31708 42.2378C9.4387 43.9986 12.0682 45.2504 14.9117 46.0224C15.5775 46.2031 15.9052 46.9711 15.4969 47.5272C15.0339 48.1578 14.5071 48.7878 13.9027 49.4278C13.3831 49.978 13.5867 50.8919 14.3242 51.0613C16.4917 51.5591 18.8109 51.6562 21.148 51.4195C21.8321 51.3502 22.4122 51.9458 22.2347 52.6101C21.9039 53.8481 21.413 55.1446 20.7193 56.5668C20.7192 56.567 20.7193 56.5672 20.7196 56.5672C23.4801 56.4558 26.2779 55.6236 28.9124 54.2897C29.5255 53.9793 30.2806 54.3261 30.3542 55.0093C30.4418 55.8233 30.4769 56.683 30.4553 57.6086C30.4376 58.3652 31.2003 58.9084 31.8619 58.5409C37.5765 55.3664 41.9504 48.747 43.576 42.189C44.055 40.9015 44.3098 39.039 44.3098 36.468C44.3098 36.0855 44.3047 35.7113 44.2961 35.343C44.2844 34.8414 44.6399 34.4054 45.1324 34.3096C49.9022 33.3824 53.3977 31.7173 55.4556 30.5105C56.1987 30.0748 56.9514 29.4492 57.2626 28.9098C57.3079 28.8312 57.3562 28.7544 57.4113 28.6824C57.7652 28.2206 57.9763 27.6437 57.9763 27.017Z" fill="#212529"/>
</g>
<defs>
<clipPath id="clip0_762_2503">
<rect width="64" height="64" fill="white"/>
</clipPath>
</defs>
</svg>
