<svg width="64" height="64" viewBox="0 0 64 64" fill="none" xmlns="http://www.w3.org/2000/svg">
<g clip-path="url(#clip0_762_3316)">
<path d="M64 33.8972C64 47.8032 49.6735 59.077 32 59.077C14.3265 59.077 0 47.8042 0 33.8972C0 25.2756 5.4857 17.6596 13.9149 13.1433C22.3445 8.62668 27.5921 4.00049 31.999 4.00049C36.4058 4.00049 40.1727 7.77651 50.0832 13.1433C58.5128 17.6599 63.998 25.2763 63.998 33.8972H64Z" fill="#FFF3E0"/>
<path d="M64 33.8973C63.9956 32.1109 63.7496 30.3333 63.2686 28.6128C60.7726 59.0586 23.635 60.5213 9.03308 51.4151C15.5967 56.5024 23.6962 59.2044 31.9995 59.0768C49.6451 59.0768 64 47.7863 64 33.8973Z" fill="#FBE9E7"/>
<path d="M19.6851 11.4697C23.7719 9.01942 29.2028 4.42058 34.5416 4.41143C33.7202 4.14592 32.8631 4.00718 31.9998 4C29.7872 4 27.4284 5.1429 24.4569 6.86172C23.4238 7.46515 22.3541 8.1325 21.2203 8.82744C19.09 10.144 16.6489 11.6343 13.906 13.1245C5.20214 17.8331 0.00012207 25.5946 0.00012207 33.8964V34.9844C5.54071 15.4097 15.6073 13.9207 19.6851 11.4697Z" fill="#FAFAFA"/>
<path fill-rule="evenodd" clip-rule="evenodd" d="M29.3669 6.31284C29.3797 8.47167 28.9264 10.6078 28.0381 12.5755C27.1497 14.5431 25.8472 16.2958 24.2195 17.714C23.9635 17.9426 24.1646 18.3814 24.4938 18.2534C27.5748 17.0557 31.7349 13.4717 29.9795 6.23974C29.9063 5.82831 29.3669 5.93798 29.3669 6.31284ZM31.4423 6.31284C32.5611 8.1382 33.2719 10.1839 33.526 12.3097C33.7801 14.4356 33.5714 16.5912 32.9143 18.6288C32.8046 18.9488 33.1978 19.2231 33.4172 18.9579C35.4195 16.398 37.1656 11.3145 31.9361 5.8286C31.671 5.59088 31.2595 5.95661 31.4424 6.2766L31.4423 6.31284ZM33.9657 6.15741C35.7176 7.39767 37.1832 8.99919 38.2636 10.8539C39.3439 12.7087 40.014 14.7735 40.2286 16.9093C40.2194 16.9862 40.2401 17.0638 40.2865 17.1259C40.3329 17.188 40.4014 17.2299 40.4778 17.2428C40.5543 17.2558 40.6328 17.2388 40.697 17.1954C40.7613 17.152 40.8063 17.0856 40.8229 17.0098C41.6641 13.819 41.1886 8.37902 34.2675 5.55399C33.9018 5.40771 33.6641 5.90141 33.9658 6.12084L33.9657 6.15741ZM17.0877 15.6659C19.1716 15.0434 21.1011 13.9889 22.7504 12.5712C24.3997 11.1534 25.7319 9.40422 26.6603 7.43743C26.8249 7.10829 27.346 7.2363 27.2637 7.60201C25.682 14.9163 20.3883 16.4431 17.0966 16.242C16.7491 16.2511 16.7586 15.7665 17.0877 15.6659Z" fill="#BCAAA4"/>
<path d="M38.4463 40.571C38.0356 42.2532 37.1007 43.7613 35.7766 44.8773C34.7826 45.8409 33.4957 46.4457 32.1195 46.5961C30.7019 46.4696 29.3699 45.8632 28.3435 44.8773C27.033 43.756 26.1112 42.2485 25.7104 40.571C25.6971 40.4714 25.7068 40.3701 25.7387 40.2748C25.7706 40.1796 25.8239 40.0929 25.8945 40.0214C25.9651 39.9499 26.0511 39.8955 26.146 39.8624C26.2409 39.8293 26.3421 39.8184 26.4418 39.8304H37.7236C37.8227 39.8199 37.9228 39.832 38.0165 39.8657C38.1102 39.8995 38.195 39.9541 38.2645 40.0254C38.3341 40.0967 38.3865 40.1828 38.4179 40.2773C38.4494 40.3719 38.4593 40.4723 38.4463 40.571Z" fill="#B71C1C"/>
<path d="M28.3429 44.9516C29.3672 45.9381 30.6944 46.5502 32.1098 46.6887C33.5219 46.5482 34.8456 45.9362 35.8675 44.9516C36.1944 44.6469 36.4999 44.32 36.7818 43.9733C36.2185 43.3344 35.5305 42.8174 34.7601 42.4542C33.9897 42.091 33.1531 41.8892 32.3017 41.8613C31.3909 41.8829 30.4988 42.1255 29.7025 42.5683C28.9062 43.0111 28.2294 43.6407 27.7303 44.4031C27.9406 44.5951 28.1235 44.7779 28.3429 44.9516Z" fill="#FF5252"/>
<path d="M28.4891 44.2294C28.9424 43.6435 29.5226 43.168 30.1861 42.8386C30.8496 42.5093 31.5792 42.3346 32.3199 42.3278C33.6891 42.3681 34.9937 42.9193 35.9771 43.8729C36.1874 43.6443 36.3885 43.4066 36.5805 43.1689C35.4174 42.0611 33.8802 41.4313 32.2742 41.4043C31.4159 41.4117 30.5699 41.609 29.7969 41.9821C29.0239 42.3551 28.3431 42.8947 27.8033 43.562C28.0195 43.7969 28.2485 44.0197 28.4891 44.2294Z" fill="#37474F"/>
<path d="M32.0825 47.1463C30.559 47.0128 29.1252 46.3684 28.0139 45.3177C26.5987 44.1207 25.6025 42.5031 25.1705 40.7005C25.1395 40.5401 25.1448 40.3747 25.1859 40.2165C25.2271 40.0583 25.303 39.9113 25.4082 39.7863C25.5335 39.635 25.6918 39.5143 25.8708 39.4335C26.0499 39.3527 26.245 39.3138 26.4414 39.32H37.7232C37.9193 39.3158 38.1138 39.3556 38.2925 39.4362C38.4713 39.5169 38.6297 39.6365 38.7563 39.7863C38.8605 39.9118 38.9352 40.0591 38.9747 40.2174C39.0143 40.3756 39.0178 40.5407 38.9849 40.7005C38.5529 42.5031 37.5567 44.1207 36.1415 45.3177C35.0326 46.3665 33.6028 47.0108 32.0825 47.1463ZM26.4414 40.3806C26.2951 40.3806 26.2585 40.4446 26.2494 40.4628C26.6358 42.026 27.5101 43.4254 28.7454 44.4583C29.6487 45.3482 30.823 45.9113 32.0825 46.0583C33.3387 45.913 34.5118 45.357 35.4196 44.4766C36.651 43.442 37.5219 42.0429 37.9065 40.4811C37.8865 40.4519 37.8589 40.4288 37.8266 40.4142C37.7944 40.3997 37.7587 40.3944 37.7236 40.3989L26.4414 40.3806Z" fill="#37474F"/>
<path d="M45.9149 41.1379C48.8688 41.1379 51.2634 39.7298 51.2634 37.9928C51.2634 36.2558 48.8688 34.8477 45.9149 34.8477C42.9609 34.8477 40.5663 36.2558 40.5663 37.9928C40.5663 39.7298 42.9609 41.1379 45.9149 41.1379Z" fill="#F8BBD0"/>
<path d="M18.2402 41.1379C21.1941 41.1379 23.5888 39.7298 23.5888 37.9928C23.5888 36.2558 21.1941 34.8477 18.2402 34.8477C15.2862 34.8477 12.8916 36.2558 12.8916 37.9928C12.8916 39.7298 15.2862 41.1379 18.2402 41.1379Z" fill="#F8BBD0"/>
<path fill-rule="evenodd" clip-rule="evenodd" d="M20.7549 36.7313C21.7517 36.7331 22.7266 36.4392 23.5563 35.8867C24.3859 35.3343 25.0331 34.5481 25.4158 33.6278C25.7985 32.7074 25.8996 31.6942 25.7063 30.7164C25.5129 29.7385 25.0339 28.84 24.3297 28.1346C23.6255 27.4291 22.7279 26.9484 21.7504 26.7532C20.7729 26.5581 19.7595 26.6573 18.8385 27.0384C17.9174 27.4194 17.1301 28.0651 16.5761 28.8937C16.0221 29.7224 15.7264 30.6967 15.7264 31.6935C15.7264 33.028 16.2559 34.308 17.1987 35.2525C18.1415 36.197 19.4204 36.7288 20.7549 36.7313ZM43.4021 36.7313C44.4 36.7385 45.3776 36.4492 46.2109 35.9001C47.0441 35.351 47.6955 34.5667 48.0824 33.6469C48.4693 32.727 48.5743 31.7129 48.3841 30.7333C48.1939 29.7537 47.717 28.8526 47.0139 28.1444C46.3108 27.4362 45.4133 26.9528 44.4351 26.7554C43.4569 26.558 42.4421 26.6556 41.5194 27.0358C40.5967 27.416 39.8078 28.0617 39.2526 28.8909C38.6974 29.7201 38.401 30.6956 38.401 31.6935C38.3985 33.024 38.9235 34.3013 39.8608 35.2455C40.7982 36.1898 42.0716 36.724 43.4021 36.7313Z" fill="#37474F"/>
<path fill-rule="evenodd" clip-rule="evenodd" d="M19.1998 32.0136C19.5745 32.0154 19.9413 31.9059 20.2537 31.6991C20.5661 31.4922 20.8101 31.1973 20.9548 30.8516C21.0994 30.506 21.1382 30.1252 21.0662 29.7575C20.9942 29.3897 20.8147 29.0517 20.5504 28.7861C20.2861 28.5205 19.9489 28.3393 19.5815 28.2656C19.2142 28.1918 18.8332 28.2287 18.4868 28.3717C18.1405 28.5147 17.8444 28.7572 17.636 29.0686C17.4276 29.3801 17.3164 29.7463 17.3164 30.121C17.3164 30.6214 17.5145 31.1014 17.8675 31.456C18.2204 31.8107 18.6994 32.0112 19.1998 32.0136ZM41.847 32.0136C42.2217 32.0154 42.5885 31.9059 42.9009 31.6991C43.2133 31.4922 43.4573 31.1973 43.602 30.8516C43.7466 30.506 43.7854 30.1252 43.7134 29.7575C43.6414 29.3897 43.4619 29.0517 43.1976 28.7861C42.9333 28.5205 42.5961 28.3393 42.2287 28.2656C41.8614 28.1918 41.4804 28.2287 41.134 28.3717C40.7877 28.5147 40.4916 28.7572 40.2832 29.0686C40.0748 29.3801 39.9636 29.7463 39.9636 30.121C39.9635 30.6182 40.1592 31.0955 40.5082 31.4496C40.8572 31.8038 41.3315 32.0064 41.8287 32.0136H41.847Z" fill="white"/>
</g>
<defs>
<clipPath id="clip0_762_3316">
<rect width="64" height="64" fill="white"/>
</clipPath>
</defs>
</svg>
