<svg width="64" height="64" viewBox="0 0 64 64" fill="none" xmlns="http://www.w3.org/2000/svg">
<path d="M49.9882 51.0026C51.2325 50.6413 52.5948 51.3789 52.8146 52.6559L54.0589 59.8848C54.2047 60.7319 53.7935 61.5838 52.9885 61.8852C51.8617 62.3071 50.4003 62.7073 48.6343 63.0857C46.0286 63.68 42.9656 64 39.4457 64C29.343 63.8171 21.7543 60.8 16.6799 55.0401C11.4686 49.2342 9 41.8745 9 32.96C9.18286 22.3999 12.2914 14.3084 18.3258 8.64007C24.1771 2.92564 31.6744 0 40.7257 0C44.1543 0 47.1259 0.320002 49.5945 0.868581C51.2663 1.24009 52.6446 1.63256 53.7293 2.0602C54.5541 2.38538 54.9377 3.28884 54.7299 4.1508L52.8447 11.9744C52.5713 13.1092 51.3883 13.7696 50.2789 13.4069L47.5832 12.5256C45.7546 12.0684 43.6058 11.8399 41.183 11.8399C35.926 11.7941 31.5373 13.4856 28.1085 16.8685C24.6342 20.2057 22.8973 25.3256 22.7143 32.1371C22.76 38.3543 24.4057 43.2 27.6515 46.7657C30.8972 50.2857 35.4228 52.1142 41.3202 52.1599L47.4002 51.6113C48.3334 51.4377 49.1944 51.2332 49.9882 51.0026Z" fill="#3B82F6"/>
</svg>
