<svg width="64" height="64" viewBox="0 0 64 64" fill="none" xmlns="http://www.w3.org/2000/svg">
<g clip-path="url(#clip0_762_2652)">
<path d="M31.5237 39.6198C35.7318 39.6198 39.1432 36.2085 39.1432 32.0004C39.1432 27.7923 35.7318 24.381 31.5237 24.381C27.3157 24.381 23.9043 27.7923 23.9043 32.0004C23.9043 36.2085 27.3157 39.6198 31.5237 39.6198Z" fill="#DEE2E6"/>
<path d="M31.045 0C16.1356 0 3.60889 10.1999 0.0539547 24.0004C0.0204161 24.1245 0.00237769 24.2523 0.000252068 24.3808C0.000318916 24.785 0.160887 25.1725 0.446647 25.4583C0.732406 25.744 1.11996 25.9046 1.52409 25.9047H14.4257C15.0195 25.9047 15.5291 25.5643 15.7803 25.0679C15.7982 25.0324 15.8188 24.998 15.8318 24.9605C18.4917 19.2206 24.3009 15.2381 31.0419 15.2381C40.2991 15.2381 47.8038 22.7418 47.8038 32C47.8038 41.2582 40.3012 48.7619 31.0439 48.7619C24.3027 48.7619 18.4945 44.7784 15.8339 39.0395C15.8196 39.0025 15.8003 38.9676 15.7824 38.9321C15.6609 38.6903 15.4768 38.4849 15.2488 38.3378C15.004 38.1799 14.719 38.0958 14.4278 38.0953H1.52383C1.3237 38.0953 1.12552 38.1346 0.94061 38.2112C0.7557 38.2878 0.587687 38.4 0.446173 38.5415C0.304659 38.683 0.192417 38.851 0.11586 39.0359C0.0393039 39.2209 -6.61742e-05 39.419 8.34919e-08 39.6192C8.34919e-08 39.7508 0.0221873 39.8784 0.0537027 39.9999C3.60789 53.8004 16.1346 64 31.0447 64C48.7178 64 63.0442 49.6721 63.0442 32.0005C63.0442 14.3284 48.7175 0 31.045 0Z" fill="#DEE2E6"/>
</g>
<defs>
<clipPath id="clip0_762_2652">
<rect width="64" height="64" fill="white"/>
</clipPath>
</defs>
</svg>
