<svg width="64" height="64" viewBox="0 0 64 64" fill="none" xmlns="http://www.w3.org/2000/svg">
<g clip-path="url(#clip0_763_2746)">
<path d="M0 8.66667C0 3.88021 3.88021 0 8.66667 0C13.4531 0 17.3333 3.88021 17.3333 8.66667C17.3333 12.4402 14.9217 15.6504 11.5556 16.8402V24.657C13.2552 23.6739 15.2286 23.1111 17.3333 23.1111H34.6667C37.8577 23.1111 40.4444 20.5244 40.4444 17.3333V16.8402C37.0783 15.6504 34.6667 12.4402 34.6667 8.66667C34.6667 3.88021 38.5467 0 43.3333 0C48.1199 0 52 3.88021 52 8.66667C52 12.4402 49.5884 15.6504 46.2222 16.8402V17.3333C46.2222 23.7152 41.0485 28.8889 34.6667 28.8889H17.3333C14.1424 28.8889 11.5556 31.4756 11.5556 34.6667V35.1598C14.9217 36.3494 17.3333 39.5599 17.3333 43.3333C17.3333 48.1199 13.4531 52 8.66667 52C3.88021 52 0 48.1199 0 43.3333C0 39.5599 2.41167 36.3494 5.77778 35.1598V16.8402C2.41167 15.6504 0 12.4402 0 8.66667Z" fill="#14B8A6"/>
<path fill-rule="evenodd" clip-rule="evenodd" d="M32 48C32 39.1634 39.1634 32 48 32C56.8365 32 64 39.1634 64 48C64 56.8365 56.8365 64 48 64C39.1634 64 32 56.8365 32 48ZM53.9314 43.6686C54.5562 44.2935 54.5562 45.3066 53.9314 45.9314L48.0389 51.8238C47.1338 52.729 45.6662 52.729 44.7611 51.8238L42.0686 49.1314C41.4438 48.5066 41.4438 47.4934 42.0686 46.8686C42.6935 46.2438 43.7065 46.2438 44.3314 46.8686L46.4 48.9373L51.6686 43.6686C52.2934 43.0438 53.3066 43.0438 53.9314 43.6686Z" fill="#14B8A6"/>
</g>
<defs>
<clipPath id="clip0_763_2746">
<rect width="64" height="64" fill="white"/>
</clipPath>
</defs>
</svg>
