<svg width="64" height="64" viewBox="0 0 64 64" fill="none" xmlns="http://www.w3.org/2000/svg">
<path d="M41.1791 1.60009V20.4811C41.1791 21.8892 39.515 22.5932 38.4909 21.6652L32.8906 16.5129C32.2826 15.9369 31.3225 15.9369 30.7145 16.5129L25.1142 21.6332C24.0902 22.5932 22.4261 21.8572 22.4261 20.4811V1.60009C22.4261 0.704039 23.1301 0 24.0261 0H39.579C40.475 0 41.1791 0.704039 41.1791 1.60009Z" fill="#EAB308"/>
<path d="M47.7385 0.188521C46.8104 0.0605141 45.9784 0.860558 45.9784 1.78861V21.0537C45.9784 23.4858 44.5383 25.6939 42.2982 26.6859C40.058 27.646 37.4659 27.23 35.6738 25.5659L32.8897 23.0058C32.2816 22.4297 31.3536 22.4297 30.7135 23.0058L27.9294 25.5659C26.7773 26.6539 25.2732 27.198 23.7691 27.198C22.9371 27.198 22.1051 27.038 21.305 26.6859C19.0649 25.6939 17.6248 23.4858 17.6248 21.0537V1.78861C17.6248 0.860558 16.7928 0.0605141 15.8647 0.188521C6.90422 1.30858 3 7.35692 3 15.9974V47.9991C3 57.5996 7.80026 64 19.0009 64H44.6023C55.8029 64 60.6032 57.5996 60.6032 47.9991V15.9974C60.6032 7.35692 56.699 1.30858 47.7385 0.188521ZM49.4026 53.5994H22.2011C20.889 53.5994 19.8009 52.5114 19.8009 51.1993C19.8009 49.8872 20.889 48.7992 22.2011 48.7992H49.4026C50.7146 48.7992 51.8027 49.8872 51.8027 51.1993C51.8027 52.5114 50.7146 53.5994 49.4026 53.5994ZM49.4026 40.7987H35.8018C34.4897 40.7987 33.4017 39.7107 33.4017 38.3986C33.4017 37.0865 34.4897 35.9985 35.8018 35.9985H49.4026C50.7146 35.9985 51.8027 37.0865 51.8027 38.3986C51.8027 39.7107 50.7146 40.7987 49.4026 40.7987Z" fill="#EAB308"/>
</svg>
