<svg width="64" height="64" viewBox="0 0 64 64" fill="none" xmlns="http://www.w3.org/2000/svg">
<g clip-path="url(#clip0_763_2683)">
<path fill-rule="evenodd" clip-rule="evenodd" d="M16.9373 39.1373C15.6876 40.3869 15.6876 42.4131 16.9373 43.6627C18.187 44.9123 20.2131 44.9123 21.4628 43.6627L29.4627 35.6627C31.5962 33.5293 31.5962 30.0707 29.4627 27.9373L21.4628 19.9372C20.2131 18.6876 18.187 18.6876 16.9373 19.9372C15.6876 21.1869 15.6876 23.2131 16.9373 24.4627L24.2746 31.8L16.9373 39.1373ZM35.2 38.2C33.4326 38.2 32 39.6326 32 41.4C32 43.1673 33.4326 44.6 35.2 44.6H44.8C46.5673 44.6 48 43.1673 48 41.4C48 39.6326 46.5673 38.2 44.8 38.2H35.2ZM64 18.7894C64 18.8593 64 18.9296 64 19V44.8105C64.0003 47.6473 64.0003 50.0915 63.7373 52.0489C63.455 54.1465 62.8192 56.1574 61.1881 57.7881C59.5574 59.4192 57.5465 60.055 55.4489 60.3373C53.4915 60.6003 51.0473 60.6003 48.2105 60.6H15.7894C12.9526 60.6003 10.5084 60.6003 8.55111 60.3373C6.45344 60.055 4.44273 59.4192 2.81181 57.7881C1.18087 56.1574 0.544903 54.1465 0.262888 52.0489C-0.000280237 50.0915 -0.000152169 47.6473 7.8309e-06 44.8105V18.7894C-0.000152169 15.9526 -0.000280237 13.5084 0.262888 11.5511C0.544903 9.45344 1.18087 7.44273 2.81181 5.81178C4.44273 4.18087 6.45344 3.5449 8.55111 3.26289C10.5084 2.99972 12.9526 2.99985 15.7894 3.00001L48 3.00004C48.0704 3.00004 48.1408 3.00001 48.2105 3.00001C51.0473 2.99985 53.4915 2.99972 55.4489 3.26289C57.5465 3.5449 59.5574 4.18087 61.1881 5.81181C62.8192 7.44273 63.455 9.45344 63.7373 11.5511C64.0003 13.5084 64.0003 15.9526 64 18.7894Z" fill="#F97316"/>
</g>
<defs>
<clipPath id="clip0_763_2683">
<rect width="64" height="64" fill="white"/>
</clipPath>
</defs>
</svg>
