<svg width="64" height="64" viewBox="0 0 64 64" fill="none" xmlns="http://www.w3.org/2000/svg">
<path d="M18.92 12.6933H42.1733C43.3467 12.6933 44.3067 11.7333 44.3067 10.56V6.29333C44.3067 2.77333 41.4267 0 38.0133 0H23.1867C19.6667 0 16.8933 2.88 16.8933 6.29333V10.56C16.7867 11.7333 17.7467 12.6933 18.92 12.6933Z" fill="#EAB308"/>
<path d="M53.8 5.22667H51.6667C51.0267 5.22667 50.6 5.65333 50.6 6.29333V10.56C50.6 15.2533 46.76 18.9867 42.1733 18.9867H18.92C14.2267 18.9867 10.4933 15.1467 10.4933 10.56V6.29333C10.4933 5.65333 10.0667 5.22667 9.42667 5.22667H7.29333C3.77333 5.22667 1 8.10666 1 11.52V54.8267C1 58.3467 3.88 61.12 7.29333 61.12H28.6267C31.6133 61.12 31.9333 58.6667 31.9333 57.8133V34.9867C31.9333 32.5333 33.32 32 34.0667 32H57.1067C59.6667 32 60.0933 29.76 60.0933 29.0133V11.7333C60.2 8.10667 57.32 5.22667 53.8 5.22667Z" fill="#EAB308"/>
<path d="M62.76 43.0933H39.5067C38.8667 43.0933 38.3333 42.56 38.3333 41.92V39.5733C38.3333 38.9333 38.8667 38.4 39.5067 38.4H62.76C63.4 38.4 63.9333 38.9333 63.9333 39.5733V41.92C63.9333 42.56 63.4 43.0933 62.76 43.0933ZM62.76 53.5467H39.5067C38.8667 53.5467 38.3333 53.0133 38.3333 52.3733V50.0267C38.3333 49.3867 38.8667 48.8533 39.5067 48.8533H62.76C63.4 48.8533 63.9333 49.3867 63.9333 50.0267V52.3733C63.9333 53.0133 63.4 53.5467 62.76 53.5467ZM62.76 64H39.5067C38.8667 64 38.3333 63.4667 38.3333 62.8267V60.48C38.3333 59.84 38.8667 59.3067 39.5067 59.3067H62.76C63.4 59.3067 63.9333 59.84 63.9333 60.48V62.8267C63.9333 63.4667 63.4 64 62.76 64Z" fill="#EAB308"/>
</svg>
