<svg width="64" height="64" viewBox="0 0 64 64" fill="none" xmlns="http://www.w3.org/2000/svg">
<path d="M24.8732 43.1873C25.8089 42.9437 26.82 43.5 26.9803 44.4536L27.5818 48.0337C27.6883 48.6673 27.3788 49.3019 26.772 49.513C26.1485 49.7299 25.3714 49.9367 24.4533 50.1335C22.9333 50.4802 21.1466 50.6668 19.0933 50.6668C13.1999 50.5602 8.77325 48.8002 5.81325 45.4402C2.82659 42.0535 1.33325 37.7602 1.33325 32.5602C1.46659 26.4002 3.25325 21.6802 6.66658 18.3735C10.1866 15.0402 14.5599 13.3335 19.8399 13.3335C21.8399 13.3335 23.5733 13.5202 25.0133 13.8402C25.8764 14.032 26.6055 14.2334 27.2004 14.4501C27.8212 14.6763 28.1108 15.3469 27.9608 15.9904L27.0358 19.9617C26.8369 20.8154 25.9515 21.3175 25.1168 21.0497L23.8399 20.6402C22.7732 20.3735 21.5466 20.2402 20.1333 20.2402C17.0399 20.2135 14.4799 21.2002 12.4799 23.1735C10.4533 25.1202 9.41325 28.1068 9.33325 32.0802C9.33325 35.7068 10.3199 38.5335 12.2133 40.6135C14.1066 42.6668 16.7733 43.7335 20.1866 43.7602L23.7332 43.4402C24.1354 43.3653 24.5146 43.2807 24.8732 43.1873ZM27.9999 30.8335C27.9999 30.0051 28.6715 29.3335 29.4999 29.3335H31.8332C32.6617 29.3335 33.3333 28.6619 33.3333 27.8335V25.5002C33.3333 24.6717 34.0048 24.0002 34.8333 24.0002H37.1666C37.995 24.0002 38.6666 24.6717 38.6666 25.5002V27.8335C38.6666 28.6619 39.3382 29.3335 40.1666 29.3335H42.4999C43.3283 29.3335 43.9999 30.0051 43.9999 30.8335V33.1668C43.9999 33.9953 43.3283 34.6668 42.4999 34.6668H40.1666C39.3382 34.6668 38.6666 35.3384 38.6666 36.1668V38.5002C38.6666 39.3286 37.995 40.0002 37.1666 40.0002H34.8333C34.0048 40.0002 33.3333 39.3286 33.3333 38.5002V36.1668C33.3333 35.3384 32.6617 34.6668 31.8333 34.6668H29.4999C28.6715 34.6668 27.9999 33.9953 27.9999 33.1668V30.8335ZM46.6666 30.8335C46.6666 30.0051 47.3382 29.3335 48.1666 29.3335H50.4999C51.3283 29.3335 51.9999 28.6619 51.9999 27.8335V25.5002C51.9999 24.6717 52.6715 24.0002 53.4999 24.0002H55.8332C56.6617 24.0002 57.3332 24.6717 57.3332 25.5002V27.8335C57.3332 28.6619 58.0048 29.3335 58.8332 29.3335H61.1666C61.995 29.3335 62.6666 30.0051 62.6666 30.8335V33.1668C62.6666 33.9953 61.995 34.6668 61.1666 34.6668H58.8332C58.0048 34.6668 57.3332 35.3384 57.3332 36.1668V38.5002C57.3332 39.3286 56.6617 40.0002 55.8332 40.0002H53.4999C52.6715 40.0002 51.9999 39.3286 51.9999 38.5002V36.1668C51.9999 35.3384 51.3283 34.6668 50.4999 34.6668H48.1666C47.3382 34.6668 46.6666 33.9953 46.6666 33.1668V30.8335Z" fill="#3B82F6"/>
</svg>
