<svg width="64" height="64" viewBox="0 0 64 64" fill="none" xmlns="http://www.w3.org/2000/svg">
<path d="M28.6133 45.7253C29.5436 45.4618 30.5534 46.0172 30.7137 46.9708L31.5339 51.8522C31.6404 52.4858 31.3319 53.1213 30.7289 53.343C29.9489 53.6298 28.9475 53.9021 27.744 54.16C25.92 54.576 23.776 54.8 21.312 54.8C14.24 54.672 8.928 52.56 5.376 48.528C1.792 44.464 0 39.312 0 33.072C0.16 25.68 2.304 20.016 6.4 16.048C10.624 12.048 15.872 10 22.208 10C24.608 10 26.688 10.224 28.416 10.608C29.5549 10.8611 30.4991 11.1281 31.2488 11.4181C31.8651 11.6565 32.1535 12.328 32.0036 12.9716L30.7692 18.2709C30.5704 19.1246 29.6849 19.6266 28.8502 19.3589L27.008 18.768C25.728 18.448 24.256 18.288 22.56 18.288C18.848 18.256 15.776 19.44 13.376 21.808C10.944 24.144 9.696 27.728 9.6 32.496C9.6 36.848 10.784 40.24 13.056 42.736C15.328 45.2 18.528 46.48 22.624 46.512L26.88 46.128C27.5015 46.0124 28.0773 45.8772 28.6133 45.7253ZM39.7941 54.8C38.8756 54.8 38.1728 53.9819 38.3112 53.0739L39.7368 43.7261C39.8752 42.8181 39.1724 42 38.2539 42H36.9765C36.0476 42 35.3421 41.1643 35.4977 40.2486L36.0757 36.8486C36.1983 36.1275 36.8231 35.6 37.5545 35.6H39.8089C40.5459 35.6 41.1737 35.0647 41.2901 34.337L41.8341 30.937C41.9799 30.0256 41.2759 29.2 40.3529 29.2H39.0885C38.1596 29.2 37.4541 28.3643 37.6097 27.4486L38.1877 24.0486C38.3103 23.3275 38.9351 22.8 39.6665 22.8H41.9114C42.6525 22.8 43.2825 22.2588 43.3943 21.5261L44.9577 11.2739C45.0695 10.5412 45.6995 10 46.4406 10H49.8059C50.7244 10 51.4272 10.8181 51.2888 11.7261L49.8632 21.0739C49.7248 21.9819 50.4276 22.8 51.3461 22.8H51.5114C52.2525 22.8 52.8825 22.2588 52.9943 21.5261L54.5577 11.2739C54.6695 10.5412 55.2995 10 56.0406 10H59.4059C60.3244 10 61.0272 10.8181 60.8888 11.7261L59.4632 21.0739C59.3248 21.9819 60.0276 22.8 60.9461 22.8H62.2235C63.1524 22.8 63.8579 23.6357 63.7023 24.5514L63.1243 27.9514C63.0017 28.6725 62.3769 29.2 61.6455 29.2H59.3911C58.6541 29.2 58.0263 29.7353 57.9099 30.463L57.3659 33.863C57.2201 34.7744 57.9241 35.6 58.8471 35.6H60.1115C61.0404 35.6 61.7459 36.4357 61.5903 37.3514L61.0123 40.7514C60.8897 41.4725 60.2649 42 59.5335 42H57.2886C56.5475 42 55.9175 42.5412 55.8057 43.2739L54.2423 53.5261C54.1305 54.2588 53.5005 54.8 52.7594 54.8H49.3941C48.4756 54.8 47.7728 53.9819 47.9112 53.0739L49.3368 43.7261C49.4752 42.8181 48.7724 42 47.8539 42H47.6886C46.9475 42 46.3175 42.5412 46.2057 43.2739L44.6423 53.5261C44.5305 54.2588 43.9005 54.8 43.1594 54.8H39.7941ZM47.7659 33.863C47.6201 34.7744 48.3241 35.6 49.2471 35.6H49.4089C50.1459 35.6 50.7737 35.0647 50.8901 34.337L51.4341 30.937C51.5799 30.0256 50.8759 29.2 49.9529 29.2H49.7911C49.0541 29.2 48.4263 29.7353 48.3099 30.463L47.7659 33.863Z" fill="#3B82F6"/>
</svg>
