<svg width="71" height="64" viewBox="0 0 71 64" fill="none" xmlns="http://www.w3.org/2000/svg">
<path d="M12.9258 0C11.4899 0 10.2553 1.01747 9.98103 2.42692L8.83758 8.30248C8.47715 10.1545 9.89554 11.8756 11.7823 11.8756H52.7895C54.687 11.8756 56.1079 13.6151 55.7291 15.4744L55.3869 17.1544C55.1023 18.5517 53.8733 19.5556 52.4473 19.5556H9.0771C7.6451 19.5556 6.41274 20.5676 6.13434 21.9723L4.97686 27.8123C4.60922 29.6672 6.0286 31.3956 7.91962 31.3956H48.9291C50.8217 31.3956 52.2414 33.1265 51.8712 34.9824L50.2263 43.2285C50.015 44.2877 49.2507 45.1515 48.2251 45.4903L31.4126 51.0433C30.7576 51.2597 30.0481 51.2437 29.4035 50.9981L15.787 45.8095C14.4736 45.309 13.7143 43.9325 13.9916 42.5545C14.3499 40.7739 12.9883 39.1111 11.172 39.1111H5.27434C3.84158 39.1111 2.6088 40.1242 2.33119 41.5298L0.489971 50.8525C0.206898 52.2857 0.997465 53.7145 2.36216 54.2361L26.9117 63.6181C27.558 63.8651 28.2699 63.8811 28.9266 63.6634L58.4314 53.8828C59.4559 53.5432 60.219 52.6793 60.4297 51.6207L64.3556 31.8933L65.2089 27.5911L69.9732 3.58397C70.3414 1.72883 68.9219 0 67.0306 0H12.9258Z" fill="#3B82F6"/>
</svg>
