<svg width="71" height="64" viewBox="0 0 71 64" fill="none" xmlns="http://www.w3.org/2000/svg">
<path d="M10.4594 0C9.02304 0 7.78821 1.0181 7.51441 2.42812L6.91393 5.52034C6.55436 7.37205 7.97263 9.09222 9.85892 9.09222H39.5371C41.3961 9.09222 42.7885 10.7961 42.4182 12.6178C42.1397 13.9878 40.9351 14.9722 39.5371 14.9722H7.51712C6.08465 14.9722 4.85203 15.9849 4.57412 17.3902L3.96796 20.4552C3.60119 22.3098 5.02045 24.0372 6.91096 24.0372H36.5181C38.4101 24.0372 39.8297 25.7672 39.4604 27.6229L38.4507 32.6955C38.2399 33.7545 37.4762 34.6186 36.4511 34.9579L24.2389 39.0003C23.5827 39.2175 22.8717 39.2014 22.2259 38.9548L12.063 35.0738C11.058 34.69 10.477 33.6364 10.6888 32.5816C10.9627 31.2177 9.91965 29.9444 8.52851 29.9444H4.61236C3.17914 29.9444 1.94609 30.9582 1.66898 32.3644L0.488378 38.3551C0.206149 39.7873 0.995663 41.2147 2.35878 41.7367L20.3217 48.6165C20.9691 48.8645 21.6825 48.8806 22.3405 48.662L44.2487 41.3837C45.2728 41.0435 46.0353 40.1795 46.2454 39.121L49.165 24.4183L49.8169 21.1244L53.2905 3.58275C53.6578 1.72796 52.2385 0 50.3477 0H10.4594Z" fill="#3B82F6"/>
<path d="M56.4286 21C54.8506 21 53.5714 22.2792 53.5714 23.8571C53.5714 25.4351 54.8506 26.7143 56.4286 26.7143C58.0065 26.7143 59.2857 27.9935 59.2857 29.5714V52.2857C59.2857 53.9426 57.9426 55.2857 56.2857 55.2857H33.5714C31.9935 55.2857 30.7143 54.0065 30.7143 52.4286C30.7143 50.8506 29.4351 49.5714 27.8571 49.5714C26.2792 49.5714 25 50.8506 25 52.4286V58C25 59.6569 26.3431 61 28 61H62C63.6569 61 65 59.6569 65 58V24C65 22.3431 63.6569 21 62 21H56.4286Z" fill="#3B82F6"/>
</svg>
