<svg width="64" height="64" viewBox="0 0 64 64" fill="none" xmlns="http://www.w3.org/2000/svg">
<g clip-path="url(#clip0_762_3445)">
<path d="M31.9948 3.85847e-06C27.7921 -0.00206053 23.6303 0.824273 19.7473 2.43176C15.8642 4.03924 12.3361 6.39634 9.36461 9.3683C6.39314 12.3402 4.03661 15.8688 2.42976 19.7521C0.82291 23.6354 -0.00274496 27.7974 6.85799e-06 32C-0.00274565 36.2031 0.823082 40.3655 2.43026 44.2491C4.03743 48.1328 6.39443 51.6615 9.36645 54.6336C12.3385 57.6056 15.8672 59.9626 19.7509 61.5697C23.6345 63.1769 27.7969 64.0027 32 64C36.2031 64.0027 40.3655 63.1769 44.2491 61.5697C48.1328 59.9626 51.6615 57.6056 54.6336 54.6336C57.6056 51.6615 59.9626 48.1328 61.5698 44.2491C63.1769 40.3655 64.0028 36.2031 64 32C64 14.3147 49.5702 3.85847e-06 31.9948 3.85847e-06ZM16.9867 38.8642C16.9851 38.8657 16.985 38.8682 16.9863 38.8699C18.0328 40.2652 19.4297 40.8453 21.4014 40.8453C22.3383 40.8453 23.2699 40.7249 24.0864 40.3742C24.6967 40.1166 25.3821 39.784 26.1834 39.3331C26.6421 39.075 27.2254 39.1968 27.5269 39.6282L29.7228 42.7703C30.0194 43.1946 29.9452 43.7785 29.528 44.085C27.0821 45.8812 24.1068 46.8316 21.0559 46.7753C18.2611 46.7753 15.9372 46.1943 13.8436 45.0324C11.8108 43.8343 10.1872 42.0501 9.18548 39.9136C8.13871 37.6997 7.56298 35.1456 7.56298 32.1151C7.56298 29.2103 8.13871 26.5358 9.18548 24.3167C10.1799 22.1184 11.8024 20.2604 13.8489 18.9729C15.8221 17.6853 18.2663 17.1044 20.946 17.1044C22.8093 17.1044 24.5522 17.3399 25.9496 17.9208C27.2289 18.4155 28.4283 19.0839 29.5223 19.9033C29.943 20.2184 30.0099 20.8138 29.6981 21.2369L27.5904 24.0969C27.2625 24.5418 26.6376 24.6327 26.1686 24.3401C25.5789 23.9721 24.9595 23.6526 24.3167 23.385C23.4248 23.0539 22.478 22.8958 21.527 22.9192C17.5702 22.9192 15.5918 25.9496 15.5918 32.1099C15.4819 35.2585 16.062 37.4663 16.9872 38.8587C16.9884 38.8604 16.9881 38.8627 16.9867 38.8642V38.8642ZM48.984 46.0844C47.8221 49.6958 46.0792 52.3651 43.6349 54.3435C41.3807 56.1729 38.4321 57.2055 34.793 57.6259C34.2686 57.6865 33.7977 57.3126 33.7201 56.7904L33.1958 53.2591C33.1139 52.7071 33.5003 52.197 34.0508 52.105C36.2188 51.7426 37.866 51.1974 38.982 50.3866C39.2518 50.1874 39.683 49.7441 39.9941 49.4108C40.2331 49.1549 40.3105 48.7902 40.2063 48.456L31.1225 19.3338C30.9217 18.6899 31.4027 18.036 32.0771 18.036H37.9539C38.4158 18.036 38.8176 18.3524 38.926 18.8014L43.388 37.2889C43.6326 38.302 45.0701 38.3121 45.3288 37.3025L50.0736 18.7877C50.187 18.3454 50.5857 18.036 51.0423 18.036H56.6899C57.3688 18.036 57.8504 18.6981 57.6413 19.344L48.984 46.0844Z" fill="#14B8A6"/>
</g>
<defs>
<clipPath id="clip0_762_3445">
<rect width="64" height="64" fill="white"/>
</clipPath>
</defs>
</svg>
