<svg width="64" height="64" viewBox="0 0 64 64" fill="none" xmlns="http://www.w3.org/2000/svg">
<g clip-path="url(#clip0_734_7911)">
<path d="M33.8705 0C33.0875 0.00325529 32.3368 0.312541 31.7788 0.861792L31.7482 0.88326L12.157 12.2062L31.6991 31.7483V31.7606L55.1853 55.2498L59.6629 47.1839L43.5189 8.41858L35.9835 0.88326C35.7066 0.603631 35.377 0.381613 35.0138 0.230016C34.6506 0.0784185 34.261 0.000242913 33.8674 0H33.8705Z" fill="#66C3FA"/>
<path d="M12.203 12.1603L0.886245 31.7362L0.864776 31.7669C0.589 32.0437 0.370638 32.3722 0.222236 32.7337C0.073834 33.0951 -0.00168154 33.4823 2.84022e-05 33.873C0.00173834 34.2638 0.0806402 34.6503 0.2322 35.0104C0.38376 35.3706 0.604989 35.6972 0.883178 35.9715L10.2617 45.3593L46.9507 59.792L55.2466 55.1855L55.0228 54.9617L54.9645 54.9678L31.9629 31.9294H31.9353L12.203 12.1603Z" fill="#215896"/>
<path d="M12.154 12.1696L32.1439 32.181H32.1746L55.1792 55.2132L63.9382 53.5448L63.9505 27.6328L54.7039 18.5702C52.6797 16.5859 49.5669 15.307 46.4386 14.8838L46.4448 14.7857L12.1571 12.1727L12.154 12.1696Z" fill="#235997"/>
<path d="M12.1785 12.1943L32.1806 32.1965V32.2241L55.2006 55.2441L53.5261 64H27.614L18.5545 54.7472C16.5702 52.7231 15.2944 49.6071 14.8742 46.4789L14.773 46.4881L12.1785 12.1943Z" fill="#58B6F0"/>
</g>
<defs>
<clipPath id="clip0_734_7911">
<rect width="64" height="64" fill="white"/>
</clipPath>
</defs>
</svg>
