<svg width="64" height="64" viewBox="0 0 64 64" fill="none" xmlns="http://www.w3.org/2000/svg">
<g clip-path="url(#clip0_762_2914)">
<path d="M33.8708 0C33.0878 0.00325532 32.3371 0.312544 31.7791 0.8618L31.7485 0.883268L12.1571 12.2063L31.6994 31.7486V31.7609L55.1857 55.2503L59.6634 47.1843L43.5192 8.41865L35.9839 0.883268C35.7069 0.603637 35.3773 0.381617 35.0141 0.230018C34.6509 0.0784192 34.2613 0.000242915 33.8677 0H33.8708Z" fill="#90A4AE"/>
<path d="M12.2031 12.161L0.886253 31.737L0.864784 31.7677C0.589005 32.0445 0.370641 32.3731 0.222238 32.7345C0.0738347 33.096 -0.00168155 33.4832 2.84024e-05 33.8739C0.00173836 34.2646 0.0806409 34.6511 0.232202 35.0113C0.383763 35.3714 0.604995 35.6981 0.883186 35.9724L10.2618 45.3602L46.9511 59.7931L55.2471 55.1866L55.0232 54.9627L54.965 54.9688L31.9632 31.9303H31.9356L12.2031 12.161Z" fill="#455A64"/>
<path d="M12.154 12.1703L32.1441 32.1818H32.1747L55.1796 55.2143L63.9387 53.5459L63.9509 27.6336L54.7042 18.5709C52.6801 16.5866 49.5672 15.3077 46.4389 14.8845L46.445 14.7863L12.1571 12.1733L12.154 12.1703Z" fill="#455A64"/>
<path d="M12.1784 12.1939L32.1808 32.1962V32.2238L55.2009 55.244L53.5264 64H27.6141L18.5545 54.7472C16.5702 52.723 15.2944 49.607 14.8742 46.4788L14.773 46.488L12.1784 12.1939Z" fill="#90A4AE"/>
</g>
<defs>
<clipPath id="clip0_762_2914">
<rect width="64" height="64" fill="white"/>
</clipPath>
</defs>
</svg>
