<svg width="64" height="64" viewBox="0 0 64 64" fill="none" xmlns="http://www.w3.org/2000/svg">
<path d="M8 52.0324C8 54.2083 9.06663 56.2136 11.1999 58.0482C13.3331 59.8828 16.2557 61.3334 19.9676 62.4001C23.6794 63.4667 27.69 64 31.9991 64C36.3083 64 40.3188 63.4667 44.0307 62.4001C47.7426 61.3334 50.6651 59.8828 52.7984 58.0482C54.9317 56.2136 55.9983 54.2083 55.9983 52.0324V45.2487C55.9983 47.4246 54.9103 49.3445 52.7344 51.0085C50.5585 52.6724 47.6786 53.9097 44.0947 54.7203C40.5108 55.531 36.479 55.9576 31.9991 56.0003C27.5193 56.0429 23.4874 55.6163 19.9036 54.7203C16.3197 53.8244 13.4398 52.5871 11.2639 51.0085C9.08796 49.4299 8 47.5099 8 45.2487V52.0324ZM8 40.0009C8 42.1768 9.06663 44.182 11.1999 46.0166C13.3331 47.8512 16.2557 49.3232 19.9676 50.4325C23.6794 51.5418 27.69 52.0751 31.9991 52.0324C36.3083 51.9898 40.3188 51.4564 44.0307 50.4325C47.7426 49.4085 50.6651 47.9366 52.7984 46.0166C54.9317 44.0967 55.9983 42.0914 55.9983 40.0009V33.2811C55.9983 35.4144 54.9103 37.313 52.7344 38.9769C50.5585 40.6408 47.6786 41.8995 44.0947 42.7528C40.5108 43.6061 36.479 44.0327 31.9991 44.0327C27.5193 44.0327 23.4874 43.6061 19.9036 42.7528C16.3197 41.8995 13.4398 40.6408 11.2639 38.9769C9.08796 37.313 8 35.4144 8 33.2811V40.0009ZM8 28.0333C8 30.2092 9.06663 32.2145 11.1999 34.0491C13.3331 35.8837 16.2557 37.3343 19.9676 38.4009C23.6794 39.4675 27.69 40.0009 31.9991 40.0009C36.3083 40.0009 40.3188 39.4675 44.0307 38.4009C47.7426 37.3343 50.6651 35.8837 52.7984 34.0491C54.9317 32.2145 55.9983 30.2092 55.9983 28.0333V21.2495C55.9983 23.4254 54.9103 25.3454 52.7344 27.0093C50.5585 28.6733 47.6786 29.9105 44.0947 30.7212C40.5108 31.5318 36.479 31.9585 31.9991 32.0011C27.5193 32.0438 23.4874 31.6172 19.9036 30.7212C16.3197 29.8252 13.4398 28.5879 11.2639 27.0093C9.08796 25.4307 8 23.5108 8 21.2495V28.0333ZM8 16.0017C8 18.1776 9.06663 20.1829 11.1999 22.0175C13.3331 23.8521 16.2557 25.324 19.9676 26.4333C23.6794 27.5426 27.69 28.0759 31.9991 28.0333C36.3083 27.9906 40.3188 27.4573 44.0307 26.4333C47.7426 25.4094 50.6651 23.9374 52.7984 22.0175C54.9317 20.0976 55.9983 18.0923 55.9983 16.0017V12.0339C55.9983 9.85793 54.9317 7.85267 52.7984 6.01807C50.6651 4.18347 47.7426 2.73285 44.0307 1.66623C40.3188 0.599598 36.3083 0.0449508 31.9991 0.00228563C27.69 -0.0403795 23.6794 0.514267 19.9676 1.66623C16.2557 2.81818 13.3331 4.2688 11.1999 6.01807C9.06663 7.76734 8 9.7726 8 12.0339V16.0017Z" fill="#EAB308"/>
</svg>
