<svg width="64" height="64" viewBox="0 0 64 64" fill="none" xmlns="http://www.w3.org/2000/svg">
<g clip-path="url(#clip0_762_3463)">
<path fill-rule="evenodd" clip-rule="evenodd" d="M32 64C49.6736 64 64 49.6736 64 32C64 14.3264 49.6736 0 32 0C14.3264 0 0 14.3264 0 32C0 49.6736 14.3264 64 32 64ZM14.1984 31.264C14.1984 23.9744 21.4496 18.112 30.7488 18.112C35.2256 18.112 39.0624 19.3504 42.0864 21.712C44.6641 23.739 46.5619 26.5042 47.5264 29.6384L47.5488 29.712L47.5744 29.7984L47.6256 29.9616L47.6992 30.2624L47.9008 30.9632L48.112 31.7632L48.4736 33.088L49.0496 35.1872L49.9776 38.6368L51.024 42.5632L52.7136 48.8736L53.3504 51.2512L53.2128 51.4016C48.6577 56.3867 42.4921 59.6077 35.7984 60.4992L35.7376 60.0864L35.6256 59.2608L35.5264 58.6624L35.4112 57.8752L35.264 56.9152L35.2 56.5376L35.0624 55.6256L34.976 55.088L34.864 54.3872L34.7488 53.7152L34.6368 53.0624L34.5248 52.4224L34.4256 51.7984L34.3136 51.2L34.2112 50.624L34.1376 50.1984L34.0512 49.7888L34 49.5264L33.9008 48.9984L33.824 48.624L33.7376 48.1632L33.664 47.8368L33.6 47.5264L33.536 47.2256L33.5008 47.024L33.4112 46.6496L33.3472 46.3744L33.2864 46.0992L33.2384 45.9264L33.1744 45.6736L33.1264 45.4368L33.0624 45.2L32.9984 44.976L32.9632 44.8384L32.8992 44.624L32.8512 44.4256L32.8128 44.288L32.7616 44.16L32.7264 44.0512L32.6752 43.8752L32.6368 43.7472L32.6112 43.6736C32.5438 43.4757 32.4691 43.2803 32.3872 43.088L32.3488 43.0112L32.6368 42.2624L31.5008 42.3008L31.1872 42.3136C20.864 42.5248 14.1984 38.1376 14.1984 31.2608V31.264ZM20.6752 52.5376C20.7899 52.1469 21.0532 51.8169 21.4086 51.6182C21.764 51.4196 22.1832 51.3682 22.576 51.4752C23.4016 51.6864 23.888 52.5248 23.6864 53.3504L23.6736 53.3888L22.1632 59.024L21.9488 58.9376C21.0335 58.5966 20.1364 58.2089 19.2608 57.776L20.6624 52.576L20.6752 52.5376ZM29.376 48.7264C29.4639 48.427 29.6396 48.1609 29.8802 47.9622C30.1208 47.7636 30.4155 47.6416 30.7261 47.612C31.0367 47.5824 31.349 47.6465 31.6229 47.7961C31.8967 47.9457 32.1195 48.1738 32.2624 48.4512L32.3136 48.6752L32.3872 49.0368L32.4384 49.2992L32.4256 49.3632L32.3872 49.5392V49.5744L30.2624 57.4496L30.2496 57.488C30.1254 57.8683 29.8599 58.1865 29.508 58.3768C29.1561 58.5671 28.7445 58.6151 28.3582 58.5108C27.972 58.4065 27.6404 58.158 27.4321 57.8164C27.2237 57.4749 27.1544 57.0664 27.2384 56.6752V56.6368L29.3632 48.7648L29.376 48.7264ZM16.3744 39.7888L16.4736 39.5488C17.264 40.2368 18.176 40.8608 19.1744 41.3888L17.2512 48.5376L17.2384 48.576C17.1289 48.9757 16.8651 49.3156 16.5051 49.5208C16.145 49.7261 15.7181 49.7799 15.3184 49.6704C14.9187 49.5609 14.5788 49.2971 14.3736 48.9371C14.1683 48.577 14.1145 48.1501 14.224 47.7504L14.2368 47.712L16.3616 39.84L16.3744 39.7888ZM9.504 31.5488C9.62497 31.1602 9.89087 30.8331 10.2466 30.6353C10.6023 30.4374 11.0205 30.3841 11.4144 30.4864C12.2272 30.7104 12.7168 31.5488 12.5152 32.3744V32.4128L10.3904 40.2848L10.3776 40.3264C10.2605 40.717 9.9953 41.0463 9.63862 41.244C9.28194 41.4416 8.8621 41.4919 8.46883 41.3841C8.07557 41.2762 7.74008 41.0189 7.53408 40.667C7.32807 40.315 7.26789 39.8965 7.3664 39.5008V39.4624L9.4912 31.5904L9.504 31.5488ZM57.152 29.7632C57.2762 29.3829 57.5417 29.0647 57.8936 28.8744C58.2455 28.6841 58.6571 28.6361 59.0434 28.7404C59.4296 28.8447 59.7612 29.0932 59.9695 29.4348C60.1779 29.7763 60.2472 30.1848 60.1632 30.576V30.624L58.0288 38.4992V38.5376C57.91 38.9279 57.6437 39.2565 57.2865 39.4536C56.9293 39.6508 56.5094 39.7009 56.1158 39.5935C55.7223 39.486 55.3861 39.2294 55.1786 38.8781C54.9712 38.5268 54.9088 38.1085 55.0048 37.712L55.0144 37.6736L57.1424 29.8016L57.152 29.7632ZM3.44 28.6624C3.86359 24.988 4.99713 21.4308 6.7776 18.1888C7.01174 18.1942 7.2417 18.252 7.45059 18.3579C7.65948 18.4638 7.84199 18.6152 7.98471 18.8009C8.12744 18.9865 8.22675 19.2019 8.27536 19.431C8.32396 19.6601 8.32063 19.8972 8.2656 20.1248L8.2528 20.1632L6.128 28.0352L6.1152 28.0736C6.03315 28.3397 5.88199 28.5793 5.67714 28.7679C5.47229 28.9565 5.22107 29.0874 4.94912 29.1473C4.67716 29.2071 4.3942 29.1938 4.12909 29.1086C3.86397 29.0234 3.62619 28.8695 3.44 28.6624ZM51.7664 19.2992C51.888 18.911 52.1541 18.5844 52.5096 18.3867C52.8651 18.189 53.2829 18.1354 53.6768 18.2368C54.4896 18.4608 54.9888 19.2992 54.7904 20.1248L54.7776 20.1632L52.6528 28.0352L52.64 28.0736C52.5204 28.4607 52.2549 28.7862 51.8997 28.9813C51.5446 29.1763 51.1275 29.2257 50.7366 29.1189C50.3457 29.0122 50.0116 28.7576 49.8049 28.4091C49.5982 28.0606 49.5351 27.6454 49.6288 27.2512L49.6416 27.2128L51.7664 19.3376V19.2992ZM16.0256 10.752C15.6329 10.6501 15.216 10.7037 14.8619 10.9016C14.5078 11.0995 14.2437 11.4265 14.1248 11.8144L14.112 11.8528L11.9872 19.728L11.9744 19.7664C11.8649 20.1661 11.9187 20.593 12.124 20.9531C12.3292 21.3131 12.6691 21.5769 13.0688 21.6864C13.4685 21.7959 13.8954 21.7421 14.2555 21.5368C14.6155 21.3316 14.8793 20.9917 14.9888 20.592L14.9984 20.5536L17.1264 12.6784L17.136 12.6272C17.2318 12.2316 17.1694 11.8142 16.962 11.4639C16.7546 11.1136 16.4186 10.8582 16.0256 10.752ZM43.3376 12.24C42.9432 12.1368 42.5242 12.1897 42.1678 12.3875C41.8114 12.5854 41.545 12.9131 41.424 13.3024L41.4112 13.3408L39.9872 18.64C40.912 19.0944 41.7952 19.632 42.624 20.24L42.7616 20.352L44.4384 14.1664V14.128C44.5358 13.732 44.4755 13.3136 44.27 12.9613C44.0646 12.6089 43.7302 12.3503 43.3376 12.24ZM29.4368 3.3664C28.4381 3.45626 27.4447 3.59832 26.4608 3.792L26.2496 3.8272L24.2752 11.1648L24.2624 11.2032C24.1784 11.5944 24.2477 12.0029 24.4561 12.3444C24.6644 12.686 24.996 12.9345 25.3822 13.0388C25.7685 13.1431 26.18 13.0951 26.532 12.9048C26.8839 12.7145 27.1494 12.3963 27.2736 12.016L27.2864 11.9776L29.4112 4.1056L29.424 4.0672C29.4823 3.83663 29.4866 3.59894 29.4368 3.3664ZM48.9888 8.8032L48.5728 10.352L48.5632 10.3904C48.4792 10.7816 48.5485 11.1901 48.7569 11.5316C48.9652 11.8732 49.2968 12.1217 49.683 12.226C50.0693 12.3303 50.4808 12.2823 50.8328 12.092C51.1847 11.9017 51.4502 11.5835 51.5744 11.2032L51.5872 11.1648L51.6384 11.0048C50.856 10.2716 50.0334 9.58255 49.1744 8.9408L48.9888 8.8032ZM36.624 3.6288L35.8752 6.4128L35.8624 6.4544C35.7784 6.84557 35.8477 7.25408 36.0561 7.59563C36.2644 7.93718 36.596 8.18573 36.9822 8.29C37.3685 8.39426 37.78 8.34629 38.132 8.15597C38.4839 7.96566 38.7494 7.64752 38.8736 7.2672L38.8864 7.2288L39.6736 4.2912C38.7439 4.03569 37.8019 3.82742 36.8512 3.6672L36.6272 3.6288H36.624ZM34.1632 23.9648C33.9775 23.7791 33.757 23.6317 33.5143 23.5312C33.2716 23.4307 33.0115 23.3789 32.7488 23.3789C32.4861 23.3789 32.226 23.4307 31.9833 23.5312C31.7406 23.6317 31.5201 23.7791 31.3344 23.9648C31.1487 24.1505 31.0013 24.3711 30.9008 24.6137C30.8003 24.8564 30.7485 25.1165 30.7485 25.3792C30.7485 25.6419 30.8003 25.902 30.9008 26.1447C31.0013 26.3874 31.1487 26.6079 31.3344 26.7936C31.7095 27.1687 32.2183 27.3795 32.7488 27.3795C33.2793 27.3795 33.7881 27.1687 34.1632 26.7936C34.5383 26.4185 34.7491 25.9097 34.7491 25.3792C34.7491 24.8487 34.5383 24.3399 34.1632 23.9648Z" fill="#DEE2E6"/>
</g>
<defs>
<clipPath id="clip0_762_3463">
<rect width="64" height="64" fill="white"/>
</clipPath>
</defs>
</svg>
