<svg width="64" height="64" viewBox="0 0 64 64" fill="none" xmlns="http://www.w3.org/2000/svg">
<g clip-path="url(#clip0_762_3467)">
<path d="M34.552 14.656C35.1043 14.656 35.552 15.1037 35.552 15.656V17.24C35.552 17.7923 35.1043 18.24 34.552 18.24H7.104C5.152 18.24 3.584 19.84 3.584 21.76V35C3.584 35.5523 3.13628 36 2.584 36H1.184C0.544 36 0 36.544 0 37.184V49.024C0 49.696 0.544 50.24 1.184 50.24H2.552C3.10428 50.24 3.552 50.6877 3.552 51.24V57.344C3.552 59.296 5.152 60.864 7.104 60.864H56.896C58.848 60.864 60.416 59.296 60.416 57.344V51.24C60.416 50.6877 60.8637 50.24 61.416 50.24H62.816C63.456 50.24 64 49.696 64 49.056V37.216C64 36.544 63.456 36 62.816 36H61.448C60.8957 36 60.448 35.5523 60.448 35V21.792C60.448 19.808 58.848 18.24 56.896 18.24H40.104C39.5517 18.24 39.104 17.7923 39.104 17.24V5.184C39.104 4.544 38.592 4 37.92 4H29.6C28.96 4 28.448 4.544 28.448 5.184V13.504C28.448 14.144 28.96 14.656 29.632 14.656H34.552ZM51.136 38.784L43.68 46.24C43.4108 46.5038 43.0489 46.6516 42.672 46.6516C42.2951 46.6516 41.9332 46.5038 41.664 46.24L37.184 41.76C36.9202 41.4908 36.7724 41.1289 36.7724 40.752C36.7724 40.3751 36.9202 40.0132 37.184 39.744L38.688 38.208C38.9572 37.9442 39.3191 37.7964 39.696 37.7964C40.0729 37.7964 40.4348 37.9442 40.704 38.208L41.9512 39.4348C42.3418 39.8189 42.9687 39.8174 43.3573 39.4313L47.584 35.232C47.8532 34.9682 48.2151 34.8204 48.592 34.8204C48.9689 34.8204 49.3308 34.9682 49.6 35.232L51.136 36.768C51.68 37.312 51.68 38.24 51.136 38.784ZM19.968 46.24C19.6988 46.5038 19.3369 46.6516 18.96 46.6516C18.5831 46.6516 18.2212 46.5038 17.952 46.24L13.472 41.76C13.2082 41.4908 13.0604 41.1289 13.0604 40.752C13.0604 40.3751 13.2082 40.0132 13.472 39.744L14.976 38.208C15.1099 38.0726 15.2694 37.965 15.4452 37.8916C15.6209 37.8182 15.8095 37.7804 16 37.7804C16.1905 37.7804 16.3791 37.8182 16.5548 37.8916C16.7306 37.965 16.8901 38.0726 17.024 38.208L18.2392 39.4232C18.6288 39.8128 19.2602 39.8138 19.6511 39.4255L23.872 35.232C24.1412 34.9682 24.5031 34.8204 24.88 34.8204C25.2569 34.8204 25.6188 34.9682 25.888 35.232L27.424 36.768C28 37.312 28 38.24 27.424 38.784L19.968 46.24Z" fill="#3B82F6"/>
</g>
<defs>
<clipPath id="clip0_762_3467">
<rect width="64" height="64" fill="white"/>
</clipPath>
</defs>
</svg>
