<svg width="64" height="64" viewBox="0 0 64 64" fill="none" xmlns="http://www.w3.org/2000/svg">
<g clip-path="url(#clip0_763_2661)">
<path d="M63.3925 26.3438C63.1999 26.2164 61.5998 24.9689 58.1476 24.9689C57.2497 24.9689 56.3519 25.0637 55.457 25.2237C54.7843 20.7433 51.0418 18.4735 50.8818 18.3786L49.9543 17.8334L49.3764 18.6957C48.5876 19.8452 48.0337 21.1392 47.7467 22.5035C47.1066 25.0637 47.4889 27.4965 48.8016 29.5767C47.2311 30.4716 44.6738 30.6968 44.1285 30.6968H1.98542C1.72275 30.6987 1.46304 30.7524 1.2211 30.8547C0.979172 30.957 0.759762 31.106 0.575403 31.2931C0.391043 31.4802 0.245344 31.7018 0.146626 31.9452C0.047907 32.1887 -0.00189762 32.4491 5.52843e-05 32.7118C5.52843e-05 36.3921 0.577886 40.0695 1.858 43.5276C3.29814 47.3354 5.47315 50.1504 8.25859 51.878C11.3937 53.7982 16.5468 54.8857 22.4021 54.8857C24.9298 54.8857 27.5522 54.6634 30.145 54.1834C33.7368 53.5448 37.1907 52.2886 40.3534 50.4705C42.9767 48.9701 45.3247 47.033 47.2962 44.7425C50.6565 41 52.639 36.7418 54.0821 33.0644H54.6866C58.3343 33.0644 60.6071 31.5917 61.8576 30.3442C62.6873 29.5737 63.2947 28.6492 63.7422 27.5587L64 26.7913L63.3925 26.3468M5.92356 29.5086H11.5537C11.6885 29.5048 11.8167 29.4496 11.9121 29.3543C12.0074 29.2589 12.0626 29.1307 12.0663 28.9959V23.9436C12.0626 23.8088 12.0074 23.6806 11.9121 23.5852C11.8167 23.4899 11.6885 23.4347 11.5537 23.431H5.92652C5.85887 23.4297 5.79167 23.4422 5.72893 23.4675C5.66619 23.4929 5.6092 23.5306 5.56135 23.5784C5.5135 23.6263 5.47579 23.6833 5.45045 23.746C5.42512 23.8087 5.41268 23.8759 5.41389 23.9436V28.9989C5.44352 29.2893 5.63613 29.5115 5.92652 29.5115M13.7021 29.5115H19.3322C19.467 29.5078 19.5952 29.4526 19.6906 29.3572C19.7859 29.2619 19.8411 29.1337 19.8448 28.9989V23.9436C19.8411 23.8088 19.7859 23.6806 19.6906 23.5852C19.5952 23.4899 19.467 23.4347 19.3322 23.431H13.7021C13.6344 23.4297 13.5672 23.4422 13.5045 23.4675C13.4417 23.4929 13.3847 23.5306 13.3369 23.5784C13.289 23.6263 13.2513 23.6833 13.226 23.746C13.2006 23.8087 13.1882 23.8759 13.1894 23.9436V28.9989C13.219 29.2893 13.4117 29.5115 13.7021 29.5115ZM21.605 29.5115H27.2055C27.5255 29.5115 27.7478 29.2893 27.7478 28.9989V23.9436C27.7475 23.8738 27.733 23.8049 27.7053 23.7408C27.6775 23.6768 27.6371 23.6191 27.5864 23.5712C27.5357 23.5233 27.4758 23.4861 27.4103 23.462C27.3449 23.4379 27.2752 23.4273 27.2055 23.431H21.602C21.3442 23.431 21.122 23.6562 21.122 23.9436V28.9989C21.122 29.2893 21.3146 29.5115 21.602 29.5115M29.4102 29.5115H35.0699C35.2017 29.5069 35.3264 29.4504 35.4168 29.3545C35.5072 29.2585 35.5561 29.1307 35.5529 28.9989V23.9436C35.5529 23.6888 35.3603 23.431 35.0729 23.431H29.4102C29.1524 23.431 28.9301 23.6562 28.9301 23.9436V28.9989C28.9301 29.2893 29.1524 29.5115 29.4102 29.5115ZM13.6991 22.3434H19.3292C19.587 22.3434 19.8419 22.056 19.8419 21.7686V16.7429C19.8427 16.6755 19.8299 16.6086 19.8044 16.5463C19.7789 16.4839 19.7411 16.4272 19.6933 16.3797C19.6455 16.3322 19.5887 16.2947 19.5261 16.2696C19.4636 16.2444 19.3966 16.2321 19.3292 16.2333H13.6991C13.4087 16.2333 13.1865 16.4229 13.1865 16.7429V21.7686C13.2161 22.056 13.4087 22.3434 13.6991 22.3434ZM21.602 22.3434H27.2025C27.5226 22.3434 27.7448 22.056 27.7448 21.7686V16.7429C27.7448 16.4555 27.5522 16.2333 27.2025 16.2333H21.602C21.3442 16.2333 21.122 16.4229 21.122 16.7429V21.7686C21.122 22.056 21.3146 22.3434 21.602 22.3434ZM29.4102 22.3434H35.0699C35.3277 22.3434 35.5529 22.056 35.5529 21.7686V16.7429C35.5561 16.6119 35.5075 16.4849 35.4177 16.3894C35.3278 16.294 35.2039 16.2379 35.0729 16.2333H29.4102C29.1524 16.2333 28.9301 16.4229 28.9301 16.7429V21.7686C28.9301 22.056 29.1524 22.3434 29.4102 22.3434ZM29.4102 15.048H35.0699C35.2017 15.0433 35.3264 14.9869 35.4168 14.8909C35.5072 14.7949 35.5561 14.6672 35.5529 14.5353V9.54524C35.5529 9.22521 35.3277 9 35.0729 9H29.4102C29.1524 9 28.9301 9.19261 28.9301 9.54524V14.5353C28.9301 14.7931 29.1524 15.048 29.4102 15.048ZM37.2805 29.5115H42.9107C42.9783 29.5127 43.0455 29.5003 43.1082 29.4749C43.171 29.4496 43.228 29.4119 43.2758 29.364C43.3237 29.3162 43.3614 29.2592 43.3867 29.1965C43.4121 29.1337 43.4245 29.0665 43.4233 28.9989V23.9436C43.4196 23.8093 43.3648 23.6815 43.2701 23.5862C43.1754 23.491 43.0479 23.4354 42.9136 23.431H37.2775C37.0227 23.431 36.7975 23.6562 36.7975 23.9436V28.9989C36.7975 29.2863 37.0227 29.5115 37.2775 29.5115" fill="#3B82F6"/>
</g>
<defs>
<clipPath id="clip0_763_2661">
<rect width="64" height="64" fill="white"/>
</clipPath>
</defs>
</svg>
