<svg width="64" height="64" viewBox="0 0 64 64" fill="none" xmlns="http://www.w3.org/2000/svg">
<path fill-rule="evenodd" clip-rule="evenodd" d="M15.336 37.2563C16.2537 36.6578 17.0118 35.1615 16.553 34.1042C15.2961 34.6428 15.3559 35.8797 15.336 37.2563ZM29.5404 40.6877C30.5379 40.3685 31.4956 39.2513 30.9569 38.0942C30.1788 38.6328 29.6801 39.3709 29.5404 40.6877Z" fill="#E3E3F8"/>
<path fill-rule="evenodd" clip-rule="evenodd" d="M1.6303 57.2063C1.6303 58.4632 1.94951 59.8198 2.82732 60.2986C6.05922 62.1141 17.3908 60.6976 21.2412 59.8397C23.2562 59.3809 24.8921 57.8846 26.7873 57.0667C31.0567 55.2113 34.1489 53.7151 37.5604 51.2213C40.0342 49.4059 43.9643 44.2987 44.3833 41.2463L41.0117 40.4882C40.9319 43.9196 40.1539 44.6976 37.1015 45.4957C35.0467 46.0543 31.0367 46.174 28.9419 45.8149C26.1689 45.356 24.912 43.8997 23.6552 42.2438C21.2213 39.0119 24.1938 36.7575 20.3435 36.5381C16.2936 41.5056 9.15146 37.9346 6.01932 37.4358C4.68268 39.371 1.5505 51.9395 1.5904 54.8123C3.52557 54.154 4.74252 54.8722 6.47816 55.5505C12.6228 57.9245 7.25622 60.0193 4.80236 59.4008C3.12656 59.0018 2.60785 57.9046 1.6303 57.2063ZM9.67019 28.5381C12.1639 29.0169 14.3784 30.0543 16.4931 31.1117C19.9445 32.8274 20.5629 32.588 20.8821 34.982C20.922 35.4209 20.8422 35.6603 22.0991 36.0593C24.2138 36.7176 20.8821 35.5406 26.5479 35.5605C29.9195 35.5805 37.6402 36.9371 40.1339 38.5131C41.1713 39.1715 40.9718 40.0094 44.483 39.9096C44.4431 35.78 43.3459 29.6154 41.7299 25.8249C39.7549 21.2364 37.1414 20.5381 31.8148 18.8224C28.7026 17.8249 19.5654 16.7277 16.7325 18.4833C14.0791 20.1391 13.5804 22.1142 11.1066 25.5855C10.3884 26.6029 10.129 27.381 9.67019 28.5381Z" fill="#FDFDFD"/>
<path fill-rule="evenodd" clip-rule="evenodd" d="M31.6352 37.0169C33.6302 37.8348 31.5355 43.1216 28.7624 41.8448C27.8647 39.3111 29.9993 37.8747 30.5778 36.7375C29.3808 36.558 25.9694 36.0194 24.9519 36.3984C23.6352 36.8972 23.336 39.7101 24.0143 41.0268C27.2063 47.2911 41.311 45.9545 39.8147 41.0867C39.2162 39.1116 38.6576 38.7924 36.6427 38.1141C35.0267 37.5755 33.4108 37.0169 31.6352 37.0169ZM6.55797 36.3186C8.15399 37.8548 11.7649 38.0942 14.0991 38.2139C14.3984 35.1216 14.6577 32.8074 17.1315 32.987C18.3485 34.6428 17.7101 36.5979 16.4333 37.8548C18.6078 37.8348 19.8647 36.1989 19.5455 33.8249C17.7101 32.5082 12.144 29.8747 9.35098 29.4957C8.57293 30.3336 6.65773 34.9221 6.55797 36.3186Z" fill="#FDFDFD"/>
<path fill-rule="evenodd" clip-rule="evenodd" d="M2.80736 56.0692C4.12406 55.9495 7.55547 56.947 7.83478 58.0642C5.70012 58.3235 2.98691 58.124 2.80736 56.0692ZM1.6303 57.2063C2.60785 57.9046 3.12656 59.0018 4.80236 59.4008C7.25622 60.0193 12.6228 57.9245 6.47816 55.5505C4.74252 54.8722 3.52557 54.154 1.5904 54.8123C1.5505 51.9395 4.68268 39.371 6.01932 37.4358C9.15146 37.9346 16.2936 41.5056 20.3435 36.5381C24.1938 36.7575 21.2213 39.0119 23.6552 42.2438C24.912 43.8997 26.1689 45.356 28.9419 45.8149C31.0367 46.174 35.0467 46.0543 37.1015 45.4957C40.1539 44.6976 40.9319 43.9196 41.0117 40.4882L44.3833 41.2463C43.9643 44.2987 40.0342 49.4059 37.5604 51.2213C34.1489 53.7151 31.0567 55.2113 26.7873 57.0667C24.8921 57.8846 23.2562 59.3809 21.2412 59.8397C17.3908 60.6976 6.05922 62.1141 2.82732 60.2986C1.94951 59.8198 1.6303 58.4632 1.6303 57.2063ZM30.9569 38.0942C30.1788 38.6328 29.6801 39.3709 29.5404 40.6877C30.5379 40.3685 31.4956 39.2513 30.9569 38.0942ZM31.6352 37.0169C33.4108 37.0169 35.0267 37.5755 36.6427 38.1141C38.6576 38.7924 39.2162 39.1116 39.8147 41.0867C41.311 45.9545 27.2063 47.2911 24.0143 41.0268C23.336 39.7101 23.6352 36.8972 24.9519 36.3984C25.9694 36.0194 29.3808 36.558 30.5778 36.7375C29.9993 37.8747 27.8647 39.3111 28.7624 41.8448C31.5355 43.1216 33.6302 37.8348 31.6352 37.0169ZM16.553 34.1042C15.2961 34.6428 15.3559 35.8797 15.336 37.2563C16.2537 36.6578 17.0118 35.1615 16.553 34.1042ZM6.55797 36.3186C6.65773 34.9221 8.57293 30.3336 9.35098 29.4957C12.144 29.8747 17.7101 32.5082 19.5455 33.8249C19.8647 36.1989 18.6078 37.8348 16.4333 37.8548C17.7101 36.5979 18.3485 34.6428 17.1315 32.987C14.6577 32.8074 14.3984 35.1216 14.0991 38.2139C11.7649 38.0942 8.15399 37.8548 6.55797 36.3186ZM4.56296 34.7226C3.82481 32.6877 3.82481 29.5156 6.95697 29.2563L5.36097 33.7052C4.94202 34.6628 4.94202 34.4433 4.56296 34.7226ZM9.67019 28.5381C10.129 27.381 10.3884 26.6029 11.1066 25.5855C13.5804 22.1142 14.0791 20.1391 16.7325 18.4833C19.5654 16.7277 28.7026 17.8249 31.8148 18.8224C37.1414 20.5381 39.7549 21.2364 41.7299 25.8249C43.3459 29.6154 44.4431 35.78 44.483 39.9096C40.9718 40.0094 41.1713 39.1715 40.1339 38.5131C37.6402 36.9371 29.9195 35.5805 26.5479 35.5605C20.8821 35.5406 24.2138 36.7176 22.0991 36.0593C20.8422 35.6603 20.922 35.4209 20.8821 34.982C20.5629 32.588 19.9445 32.8274 16.4931 31.1117C14.3784 30.0543 12.1639 29.0169 9.67019 28.5381ZM44.9818 27.5605C44.6027 26.3037 45.301 26.3835 46.5179 25.5256C47.2162 25.0269 47.7748 24.5082 48.6326 24.0294C51.8446 22.2339 57.8296 21.9346 60.3832 24.0693C61.4206 24.9271 63.1164 26.6029 62.857 28.7974C62.3184 33.1665 59.3259 35.5605 56.872 37.5555C54.3783 39.5904 50.2287 41.6852 45.9394 40.2887C45.5803 39.4109 45.8596 33.8448 45.4406 31.79C45.0616 29.9545 45.2611 29.755 46.3184 28.6578C49.4307 25.4259 56.1738 23.0718 60.0042 25.8448C61.6201 27.0418 61.1613 27.5007 61.9992 28.4184C63.0366 27.3012 61.1014 23.5506 53.9593 23.79C49.1115 23.9496 47.0167 27.7401 44.9818 27.5605ZM15.9345 16.209C16.0343 13.4359 18.5879 7.69028 21.1415 5.69527C24.2337 3.30127 27.4656 1.04691 32.2138 3.74017C33.3908 4.39852 33.331 4.73767 33.4507 6.37358C33.5504 7.94963 33.4108 8.52818 33.0118 9.80499C29.8596 19.9795 27.2262 14.1342 17.1315 16.5481C17.5106 13.2364 20.3834 10.2838 21.9794 8.74763C24.7125 6.09428 26.6876 4.37857 30.7973 4.93717C31.9345 6.83243 32.0541 8.02943 30.6776 10.2439C28.8422 13.1965 28.3833 13.0169 28.6626 15.0319C30.099 14.6728 30.5379 13.2763 31.1963 11.8798C35.2063 3.50077 29.3808 2.48331 25.8098 4.01947C23.4158 5.03692 19.1465 9.74514 17.75 12.578C17.4707 13.1366 17.1714 13.8548 16.9121 14.4733L15.9345 16.209ZM31.7349 16.6279C32.1539 14.1342 34.6277 13.5157 34.6277 5.83492C34.6277 2.52321 30.5579 -0.449345 25.2312 1.76511C20.6627 3.64042 19.9644 5.07682 17.5305 8.74763C15.2362 12.2189 15.316 16.0294 13.341 19.2414C12.7624 20.1591 12.2437 20.4783 11.6053 21.396C11.1465 22.0743 10.8073 22.9321 10.3485 23.7301C9.41083 25.2663 8.45323 26.3835 7.69512 28.2189C5.30112 28.2787 3.28616 28.3186 3.04676 30.7924C2.72756 34.184 4.32356 35.0219 4.32356 36.2987C4.30361 37.6752 -1.2824 51.5605 0.273701 59.8397C0.712603 62.114 2.20886 62.134 4.60286 62.4133C10.3684 63.1115 17.8497 62.8721 23.0168 60.7973L32.3933 56.3086C34.7674 54.9719 38.7574 52.4383 40.5329 50.5829C41.7898 49.2862 42.4481 48.1889 43.5254 46.6527C45.0017 44.4981 45.0416 44.538 45.3608 41.6054C47.3159 41.9645 50.9668 42.8223 52.1838 43.8797C52.0441 45.2562 51.3658 44.5979 51.3658 45.8348C52.1439 45.8547 53.4406 44.8772 53.7598 43.7999C52.9419 42.6029 52.084 42.8024 50.907 41.8448C51.8446 41.1066 53.5404 40.7675 54.8371 40.2288C57.6301 39.0717 62.3982 35.5605 63.5752 32.3685C64.5129 29.7949 63.8147 25.5057 62.2984 23.8299C60.7024 22.0743 56.9917 21.1765 53.9593 21.1765C50.3484 21.1765 46.6177 23.77 43.705 24.8872C42.5878 23.9097 42.508 22.7925 41.69 21.7152C40.7524 20.4384 34.6477 17.2464 31.7349 16.6279Z" fill="#020202"/>
<path fill-rule="evenodd" clip-rule="evenodd" d="M44.9818 27.5605C47.0167 27.7401 49.1115 23.9496 53.9593 23.79C61.1014 23.5506 63.0366 27.3012 61.9992 28.4184C61.1613 27.5007 61.6201 27.0418 60.0042 25.8448C56.1738 23.0718 49.4307 25.4259 46.3184 28.6578C45.2611 29.755 45.0616 29.9545 45.4406 31.79C45.8596 33.8448 45.5803 39.4109 45.9394 40.2887C50.2287 41.6852 54.3783 39.5904 56.872 37.5555C59.3259 35.5605 62.3184 33.1665 62.857 28.7974C63.1164 26.6029 61.4206 24.9271 60.3832 24.0693C57.8296 21.9346 51.8446 22.2339 48.6326 24.0294C47.7748 24.5082 47.2162 25.0269 46.5179 25.5256C45.301 26.3835 44.6027 26.3037 44.9818 27.5605Z" fill="#FDF2F2"/>
<path fill-rule="evenodd" clip-rule="evenodd" d="M15.9345 16.209L16.9121 14.4733C17.1714 13.8548 17.4707 13.1366 17.75 12.578C19.1465 9.74514 23.4158 5.03692 25.8098 4.01947C29.3808 2.48331 35.2063 3.50077 31.1963 11.8798C30.5379 13.2763 30.099 14.6728 28.6626 15.0319C28.3833 13.0169 28.8422 13.1965 30.6776 10.2439C32.0541 8.02943 31.9345 6.83243 30.7973 4.93717C26.6876 4.37857 24.7125 6.09428 21.9794 8.74763C20.3834 10.2838 17.5106 13.2364 17.1315 16.5481C27.2262 14.1342 29.8596 19.9795 33.0118 9.80499C33.4108 8.52818 33.5504 7.94963 33.4507 6.37358C33.331 4.73767 33.3908 4.39852 32.2138 3.74017C27.4656 1.04691 24.2337 3.30127 21.1415 5.69527C18.5879 7.69028 16.0343 13.4359 15.9345 16.209Z" fill="#FEF3F3"/>
<path fill-rule="evenodd" clip-rule="evenodd" d="M4.56296 34.7226C4.94202 34.4433 4.94202 34.6628 5.36097 33.7052L6.95697 29.2563C3.82481 29.5156 3.82481 32.6877 4.56296 34.7226Z" fill="#EFEFEF"/>
<path fill-rule="evenodd" clip-rule="evenodd" d="M2.80736 56.0692C4.12406 55.9495 7.55547 56.947 7.83478 58.0642C5.70012 58.3235 2.98691 58.124 2.80736 56.0692Z" fill="#FAF1F1"/>
</svg>
