<svg width="64" height="64" viewBox="0 0 64 64" fill="none" xmlns="http://www.w3.org/2000/svg">
<path d="M22.7132 13.5034C21.8831 12.6786 20.5421 12.6807 19.7146 13.5082L2.50165 30.7211C1.67231 31.5505 1.67231 32.8951 2.50165 33.7245L19.7152 50.938C20.5425 51.7653 21.883 51.7676 22.7132 50.9433L27.3727 46.3165C28.207 45.488 28.2093 44.1391 27.3778 43.3077L17.7922 33.7243C16.9627 32.895 16.9626 31.5504 17.7918 30.721L27.3733 21.1373C28.2044 20.3061 28.2022 18.958 27.3684 18.1294L22.7132 13.5034Z" fill="#EAB308"/>
<path d="M39.608 28.2862C42.8936 28.2862 45.5571 24.7392 45.5571 20.3636C45.5571 15.988 42.8936 12.4409 39.608 12.4409C36.3224 12.4409 33.6589 15.988 33.6589 20.3636C33.6589 24.7392 36.3224 28.2862 39.608 28.2862Z" stroke="#EAB308" stroke-width="3.18549"/>
<path d="M55.8645 11.8119C56.3894 10.7998 57.6199 10.3828 58.652 10.8673L58.9665 11.0149C60.0581 11.5273 60.5045 12.8447 59.9493 13.9152L39.8685 52.6292C39.3436 53.6413 38.1131 54.0583 37.081 53.5738L36.7665 53.4262C35.6749 52.9138 35.2285 51.5964 35.7837 50.526L55.8645 11.8119Z" fill="#EAB308"/>
<path d="M56.0509 52.0319C59.3365 52.0319 62 48.4848 62 44.1092C62 39.7336 59.3365 36.1865 56.0509 36.1865C52.7653 36.1865 50.1018 39.7336 50.1018 44.1092C50.1018 48.4848 52.7653 52.0319 56.0509 52.0319Z" stroke="#EAB308" stroke-width="3.18549"/>
</svg>
