<svg width="64" height="64" viewBox="0 0 64 64" fill="none" xmlns="http://www.w3.org/2000/svg">
<path d="M56.5363 9H7.46375C3.341 9 0 12.341 0 16.4626V46.9035C0 51.0252 3.341 54.3662 7.46375 54.3662H56.5363C60.6579 54.3662 64 51.0252 64 46.9035V16.4626C64 12.341 60.658 9 56.5363 9ZM60.4362 48.9142L59.0155 50.5967L39.1196 34.359L36.0384 37.2907C33.7549 39.3877 30.2452 39.3877 27.9616 37.2907L24.8804 34.359L4.9845 50.5967L3.56375 48.9142L22.2437 31.8496L3.44138 14.1791L4.553 12.7062L32 33.5031L59.4469 12.7062L60.5576 14.1791L41.7564 31.8496L60.4362 48.9142Z" fill="#3B82F6"/>
</svg>
