<svg width="64" height="64" viewBox="0 0 64 64" fill="none" xmlns="http://www.w3.org/2000/svg">
<g clip-path="url(#clip0_763_2693)">
<path fill-rule="evenodd" clip-rule="evenodd" d="M28.4999 0V14V14.1523C28.4997 15.3397 28.4994 16.4937 28.6279 17.4455C28.7728 18.5184 29.126 19.7428 30.1475 20.7598C31.169 21.7768 32.3989 22.1283 33.4767 22.2725C34.4326 22.4006 35.5917 22.4003 36.7844 22.4H36.9374H50.9999V39.2C50.9999 47.1195 50.9999 51.0793 48.5286 53.5396C46.0573 56 42.0798 56 34.1249 56H22.8749C14.92 56 10.9425 56 8.47123 53.5396C5.99994 51.0793 5.99994 47.1195 5.99994 39.2V16.8C5.99994 8.8804 5.99994 4.92061 8.47123 2.4603C10.9425 0 14.92 0 22.8749 0H28.4999ZM34.1249 0.0129362V14C34.1249 15.3991 34.1308 16.1667 34.2028 16.6993L34.2057 16.7197L34.2262 16.7225C34.7611 16.7941 35.532 16.8 36.9374 16.8H50.987C50.9583 15.6474 50.8663 14.8847 50.5719 14.1766C50.1435 13.1475 49.3307 12.3382 47.7048 10.7196L40.2326 3.2804C38.6067 1.66183 37.7938 0.852544 36.76 0.426272C36.0487 0.132972 35.2826 0.0414682 34.1249 0.0129362ZM17.2499 30.8C17.2499 29.2536 18.5092 28 20.0624 28H36.9374C38.4908 28 39.7499 29.2536 39.7499 30.8C39.7499 32.3464 38.4908 33.6 36.9374 33.6H20.0624C18.5092 33.6 17.2499 32.3464 17.2499 30.8ZM20.0624 39.2C18.5092 39.2 17.2499 40.4536 17.2499 42C17.2499 43.5464 18.5092 44.8 20.0624 44.8H31.3124C32.8658 44.8 34.1249 43.5464 34.1249 42C34.1249 40.4536 32.8658 39.2 31.3124 39.2H20.0624Z" fill="#495057"/>
<path fill-rule="evenodd" clip-rule="evenodd" d="M38.2626 52.7626C37.5792 53.4459 37.5792 54.554 38.2626 55.2374C38.946 55.9208 40.054 55.9208 40.7375 55.2374L45.1124 50.8624C46.2791 49.6957 46.2791 47.8043 45.1124 46.6376L40.7375 42.2626C40.054 41.5791 38.946 41.5791 38.2626 42.2626C37.5792 42.946 37.5792 44.054 38.2626 44.7374L42.2751 48.75L38.2626 52.7626ZM48.25 52.25C47.2835 52.25 46.5 53.0335 46.5 54C46.5 54.9665 47.2835 55.75 48.25 55.75H53.5C54.4665 55.75 55.25 54.9665 55.25 54C55.25 53.0335 54.4665 52.25 53.5 52.25H48.25ZM64 41.6348C64 41.6731 64 41.7115 64 41.75V55.8651C64.0002 57.4165 64.0002 58.7532 63.8563 59.8236C63.702 60.9708 63.3542 62.0705 62.4623 62.9623C61.5705 63.8542 60.4708 64.202 59.3236 64.3563C58.2532 64.5002 56.9165 64.5002 55.3651 64.5H37.6348C36.0835 64.5002 34.7468 64.5002 33.6764 64.3563C32.5292 64.202 31.4296 63.8542 30.5377 62.9623C29.6458 62.0705 29.298 60.9708 29.1438 59.8236C28.9998 58.7532 28.9999 57.4165 29 55.8651V41.6348C28.9999 40.0835 28.9998 38.7468 29.1438 37.6764C29.298 36.5292 29.6458 35.4296 30.5377 34.5377C31.4296 33.6458 32.5292 33.298 33.6764 33.1438C34.7468 32.9998 36.0835 32.9999 37.6348 33L55.25 33C55.2885 33 55.327 33 55.3651 33C56.9165 32.9999 58.2532 32.9998 59.3236 33.1438C60.4708 33.298 61.5705 33.6458 62.4623 34.5377C63.3542 35.4296 63.702 36.5292 63.8563 37.6764C64.0002 38.7468 64.0002 40.0835 64 41.6348Z" fill="#F97316"/>
</g>
<defs>
<clipPath id="clip0_763_2693">
<rect width="64" height="64" fill="white"/>
</clipPath>
</defs>
</svg>
