<svg width="64" height="64" viewBox="0 0 64 64" fill="none" xmlns="http://www.w3.org/2000/svg">
<g clip-path="url(#clip0_762_2659)">
<path d="M63.7948 24.1153C63.3173 22.694 62.087 21.6578 60.6057 21.4312L43.3663 18.7969L35.6228 2.3011C34.9624 0.895041 33.5513 0 32.001 0C30.4496 0 29.0395 0.895041 28.3792 2.3011L20.6347 18.7979L3.39523 21.4322C1.91399 21.6588 0.683688 22.694 0.207213 24.1163C-0.269261 25.5386 0.0903807 27.1052 1.13781 28.1801L13.7273 41.0896L10.7455 59.3531C10.4997 60.8648 11.1407 62.3847 12.3914 63.2685C13.641 64.1524 15.2908 64.2418 16.6349 63.5002L32.002 55.0018L47.3691 63.5002C47.9756 63.8354 48.6431 64 49.3075 64C50.1162 64 50.9249 63.7541 51.6126 63.2685C52.8633 62.3857 53.5033 60.8658 53.2574 59.3531L50.2757 41.0896L62.8662 28.1801C63.9116 27.1052 64.2712 25.5386 63.7948 24.1153Z" fill="#EAB308"/>
</g>
<defs>
<clipPath id="clip0_762_2659">
<rect width="64" height="64" fill="white"/>
</clipPath>
</defs>
</svg>
