<svg width="64" height="64" viewBox="0 0 64 64" fill="none" xmlns="http://www.w3.org/2000/svg">
<path d="M21.5923 64C27.4429 64 32.1913 59.2216 32.1913 53.3344V42.6689H21.5923C15.7484 42.6689 11 47.4439 11 53.3344C11 59.225 15.7484 64 21.5923 64Z" fill="#00E676"/>
<path d="M11 32C11 26.1128 15.7484 21.3344 21.5923 21.3344H32.1913V42.6689H21.5923C15.7484 42.6689 11 37.8905 11 32Z" fill="#7C4DFF"/>
<path d="M11 10.6689C11 4.78168 15.7484 0 21.5923 0H32.1913V21.3344H21.5923C15.7484 21.3344 11 16.5561 11 10.6689Z" fill="#F4511E"/>
<path d="M32.1879 0H42.7836C48.6308 0 53.3792 4.78168 53.3792 10.6689C53.3792 16.5561 48.6308 21.3344 42.7836 21.3344H32.1879V0Z" fill="#FF8A65"/>
<path d="M53.3792 32C53.3792 37.8905 48.6308 42.6689 42.7836 42.6689C36.9363 42.6689 32.1879 37.8905 32.1879 32C32.1879 26.1095 36.9363 21.3344 42.7836 21.3344C48.6308 21.3344 53.3792 26.1128 53.3792 32Z" fill="#29B6F6"/>
</svg>
