<svg width="64" height="64" viewBox="0 0 64 64" fill="none" xmlns="http://www.w3.org/2000/svg">
<g clip-path="url(#clip0_709_4498)">
<path fill-rule="evenodd" clip-rule="evenodd" d="M31.6 0V16V16.1741C31.5997 17.5311 31.5994 18.8499 31.7456 19.9377C31.9104 21.1639 32.3123 22.5632 33.4746 23.7255C34.6368 24.8878 36.0362 25.2894 37.2624 25.4543C38.3501 25.6006 39.6688 25.6003 41.0259 25.6H41.2H57.2V44.8C57.2 53.8509 57.2 58.3763 54.3882 61.1882C51.5763 64 47.0509 64 38 64H25.2C16.149 64 11.6236 64 8.81178 61.1882C6 58.3763 6 53.8509 6 44.8V19.2C6 10.149 6 5.62355 8.81178 2.81178C11.6236 0 16.149 0 25.2 0H31.6ZM38 0.0147842V16C38 17.5989 38.0067 18.4763 38.0886 19.0849L38.0918 19.1082L38.1152 19.1114C38.7238 19.1932 39.601 19.2 41.2 19.2H57.1853C57.1526 17.8828 57.048 17.011 56.713 16.2018C56.2256 15.0257 55.3008 14.1008 53.4509 12.251L44.9491 3.74902C43.0992 1.89923 42.1744 0.974336 40.9981 0.487168C40.1888 0.151968 39.3171 0.0473922 38 0.0147842ZM18.8 35.2C18.8 33.4326 20.2327 32 22 32H41.2C42.9674 32 44.4 33.4326 44.4 35.2C44.4 36.9674 42.9674 38.4 41.2 38.4H22C20.2327 38.4 18.8 36.9674 18.8 35.2ZM22 44.8C20.2327 44.8 18.8 46.2326 18.8 48C18.8 49.7674 20.2327 51.2 22 51.2H34.8C36.5674 51.2 38 49.7674 38 48C38 46.2326 36.5674 44.8 34.8 44.8H22Z" fill="#343A40"/>
</g>
<defs>
<clipPath id="clip0_709_4498">
<rect width="64" height="64" fill="white"/>
</clipPath>
</defs>
</svg>
