<svg width="64" height="64" viewBox="0 0 64 64" fill="none" xmlns="http://www.w3.org/2000/svg">
<path d="M55.4428 50.9561C55.5109 51.3726 55.3101 51.7871 54.941 51.9919L34.3165 63.4329C32.861 64.189 31.4055 64.189 29.95 63.4329L10.1447 52.2943C9.56893 51.9705 9.4598 51.1872 9.92515 50.7183L46.9716 13.3891L47.9923 13.0993C48.8649 13.0993 49.3595 13.4773 49.4446 14.2649L55.4428 50.9561ZM24.5692 13.9719L12.3881 34.1751C12.1612 34.5515 11.5815 34.3398 11.6505 33.9058L16.8571 1.16564C16.9453 0.378045 17.4399 0 18.3125 0C18.8953 0 19.2734 0.176421 19.4782 0.730888L25.7317 12.2235L24.566 13.9688M37.6653 17.6358L12.1189 43.2894C11.7871 43.6227 11.2521 43.2092 11.4909 42.804L30.9739 9.75043C31.2638 9.16761 31.6985 8.90613 32.2813 8.90613C32.8641 8.90613 33.2422 9.16761 33.447 9.75043L37.6653 17.6358Z" fill="#EAB308"/>
</svg>
