<svg width="64" height="64" viewBox="0 0 64 64" fill="none" xmlns="http://www.w3.org/2000/svg">
<path d="M3.50026 3.23099e-05C2.60937 2.03863e-05 2.16318 1.07711 2.79309 1.7071L20.7099 19.626C21.3398 20.256 20.8936 21.3331 20.0028 21.3331H7.81947C6.92862 21.3331 6.48243 22.4101 7.11228 23.0401L20.5367 36.4678C21.1665 37.0978 20.7203 38.1748 19.8295 38.1748H3.41392C2.52306 38.1748 2.07687 39.2519 2.70675 39.8819L25.0296 62.2086C25.6596 62.8386 26.7368 62.3925 26.7368 61.5015V42.6708C26.7368 42.6696 26.7373 42.6684 26.7382 42.6675C26.7391 42.6666 26.7396 42.6654 26.7396 42.6642V21.3344C26.7396 21.3337 26.7389 21.3331 26.7382 21.3331C26.7374 21.3331 26.7368 21.3324 26.7368 21.3317V10.2401C26.7368 9.68782 27.1845 9.2401 27.7368 9.2401H39.18C39.4452 9.2401 39.6995 9.34545 39.8871 9.53298L43.5029 13.1486C44.1329 13.7786 43.6867 14.8558 42.7958 14.8558H33.7044C33.1521 14.8558 32.7044 15.3035 32.7044 15.8558V34.9302C32.7044 35.4825 33.1521 35.9302 33.7044 35.9302H38.3621C38.6273 35.9302 38.8817 36.0356 39.0692 36.2231L43.8086 40.9623C44.4386 41.5923 43.9924 42.6694 43.1015 42.6694H41.1638C41.1635 42.6694 41.1631 42.6693 41.1629 42.669L41.1619 42.668C41.1614 42.6675 41.1605 42.6679 41.1605 42.6686C41.1605 42.6691 41.1601 42.6694 41.1597 42.6694H32.4414C32.4411 42.6694 32.4407 42.6693 32.4405 42.669L32.4395 42.668C32.439 42.6675 32.4381 42.6679 32.4381 42.6686C32.4381 42.6691 32.4377 42.6694 32.4373 42.6694H32.4129C32.3904 42.6694 32.3791 42.6966 32.395 42.7125L32.4255 42.743C32.4336 42.7511 32.4381 42.762 32.4381 42.7735V63C32.4381 63.5523 32.8858 64 33.4381 64H60.0805C60.9714 64 61.4175 62.9229 60.7876 62.2929L51.993 53.4983C51.8054 53.3108 51.7001 53.0564 51.7001 52.7912V50.5013C51.7001 49.893 52.4355 49.5884 52.8656 50.0185C53.2957 50.4487 54.0311 50.1441 54.0311 49.5358V30.8787C54.0311 30.3264 53.5834 29.8787 53.0311 29.8787H50.7132C50.1607 29.8787 49.7129 29.4307 49.7132 28.8782L49.7163 21.7744C49.7167 20.8838 50.7936 20.438 51.4234 21.0677L56.2963 25.94C56.9263 26.5699 58.0033 26.1237 58.0033 25.2328V7.31566C58.0033 6.76337 57.5556 6.31565 57.0033 6.31565H40.553C40.2878 6.31565 40.0335 6.21033 39.846 6.02285L34.1147 0.293077C33.9272 0.105597 33.6729 0.000276271 33.4077 0.000276271H21.7281L3.50026 3.23099e-05Z" fill="#EAB308"/>
</svg>
