<svg width="64" height="64" viewBox="0 0 64 64" fill="none" xmlns="http://www.w3.org/2000/svg">
<g clip-path="url(#clip0_715_3356)">
<path d="M53.0492 59.8275C55.6792 59.2433 57.9915 58.2169 59.8037 56.4047C61.6159 54.5925 62.6423 52.2802 63.2266 49.6502C63.8031 47.0567 63.9903 43.9679 63.9903 40.3959C63.9903 38.4558 63.9855 36.5155 63.9807 34.5752C63.9701 30.3266 63.9596 26.0776 63.9996 21.8298C64.0482 16.6336 59.9055 12.5985 54.7943 12.5985H38.6194C37.5495 12.5985 36.5506 12.0638 35.9571 11.1738L53.0492 59.8275ZM53.0492 59.8275C50.4557 60.4041 47.3669 60.5913 43.795 60.5913H20.1953C16.6233 60.5913 13.5345 60.4041 10.941 59.8275M53.0492 59.8275H10.941M60.9997 21.8017C61.0323 18.3172 58.2819 15.5985 54.7943 15.5985H38.6194C36.5463 15.5985 34.6109 14.5624 33.4612 12.8382L33.4609 12.8379L30.8614 8.93833C30.8613 8.93832 30.8613 8.9383 30.8613 8.93828C29.6375 7.10261 27.5772 6 25.371 6H20.1953C16.6923 6 13.863 6.18742 11.5919 6.69215M60.9997 21.8017L6.3078 9.30784M60.9997 21.8017C60.9596 26.0676 60.9702 30.3466 60.9807 34.6045C60.9855 36.5404 60.9903 38.472 60.9903 40.3959C60.9903 43.8989 60.8029 46.7281 60.2981 48.9992L60.298 48.9997C59.7929 51.2734 58.9669 52.9989 57.6824 54.2834C56.398 55.5678 54.6725 56.3938 52.3987 56.8989L52.3982 56.899C50.1271 57.4039 47.298 57.5913 43.795 57.5913H20.1953C16.6922 57.5913 13.8631 57.4039 11.5921 56.899L11.5916 56.8989C9.3179 56.3938 7.59223 55.5678 6.30782 54.2834C5.02346 52.999 4.19752 51.2735 3.69216 48.9994L0.766804 49.6495L3.69215 48.9994C3.18742 46.7282 3 43.8989 3 40.3959V23.1953C3 19.6923 3.18742 16.8631 3.69215 14.5919C4.19752 12.3179 5.02348 10.5922 6.3078 9.30784M60.9997 21.8017L6.3078 9.30784M11.5919 6.69215L10.941 3.7636M11.5919 6.69215L10.941 3.7636M11.5919 6.69215C9.31785 7.19752 7.59221 8.02348 6.30784 9.3078C6.30783 9.30781 6.30782 9.30783 6.3078 9.30784M10.941 3.7636C8.31119 4.34805 5.99871 5.37433 4.1865 7.1865C2.37433 8.99871 1.34805 11.3112 0.763596 13.941C0.187236 16.5345 0 19.6233 0 23.1953V40.3959C0 43.9679 0.187236 47.0567 0.763596 49.6502C1.34805 52.2802 2.37433 54.5925 4.1865 56.4047C5.99871 58.2169 8.31119 59.2433 10.941 59.8275M10.941 3.7636C13.5345 3.18724 16.6233 3 20.1953 3H25.371C28.5803 3 31.5773 4.60392 33.3575 7.27423L10.941 59.8275" stroke="#854D0E" stroke-width="6"/>
<path d="M22.839 34.1535C22.839 34.6707 22.8915 35.0907 22.9912 35.4004C23.1015 35.7076 23.2432 36.0436 23.4375 36.4084C23.4995 36.5048 23.5331 36.6167 23.5346 36.7313C23.5346 36.8705 23.4506 37.0122 23.2721 37.1513L22.3901 37.7393C22.2842 37.8158 22.1583 37.8596 22.0278 37.8653C21.8861 37.8653 21.7469 37.7971 21.6078 37.6711C21.4191 37.4681 21.2504 37.2474 21.1038 37.0122C20.9485 36.7429 20.8049 36.467 20.6733 36.1853C19.5813 37.4742 18.2136 38.12 16.5651 38.12C15.3917 38.12 14.4546 37.7813 13.7721 37.1093C13.0869 36.4373 12.7378 35.5396 12.7378 34.4187C12.7378 33.2269 13.1578 32.2609 14.0083 31.5311C14.8615 30.8014 15.9928 30.4391 17.4314 30.4391C17.9039 30.4391 18.3948 30.4811 18.9119 30.5493C19.429 30.6202 19.9619 30.7331 20.5184 30.8591V29.8353C20.5184 28.7696 20.2953 28.0267 19.8622 27.5935C19.4159 27.1578 18.6599 26.9478 17.5836 26.9478C17.0954 26.9478 16.594 27.0055 16.0769 27.1315C15.5631 27.2538 15.0586 27.4126 14.5674 27.6067C14.4089 27.6785 14.2458 27.7399 14.0792 27.7904C14.007 27.8143 13.932 27.8284 13.8561 27.8324C13.6592 27.8324 13.5621 27.6907 13.5621 27.3967V26.7089C13.5621 26.4858 13.5883 26.3151 13.6592 26.2206C13.765 26.0918 13.9 25.9902 14.0529 25.924C14.5386 25.672 15.1266 25.462 15.8117 25.294C16.4942 25.1103 17.2214 25.0289 17.9905 25.0289C19.6522 25.0289 20.8676 25.4069 21.6498 26.1629C22.419 26.9189 22.8101 28.0687 22.8101 29.6122V34.1535H22.8363H22.839ZM17.1662 36.2824C17.6256 36.2824 18.1008 36.1984 18.6048 36.0304C19.1088 35.8624 19.555 35.5527 19.9304 35.1327C20.1555 34.8748 20.3181 34.5685 20.4055 34.2375C20.4896 33.8989 20.5473 33.4946 20.5473 33.0169V32.4289C20.1233 32.3261 19.6939 32.2472 19.261 32.1926C18.8258 32.1363 18.3874 32.1074 17.9485 32.106C17.0114 32.106 16.3289 32.2897 15.8668 32.6678C15.4048 33.0458 15.1843 33.5786 15.1843 34.2795C15.1843 34.9358 15.3497 35.4267 15.6988 35.7653C16.0348 36.1144 16.5231 36.2824 17.1662 36.2824ZM28.3831 37.7971C28.1311 37.7971 27.9631 37.7551 27.8528 37.6553C27.7399 37.5713 27.6428 37.3771 27.5588 37.1093L24.2775 26.2758C24.2137 26.0941 24.1714 25.9055 24.1515 25.714C24.1515 25.4909 24.2617 25.3649 24.4849 25.3649H25.8551C26.1176 25.3649 26.3014 25.4069 26.3985 25.504C26.5114 25.588 26.5954 25.7849 26.6794 26.05L29.0262 35.3296L31.205 26.05C31.2732 25.7718 31.3572 25.588 31.4701 25.504C31.6378 25.4014 31.833 25.3528 32.0292 25.3649H33.1475C33.41 25.3649 33.5938 25.4069 33.704 25.504C33.8169 25.588 33.914 25.7849 33.9718 26.05L36.1768 35.4424L38.5919 26.05C38.6368 25.8468 38.7335 25.6587 38.8727 25.504C39.0355 25.4011 39.2266 25.3524 39.4188 25.3649H40.7181C40.9413 25.3649 41.0673 25.4778 41.0673 25.714C41.0673 25.7849 41.0515 25.8558 41.041 25.9398C41.0183 26.0589 40.985 26.1758 40.9413 26.2889L37.5733 37.1225C37.492 37.4033 37.3922 37.5871 37.282 37.6711C37.1234 37.7725 36.9369 37.8212 36.7491 37.8102H35.5494C35.2843 37.8102 35.1032 37.7682 34.9903 37.6711C34.8774 37.5713 34.7803 37.3902 34.7252 37.1093L32.5595 28.0713L30.407 37.0988C30.3387 37.3797 30.2547 37.5608 30.1445 37.658C30.0316 37.7577 29.8347 37.7997 29.5853 37.7997H28.3831V37.7971ZM46.3331 38.1751C45.6082 38.1761 44.8857 38.0915 44.1806 37.9231C43.4823 37.7551 42.9389 37.5713 42.5741 37.3613C42.3509 37.2353 42.1987 37.0962 42.1409 36.9676C42.0877 36.844 42.06 36.711 42.0595 36.5764V35.8624C42.0595 35.5684 42.1698 35.4267 42.3798 35.4267C42.4655 35.4269 42.5507 35.4411 42.6318 35.4687C42.7158 35.4976 42.8418 35.5527 42.9809 35.6104C43.4534 35.8204 43.9732 35.9884 44.5166 36.1013C45.0757 36.2116 45.6191 36.2693 46.1782 36.2693C47.0603 36.2693 47.7428 36.1144 48.2179 35.8073C48.4462 35.6691 48.6337 35.4729 48.7614 35.2387C48.8892 35.0044 48.9525 34.7405 48.945 34.4738C48.9498 34.2937 48.9188 34.1145 48.8539 33.9464C48.789 33.7784 48.6915 33.6248 48.567 33.4946C48.3177 33.2269 47.8425 32.988 47.1574 32.7649L45.1308 32.1349C44.1123 31.812 43.3563 31.3342 42.8969 30.7042C42.4472 30.1221 42.2018 29.408 42.1987 28.6724C42.1987 28.0844 42.3247 27.5647 42.5741 27.1158C42.8261 26.6695 43.1621 26.2758 43.5821 25.966C44.0021 25.6458 44.4746 25.4069 45.0337 25.2389C45.5929 25.0709 46.1782 25 46.7925 25C47.1023 25 47.4225 25.0131 47.7296 25.0551C48.0499 25.0971 48.3439 25.1549 48.6379 25.2126C48.9162 25.2809 49.1839 25.3491 49.4333 25.4358C49.6853 25.5198 49.8796 25.6038 50.0213 25.6878C50.1861 25.7706 50.3297 25.89 50.4413 26.0369C50.5312 26.1736 50.5744 26.3356 50.5647 26.4989V27.1578C50.5647 27.4518 50.4544 27.6067 50.2444 27.6067C50.0585 27.5854 49.8784 27.5284 49.7142 27.4387C48.87 27.0645 47.9546 26.8782 47.0314 26.8927C46.236 26.8927 45.606 27.0187 45.1728 27.2864C44.7397 27.5489 44.5166 27.9584 44.5166 28.5333C44.5166 28.9244 44.6557 29.2604 44.9366 29.5282C45.2149 29.7933 45.732 30.0585 46.4722 30.2973L48.4568 30.9274C49.4622 31.2502 50.1893 31.6991 50.6224 32.274C51.0556 32.8489 51.263 33.5078 51.263 34.2375C51.263 34.8413 51.1396 35.3847 50.9007 35.8624C50.6535 36.3419 50.3061 36.7626 49.8822 37.0962C49.4491 37.4453 48.9319 37.7 48.3308 37.8811C47.7008 38.078 47.0445 38.1751 46.3331 38.1751Z" fill="#FACC15"/>
<path fill-rule="evenodd" clip-rule="evenodd" d="M48.9711 44.9843C44.3773 48.389 37.6991 50.1976 31.9582 50.1976C23.9124 50.1976 16.662 47.213 11.1862 42.2516C10.7531 41.8579 11.1442 41.325 11.6587 41.6347C17.5834 45.0814 24.8889 47.171 32.4491 47.171C37.5443 47.171 43.1461 46.1052 48.3017 43.9185C49.0708 43.5694 49.7271 44.4225 48.9711 44.9843Z" fill="#FACC15"/>
<path fill-rule="evenodd" clip-rule="evenodd" d="M50.8846 42.797C50.2992 42.0436 47.0021 42.4347 45.5085 42.6159C45.0622 42.6736 44.9913 42.2798 45.3956 41.9858C48.0207 40.1352 52.3389 40.6681 52.8402 41.285C53.3442 41.915 52.7011 46.2463 50.2414 48.3201C49.8661 48.643 49.5038 48.4776 49.6718 48.0576C50.2283 46.6663 51.4726 43.5425 50.8846 42.7996V42.797Z" fill="#FACC15"/>
</g>
<defs>
<clipPath id="clip0_715_3356">
<rect width="64" height="64" fill="white"/>
</clipPath>
</defs>
</svg>
