<svg width="64" height="64" viewBox="0 0 64 64" fill="none" xmlns="http://www.w3.org/2000/svg">
<g clip-path="url(#clip0_717_3760)">
<path fill-rule="evenodd" clip-rule="evenodd" d="M10.941 3.7636C13.5345 3.18724 16.6233 3 20.1953 3H25.371C28.5803 3 31.5773 4.60392 33.3575 7.27423L35.9571 11.1738C36.5506 12.0638 37.5495 12.5985 38.6194 12.5985H54.7943C59.9055 12.5985 64.0482 16.6336 63.9996 21.8298C63.9413 28.0176 63.9903 34.2078 63.9903 40.3959C63.9903 43.9679 63.8031 47.0567 63.2266 49.6502C62.6423 52.2802 61.6159 54.5925 59.8037 56.4047C57.9915 58.2169 55.6792 59.2433 53.0492 59.8275C50.4557 60.4041 47.3669 60.5913 43.795 60.5913H20.1953C16.6233 60.5913 13.5345 60.4041 10.941 59.8275C8.31119 59.2433 5.99871 58.2169 4.1865 56.4047C2.37433 54.5925 1.34805 52.2802 0.763597 49.6502C0.187236 47.0567 0 43.9679 0 40.3959V23.1953C0 19.6233 0.187236 16.5345 0.763597 13.941C1.34805 11.3112 2.37433 8.99871 4.1865 7.1865C5.99871 5.37433 8.31119 4.34805 10.941 3.7636Z" fill="#1E40AF"/>
<path fill-rule="evenodd" clip-rule="evenodd" d="M34.317 20.1691C32.7806 19.9436 31.2194 19.9436 29.683 20.1691L28.6692 22.8148C27.3899 23.1379 26.1644 23.6455 25.0314 24.3217L22.4438 23.1683C21.1985 24.0951 20.0951 25.1985 19.1683 26.4438L20.3217 29.0314C19.6455 30.1644 19.1379 31.3899 18.8148 32.6692L16.1691 33.683C15.9436 35.2194 15.9436 36.7806 16.1691 38.317L18.8148 39.3308C19.1379 40.6101 19.6455 41.8356 20.3217 42.9686L19.1683 45.5561C20.0951 46.8015 21.1985 47.9049 22.4438 48.8317L25.0314 47.6783C26.1644 48.3545 27.3899 48.8621 28.6692 49.1852L29.683 51.8309C31.2189 52.0564 32.7811 52.0564 34.317 51.8309L35.3308 49.1852C36.6101 48.8621 37.8356 48.3545 38.9686 47.6783L41.5561 48.8317C42.8015 47.9049 43.9049 46.8015 44.8317 45.5561L43.6783 42.9686C44.3545 41.8356 44.8621 40.6101 45.1852 39.3308L47.8309 38.317C48.0564 36.7811 48.0564 35.2189 47.8309 33.683L45.1852 32.6692C44.8621 31.3899 44.3545 30.1644 43.6783 29.0314L44.8317 26.4438C43.9049 25.1985 42.8015 24.0951 41.5561 23.1683L38.9686 24.3217C37.8356 23.6455 36.6101 23.1379 35.3308 22.8148L34.317 20.1691ZM32 25.7471C37.6581 25.7471 42.2529 30.3419 42.2529 36C42.2529 41.6581 37.6581 46.2529 32 46.2529C26.3419 46.2529 21.7471 41.6581 21.7471 36C21.7471 30.3419 26.3419 25.7471 32 25.7471Z" fill="#60A5FA"/>
<path fill-rule="evenodd" clip-rule="evenodd" d="M36.116 40.1092C35.5766 40.6516 34.9351 41.0818 34.2287 41.3752C33.5222 41.6685 32.7646 41.8191 31.9997 41.8182C28.7881 41.8182 26.1816 39.2117 26.1816 36.0002C26.1816 32.7886 28.7881 30.1821 31.9997 30.1821C33.6069 30.1821 35.0629 30.8352 36.116 31.8912L34.0593 33.9464C33.6528 33.5387 33.1345 33.2607 32.5699 33.1477C32.0054 33.0347 31.42 33.0918 30.8879 33.3117C30.3559 33.5316 29.901 33.9045 29.5809 34.3831C29.2609 34.8616 29.09 35.4244 29.09 36.0002C29.09 36.5759 29.2609 37.1387 29.5809 37.6173C29.901 38.0959 30.3559 38.4687 30.8879 38.6886C31.42 38.9085 32.0054 38.9656 32.5699 38.8526C33.1345 38.7397 33.6528 38.4617 34.0593 38.054L36.116 40.1092Z" fill="#60A5FA"/>
</g>
<defs>
<clipPath id="clip0_717_3760">
<rect width="64" height="64" fill="white"/>
</clipPath>
</defs>
</svg>
