<svg width="64" height="64" viewBox="0 0 64 64" fill="none" xmlns="http://www.w3.org/2000/svg">
<g clip-path="url(#clip0_715_3667)">
<mask id="path-1-inside-1_715_3667" fill="white">
<path fill-rule="evenodd" clip-rule="evenodd" d="M10.941 3.7636C13.5345 3.18724 16.6233 3 20.1953 3H25.371C28.5803 3 31.5773 4.60392 33.3575 7.27423L35.9571 11.1738C36.5506 12.0638 37.5495 12.5985 38.6194 12.5985H54.7943C59.9055 12.5985 64.0482 16.6336 63.9996 21.8298C63.9413 28.0176 63.9903 34.2078 63.9903 40.3959C63.9903 43.9679 63.8031 47.0567 63.2266 49.6502C62.6423 52.2802 61.6159 54.5925 59.8037 56.4047C57.9915 58.2169 55.6792 59.2433 53.0492 59.8275C50.4557 60.4041 47.3669 60.5913 43.795 60.5913H20.1953C16.6233 60.5913 13.5345 60.4041 10.941 59.8275C8.31119 59.2433 5.99871 58.2169 4.1865 56.4047C2.37433 54.5925 1.34805 52.2802 0.763596 49.6502C0.187236 47.0567 0 43.9679 0 40.3959V23.1953C0 19.6233 0.187236 16.5345 0.763596 13.941C1.34805 11.3112 2.37433 8.99871 4.1865 7.1865C5.99871 5.37433 8.31119 4.34805 10.941 3.7636Z"/>
</mask>
<path fill-rule="evenodd" clip-rule="evenodd" d="M10.941 3.7636C13.5345 3.18724 16.6233 3 20.1953 3H25.371C28.5803 3 31.5773 4.60392 33.3575 7.27423L35.9571 11.1738C36.5506 12.0638 37.5495 12.5985 38.6194 12.5985H54.7943C59.9055 12.5985 64.0482 16.6336 63.9996 21.8298C63.9413 28.0176 63.9903 34.2078 63.9903 40.3959C63.9903 43.9679 63.8031 47.0567 63.2266 49.6502C62.6423 52.2802 61.6159 54.5925 59.8037 56.4047C57.9915 58.2169 55.6792 59.2433 53.0492 59.8275C50.4557 60.4041 47.3669 60.5913 43.795 60.5913H20.1953C16.6233 60.5913 13.5345 60.4041 10.941 59.8275C8.31119 59.2433 5.99871 58.2169 4.1865 56.4047C2.37433 54.5925 1.34805 52.2802 0.763596 49.6502C0.187236 47.0567 0 43.9679 0 40.3959V23.1953C0 19.6233 0.187236 16.5345 0.763596 13.941C1.34805 11.3112 2.37433 8.99871 4.1865 7.1865C5.99871 5.37433 8.31119 4.34805 10.941 3.7636Z" stroke="#1E40AF" stroke-width="12" mask="url(#path-1-inside-1_715_3667)"/>
<path fill-rule="evenodd" clip-rule="evenodd" d="M31.4421 21.0208C30.6441 21.0955 29.8762 21.3634 29.2049 21.8013C28.5336 22.2392 27.979 22.834 27.589 23.5343C27.1991 24.2346 26.9855 25.0193 26.9667 25.8206C26.948 26.6219 27.1246 27.4158 27.4813 28.1335L21.9347 32.2763C21.5438 32.0402 21.0831 31.9472 20.6312 32.0131C20.1793 32.0789 19.7643 32.2995 19.457 32.6373C19.1497 32.9751 18.9692 33.409 18.9462 33.8651C18.9233 34.3212 19.0593 34.7711 19.3311 35.138C19.603 35.5049 19.9937 35.7661 20.4367 35.877C20.8797 35.9879 21.3474 35.9416 21.76 35.746C22.1727 35.5505 22.5046 35.2177 22.6993 34.8046C22.8939 34.3916 22.9391 33.9237 22.8272 33.481L29.6941 28.4359C28.7893 27.5853 28.3173 26.1888 28.7205 24.925C28.963 24.1743 29.4637 23.5338 30.1337 23.1173C30.8037 22.7007 31.5996 22.5351 32.3802 22.6498C33.1607 22.7644 33.8754 23.152 34.3973 23.7436C34.9191 24.3353 35.2145 25.0927 35.2309 25.8814L36.829 25.9134C36.826 25.229 36.6808 24.5528 36.4025 23.9276C36.1241 23.3023 35.7188 22.7419 35.2122 22.2817C34.7056 21.8216 34.1088 21.4719 33.4598 21.2548C32.8107 21.0377 32.1236 20.958 31.4421 21.0208ZM32.042 24.158C31.7354 24.1572 31.4328 24.2277 31.158 24.3638C30.8833 24.5 30.6439 24.6982 30.4588 24.9427C30.2738 25.1872 30.1481 25.4714 30.0916 25.7728C30.0352 26.0742 30.0495 26.3846 30.1336 26.6795C30.2176 26.9744 30.369 27.2458 30.5758 27.4721C30.7827 27.6985 31.0393 27.8738 31.3255 27.984C31.6116 28.0942 31.9195 28.1365 32.2247 28.1074C32.53 28.0783 32.8243 27.9787 33.0845 27.8164L39.9932 32.8442C40.5341 31.7206 41.7191 30.8454 43.0492 30.8454C43.8431 30.8452 44.6112 31.1275 45.216 31.6418C45.8208 32.156 46.2229 32.8687 46.3503 33.6523C46.4777 34.4359 46.3222 35.2393 45.9116 35.9187C45.5009 36.5981 44.8619 37.1093 44.1089 37.3607L44.5662 38.8998C45.2758 38.6718 45.9247 38.2865 46.4645 37.7725C47.0042 37.2585 47.4209 36.6293 47.6833 35.9317C47.9457 35.2341 48.0471 34.4862 47.9798 33.7439C47.9126 33.0016 47.6785 32.2841 47.2951 31.645C46.9116 31.0059 46.3887 30.4617 45.7654 30.0531C45.142 29.6445 44.4344 29.382 43.6954 29.2852C42.9564 29.1885 42.2051 29.26 41.4976 29.4944C40.7901 29.7288 40.1447 30.12 39.6096 30.6388L33.9671 26.5969C34.0351 26.3062 34.0367 26.0039 33.9718 25.7125C33.9069 25.4211 33.7771 25.148 33.5921 24.9137C33.4071 24.6793 33.1717 24.4897 32.9034 24.3589C32.635 24.228 32.3406 24.1594 32.042 24.158ZM20.9218 28.9645C20.146 28.9541 19.3791 29.1295 18.6849 29.4759C17.9907 29.8223 17.3895 30.3298 16.9315 30.956C16.1686 32.0104 15.8558 33.3247 16.0619 34.6097C16.268 35.8947 16.9761 37.0452 18.0305 37.8081C19.1073 38.5949 20.3932 38.8825 21.6126 38.7178L23.8008 45.2577C23.5769 45.4508 23.3994 45.6919 23.2817 45.9631C23.1639 46.2343 23.1089 46.5286 23.1207 46.824C23.1325 47.1194 23.2109 47.4084 23.3499 47.6693C23.489 47.9302 23.6851 48.1564 23.9237 48.331C24.1318 48.4843 24.368 48.5951 24.6189 48.657C24.8698 48.719 25.1304 48.7309 25.3859 48.6921C25.6414 48.6533 25.8868 48.5645 26.108 48.4308C26.3291 48.2971 26.5218 48.1212 26.6749 47.913C26.826 47.7042 26.9344 47.4677 26.9939 47.2169C27.0534 46.9662 27.0629 46.7062 27.0218 46.4518C26.9807 46.1973 26.8898 45.9535 26.7544 45.7343C26.6189 45.5151 26.4415 45.3247 26.2324 45.1741C25.9359 44.958 25.5852 44.8286 25.2194 44.8004L22.5887 36.7288C21.4996 37.309 20.0367 37.3115 18.9672 36.5321C18.614 36.2767 18.3145 35.9543 18.0859 35.5832C17.8573 35.212 17.704 34.7995 17.6349 34.3692C17.5657 33.9388 17.582 33.4991 17.6827 33.075C17.7835 32.6509 17.9668 32.2509 18.2222 31.8977C19.0827 30.72 20.5825 30.2823 21.9052 30.7077L22.4338 29.2129C21.9421 29.0481 21.4283 28.967 20.9218 28.9645ZM43.1205 32.2099C42.7974 32.1818 42.4723 32.2339 42.1742 32.3615C41.876 32.4891 41.6139 32.6883 41.4111 32.9414C41.2083 33.1946 41.0711 33.4938 41.0116 33.8127C40.9521 34.1315 40.9722 34.4601 41.07 34.7693C41.1826 35.1157 41.3905 35.4233 41.6699 35.6569L39.0097 43.7162C40.239 43.8784 41.429 44.734 41.8347 45.9879C41.9674 46.4031 42.017 46.8404 41.9807 47.2748C41.9445 47.7092 41.823 48.1322 41.6232 48.5196C41.4234 48.9071 41.1493 49.2514 40.8165 49.5328C40.4836 49.8143 40.0986 50.0275 39.6834 50.1602C39.0214 50.3763 38.3082 50.3788 37.6446 50.1675C36.9811 49.9562 36.4008 49.5416 35.9856 48.9825L34.6654 49.8823C35.2764 50.7244 36.1385 51.3513 37.128 51.6729C38.1174 51.9944 39.1833 51.9942 40.1727 51.6722C40.7871 51.4756 41.3567 51.1599 41.849 50.7431C42.3413 50.3263 42.7467 49.8165 43.0419 49.2429C43.3371 48.6694 43.5164 48.0433 43.5696 47.4004C43.6227 46.7575 43.5487 46.1104 43.3516 45.4962C42.9613 44.2835 42.1113 43.272 40.984 42.6786L43.0984 36.1191C43.3932 36.0938 43.6786 36.0028 43.9336 35.8526C44.1886 35.7025 44.4067 35.4971 44.5718 35.2515C44.7369 35.006 44.8449 34.7265 44.8878 34.4337C44.9306 34.1409 44.9072 33.8422 44.8194 33.5597C44.7007 33.1924 44.4761 32.8683 44.1738 32.6282C43.8716 32.388 43.5052 32.2425 43.1205 32.2099ZM21.1529 43.9325C20.7149 44.5316 20.4182 45.2221 20.285 45.9521C20.1518 46.6822 20.1856 47.433 20.3838 48.1481C20.582 48.8633 20.9396 49.5243 21.4296 50.0816C21.9197 50.639 22.5295 51.0781 23.2134 51.3662C23.8974 51.6543 24.6376 51.7839 25.3788 51.7452C26.1199 51.7065 26.8426 51.5005 27.4928 51.1428C28.143 50.785 28.7038 50.2847 29.1331 49.6794C29.5625 49.0741 29.8492 48.3794 29.9719 47.6475L36.8732 47.5811C37.0496 48.0009 37.3661 48.3465 37.7688 48.5589C38.1715 48.7714 38.6354 48.8375 39.0814 48.7461C39.5275 48.6547 39.928 48.4114 40.2147 48.0577C40.5013 47.7039 40.6564 47.2617 40.6534 46.8064C40.6504 46.3511 40.4896 45.9109 40.1983 45.561C39.907 45.211 39.5033 44.973 39.0561 44.8874C38.6089 44.8019 38.1459 44.8741 37.746 45.0919C37.3462 45.3096 37.0342 45.6593 36.8634 46.0813L28.3689 46.1035C28.5951 47.3205 28.1575 48.7219 27.0904 49.5013C26.4539 49.969 25.6716 50.1945 24.8838 50.1375C24.096 50.0805 23.3543 49.7446 22.7918 49.1901C22.2293 48.6356 21.8828 47.8987 21.8145 47.1118C21.7462 46.3249 21.9605 45.5394 22.4191 44.8963L21.1529 43.9325Z" fill="#60A5FA" stroke="#60A5FA" stroke-width="0.324002" stroke-miterlimit="1.4142" stroke-linejoin="round"/>
</g>
<defs>
<clipPath id="clip0_715_3667">
<rect width="64" height="64" fill="white"/>
</clipPath>
</defs>
</svg>
