<svg width="64" height="64" viewBox="0 0 64 64" fill="none" xmlns="http://www.w3.org/2000/svg">
<g clip-path="url(#clip0_715_3442)">
<path fill-rule="evenodd" clip-rule="evenodd" d="M10.941 3.7636C13.5345 3.18724 16.6233 3 20.1953 3H25.371C28.5803 3 31.5773 4.60392 33.3575 7.27423L35.9571 11.1738C36.5506 12.0638 37.5495 12.5985 38.6194 12.5985H54.7943C59.9055 12.5985 64.0482 16.6336 63.9996 21.8298C63.9413 28.0176 63.9903 34.2078 63.9903 40.3959C63.9903 43.9679 63.8031 47.0567 63.2266 49.6502C62.6423 52.2802 61.6159 54.5925 59.8037 56.4047C57.9915 58.2169 55.6792 59.2433 53.0492 59.8275C50.4557 60.4041 47.3669 60.5913 43.795 60.5913H20.1953C16.6233 60.5913 13.5345 60.4041 10.941 59.8275C8.31119 59.2433 5.99871 58.2169 4.1865 56.4047C2.37433 54.5925 1.34805 52.2802 0.763597 49.6502C0.187236 47.0567 0 43.9679 0 40.3959V23.1953C0 19.6233 0.187236 16.5345 0.763597 13.941C1.34805 11.3112 2.37433 8.99871 4.1865 7.1865C5.99871 5.37433 8.31119 4.34805 10.941 3.7636Z" fill="#495057"/>
<path fill-rule="evenodd" clip-rule="evenodd" d="M46.1761 37.6598C46.3975 37.463 46.5205 37.1924 46.5451 36.8727C46.5697 36.2332 46.1023 35.7167 45.4629 35.6675C45.1677 35.6429 44.8726 35.7659 44.6512 35.9381L24.04 47.2275C23.5726 47.4243 23.1545 47.7686 22.884 48.2359C22.1707 49.4165 22.5642 50.9415 23.7694 51.6547C24.6057 52.1467 25.6141 52.0975 26.4011 51.6055C26.4503 51.5564 26.5241 51.5318 26.5733 51.4826L45.758 38.0041C45.8564 37.9303 46.1269 37.7335 46.1761 37.6598Z" fill="#CED4DA"/>
<path fill-rule="evenodd" clip-rule="evenodd" d="M46.2253 36.0118L30.5332 20.6149C30.1889 20.246 29.697 20 29.1313 20C28.0737 20 27.2374 20.8609 27.2374 21.8939C27.2374 22.4104 27.4342 22.8531 27.7539 23.1974C27.8523 23.2958 27.9507 23.3696 28.0491 23.4434L44.6266 37.6352C44.8234 37.8073 45.0693 37.9303 45.3645 37.9549C46.004 37.9795 46.5205 37.5122 46.5697 36.8727C46.5697 36.5529 46.4467 36.2332 46.2253 36.0118Z" fill="#CED4DA"/>
<path fill-rule="evenodd" clip-rule="evenodd" d="M31.0497 34.6345C31.0251 34.6345 21.359 27.0098 21.1623 26.8868L20.7195 26.6655C19.293 26.1243 17.7188 26.8622 17.1777 28.2888C16.7104 29.5432 17.2269 30.9205 18.3091 31.5846C18.4813 31.683 18.6289 31.7568 18.8011 31.806C18.8994 31.8552 29.9675 36.43 29.9675 36.43C30.4103 36.6267 30.9268 36.5038 31.2219 36.1348C31.5909 35.6675 31.5171 35.0034 31.0497 34.6345Z" fill="#CED4DA"/>
<path fill-rule="evenodd" clip-rule="evenodd" d="M29.1313 20C28.7131 20 28.3196 20.1476 27.9999 20.3689L18.2108 26.9606C18.1862 26.9852 18.1616 26.9852 18.1616 27.0098H18.137C17.7188 27.3049 17.3745 27.7477 17.1777 28.2642C16.6366 29.6907 17.3745 31.2895 18.8011 31.806C19.6865 32.1503 20.6457 31.9781 21.359 31.4616C21.5312 31.3386 21.6788 31.2157 21.8017 31.0681L30.3119 23.3942C30.7546 23.0499 31.0497 22.5088 31.0497 21.8939C31.0497 20.8609 30.1889 20 29.1313 20Z" fill="#CED4DA"/>
</g>
<defs>
<clipPath id="clip0_715_3442">
<rect width="64" height="64" fill="white"/>
</clipPath>
</defs>
</svg>
