<svg width="63" height="63" viewBox="0 0 63 63" fill="none" xmlns="http://www.w3.org/2000/svg">
<g clip-path="url(#clip0_715_2762)">
<mask id="path-1-inside-1_715_2762" fill="white">
<path fill-rule="evenodd" clip-rule="evenodd" d="M10.7701 3.70479C13.323 3.13744 16.3636 2.95312 19.8798 2.95312H24.9746C28.1337 2.95312 31.0839 4.53198 32.8363 7.16057L35.3953 10.9992C35.9795 11.8753 36.9628 12.4017 38.016 12.4017H53.9381C58.9695 12.4017 63.0475 16.3737 62.9996 21.4887C62.9423 27.5799 62.9905 33.6733 62.9905 39.7647C62.9905 43.2809 62.8062 46.3214 62.2387 48.8744C61.6636 51.4633 60.6532 53.7395 58.8693 55.5234C57.0854 57.3073 54.8093 58.3176 52.2203 58.8927C49.6673 59.4603 46.6268 59.6445 43.1107 59.6445H19.8798C16.3636 59.6445 13.323 59.4603 10.7701 58.8927C8.18133 58.3176 5.90498 57.3073 4.12109 55.5234C2.33723 53.7395 1.32699 51.4633 0.751665 48.8744C0.18431 46.3214 0 43.2809 0 39.7647V22.8329C0 19.3167 0.18431 16.2762 0.751665 13.7232C1.32699 11.1345 2.33723 8.8581 4.12109 7.07421C5.90498 5.29035 8.18133 4.28011 10.7701 3.70479Z"/>
</mask>
<path fill-rule="evenodd" clip-rule="evenodd" d="M10.7701 3.70479C13.323 3.13744 16.3636 2.95312 19.8798 2.95312H24.9746C28.1337 2.95312 31.0839 4.53198 32.8363 7.16057L35.3953 10.9992C35.9795 11.8753 36.9628 12.4017 38.016 12.4017H53.9381C58.9695 12.4017 63.0475 16.3737 62.9996 21.4887C62.9423 27.5799 62.9905 33.6733 62.9905 39.7647C62.9905 43.2809 62.8062 46.3214 62.2387 48.8744C61.6636 51.4633 60.6532 53.7395 58.8693 55.5234C57.0854 57.3073 54.8093 58.3176 52.2203 58.8927C49.6673 59.4603 46.6268 59.6445 43.1107 59.6445H19.8798C16.3636 59.6445 13.323 59.4603 10.7701 58.8927C8.18133 58.3176 5.90498 57.3073 4.12109 55.5234C2.33723 53.7395 1.32699 51.4633 0.751665 48.8744C0.18431 46.3214 0 43.2809 0 39.7647V22.8329C0 19.3167 0.18431 16.2762 0.751665 13.7232C1.32699 11.1345 2.33723 8.8581 4.12109 7.07421C5.90498 5.29035 8.18133 4.28011 10.7701 3.70479Z" stroke="#155E75" stroke-width="12" mask="url(#path-1-inside-1_715_2762)"/>
<path d="M25.1703 44.2463C24.7849 44.2463 24.4154 44.0932 24.1429 43.8208C23.8704 43.5483 23.7174 43.1787 23.7174 42.7934V22.4529C23.7174 22.0676 23.8704 21.698 24.1429 21.4255C24.4154 21.1531 24.7849 21 25.1703 21C25.5556 21 25.9251 21.1531 26.1976 21.4255C26.4701 21.698 26.6232 22.0676 26.6232 22.4529V42.7934C26.6232 43.1787 26.4701 43.5483 26.1976 43.8208C25.9251 44.0932 25.5556 44.2463 25.1703 44.2463Z" fill="#22D3EE"/>
<path d="M30.9818 44.2463C30.5965 44.2463 30.227 44.0932 29.9545 43.8208C29.682 43.5483 29.5289 43.1787 29.5289 42.7934V22.4529C29.5289 22.0676 29.682 21.698 29.9545 21.4255C30.227 21.1531 30.5965 21 30.9818 21C31.3672 21 31.7367 21.1531 32.0092 21.4255C32.2817 21.698 32.4347 22.0676 32.4347 22.4529V42.7934C32.4347 43.1787 32.2817 43.5483 32.0092 43.8208C31.7367 44.0932 31.3672 44.2463 30.9818 44.2463Z" fill="#22D3EE"/>
<path d="M36.7934 44.2463C36.4081 44.2463 36.0385 44.0932 35.7661 43.8208C35.4936 43.5483 35.3405 43.1787 35.3405 42.7934V22.4529C35.3405 22.0676 35.4936 21.698 35.7661 21.4255C36.0385 21.1531 36.4081 21 36.7934 21C37.1788 21 37.5483 21.1531 37.8208 21.4255C38.0932 21.698 38.2463 22.0676 38.2463 22.4529V42.7934C38.2463 43.1787 38.0932 43.5483 37.8208 43.8208C37.5483 44.0932 37.1788 44.2463 36.7934 44.2463Z" fill="#22D3EE"/>
<path d="M42.3871 36.9818C42.0346 37.0502 41.7176 37.2406 41.4917 37.5196C41.2658 37.7987 41.1455 38.1484 41.1521 38.5074V47.1521H20.8116V38.5074C20.8181 38.1484 20.6979 37.7987 20.472 37.5196C20.2461 37.2406 19.9291 37.0502 19.5766 36.9818C19.3684 36.9502 19.1558 36.9643 18.9535 37.023C18.7512 37.0817 18.5642 37.1837 18.4052 37.3219C18.2463 37.4601 18.1193 37.6312 18.0331 37.8234C17.9468 38.0155 17.9034 38.2241 17.9058 38.4347V48.605C17.9058 48.9903 18.0589 49.3599 18.3313 49.6324C18.6038 49.9048 18.9734 50.0579 19.3587 50.0579H42.605C42.9903 50.0579 43.3599 49.9048 43.6323 49.6324C43.9048 49.3599 44.0579 48.9903 44.0579 48.605V38.4347C44.0603 38.2241 44.0168 38.0155 43.9306 37.8234C43.8444 37.6312 43.7174 37.4601 43.5584 37.3219C43.3995 37.1837 43.2124 37.0817 43.0102 37.023C42.8079 36.9643 42.5953 36.9502 42.3871 36.9818Z" fill="#22D3EE"/>
<path d="M20.6663 29.4994L15.3632 26.1578C15.1453 26.0125 15 26.0851 15 26.3757V33.059C15 33.3496 15.1453 33.4222 15.3632 33.277L20.6663 29.9353C20.9084 29.79 20.9084 29.6447 20.6663 29.4994Z" fill="#22D3EE"/>
<path d="M46.8184 29.4994L41.5153 26.1578C41.2974 26.0125 41.1521 26.0851 41.1521 26.3757V33.059C41.1521 33.3496 41.2974 33.4222 41.5153 33.277L46.8184 29.9353C47.0605 29.79 47.0605 29.6447 46.8184 29.4994Z" fill="#22D3EE"/>
</g>
<defs>
<clipPath id="clip0_715_2762">
<rect width="63" height="63" fill="white"/>
</clipPath>
</defs>
</svg>
