<svg width="64" height="64" viewBox="0 0 64 64" fill="none" xmlns="http://www.w3.org/2000/svg">
<g clip-path="url(#clip0_717_3943)">
<path d="M6.3078 9.30784C6.30782 9.30783 6.30783 9.30782 6.30784 9.3078C7.59221 8.02348 9.31785 7.19752 11.5919 6.69215C13.863 6.18742 16.6923 6 20.1953 6H25.371C27.5772 6 29.6375 7.10261 30.8613 8.93829C30.8613 8.9383 30.8613 8.93832 30.8614 8.93833L33.4609 12.8379L33.4612 12.8382C34.6109 14.5624 36.5463 15.5985 38.6194 15.5985H54.7943C58.2819 15.5985 61.0323 18.3172 60.9997 21.8017C60.9596 26.0676 60.9702 30.3466 60.9807 34.6045C60.9855 36.5404 60.9903 38.472 60.9903 40.3959C60.9903 43.8989 60.8029 46.7281 60.2981 48.9992L60.298 48.9997C59.7929 51.2734 58.9669 52.999 57.6824 54.2834C56.398 55.5678 54.6725 56.3938 52.3987 56.8989L52.3982 56.899C50.1272 57.4039 47.298 57.5913 43.795 57.5913H20.1953C16.6922 57.5913 13.8631 57.4039 11.5921 56.899L11.5916 56.8989C9.3179 56.3938 7.59223 55.5678 6.30782 54.2834C5.02346 52.999 4.19752 51.2735 3.69216 48.9994L0.763596 49.6502M6.3078 9.30784L4.1865 7.1865C2.37433 8.99871 1.34805 11.3112 0.763596 13.941C0.187236 16.5345 0 19.6233 0 23.1953V40.3959C0 43.9679 0.187236 47.0567 0.763596 49.6502M6.3078 9.30784C5.02348 10.5922 4.19752 12.3179 3.69215 14.5919M6.3078 9.30784L3.69215 14.5919M0.763596 49.6502L3.69215 48.9994C3.18742 46.7282 3 43.8989 3 40.3959V23.1953C3 19.6923 3.18742 16.863 3.69215 14.5919M0.763596 49.6502L3.69215 14.5919M3.69215 14.5919L0.76767 13.9419L3.69215 14.5919Z" stroke="#075985" stroke-width="6"/>
<path fill-rule="evenodd" clip-rule="evenodd" d="M31.888 20L17 25.3071L19.2579 45.011L31.888 52L44.5181 45.011L46.7736 25.3071L31.888 20ZM28.7952 25.0022C29.3615 24.9925 29.9738 25.1716 30.6538 25.5419C30.9539 25.7016 31.859 25.9291 32.6624 26.0501C35.5253 26.4615 38.9206 28.6468 39.9951 30.7691C40.7356 32.226 40.5832 33.0125 39.4506 33.5981C38.4729 34.1039 36.4739 33.8595 33.5699 32.8794L31.1208 32.0517L30.2496 32.3833C28.9864 32.8673 27.7231 34.0628 27.2052 35.2631C26.8326 36.1319 26.7769 36.5385 26.8447 37.9638C26.9124 39.3917 27.0165 39.8055 27.5223 40.7033C28.1007 41.7246 29.4244 43.0265 29.6519 42.7991C29.7148 42.7361 29.5793 42.3223 29.3518 41.8794C29.1267 41.4366 28.9936 40.9889 29.0566 40.8872C29.1195 40.7856 29.7172 41.1631 30.3827 41.727C31.8614 42.9806 33.5917 43.7792 35.1768 43.9462C36.4788 44.0817 36.7764 43.8397 35.8012 43.4355C35.4651 43.2908 35.1583 43.0858 34.8961 42.8305C34.5161 42.4119 34.4944 42.424 36.1158 42.061C37.1249 41.8335 39.1166 40.7759 39.2376 40.4032C39.2763 40.2822 38.9521 40.2338 38.4196 40.275C37.9356 40.3137 37.5412 40.2653 37.5412 40.1637C37.5412 40.0669 37.9381 39.5756 38.4196 39.0722C40.2298 37.1822 40.8494 35.7689 41.0405 33.0851L41.1736 31.2289L41.5996 32.1122C42.069 33.0827 42.1562 34.4839 41.8198 35.689C41.5415 36.6958 41.7278 36.8071 42.2384 35.9407C42.8701 34.8686 43.0734 35.038 42.962 36.5481C42.841 38.1889 42.2772 39.4207 41.0067 40.8122C39.9685 41.9448 40.0943 42.1481 41.3479 41.3761C42.5579 40.6307 42.72 40.7469 42.0981 41.9182C40.9195 44.1301 38.4293 46.008 35.8423 46.6324C34.2766 47.0147 33.1658 47.0849 31.7283 46.8986C27.9772 46.4049 24.4246 43.876 22.7306 40.4904C22.3219 39.6632 21.8595 38.8637 21.3464 38.097C20.6809 37.1943 20.6252 36.7901 21.0729 36.1053C21.298 35.764 21.3488 35.4131 21.2568 34.8904C20.8309 32.4728 20.8454 32.3978 21.8134 31.4128C22.6604 30.5586 22.7113 30.4448 22.7113 29.4454C22.7113 28.579 22.7984 28.2958 23.1904 27.9038C23.4542 27.6424 23.8729 27.4222 24.1197 27.4198C24.836 27.4125 26.0727 26.7495 26.8059 25.9799C27.4158 25.3386 28.0644 25.0119 28.7952 25.0022Z" fill="#38BDF8"/>
</g>
<defs>
<clipPath id="clip0_717_3943">
<rect width="64" height="64" fill="white"/>
</clipPath>
</defs>
</svg>
