<svg width="63" height="63" viewBox="0 0 63 63" fill="none" xmlns="http://www.w3.org/2000/svg">
<g clip-path="url(#clip0_715_3045)">
<path fill-rule="evenodd" clip-rule="evenodd" d="M10.7701 3.70479C13.323 3.13744 16.3636 2.95312 19.8798 2.95312H24.9746C28.1337 2.95312 31.0839 4.53198 32.8363 7.16057L35.3953 10.9992C35.9795 11.8753 36.9628 12.4017 38.016 12.4017H53.9381C58.9695 12.4017 63.0475 16.3737 62.9996 21.4887C62.9423 27.5799 62.9905 33.6733 62.9905 39.7647C62.9905 43.2809 62.8062 46.3214 62.2387 48.8744C61.6636 51.4633 60.6532 53.7395 58.8693 55.5234C57.0854 57.3073 54.8093 58.3176 52.2203 58.8927C49.6673 59.4603 46.6268 59.6445 43.1107 59.6445H19.8798C16.3636 59.6445 13.323 59.4603 10.7701 58.8927C8.18133 58.3176 5.90498 57.3073 4.12109 55.5234C2.33723 53.7395 1.32699 51.4633 0.751665 48.8744C0.18431 46.3214 0 43.2809 0 39.7647V22.8329C0 19.3167 0.18431 16.2762 0.751665 13.7232C1.32699 11.1345 2.33723 8.8581 4.12109 7.07421C5.90498 5.29035 8.18133 4.28011 10.7701 3.70479Z" fill="#075985"/>
<g clip-path="url(#clip1_715_3045)">
<path d="M33.6063 36.8003C33.4404 36.6343 33.2193 36.543 32.9838 36.543C32.7483 36.543 32.5272 36.6344 32.3613 36.8003L29.5326 39.629L27.384 37.4805L30.2128 34.6518C30.5559 34.3085 30.5559 33.7499 30.2127 33.4067L29.2332 32.4272C29.0672 32.2612 28.8462 32.1699 28.6107 32.1699C28.3751 32.1699 28.154 32.2613 27.9882 32.4273L25.1595 35.2559L23.5522 33.6486C23.3862 33.4826 23.1652 33.3913 22.9297 33.3913C22.6941 33.3913 22.4731 33.4827 22.3072 33.6486L20.8945 35.061C20.5512 35.4043 20.5512 35.9628 20.8945 36.3062L21.2293 36.6409C21.0888 36.7366 20.9561 36.8456 20.8334 36.9683L16.7236 41.0781C16.2098 41.5918 15.9269 42.2772 15.9269 43.008C15.9269 43.7388 16.2099 44.4242 16.7236 44.9379L18.3034 46.5177L15.4513 49.3698C14.8496 49.9716 14.8496 50.9471 15.4513 51.5488C15.7522 51.8497 16.1465 52 16.5408 52C16.935 52 17.3294 51.8497 17.6302 51.5488L20.4824 48.6966L22.0752 50.2894C22.5888 50.8032 23.2743 51.0861 24.0051 51.0861C24.736 51.0861 25.4214 50.8032 25.935 50.2894L30.0448 46.1797C30.1675 46.057 30.2766 45.9242 30.3722 45.7837L30.707 46.1185C30.8729 46.2844 31.094 46.3758 31.3294 46.3758C31.565 46.3758 31.786 46.2844 31.9521 46.1185L33.3643 44.7061C33.5304 44.5401 33.6218 44.319 33.6218 44.0834C33.6218 43.8478 33.5304 43.6267 33.3644 43.4609L31.7572 41.8536L34.5859 39.0249C34.9291 38.6816 34.9291 38.123 34.5858 37.7798L33.6063 36.8003Z" fill="#38BDF8"/>
<path d="M46.5487 20.4513C45.947 19.8496 44.9715 19.8496 44.3698 20.4513L41.492 23.3291L39.9122 21.7492C39.3986 21.2355 38.7131 20.9526 37.9823 20.9526C37.2514 20.9526 36.566 21.2355 36.0524 21.7492L31.9426 25.859C31.82 25.9816 31.7109 26.1143 31.6152 26.2549L31.2804 25.9202C31.1145 25.7542 30.8934 25.6628 30.6579 25.6628C30.4223 25.6628 30.2012 25.7542 30.0353 25.9202L28.6229 27.3326C28.4569 27.4985 28.3655 27.7196 28.3655 27.9552C28.3655 28.1907 28.4569 28.4119 28.6229 28.5778L38.4351 38.39C38.6011 38.556 38.8221 38.6474 39.0576 38.6474C39.2933 38.6474 39.5142 38.556 39.6802 38.39L41.0927 36.9775C41.436 36.6343 41.436 36.0757 41.0927 35.7324L40.758 35.3978C40.8985 35.3022 41.0312 35.1931 41.1539 35.0703L45.2637 30.9606C45.7774 30.4469 46.0604 29.7614 46.0604 29.0307C46.0604 28.2999 45.7775 27.6144 45.2637 27.1007L43.6709 25.508L46.5487 22.6303C47.1505 22.0285 47.1505 21.053 46.5487 20.4513Z" fill="#38BDF8"/>
</g>
</g>
<defs>
<clipPath id="clip0_715_3045">
<rect width="63" height="63" fill="white"/>
</clipPath>
<clipPath id="clip1_715_3045">
<rect width="32" height="32" fill="white" transform="translate(15 20)"/>
</clipPath>
</defs>
</svg>
