<svg width="64" height="64" viewBox="0 0 64 64" fill="none" xmlns="http://www.w3.org/2000/svg">
<g clip-path="url(#clip0_711_2549)">
<path fill-rule="evenodd" clip-rule="evenodd" d="M10.941 3.7636C13.5345 3.18724 16.6233 3 20.1953 3H25.371C28.5803 3 31.5773 4.60392 33.3575 7.27423L35.9571 11.1738C36.5506 12.0638 37.5495 12.5985 38.6194 12.5985H54.7943C59.9055 12.5985 64.0482 16.6336 63.9996 21.8298C63.9413 28.0176 63.9903 34.2078 63.9903 40.3959C63.9903 43.9679 63.8031 47.0567 63.2266 49.6502C62.6423 52.2802 61.6159 54.5925 59.8037 56.4047C57.9915 58.2169 55.6792 59.2433 53.0492 59.8275C50.4557 60.4041 47.3669 60.5913 43.795 60.5913H20.1953C16.6233 60.5913 13.5345 60.4041 10.941 59.8275C8.31119 59.2433 5.99871 58.2169 4.1865 56.4047C2.37433 54.5925 1.34805 52.2802 0.763597 49.6502C0.187236 47.0567 0 43.9679 0 40.3959V23.1953C0 19.6233 0.187236 16.5345 0.763597 13.941C1.34805 11.3112 2.37433 8.99871 4.1865 7.1865C5.99871 5.37433 8.31119 4.34805 10.941 3.7636Z" fill="#9A3412"/>
<g clip-path="url(#clip1_711_2549)">
<path d="M16 36V34.016C16 31.7973 16.7787 29.9093 18.336 28.352C19.8933 26.7947 21.7813 26.016 24 26.016C24.6827 26.016 25.408 26.1333 26.176 26.368C26.56 24.5333 27.488 23.0187 28.96 21.824C30.432 20.6293 32.1173 20.0213 34.016 20C36.2133 20 38.0907 20.7893 39.648 22.368C41.2053 23.9467 41.9947 25.824 42.016 28C42.016 28.5973 41.9093 29.28 41.696 30.048C41.8453 30.0267 41.952 30.016 42.016 30.016C43.6587 30.016 45.0667 30.6027 46.24 31.776C47.4133 32.9493 48 34.3573 48 36V38.016C48 39.68 47.4133 41.088 46.24 42.24C45.0667 43.392 43.6587 43.9787 42.016 44H41.632C41.824 43.4667 41.9413 42.9867 41.984 42.56C42.048 41.6853 41.9413 40.832 41.664 40C41.3867 39.168 40.9173 38.432 40.256 37.792L36.256 33.792C35.0827 32.5973 33.664 32 32 32C30.336 32 28.928 32.5867 27.776 33.76L23.776 37.76C23.136 38.4 22.6667 39.1467 22.368 40C22.0693 40.8533 21.9627 41.7173 22.048 42.592C22.0693 42.976 22.1547 43.392 22.304 43.84C20.4907 43.4347 18.9867 42.5067 17.792 41.056C16.5973 39.6053 16 37.92 16 36ZM26.016 42.208C25.952 41.568 26.144 41.0347 26.592 40.608L30.592 36.608C30.9973 36.2027 31.4667 36 32 36C32.5547 36 33.024 36.2027 33.408 36.608L37.408 40.608C37.856 41.0347 38.0587 41.568 38.016 42.208C37.9947 42.4 37.9413 42.592 37.856 42.784C37.7067 43.1467 37.4613 43.4453 37.12 43.68C36.7787 43.9147 36.4053 44.0213 36 44H34.016V50.016C34.016 50.5707 33.8133 51.04 33.408 51.424C33.0027 51.808 32.5333 52 32 52C31.4667 52 30.9973 51.808 30.592 51.424C30.1867 51.04 29.9947 50.5707 30.016 50.016V44H28C27.5947 44 27.232 43.8933 26.912 43.68C26.592 43.4667 26.336 43.168 26.144 42.784C26.08 42.592 26.0373 42.4 26.016 42.208Z" fill="#FB923C"/>
</g>
</g>
<defs>
<clipPath id="clip0_711_2549">
<rect width="64" height="64" fill="white"/>
</clipPath>
<clipPath id="clip1_711_2549">
<rect width="32" height="32" fill="white" transform="translate(16 20)"/>
</clipPath>
</defs>
</svg>
