<svg width="64" height="64" viewBox="0 0 64 64" fill="none" xmlns="http://www.w3.org/2000/svg">
<g clip-path="url(#clip0_717_4184)">
<mask id="path-1-inside-1_717_4184" fill="white">
<path fill-rule="evenodd" clip-rule="evenodd" d="M10.941 3.7636C13.5345 3.18724 16.6233 3 20.1953 3H25.371C28.5803 3 31.5773 4.60392 33.3575 7.27423L35.9571 11.1738C36.5506 12.0638 37.5495 12.5985 38.6194 12.5985H54.7943C59.9055 12.5985 64.0482 16.6336 63.9996 21.8298C63.9413 28.0176 63.9903 34.2078 63.9903 40.3959C63.9903 43.9679 63.8031 47.0567 63.2266 49.6502C62.6423 52.2802 61.6159 54.5925 59.8037 56.4047C57.9915 58.2169 55.6792 59.2433 53.0492 59.8275C50.4557 60.4041 47.3669 60.5913 43.795 60.5913H20.1953C16.6233 60.5913 13.5345 60.4041 10.941 59.8275C8.31119 59.2433 5.99871 58.2169 4.1865 56.4047C2.37433 54.5925 1.34805 52.2802 0.763596 49.6502C0.187236 47.0567 0 43.9679 0 40.3959V23.1953C0 19.6233 0.187236 16.5345 0.763596 13.941C1.34805 11.3112 2.37433 8.99871 4.1865 7.1865C5.99871 5.37433 8.31119 4.34805 10.941 3.7636Z"/>
</mask>
<path fill-rule="evenodd" clip-rule="evenodd" d="M10.941 3.7636C13.5345 3.18724 16.6233 3 20.1953 3H25.371C28.5803 3 31.5773 4.60392 33.3575 7.27423L35.9571 11.1738C36.5506 12.0638 37.5495 12.5985 38.6194 12.5985H54.7943C59.9055 12.5985 64.0482 16.6336 63.9996 21.8298C63.9413 28.0176 63.9903 34.2078 63.9903 40.3959C63.9903 43.9679 63.8031 47.0567 63.2266 49.6502C62.6423 52.2802 61.6159 54.5925 59.8037 56.4047C57.9915 58.2169 55.6792 59.2433 53.0492 59.8275C50.4557 60.4041 47.3669 60.5913 43.795 60.5913H20.1953C16.6233 60.5913 13.5345 60.4041 10.941 59.8275C8.31119 59.2433 5.99871 58.2169 4.1865 56.4047C2.37433 54.5925 1.34805 52.2802 0.763596 49.6502C0.187236 47.0567 0 43.9679 0 40.3959V23.1953C0 19.6233 0.187236 16.5345 0.763596 13.941C1.34805 11.3112 2.37433 8.99871 4.1865 7.1865C5.99871 5.37433 8.31119 4.34805 10.941 3.7636Z" stroke="#166534" stroke-width="12" mask="url(#path-1-inside-1_717_4184)"/>
<path fill-rule="evenodd" clip-rule="evenodd" d="M24.4001 20.6205C26.478 20.1587 28.9989 20 32 20C35.0011 20 37.5219 20.1587 39.5998 20.6205C41.696 21.0864 43.4381 21.8816 44.7782 23.2217C46.1184 24.5619 46.9136 26.304 47.3795 28.4001C47.8413 30.478 48 32.9989 48 36C48 39.0011 47.8413 41.5219 47.3795 43.5998C46.9136 45.696 46.1184 47.4381 44.7782 48.7782C43.4381 50.1184 41.696 50.9136 39.5998 51.3795C37.5219 51.8413 35.0011 52 32 52C28.9989 52 26.478 51.8413 24.4001 51.3795C22.304 50.9136 20.5619 50.1184 19.2217 48.7782C17.8816 47.4381 17.0864 45.696 16.6205 43.5998C16.1587 41.5219 16 39.0011 16 36C16 32.9989 16.1587 30.478 16.6205 28.4001C17.0864 26.304 17.8816 24.5619 19.2217 23.2217C20.5619 21.8816 22.304 21.0864 24.4001 20.6205ZM37.9314 31.6686C38.5562 32.2935 38.5562 33.3066 37.9314 33.9314L32.0389 39.8238C31.1338 40.729 29.6662 40.729 28.7611 39.8238L26.0686 37.1314C25.4438 36.5066 25.4438 35.4934 26.0686 34.8686C26.6935 34.2438 27.7065 34.2438 28.3314 34.8686L30.4 36.9373L35.6686 31.6686C36.2934 31.0438 37.3066 31.0438 37.9314 31.6686Z" fill="#4ADE80"/>
</g>
<defs>
<clipPath id="clip0_717_4184">
<rect width="64" height="64" fill="white"/>
</clipPath>
</defs>
</svg>
