<svg width="64" height="64" viewBox="0 0 64 64" fill="none" xmlns="http://www.w3.org/2000/svg">
<g clip-path="url(#clip0_715_2595)">
<path fill-rule="evenodd" clip-rule="evenodd" d="M10.941 3.7636C13.5345 3.18724 16.6233 3 20.1953 3H25.371C28.5803 3 31.5773 4.60392 33.3575 7.27423L35.9571 11.1738C36.5506 12.0638 37.5495 12.5985 38.6194 12.5985H54.7943C59.9055 12.5985 64.0482 16.6336 63.9996 21.8298C63.9413 28.0176 63.9903 34.2078 63.9903 40.3959C63.9903 43.9679 63.8031 47.0567 63.2266 49.6502C62.6423 52.2802 61.6159 54.5925 59.8037 56.4047C57.9915 58.2169 55.6792 59.2433 53.0492 59.8275C50.4557 60.4041 47.3669 60.5913 43.795 60.5913H20.1953C16.6233 60.5913 13.5345 60.4041 10.941 59.8275C8.31119 59.2433 5.99871 58.2169 4.1865 56.4047C2.37433 54.5925 1.34805 52.2802 0.763597 49.6502C0.187236 47.0567 0 43.9679 0 40.3959V23.1953C0 19.6233 0.187236 16.5345 0.763597 13.941C1.34805 11.3112 2.37433 8.99871 4.1865 7.1865C5.99871 5.37433 8.31119 4.34805 10.941 3.7636Z" fill="#6B21A8"/>
<path d="M38.704 20H25.296C19.472 20 16 23.472 16 29.296V42.704C16 48.528 19.472 52 25.296 52H38.704C44.528 52 48 48.528 48 42.704V29.296C48 23.472 44.528 20 38.704 20ZM28.752 40.64L25.152 44.24C24.912 44.48 24.608 44.592 24.304 44.592C24 44.592 23.68 44.48 23.456 44.24L22.256 43.04C21.776 42.576 21.776 41.808 22.256 41.344C22.72 40.88 23.472 40.88 23.952 41.344L24.304 41.696L27.056 38.944C27.52 38.48 28.272 38.48 28.752 38.944C29.216 39.408 29.216 40.176 28.752 40.64ZM28.752 29.44L25.152 33.04C24.912 33.28 24.608 33.392 24.304 33.392C24 33.392 23.68 33.28 23.456 33.04L22.256 31.84C21.776 31.376 21.776 30.608 22.256 30.144C22.72 29.68 23.472 29.68 23.952 30.144L24.304 30.496L27.056 27.744C27.52 27.28 28.272 27.28 28.752 27.744C29.216 28.208 29.216 28.976 28.752 29.44ZM40.896 43.392H32.496C31.84 43.392 31.296 42.848 31.296 42.192C31.296 41.536 31.84 40.992 32.496 40.992H40.896C41.568 40.992 42.096 41.536 42.096 42.192C42.096 42.848 41.568 43.392 40.896 43.392ZM40.896 32.192H32.496C31.84 32.192 31.296 31.648 31.296 30.992C31.296 30.336 31.84 29.792 32.496 29.792H40.896C41.568 29.792 42.096 30.336 42.096 30.992C42.096 31.648 41.568 32.192 40.896 32.192Z" fill="#C084FC"/>
</g>
<defs>
<clipPath id="clip0_715_2595">
<rect width="64" height="64" fill="white"/>
</clipPath>
</defs>
</svg>
