<svg width="64" height="64" viewBox="0 0 64 64" fill="none" xmlns="http://www.w3.org/2000/svg">
<g clip-path="url(#clip0_715_3747)">
<path d="M6.3078 9.30784C6.30782 9.30783 6.30783 9.30782 6.30784 9.3078C7.59221 8.02348 9.31785 7.19752 11.5919 6.69215C13.863 6.18742 16.6923 6 20.1953 6H25.371C27.5772 6 29.6375 7.10261 30.8613 8.93829C30.8613 8.9383 30.8613 8.93832 30.8614 8.93833L33.4609 12.8379L33.4612 12.8382C34.6109 14.5624 36.5463 15.5985 38.6194 15.5985H54.7943C58.2819 15.5985 61.0323 18.3172 60.9997 21.8017C60.9596 26.0676 60.9702 30.3466 60.9807 34.6045C60.9855 36.5404 60.9903 38.472 60.9903 40.3959C60.9903 43.8989 60.8029 46.7281 60.2981 48.9992L60.298 48.9997C59.7929 51.2734 58.9669 52.999 57.6824 54.2834C56.398 55.5678 54.6725 56.3938 52.3987 56.8989L52.3982 56.899C50.1272 57.4039 47.298 57.5913 43.795 57.5913H20.1953C16.6922 57.5913 13.8631 57.4039 11.5921 56.899L11.5916 56.8989C9.3179 56.3938 7.59223 55.5678 6.30782 54.2834C5.02346 52.999 4.19752 51.2735 3.69216 48.9994L0.763596 49.6502M6.3078 9.30784L4.1865 7.1865C2.37433 8.99871 1.34805 11.3112 0.763596 13.941C0.187236 16.5345 0 19.6233 0 23.1953V40.3959C0 43.9679 0.187236 47.0567 0.763596 49.6502M6.3078 9.30784C5.02348 10.5922 4.19752 12.3179 3.69215 14.5919M6.3078 9.30784L3.69215 14.5919M0.763596 49.6502L3.69215 48.9994C3.18742 46.7282 3 43.8989 3 40.3959V23.1953C3 19.6923 3.18742 16.863 3.69215 14.5919M0.763596 49.6502L3.69215 14.5919M3.69215 14.5919L0.76767 13.9419L3.69215 14.5919Z" stroke="#1E40AF" stroke-width="6"/>
<path d="M34.0025 22.4312C34.1734 21.9612 33.9948 21.4356 33.573 21.167C33.1512 20.8984 32.5994 20.9588 32.2458 21.3124L23.7124 29.8458C23.6165 29.9417 23.5397 30.0551 23.4863 30.1798L17.0862 45.1133C16.945 45.4427 16.9788 45.8211 17.1762 46.1206C17.3736 46.4199 17.7081 46.6 18.0667 46.6H24.4667C24.9152 46.6 25.3158 46.3195 25.4691 45.8979L34.0025 22.4312Z" fill="#60A5FA"/>
<path d="M38.2377 25.8919C38.0609 25.503 37.6691 25.2571 37.242 25.2669C36.8149 25.2767 36.4349 25.5405 36.2762 25.9371L32.0096 36.6038C31.8713 36.9494 31.9233 37.3421 32.1466 37.6399L37.6587 44.9893L26.2627 48.7881C25.7663 48.9534 25.4633 49.4543 25.5471 49.9708C25.6309 50.4873 26.0768 50.8666 26.6 50.8666H47.9333C48.296 50.8666 48.6339 50.6823 48.8301 50.3774C49.0264 50.0726 49.0544 49.6888 48.9044 49.3585L38.2377 25.8919Z" fill="#60A5FA"/>
</g>
<defs>
<clipPath id="clip0_715_3747">
<rect width="64" height="64" fill="white"/>
</clipPath>
</defs>
</svg>
