<svg width="64" height="64" viewBox="0 0 64 64" fill="none" xmlns="http://www.w3.org/2000/svg">
<g clip-path="url(#clip0_718_2691)">
<mask id="path-1-inside-1_718_2691" fill="white">
<path fill-rule="evenodd" clip-rule="evenodd" d="M10.941 3.7636C13.5345 3.18724 16.6233 3 20.1953 3H25.371C28.5803 3 31.5773 4.60392 33.3575 7.27423L35.9571 11.1738C36.5506 12.0638 37.5495 12.5985 38.6194 12.5985H54.7943C59.9055 12.5985 64.0482 16.6336 63.9996 21.8298C63.9413 28.0176 63.9903 34.2078 63.9903 40.3959C63.9903 43.9679 63.8031 47.0567 63.2266 49.6502C62.6423 52.2802 61.6159 54.5925 59.8037 56.4047C57.9915 58.2169 55.6792 59.2433 53.0492 59.8275C50.4557 60.4041 47.3669 60.5913 43.795 60.5913H20.1953C16.6233 60.5913 13.5345 60.4041 10.941 59.8275C8.31119 59.2433 5.99871 58.2169 4.1865 56.4047C2.37433 54.5925 1.34805 52.2802 0.763596 49.6502C0.187236 47.0567 0 43.9679 0 40.3959V23.1953C0 19.6233 0.187236 16.5345 0.763596 13.941C1.34805 11.3112 2.37433 8.99871 4.1865 7.1865C5.99871 5.37433 8.31119 4.34805 10.941 3.7636Z"/>
</mask>
<path fill-rule="evenodd" clip-rule="evenodd" d="M10.941 3.7636C13.5345 3.18724 16.6233 3 20.1953 3H25.371C28.5803 3 31.5773 4.60392 33.3575 7.27423L35.9571 11.1738C36.5506 12.0638 37.5495 12.5985 38.6194 12.5985H54.7943C59.9055 12.5985 64.0482 16.6336 63.9996 21.8298C63.9413 28.0176 63.9903 34.2078 63.9903 40.3959C63.9903 43.9679 63.8031 47.0567 63.2266 49.6502C62.6423 52.2802 61.6159 54.5925 59.8037 56.4047C57.9915 58.2169 55.6792 59.2433 53.0492 59.8275C50.4557 60.4041 47.3669 60.5913 43.795 60.5913H20.1953C16.6233 60.5913 13.5345 60.4041 10.941 59.8275C8.31119 59.2433 5.99871 58.2169 4.1865 56.4047C2.37433 54.5925 1.34805 52.2802 0.763596 49.6502C0.187236 47.0567 0 43.9679 0 40.3959V23.1953C0 19.6233 0.187236 16.5345 0.763596 13.941C1.34805 11.3112 2.37433 8.99871 4.1865 7.1865C5.99871 5.37433 8.31119 4.34805 10.941 3.7636Z" stroke="#854D0E" stroke-width="12" mask="url(#path-1-inside-1_718_2691)"/>
<path fill-rule="evenodd" clip-rule="evenodd" d="M37.0702 47.9728C39.9459 44.535 40.2832 40.9849 38.0584 34.3943C36.6493 30.2245 34.3122 27.0142 36.0297 24.4234C37.8597 21.6627 41.7498 24.3397 38.5081 28.0311L39.1538 28.4781C43.0412 28.9304 44.9575 23.6051 42.0556 22.0862C34.3958 18.0864 27.6928 25.775 30.6469 34.674C31.9175 38.4516 33.6926 42.4515 32.2547 45.6357C31.0155 48.365 28.6209 49.9728 27.0157 50.0277C23.6642 50.195 25.8916 42.509 29.7476 40.5927C30.0849 40.4254 30.5659 40.2006 30.1136 39.6359C25.3556 39.1026 22.5636 41.296 20.961 44.3677C16.2815 53.2981 29.8313 56.5921 37.0702 47.9728Z" fill="#FACC15"/>
</g>
<defs>
<clipPath id="clip0_718_2691">
<rect width="64" height="64" fill="white"/>
</clipPath>
</defs>
</svg>
