<svg width="64" height="64" viewBox="0 0 64 64" fill="none" xmlns="http://www.w3.org/2000/svg">
<g clip-path="url(#clip0_714_2665)">
<mask id="path-1-inside-1_714_2665" fill="white">
<path fill-rule="evenodd" clip-rule="evenodd" d="M10.941 3.7636C13.5345 3.18724 16.6233 3 20.1953 3H25.371C28.5803 3 31.5773 4.60392 33.3575 7.27423L35.9571 11.1738C36.5506 12.0638 37.5495 12.5985 38.6194 12.5985H54.7943C59.9055 12.5985 64.0482 16.6336 63.9996 21.8298C63.9413 28.0176 63.9903 34.2078 63.9903 40.3959C63.9903 43.9679 63.8031 47.0567 63.2266 49.6502C62.6423 52.2802 61.6159 54.5925 59.8037 56.4047C57.9915 58.2169 55.6792 59.2433 53.0492 59.8275C50.4557 60.4041 47.3669 60.5913 43.795 60.5913H20.1953C16.6233 60.5913 13.5345 60.4041 10.941 59.8275C8.31119 59.2433 5.99871 58.2169 4.1865 56.4047C2.37433 54.5925 1.34805 52.2802 0.763597 49.6502C0.187236 47.0567 0 43.9679 0 40.3959V23.1953C0 19.6233 0.187236 16.5345 0.763597 13.941C1.34805 11.3112 2.37433 8.99871 4.1865 7.1865C5.99871 5.37433 8.31119 4.34805 10.941 3.7636Z"/>
</mask>
<path fill-rule="evenodd" clip-rule="evenodd" d="M10.941 3.7636C13.5345 3.18724 16.6233 3 20.1953 3H25.371C28.5803 3 31.5773 4.60392 33.3575 7.27423L35.9571 11.1738C36.5506 12.0638 37.5495 12.5985 38.6194 12.5985H54.7943C59.9055 12.5985 64.0482 16.6336 63.9996 21.8298C63.9413 28.0176 63.9903 34.2078 63.9903 40.3959C63.9903 43.9679 63.8031 47.0567 63.2266 49.6502C62.6423 52.2802 61.6159 54.5925 59.8037 56.4047C57.9915 58.2169 55.6792 59.2433 53.0492 59.8275C50.4557 60.4041 47.3669 60.5913 43.795 60.5913H20.1953C16.6233 60.5913 13.5345 60.4041 10.941 59.8275C8.31119 59.2433 5.99871 58.2169 4.1865 56.4047C2.37433 54.5925 1.34805 52.2802 0.763597 49.6502C0.187236 47.0567 0 43.9679 0 40.3959V23.1953C0 19.6233 0.187236 16.5345 0.763597 13.941C1.34805 11.3112 2.37433 8.99871 4.1865 7.1865C5.99871 5.37433 8.31119 4.34805 10.941 3.7636Z" stroke="#1E40AF" stroke-width="12" mask="url(#path-1-inside-1_714_2665)"/>
<g clip-path="url(#clip1_714_2665)">
<path d="M46.808 36.716L46.9093 36.6107C47.316 36.1894 48 35.4827 48 34.5134V33.6667C48 32.9307 47.404 32.3334 46.6667 32.3334H45.5907L33.3334 27.4307V20.3333C33.3333 19.5973 32.7373 19 32 19C31.2627 19 30.6667 19.5973 30.6667 20.3333V27.4306L18.4093 32.3333H17.3333C16.596 32.3333 16 32.9307 16 33.6667V34.5147C16 35.4867 16.688 36.1947 17.0973 36.6187L17.1933 36.7174C17.2826 36.8107 17.3333 36.9454 17.3333 37.0867V46.2467C17.3333 46.388 17.2826 46.5227 17.192 46.6174L17.0907 46.7227C16.684 47.144 16 47.8507 16 48.82V49.6667C16 50.4027 16.596 51 17.3333 51H46.6666C47.4039 51 47.9999 50.4027 47.9999 49.6667V48.8214C47.9999 47.8534 47.3173 47.1467 46.9106 46.7254L46.8053 46.6161C46.7173 46.5227 46.6666 46.3894 46.6666 46.2494V37.0867C46.6667 36.9453 46.7173 36.8107 46.808 36.716ZM32 29.7693L38.4093 32.3333H25.5907L32 29.7693ZM25.3334 47C24.596 47 24 46.4027 24 45.6667V37.6667C24 36.9307 24.596 36.3334 25.3333 36.3334C26.0706 36.3334 26.6666 36.9307 26.6666 37.6667V45.6667H26.6667C26.6667 46.4027 26.0707 47 25.3334 47ZM33.3333 45.6667C33.3333 46.4027 32.7373 47 32 47C31.2627 47 30.6667 46.4027 30.6667 45.6667V37.6667C30.6667 36.9307 31.2627 36.3334 32 36.3334C32.7373 36.3334 33.3333 36.9307 33.3333 37.6667V45.6667ZM40 45.6667C40 46.4027 39.404 47 38.6667 47C37.9294 47 37.3334 46.4027 37.3334 45.6667V37.6667C37.3334 36.9307 37.9294 36.3334 38.6667 36.3334C39.404 36.3334 40 36.9307 40 37.6667V45.6667Z" fill="#60A5FA"/>
</g>
</g>
<defs>
<clipPath id="clip0_714_2665">
<rect width="64" height="64" fill="white"/>
</clipPath>
<clipPath id="clip1_714_2665">
<rect width="32" height="32" fill="white" transform="translate(16 19)"/>
</clipPath>
</defs>
</svg>
