<svg width="64" height="64" viewBox="0 0 64 64" fill="none" xmlns="http://www.w3.org/2000/svg">
<g clip-path="url(#clip0_712_2806)">
<mask id="path-1-inside-1_712_2806" fill="white">
<path fill-rule="evenodd" clip-rule="evenodd" d="M10.941 3.7636C13.5345 3.18724 16.6233 3 20.1953 3H25.371C28.5803 3 31.5773 4.60392 33.3575 7.27423L35.9571 11.1738C36.5506 12.0638 37.5495 12.5985 38.6194 12.5985H54.7943C59.9055 12.5985 64.0482 16.6336 63.9996 21.8298C63.9413 28.0176 63.9903 34.2078 63.9903 40.3959C63.9903 43.9679 63.8031 47.0567 63.2266 49.6502C62.6423 52.2802 61.6159 54.5925 59.8037 56.4047C57.9915 58.2169 55.6792 59.2433 53.0492 59.8275C50.4557 60.4041 47.3669 60.5913 43.795 60.5913H20.1953C16.6233 60.5913 13.5345 60.4041 10.941 59.8275C8.31119 59.2433 5.99871 58.2169 4.1865 56.4047C2.37433 54.5925 1.34805 52.2802 0.763597 49.6502C0.187236 47.0567 0 43.9679 0 40.3959V23.1953C0 19.6233 0.187236 16.5345 0.763597 13.941C1.34805 11.3112 2.37433 8.99871 4.1865 7.1865C5.99871 5.37433 8.31119 4.34805 10.941 3.7636Z"/>
</mask>
<path fill-rule="evenodd" clip-rule="evenodd" d="M10.941 3.7636C13.5345 3.18724 16.6233 3 20.1953 3H25.371C28.5803 3 31.5773 4.60392 33.3575 7.27423L35.9571 11.1738C36.5506 12.0638 37.5495 12.5985 38.6194 12.5985H54.7943C59.9055 12.5985 64.0482 16.6336 63.9996 21.8298C63.9413 28.0176 63.9903 34.2078 63.9903 40.3959C63.9903 43.9679 63.8031 47.0567 63.2266 49.6502C62.6423 52.2802 61.6159 54.5925 59.8037 56.4047C57.9915 58.2169 55.6792 59.2433 53.0492 59.8275C50.4557 60.4041 47.3669 60.5913 43.795 60.5913H20.1953C16.6233 60.5913 13.5345 60.4041 10.941 59.8275C8.31119 59.2433 5.99871 58.2169 4.1865 56.4047C2.37433 54.5925 1.34805 52.2802 0.763597 49.6502C0.187236 47.0567 0 43.9679 0 40.3959V23.1953C0 19.6233 0.187236 16.5345 0.763597 13.941C1.34805 11.3112 2.37433 8.99871 4.1865 7.1865C5.99871 5.37433 8.31119 4.34805 10.941 3.7636Z" stroke="#1E40AF" stroke-width="12" mask="url(#path-1-inside-1_712_2806)"/>
<path d="M13 35.9996C13.0507 36.1009 13.114 36.2402 13.19 36.4176C13.266 36.5949 13.456 36.9622 13.76 37.5196C14.064 38.0769 14.3933 38.6089 14.748 39.1156C15.1027 39.6222 15.5967 40.2302 16.23 40.9396C16.8633 41.6489 17.522 42.3202 18.206 42.9536C18.89 43.5869 19.7387 44.2076 20.752 44.8156C21.7653 45.4236 22.804 45.9556 23.868 46.4116C24.932 46.8676 26.1733 47.2222 27.592 47.4756C29.0107 47.7289 30.48 47.8682 32 47.8936C33.52 47.9189 34.9893 47.7796 36.408 47.4756C37.8267 47.1716 39.0807 46.8042 40.17 46.3736C41.2593 45.9429 42.2853 45.4236 43.248 44.8156C44.2107 44.2076 45.0593 43.5742 45.794 42.9156C46.5287 42.2569 47.1873 41.6109 47.77 40.9776C48.3527 40.3442 48.8467 39.7109 49.252 39.0776C49.6573 38.4442 49.9867 37.9249 50.24 37.5196C50.4933 37.1142 50.6833 36.7469 50.81 36.4176L51 35.9996C50.9747 35.8982 50.9113 35.7589 50.81 35.5816C50.7087 35.4042 50.5187 35.0496 50.24 34.5176C49.9613 33.9856 49.632 33.4536 49.252 32.9216C48.872 32.3896 48.378 31.7689 47.77 31.0596C47.162 30.3502 46.5033 29.6916 45.794 29.0836C45.0847 28.4756 44.236 27.8549 43.248 27.2216C42.26 26.5882 41.2213 26.0562 40.132 25.6256C39.0427 25.1949 37.8013 24.8402 36.408 24.5616C35.0147 24.2829 33.5453 24.1436 32 24.1436C30.4547 24.1436 28.9853 24.2829 27.592 24.5616C26.1987 24.8402 24.9447 25.1949 23.83 25.6256C22.7153 26.0562 21.6893 26.5882 20.752 27.2216C19.8147 27.8549 18.966 28.4756 18.206 29.0836C17.446 29.6916 16.7873 30.3502 16.23 31.0596C15.6727 31.7689 15.1787 32.3896 14.748 32.9216C14.3173 33.4536 13.988 33.9856 13.76 34.5176C13.532 35.0496 13.342 35.4169 13.19 35.6196L13 35.9996ZM24.894 35.9996C24.894 34.0489 25.578 32.3769 26.946 30.9836C28.314 29.5902 29.9987 28.8936 32 28.8936C34.0013 28.8936 35.686 29.5902 37.054 30.9836C38.422 32.3769 39.1187 34.0489 39.144 35.9996C39.1693 37.9502 38.4727 39.6349 37.054 41.0536C35.6353 42.4722 33.9507 43.1689 32 43.1436C30.0493 43.1182 28.3647 42.4216 26.946 41.0536C25.5273 39.6856 24.8433 38.0009 24.894 35.9996ZM27.25 35.9996C27.25 37.3169 27.7187 38.4442 28.656 39.3816C29.5933 40.3189 30.708 40.7749 32 40.7496C33.292 40.7242 34.4067 40.2682 35.344 39.3816C36.2813 38.4949 36.75 37.3676 36.75 35.9996C36.75 34.6316 36.2813 33.5169 35.344 32.6556C34.4067 31.7942 33.292 31.3256 32 31.2496C30.708 31.1736 29.5933 31.6422 28.656 32.6556L32 35.9996H27.25Z" fill="#60A5FA"/>
</g>
<defs>
<clipPath id="clip0_712_2806">
<rect width="64" height="64" fill="white"/>
</clipPath>
</defs>
</svg>
