<svg width="64" height="64" viewBox="0 0 64 64" fill="none" xmlns="http://www.w3.org/2000/svg">
<g clip-path="url(#clip0_714_2597)">
<mask id="path-1-inside-1_714_2597" fill="white">
<path fill-rule="evenodd" clip-rule="evenodd" d="M10.941 3.7636C13.5345 3.18724 16.6233 3 20.1953 3H25.371C28.5803 3 31.5773 4.60392 33.3575 7.27423L35.9571 11.1738C36.5506 12.0638 37.5495 12.5985 38.6194 12.5985H54.7943C59.9055 12.5985 64.0482 16.6336 63.9996 21.8298C63.9413 28.0176 63.9903 34.2078 63.9903 40.3959C63.9903 43.9679 63.8031 47.0567 63.2266 49.6502C62.6423 52.2802 61.6159 54.5925 59.8037 56.4047C57.9915 58.2169 55.6792 59.2433 53.0492 59.8275C50.4557 60.4041 47.3669 60.5913 43.795 60.5913H20.1953C16.6233 60.5913 13.5345 60.4041 10.941 59.8275C8.31119 59.2433 5.99871 58.2169 4.1865 56.4047C2.37433 54.5925 1.34805 52.2802 0.763597 49.6502C0.187236 47.0567 0 43.9679 0 40.3959V23.1953C0 19.6233 0.187236 16.5345 0.763597 13.941C1.34805 11.3112 2.37433 8.99871 4.1865 7.1865C5.99871 5.37433 8.31119 4.34805 10.941 3.7636Z"/>
</mask>
<path fill-rule="evenodd" clip-rule="evenodd" d="M10.941 3.7636C13.5345 3.18724 16.6233 3 20.1953 3H25.371C28.5803 3 31.5773 4.60392 33.3575 7.27423L35.9571 11.1738C36.5506 12.0638 37.5495 12.5985 38.6194 12.5985H54.7943C59.9055 12.5985 64.0482 16.6336 63.9996 21.8298C63.9413 28.0176 63.9903 34.2078 63.9903 40.3959C63.9903 43.9679 63.8031 47.0567 63.2266 49.6502C62.6423 52.2802 61.6159 54.5925 59.8037 56.4047C57.9915 58.2169 55.6792 59.2433 53.0492 59.8275C50.4557 60.4041 47.3669 60.5913 43.795 60.5913H20.1953C16.6233 60.5913 13.5345 60.4041 10.941 59.8275C8.31119 59.2433 5.99871 58.2169 4.1865 56.4047C2.37433 54.5925 1.34805 52.2802 0.763597 49.6502C0.187236 47.0567 0 43.9679 0 40.3959V23.1953C0 19.6233 0.187236 16.5345 0.763597 13.941C1.34805 11.3112 2.37433 8.99871 4.1865 7.1865C5.99871 5.37433 8.31119 4.34805 10.941 3.7636Z" stroke="#1E40AF" stroke-width="12" mask="url(#path-1-inside-1_714_2597)"/>
<path d="M22.3495 24.3642L38.2821 31.7343L34.021 33.6206C33.3818 33.8901 32.6954 34.0303 32.0017 34.0332C31.3079 34.0361 30.6205 33.9016 29.979 33.6374L17.2633 27.901C18.1267 26.6682 19.3164 25.7001 20.699 25.1053L22.3495 24.3642ZM43.301 25.1053L35.9073 21.8211C34.6759 21.2796 33.3453 21 32 21C30.6547 21 29.3241 21.2796 28.0927 21.8211L25.4148 23L41.3305 30.36L46.7367 27.901C45.8733 26.6682 44.6836 25.7001 43.301 25.1053ZM16.2191 30.1915C16.0703 30.7496 15.9967 31.3251 16.0001 31.9027V42.0752C16.03 43.5452 16.4914 44.9738 17.3268 46.1836C18.1623 47.3934 19.335 48.3309 20.699 48.8794L28.1095 52.1636C28.9417 52.5449 29.828 52.7949 30.7369 52.9046V36.4669C30.1231 36.3646 29.5237 36.1893 28.9516 35.9448L16.2191 30.1915ZM47.7809 30.1915L35.0484 35.9448C34.4763 36.1893 33.8769 36.3646 33.2631 36.4669V52.9046C34.1769 52.7927 35.0685 52.5429 35.9073 52.1636L43.301 48.8794C44.665 48.3309 45.8377 47.3934 46.6732 46.1836C47.5086 44.9738 47.97 43.5452 47.9999 42.0752V31.9027C48.0033 31.3251 47.9297 30.7496 47.7809 30.1915Z" fill="#60A5FA"/>
</g>
<defs>
<clipPath id="clip0_714_2597">
<rect width="64" height="64" fill="white"/>
</clipPath>
</defs>
</svg>
