<svg width="64" height="64" viewBox="0 0 64 64" fill="none" xmlns="http://www.w3.org/2000/svg">
<g clip-path="url(#clip0_715_3421)">
<path d="M53.0492 59.8275C55.6792 59.2433 57.9915 58.2169 59.8037 56.4047C61.6159 54.5925 62.6423 52.2802 63.2266 49.6502C63.8031 47.0567 63.9903 43.9679 63.9903 40.3959C63.9903 38.4558 63.9855 36.5155 63.9807 34.5752C63.9701 30.3266 63.9596 26.0776 63.9996 21.8298C64.0482 16.6336 59.9055 12.5985 54.7943 12.5985H38.6194C37.5495 12.5985 36.5506 12.0638 35.9571 11.1738L53.0492 59.8275ZM53.0492 59.8275C50.4557 60.4041 47.3669 60.5913 43.795 60.5913H20.1953C16.6233 60.5913 13.5345 60.4041 10.941 59.8275M53.0492 59.8275H10.941M60.9997 21.8017C61.0323 18.3172 58.2819 15.5985 54.7943 15.5985H38.6194C36.5463 15.5985 34.6109 14.5624 33.4612 12.8382L33.4609 12.8379L30.8614 8.93833C30.8613 8.93832 30.8613 8.9383 30.8613 8.93828C29.6375 7.10261 27.5772 6 25.371 6H20.1953C16.6923 6 13.863 6.18742 11.5919 6.69215M60.9997 21.8017L6.3078 9.30784M60.9997 21.8017C60.9596 26.0676 60.9702 30.3466 60.9807 34.6045C60.9855 36.5404 60.9903 38.472 60.9903 40.3959C60.9903 43.8989 60.8029 46.7281 60.2981 48.9992L60.298 48.9997C59.7929 51.2734 58.9669 52.9989 57.6824 54.2834C56.398 55.5678 54.6725 56.3938 52.3987 56.8989L52.3982 56.899C50.1271 57.4039 47.298 57.5913 43.795 57.5913H20.1953C16.6922 57.5913 13.8631 57.4039 11.5921 56.899L11.5916 56.8989C9.3179 56.3938 7.59223 55.5678 6.30782 54.2834C5.02346 52.999 4.19752 51.2735 3.69216 48.9994L0.766804 49.6495L3.69215 48.9994C3.18742 46.7282 3 43.8989 3 40.3959V23.1953C3 19.6923 3.18742 16.8631 3.69215 14.5919C4.19752 12.3179 5.02348 10.5922 6.3078 9.30784M60.9997 21.8017L6.3078 9.30784M11.5919 6.69215L10.941 3.7636M11.5919 6.69215L10.941 3.7636M11.5919 6.69215C9.31785 7.19752 7.59221 8.02348 6.30784 9.3078C6.30783 9.30781 6.30782 9.30783 6.3078 9.30784M10.941 3.7636C8.31119 4.34805 5.99871 5.37433 4.1865 7.1865C2.37433 8.99871 1.34805 11.3112 0.763596 13.941C0.187236 16.5345 0 19.6233 0 23.1953V40.3959C0 43.9679 0.187236 47.0567 0.763596 49.6502C1.34805 52.2802 2.37433 54.5925 4.1865 56.4047C5.99871 58.2169 8.31119 59.2433 10.941 59.8275M10.941 3.7636C13.5345 3.18724 16.6233 3 20.1953 3H25.371C28.5803 3 31.5773 4.60392 33.3575 7.27423L10.941 59.8275" stroke="#495057" stroke-width="6"/>
<g clip-path="url(#clip1_715_3421)">
<path d="M27.7414 36C27.7414 33.9011 29.4449 32.1977 31.5437 32.1977C33.6426 32.1977 35.346 33.9011 35.346 36C35.346 38.0989 33.6426 39.8023 31.5437 39.8023C29.4449 39.8327 27.7414 38.0989 27.7414 36ZM31.5437 20C24.0608 20 17.7947 25.1103 16.0304 32.0456C16.0304 32.1065 16 32.1369 16 32.1977C16 32.6236 16.3346 32.9582 16.7605 32.9582H23.2091C23.5133 32.9582 23.7871 32.7757 23.9087 32.5019C25.2471 29.6122 28.1369 27.6046 31.5437 27.6046C36.1673 27.6046 39.9392 31.3764 39.9392 36C39.9392 40.6236 36.1673 44.3954 31.5437 44.3954C28.1673 44.3954 25.2471 42.3878 23.9087 39.4981C23.7871 39.2243 23.5133 39.0418 23.2091 39.0418H16.7605C16.3346 39.0418 16 39.3764 16 39.8023C16 39.8631 16 39.8935 16.0304 39.9544C17.7947 46.8897 24.0608 52 31.5437 52C40.3954 52 47.5741 44.8213 47.5741 35.9696C47.5741 27.1483 40.3954 20 31.5437 20Z" fill="#CED4DA"/>
</g>
</g>
<defs>
<clipPath id="clip0_715_3421">
<rect width="64" height="64" fill="white"/>
</clipPath>
<clipPath id="clip1_715_3421">
<rect width="31.5741" height="32" fill="white" transform="translate(16 20)"/>
</clipPath>
</defs>
</svg>
