<svg width="64" height="64" viewBox="0 0 64 64" fill="none" xmlns="http://www.w3.org/2000/svg">
<g clip-path="url(#clip0_709_4607)">
<path fill-rule="evenodd" clip-rule="evenodd" d="M10.941 3.7636C13.5345 3.18724 16.6233 3 20.1953 3H25.371C28.5803 3 31.5773 4.60392 33.3575 7.27423L35.9571 11.1738C36.5506 12.0638 37.5495 12.5985 38.6194 12.5985H54.7943C59.9055 12.5985 64.0482 16.6336 63.9996 21.8298C63.9413 28.0176 63.9903 34.2078 63.9903 40.3959C63.9903 43.9679 63.8031 47.0567 63.2266 49.6502C62.6423 52.2802 61.6159 54.5925 59.8037 56.4047C57.9915 58.2169 55.6792 59.2433 53.0492 59.8275C50.4557 60.4041 47.3669 60.5913 43.795 60.5913H20.1953C16.6233 60.5913 13.5345 60.4041 10.941 59.8275C8.31119 59.2433 5.99871 58.2169 4.1865 56.4047C2.37433 54.5925 1.34805 52.2802 0.763597 49.6502C0.187236 47.0567 0 43.9679 0 40.3959V23.1953C0 19.6233 0.187236 16.5345 0.763597 13.941C1.34805 11.3112 2.37433 8.99871 4.1865 7.1865C5.99871 5.37433 8.31119 4.34805 10.941 3.7636Z" fill="#1E40AF"/>
<path d="M46.8687 24.3701L40.2795 21.1978C39.9074 21.0184 39.4887 20.9592 39.0815 21.0284C38.6742 21.0976 38.2985 21.2918 38.0066 21.5841L16.4371 41.2486C16.1754 41.4861 16.0187 41.8178 16.0016 42.1708C15.9844 42.5237 16.1082 42.8691 16.3456 43.1308C16.3742 43.1616 16.4028 43.1913 16.4336 43.2188L18.1946 44.8186C18.4247 45.028 18.7209 45.1503 19.0318 45.164C19.3426 45.1778 19.6485 45.0823 19.8962 44.894L45.8768 25.1929C46.073 25.044 46.3069 24.9528 46.5522 24.9296C46.7974 24.9065 47.0443 24.9522 47.2649 25.0617C47.4856 25.1712 47.6713 25.3401 47.8012 25.5495C47.931 25.7588 47.9999 26.0002 48 26.2465V26.17C48 25.7939 47.8938 25.4255 47.6937 25.1071C47.4935 24.7887 47.2076 24.5332 46.8687 24.3701Z" fill="#0065A9"/>
<path d="M46.8687 49.4422L40.2795 52.6156C39.9073 52.7946 39.4887 52.8535 39.0816 52.7843C38.6744 52.7151 38.2988 52.5212 38.0066 52.2294L16.4371 32.5637C16.1754 32.3262 16.0187 31.9945 16.0016 31.6416C15.9844 31.2886 16.1082 30.9433 16.3456 30.6816C16.3742 30.6507 16.4028 30.621 16.4336 30.5936L18.1946 28.9937C18.425 28.7834 18.7218 28.6607 19.0335 28.6469C19.3451 28.6331 19.6516 28.7292 19.8996 28.9183L45.8768 48.6194C46.073 48.7683 46.3069 48.8595 46.5522 48.8827C46.7974 48.9059 47.0443 48.8601 47.2649 48.7506C47.4856 48.6411 47.6713 48.4722 47.8012 48.2629C47.931 48.0536 47.9999 47.8121 48 47.5658V47.6481C47.9988 48.0232 47.892 48.3903 47.692 48.7076C47.4919 49.0249 47.2066 49.2794 46.8687 49.4422Z" fill="#007ACC"/>
<path d="M40.2795 52.6156C39.9073 52.7946 39.4887 52.8535 39.0816 52.7843C38.6744 52.7151 38.2988 52.5212 38.0066 52.2294C38.1707 52.3914 38.379 52.5013 38.6053 52.5454C38.8316 52.5895 39.0659 52.5659 39.2788 52.4774C39.4917 52.3889 39.6738 52.2396 39.8022 52.0481C39.9306 51.8566 39.9997 51.6315 40.0007 51.4009V22.4115C40.0009 22.1798 39.9323 21.9533 39.8037 21.7607C39.6751 21.568 39.4921 21.4179 39.2781 21.3293C39.0641 21.2407 38.8285 21.2176 38.6014 21.263C38.3742 21.3083 38.1656 21.4201 38.002 21.5841C38.294 21.2919 38.6696 21.0977 39.0768 21.0283C39.484 20.9589 39.9027 21.0178 40.275 21.1967L46.863 24.3644C47.2029 24.5267 47.49 24.7818 47.6912 25.1002C47.8924 25.4187 47.9995 25.7876 48 26.1643V47.6481C48.0001 48.0245 47.8938 48.3932 47.6935 48.7119C47.4931 49.0305 47.2068 49.2861 46.8675 49.4491L40.2795 52.6156Z" fill="#1F9CF0"/>
</g>
<defs>
<clipPath id="clip0_709_4607">
<rect width="64" height="64" fill="white"/>
</clipPath>
</defs>
</svg>
