<svg width="64" height="64" viewBox="0 0 64 64" fill="none" xmlns="http://www.w3.org/2000/svg">
<g clip-path="url(#clip0_717_3821)">
<path d="M6.3078 9.30784C6.30782 9.30783 6.30783 9.30782 6.30784 9.3078C7.59221 8.02348 9.31785 7.19752 11.5919 6.69215C13.863 6.18742 16.6923 6 20.1953 6H25.371C27.5772 6 29.6375 7.10261 30.8613 8.93829C30.8613 8.9383 30.8613 8.93832 30.8614 8.93833L33.4609 12.8379L33.4612 12.8382C34.6109 14.5624 36.5463 15.5985 38.6194 15.5985H54.7943C58.2819 15.5985 61.0323 18.3172 60.9997 21.8017C60.9596 26.0676 60.9702 30.3466 60.9807 34.6045C60.9855 36.5404 60.9903 38.472 60.9903 40.3959C60.9903 43.8989 60.8029 46.7281 60.2981 48.9992L60.298 48.9997C59.7929 51.2734 58.9669 52.999 57.6824 54.2834C56.398 55.5678 54.6725 56.3938 52.3987 56.8989L52.3982 56.899C50.1272 57.4039 47.298 57.5913 43.795 57.5913H20.1953C16.6922 57.5913 13.8631 57.4039 11.5921 56.899L11.5916 56.8989C9.3179 56.3938 7.59223 55.5678 6.30782 54.2834C5.02346 52.999 4.19752 51.2735 3.69216 48.9994L0.763596 49.6502M6.3078 9.30784L4.1865 7.1865C2.37433 8.99871 1.34805 11.3112 0.763596 13.941C0.187236 16.5345 0 19.6233 0 23.1953V40.3959C0 43.9679 0.187236 47.0567 0.763596 49.6502M6.3078 9.30784C5.02348 10.5922 4.19752 12.3179 3.69215 14.5919M6.3078 9.30784L3.69215 14.5919M0.763596 49.6502L3.69215 48.9994C3.18742 46.7282 3 43.8989 3 40.3959V23.1953C3 19.6923 3.18742 16.863 3.69215 14.5919M0.763596 49.6502L3.69215 14.5919M3.69215 14.5919L0.76767 13.9419L3.69215 14.5919Z" stroke="#115E59" stroke-width="6"/>
<path d="M36.9141 23V23.0249H46.6405V23H36.9141ZM16 23.0746L29.8044 50.6758H34.3122L42.9378 33.4247H35.2292L32.0633 39.7616L23.7136 23.0721L16 23.0746ZM40.5845 29.9904L44.5456 30.0103L44.5555 29.9904H40.5845Z" fill="#2DD4BF"/>
<path d="M36.9141 23L36.9143 24.5979H39.9932L39.4863 25.6068H34.4491V27.1972H38.6761L38.0748 28.3975H32.0411V29.9879H44.5557L48 23.0249H46.6405V23H36.9141Z" fill="#2DD4BF"/>
</g>
<defs>
<clipPath id="clip0_717_3821">
<rect width="64" height="64" fill="white"/>
</clipPath>
</defs>
</svg>
