<svg width="63" height="63" viewBox="0 0 63 63" fill="none" xmlns="http://www.w3.org/2000/svg">
<g clip-path="url(#clip0_715_2695)">
<mask id="path-1-inside-1_715_2695" fill="white">
<path fill-rule="evenodd" clip-rule="evenodd" d="M10.7701 3.70479C13.323 3.13744 16.3636 2.95312 19.8798 2.95312H24.9746C28.1337 2.95312 31.0839 4.53198 32.8363 7.16057L35.3953 10.9992C35.9795 11.8753 36.9628 12.4017 38.016 12.4017H53.9381C58.9695 12.4017 63.0475 16.3737 62.9996 21.4887C62.9423 27.5799 62.9905 33.6733 62.9905 39.7647C62.9905 43.2809 62.8062 46.3214 62.2387 48.8744C61.6636 51.4633 60.6532 53.7395 58.8693 55.5234C57.0854 57.3073 54.8093 58.3176 52.2203 58.8927C49.6673 59.4603 46.6268 59.6445 43.1107 59.6445H19.8798C16.3636 59.6445 13.323 59.4603 10.7701 58.8927C8.18133 58.3176 5.90498 57.3073 4.12109 55.5234C2.33723 53.7395 1.32699 51.4633 0.751665 48.8744C0.18431 46.3214 0 43.2809 0 39.7647V22.8329C0 19.3167 0.18431 16.2762 0.751665 13.7232C1.32699 11.1345 2.33723 8.8581 4.12109 7.07421C5.90498 5.29035 8.18133 4.28011 10.7701 3.70479Z"/>
</mask>
<path fill-rule="evenodd" clip-rule="evenodd" d="M10.7701 3.70479C13.323 3.13744 16.3636 2.95312 19.8798 2.95312H24.9746C28.1337 2.95312 31.0839 4.53198 32.8363 7.16057L35.3953 10.9992C35.9795 11.8753 36.9628 12.4017 38.016 12.4017H53.9381C58.9695 12.4017 63.0475 16.3737 62.9996 21.4887C62.9423 27.5799 62.9905 33.6733 62.9905 39.7647C62.9905 43.2809 62.8062 46.3214 62.2387 48.8744C61.6636 51.4633 60.6532 53.7395 58.8693 55.5234C57.0854 57.3073 54.8093 58.3176 52.2203 58.8927C49.6673 59.4603 46.6268 59.6445 43.1107 59.6445H19.8798C16.3636 59.6445 13.323 59.4603 10.7701 58.8927C8.18133 58.3176 5.90498 57.3073 4.12109 55.5234C2.33723 53.7395 1.32699 51.4633 0.751665 48.8744C0.18431 46.3214 0 43.2809 0 39.7647V22.8329C0 19.3167 0.18431 16.2762 0.751665 13.7232C1.32699 11.1345 2.33723 8.8581 4.12109 7.07421C5.90498 5.29035 8.18133 4.28011 10.7701 3.70479Z" stroke="#075985" stroke-width="12" mask="url(#path-1-inside-1_715_2695)"/>
<path fill-rule="evenodd" clip-rule="evenodd" d="M32.6 31.2C32.6 30.3164 31.8837 29.6 31 29.6C30.1163 29.6 29.4 30.3164 29.4 31.2V34.4H26.2C25.3164 34.4 24.6 35.1163 24.6 36C24.6 36.8837 25.3164 37.6 26.2 37.6H29.4V40.8C29.4 41.6837 30.1163 42.4 31 42.4C31.8837 42.4 32.6 41.6837 32.6 40.8V37.6H35.8C36.6837 37.6 37.4 36.8837 37.4 36C37.4 35.1163 36.6837 34.4 35.8 34.4H32.6V31.2ZM23.4001 20.6205C25.478 20.1587 27.9989 20 31 20C34.0011 20 36.5219 20.1587 38.5998 20.6205C40.696 21.0864 42.4381 21.8816 43.7782 23.2217C45.1184 24.5619 45.9136 26.304 46.3795 28.4001C46.8413 30.478 47 32.9989 47 36C47 39.0011 46.8413 41.5219 46.3795 43.5998C45.9136 45.696 45.1184 47.4381 43.7782 48.7782C42.4381 50.1184 40.696 50.9136 38.5998 51.3795C36.5219 51.8413 34.0011 52 31 52C27.9989 52 25.478 51.8413 23.4001 51.3795C21.304 50.9136 19.5619 50.1184 18.2217 48.7782C16.8816 47.4381 16.0864 45.696 15.6205 43.5998C15.1587 41.5219 15 39.0011 15 36C15 32.9989 15.1587 30.478 15.6205 28.4001C16.0864 26.304 16.8816 24.5619 18.2217 23.2217C19.5619 21.8816 21.304 21.0864 23.4001 20.6205Z" fill="#38BDF8"/>
</g>
<defs>
<clipPath id="clip0_715_2695">
<rect width="63" height="63" fill="white"/>
</clipPath>
</defs>
</svg>
