<svg width="64" height="64" viewBox="0 0 64 64" fill="none" xmlns="http://www.w3.org/2000/svg">
<g clip-path="url(#clip0_715_2588)">
<mask id="path-1-inside-1_715_2588" fill="white">
<path fill-rule="evenodd" clip-rule="evenodd" d="M10.9412 3.7636C13.5346 3.18724 16.6234 3 20.1955 3H25.3711C28.5804 3 31.5774 4.60392 33.3576 7.27423L35.9572 11.1738C36.5507 12.0638 37.5496 12.5985 38.6195 12.5985H54.7944C59.9056 12.5985 64.0483 16.6336 63.9997 21.8298C63.9415 28.0176 63.9904 34.2078 63.9904 40.3959C63.9904 43.9679 63.8032 47.0567 63.2267 49.6502C62.6425 52.2802 61.6161 54.5925 59.8039 56.4047C57.9917 58.2169 55.6794 59.2433 53.0494 59.8275C50.4558 60.4041 47.367 60.5913 43.7951 60.5913H20.1955C16.6234 60.5913 13.5346 60.4041 10.9412 59.8275C8.31131 59.2433 5.99883 58.2169 4.18662 56.4047C2.37445 54.5925 1.34817 52.2802 0.763719 49.6502C0.187358 47.0567 0.00012207 43.9679 0.00012207 40.3959V23.1953C0.00012207 19.6233 0.187358 16.5345 0.763719 13.941C1.34817 11.3112 2.37445 8.99871 4.18662 7.1865C5.99883 5.37433 8.31131 4.34805 10.9412 3.7636Z"/>
</mask>
<path fill-rule="evenodd" clip-rule="evenodd" d="M10.9412 3.7636C13.5346 3.18724 16.6234 3 20.1955 3H25.3711C28.5804 3 31.5774 4.60392 33.3576 7.27423L35.9572 11.1738C36.5507 12.0638 37.5496 12.5985 38.6195 12.5985H54.7944C59.9056 12.5985 64.0483 16.6336 63.9997 21.8298C63.9415 28.0176 63.9904 34.2078 63.9904 40.3959C63.9904 43.9679 63.8032 47.0567 63.2267 49.6502C62.6425 52.2802 61.6161 54.5925 59.8039 56.4047C57.9917 58.2169 55.6794 59.2433 53.0494 59.8275C50.4558 60.4041 47.367 60.5913 43.7951 60.5913H20.1955C16.6234 60.5913 13.5346 60.4041 10.9412 59.8275C8.31131 59.2433 5.99883 58.2169 4.18662 56.4047C2.37445 54.5925 1.34817 52.2802 0.763719 49.6502C0.187358 47.0567 0.00012207 43.9679 0.00012207 40.3959V23.1953C0.00012207 19.6233 0.187358 16.5345 0.763719 13.941C1.34817 11.3112 2.37445 8.99871 4.18662 7.1865C5.99883 5.37433 8.31131 4.34805 10.9412 3.7636Z" stroke="#6B21A8" stroke-width="12" mask="url(#path-1-inside-1_715_2588)"/>
<path d="M38.704 20H25.296C19.472 20 16 23.472 16 29.296V42.704C16 48.528 19.472 52 25.296 52H38.704C44.528 52 48 48.528 48 42.704V29.296C48 23.472 44.528 20 38.704 20ZM28.752 40.64L25.152 44.24C24.912 44.48 24.608 44.592 24.304 44.592C24 44.592 23.68 44.48 23.456 44.24L22.256 43.04C21.776 42.576 21.776 41.808 22.256 41.344C22.72 40.88 23.472 40.88 23.952 41.344L24.304 41.696L27.056 38.944C27.52 38.48 28.272 38.48 28.752 38.944C29.216 39.408 29.216 40.176 28.752 40.64ZM28.752 29.44L25.152 33.04C24.912 33.28 24.608 33.392 24.304 33.392C24 33.392 23.68 33.28 23.456 33.04L22.256 31.84C21.776 31.376 21.776 30.608 22.256 30.144C22.72 29.68 23.472 29.68 23.952 30.144L24.304 30.496L27.056 27.744C27.52 27.28 28.272 27.28 28.752 27.744C29.216 28.208 29.216 28.976 28.752 29.44ZM40.896 43.392H32.496C31.84 43.392 31.296 42.848 31.296 42.192C31.296 41.536 31.84 40.992 32.496 40.992H40.896C41.568 40.992 42.096 41.536 42.096 42.192C42.096 42.848 41.568 43.392 40.896 43.392ZM40.896 32.192H32.496C31.84 32.192 31.296 31.648 31.296 30.992C31.296 30.336 31.84 29.792 32.496 29.792H40.896C41.568 29.792 42.096 30.336 42.096 30.992C42.096 31.648 41.568 32.192 40.896 32.192Z" fill="#C084FC"/>
</g>
<defs>
<clipPath id="clip0_715_2588">
<rect width="64" height="64" fill="white"/>
</clipPath>
</defs>
</svg>
