<svg width="64" height="64" viewBox="0 0 64 64" fill="none" xmlns="http://www.w3.org/2000/svg">
<g clip-path="url(#clip0_709_4759)">
<path fill-rule="evenodd" clip-rule="evenodd" d="M10.941 3.7636C13.5345 3.18724 16.6233 3 20.1953 3H25.371C28.5803 3 31.5773 4.60392 33.3575 7.27423L35.9571 11.1738C36.5506 12.0638 37.5495 12.5985 38.6194 12.5985H54.7943C59.9055 12.5985 64.0482 16.6336 63.9996 21.8298C63.9413 28.0176 63.9903 34.2078 63.9903 40.3959C63.9903 43.9679 63.8031 47.0567 63.2266 49.6502C62.6423 52.2802 61.6159 54.5925 59.8037 56.4047C57.9915 58.2169 55.6792 59.2433 53.0492 59.8275C50.4557 60.4041 47.3669 60.5913 43.795 60.5913H20.1953C16.6233 60.5913 13.5345 60.4041 10.941 59.8275C8.31119 59.2433 5.99871 58.2169 4.1865 56.4047C2.37433 54.5925 1.34805 52.2802 0.763597 49.6502C0.187236 47.0567 0 43.9679 0 40.3959V23.1953C0 19.6233 0.187236 16.5345 0.763597 13.941C1.34805 11.3112 2.37433 8.99871 4.1865 7.1865C5.99871 5.37433 8.31119 4.34805 10.941 3.7636Z" fill="#1E40AF"/>
<g clip-path="url(#clip1_709_4759)">
<path d="M27.6037 43.046C27.3127 44.4767 27.1238 45.1684 26.0195 45.257C25.7474 45.2788 25.5258 45.4842 25.4833 45.7538C25.4408 46.0234 25.5886 46.287 25.8408 46.3915C25.9118 46.4208 27.6008 47.111 29.5741 47.1111C29.5744 47.1111 29.5746 47.1111 29.5748 47.1111C30.9499 47.1111 32.1295 46.7777 33.0808 46.1204C34.208 45.3414 34.9852 44.1224 35.3984 42.4986L31.601 38.6709C28.3918 39.1903 27.9372 41.4066 27.6037 43.046Z" fill="#60A5FA"/>
<path d="M47.774 26.2355C47.6719 26.1325 47.4898 26.0098 47.2024 26.0098C46.8654 26.0098 45.9702 26.0098 40.5335 30.6361C38.0221 32.773 35.1266 35.4167 32.8235 37.6664L36.427 41.2986C38.7958 38.8364 41.5591 35.7504 43.7567 33.1019C45.1444 31.4296 46.2115 30.0497 46.9283 29.0008C47.8778 27.6113 48.2936 26.7592 47.774 26.2355Z" fill="#60A5FA"/>
<path d="M33.9764 47.4165C32.7569 48.2592 31.276 48.6864 29.5741 48.6864C27.3341 48.6863 25.4472 47.9333 25.2378 47.8469C24.3099 47.4624 23.7711 46.5008 23.9274 45.5088C24.0805 44.537 24.8591 43.7985 25.8316 43.6928C25.9163 43.4397 26.01 42.9787 26.0603 42.7322C26.2451 41.8235 26.4983 40.5788 27.2769 39.4709C28.1272 38.2613 29.4089 37.4857 31.0919 37.1607C32.0578 36.2021 33.1598 35.1481 34.3098 34.0784C33.7285 33.9523 33.2087 33.5737 32.9299 33.001C32.4499 32.0146 32.8685 30.8279 33.8636 30.3532C34.8611 29.8773 36.0577 30.293 36.5369 31.2809C36.6316 31.4756 36.69 31.678 36.7173 31.8811C37.6711 31.0268 38.6183 30.1977 39.5125 29.4368C39.5178 29.4322 39.5228 29.4279 39.5282 29.4234C38.5232 27.5001 37.0819 25.796 35.3257 24.4912C32.804 22.6177 29.8013 21.6268 26.6425 21.626C26.6415 21.626 26.6408 21.626 26.64 21.626C24.5082 21.626 21.9168 22.3708 19.8768 23.5703C17.3764 25.0403 15.9995 27.0063 16 29.106C16.0008 31.6408 17.4305 32.7011 18.5793 33.553C19.516 34.2478 20.2559 34.7964 20.2563 35.9989C20.2566 37.2013 19.5171 37.7494 18.5809 38.4435C17.4324 39.2949 16.0031 40.3546 16.0038 42.8898C16.0044 44.9891 17.3822 46.9556 19.8833 48.427C21.9248 49.6278 24.5175 50.3743 26.6498 50.3749C26.6512 50.3749 26.6525 50.3749 26.6539 50.3749C30.5235 50.3749 34.1611 48.8813 36.897 46.1691C38.9484 44.1356 40.3088 41.5995 40.8618 38.8404C39.4883 40.3635 38.1055 41.8424 36.8684 43.1054C36.3437 45.0031 35.3722 46.452 33.9764 47.4165ZM26.9332 27.5911C27.1791 26.5209 28.2524 25.8528 29.3308 26.0979C30.4078 26.3419 31.0825 27.4055 30.8384 28.4743C30.5924 29.5419 29.5185 30.2101 28.44 29.9662C27.3621 29.7236 26.6871 28.6587 26.9332 27.5911ZM20.4355 31.2386C19.7459 30.3805 19.8877 29.1317 20.7522 28.4486C21.6165 27.7669 22.8758 27.9067 23.5667 28.7632C24.2549 29.62 24.1126 30.8688 23.2488 31.5532C22.3863 32.2365 21.1251 32.0952 20.4355 31.2386ZM21.4882 44.3339C20.6232 43.6503 20.4809 42.4015 21.1706 41.5437C21.8597 40.6876 23.1195 40.5472 23.9843 41.2306C24.8485 41.9141 24.9909 43.1631 24.3018 44.0194C23.6128 44.8772 22.3529 45.0175 21.4882 44.3339Z" fill="#60A5FA"/>
</g>
</g>
<defs>
<clipPath id="clip0_709_4759">
<rect width="64" height="64" fill="white"/>
</clipPath>
<clipPath id="clip1_709_4759">
<rect width="32" height="32" fill="white" transform="translate(16 20)"/>
</clipPath>
</defs>
</svg>
