<svg width="64" height="64" viewBox="0 0 64 64" fill="none" xmlns="http://www.w3.org/2000/svg">
<g clip-path="url(#clip0_711_2679)">
<path fill-rule="evenodd" clip-rule="evenodd" d="M10.941 3.7636C13.5345 3.18724 16.6233 3 20.1953 3H25.371C28.5803 3 31.5773 4.60392 33.3575 7.27423L35.9571 11.1738C36.5506 12.0638 37.5495 12.5985 38.6194 12.5985H54.7943C59.9055 12.5985 64.0482 16.6336 63.9996 21.8298C63.9413 28.0176 63.9903 34.2078 63.9903 40.3959C63.9903 43.9679 63.8031 47.0567 63.2266 49.6502C62.6423 52.2802 61.6159 54.5925 59.8037 56.4047C57.9915 58.2169 55.6792 59.2433 53.0492 59.8275C50.4557 60.4041 47.3669 60.5913 43.795 60.5913H20.1953C16.6233 60.5913 13.5345 60.4041 10.941 59.8275C8.31119 59.2433 5.99871 58.2169 4.1865 56.4047C2.37433 54.5925 1.34805 52.2802 0.763597 49.6502C0.187236 47.0567 0 43.9679 0 40.3959V23.1953C0 19.6233 0.187236 16.5345 0.763597 13.941C1.34805 11.3112 2.37433 8.99871 4.1865 7.1865C5.99871 5.37433 8.31119 4.34805 10.941 3.7636Z" fill="#1E40AF"/>
<g clip-path="url(#clip1_711_2679)">
<path d="M43.3977 26.907L43.7915 26.3111L44.4792 26.7285L44.7837 26.9464C45.5187 27.5134 47.0649 28.9624 47.3982 31.3669C47.9836 31.2619 48.5742 31.2094 49.1649 31.2094C50.5666 31.2094 51.509 31.5349 52.0445 31.8053L52.3201 31.9549L52.4986 32.073L53 32.4825L52.8267 33.0075C52.5575 33.7272 52.1367 34.3807 51.593 34.9237C50.8317 35.7086 49.493 36.6353 47.3694 36.756L46.9021 36.7691H46.5136C45.5424 39.3337 44.2377 42.2239 42.0459 44.8174C40.7453 46.3585 39.2027 47.6778 37.4784 48.7234C35.4112 49.9498 33.1474 50.8095 30.7872 51.2644C29.0967 51.5925 27.38 51.7553 25.6606 51.75C21.8544 51.75 18.4944 50.994 16.4285 49.671C14.5831 48.4924 13.1656 46.5683 12.2127 43.9564C11.3788 41.5697 10.9693 39.0555 11.0026 36.5276C10.9983 36.2035 11.1103 35.8886 11.3184 35.6401C11.5265 35.3915 11.8168 35.2259 12.1366 35.1731L12.3151 35.16H39.9826L40.2241 35.1416L40.6152 35.0996C41.2872 35.0104 42.311 34.8109 43.0302 34.3909C42.1692 32.9655 41.9251 31.2986 42.3267 29.5241C42.4949 28.7839 42.7597 28.0691 43.1142 27.3979L43.3977 26.907ZM18.5862 30.183L18.6912 30.2014C18.7392 30.2193 18.7824 30.2481 18.8174 30.2854C18.8525 30.3227 18.8785 30.3676 18.8934 30.4166L18.9091 30.5216V33.9735L18.8934 34.0811C18.8782 34.1304 18.8518 34.1755 18.8163 34.2128C18.7808 34.2502 18.7371 34.2788 18.6886 34.2964L18.5862 34.3121H14.8797C14.8107 34.3112 14.7437 34.2883 14.6884 34.2468C14.6332 34.2053 14.5927 34.1472 14.5726 34.0811L14.5542 33.9761V30.519L14.5726 30.414C14.5874 30.3643 14.6136 30.3186 14.6492 30.2808C14.6847 30.243 14.7286 30.214 14.7774 30.1961L14.8797 30.1804L18.5862 30.183ZM23.6971 30.183L23.7995 30.2014C23.8479 30.219 23.8916 30.2476 23.9272 30.2849C23.9627 30.3223 23.9891 30.3674 24.0042 30.4166L24.02 30.5216V33.9735L24.0016 34.0811C23.9865 34.1304 23.9601 34.1755 23.9245 34.2128C23.889 34.2502 23.8453 34.2788 23.7969 34.2964L23.6945 34.3121H19.988C19.919 34.3108 19.8522 34.2878 19.7971 34.2463C19.7419 34.2048 19.7013 34.147 19.6809 34.0811L19.6625 33.9788V30.5216C19.6619 30.4514 19.6831 30.3827 19.723 30.3249C19.7629 30.2671 19.8197 30.2231 19.8856 30.1987L19.988 30.1804L23.6971 30.183ZM28.8841 30.183L28.9865 30.2014C29.0345 30.2193 29.0776 30.2481 29.1127 30.2854C29.1477 30.3227 29.1737 30.3676 29.1886 30.4166L29.207 30.5216V33.9735L29.1886 34.0811C29.1735 34.1304 29.1471 34.1755 29.1115 34.2128C29.076 34.2502 29.0323 34.2788 28.9839 34.2964L28.8815 34.3121H25.175C25.1059 34.3112 25.0389 34.2883 24.9837 34.2468C24.9285 34.2053 24.8879 34.1472 24.8679 34.0811L24.8521 33.9761V30.519L24.8679 30.414C24.8827 30.3643 24.9089 30.3186 24.9444 30.2808C24.98 30.243 25.0239 30.214 25.0726 30.1961L25.175 30.1804L28.8841 30.183ZM34.0081 30.183L34.1105 30.2014C34.1589 30.219 34.2026 30.2476 34.2382 30.2849C34.2737 30.3223 34.3001 30.3674 34.3152 30.4166L34.3336 30.5216V33.9735C34.3342 34.0437 34.313 34.1124 34.2731 34.1702C34.2332 34.228 34.1764 34.2721 34.1105 34.2964L34.0055 34.3121H30.3016C30.2325 34.3112 30.1655 34.2883 30.1103 34.2468C30.0551 34.2053 30.0145 34.1472 29.9945 34.0811L29.9787 33.9761V30.519L29.9945 30.414C30.0093 30.3643 30.0355 30.3186 30.0711 30.2808C30.1066 30.243 30.1505 30.214 30.1992 30.1961L30.3042 30.1804H34.0107L34.0081 30.183ZM39.1794 30.183L39.2817 30.2014C39.3302 30.219 39.3739 30.2476 39.4094 30.2849C39.4449 30.3223 39.4713 30.3674 39.4865 30.4166L39.5022 30.5216V33.9735C39.5028 34.0437 39.4817 34.1124 39.4417 34.1702C39.4018 34.228 39.345 34.2721 39.2791 34.2964L39.1767 34.3121H35.4702C35.4012 34.3112 35.3342 34.2883 35.2789 34.2468C35.2237 34.2053 35.1832 34.1472 35.1631 34.0811L35.1474 33.9761V30.519L35.1631 30.414C35.1779 30.3643 35.2042 30.3186 35.2397 30.2808C35.2752 30.243 35.3191 30.214 35.3679 30.1961L35.4729 30.1804H39.1767L39.1794 30.183ZM23.6919 25.2165L23.7969 25.2349C23.8445 25.2526 23.8875 25.2809 23.9226 25.3178C23.9576 25.3546 23.9837 25.399 23.999 25.4475L24.0174 25.5551V29.007C24.0179 29.0772 23.9968 29.1459 23.9569 29.2037C23.9169 29.2615 23.8601 29.3056 23.7942 29.3299L23.6919 29.3483H19.988C19.9183 29.3466 19.851 29.3228 19.7958 29.2803C19.7406 29.2378 19.7004 29.1789 19.6809 29.112L19.6625 29.007V25.5551C19.6625 25.4853 19.6839 25.4172 19.7237 25.36C19.7636 25.3027 19.8201 25.259 19.8856 25.2349L19.988 25.2165H23.6919ZM28.8789 25.2165L28.9839 25.2349C29.0315 25.2526 29.0745 25.2809 29.1096 25.3178C29.1446 25.3546 29.1707 25.399 29.186 25.4475L29.2044 25.5551V29.007C29.2049 29.0772 29.1838 29.1459 29.1439 29.2037C29.1039 29.2615 29.0471 29.3056 28.9812 29.3299L28.8789 29.3483H25.175C25.1053 29.3466 25.038 29.3228 24.9828 29.2803C24.9276 29.2378 24.8874 29.1789 24.8679 29.112L24.8521 29.007V25.5551L24.8679 25.4501C24.883 25.4009 24.9094 25.3558 24.9449 25.3184C24.9805 25.2811 25.0242 25.2525 25.0726 25.2349L25.175 25.2165H28.8789ZM34.0055 25.2165C34.1472 25.2165 34.268 25.3136 34.3126 25.4475L34.331 25.5551V29.007C34.3315 29.0772 34.3104 29.1459 34.2705 29.2037C34.2306 29.2615 34.1738 29.3056 34.1079 29.3299L34.0029 29.3483H30.3016C30.232 29.3466 30.1647 29.3228 30.1095 29.2803C30.0542 29.2378 30.014 29.1789 29.9945 29.112L29.9787 29.007V25.5551L29.9945 25.4501C30.0097 25.4009 30.036 25.3558 30.0716 25.3184C30.1071 25.2811 30.1508 25.2525 30.1992 25.2349L30.3042 25.2165H34.0107H34.0055ZM34.0055 20.25C34.1472 20.25 34.268 20.3471 34.3126 20.481L34.331 20.586V24.0405C34.3315 24.1107 34.3104 24.1794 34.2705 24.2372C34.2306 24.295 34.1738 24.3391 34.1079 24.3634L34.0029 24.3791H30.3016C30.2325 24.3782 30.1655 24.3553 30.1103 24.3138C30.0551 24.2723 30.0145 24.2142 29.9945 24.1481L29.9787 24.0431V20.586L29.9945 20.481C30.0097 20.4317 30.036 20.3867 30.0716 20.3493C30.1071 20.312 30.1508 20.2834 30.1992 20.2658L30.3016 20.25H34.0081H34.0055Z" fill="#60A5FA"/>
</g>
</g>
<defs>
<clipPath id="clip0_711_2679">
<rect width="64" height="64" fill="white"/>
</clipPath>
<clipPath id="clip1_711_2679">
<rect width="42" height="42" fill="white" transform="translate(11 15)"/>
</clipPath>
</defs>
</svg>
