<svg width="64" height="64" viewBox="0 0 64 64" fill="none" xmlns="http://www.w3.org/2000/svg">
<g clip-path="url(#clip0_715_2570)">
<path fill-rule="evenodd" clip-rule="evenodd" d="M10.9409 3.7636C13.5344 3.18724 16.6232 3 20.1952 3H25.3708C28.5802 3 31.5772 4.60392 33.3574 7.27423L35.957 11.1738C36.5505 12.0638 37.5494 12.5985 38.6193 12.5985H54.7941C59.9054 12.5985 64.0481 16.6336 63.9995 21.8298C63.9412 28.0176 63.9902 34.2078 63.9902 40.3959C63.9902 43.9679 63.803 47.0567 63.2265 49.6502C62.6422 52.2802 61.6158 54.5925 59.8036 56.4047C57.9914 58.2169 55.6791 59.2433 53.0491 59.8275C50.4556 60.4041 47.3668 60.5913 43.7948 60.5913H20.1952C16.6232 60.5913 13.5344 60.4041 10.9409 59.8275C8.31107 59.2433 5.99858 58.2169 4.18638 56.4047C2.37421 54.5925 1.34793 52.2802 0.763475 49.6502C0.187114 47.0567 -0.00012207 43.9679 -0.00012207 40.3959V23.1953C-0.00012207 19.6233 0.187114 16.5345 0.763475 13.941C1.34793 11.3112 2.37421 8.99871 4.18638 7.1865C5.99858 5.37433 8.31107 4.34805 10.9409 3.7636Z" fill="#9A3412"/>
<g clip-path="url(#clip1_715_2570)">
<path fill-rule="evenodd" clip-rule="evenodd" d="M43.2 38.5236H38.4C35.7488 38.5236 33.6 40.5701 33.6 43.0951V47.6665C33.6 50.1914 35.7488 52.2379 38.4 52.2379H43.2C45.8512 52.2379 48 50.1914 48 47.6665V43.0951C48 40.5701 45.8512 38.5236 43.2 38.5236ZM25.6 38.5236H20.8C18.1488 38.5236 16 40.5701 16 43.0951V47.6665C16 50.1914 18.1488 52.2379 20.8 52.2379H25.6C28.2512 52.2379 30.4 50.1914 30.4 47.6665V43.0951C30.4 40.5701 28.2512 38.5236 25.6 38.5236ZM43.2 21.7617H38.4C35.7488 21.7617 33.6 23.8082 33.6 26.3331V30.9046C33.6 33.4295 35.7488 35.476 38.4 35.476H43.2C45.8512 35.476 48 33.4295 48 30.9046V26.3331C48 23.8082 45.8512 21.7617 43.2 21.7617ZM30.4 26.3331V30.9046C30.4 33.4295 28.2512 35.476 25.6 35.476H20.8C18.1488 35.476 16 33.4295 16 30.9046V26.3331C16 23.8082 18.1488 21.7617 20.8 21.7617H25.6C28.2512 21.7617 30.4 23.8082 30.4 26.3331Z" fill="#FB923C"/>
</g>
</g>
<defs>
<clipPath id="clip0_715_2570">
<rect width="64" height="64" fill="white"/>
</clipPath>
<clipPath id="clip1_715_2570">
<rect width="32" height="32" fill="white" transform="translate(16 21)"/>
</clipPath>
</defs>
</svg>
