<svg width="64" height="64" viewBox="0 0 64 64" fill="none" xmlns="http://www.w3.org/2000/svg">
<g clip-path="url(#clip0_717_4144)">
<path fill-rule="evenodd" clip-rule="evenodd" d="M10.941 3.7636C13.5345 3.18724 16.6233 3 20.1953 3H25.371C28.5803 3 31.5773 4.60392 33.3575 7.27423L35.9571 11.1738C36.5506 12.0638 37.5495 12.5985 38.6194 12.5985H54.7943C59.9055 12.5985 64.0482 16.6336 63.9996 21.8298C63.9413 28.0176 63.9903 34.2078 63.9903 40.3959C63.9903 43.9679 63.8031 47.0567 63.2266 49.6502C62.6423 52.2802 61.6159 54.5925 59.8037 56.4047C57.9915 58.2169 55.6792 59.2433 53.0492 59.8275C50.4557 60.4041 47.3669 60.5913 43.795 60.5913H20.1953C16.6233 60.5913 13.5345 60.4041 10.941 59.8275C8.31119 59.2433 5.99871 58.2169 4.1865 56.4047C2.37433 54.5925 1.34805 52.2802 0.763597 49.6502C0.187236 47.0567 0 43.9679 0 40.3959V23.1953C0 19.6233 0.187236 16.5345 0.763597 13.941C1.34805 11.3112 2.37433 8.99871 4.1865 7.1865C5.99871 5.37433 8.31119 4.34805 10.941 3.7636Z" fill="#065F46"/>
<path d="M21.7961 23.1338H17.0667C16.6847 23.1338 16.3319 23.338 16.1417 23.6692C15.9515 24.0004 15.9529 24.408 16.1453 24.7379L31.0786 50.3378C31.2698 50.6655 31.6206 50.8671 32 50.8671C32.3794 50.8671 32.7302 50.6655 32.9214 50.3378L47.8547 24.7379C48.0471 24.408 48.0484 24.0004 47.8583 23.6692C47.6681 23.338 47.3152 23.1338 46.9333 23.1338H42.2039L32.0001 40.1404L21.7961 23.1338Z" fill="#34D399"/>
<path d="M39.716 23.1338H33.4741L32 26.082L30.5259 23.1338H24.2839L32 35.9939L39.716 23.1338Z" fill="#34D399"/>
</g>
<defs>
<clipPath id="clip0_717_4144">
<rect width="64" height="64" fill="white"/>
</clipPath>
</defs>
</svg>
