<svg width="64" height="64" viewBox="0 0 64 64" fill="none" xmlns="http://www.w3.org/2000/svg">
<g clip-path="url(#clip0_714_2618)">
<path fill-rule="evenodd" clip-rule="evenodd" d="M10.941 3.7636C13.5345 3.18724 16.6233 3 20.1953 3H25.371C28.5803 3 31.5773 4.60392 33.3575 7.27423L35.9571 11.1738C36.5506 12.0638 37.5495 12.5985 38.6194 12.5985H54.7943C59.9055 12.5985 64.0482 16.6336 63.9996 21.8298C63.9413 28.0176 63.9903 34.2078 63.9903 40.3959C63.9903 43.9679 63.8031 47.0567 63.2266 49.6502C62.6423 52.2802 61.6159 54.5925 59.8037 56.4047C57.9915 58.2169 55.6792 59.2433 53.0492 59.8275C50.4557 60.4041 47.3669 60.5913 43.795 60.5913H20.1953C16.6233 60.5913 13.5345 60.4041 10.941 59.8275C8.31119 59.2433 5.99871 58.2169 4.1865 56.4047C2.37433 54.5925 1.34805 52.2802 0.763597 49.6502C0.187236 47.0567 0 43.9679 0 40.3959V23.1953C0 19.6233 0.187236 16.5345 0.763597 13.941C1.34805 11.3112 2.37433 8.99871 4.1865 7.1865C5.99871 5.37433 8.31119 4.34805 10.941 3.7636Z" fill="#1E40AF"/>
<path d="M37.3335 32.667H39.0002C40.6668 32.667 40.6668 34.3337 42.3602 38.5453C44.0002 42.667 44.0002 44.3337 45.6668 44.3337H47.3335" stroke="#60A5FA" stroke-width="3.33333" stroke-linecap="round" stroke-linejoin="round"/>
<path d="M35.6667 44.3337C38.1667 44.3337 40.6667 41.0003 42.3334 38.5003C44.0001 36.0003 46.5001 32.667 49.0001 32.667" stroke="#60A5FA" stroke-width="3.33333" stroke-linecap="round" stroke-linejoin="round"/>
<path d="M19 47.6667C19 50.1667 19.8333 51 22.3333 51C24.8333 51 25.6667 44.3333 27.3333 36C29 27.6667 29.8333 21 32.3333 21C34.8333 21 35.6667 21.8333 35.6667 24.3333" stroke="#60A5FA" stroke-width="3.33333" stroke-linecap="round" stroke-linejoin="round"/>
<path d="M22.3335 36H32.3335" stroke="#60A5FA" stroke-width="3.33333" stroke-linecap="round" stroke-linejoin="round"/>
</g>
<defs>
<clipPath id="clip0_714_2618">
<rect width="64" height="64" fill="white"/>
</clipPath>
</defs>
</svg>
