<svg width="64" height="64" viewBox="0 0 64 64" fill="none" xmlns="http://www.w3.org/2000/svg">
<g clip-path="url(#clip0_710_2488)">
<mask id="path-1-inside-1_710_2488" fill="white">
<path fill-rule="evenodd" clip-rule="evenodd" d="M10.941 3.7636C13.5345 3.18724 16.6233 3 20.1953 3H25.371C28.5803 3 31.5773 4.60392 33.3575 7.27423L35.9571 11.1738C36.5506 12.0638 37.5495 12.5985 38.6194 12.5985H54.7943C59.9055 12.5985 64.0482 16.6336 63.9996 21.8298C63.9413 28.0176 63.9903 34.2078 63.9903 40.3959C63.9903 43.9679 63.8031 47.0567 63.2266 49.6502C62.6423 52.2802 61.6159 54.5925 59.8037 56.4047C57.9915 58.2169 55.6792 59.2433 53.0492 59.8275C50.4557 60.4041 47.3669 60.5913 43.795 60.5913H20.1953C16.6233 60.5913 13.5345 60.4041 10.941 59.8275C8.31119 59.2433 5.99871 58.2169 4.1865 56.4047C2.37433 54.5925 1.34805 52.2802 0.763596 49.6502C0.187236 47.0567 0 43.9679 0 40.3959V23.1953C0 19.6233 0.187236 16.5345 0.763596 13.941C1.34805 11.3112 2.37433 8.99871 4.1865 7.1865C5.99871 5.37433 8.31119 4.34805 10.941 3.7636Z"/>
</mask>
<path fill-rule="evenodd" clip-rule="evenodd" d="M10.941 3.7636C13.5345 3.18724 16.6233 3 20.1953 3H25.371C28.5803 3 31.5773 4.60392 33.3575 7.27423L35.9571 11.1738C36.5506 12.0638 37.5495 12.5985 38.6194 12.5985H54.7943C59.9055 12.5985 64.0482 16.6336 63.9996 21.8298C63.9413 28.0176 63.9903 34.2078 63.9903 40.3959C63.9903 43.9679 63.8031 47.0567 63.2266 49.6502C62.6423 52.2802 61.6159 54.5925 59.8037 56.4047C57.9915 58.2169 55.6792 59.2433 53.0492 59.8275C50.4557 60.4041 47.3669 60.5913 43.795 60.5913H20.1953C16.6233 60.5913 13.5345 60.4041 10.941 59.8275C8.31119 59.2433 5.99871 58.2169 4.1865 56.4047C2.37433 54.5925 1.34805 52.2802 0.763596 49.6502C0.187236 47.0567 0 43.9679 0 40.3959V23.1953C0 19.6233 0.187236 16.5345 0.763596 13.941C1.34805 11.3112 2.37433 8.99871 4.1865 7.1865C5.99871 5.37433 8.31119 4.34805 10.941 3.7636Z" stroke="#075985" stroke-width="12" mask="url(#path-1-inside-1_710_2488)"/>
<path d="M45.8418 45.6099C44.2044 45.9797 42.6629 46.6891 41.317 47.6922C39.2407 48.9953 36.9974 50.0111 34.6483 50.7117C34.3602 51.048 33.962 51.2708 33.5248 51.3403C31.0818 51.6878 28.6224 51.9079 26.1566 51.9998C24.8274 52.0101 24.0125 51.6569 23.7862 51.1129C23.693 50.8926 23.6447 50.6559 23.6441 50.4166C23.6436 50.1774 23.6908 49.9405 23.7829 49.7197C23.8751 49.499 24.0104 49.2988 24.1809 49.131C24.3515 48.9632 24.5537 48.8312 24.776 48.7425C24.5682 48.6151 24.3717 48.4702 24.1885 48.3094C23.9931 48.1139 23.7862 47.7219 23.7245 47.8659C23.4673 48.4945 23.3325 50.0306 22.6422 50.7232C21.6936 51.6821 19.8992 51.362 18.8386 50.8055C17.674 50.1872 18.9209 48.7334 18.9209 48.7334C18.8211 48.784 18.7121 48.814 18.6004 48.8217C18.4888 48.8293 18.3767 48.8144 18.2709 48.7778C18.1651 48.7412 18.0678 48.6837 17.9847 48.6088C17.9016 48.5338 17.8344 48.4429 17.7872 48.3414C17.1802 47.3279 16.9131 46.147 17.0249 44.971C17.3177 43.6817 18.0187 42.5213 19.0238 41.6623C18.8655 39.95 19.1235 38.2247 19.7758 36.6336C20.6374 34.9749 21.8764 33.5417 23.3931 32.4494C23.3931 32.4494 21.1781 29.9957 22.0033 27.7899C22.5393 26.3475 22.7553 26.3578 22.9313 26.295C23.5536 26.1031 24.1221 25.7676 24.5908 25.3155C25.2214 24.6213 26.0055 24.0841 26.8806 23.7467C27.7557 23.4094 28.6976 23.2813 29.631 23.3726C29.631 23.3726 30.975 19.313 32.2059 20.1016C32.8869 21.1468 33.4732 22.2506 33.958 23.4C33.958 23.4 35.422 22.5451 35.5866 22.864C36.4284 25.1002 36.6353 27.5257 36.1843 29.8722C35.6523 32.1241 34.6385 34.2339 33.2128 36.0564C33.0585 36.3136 34.9854 37.1285 36.2015 40.4988C37.3249 43.5847 36.3249 46.1676 36.5009 46.4556C36.5317 46.507 36.542 46.5276 36.542 46.5276C36.542 46.5276 37.8301 46.6305 40.4176 45.0327C41.8492 43.9871 43.5396 43.3531 45.3057 43.1995C45.6225 43.1362 45.9515 43.1996 46.2221 43.3759C46.4928 43.5523 46.6836 43.8276 46.7537 44.143C46.8238 44.4583 46.7676 44.7886 46.5971 45.063C46.4267 45.3374 46.1555 45.533 45.8418 45.6099Z" fill="#38BDF8"/>
</g>
<defs>
<clipPath id="clip0_710_2488">
<rect width="64" height="64" fill="white"/>
</clipPath>
</defs>
</svg>
