<svg width="64" height="64" viewBox="0 0 64 64" fill="none" xmlns="http://www.w3.org/2000/svg">
<g clip-path="url(#clip0_715_3652)">
<path d="M6.3078 9.30784C6.30782 9.30783 6.30783 9.30782 6.30784 9.3078C7.59221 8.02348 9.31785 7.19752 11.5919 6.69215C13.863 6.18742 16.6923 6 20.1953 6H25.371C27.5772 6 29.6375 7.10261 30.8613 8.93829C30.8613 8.9383 30.8613 8.93832 30.8614 8.93833L33.4609 12.8379L33.4612 12.8382C34.6109 14.5624 36.5463 15.5985 38.6194 15.5985H54.7943C58.2819 15.5985 61.0323 18.3172 60.9997 21.8017C60.9596 26.0676 60.9702 30.3466 60.9807 34.6045C60.9855 36.5404 60.9903 38.472 60.9903 40.3959C60.9903 43.8989 60.8029 46.7281 60.2981 48.9992L60.298 48.9997C59.7929 51.2734 58.9669 52.999 57.6824 54.2834C56.398 55.5678 54.6725 56.3938 52.3987 56.8989L52.3982 56.899C50.1272 57.4039 47.298 57.5913 43.795 57.5913H20.1953C16.6922 57.5913 13.8631 57.4039 11.5921 56.899L11.5916 56.8989C9.3179 56.3938 7.59223 55.5678 6.30782 54.2834C5.02346 52.999 4.19752 51.2735 3.69216 48.9994L0.763596 49.6502M6.3078 9.30784L4.1865 7.1865C2.37433 8.99871 1.34805 11.3112 0.763596 13.941C0.187236 16.5345 0 19.6233 0 23.1953V40.3959C0 43.9679 0.187236 47.0567 0.763596 49.6502M6.3078 9.30784C5.02348 10.5922 4.19752 12.3179 3.69215 14.5919M6.3078 9.30784L3.69215 14.5919M0.763596 49.6502L3.69215 48.9994C3.18742 46.7282 3 43.8989 3 40.3959V23.1953C3 19.6923 3.18742 16.863 3.69215 14.5919M0.763596 49.6502L3.69215 14.5919M3.69215 14.5919L0.76767 13.9419L3.69215 14.5919Z" stroke="#1E40AF" stroke-width="6"/>
<g clip-path="url(#clip1_715_3652)">
<path d="M35.1199 37.0013C35.103 37.8182 34.7667 38.5959 34.183 39.1676C33.5994 39.7393 32.8149 40.0595 31.9979 40.0595C31.1809 40.0595 30.3964 39.7393 29.8128 39.1676C29.2291 38.5959 28.8928 37.8182 28.8759 37.0013C28.8759 36.1732 29.2049 35.3789 29.7905 34.7933C30.3761 34.2077 31.1704 33.8787 31.9986 33.8787C32.8268 33.8787 33.621 34.2077 34.2066 34.7933C34.7922 35.3789 35.1199 36.1732 35.1199 37.0013ZM45.8546 29.0013C45.1759 27.8332 44.3521 26.7557 43.4026 25.7947L39.7932 27.8773C38.6812 26.9263 37.4047 26.1865 36.0266 25.6947C34.8222 26.903 33.8357 28.3104 33.1106 29.8547C37.1266 29.5827 41.2759 31.0347 45.1279 34.044L47.3986 32.7333C47.0437 31.4284 46.5244 30.1739 45.8532 29L45.8546 29.0013ZM45.8559 45.0013C46.5278 43.8291 47.0484 42.5765 47.4052 41.2733L43.7972 39.1907C44.0666 37.736 44.0639 36.26 43.8039 34.836C42.155 34.3972 40.4427 34.2466 38.7426 34.3907C40.9879 37.7333 41.8026 42.052 41.1239 46.892L43.3946 48.2027C44.3471 47.2435 45.1742 46.1687 45.8559 45.0013ZM31.9999 53C33.3508 52.9968 34.6957 52.8221 36.0026 52.48V48.312C37.382 47.8235 38.6607 47.0874 39.7759 46.14C39.3315 44.4927 38.6057 42.9347 37.6306 41.5347C35.8599 45.1507 32.5266 48.0173 27.9946 49.848V52.4693C29.3012 52.816 30.6479 52.9933 31.9999 53ZM18.1426 45C18.8217 46.1678 19.646 47.2448 20.5959 48.2053L24.2039 46.1227C25.3158 47.0742 26.5924 47.8144 27.9706 48.3067C29.1757 47.0976 30.1626 45.6893 30.8879 44.144C26.8706 44.4187 22.7226 42.9653 18.8706 39.956L16.5999 41.2667C16.9546 42.572 17.4719 43.8267 18.1426 45ZM18.1426 29C17.4697 30.1721 16.9483 31.4247 16.5906 32.728L20.1999 34.8133C19.9329 36.252 19.9306 37.7272 20.1932 39.1667C21.8906 39.6093 23.5879 39.76 25.2546 39.612C23.0106 36.2693 22.1932 31.9507 22.8746 27.1107L20.6039 25.8C19.6511 26.7583 18.8236 27.8336 18.1412 29H18.1426ZM31.9986 21C30.6478 21.0047 29.303 21.1794 27.9959 21.52V25.6867C26.6161 26.1751 25.3369 26.9112 24.2212 27.8587C24.666 29.506 25.3923 31.0641 26.3679 32.464C28.1372 28.848 31.4706 25.984 36.0039 24.1507V21.5307C34.6972 21.184 33.3506 21.008 31.9986 21Z" fill="#60A5FA"/>
</g>
</g>
<defs>
<clipPath id="clip0_715_3652">
<rect width="64" height="64" fill="white"/>
</clipPath>
<clipPath id="clip1_715_3652">
<rect width="32" height="32" fill="white" transform="translate(16 21)"/>
</clipPath>
</defs>
</svg>
