<svg width="64" height="64" viewBox="0 0 64 64" fill="none" xmlns="http://www.w3.org/2000/svg">
<g clip-path="url(#clip0_712_2643)">
<path fill-rule="evenodd" clip-rule="evenodd" d="M10.941 3.7636C13.5345 3.18724 16.6233 3 20.1953 3H25.371C28.5803 3 31.5773 4.60392 33.3575 7.27423L35.9571 11.1738C36.5506 12.0638 37.5495 12.5985 38.6194 12.5985H54.7943C59.9055 12.5985 64.0482 16.6336 63.9996 21.8298C63.9413 28.0176 63.9903 34.2078 63.9903 40.3959C63.9903 43.9679 63.8031 47.0567 63.2266 49.6502C62.6423 52.2802 61.6159 54.5925 59.8037 56.4047C57.9915 58.2169 55.6792 59.2433 53.0492 59.8275C50.4557 60.4041 47.3669 60.5913 43.795 60.5913H20.1953C16.6233 60.5913 13.5345 60.4041 10.941 59.8275C8.31119 59.2433 5.99871 58.2169 4.1865 56.4047C2.37433 54.5925 1.34805 52.2802 0.763597 49.6502C0.187236 47.0567 0 43.9679 0 40.3959V23.1953C0 19.6233 0.187236 16.5345 0.763597 13.941C1.34805 11.3112 2.37433 8.99871 4.1865 7.1865C5.99871 5.37433 8.31119 4.34805 10.941 3.7636Z" fill="#495057"/>
<path d="M50.6559 21.3774C50.4137 21.1351 50.1714 21.0543 49.8483 21.0543C46.7793 20.8928 43.6296 21.1351 40.5606 21.2159H29.6576C26.3464 21.2159 23.6812 21.9427 21.1776 24.2041C19.5623 25.6578 18.0278 27.7576 16.8164 29.6152C16.7356 29.8575 16.6548 30.019 16.6548 30.342C16.6548 30.9881 17.2202 31.5535 17.8663 31.5535C18.5932 31.5535 18.7547 31.0689 19.0777 30.5843C19.4008 30.019 19.8046 29.5344 20.2892 29.1306C21.9852 27.5961 24.2465 26.7077 26.5079 26.95C24.5696 32.2804 21.9044 38.4183 18.0278 42.618C16.4126 44.3948 13.6666 46.1715 13.1013 48.5944C12.4552 51.0981 15.0396 51.7442 16.8971 51.0173C19.32 50.0481 20.8545 47.5445 22.0659 45.3639C23.6004 42.6987 24.9734 39.872 26.1041 37.0454C27.3155 34.2187 28.4462 31.4727 29.6576 28.646C30.3845 26.95 30.546 26.95 32.3228 26.95H37.0878C35.311 30.8266 33.615 34.784 32.0805 38.7414C30.8691 41.7296 28.6885 46.1715 30.223 49.402C31.7575 52.6326 36.0379 51.4211 38.38 49.8059C40.7221 48.1098 42.3374 45.4447 43.6296 42.8603C43.8719 42.3757 44.1142 41.8911 43.9526 41.3258C43.7911 40.8412 43.3065 40.5989 42.822 40.5989C41.6913 40.5989 41.5298 41.8911 41.1259 42.6987C40.4798 44.0717 39.0261 45.2831 37.4916 45.0409C33.9381 44.5563 37.0878 38.0953 37.7339 36.3992C38.38 34.6225 39.1069 32.8457 39.9145 31.1497C40.3183 30.1805 40.7221 29.1306 41.2875 28.1615C41.9336 26.95 41.9336 26.95 43.3873 26.8692C44.5987 26.7885 48.1523 27.4346 49.2022 26.7885C50.0906 26.2231 50.5752 24.1233 50.979 22.5888C51.0598 22.1042 50.8982 21.7004 50.6559 21.3774Z" fill="#CED4DA"/>
</g>
<defs>
<clipPath id="clip0_712_2643">
<rect width="64" height="64" fill="white"/>
</clipPath>
</defs>
</svg>
