<svg width="63" height="63" viewBox="0 0 63 63" fill="none" xmlns="http://www.w3.org/2000/svg">
<g clip-path="url(#clip0_715_2915)">
<path fill-rule="evenodd" clip-rule="evenodd" d="M10.7701 3.70479C13.323 3.13744 16.3636 2.95312 19.8798 2.95312H24.9746C28.1337 2.95312 31.0839 4.53198 32.8363 7.16057L35.3953 10.9992C35.9795 11.8753 36.9628 12.4017 38.016 12.4017H53.9381C58.9695 12.4017 63.0475 16.3737 62.9996 21.4887C62.9423 27.5799 62.9905 33.6733 62.9905 39.7647C62.9905 43.2809 62.8062 46.3214 62.2387 48.8744C61.6636 51.4633 60.6532 53.7395 58.8693 55.5234C57.0854 57.3073 54.8093 58.3176 52.2203 58.8927C49.6673 59.4603 46.6268 59.6445 43.1107 59.6445H19.8798C16.3636 59.6445 13.323 59.4603 10.7701 58.8927C8.18133 58.3176 5.90498 57.3073 4.12109 55.5234C2.33723 53.7395 1.32699 51.4633 0.751665 48.8744C0.18431 46.3214 0 43.2809 0 39.7647V22.8329C0 19.3167 0.18431 16.2762 0.751665 13.7232C1.32699 11.1345 2.33723 8.8581 4.12109 7.07421C5.90498 5.29035 8.18133 4.28011 10.7701 3.70479Z" fill="#6B21A8"/>
<g clip-path="url(#clip1_715_2915)">
<path d="M32.811 35.855C32.7047 35.8305 32.6271 35.7286 32.6271 35.6125V31.9315H33.7118C35.0216 31.9315 36.1167 30.9986 36.3689 29.762H32.6271C32.3272 29.762 32.0847 29.5196 32.0847 29.2197C32.0847 28.9203 32.3272 28.6773 32.6271 28.6773H36.4237V27.0502C36.4237 26.7508 36.1813 26.5078 35.8813 26.5078H26.1187C25.8188 26.5078 25.5764 26.7508 25.5764 27.0502V29.2197C25.5764 30.715 26.7929 31.9315 28.2882 31.9315H29.373V37.3557C29.373 38.2528 30.103 38.9828 31.0001 38.9828C32.3278 38.9828 33.5709 39.5084 34.4994 40.4641C35.4274 41.4192 35.9177 42.6769 35.8792 44.0063C35.8071 46.5478 33.681 48.6739 31.1411 48.7455C28.7194 48.823 26.5835 47.0614 26.1849 44.6685C26.0559 43.8886 25.405 43.3218 24.6376 43.3218H24.5286C24.0605 43.3218 23.6196 43.5236 23.3191 43.8745C23.0219 44.2216 22.8922 44.6799 22.9633 45.1318C23.5962 49.1588 27.0142 52.0003 30.9914 52.0003C31.3596 52.0003 31.7333 51.9759 32.1092 51.9254C35.742 51.4411 38.5314 48.6799 39.0504 45.0553C39.653 40.8415 36.9124 36.8003 32.811 35.855Z" fill="#C084FC"/>
<path d="M40.7627 20H21.2374C20.9375 20 20.6951 20.2424 20.6951 20.5424V22.1695H24.4917C24.7916 22.1695 25.034 22.4119 25.034 22.7118C25.034 23.0118 24.7916 23.2542 24.4917 23.2542H20.7499C21.0021 24.4903 22.0977 25.4237 23.4069 25.4237H38.5932C40.0885 25.4237 41.3051 24.2071 41.3051 22.7118V20.5424C41.3051 20.2424 41.0626 20 40.7627 20Z" fill="#C084FC"/>
</g>
</g>
<defs>
<clipPath id="clip0_715_2915">
<rect width="63" height="63" fill="white"/>
</clipPath>
<clipPath id="clip1_715_2915">
<rect width="32" height="32" fill="white" transform="translate(15 20)"/>
</clipPath>
</defs>
</svg>
