<svg width="64" height="64" viewBox="0 0 64 64" fill="none" xmlns="http://www.w3.org/2000/svg">
<g clip-path="url(#clip0_718_2482)">
<path fill-rule="evenodd" clip-rule="evenodd" d="M10.941 3.7636C13.5345 3.18724 16.6233 3 20.1953 3H25.371C28.5803 3 31.5773 4.60392 33.3575 7.27423L35.9571 11.1738C36.5506 12.0638 37.5495 12.5985 38.6194 12.5985H54.7943C59.9055 12.5985 64.0482 16.6336 63.9996 21.8298C63.9413 28.0176 63.9903 34.2078 63.9903 40.3959C63.9903 43.9679 63.8031 47.0567 63.2266 49.6502C62.6423 52.2802 61.6159 54.5925 59.8037 56.4047C57.9915 58.2169 55.6792 59.2433 53.0492 59.8275C50.4557 60.4041 47.3669 60.5913 43.795 60.5913H20.1953C16.6233 60.5913 13.5345 60.4041 10.941 59.8275C8.31119 59.2433 5.99871 58.2169 4.1865 56.4047C2.37433 54.5925 1.34805 52.2802 0.763597 49.6502C0.187236 47.0567 0 43.9679 0 40.3959V23.1953C0 19.6233 0.187236 16.5345 0.763597 13.941C1.34805 11.3112 2.37433 8.99871 4.1865 7.1865C5.99871 5.37433 8.31119 4.34805 10.941 3.7636Z" fill="#991B1B"/>
<path d="M46.8571 35.8571C47.5429 35.8571 48 35.4 48 34.7143C48 34.0286 47.5429 33.5714 46.8571 33.5714H43.4286V31.2857H46.8571C47.5429 31.2857 48 30.8286 48 30.1429C48 29.4571 47.5429 29 46.8571 29H43.4286C43.4286 27.0571 41.9429 25.5714 40 25.5714V22.1429C40 21.4571 39.5429 21 38.8571 21C38.1714 21 37.7143 21.4571 37.7143 22.1429V25.5714H35.4286V22.1429C35.4286 21.4571 34.9714 21 34.2857 21C33.6 21 33.1429 21.4571 33.1429 22.1429V25.5714H30.8571V22.1429C30.8571 21.4571 30.4 21 29.7143 21C29.0286 21 28.5714 21.4571 28.5714 22.1429V25.5714H26.2857V22.1429C26.2857 21.4571 25.8286 21 25.1429 21C24.4571 21 24 21.4571 24 22.1429V25.5714C22.0571 25.5714 20.5714 27.0571 20.5714 29H17.1429C16.4571 29 16 29.4571 16 30.1429C16 30.8286 16.4571 31.2857 17.1429 31.2857H20.5714V33.5714H17.1429C16.4571 33.5714 16 34.0286 16 34.7143C16 35.4 16.4571 35.8571 17.1429 35.8571H20.5714V38.1429H17.1429C16.4571 38.1429 16 38.6 16 39.2857C16 39.9714 16.4571 40.4286 17.1429 40.4286H20.5714V42.7143H17.1429C16.4571 42.7143 16 43.1714 16 43.8571C16 44.5429 16.4571 45 17.1429 45H20.5714C20.5714 46.9429 22.0571 48.4286 24 48.4286V51.8571C24 52.5429 24.4571 53 25.1429 53C25.8286 53 26.2857 52.5429 26.2857 51.8571V48.4286H28.5714V51.8571C28.5714 52.5429 29.0286 53 29.7143 53C30.4 53 30.8571 52.5429 30.8571 51.8571V48.4286H33.1429V51.8571C33.1429 52.5429 33.6 53 34.2857 53C34.9714 53 35.4286 52.5429 35.4286 51.8571V48.4286H37.7143V51.8571C37.7143 52.5429 38.1714 53 38.8571 53C39.5429 53 40 52.5429 40 51.8571V48.4286C41.9429 48.4286 43.4286 46.9429 43.4286 45H46.8571C47.5429 45 48 44.5429 48 43.8571C48 43.1714 47.5429 42.7143 46.8571 42.7143H43.4286V40.4286H46.8571C47.5429 40.4286 48 39.9714 48 39.2857C48 38.6 47.5429 38.1429 46.8571 38.1429H43.4286V35.8571H46.8571ZM38.8571 40.4286C38.8571 42.3714 37.3714 43.8571 35.4286 43.8571H28.5714C26.6286 43.8571 25.1429 42.3714 25.1429 40.4286V33.5714C25.1429 31.6286 26.6286 30.1429 28.5714 30.1429H35.4286C37.3714 30.1429 38.8571 31.6286 38.8571 33.5714V40.4286Z" fill="#F87171"/>
</g>
<defs>
<clipPath id="clip0_718_2482">
<rect width="64" height="64" fill="white"/>
</clipPath>
</defs>
</svg>
