<svg width="64" height="64" viewBox="0 0 64 64" fill="none" xmlns="http://www.w3.org/2000/svg">
<g clip-path="url(#clip0_712_2573)">
<mask id="path-1-inside-1_712_2573" fill="white">
<path fill-rule="evenodd" clip-rule="evenodd" d="M10.941 3.7636C13.5345 3.18724 16.6233 3 20.1953 3H25.371C28.5803 3 31.5773 4.60392 33.3575 7.27423L35.9571 11.1738C36.5506 12.0638 37.5495 12.5985 38.6194 12.5985H54.7943C59.9055 12.5985 64.0482 16.6336 63.9996 21.8298C63.9413 28.0176 63.9903 34.2078 63.9903 40.3959C63.9903 43.9679 63.8031 47.0567 63.2266 49.6502C62.6423 52.2802 61.6159 54.5925 59.8037 56.4047C57.9915 58.2169 55.6792 59.2433 53.0492 59.8275C50.4557 60.4041 47.3669 60.5913 43.795 60.5913H20.1953C16.6233 60.5913 13.5345 60.4041 10.941 59.8275C8.31119 59.2433 5.99871 58.2169 4.1865 56.4047C2.37433 54.5925 1.34805 52.2802 0.763597 49.6502C0.187236 47.0567 0 43.9679 0 40.3959V23.1953C0 19.6233 0.187236 16.5345 0.763597 13.941C1.34805 11.3112 2.37433 8.99871 4.1865 7.1865C5.99871 5.37433 8.31119 4.34805 10.941 3.7636Z"/>
</mask>
<path fill-rule="evenodd" clip-rule="evenodd" d="M10.941 3.7636C13.5345 3.18724 16.6233 3 20.1953 3H25.371C28.5803 3 31.5773 4.60392 33.3575 7.27423L35.9571 11.1738C36.5506 12.0638 37.5495 12.5985 38.6194 12.5985H54.7943C59.9055 12.5985 64.0482 16.6336 63.9996 21.8298C63.9413 28.0176 63.9903 34.2078 63.9903 40.3959C63.9903 43.9679 63.8031 47.0567 63.2266 49.6502C62.6423 52.2802 61.6159 54.5925 59.8037 56.4047C57.9915 58.2169 55.6792 59.2433 53.0492 59.8275C50.4557 60.4041 47.3669 60.5913 43.795 60.5913H20.1953C16.6233 60.5913 13.5345 60.4041 10.941 59.8275C8.31119 59.2433 5.99871 58.2169 4.1865 56.4047C2.37433 54.5925 1.34805 52.2802 0.763597 49.6502C0.187236 47.0567 0 43.9679 0 40.3959V23.1953C0 19.6233 0.187236 16.5345 0.763597 13.941C1.34805 11.3112 2.37433 8.99871 4.1865 7.1865C5.99871 5.37433 8.31119 4.34805 10.941 3.7636Z" stroke="#991B1B" stroke-width="12" mask="url(#path-1-inside-1_712_2573)"/>
<path d="M31.997 42.9675C31.3332 42.9691 30.697 43.2336 30.2276 43.703C29.7583 44.1723 29.4939 44.8085 29.4922 45.4723V50.3526H34.5079V45.4723C34.5059 44.8075 34.2406 44.1706 33.7699 43.7012C33.2993 43.2317 32.6618 42.9678 31.997 42.9675Z" fill="#F87171"/>
<path d="M47.5056 32.6284L34.4033 22.7939C33.7081 22.2784 32.8656 22 32.0001 22C31.1346 22 30.292 22.2784 29.5968 22.7939L20.5563 29.5796C20.3691 29.7159 20.1977 29.8728 20.0455 30.0474L16.476 32.8168C16.219 33.0178 16.0515 33.3122 16.0101 33.6359C15.9686 33.9597 16.0564 34.2866 16.2545 34.5461C16.3706 34.6945 16.5192 34.8143 16.6888 34.8965C16.8584 34.9786 17.0446 35.0208 17.233 35.0199C17.5054 35.0218 17.7703 34.9306 17.9838 34.7615L18.9562 34.0045V46.3498C18.9572 47.4105 19.3789 48.4274 20.1289 49.1774C20.8789 49.9273 21.8958 50.3492 22.9564 50.3501H27.0305V45.4698C27.032 44.1531 27.5557 42.8907 28.4868 41.9596C29.4179 41.0285 30.6802 40.5048 31.997 40.5033C33.3147 40.5035 34.5784 41.0266 35.5108 41.9578C36.4431 42.889 36.9678 44.1521 36.9696 45.4698V50.3501H41.0498C42.1101 50.348 43.1264 49.9259 43.8761 49.1762C44.6258 48.4264 45.048 47.4101 45.0501 46.3498V33.8629L46.0286 34.5953C46.2415 34.7555 46.5007 34.8419 46.7671 34.8414C46.9582 34.8414 47.1466 34.797 47.3175 34.7115C47.4885 34.6261 47.6371 34.502 47.7518 34.3491C47.8494 34.2203 47.9205 34.0734 47.961 33.9169C48.0015 33.7604 48.0106 33.5974 47.9877 33.4374C47.9648 33.2774 47.9104 33.1235 47.8277 32.9847C47.7449 32.8458 47.6355 32.7247 47.5056 32.6284Z" fill="#F87171"/>
</g>
<defs>
<clipPath id="clip0_712_2573">
<rect width="64" height="64" fill="white"/>
</clipPath>
</defs>
</svg>
