<svg width="64" height="64" viewBox="0 0 64 64" fill="none" xmlns="http://www.w3.org/2000/svg">
<g clip-path="url(#clip0_718_2465)">
<mask id="path-1-inside-1_718_2465" fill="white">
<path fill-rule="evenodd" clip-rule="evenodd" d="M10.941 3.7636C13.5345 3.18724 16.6233 3 20.1953 3H25.371C28.5803 3 31.5773 4.60392 33.3575 7.27423L35.9571 11.1738C36.5506 12.0638 37.5495 12.5985 38.6194 12.5985H54.7943C59.9055 12.5985 64.0482 16.6336 63.9996 21.8298C63.9413 28.0176 63.9903 34.2078 63.9903 40.3959C63.9903 43.9679 63.8031 47.0567 63.2266 49.6502C62.6423 52.2802 61.6159 54.5925 59.8037 56.4047C57.9915 58.2169 55.6792 59.2433 53.0492 59.8275C50.4557 60.4041 47.3669 60.5913 43.795 60.5913H20.1953C16.6233 60.5913 13.5345 60.4041 10.941 59.8275C8.31119 59.2433 5.99871 58.2169 4.1865 56.4047C2.37433 54.5925 1.34805 52.2802 0.763596 49.6502C0.187236 47.0567 0 43.9679 0 40.3959V23.1953C0 19.6233 0.187236 16.5345 0.763596 13.941C1.34805 11.3112 2.37433 8.99871 4.1865 7.1865C5.99871 5.37433 8.31119 4.34805 10.941 3.7636Z"/>
</mask>
<path fill-rule="evenodd" clip-rule="evenodd" d="M10.941 3.7636C13.5345 3.18724 16.6233 3 20.1953 3H25.371C28.5803 3 31.5773 4.60392 33.3575 7.27423L35.9571 11.1738C36.5506 12.0638 37.5495 12.5985 38.6194 12.5985H54.7943C59.9055 12.5985 64.0482 16.6336 63.9996 21.8298C63.9413 28.0176 63.9903 34.2078 63.9903 40.3959C63.9903 43.9679 63.8031 47.0567 63.2266 49.6502C62.6423 52.2802 61.6159 54.5925 59.8037 56.4047C57.9915 58.2169 55.6792 59.2433 53.0492 59.8275C50.4557 60.4041 47.3669 60.5913 43.795 60.5913H20.1953C16.6233 60.5913 13.5345 60.4041 10.941 59.8275C8.31119 59.2433 5.99871 58.2169 4.1865 56.4047C2.37433 54.5925 1.34805 52.2802 0.763596 49.6502C0.187236 47.0567 0 43.9679 0 40.3959V23.1953C0 19.6233 0.187236 16.5345 0.763596 13.941C1.34805 11.3112 2.37433 8.99871 4.1865 7.1865C5.99871 5.37433 8.31119 4.34805 10.941 3.7636Z" stroke="#991B1B" stroke-width="12" mask="url(#path-1-inside-1_718_2465)"/>
<g clip-path="url(#clip1_718_2465)">
<path d="M36.208 45.9115L37.057 44.4635C37.057 44.4635 35.13 45.2505 31.912 45.2505C28.688 45.2505 26.792 44.4945 26.792 44.4945L27.74 46.0735L28.073 51.0415C28.073 51.5845 29.822 52.0005 31.989 52.0005C34.15 52.0005 35.906 51.5845 35.906 51.0415L36.207 45.9325L36.208 45.9115ZM37.027 36.5155C36.006 36.5785 35.49 37.7185 34.974 38.9205C34.787 39.3595 34.137 41.2395 33.714 41.0045C33.287 40.7755 34.261 39.2335 34.537 38.3165C34.22 38.5455 33.064 39.4475 32.766 38.6035C32.287 39.0205 31.261 39.2445 31.375 38.1605C31.12 38.6245 30.547 39.2595 29.86 38.9835C28.959 38.6395 30.385 35.7645 30.74 35.9065C31.093 36.0675 30.667 36.7075 30.557 36.9635C30.306 37.5265 30.026 38.2445 30.213 38.3795C30.536 38.6395 31.421 37.4475 31.442 37.4205C31.603 37.2015 32.078 35.7855 32.458 35.9475C32.838 36.1245 31.51 38.0045 32.005 38.3795C32.104 38.4635 32.516 38.3435 32.765 38.0625C32.921 37.9065 32.869 37.5055 33.401 36.2295C33.942 34.9485 34.421 33.3545 34.786 33.4735C35.155 33.5935 34.854 34.4125 34.718 34.7295C34.098 36.1665 33.03 38.5215 33.53 38.3445C34.03 38.1615 34.291 38.1615 34.791 37.5845C35.291 37.0055 35.25 36.0475 35.587 36.0685C35.911 36.0885 35.868 36.4075 35.791 36.6255C36.108 36.2655 37.322 35.4695 37.603 36.2455C37.947 37.1615 35.868 38.5055 36.384 38.4215C36.884 38.3645 37.701 37.8445 38.067 37.3645L39.026 28.6975C39.026 28.6975 38.046 29.5005 31.874 29.5005C25.707 29.5005 24.827 28.7195 24.827 28.7195L25.644 36.6265C26.087 35.3915 27.124 32.8755 28.744 32.9745C29.483 33.0175 30.477 34.4545 29.619 34.4905C29.259 34.5115 29.218 33.7715 28.802 33.6735C28.483 33.6165 28.062 33.8565 27.786 34.1375C27.245 34.6735 26.046 36.8085 26.207 37.8705C26.406 39.2255 28.082 37.4075 28.363 36.8705C28.562 36.4905 28.702 35.3505 29.119 35.4705C29.562 35.5895 29.082 36.7715 28.759 37.7875C28.4 38.9485 28.218 40.1625 27.786 40.0225C27.343 39.8815 28.062 38.3865 28.021 38.1265C27.604 38.5275 26.844 39.4855 25.849 39.0065L26.344 43.9385C26.344 43.9385 27.703 44.9955 31.776 44.9955C35.849 44.9955 37.265 43.9385 37.265 43.9385L37.906 38.2255C37.385 38.7465 35.749 39.6415 35.65 38.6265C35.573 37.8075 37.426 36.6315 36.947 36.6055L37.027 36.5155ZM39.131 20.8905L35.584 24.6255L34.932 27.1615C37.443 27.3175 39.188 27.6775 39.188 28.0825C39.188 28.6455 35.969 29.0935 32 29.0935C28.031 29.0935 24.812 28.6365 24.812 28.0785C24.812 27.5215 28.031 27.0575 32 27.0575C32.563 27.0575 33.125 27.0575 33.688 27.0785L34.432 24.0465L38.197 20.0515C38.292 19.9315 38.573 20.0305 38.833 20.2505C39.088 20.4535 39.229 20.7075 39.15 20.8275V20.8685L39.131 20.8905ZM34.016 28.6195C34.016 28.6195 33.317 28.6195 33.203 28.5105C33.172 28.4785 33.156 28.4315 33.156 28.3905C33.156 28.3115 33.208 28.2705 33.276 28.2455L33.333 28.3445C33.306 28.3555 33.297 28.3645 33.292 28.3755C33.292 28.4325 33.708 28.4705 34.031 28.4645C34.35 28.4595 34.74 28.4325 34.74 28.3805C34.74 28.3645 34.708 28.3495 34.656 28.3335L34.719 28.2405C34.803 28.2655 34.875 28.3175 34.875 28.4015C34.875 28.5465 34.688 28.5735 34.568 28.5885C34.427 28.6095 34.021 28.6205 34.021 28.6205L34.016 28.6195Z" fill="#F87171"/>
</g>
</g>
<defs>
<clipPath id="clip0_718_2465">
<rect width="64" height="64" fill="white"/>
</clipPath>
<clipPath id="clip1_718_2465">
<rect width="32" height="32" fill="white" transform="translate(16 20)"/>
</clipPath>
</defs>
</svg>
