<svg width="64" height="64" viewBox="0 0 64 64" fill="none" xmlns="http://www.w3.org/2000/svg">
<g clip-path="url(#clip0_717_3943)">
<mask id="path-1-inside-1_717_3943" fill="white">
<path fill-rule="evenodd" clip-rule="evenodd" d="M10.941 3.7636C13.5345 3.18724 16.6233 3 20.1953 3H25.371C28.5803 3 31.5773 4.60392 33.3575 7.27423L35.9571 11.1738C36.5506 12.0638 37.5495 12.5985 38.6194 12.5985H54.7943C59.9055 12.5985 64.0482 16.6336 63.9996 21.8298C63.9413 28.0176 63.9903 34.2078 63.9903 40.3959C63.9903 43.9679 63.8031 47.0567 63.2266 49.6502C62.6423 52.2802 61.6159 54.5925 59.8037 56.4047C57.9915 58.2169 55.6792 59.2433 53.0492 59.8275C50.4557 60.4041 47.3669 60.5913 43.795 60.5913H20.1953C16.6233 60.5913 13.5345 60.4041 10.941 59.8275C8.31119 59.2433 5.99871 58.2169 4.1865 56.4047C2.37433 54.5925 1.34805 52.2802 0.763596 49.6502C0.187236 47.0567 0 43.9679 0 40.3959V23.1953C0 19.6233 0.187236 16.5345 0.763596 13.941C1.34805 11.3112 2.37433 8.99871 4.1865 7.1865C5.99871 5.37433 8.31119 4.34805 10.941 3.7636Z"/>
</mask>
<path fill-rule="evenodd" clip-rule="evenodd" d="M10.941 3.7636C13.5345 3.18724 16.6233 3 20.1953 3H25.371C28.5803 3 31.5773 4.60392 33.3575 7.27423L35.9571 11.1738C36.5506 12.0638 37.5495 12.5985 38.6194 12.5985H54.7943C59.9055 12.5985 64.0482 16.6336 63.9996 21.8298C63.9413 28.0176 63.9903 34.2078 63.9903 40.3959C63.9903 43.9679 63.8031 47.0567 63.2266 49.6502C62.6423 52.2802 61.6159 54.5925 59.8037 56.4047C57.9915 58.2169 55.6792 59.2433 53.0492 59.8275C50.4557 60.4041 47.3669 60.5913 43.795 60.5913H20.1953C16.6233 60.5913 13.5345 60.4041 10.941 59.8275C8.31119 59.2433 5.99871 58.2169 4.1865 56.4047C2.37433 54.5925 1.34805 52.2802 0.763596 49.6502C0.187236 47.0567 0 43.9679 0 40.3959V23.1953C0 19.6233 0.187236 16.5345 0.763596 13.941C1.34805 11.3112 2.37433 8.99871 4.1865 7.1865C5.99871 5.37433 8.31119 4.34805 10.941 3.7636Z" stroke="#075985" stroke-width="12" mask="url(#path-1-inside-1_717_3943)"/>
<path d="M34.6667 28.3333C34.6667 28.687 34.5262 29.0261 34.2761 29.2761C34.0261 29.5262 33.687 29.6667 33.3333 29.6667C31.5652 29.6667 29.8695 30.369 28.6193 31.6193C27.369 32.8695 26.6667 34.5652 26.6667 36.3333C26.6667 36.687 26.5262 37.0261 26.2761 37.2761C26.0261 37.5262 25.687 37.6667 25.3333 37.6667C24.9797 37.6667 24.6406 37.5262 24.3905 37.2761C24.1405 37.0261 24 36.687 24 36.3333C24 34.5652 23.2976 32.8695 22.0474 31.6193C20.7971 30.369 19.1014 29.6667 17.3333 29.6667C16.9797 29.6667 16.6406 29.5262 16.3905 29.2761C16.1405 29.0261 16 28.687 16 28.3333C16 27.9797 16.1405 27.6406 16.3905 27.3905C16.6406 27.1405 16.9797 27 17.3333 27C19.1014 27 20.7971 26.2976 22.0474 25.0474C23.2976 23.7971 24 22.1014 24 20.3333C24 19.9797 24.1405 19.6406 24.3905 19.3905C24.6406 19.1405 24.9797 19 25.3333 19C25.687 19 26.0261 19.1405 26.2761 19.3905C26.5262 19.6406 26.6667 19.9797 26.6667 20.3333C26.6667 22.1014 27.369 23.7971 28.6193 25.0474C29.8695 26.2976 31.5652 27 33.3333 27C33.687 27 34.0261 27.1405 34.2761 27.3905C34.5262 27.6406 34.6667 27.9797 34.6667 28.3333Z" fill="#38BDF8"/>
<path d="M35.9999 45.6663C35.9999 46.02 35.8594 46.3591 35.6094 46.6092C35.3593 46.8592 35.0202 46.9997 34.6666 46.9997C33.9593 46.9997 33.2811 47.2806 32.781 47.7807C32.2809 48.2808 31.9999 48.9591 31.9999 49.6663C31.9999 50.02 31.8594 50.3591 31.6094 50.6092C31.3593 50.8592 31.0202 50.9997 30.6666 50.9997C30.313 50.9997 29.9738 50.8592 29.7238 50.6092C29.4737 50.3591 29.3333 50.02 29.3333 49.6663C29.3333 48.9591 29.0523 48.2808 28.5522 47.7807C28.0521 47.2806 27.3738 46.9997 26.6666 46.9997C26.313 46.9997 25.9738 46.8592 25.7238 46.6092C25.4737 46.3591 25.3333 46.02 25.3333 45.6663C25.3333 45.3127 25.4737 44.9736 25.7238 44.7235C25.9738 44.4735 26.313 44.333 26.6666 44.333C27.3738 44.333 28.0521 44.0521 28.5522 43.552C29.0523 43.0519 29.3333 42.3736 29.3333 41.6663C29.3333 41.3127 29.4737 40.9736 29.7238 40.7235C29.9738 40.4735 30.313 40.333 30.6666 40.333C31.0202 40.333 31.3593 40.4735 31.6094 40.7235C31.8594 40.9736 31.9999 41.3127 31.9999 41.6663C31.9999 42.3736 32.2809 43.0519 32.781 43.552C33.2811 44.0521 33.9593 44.333 34.6666 44.333C35.0202 44.333 35.3593 44.4735 35.6094 44.7235C35.8594 44.9736 35.9999 45.3127 35.9999 45.6663Z" fill="#38BDF8"/>
<path d="M48 36.333C48 36.6866 47.8595 37.0258 47.6095 37.2758C47.3594 37.5259 47.0203 37.6663 46.6667 37.6663C45.2522 37.6663 43.8956 38.2282 42.8954 39.2284C41.8952 40.2286 41.3333 41.5852 41.3333 42.9997C41.3333 43.3533 41.1929 43.6924 40.9428 43.9425C40.6928 44.1925 40.3536 44.333 40 44.333C39.6464 44.333 39.3072 44.1925 39.0572 43.9425C38.8071 43.6924 38.6667 43.3533 38.6667 42.9997C38.6667 41.5852 38.1048 40.2286 37.1046 39.2284C36.1044 38.2282 34.7478 37.6663 33.3333 37.6663C32.9797 37.6663 32.6406 37.5259 32.3905 37.2758C32.1405 37.0258 32 36.6866 32 36.333C32 35.9794 32.1405 35.6402 32.3905 35.3902C32.6406 35.1401 32.9797 34.9997 33.3333 34.9997C34.7478 34.9997 36.1044 34.4378 37.1046 33.4376C38.1048 32.4374 38.6667 31.0808 38.6667 29.6663C38.6667 29.3127 38.8071 28.9736 39.0572 28.7235C39.3072 28.4735 39.6464 28.333 40 28.333C40.3536 28.333 40.6928 28.4735 40.9428 28.7235C41.1929 28.9736 41.3333 29.3127 41.3333 29.6663C41.3333 31.0808 41.8952 32.4374 42.8954 33.4376C43.8956 34.4378 45.2522 34.9997 46.6667 34.9997C47.0203 34.9997 47.3594 35.1401 47.6095 35.3902C47.8595 35.6402 48 35.9794 48 36.333Z" fill="#38BDF8"/>
</g>
<defs>
<clipPath id="clip0_717_3943">
<rect width="64" height="64" fill="white"/>
</clipPath>
</defs>
</svg>
