<svg width="64" height="64" viewBox="0 0 64 64" fill="none" xmlns="http://www.w3.org/2000/svg">
<g clip-path="url(#clip0_712_2832)">
<mask id="path-1-inside-1_712_2832" fill="white">
<path fill-rule="evenodd" clip-rule="evenodd" d="M10.941 3.7636C13.5345 3.18724 16.6233 3 20.1953 3H25.371C28.5803 3 31.5773 4.60392 33.3575 7.27423L35.9571 11.1738C36.5506 12.0638 37.5495 12.5985 38.6194 12.5985H54.7943C59.9055 12.5985 64.0482 16.6336 63.9996 21.8298C63.9413 28.0176 63.9903 34.2078 63.9903 40.3959C63.9903 43.9679 63.8031 47.0567 63.2266 49.6502C62.6423 52.2802 61.6159 54.5925 59.8037 56.4047C57.9915 58.2169 55.6792 59.2433 53.0492 59.8275C50.4557 60.4041 47.3669 60.5913 43.795 60.5913H20.1953C16.6233 60.5913 13.5345 60.4041 10.941 59.8275C8.31119 59.2433 5.99871 58.2169 4.1865 56.4047C2.37433 54.5925 1.34805 52.2802 0.763597 49.6502C0.187236 47.0567 0 43.9679 0 40.3959V23.1953C0 19.6233 0.187236 16.5345 0.763597 13.941C1.34805 11.3112 2.37433 8.99871 4.1865 7.1865C5.99871 5.37433 8.31119 4.34805 10.941 3.7636Z"/>
</mask>
<path fill-rule="evenodd" clip-rule="evenodd" d="M10.941 3.7636C13.5345 3.18724 16.6233 3 20.1953 3H25.371C28.5803 3 31.5773 4.60392 33.3575 7.27423L35.9571 11.1738C36.5506 12.0638 37.5495 12.5985 38.6194 12.5985H54.7943C59.9055 12.5985 64.0482 16.6336 63.9996 21.8298C63.9413 28.0176 63.9903 34.2078 63.9903 40.3959C63.9903 43.9679 63.8031 47.0567 63.2266 49.6502C62.6423 52.2802 61.6159 54.5925 59.8037 56.4047C57.9915 58.2169 55.6792 59.2433 53.0492 59.8275C50.4557 60.4041 47.3669 60.5913 43.795 60.5913H20.1953C16.6233 60.5913 13.5345 60.4041 10.941 59.8275C8.31119 59.2433 5.99871 58.2169 4.1865 56.4047C2.37433 54.5925 1.34805 52.2802 0.763597 49.6502C0.187236 47.0567 0 43.9679 0 40.3959V23.1953C0 19.6233 0.187236 16.5345 0.763597 13.941C1.34805 11.3112 2.37433 8.99871 4.1865 7.1865C5.99871 5.37433 8.31119 4.34805 10.941 3.7636Z" stroke="#991B1B" stroke-width="12" mask="url(#path-1-inside-1_712_2832)"/>
<path d="M19.1111 41.1289C18.2819 42.2553 17.896 43.6474 18.027 45.04C18.1579 46.4325 18.7965 47.7283 19.8211 48.6804C20.8457 49.6326 22.1848 50.1745 23.5832 50.2032C24.9816 50.2318 26.3417 49.745 27.4044 48.8356C25.4232 48.4946 23.584 47.5844 22.1113 46.2159C20.6387 44.8474 19.5962 43.0798 19.1111 41.1289Z" fill="#F87171"/>
<path d="M22.8267 32.915C21.3698 34.5266 20.5825 36.6332 20.6252 38.8052C20.6679 40.9773 21.5374 43.0513 23.0565 44.6043C24.5755 46.1574 26.6298 47.0727 28.8004 47.1634C30.9709 47.2542 33.0944 46.5137 34.7378 45.0928C31.584 44.9351 28.6058 43.5936 26.3978 41.3362C24.1898 39.0788 22.9145 36.0715 22.8267 32.915Z" fill="#F87171"/>
<path d="M35.36 21.7773C37.4897 21.7774 39.5715 22.4085 41.3426 23.5911C43.1137 24.7738 44.4945 26.4547 45.3107 28.4218C46.1269 30.3888 46.3418 32.5536 45.9283 34.6427C45.5147 36.7318 44.4913 38.6514 42.9873 40.1592C41.4833 41.6669 39.5662 42.695 37.4781 43.1137C35.39 43.5324 33.2247 43.3229 31.2557 42.5116C29.2867 41.7002 27.6023 40.3236 26.4153 38.5554C25.2283 36.7872 24.592 34.707 24.5867 32.5773C24.5832 31.1603 24.8593 29.7565 25.3991 28.4464C25.9389 27.1362 26.7319 25.9454 27.7327 24.9422C28.7334 23.939 29.9223 23.143 31.2311 22.6C32.5399 22.0569 33.943 21.7773 35.36 21.7773Z" fill="#F87171"/>
</g>
<defs>
<clipPath id="clip0_712_2832">
<rect width="64" height="64" fill="white"/>
</clipPath>
</defs>
</svg>
