<svg width="64" height="64" viewBox="0 0 64 64" fill="none" xmlns="http://www.w3.org/2000/svg">
<g clip-path="url(#clip0_711_2531)">
<path fill-rule="evenodd" clip-rule="evenodd" d="M10.9409 3.7636C13.5344 3.18724 16.6232 3 20.1952 3H25.3708C28.5802 3 31.5772 4.60392 33.3574 7.27423L35.957 11.1738C36.5505 12.0638 37.5494 12.5985 38.6193 12.5985H54.7941C59.9054 12.5985 64.0481 16.6336 63.9995 21.8298C63.9412 28.0176 63.9902 34.2078 63.9902 40.3959C63.9902 43.9679 63.803 47.0567 63.2265 49.6502C62.6422 52.2802 61.6158 54.5925 59.8036 56.4047C57.9914 58.2169 55.6791 59.2433 53.0491 59.8275C50.4556 60.4041 47.3668 60.5913 43.7948 60.5913H20.1952C16.6232 60.5913 13.5344 60.4041 10.9409 59.8275C8.31107 59.2433 5.99858 58.2169 4.18638 56.4047C2.37421 54.5925 1.34793 52.2802 0.763475 49.6502C0.187114 47.0567 -0.00012207 43.9679 -0.00012207 40.3959V23.1953C-0.00012207 19.6233 0.187114 16.5345 0.763475 13.941C1.34793 11.3112 2.37421 8.99871 4.18638 7.1865C5.99858 5.37433 8.31107 4.34805 10.9409 3.7636Z" fill="#9F1239"/>
<path d="M16 31.5809C16 27.5272 16 25.5004 16.7889 23.9521C17.4828 22.5901 18.5901 21.4828 19.9521 20.7889C21.5004 20 23.5272 20 27.5809 20H36.4191C40.4728 20 42.4997 20 44.0479 20.7889C45.4098 21.4828 46.5171 22.5901 47.2111 23.9521C48 25.5004 48 27.5272 48 31.5809V40.4191C48 44.4728 48 46.4997 47.2111 48.0479C46.5171 49.4098 45.4098 50.5171 44.0479 51.2111C42.4997 52 40.4728 52 36.4191 52H27.5809C23.5272 52 21.5004 52 19.9521 51.2111C18.5901 50.5171 17.4828 49.4098 16.7889 48.0479C16 46.4997 16 44.4728 16 40.4191V31.5809Z" fill="#FB7185"/>
<path d="M41.1887 38.1687C39.6945 36.5303 35.623 37.2471 34.6393 37.3495C33.2447 35.9159 32.261 34.2903 31.8626 33.6759C32.3607 32.1399 32.7591 30.4119 32.7591 28.7735C32.7591 27.2375 32.1615 25.7143 30.5801 25.7143C29.9825 25.7143 29.4845 26.0215 29.1856 26.5335C28.4883 27.7623 28.7871 30.2071 29.8829 32.7543C29.2851 34.5975 28.2891 37.3495 27.1062 39.4871C25.5125 40.1015 22.0385 41.7271 21.7397 43.5703C21.6401 44.0823 21.8393 44.6967 22.2377 45.0039C22.6362 45.4135 23.1342 45.5159 23.6323 45.5159C25.7117 45.5159 27.8034 42.5591 29.2976 39.8967C30.493 39.4871 32.3731 38.8727 34.2657 38.5655C36.4447 40.6135 38.4369 40.9079 39.433 40.9079C40.8277 40.9079 41.3257 40.2935 41.5125 39.7815C41.7739 39.2951 41.5871 38.5783 41.1887 38.1687ZM39.7942 39.1927C39.6945 39.6023 39.1965 40.0119 38.3 39.8071C37.2042 39.4999 36.2206 38.9879 35.4238 38.2711C36.121 38.1687 37.8019 37.9639 38.9973 38.1687C39.3957 38.2711 39.8937 38.5783 39.7942 39.1927ZM30.1568 26.9431C30.2565 26.7383 30.4557 26.6359 30.6549 26.6359C31.1529 26.6359 31.2525 27.2503 31.2525 27.7623C31.1529 28.9911 30.9537 30.3095 30.5552 31.4359C29.7584 29.1959 29.8579 27.5575 30.1568 26.9431ZM30.0571 38.4759C30.5552 37.5543 31.1529 35.8263 31.3521 35.2119C31.8502 36.1335 32.7466 37.1575 33.1451 37.6567C33.2447 37.5671 31.4518 37.9639 30.0571 38.4759ZM26.6829 40.8311C25.3008 43.0711 24.0058 44.5047 23.2089 44.5047C23.1093 44.5047 22.9101 44.5047 22.8105 44.4023C22.7109 44.1975 22.6113 43.9927 22.7109 43.7879C22.8105 42.9687 24.4043 41.8423 26.6829 40.8311Z" fill="#212529"/>
</g>
<defs>
<clipPath id="clip0_711_2531">
<rect width="64" height="64" fill="white"/>
</clipPath>
</defs>
</svg>
