<svg width="64" height="64" viewBox="0 0 64 64" fill="none" xmlns="http://www.w3.org/2000/svg">
<g clip-path="url(#clip0_715_3592)">
<path fill-rule="evenodd" clip-rule="evenodd" d="M10.941 3.7636C13.5345 3.18724 16.6233 3 20.1953 3H25.371C28.5803 3 31.5773 4.60392 33.3575 7.27423L35.9571 11.1738C36.5506 12.0638 37.5495 12.5985 38.6194 12.5985H54.7943C59.9055 12.5985 64.0482 16.6336 63.9996 21.8298C63.9413 28.0176 63.9903 34.2078 63.9903 40.3959C63.9903 43.9679 63.8031 47.0567 63.2266 49.6502C62.6423 52.2802 61.6159 54.5925 59.8037 56.4047C57.9915 58.2169 55.6792 59.2433 53.0492 59.8275C50.4557 60.4041 47.3669 60.5913 43.795 60.5913H20.1953C16.6233 60.5913 13.5345 60.4041 10.941 59.8275C8.31119 59.2433 5.99871 58.2169 4.1865 56.4047C2.37433 54.5925 1.34805 52.2802 0.763597 49.6502C0.187236 47.0567 0 43.9679 0 40.3959V23.1953C0 19.6233 0.187236 16.5345 0.763597 13.941C1.34805 11.3112 2.37433 8.99871 4.1865 7.1865C5.99871 5.37433 8.31119 4.34805 10.941 3.7636Z" fill="#495057"/>
<g clip-path="url(#clip1_715_3592)">
<path d="M20.0039 51.489V43.9063C20.0132 43.509 20.2626 43.1716 20.6132 43.0343L20.6199 43.0316L30.5572 39.8836L20.6186 36.729C20.3772 36.637 20.1879 36.4556 20.0879 36.2263L20.0852 36.2196C20.0346 36.1343 20.0039 36.033 20.0039 35.9236C20.0039 35.917 20.0039 35.9103 20.0039 35.905V35.9063V28.2703C20.0039 28.2663 20.0039 28.261 20.0039 28.257C20.0039 28.1463 20.0346 28.0423 20.0892 27.9543L20.0879 27.957C20.1906 27.721 20.3799 27.5396 20.6146 27.4516L20.6212 27.449L44.0186 20.0303C44.0666 20.0116 44.1226 20.001 44.1799 20.001C44.4332 20.001 44.6372 20.2063 44.6372 20.4583C44.6372 20.4783 44.6359 20.497 44.6332 20.517V20.5143V28.0956C44.6226 28.493 44.3732 28.829 44.0239 28.9676L44.0172 28.9703L34.1839 32.0876L44.0212 35.2063C44.3786 35.3463 44.6279 35.6836 44.6372 36.081V36.0823V43.665V43.669C44.6372 43.717 44.6319 43.765 44.6226 43.8103L44.6239 43.8063C44.5666 44.1503 44.3346 44.429 44.0239 44.5503L44.0172 44.553L20.6186 51.9716C20.5679 51.989 20.5092 51.9996 20.4479 52.001C20.1999 51.9943 20.0012 51.7903 20.0012 51.541C20.0012 51.5223 20.0026 51.5036 20.0052 51.485V51.4876L20.0039 51.489Z" fill="#CED4DA"/>
</g>
</g>
<defs>
<clipPath id="clip0_715_3592">
<rect width="64" height="64" fill="white"/>
</clipPath>
<clipPath id="clip1_715_3592">
<rect width="32" height="32" fill="white" transform="translate(16 20)"/>
</clipPath>
</defs>
</svg>
