<svg width="63" height="63" viewBox="0 0 63 63" fill="none" xmlns="http://www.w3.org/2000/svg">
<g clip-path="url(#clip0_715_2816)">
<path fill-rule="evenodd" clip-rule="evenodd" d="M10.7701 3.70479C13.323 3.13744 16.3636 2.95312 19.8798 2.95312H24.9746C28.1337 2.95312 31.0839 4.53198 32.8363 7.16057L35.3953 10.9992C35.9795 11.8753 36.9628 12.4017 38.016 12.4017H53.9381C58.9695 12.4017 63.0475 16.3737 62.9996 21.4887C62.9423 27.5799 62.9905 33.6733 62.9905 39.7647C62.9905 43.2809 62.8062 46.3214 62.2387 48.8744C61.6636 51.4633 60.6532 53.7395 58.8693 55.5234C57.0854 57.3073 54.8093 58.3176 52.2203 58.8927C49.6673 59.4603 46.6268 59.6445 43.1107 59.6445H19.8798C16.3636 59.6445 13.323 59.4603 10.7701 58.8927C8.18133 58.3176 5.90498 57.3073 4.12109 55.5234C2.33723 53.7395 1.32699 51.4633 0.751665 48.8744C0.18431 46.3214 0 43.2809 0 39.7647V22.8329C0 19.3167 0.18431 16.2762 0.751665 13.7232C1.32699 11.1345 2.33723 8.8581 4.12109 7.07421C5.90498 5.29035 8.18133 4.28011 10.7701 3.70479Z" fill="#115E59"/>
<path d="M29.5445 29.7014V28.1791C29.5445 25.7356 25.889 24.4557 22.2722 24.4557C18.6555 24.4557 15 25.7453 15 28.1791V38.1954C15 40.2898 17.6859 41.5213 20.7208 41.8413L20.8178 41.7734V35.2768C20.8178 32.2225 24.4054 29.9535 29.5445 29.7014Z" fill="#2DD4BF"/>
<path d="M31.4838 33.6575C31.027 32.8656 30.8916 31.9284 31.1056 31.0395H30.4656C25.6854 31.0395 22.0783 32.8624 22.0783 35.2865V47.213C22.0783 49.6371 25.6854 51.46 30.4656 51.46C35.2459 51.46 38.853 49.6371 38.853 47.213V45.1186C36.4424 46.8876 33.5016 47.7836 30.5141 47.659C28.532 47.6932 26.5603 47.3646 24.6963 46.6894V45.012C26.5329 45.7992 28.5163 46.186 30.5141 46.1464C34.5963 46.1464 37.9318 44.9538 38.8821 43.0145V40.3577C37.1076 41.8412 34.1212 42.8109 30.5141 42.8109C28.532 42.845 26.5603 42.5164 24.6963 41.8413V40.125C26.5329 40.9123 28.5163 41.299 30.5141 41.2595C34.5963 41.2595 37.9318 40.1832 38.8821 38.2439V35.4417H34.6157C33.9825 35.448 33.3589 35.2862 32.8086 34.9728C32.2584 34.6594 31.8012 34.2055 31.4838 33.6575Z" fill="#2DD4BF"/>
<path d="M34.3927 25.1636C32.6958 25.7744 31.4838 26.7925 31.4838 28.1888V29.7014H31.7456L34.3927 25.1636Z" fill="#2DD4BF"/>
<path d="M45.718 35.4417H40.2105V41.7734L40.2589 41.8316C43.2939 41.5213 45.9798 40.2801 45.9798 38.1954V35.4223L45.718 35.4417Z" fill="#2DD4BF"/>
<path d="M39.0954 21.6147L33.5491 31.1753C33.42 31.3647 33.346 31.5861 33.3351 31.815C33.3242 32.0439 33.3768 32.2714 33.4873 32.4722C33.5977 32.673 33.7616 32.8393 33.9608 32.9527C34.16 33.0661 34.3866 33.1221 34.6157 33.1146H45.718C45.947 33.1221 46.1737 33.0661 46.3729 32.9527C46.572 32.8393 46.7359 32.673 46.8464 32.4722C46.9568 32.2714 47.0095 32.0439 46.9986 31.815C46.9877 31.5861 46.9136 31.3647 46.7846 31.1753L41.2383 21.6147C41.1289 21.4276 40.9724 21.2724 40.7845 21.1646C40.5965 21.0567 40.3835 21 40.1668 21C39.9501 21 39.7372 21.0567 39.5492 21.1646C39.3612 21.2724 39.2048 21.4276 39.0954 21.6147Z" fill="#2DD4BF"/>
</g>
<defs>
<clipPath id="clip0_715_2816">
<rect width="63" height="63" fill="white"/>
</clipPath>
</defs>
</svg>
