<svg width="64" height="64" viewBox="0 0 64 64" fill="none" xmlns="http://www.w3.org/2000/svg">
<g clip-path="url(#clip0_715_2521)">
<mask id="path-1-inside-1_715_2521" fill="white">
<path fill-rule="evenodd" clip-rule="evenodd" d="M10.941 3.7636C13.5345 3.18724 16.6233 3 20.1953 3H25.371C28.5803 3 31.5773 4.60392 33.3575 7.27423L35.9571 11.1738C36.5506 12.0638 37.5495 12.5985 38.6194 12.5985H54.7943C59.9055 12.5985 64.0482 16.6336 63.9996 21.8298C63.9413 28.0176 63.9903 34.2078 63.9903 40.3959C63.9903 43.9679 63.8031 47.0567 63.2266 49.6502C62.6423 52.2802 61.6159 54.5925 59.8037 56.4047C57.9915 58.2169 55.6792 59.2433 53.0492 59.8275C50.4557 60.4041 47.3669 60.5913 43.795 60.5913H20.1953C16.6233 60.5913 13.5345 60.4041 10.941 59.8275C8.31119 59.2433 5.99871 58.2169 4.1865 56.4047C2.37433 54.5925 1.34805 52.2802 0.763597 49.6502C0.187236 47.0567 0 43.9679 0 40.3959V23.1953C0 19.6233 0.187236 16.5345 0.763597 13.941C1.34805 11.3112 2.37433 8.99871 4.1865 7.1865C5.99871 5.37433 8.31119 4.34805 10.941 3.7636Z"/>
</mask>
<path fill-rule="evenodd" clip-rule="evenodd" d="M10.941 3.7636C13.5345 3.18724 16.6233 3 20.1953 3H25.371C28.5803 3 31.5773 4.60392 33.3575 7.27423L35.9571 11.1738C36.5506 12.0638 37.5495 12.5985 38.6194 12.5985H54.7943C59.9055 12.5985 64.0482 16.6336 63.9996 21.8298C63.9413 28.0176 63.9903 34.2078 63.9903 40.3959C63.9903 43.9679 63.8031 47.0567 63.2266 49.6502C62.6423 52.2802 61.6159 54.5925 59.8037 56.4047C57.9915 58.2169 55.6792 59.2433 53.0492 59.8275C50.4557 60.4041 47.3669 60.5913 43.795 60.5913H20.1953C16.6233 60.5913 13.5345 60.4041 10.941 59.8275C8.31119 59.2433 5.99871 58.2169 4.1865 56.4047C2.37433 54.5925 1.34805 52.2802 0.763597 49.6502C0.187236 47.0567 0 43.9679 0 40.3959V23.1953C0 19.6233 0.187236 16.5345 0.763597 13.941C1.34805 11.3112 2.37433 8.99871 4.1865 7.1865C5.99871 5.37433 8.31119 4.34805 10.941 3.7636Z" stroke="#1E40AF" stroke-width="12" mask="url(#path-1-inside-1_715_2521)"/>
<path d="M32 24C29.5049 24 27.0342 24.4914 24.729 25.4463C22.4238 26.4011 20.3293 27.8007 18.565 29.565C16.8007 31.3293 15.4011 33.4238 14.4463 35.729C13.4914 38.0342 13 40.5049 13 43C13.0079 45.1391 13.377 47.2615 14.0916 49.2777C13.7883 48.0103 13.6317 46.7122 13.6247 45.409C13.6249 40.8965 15.4175 36.5689 18.6084 33.3781C21.7992 30.1872 26.1268 28.3946 30.6393 28.3944C34.0136 28.3977 37.3106 29.4041 40.1115 31.2858L43.5008 27.8965C40.1966 25.3746 36.1566 24.0058 32 24ZM46.485 29.7056C46.0865 29.7123 45.6818 29.8675 45.347 30.1509L30.7909 42.4712C30.1214 43.0379 28.5486 44.7068 30.7877 46.946C33.0273 49.1855 34.6955 47.6091 35.2625 46.9398L47.5859 32.3898C48.1528 31.7205 48.2061 30.7711 47.5859 30.1509C47.2757 29.8408 46.8836 29.6989 46.485 29.7056ZM49.4136 35.4173L46.2129 38.618C47.133 40.7132 47.621 42.9724 47.6478 45.2606H50.8392C50.9377 44.5109 50.9914 43.7561 51 43C50.9976 40.3903 50.4575 37.8091 49.4136 35.4173Z" fill="#60A5FA"/>
</g>
<defs>
<clipPath id="clip0_715_2521">
<rect width="64" height="64" fill="white"/>
</clipPath>
</defs>
</svg>
