<svg width="63" height="63" viewBox="0 0 63 63" fill="none" xmlns="http://www.w3.org/2000/svg">
<g clip-path="url(#clip0_715_3018)">
<mask id="path-1-inside-1_715_3018" fill="white">
<path fill-rule="evenodd" clip-rule="evenodd" d="M10.7701 3.70479C13.323 3.13744 16.3636 2.95312 19.8798 2.95312H24.9746C28.1337 2.95312 31.0839 4.53198 32.8363 7.16057L35.3953 10.9992C35.9795 11.8753 36.9628 12.4017 38.016 12.4017H53.9381C58.9695 12.4017 63.0475 16.3737 62.9996 21.4887C62.9423 27.5799 62.9905 33.6733 62.9905 39.7647C62.9905 43.2809 62.8062 46.3214 62.2387 48.8744C61.6636 51.4633 60.6532 53.7395 58.8693 55.5234C57.0854 57.3073 54.8093 58.3176 52.2203 58.8927C49.6673 59.4603 46.6268 59.6445 43.1107 59.6445H19.8798C16.3636 59.6445 13.323 59.4603 10.7701 58.8927C8.18133 58.3176 5.90498 57.3073 4.12109 55.5234C2.33723 53.7395 1.32699 51.4633 0.751665 48.8744C0.18431 46.3214 0 43.2809 0 39.7647V22.8329C0 19.3167 0.18431 16.2762 0.751665 13.7232C1.32699 11.1345 2.33723 8.8581 4.12109 7.07421C5.90498 5.29035 8.18133 4.28011 10.7701 3.70479Z"/>
</mask>
<path fill-rule="evenodd" clip-rule="evenodd" d="M10.7701 3.70479C13.323 3.13744 16.3636 2.95312 19.8798 2.95312H24.9746C28.1337 2.95312 31.0839 4.53198 32.8363 7.16057L35.3953 10.9992C35.9795 11.8753 36.9628 12.4017 38.016 12.4017H53.9381C58.9695 12.4017 63.0475 16.3737 62.9996 21.4887C62.9423 27.5799 62.9905 33.6733 62.9905 39.7647C62.9905 43.2809 62.8062 46.3214 62.2387 48.8744C61.6636 51.4633 60.6532 53.7395 58.8693 55.5234C57.0854 57.3073 54.8093 58.3176 52.2203 58.8927C49.6673 59.4603 46.6268 59.6445 43.1107 59.6445H19.8798C16.3636 59.6445 13.323 59.4603 10.7701 58.8927C8.18133 58.3176 5.90498 57.3073 4.12109 55.5234C2.33723 53.7395 1.32699 51.4633 0.751665 48.8744C0.18431 46.3214 0 43.2809 0 39.7647V22.8329C0 19.3167 0.18431 16.2762 0.751665 13.7232C1.32699 11.1345 2.33723 8.8581 4.12109 7.07421C5.90498 5.29035 8.18133 4.28011 10.7701 3.70479Z" stroke="#115E59" stroke-width="12" mask="url(#path-1-inside-1_715_3018)"/>
<path d="M41.4 48.6C41.4 49.0747 41.2592 49.5387 40.9955 49.9334C40.7318 50.328 40.357 50.6357 39.9184 50.8173C39.4799 50.999 38.9973 51.0465 38.5318 50.9539C38.0662 50.8613 37.6386 50.6327 37.3029 50.2971C36.9673 49.9614 36.7387 49.5338 36.6461 49.0682C36.5535 48.6027 36.601 48.1201 36.7827 47.6816C36.9643 47.243 37.272 46.8682 37.6666 46.6045C38.0613 46.3408 38.5253 46.2 39 46.2C39.6365 46.2 40.247 46.4529 40.6971 46.9029C41.1471 47.353 41.4 47.9635 41.4 48.6ZM29.4 46.2C28.9253 46.2 28.4613 46.3408 28.0666 46.6045C27.672 46.8682 27.3643 47.243 27.1827 47.6816C27.001 48.1201 26.9535 48.6027 27.0461 49.0682C27.1387 49.5338 27.3673 49.9614 27.7029 50.2971C28.0386 50.6327 28.4662 50.8613 28.9318 50.9539C29.3973 51.0465 29.8799 50.999 30.3184 50.8173C30.757 50.6357 31.1318 50.328 31.3955 49.9334C31.6592 49.5387 31.8 49.0747 31.8 48.6C31.8 47.9635 31.5471 47.353 31.0971 46.9029C30.647 46.4529 30.0365 46.2 29.4 46.2Z" fill="#2DD4BF"/>
<path d="M40.92 38.2C41.2404 38.2003 41.5536 38.1044 41.8189 37.9247C42.0842 37.745 42.2894 37.4897 42.408 37.192L46.888 25.992C46.9846 25.7497 47.0206 25.4875 46.9927 25.2281C46.9648 24.9688 46.8739 24.7202 46.728 24.504C46.5812 24.2869 46.3834 24.1091 46.1518 23.9864C45.9203 23.8636 45.6621 23.7996 45.4 23.8H24.408L23.288 21.016C23.0509 20.4206 22.6404 19.9101 22.1098 19.5507C21.5792 19.1912 20.9529 18.9994 20.312 19H16.6C16.1757 19 15.7687 19.1686 15.4686 19.4686C15.1686 19.7687 15 20.1757 15 20.6C15 21.0243 15.1686 21.4313 15.4686 21.7314C15.7687 22.0314 16.1757 22.2 16.6 22.2H20.312L26.04 36.6L24.328 39.976C24.0856 40.4637 23.9718 41.0053 23.9972 41.5493C24.0226 42.0934 24.1865 42.622 24.4733 43.085C24.76 43.548 25.1603 43.9302 25.636 44.1953C26.1118 44.4604 26.6474 44.5997 27.192 44.6H42.2C42.6243 44.6 43.0313 44.4314 43.3314 44.1314C43.6314 43.8313 43.8 43.4243 43.8 43C43.8 42.5757 43.6314 42.1687 43.3314 41.8686C43.0313 41.5686 42.6243 41.4 42.2 41.4H27.192L28.792 38.2H40.92Z" fill="#2DD4BF"/>
</g>
<defs>
<clipPath id="clip0_715_3018">
<rect width="63" height="63" fill="white"/>
</clipPath>
</defs>
</svg>
