<svg width="64" height="64" viewBox="0 0 64 64" fill="none" xmlns="http://www.w3.org/2000/svg">
<g clip-path="url(#clip0_718_2612)">
<path fill-rule="evenodd" clip-rule="evenodd" d="M10.941 3.7636C13.5345 3.18724 16.6233 3 20.1953 3H25.371C28.5803 3 31.5773 4.60392 33.3575 7.27423L35.9571 11.1738C36.5506 12.0638 37.5495 12.5985 38.6194 12.5985H54.7943C59.9055 12.5985 64.0482 16.6336 63.9996 21.8298C63.9413 28.0176 63.9903 34.2078 63.9903 40.3959C63.9903 43.9679 63.8031 47.0567 63.2266 49.6502C62.6423 52.2802 61.6159 54.5925 59.8037 56.4047C57.9915 58.2169 55.6792 59.2433 53.0492 59.8275C50.4557 60.4041 47.3669 60.5913 43.795 60.5913H20.1953C16.6233 60.5913 13.5345 60.4041 10.941 59.8275C8.31119 59.2433 5.99871 58.2169 4.1865 56.4047C2.37433 54.5925 1.34805 52.2802 0.763597 49.6502C0.187236 47.0567 0 43.9679 0 40.3959V23.1953C0 19.6233 0.187236 16.5345 0.763597 13.941C1.34805 11.3112 2.37433 8.99871 4.1865 7.1865C5.99871 5.37433 8.31119 4.34805 10.941 3.7636Z" fill="#495057"/>
<g clip-path="url(#clip1_718_2612)">
<path d="M47.738 34.6703C46.074 33.0703 37.7529 32.0724 35.1277 31.782C35.2379 31.5331 35.3493 31.2238 35.4406 30.905L35.4536 30.8504C35.7558 30.7118 36.1351 30.5672 36.525 30.4451L36.5985 30.425C36.6471 30.5696 36.877 31.1195 37.0026 31.3802C42.2838 31.526 42.554 27.4573 42.7686 26.3408C42.9203 24.7218 43.6634 23.3008 44.7774 22.2756L44.7822 22.2721C42.0859 21.4851 38.2032 23.4857 36.9031 26.4759C36.4883 26.3124 35.9976 26.1713 35.4891 26.0789L35.4394 26.0718C34.6157 23.001 31.8577 20.7764 28.5795 20.7764C28.5677 20.7764 28.5558 20.7764 28.5428 20.7764H28.5452C25.2397 20.819 22.2506 22.137 20.0391 24.2596L20.0438 24.2561C18.8219 25.4199 17.8346 26.8173 17.1531 28.3793L17.1211 28.4611C16.4112 30.0931 15.9988 31.9941 15.9988 33.9924V34.1192V34.1133C15.9988 41.1604 20.8094 47.3364 23.5271 47.3364C24.6329 47.3198 25.5751 46.6347 25.9686 45.6676L25.9745 45.6498C26.1748 46.1974 26.7911 47.8946 26.9937 48.326C27.2936 48.966 28.6779 49.5195 29.2859 48.8546C29.6343 49.0916 30.0657 49.2327 30.5292 49.2327C31.2332 49.2327 31.8601 48.9067 32.269 48.3971L32.2726 48.3924C32.4788 48.4623 32.717 48.5038 32.9647 48.5038C34.0243 48.5038 34.9108 47.7583 35.1253 46.7627L35.1277 46.7485C35.8637 46.7094 36.2251 45.67 36.0651 44.8534C35.5034 43.4976 34.874 42.3373 34.1416 41.2504L34.1878 41.3227C35.1656 42.118 37.6414 42.342 37.9413 41.3227C39.5176 42.5589 41.9733 41.9118 42.1677 40.9044C44.0829 41.4021 46.2779 40.3082 45.9188 38.9856C48.9955 38.7722 48.602 35.5011 47.7392 34.6715L47.738 34.6703ZM39.7274 29.2457C38.97 28.9458 38.0942 28.7598 37.1769 28.7325H37.165C36.1446 28.7325 35.5212 29.3109 34.56 29.3109C34.5244 29.3121 34.4817 29.3133 34.4391 29.3133C34.1001 29.3133 33.773 29.2635 33.4649 29.1698L33.4886 29.1758C33.7505 29.4353 34.112 29.5953 34.5102 29.5953C34.5671 29.5953 34.6228 29.5918 34.6773 29.5858L34.6702 29.587C35.2948 29.5195 35.866 29.3891 36.4089 29.1995L36.3543 29.2161C36.3626 29.3405 36.3757 29.4614 36.3934 29.5847C35.4074 29.8798 34.5493 30.2697 33.7576 30.7568L33.805 30.7296C33.5952 30.2733 33.4732 29.7387 33.4732 29.1758C33.4732 28.2821 33.7813 27.4608 34.2969 26.8125L34.2909 26.8208C36.4171 26.969 38.3099 27.8673 39.7286 29.2493L39.7262 29.2469L39.7274 29.2457ZM40.8723 29.1224L40.4681 28.7432C40.0782 28.3758 39.6551 28.0297 39.2106 27.7133L39.1739 27.6884C39.8163 26.2733 40.6731 25.0656 41.7173 24.051L41.7197 24.0487C40.3709 24.793 39.3303 25.9556 38.7591 27.3589L38.7437 27.4027C38.4545 27.2143 38.1108 27.0199 37.7564 26.8457L37.696 26.8184C38.7354 24.6934 40.7929 23.2084 43.2166 22.9974L43.2426 22.995C41.6249 24.4623 42.2329 27.3873 40.8699 29.1213L40.8723 29.1224ZM37.549 30.4937C37.3534 30.0824 37.2314 29.6024 37.2124 29.0952V29.0881C37.5644 29.1035 37.8963 29.1485 38.2174 29.222L38.1795 29.2149C38.1511 29.395 38.1321 29.6084 38.1262 29.8241V29.8312C38.1831 29.7328 38.3419 29.3938 38.4071 29.2599C39.0803 29.3773 39.6776 29.5515 40.2453 29.7826L40.186 29.7613C39.4394 30.2211 38.5339 30.4937 37.5656 30.4937C37.5597 30.4937 37.5549 30.4937 37.549 30.4937ZM28.0142 27.8626C27.36 27.6279 27.36 27.0389 28.0142 26.8042C28.6684 26.5696 29.4886 26.8647 29.4886 27.3328C29.4886 27.801 28.6672 28.0973 28.0142 27.8626ZM30.1937 28.0807V28.0795C30.1937 27.1467 29.4376 26.3918 28.506 26.3918C27.5745 26.3918 26.8183 27.1479 26.8183 28.0795C26.8183 28.7005 27.1537 29.2445 27.6539 29.5373L27.6622 29.542C27.904 29.683 28.1943 29.766 28.5037 29.766C29.4352 29.766 30.1914 29.0134 30.1961 28.0818L30.1937 28.0807ZM33.9449 25.9568C33.1188 26.8291 32.6103 28.0096 32.6103 29.3085C32.6103 30.3207 32.9185 31.2617 33.4471 32.0404L33.4364 32.0238C32.1031 33.9094 30.0859 35.2356 27.7523 35.6421L27.7001 35.6493C27.8672 35.6599 28.0616 35.667 28.2583 35.667C30.0622 35.667 31.7404 35.1278 33.1413 34.2021L33.1081 34.2223C33.5431 33.9035 33.9117 33.5254 34.2103 33.0952L34.221 33.0798C38.3929 33.382 42.2672 34.1073 45.9757 35.2178L45.5917 35.1195C45.8868 35.3387 46.093 35.6647 46.1523 36.0392L46.1534 36.0475C43.0329 35.6101 37.4068 35.1515 35.9348 35.0733C36.9813 35.2214 44.6068 36.665 45.9294 37.0039C45.4969 37.5787 44.8154 37.9461 44.0486 37.9461C43.7558 37.9461 43.4761 37.8928 43.2177 37.7944L43.2343 37.8004C43.981 38.8173 42.5315 40.0368 40.512 39.366C40.9564 40.3651 39.1644 41.2623 37.1164 40.2229C37.1425 41.222 34.5801 41.337 33.5692 40.2324C33.6213 40.422 33.6865 40.5867 33.7671 40.7408L33.76 40.7266C33.498 43.3755 31.2889 45.4306 28.5973 45.4484H28.5949C22.3964 45.4152 17.3854 40.3829 17.3854 34.1808C17.3854 34.1559 17.3854 34.131 17.3854 34.105V34.1085C17.3854 27.2653 22.4438 22.1583 28.5463 22.1583H28.5772C31.0423 22.1583 33.1413 23.7227 33.9354 25.9141L33.9484 25.9533L33.9449 25.9568Z" fill="#CED4DA"/>
</g>
</g>
<defs>
<clipPath id="clip0_718_2612">
<rect width="64" height="64" fill="white"/>
</clipPath>
<clipPath id="clip1_718_2612">
<rect width="32" height="32" fill="white" transform="translate(16 19)"/>
</clipPath>
</defs>
</svg>
