<svg width="64" height="64" viewBox="0 0 64 64" fill="none" xmlns="http://www.w3.org/2000/svg">
<g clip-path="url(#clip0_712_2621)">
<path fill-rule="evenodd" clip-rule="evenodd" d="M10.941 3.7636C13.5345 3.18724 16.6233 3 20.1953 3H25.371C28.5803 3 31.5773 4.60392 33.3575 7.27423L35.9571 11.1738C36.5506 12.0638 37.5495 12.5985 38.6194 12.5985H54.7943C59.9055 12.5985 64.0482 16.6336 63.9996 21.8298C63.9413 28.0176 63.9903 34.2078 63.9903 40.3959C63.9903 43.9679 63.8031 47.0567 63.2266 49.6502C62.6423 52.2802 61.6159 54.5925 59.8037 56.4047C57.9915 58.2169 55.6792 59.2433 53.0492 59.8275C50.4557 60.4041 47.3669 60.5913 43.795 60.5913H20.1953C16.6233 60.5913 13.5345 60.4041 10.941 59.8275C8.31119 59.2433 5.99871 58.2169 4.1865 56.4047C2.37433 54.5925 1.34805 52.2802 0.763597 49.6502C0.187236 47.0567 0 43.9679 0 40.3959V23.1953C0 19.6233 0.187236 16.5345 0.763597 13.941C1.34805 11.3112 2.37433 8.99871 4.1865 7.1865C5.99871 5.37433 8.31119 4.34805 10.941 3.7636Z" fill="#075985"/>
<g clip-path="url(#clip1_712_2621)">
<path d="M19.8711 41.5743H44.1289C45.0547 41.5743 45.8057 40.8233 45.8057 39.8975V25.6231C45.8057 24.6983 45.0547 23.9473 44.1289 23.9473H19.8711C18.9453 23.9473 18.1953 24.6983 18.1953 25.6231V39.8975C18.1953 40.8233 18.9453 41.5743 19.8711 41.5743ZM20.7578 26.1993H43.2422V38.9278H20.7578V26.1993Z" fill="#38BDF8"/>
<path d="M47.7519 46.2256L44.7617 43.5713C44.5693 43.4014 44.2929 43.3047 44.0009 43.3047H19.999C19.707 43.3047 19.4306 43.4014 19.2383 43.5713L16.2481 46.2256C16.0879 46.3673 16 46.5499 16 46.7384V47.6632C16 47.879 16.2256 48.0528 16.5039 48.0528H47.4961C47.7754 48.0528 48.0001 47.879 48.0001 47.6632V46.7384C48 46.5499 47.9121 46.3673 47.7519 46.2256ZM28.5713 46.5391L29.4366 45.3692H34.9199L35.7842 46.5391H28.5713Z" fill="#38BDF8"/>
</g>
</g>
<defs>
<clipPath id="clip0_712_2621">
<rect width="64" height="64" fill="white"/>
</clipPath>
<clipPath id="clip1_712_2621">
<rect width="32" height="32" fill="white" transform="translate(16 20)"/>
</clipPath>
</defs>
</svg>
