<svg width="63" height="63" viewBox="0 0 63 63" fill="none" xmlns="http://www.w3.org/2000/svg">
<g clip-path="url(#clip0_715_2962)">
<path fill-rule="evenodd" clip-rule="evenodd" d="M10.77 3.70479C13.3229 3.13744 16.3634 2.95312 19.8797 2.95312H24.9744C28.1336 2.95312 31.0838 4.53198 32.8362 7.16057L35.3952 10.9992C35.9794 11.8753 36.9627 12.4017 38.0159 12.4017H53.938C58.9693 12.4017 63.0473 16.3737 62.9995 21.4887C62.9421 27.5799 62.9903 33.6733 62.9903 39.7647C62.9903 43.2809 62.8061 46.3214 62.2385 48.8744C61.6634 51.4633 60.6531 53.7395 58.8692 55.5234C57.0853 57.3073 54.8091 58.3176 52.2202 58.8927C49.6672 59.4603 46.6267 59.6445 43.1105 59.6445H19.8797C16.3634 59.6445 13.3229 59.4603 10.77 58.8927C8.1812 58.3176 5.90486 57.3073 4.12097 55.5234C2.33711 53.7395 1.32687 51.4633 0.751543 48.8744C0.184188 46.3214 -0.00012207 43.2809 -0.00012207 39.7647V22.8329C-0.00012207 19.3167 0.184188 16.2762 0.751543 13.7232C1.32687 11.1345 2.33711 8.8581 4.12097 7.07421C5.90486 5.29035 8.1812 4.28011 10.77 3.70479Z" fill="#9A3412"/>
<path d="M37.704 20H24.296C18.472 20 15 23.472 15 29.296V42.688C15 48.528 18.472 52 24.296 52H37.688C43.512 52 46.984 48.528 46.984 42.704V29.296C47 23.472 43.528 20 37.704 20ZM39.4 36.528C39.4 37.184 38.856 37.728 38.2 37.728C37.544 37.728 37 37.184 37 36.528V31.696L24.648 44.048C24.408 44.288 24.104 44.4 23.8 44.4C23.496 44.4 23.192 44.288 22.952 44.048C22.488 43.584 22.488 42.816 22.952 42.352L35.304 30H30.472C29.816 30 29.272 29.456 29.272 28.8C29.272 28.144 29.816 27.6 30.472 27.6H38.2C38.856 27.6 39.4 28.144 39.4 28.8V36.528Z" fill="#FB923C"/>
</g>
<defs>
<clipPath id="clip0_715_2962">
<rect width="63" height="63" fill="white"/>
</clipPath>
</defs>
</svg>
