<svg width="64" height="64" viewBox="0 0 64 64" fill="none" xmlns="http://www.w3.org/2000/svg">
<g clip-path="url(#clip0_712_2497)">
<path fill-rule="evenodd" clip-rule="evenodd" d="M10.9409 3.7636C13.5344 3.18724 16.6232 3 20.1952 3H25.3708C28.5802 3 31.5772 4.60392 33.3574 7.27423L35.957 11.1738C36.5505 12.0638 37.5494 12.5985 38.6193 12.5985H54.7941C59.9054 12.5985 64.0481 16.6336 63.9995 21.8298C63.9412 28.0176 63.9902 34.2078 63.9902 40.3959C63.9902 43.9679 63.803 47.0567 63.2265 49.6502C62.6422 52.2802 61.6158 54.5925 59.8036 56.4047C57.9914 58.2169 55.6791 59.2433 53.0491 59.8275C50.4556 60.4041 47.3668 60.5913 43.7948 60.5913H20.1952C16.6232 60.5913 13.5344 60.4041 10.9409 59.8275C8.31107 59.2433 5.99858 58.2169 4.18638 56.4047C2.37421 54.5925 1.34793 52.2802 0.763475 49.6502C0.187114 47.0567 -0.00012207 43.9679 -0.00012207 40.3959V23.1953C-0.00012207 19.6233 0.187114 16.5345 0.763475 13.941C1.34793 11.3112 2.37421 8.99871 4.18638 7.1865C5.99858 5.37433 8.31107 4.34805 10.9409 3.7636Z" fill="#9A3412"/>
<path d="M47.1515 29.0663L32.3802 22.0484C32.1439 21.937 31.8703 21.937 31.6347 22.0484L16.8658 29.0663C16.5631 29.2098 16.37 29.5153 16.37 29.8512C16.37 30.1856 16.5631 30.4908 16.8658 30.635L31.6347 37.6518C31.7525 37.7074 31.8798 37.7358 32.0071 37.7358C32.1347 37.7358 32.2624 37.7074 32.3802 37.6518L47.1515 30.635C47.4543 30.4908 47.6474 30.1856 47.6474 29.8512C47.6474 29.5153 47.4543 29.2098 47.1515 29.0663Z" fill="#FB923C"/>
<path d="M32.0074 43.9419C31.8376 43.9419 31.6681 43.905 31.5102 43.8305L16.7417 36.8133C16.1639 36.5387 15.9184 35.8484 16.1924 35.271C16.4667 34.6936 17.1566 34.4478 17.7354 34.7217L32.0067 41.5025L46.2819 34.7217C46.8582 34.4474 47.5499 34.6925 47.8242 35.271C48.0985 35.8487 47.8534 36.5387 47.2749 36.8133L32.5043 43.8305C32.3471 43.9046 32.1773 43.9419 32.0074 43.9419Z" fill="#FB923C"/>
<path d="M32.0074 49.8586C31.8376 49.8586 31.6681 49.8217 31.5102 49.7472L16.7417 42.7304C16.1639 42.4561 15.9184 41.7648 16.1924 41.187C16.4667 40.6085 17.1566 40.3634 17.7354 40.6377L32.0067 47.4182L46.2822 40.6377C46.8596 40.3634 47.5503 40.6085 47.8246 41.187C48.0988 41.7648 47.8537 42.4557 47.276 42.7304L32.5043 49.7472C32.3471 49.8217 32.1773 49.8586 32.0074 49.8586Z" fill="#FB923C"/>
</g>
<defs>
<clipPath id="clip0_712_2497">
<rect width="64" height="64" fill="white"/>
</clipPath>
</defs>
</svg>
