<svg width="64" height="64" viewBox="0 0 64 64" fill="none" xmlns="http://www.w3.org/2000/svg">
<g clip-path="url(#clip0_715_3432)">
<mask id="path-1-inside-1_715_3432" fill="white">
<path fill-rule="evenodd" clip-rule="evenodd" d="M10.941 3.7636C13.5345 3.18724 16.6233 3 20.1953 3H25.371C28.5803 3 31.5773 4.60392 33.3575 7.27423L35.9571 11.1738C36.5506 12.0638 37.5495 12.5985 38.6194 12.5985H54.7943C59.9055 12.5985 64.0482 16.6336 63.9996 21.8298C63.9413 28.0176 63.9903 34.2078 63.9903 40.3959C63.9903 43.9679 63.8031 47.0567 63.2266 49.6502C62.6423 52.2802 61.6159 54.5925 59.8037 56.4047C57.9915 58.2169 55.6792 59.2433 53.0492 59.8275C50.4557 60.4041 47.3669 60.5913 43.795 60.5913H20.1953C16.6233 60.5913 13.5345 60.4041 10.941 59.8275C8.31119 59.2433 5.99871 58.2169 4.1865 56.4047C2.37433 54.5925 1.34805 52.2802 0.763596 49.6502C0.187236 47.0567 0 43.9679 0 40.3959V23.1953C0 19.6233 0.187236 16.5345 0.763596 13.941C1.34805 11.3112 2.37433 8.99871 4.1865 7.1865C5.99871 5.37433 8.31119 4.34805 10.941 3.7636Z"/>
</mask>
<path fill-rule="evenodd" clip-rule="evenodd" d="M10.941 3.7636C13.5345 3.18724 16.6233 3 20.1953 3H25.371C28.5803 3 31.5773 4.60392 33.3575 7.27423L35.9571 11.1738C36.5506 12.0638 37.5495 12.5985 38.6194 12.5985H54.7943C59.9055 12.5985 64.0482 16.6336 63.9996 21.8298C63.9413 28.0176 63.9903 34.2078 63.9903 40.3959C63.9903 43.9679 63.8031 47.0567 63.2266 49.6502C62.6423 52.2802 61.6159 54.5925 59.8037 56.4047C57.9915 58.2169 55.6792 59.2433 53.0492 59.8275C50.4557 60.4041 47.3669 60.5913 43.795 60.5913H20.1953C16.6233 60.5913 13.5345 60.4041 10.941 59.8275C8.31119 59.2433 5.99871 58.2169 4.1865 56.4047C2.37433 54.5925 1.34805 52.2802 0.763596 49.6502C0.187236 47.0567 0 43.9679 0 40.3959V23.1953C0 19.6233 0.187236 16.5345 0.763596 13.941C1.34805 11.3112 2.37433 8.99871 4.1865 7.1865C5.99871 5.37433 8.31119 4.34805 10.941 3.7636Z" stroke="#495057" stroke-width="12" mask="url(#path-1-inside-1_715_3432)"/>
<g clip-path="url(#clip1_715_3432)">
<path d="M47.6253 20.8906L47.5187 20.9426C47.5187 20.9426 41.4347 23.8426 36.5267 24.4786C34.0547 24.7986 30.4533 25.12 27.24 25.3053C25.7953 25.3932 24.3486 25.4453 22.9013 25.4613C21.6787 25.468 20.728 25.4186 20.3013 25.3146C19.2155 25.056 18.1467 24.73 17.1013 24.3386L16.7653 24.2053L17.2267 25.768L16 26.8466L16.3307 27.4293L16.9173 27.4733L18.32 27.648L18.536 28.3333L19.3827 28.4093L19.8067 29.8466L19.9293 29.8546C19.9293 29.8546 21.7133 30.008 22.2787 30.008C22.7653 30.008 23.5187 29.9533 23.708 29.9413L23.74 30.4693L24.1227 30.5413V30.9613L23.0573 31.908L23.2653 31.9453C23.0787 31.9586 22.9627 31.9693 22.5987 31.9853C22.0267 32.008 21.3533 32.012 20.9947 31.9613C20.2133 31.8466 20.0493 31.8466 20.0493 31.8466H19.9733L19.8107 32.02L19.7493 32.6146H19.952L20.0253 34.096L23.936 33.9453L23.6627 38.8546L23.636 39.3173L20.6467 39.148L20.62 38.1333H21.3373L21.4133 37.5733L22.032 37.432L22.3293 37.016L19.5147 36.336L17.2413 37.0106L17.8613 37.528H18.0827L18.116 37.9733L18.7747 38.0106V39.028L17.96 39.2373L18.2133 39.776L18.3533 39.8666V40.9666H18.8107V45.3613L18.056 45.476L18.1867 47.1386L18.632 47.2133L18.5587 50.336L20.9627 50.38L20.536 47.3093L23.1787 47.2453L22.9933 48.6946L22.66 50.0706L26.1373 50.1146L26.1733 47.0746L27.936 46.916L27.84 48.64L27.756 49.96H29.9333L29.8627 46.8933L30.0973 46.9293L30.1867 45.0733H29.8627L29.7853 44.62L29.6107 42.9L29.676 41.0813H30.0693V39.5053L29.584 39.5413L29.6373 38.4666L30.212 38.4093L30.2413 37.94L30.4707 37.9066L31.1507 37.388L28.7147 36.888L26.436 37.3933L26.816 38.0186L27.1347 37.992L27.2067 37.9866L27.252 38.576L27.7987 38.5493L27.804 39.448L25.7693 39.4013L25.84 38.232L25.9187 36.9973V35.38L25.9827 33.844L30.6293 33.6066L36.1707 33.2866L36.2147 34.1853L36.012 36.784L35.928 39.0413L34.168 39.0106L34.16 37.6533L34.9253 37.6253L34.9627 37.128L35.3227 37.0733L35.3067 36.9973L35.5093 36.984L35.896 36.4666L33.216 35.8386L30.5667 36.4066L30.9107 37.0066L31.0973 36.9933V37.112H31.4253V37.648L32.124 37.6586L32.116 38.8H31.4133L31.3947 39.4733L31.644 39.5026L31.616 40.8066L32.1413 40.8333L32.0827 45.6533L31.384 45.7973L31.4053 46.3613H31.64V47.6746H32.0253L31.932 49.2813L31.7827 51.0333L34.676 51.1093L34.584 49.5466L34.4 48.416L34.3707 47.6253L36.1373 47.5933L36.0827 48.9293L36.072 50.7026L37.4493 50.812L39.1187 50.7453L39.8293 50.536L39.496 49.5226L39.4253 48.1893L39.3187 47.412L40.9627 47.352L40.8867 48.3413L40.8787 50.3613L41.8627 50.4533L42.704 50.432L43.2587 50.2586L43.0093 48.36L42.944 47.2106L43.2773 47.1746L43.2853 45.9813L43.392 45.9586L43.356 45.3853H42.952L42.8867 44.6826L42.856 41.0933L43.152 41.0853V39.8826L43.28 39.9013V39.2866L42.8347 39.2506L42.8427 38.136L43.6027 38.068L43.5587 37.5853L43.9053 37.5573L43.8733 37.4013L44.6467 37.0146L41.9053 36.464L39.3973 36.9706L39.7067 37.5466L40.004 37.52L40.0227 37.6226H40.2933L40.308 38.1906L41.0373 38.1826L41.084 39.2133L38.856 39.1973L38.5747 37.2546L38.3373 36.1533L38.144 34.1946L38.244 33.2L43.3733 32.8093L43.3893 31.0546L43.6573 30.988L43.6267 30.4813L43.308 30.2973H43.2587L42.7827 30.364L41.7253 30.5186C41.0044 30.6241 40.2821 30.7202 39.5587 30.8066L39.304 30.8333L39.2853 30.596L38.2387 30.0493L38.2467 29.6826L38.608 29.672L38.6347 28.776C38.7547 28.768 39.104 28.744 39.6627 28.6933C40.308 28.6333 41.0493 28.5533 41.4773 28.4533C42.2733 28.2666 43.4133 28.0786 43.4133 28.0786L43.5147 28.0626L44.0587 26.5853L45.132 26.2733L45.22 26.028L47.5933 25.372L48.0013 25.036L47.0453 22.9506L47.108 22.636L47.5667 22.396L47.9627 21.188L47.6253 20.8906ZM35.768 28.9733L35.7547 29.6746L36.2973 29.6973L36.276 30.124L35.224 30.8146L35.1093 31.1586L32.6293 31.2786L32.6427 31.0333L32.792 30.792L32.8053 30.588L32.8067 30.284L32.896 30.076L32.9373 29.8626V29.74L33.044 29.3093L35.768 28.9733ZM28.86 29.588L28.8027 29.94L29.068 30.252L29.0493 30.768L29.284 31.128L29.2213 31.5653L29.2547 31.612L26.792 31.7106L26.8187 31.508L25.948 31.036L25.9187 30.576L26.3067 30.5573L26.344 29.76L28.86 29.588ZM34.2133 40.9213L35.8907 41.0306L35.824 43.6146L36.068 45.6693L34.2813 45.6066L34.2147 40.9213H34.2133ZM20.5787 41.0333L23.4587 41.1826L23.2 42.8933V44.5186L23.3827 45.216L20.596 45.3466L20.5787 41.0333ZM41.0813 41.0466V45.388L39.36 45.5133L39.292 43.216L39.0813 41.0933L41.0813 41.0466ZM25.7547 41.148L27.8053 41.156L27.828 45.1506L25.9213 45.1853L25.82 43.948L25.812 42.552L25.7547 41.148Z" fill="#CED4DA"/>
</g>
</g>
<defs>
<clipPath id="clip0_715_3432">
<rect width="64" height="64" fill="white"/>
</clipPath>
<clipPath id="clip1_715_3432">
<rect width="32" height="32" fill="white" transform="translate(16 20)"/>
</clipPath>
</defs>
</svg>
