<svg width="63" height="63" viewBox="0 0 63 63" fill="none" xmlns="http://www.w3.org/2000/svg">
<g clip-path="url(#clip0_715_2982)">
<path fill-rule="evenodd" clip-rule="evenodd" d="M10.7701 3.70479C13.323 3.13744 16.3636 2.95312 19.8798 2.95312H24.9746C28.1337 2.95312 31.0839 4.53198 32.8363 7.16057L35.3953 10.9992C35.9795 11.8753 36.9628 12.4017 38.016 12.4017H53.9381C58.9695 12.4017 63.0475 16.3737 62.9996 21.4887C62.9423 27.5799 62.9905 33.6733 62.9905 39.7647C62.9905 43.2809 62.8062 46.3214 62.2387 48.8744C61.6636 51.4633 60.6532 53.7395 58.8693 55.5234C57.0854 57.3073 54.8093 58.3176 52.2203 58.8927C49.6673 59.4603 46.6268 59.6445 43.1107 59.6445H19.8798C16.3636 59.6445 13.323 59.4603 10.7701 58.8927C8.18133 58.3176 5.90498 57.3073 4.12109 55.5234C2.33723 53.7395 1.32699 51.4633 0.751665 48.8744C0.18431 46.3214 0 43.2809 0 39.7647V22.8329C0 19.3167 0.18431 16.2762 0.751665 13.7232C1.32699 11.1345 2.33723 8.8581 4.12109 7.07421C5.90498 5.29035 8.18133 4.28011 10.7701 3.70479Z" fill="#854D0E"/>
<path d="M43.047 39.984L41.447 37.328C41.111 36.736 40.807 35.616 40.807 34.96V30.912C40.807 27.152 38.599 23.904 35.415 22.384C34.583 20.912 33.047 20 31.287 20C29.543 20 27.975 20.944 27.143 22.432C24.023 23.984 21.863 27.2 21.863 30.912V34.96C21.863 35.616 21.559 36.736 21.223 37.312L19.607 39.984C18.967 41.056 18.823 42.24 19.223 43.328C19.607 44.4 20.519 45.232 21.703 45.632C24.807 46.688 28.071 47.2 31.335 47.2C34.599 47.2 37.863 46.688 40.967 45.648C42.087 45.28 42.951 44.432 43.367 43.328C43.783 42.224 43.671 41.008 43.047 39.984Z" fill="#FACC15"/>
<path d="M35.8307 48.816C35.1587 50.672 33.3826 52 31.3026 52C30.0386 52 28.7907 51.488 27.9106 50.576C27.3986 50.096 27.0146 49.456 26.7906 48.8C26.9986 48.832 27.2066 48.848 27.4306 48.88C27.7986 48.928 28.1826 48.976 28.5666 49.008C29.4786 49.088 30.4066 49.136 31.3346 49.136C32.2466 49.136 33.1586 49.088 34.0546 49.008C34.3906 48.976 34.7266 48.96 35.0466 48.912C35.3026 48.88 35.5587 48.848 35.8307 48.816Z" fill="#FACC15"/>
</g>
<defs>
<clipPath id="clip0_715_2982">
<rect width="63" height="63" fill="white"/>
</clipPath>
</defs>
</svg>
