<svg width="64" height="64" viewBox="0 0 64 64" fill="none" xmlns="http://www.w3.org/2000/svg">
<g clip-path="url(#clip0_709_4891)">
<mask id="path-1-inside-1_709_4891" fill="white">
<path fill-rule="evenodd" clip-rule="evenodd" d="M10.941 3.7636C13.5345 3.18724 16.6233 3 20.1953 3H25.371C28.5803 3 31.5773 4.60392 33.3575 7.27423L35.9571 11.1738C36.5506 12.0638 37.5495 12.5985 38.6194 12.5985H54.7943C59.9055 12.5985 64.0482 16.6336 63.9996 21.8298C63.9413 28.0176 63.9903 34.2078 63.9903 40.3959C63.9903 43.9679 63.8031 47.0567 63.2266 49.6502C62.6423 52.2802 61.6159 54.5925 59.8037 56.4047C57.9915 58.2169 55.6792 59.2433 53.0492 59.8275C50.4557 60.4041 47.3669 60.5913 43.795 60.5913H20.1953C16.6233 60.5913 13.5345 60.4041 10.941 59.8275C8.31119 59.2433 5.99871 58.2169 4.1865 56.4047C2.37433 54.5925 1.34805 52.2802 0.763596 49.6502C0.187236 47.0567 0 43.9679 0 40.3959V23.1953C0 19.6233 0.187236 16.5345 0.763596 13.941C1.34805 11.3112 2.37433 8.99871 4.1865 7.1865C5.99871 5.37433 8.31119 4.34805 10.941 3.7636Z"/>
</mask>
<path fill-rule="evenodd" clip-rule="evenodd" d="M10.941 3.7636C13.5345 3.18724 16.6233 3 20.1953 3H25.371C28.5803 3 31.5773 4.60392 33.3575 7.27423L35.9571 11.1738C36.5506 12.0638 37.5495 12.5985 38.6194 12.5985H54.7943C59.9055 12.5985 64.0482 16.6336 63.9996 21.8298C63.9413 28.0176 63.9903 34.2078 63.9903 40.3959C63.9903 43.9679 63.8031 47.0567 63.2266 49.6502C62.6423 52.2802 61.6159 54.5925 59.8037 56.4047C57.9915 58.2169 55.6792 59.2433 53.0492 59.8275C50.4557 60.4041 47.3669 60.5913 43.795 60.5913H20.1953C16.6233 60.5913 13.5345 60.4041 10.941 59.8275C8.31119 59.2433 5.99871 58.2169 4.1865 56.4047C2.37433 54.5925 1.34805 52.2802 0.763596 49.6502C0.187236 47.0567 0 43.9679 0 40.3959V23.1953C0 19.6233 0.187236 16.5345 0.763596 13.941C1.34805 11.3112 2.37433 8.99871 4.1865 7.1865C5.99871 5.37433 8.31119 4.34805 10.941 3.7636Z" stroke="#075985" stroke-width="12" mask="url(#path-1-inside-1_709_4891)"/>
<g clip-path="url(#clip1_709_4891)">
<path d="M37.0624 33.5361C37.1499 34.3936 37.2001 35.2234 37.2001 36.0001C37.2001 37.454 37.0244 39.0958 36.7556 40.7556C35.0957 41.0244 33.4539 41.2001 32 41.2001C30.5527 41.2001 28.9115 41.0249 27.2444 40.7552C26.9758 39.0953 26.8 37.4538 26.8 36.0001C26.8 35.2238 26.8502 34.3937 26.9378 33.5361C28.6874 33.8162 30.4328 34.0001 32 34.0001C33.5674 34.0001 35.3128 33.8162 37.0624 33.5361Z" fill="#38BDF8"/>
<path d="M39.4289 33.1039C39.5371 34.1073 39.6 35.0842 39.6 36C39.6 37.3363 39.4662 38.8022 39.2532 40.29C42.2743 39.6596 45.0667 38.8543 46.5626 38.3958C47.0459 38.2476 47.236 38.1887 47.4907 38.0867C47.6181 38.0358 47.7349 37.984 47.8871 37.9113C47.9616 37.2846 48 36.6467 48 36C48 34.2903 47.7318 32.6433 47.2353 31.0986L47.106 31.1393C45.5418 31.6152 42.6136 32.4564 39.4289 33.1039Z" fill="#38BDF8"/>
<path d="M46.3265 28.8673C44.754 29.3438 42.0252 30.1182 39.1009 30.7211C38.4272 26.627 37.2465 22.5435 36.6785 20.6943C40.9025 21.9839 44.3845 24.9742 46.3265 28.8673Z" fill="#38BDF8"/>
<path d="M36.7416 31.1578C35.0862 31.4252 33.4496 31.6 32 31.6C30.5504 31.6 28.9139 31.4252 27.2585 31.1578C27.8929 27.2839 29.0252 23.3266 29.6043 21.4375C29.7524 20.954 29.8113 20.7641 29.9133 20.5092C29.9642 20.3819 30.016 20.2651 30.0887 20.113C30.7154 20.0384 31.3533 20 32 20C32.6756 20 33.3414 20.0419 33.9951 20.1232C34.009 20.1762 34.0218 20.2237 34.0344 20.2686C34.0719 20.4013 34.1306 20.5877 34.229 20.9006L34.2394 20.9335C34.7329 22.5024 36.041 26.8785 36.7416 31.1578Z" fill="#38BDF8"/>
<path d="M24.899 30.721C25.5696 26.645 26.7426 22.5835 27.3095 20.7337L27.3216 20.6943C23.0975 21.9839 19.6155 24.9742 17.6736 28.8673C19.2459 29.3438 21.9747 30.1182 24.899 30.721Z" fill="#38BDF8"/>
<path d="M16.7647 31.0986C16.2682 32.6433 16 34.2903 16 36C16 36.6688 16.041 37.328 16.1207 37.9754L16.3729 38.0595L16.3749 38.0601L16.3774 38.061L16.3791 38.0615C16.4603 38.0884 18.8389 38.8739 21.9715 39.6534C22.8554 39.8733 23.7913 40.0906 24.7468 40.2897C24.5337 38.802 24.4 37.3363 24.4 36C24.4 35.0839 24.4628 34.107 24.571 33.1039C21.3856 32.4562 18.4567 31.6147 16.8929 31.1389L16.882 31.1356L16.7647 31.0986Z" fill="#38BDF8"/>
<path d="M32.0001 43.5997C33.3363 43.5997 34.8022 43.466 36.29 43.2529C35.6596 46.274 34.8543 49.0664 34.3958 50.5622C34.2477 51.0457 34.1887 51.2356 34.0868 51.4905C34.0359 51.6179 33.9841 51.7346 33.9114 51.8868C33.2846 51.9613 32.6468 51.9998 32.0001 51.9998C31.3534 51.9998 30.7155 51.9613 30.0887 51.8868C30.0161 51.7346 29.9643 51.6179 29.9134 51.4905C29.8114 51.2357 29.7524 51.0457 29.6043 50.5623C29.1458 49.0666 28.3406 46.2743 27.7102 43.2535C29.1931 43.4658 30.6593 43.5997 32.0001 43.5997Z" fill="#38BDF8"/>
<path d="M21.392 41.9826C19.4111 41.4897 17.724 40.9946 16.6948 40.6787C18.2439 45.753 22.2474 49.7563 27.3217 51.3055L27.3096 51.2661C26.8146 49.6509 25.8575 46.3496 25.1763 42.8245C23.8514 42.5684 22.5634 42.274 21.392 41.9826Z" fill="#38BDF8"/>
<path d="M47.2659 40.6907C45.6507 41.1858 42.349 42.1429 38.8238 42.8241C38.1427 46.3493 37.1856 49.6507 36.6905 51.2661L36.6785 51.3055C41.7528 49.7563 45.7561 45.753 47.3052 40.6787L47.2659 40.6907Z" fill="#38BDF8"/>
<path d="M16.1682 38.0156C16.2236 38.0228 16.2688 38.0304 16.2837 38.0338C16.2969 38.037 16.3174 38.0424 16.3249 38.0444L16.3413 38.0491L16.3502 38.0519L16.3595 38.0548L16.3673 38.0572C16.363 38.0559 16.2741 38.0336 16.1682 38.0156Z" fill="#38BDF8"/>
</g>
</g>
<defs>
<clipPath id="clip0_709_4891">
<rect width="64" height="64" fill="white"/>
</clipPath>
<clipPath id="clip1_709_4891">
<rect width="32" height="32" fill="white" transform="translate(16 20)"/>
</clipPath>
</defs>
</svg>
