<svg width="64" height="64" viewBox="0 0 64 64" fill="none" xmlns="http://www.w3.org/2000/svg">
<g clip-path="url(#clip0_714_2524)">
<mask id="path-1-inside-1_714_2524" fill="white">
<path fill-rule="evenodd" clip-rule="evenodd" d="M10.941 3.7636C13.5345 3.18724 16.6233 3 20.1953 3H25.371C28.5803 3 31.5773 4.60392 33.3575 7.27423L35.9571 11.1738C36.5506 12.0638 37.5495 12.5985 38.6194 12.5985H54.7943C59.9055 12.5985 64.0482 16.6336 63.9996 21.8298C63.9413 28.0176 63.9903 34.2078 63.9903 40.3959C63.9903 43.9679 63.8031 47.0567 63.2266 49.6502C62.6423 52.2802 61.6159 54.5925 59.8037 56.4047C57.9915 58.2169 55.6792 59.2433 53.0492 59.8275C50.4557 60.4041 47.3669 60.5913 43.795 60.5913H20.1953C16.6233 60.5913 13.5345 60.4041 10.941 59.8275C8.31119 59.2433 5.99871 58.2169 4.1865 56.4047C2.37433 54.5925 1.34805 52.2802 0.763597 49.6502C0.187236 47.0567 0 43.9679 0 40.3959V23.1953C0 19.6233 0.187236 16.5345 0.763597 13.941C1.34805 11.3112 2.37433 8.99871 4.1865 7.1865C5.99871 5.37433 8.31119 4.34805 10.941 3.7636Z"/>
</mask>
<path fill-rule="evenodd" clip-rule="evenodd" d="M10.941 3.7636C13.5345 3.18724 16.6233 3 20.1953 3H25.371C28.5803 3 31.5773 4.60392 33.3575 7.27423L35.9571 11.1738C36.5506 12.0638 37.5495 12.5985 38.6194 12.5985H54.7943C59.9055 12.5985 64.0482 16.6336 63.9996 21.8298C63.9413 28.0176 63.9903 34.2078 63.9903 40.3959C63.9903 43.9679 63.8031 47.0567 63.2266 49.6502C62.6423 52.2802 61.6159 54.5925 59.8037 56.4047C57.9915 58.2169 55.6792 59.2433 53.0492 59.8275C50.4557 60.4041 47.3669 60.5913 43.795 60.5913H20.1953C16.6233 60.5913 13.5345 60.4041 10.941 59.8275C8.31119 59.2433 5.99871 58.2169 4.1865 56.4047C2.37433 54.5925 1.34805 52.2802 0.763597 49.6502C0.187236 47.0567 0 43.9679 0 40.3959V23.1953C0 19.6233 0.187236 16.5345 0.763597 13.941C1.34805 11.3112 2.37433 8.99871 4.1865 7.1865C5.99871 5.37433 8.31119 4.34805 10.941 3.7636Z" stroke="#155E75" stroke-width="12" mask="url(#path-1-inside-1_714_2524)"/>
<path d="M44.2857 21.0002H21.4287C20.9805 20.9955 20.5361 21.0811 20.1218 21.252C19.7075 21.4228 19.3318 21.6753 19.0172 21.9945C18.6922 22.3106 18.4346 22.6892 18.2598 23.1076C18.0849 23.5259 17.9966 23.9753 18.0001 24.4287V51.8571C18.0001 52.1603 18.1205 52.4509 18.3348 52.6653C18.5492 52.8796 18.8398 53 19.1429 53H39.7143C40.0174 53 40.3081 52.8796 40.5224 52.6653C40.7367 52.4509 40.8571 52.1603 40.8571 51.8571V48.4286H44.2857C44.5888 48.4286 44.8795 48.3082 45.0938 48.0939C45.3081 47.8795 45.4285 47.5888 45.4285 47.2857V22.143C45.4285 21.8399 45.3081 21.5492 45.0938 21.3349C44.8795 21.1206 44.5888 21.0002 44.2857 21.0002ZM28.2858 34.7144C28.2858 35.1665 28.1517 35.6084 27.9005 35.9843C27.6494 36.3601 27.2924 36.6531 26.8748 36.8261C26.4571 36.9991 25.9975 37.0444 25.5541 36.9562C25.1108 36.868 24.7035 36.6503 24.3838 36.3306C24.0642 36.011 23.8465 35.6037 23.7583 35.1603C23.6701 34.7169 23.7153 34.2573 23.8883 33.8397C24.0613 33.422 24.3543 33.0651 24.7302 32.8139C25.1061 32.5627 25.548 32.4287 26.0001 32.4287C26.6063 32.4287 27.1876 32.6695 27.6163 33.0982C28.0449 33.5268 28.2858 34.1082 28.2858 34.7144ZM37.2914 45.5372C37.1942 45.7197 37.0494 45.8724 36.8723 45.9791C36.6952 46.0857 36.4925 46.1423 36.2857 46.1429H22.5715C22.3593 46.1429 22.1512 46.0838 21.9707 45.9722C21.7901 45.8606 21.6442 45.701 21.5493 45.5111C21.4544 45.3213 21.4142 45.1088 21.4333 44.8974C21.4523 44.686 21.5299 44.4841 21.6572 44.3143L25.0858 39.7429C25.2472 39.5289 25.4787 39.3785 25.7399 39.3179C26.001 39.2573 26.2752 39.2904 26.5143 39.4115L28.0572 40.1772L30.9029 37.3315C31.0228 37.2109 31.1681 37.1185 31.3283 37.0612C31.4884 37.0038 31.6594 36.983 31.8286 37.0001C31.9971 37.0186 32.1594 37.0743 32.3037 37.1633C32.448 37.2522 32.5707 37.3721 32.6629 37.5144L37.2343 44.3715C37.3477 44.5427 37.4128 44.7414 37.4229 44.9465C37.4329 45.1516 37.3875 45.3557 37.2914 45.5372ZM43.1428 46.1429H40.8571V26.7144C40.8571 26.4113 40.7367 26.1206 40.5224 25.9063C40.3081 25.692 40.0174 25.5716 39.7143 25.5716H21.4287C21.1255 25.5716 20.8349 25.4512 20.6205 25.2369C20.4062 25.0225 20.2858 24.7318 20.2858 24.4287C20.2879 24.2767 20.3203 24.1266 20.3812 23.9873C20.442 23.848 20.53 23.7222 20.6401 23.6173C20.8501 23.4089 21.1328 23.2901 21.4287 23.2859H43.1428V46.1429Z" fill="#22D3EE"/>
</g>
<defs>
<clipPath id="clip0_714_2524">
<rect width="64" height="64" fill="white"/>
</clipPath>
</defs>
</svg>
