<svg width="64" height="64" viewBox="0 0 64 64" fill="none" xmlns="http://www.w3.org/2000/svg">
<g clip-path="url(#clip0_718_2524)">
<path fill-rule="evenodd" clip-rule="evenodd" d="M10.941 3.7636C13.5345 3.18724 16.6233 3 20.1953 3H25.371C28.5803 3 31.5773 4.60392 33.3575 7.27423L35.9571 11.1738C36.5506 12.0638 37.5495 12.5985 38.6194 12.5985H54.7943C59.9055 12.5985 64.0482 16.6336 63.9996 21.8298C63.9413 28.0176 63.9903 34.2078 63.9903 40.3959C63.9903 43.9679 63.8031 47.0567 63.2266 49.6502C62.6423 52.2802 61.6159 54.5925 59.8037 56.4047C57.9915 58.2169 55.6792 59.2433 53.0492 59.8275C50.4557 60.4041 47.3669 60.5913 43.795 60.5913H20.1953C16.6233 60.5913 13.5345 60.4041 10.941 59.8275C8.31119 59.2433 5.99871 58.2169 4.1865 56.4047C2.37433 54.5925 1.34805 52.2802 0.763597 49.6502C0.187236 47.0567 0 43.9679 0 40.3959V23.1953C0 19.6233 0.187236 16.5345 0.763597 13.941C1.34805 11.3112 2.37433 8.99871 4.1865 7.1865C5.99871 5.37433 8.31119 4.34805 10.941 3.7636Z" fill="#991B1B"/>
<path d="M28.12 33.0231C27.8244 32.3696 27.6919 31.6073 27.9177 30.9149C28.1435 30.2069 28.6492 29.6391 29.1549 29.11C30.5627 27.7018 32.2977 26.6672 33.6746 25.2359C34.4369 24.4501 35.067 23.5087 35.2847 22.4273C35.4637 21.6339 35.3782 20.8171 35.2149 20.0312C35.9462 20.8637 36.1874 22.0539 35.9772 23.1276C35.7517 24.3333 35.0825 25.3991 34.2969 26.317C33.6668 27.0562 32.9432 27.7096 32.1887 28.3166C31.3096 29.0245 30.4462 29.7868 29.8939 30.7826C29.4269 31.5916 29.318 32.5874 29.6371 33.4665C30.1584 34.9756 31.3718 36.0959 32.0332 37.5195C31.3017 36.8737 30.5862 36.2047 29.9169 35.4969C29.2171 34.7501 28.5557 33.9567 28.12 33.0231ZM32.0875 31.8405C31.9553 33.0775 32.6008 34.2444 33.3712 35.1624C33.7444 35.5747 34.0634 36.0804 34.0789 36.6561C34.0946 37.426 33.6591 38.142 33.0986 38.6474C33.2311 38.6321 33.3244 38.5152 33.4333 38.4531C34.2735 37.9162 35.0824 37.2394 35.4947 36.3139C35.767 35.6837 35.7048 34.9367 35.3471 34.3532C34.9268 33.6686 34.3746 33.0618 34.0479 32.3151C33.8687 31.895 33.8066 31.4049 33.9544 30.9615C34.1491 30.3626 34.5691 29.8724 35.0126 29.4445C36.2338 28.2855 37.7119 27.4606 39.1278 26.5583C37.3385 27.0717 35.5726 27.7797 34.0634 28.8922C33.1065 29.6079 32.2198 30.6036 32.0875 31.8405ZM40.5906 37.6907C41.4386 37.7375 42.2707 38.3597 42.4264 39.2156C42.5743 39.9546 42.2166 40.6858 41.7574 41.2459C41.0027 42.1482 39.9835 42.7941 38.9569 43.3464C38.8556 43.4084 38.7701 43.4862 38.6922 43.5719C40.0459 43.2296 41.3994 42.7164 42.4964 41.8372C43.103 41.3315 43.6398 40.6622 43.7566 39.861C43.8656 39.1687 43.5779 38.453 43.0643 37.9941C42.4418 37.4259 41.563 37.2161 40.7382 37.3251C40.2636 37.3872 39.7425 37.4884 39.4158 37.8851C39.8049 37.8076 40.1858 37.6518 40.5906 37.6907ZM23.7014 39.9154C24.7203 40.1877 25.7706 40.2656 26.8131 40.3357C27.7466 40.3979 28.6802 40.4136 29.6216 40.4057C32.0487 40.367 34.4914 40.2034 36.8718 39.6745C37.0973 39.6201 37.3464 39.5812 37.5489 39.4412C37.9456 39.1843 38.3809 38.982 38.809 38.7797C36.8718 39.0909 34.9269 39.3557 32.9666 39.4801C30.9829 39.6045 28.9834 39.6823 26.9921 39.5501C26.4242 39.4957 25.8406 39.4644 25.3117 39.2465C25.1871 39.1921 25.0159 39.0834 25.0781 38.9198C25.1949 38.7097 25.4282 38.6087 25.6305 38.4998C26.4864 38.0952 27.4198 37.8697 28.3301 37.6052C26.7662 37.5817 25.2103 37.9784 23.7792 38.5931C23.4601 38.7488 23.1023 38.8732 22.8457 39.1377C22.7443 39.2464 22.7443 39.4335 22.8611 39.5266C23.0946 39.7367 23.4056 39.83 23.7014 39.9154ZM36.3041 42.055C34.9426 42.2962 33.5732 42.522 32.1962 42.5918C30.6871 42.6929 29.1779 42.6072 27.6843 42.4517C27.3966 42.4128 27.1086 42.3662 26.852 42.2341C26.7197 42.1562 26.5876 42.0318 26.5954 41.8682C26.6108 41.6116 26.8285 41.4327 26.9842 41.2459C26.5021 41.4171 26.0196 41.5959 25.6151 41.9152C25.4437 42.0474 25.2727 42.2573 25.3193 42.4907C25.3896 42.7629 25.6541 42.9263 25.8874 43.0507C26.4629 43.3465 27.1087 43.4786 27.739 43.5953C29.3334 43.8522 30.9594 43.86 32.5619 43.7508C34.2582 43.6186 35.9462 43.3387 37.5876 42.8562C37.1209 42.6464 36.6774 42.4049 36.3041 42.055ZM27.7544 44.7469C27.3187 44.8713 26.8752 45.0192 26.5175 45.3067C26.3382 45.4468 26.1984 45.6882 26.2841 45.9138C26.3931 46.2016 26.6654 46.373 26.9218 46.5204C27.5911 46.8862 28.3456 47.0572 29.0846 47.1896C30.7574 47.4539 32.4764 47.4151 34.1413 47.1196C35.1292 46.9328 36.1172 46.6683 37.0351 46.2562C36.4361 46.0072 35.8528 45.727 35.2927 45.4004C34.3203 45.5715 33.3399 45.7506 32.3441 45.8127C31.0296 45.9139 29.6992 45.8049 28.3844 45.6416C28.0732 45.5716 27.6843 45.5405 27.4742 45.2681C27.3656 45.0423 27.6144 44.8789 27.7544 44.7469ZM38.3967 49.7489C39.4857 49.5236 40.5827 49.2664 41.5784 48.761C41.8894 48.5818 42.2707 48.3873 42.372 48.0141C42.4264 47.6563 42.053 47.4695 41.7885 47.3216C41.9518 47.5087 42.0607 47.7808 41.8972 47.9985C41.6249 48.3643 41.1584 48.5042 40.746 48.6442C39.4547 49.0099 38.1165 49.1577 36.7863 49.3056C33.2622 49.6245 29.7147 49.7024 26.1908 49.4067C25.0083 49.2821 23.8022 49.1499 22.6743 48.7299C22.4956 48.6521 22.2232 48.5742 22.2232 48.3329C22.2931 48.1233 22.4956 48.0062 22.6743 47.9051C23.4834 47.4929 24.3858 47.2672 25.2882 47.2128C25.0239 47.0571 24.7127 47.0417 24.4093 47.0495C23.6546 47.0728 22.9156 47.2672 22.2 47.5087C21.5854 47.7339 20.9552 47.9831 20.465 48.4344C20.2706 48.6053 20.0918 48.932 20.2938 49.1656C20.6051 49.5001 21.0875 49.5856 21.5151 49.6867C23.9112 50.0991 26.3382 50.3322 28.7657 50.4179C31.9864 50.5115 35.2304 50.3714 38.3967 49.7489ZM41.5862 50.1691C40.1236 50.6359 38.6067 50.8925 37.0974 51.1026C34.4914 51.4293 31.8618 51.5304 29.2401 51.4528C27.6454 51.3906 26.0507 51.2817 24.4791 51.0169C24.8447 51.2659 25.2961 51.3436 25.7162 51.4604C27.4823 51.8339 29.2947 51.9039 31.0919 51.9583C33.7287 52.0051 36.3661 51.9039 38.9645 51.4916C40.1938 51.2741 41.4307 51.0094 42.5351 50.4336C43.1111 50.1302 43.6946 49.6632 43.7953 48.9866C43.2121 49.6088 42.3721 49.8968 41.5862 50.1691Z" fill="#F87171"/>
</g>
<defs>
<clipPath id="clip0_718_2524">
<rect width="64" height="64" fill="white"/>
</clipPath>
</defs>
</svg>
