<svg width="64" height="64" viewBox="0 0 64 64" fill="none" xmlns="http://www.w3.org/2000/svg">
<g clip-path="url(#clip0_712_2761)">
<mask id="path-1-inside-1_712_2761" fill="white">
<path fill-rule="evenodd" clip-rule="evenodd" d="M10.9412 3.7636C13.5346 3.18724 16.6234 3 20.1955 3H25.3711C28.5804 3 31.5774 4.60392 33.3576 7.27423L35.9572 11.1738C36.5507 12.0638 37.5496 12.5985 38.6195 12.5985H54.7944C59.9056 12.5985 64.0483 16.6336 63.9997 21.8298C63.9415 28.0176 63.9904 34.2078 63.9904 40.3959C63.9904 43.9679 63.8032 47.0567 63.2267 49.6502C62.6425 52.2802 61.6161 54.5925 59.8039 56.4047C57.9917 58.2169 55.6794 59.2433 53.0494 59.8275C50.4558 60.4041 47.367 60.5913 43.7951 60.5913H20.1955C16.6234 60.5913 13.5346 60.4041 10.9412 59.8275C8.31131 59.2433 5.99883 58.2169 4.18662 56.4047C2.37445 54.5925 1.34817 52.2802 0.763719 49.6502C0.187358 47.0567 0.00012207 43.9679 0.00012207 40.3959V23.1953C0.00012207 19.6233 0.187358 16.5345 0.763719 13.941C1.34817 11.3112 2.37445 8.99871 4.18662 7.1865C5.99883 5.37433 8.31131 4.34805 10.9412 3.7636Z"/>
</mask>
<path fill-rule="evenodd" clip-rule="evenodd" d="M10.9412 3.7636C13.5346 3.18724 16.6234 3 20.1955 3H25.3711C28.5804 3 31.5774 4.60392 33.3576 7.27423L35.9572 11.1738C36.5507 12.0638 37.5496 12.5985 38.6195 12.5985H54.7944C59.9056 12.5985 64.0483 16.6336 63.9997 21.8298C63.9415 28.0176 63.9904 34.2078 63.9904 40.3959C63.9904 43.9679 63.8032 47.0567 63.2267 49.6502C62.6425 52.2802 61.6161 54.5925 59.8039 56.4047C57.9917 58.2169 55.6794 59.2433 53.0494 59.8275C50.4558 60.4041 47.367 60.5913 43.7951 60.5913H20.1955C16.6234 60.5913 13.5346 60.4041 10.9412 59.8275C8.31131 59.2433 5.99883 58.2169 4.18662 56.4047C2.37445 54.5925 1.34817 52.2802 0.763719 49.6502C0.187358 47.0567 0.00012207 43.9679 0.00012207 40.3959V23.1953C0.00012207 19.6233 0.187358 16.5345 0.763719 13.941C1.34817 11.3112 2.37445 8.99871 4.18662 7.1865C5.99883 5.37433 8.31131 4.34805 10.9412 3.7636Z" stroke="#9F1239" stroke-width="12" mask="url(#path-1-inside-1_712_2761)"/>
<path d="M43.2 29.6V28H40V23.2H20.8V45.6H28.8V52H34H33.6C32.7513 52 31.9374 51.6629 31.3372 51.0627C30.7371 50.4626 30.4 49.6487 30.4 48.8V32.8C30.4 31.9513 30.7371 31.1374 31.3372 30.5373C31.9374 29.9371 32.7513 29.6 33.6 29.6H43.2ZM34 52H20.8C19.9513 52 19.1374 51.6629 18.5372 51.0627C17.9371 50.4626 17.6 49.6487 17.6 48.8V23.2C17.6 21.44 19.04 20 20.8 20H40C40.8487 20 41.6626 20.3371 42.2627 20.9373C42.8628 21.5374 43.2 22.3513 43.2 23.2V29.6C44.0487 29.6 44.8626 29.9371 45.4627 30.5373C46.0628 31.1374 46.4 31.9513 46.4 32.8V48.8C46.4 49.6487 46.0628 50.4626 45.4627 51.0627C44.8626 51.6629 44.0487 52 43.2 52H34ZM33.6 32.8V45.6H43.2V32.8H33.6ZM38.4 50.4C38.8243 50.4 39.2313 50.2314 39.5313 49.9314C39.8314 49.6313 40 49.2243 40 48.8C40 48.3757 39.8314 47.9687 39.5313 47.6686C39.2313 47.3686 38.8243 47.2 38.4 47.2C37.9756 47.2 37.5687 47.3686 37.2686 47.6686C36.9685 47.9687 36.8 48.3757 36.8 48.8C36.8 49.2243 36.9685 49.6313 37.2686 49.9314C37.5687 50.2314 37.9756 50.4 38.4 50.4Z" fill="#FB7185"/>
</g>
<defs>
<clipPath id="clip0_712_2761">
<rect width="64" height="64" fill="white"/>
</clipPath>
</defs>
</svg>
