<svg width="64" height="64" viewBox="0 0 64 64" fill="none" xmlns="http://www.w3.org/2000/svg">
<g clip-path="url(#clip0_717_3842)">
<path d="M6.3078 9.30784C6.30782 9.30783 6.30783 9.30782 6.30784 9.3078C7.59221 8.02348 9.31785 7.19752 11.5919 6.69215C13.863 6.18742 16.6923 6 20.1953 6H25.371C27.5772 6 29.6375 7.10261 30.8613 8.93829C30.8613 8.9383 30.8613 8.93832 30.8614 8.93833L33.4609 12.8379L33.4612 12.8382C34.6109 14.5624 36.5463 15.5985 38.6194 15.5985H54.7943C58.2819 15.5985 61.0323 18.3172 60.9997 21.8017C60.9596 26.0676 60.9702 30.3466 60.9807 34.6045C60.9855 36.5404 60.9903 38.472 60.9903 40.3959C60.9903 43.8989 60.8029 46.7281 60.2981 48.9992L60.298 48.9997C59.7929 51.2734 58.9669 52.999 57.6824 54.2834C56.398 55.5678 54.6725 56.3938 52.3987 56.8989L52.3982 56.899C50.1272 57.4039 47.298 57.5913 43.795 57.5913H20.1953C16.6922 57.5913 13.8631 57.4039 11.5921 56.899L11.5916 56.8989C9.3179 56.3938 7.59223 55.5678 6.30782 54.2834C5.02346 52.999 4.19752 51.2735 3.69216 48.9994L0.763596 49.6502M6.3078 9.30784L4.1865 7.1865C2.37433 8.99871 1.34805 11.3112 0.763596 13.941C0.187236 16.5345 0 19.6233 0 23.1953V40.3959C0 43.9679 0.187236 47.0567 0.763596 49.6502M6.3078 9.30784C5.02348 10.5922 4.19752 12.3179 3.69215 14.5919M6.3078 9.30784L3.69215 14.5919M0.763596 49.6502L3.69215 48.9994C3.18742 46.7282 3 43.8989 3 40.3959V23.1953C3 19.6923 3.18742 16.863 3.69215 14.5919M0.763596 49.6502L3.69215 14.5919M3.69215 14.5919L0.76767 13.9419L3.69215 14.5919Z" stroke="#115E59" stroke-width="6"/>
<path d="M31.9974 20C29.8961 19.999 27.8152 20.4121 25.8736 21.2159C23.9321 22.0196 22.168 23.1982 20.6823 24.6841C19.1966 26.1701 18.0183 27.9344 17.2149 29.876C16.4115 31.8177 15.9986 33.8987 16 36C15.9986 38.1015 16.4115 40.1827 17.2151 42.1246C18.0187 44.0664 19.1972 45.8308 20.6832 47.3168C22.1692 48.8028 23.9336 49.9813 25.8754 50.7849C27.8173 51.5885 29.8985 52.0014 32 52C34.1015 52.0014 36.1827 51.5885 38.1246 50.7849C40.0664 49.9813 41.8308 48.8028 43.3168 47.3168C44.8028 45.8308 45.9813 44.0664 46.7849 42.1246C47.5885 40.1827 48.0014 38.1015 48 36C48 27.1573 40.7851 20 31.9974 20ZM24.492 39.4334C25.0154 40.1322 25.7141 40.4226 26.7007 40.4226C27.1691 40.4226 27.6349 40.3624 28.0432 40.1871C28.4462 40.017 28.9146 39.7815 29.4956 39.4308L31.1233 41.7599C29.8388 42.8403 28.2062 43.4186 26.528 43.3876C25.1305 43.3876 23.9686 43.0972 22.9218 42.5162C21.9054 41.9171 21.0936 41.0251 20.5927 39.9568C20.0694 38.8498 19.7815 37.5728 19.7815 36.0576C19.7815 34.6052 20.0694 33.2679 20.5927 32.1583C21.09 31.0592 21.9012 30.1302 22.9244 29.4864C23.911 28.8427 25.1331 28.5522 26.473 28.5522C27.4046 28.5522 28.2761 28.6699 28.9748 28.9604C29.7599 29.264 30.4848 29.6984 31.1259 30.2427L29.4982 32.4514C29.0839 32.1453 28.634 31.8905 28.1583 31.6925C27.7124 31.5269 27.239 31.4479 26.7635 31.4596C24.7851 31.4596 23.7959 32.9748 23.7959 36.055C23.7409 37.6304 24.0314 38.7347 24.4946 39.4308L24.492 39.4334ZM40.492 43.0422C39.911 44.8479 39.0396 46.1825 37.8175 47.1717C36.5954 48.1636 34.965 48.6869 32.929 48.8597L32.5234 46.1276C33.858 45.9496 34.8499 45.6591 35.491 45.1933C35.7213 45.0232 36.1871 44.4972 36.1871 44.4972L31.3588 29.018H35.3706L38.1655 40.598L41.1331 29.018H45.0324L40.492 43.0422Z" fill="#2DD4BF"/>
</g>
<defs>
<clipPath id="clip0_717_3842">
<rect width="64" height="64" fill="white"/>
</clipPath>
</defs>
</svg>
