<svg width="64" height="64" viewBox="0 0 64 64" fill="none" xmlns="http://www.w3.org/2000/svg">
<g clip-path="url(#clip0_715_3399)">
<path fill-rule="evenodd" clip-rule="evenodd" d="M10.941 3.7636C13.5345 3.18724 16.6233 3 20.1953 3H25.371C28.5803 3 31.5773 4.60392 33.3575 7.27423L35.9571 11.1738C36.5506 12.0638 37.5495 12.5985 38.6194 12.5985H54.7943C59.9055 12.5985 64.0482 16.6336 63.9996 21.8298C63.9413 28.0176 63.9903 34.2078 63.9903 40.3959C63.9903 43.9679 63.8031 47.0567 63.2266 49.6502C62.6423 52.2802 61.6159 54.5925 59.8037 56.4047C57.9915 58.2169 55.6792 59.2433 53.0492 59.8275C50.4557 60.4041 47.3669 60.5913 43.795 60.5913H20.1953C16.6233 60.5913 13.5345 60.4041 10.941 59.8275C8.31119 59.2433 5.99871 58.2169 4.1865 56.4047C2.37433 54.5925 1.34805 52.2802 0.763597 49.6502C0.187236 47.0567 0 43.9679 0 40.3959V23.1953C0 19.6233 0.187236 16.5345 0.763597 13.941C1.34805 11.3112 2.37433 8.99871 4.1865 7.1865C5.99871 5.37433 8.31119 4.34805 10.941 3.7636Z" fill="#495057"/>
<path d="M32.0915 51.9099C29.9755 51.928 27.8771 51.525 25.9184 50.7243C23.9597 49.9237 22.1798 48.7415 20.6823 47.2464C19.1849 45.7514 17.9997 43.9734 17.1959 42.016C16.3922 40.0586 15.9857 37.9608 16.0004 35.8449C16.015 33.7289 16.4504 31.637 17.2812 29.6909C18.112 27.7448 19.3216 25.9834 20.8396 24.5092C22.3576 23.035 24.1537 21.8775 26.1233 21.104C28.0929 20.3306 30.1967 19.9567 32.3122 20.004C36.5159 20.0742 40.5219 21.8008 43.4595 24.8086C46.3971 27.8163 48.0287 31.862 47.9996 36.0662C47.9705 40.2704 46.2831 44.2932 43.3042 47.26C40.3253 50.2268 36.2957 51.8979 32.0915 51.9099ZM29.5516 36.8947C29.6659 37.009 29.6659 37.009 29.7723 37.009C32.0915 38.8822 34.4095 40.6445 36.6178 42.5257C37.0688 42.9277 37.5485 43.2966 38.0529 43.6292C38.2118 43.7395 38.3962 43.8073 38.5887 43.826C38.7812 43.8448 38.9752 43.8139 39.1524 43.7364C39.3295 43.6589 39.4839 43.5373 39.6007 43.3832C39.7176 43.2291 39.793 43.0477 39.8198 42.8562C39.8363 42.5933 39.7973 42.3299 39.7054 42.0831L35.4078 31.816C34.7457 30.2699 34.0824 28.614 33.4203 27.069C33.3728 26.9128 33.2875 26.7707 33.172 26.6552C33.0565 26.5397 32.9144 26.4545 32.7582 26.4069C32.096 26.1862 31.6546 26.5213 31.323 27.18C29.0049 32.5902 26.7967 38.1103 24.4775 43.5206C24.4775 43.635 24.3631 43.7413 24.3631 43.8522H26.5714C26.7921 43.8522 26.7921 43.7379 26.903 43.6315C27.3445 42.6377 27.6761 41.5342 28.1175 40.5438C28.5284 39.3021 29.0071 38.0839 29.5516 36.8947Z" fill="#CED4DA"/>
<path d="M32.4231 29.7187C33.7485 33.1415 35.1837 36.4533 36.508 39.7662C36.1763 39.5455 35.8458 39.2139 35.5142 38.9932C33.8583 37.6677 32.1978 36.4533 30.5465 35.129C30.4321 35.0146 30.3258 35.0146 30.4321 34.7974C30.9879 33.1415 31.65 31.4855 32.4231 29.7187Z" fill="#CED4DA"/>
</g>
<defs>
<clipPath id="clip0_715_3399">
<rect width="64" height="64" fill="white"/>
</clipPath>
</defs>
</svg>
