<svg width="64" height="64" viewBox="0 0 64 64" fill="none" xmlns="http://www.w3.org/2000/svg">
<g clip-path="url(#clip0_714_2534)">
<mask id="path-1-inside-1_714_2534" fill="white">
<path fill-rule="evenodd" clip-rule="evenodd" d="M10.941 3.7636C13.5345 3.18724 16.6233 3 20.1953 3H25.371C28.5803 3 31.5773 4.60392 33.3575 7.27423L35.9571 11.1738C36.5506 12.0638 37.5495 12.5985 38.6194 12.5985H54.7943C59.9055 12.5985 64.0482 16.6336 63.9996 21.8298C63.9413 28.0176 63.9903 34.2078 63.9903 40.3959C63.9903 43.9679 63.8031 47.0567 63.2266 49.6502C62.6423 52.2802 61.6159 54.5925 59.8037 56.4047C57.9915 58.2169 55.6792 59.2433 53.0492 59.8275C50.4557 60.4041 47.3669 60.5913 43.795 60.5913H20.1953C16.6233 60.5913 13.5345 60.4041 10.941 59.8275C8.31119 59.2433 5.99871 58.2169 4.1865 56.4047C2.37433 54.5925 1.34805 52.2802 0.763596 49.6502C0.187236 47.0567 0 43.9679 0 40.3959V23.1953C0 19.6233 0.187236 16.5345 0.763596 13.941C1.34805 11.3112 2.37433 8.99871 4.1865 7.1865C5.99871 5.37433 8.31119 4.34805 10.941 3.7636Z"/>
</mask>
<path fill-rule="evenodd" clip-rule="evenodd" d="M10.941 3.7636C13.5345 3.18724 16.6233 3 20.1953 3H25.371C28.5803 3 31.5773 4.60392 33.3575 7.27423L35.9571 11.1738C36.5506 12.0638 37.5495 12.5985 38.6194 12.5985H54.7943C59.9055 12.5985 64.0482 16.6336 63.9996 21.8298C63.9413 28.0176 63.9903 34.2078 63.9903 40.3959C63.9903 43.9679 63.8031 47.0567 63.2266 49.6502C62.6423 52.2802 61.6159 54.5925 59.8037 56.4047C57.9915 58.2169 55.6792 59.2433 53.0492 59.8275C50.4557 60.4041 47.3669 60.5913 43.795 60.5913H20.1953C16.6233 60.5913 13.5345 60.4041 10.941 59.8275C8.31119 59.2433 5.99871 58.2169 4.1865 56.4047C2.37433 54.5925 1.34805 52.2802 0.763596 49.6502C0.187236 47.0567 0 43.9679 0 40.3959V23.1953C0 19.6233 0.187236 16.5345 0.763596 13.941C1.34805 11.3112 2.37433 8.99871 4.1865 7.1865C5.99871 5.37433 8.31119 4.34805 10.941 3.7636Z" stroke="#166534" stroke-width="12" mask="url(#path-1-inside-1_714_2534)"/>
<path d="M35.796 28.1428H34.5293V26.8761H35.796M29.468 28.1428H28.2027V26.8761H29.4693M36.4667 24.5494L38.124 22.8908C38.2399 22.7699 38.3046 22.6089 38.3046 22.4414C38.3046 22.274 38.2399 22.113 38.124 21.9921C38.0031 21.8762 37.8421 21.8115 37.6747 21.8115C37.5072 21.8115 37.3462 21.8762 37.2253 21.9921L35.3533 23.8668C34.3094 23.3532 33.1621 23.0846 31.9987 23.0814C30.8301 23.0817 29.6778 23.3547 28.6333 23.8788L26.7467 21.9921C26.6281 21.8764 26.469 21.8116 26.3033 21.8116C26.1377 21.8116 25.9785 21.8764 25.86 21.9921C25.7999 22.0505 25.7522 22.1204 25.7196 22.1975C25.6869 22.2747 25.6701 22.3576 25.6701 22.4414C25.6701 22.5252 25.6869 22.6082 25.7196 22.6853C25.7522 22.7625 25.7999 22.8324 25.86 22.8908L27.52 24.5494C25.6333 25.9414 24.4067 28.1428 24.4067 30.6734H39.5933C39.5933 28.1428 38.3267 25.9281 36.4667 24.5494ZM42.7573 31.9401C42.254 31.9401 41.7713 32.14 41.4152 32.4957C41.0592 32.8515 40.859 33.3341 40.8587 33.8374V42.6961C40.8587 43.1997 41.0587 43.6826 41.4148 44.0387C41.7708 44.3947 42.2538 44.5948 42.7573 44.5948C43.2607 44.5944 43.7432 44.3942 44.099 44.0382C44.4548 43.6822 44.6547 43.1994 44.6547 42.6961V33.8374C44.6543 33.3343 44.4543 32.8519 44.0986 32.4962C43.7428 32.1405 43.2604 31.9405 42.7573 31.9401ZM21.2427 31.9401C20.7393 31.9401 20.2566 32.14 19.9006 32.4957C19.5445 32.8515 19.3443 33.3341 19.344 33.8374V42.6961C19.344 43.1997 19.544 43.6826 19.9001 44.0387C20.2562 44.3947 20.7391 44.5948 21.2427 44.5948C21.746 44.5944 22.2286 44.3942 22.5844 44.0382C22.9401 43.6822 23.14 43.1994 23.14 42.6961V33.8374C23.1396 33.3343 22.9396 32.8519 22.5839 32.4962C22.2281 32.1405 21.7458 31.9405 21.2427 31.9401ZM24.4053 44.5948C24.4053 44.9307 24.5388 45.2529 24.7763 45.4904C25.0139 45.728 25.3361 45.8614 25.672 45.8614H26.9373V50.2894C26.9373 50.7928 27.1372 51.2755 27.493 51.6315C27.8487 51.9876 28.3313 52.1877 28.8347 52.1881C29.3382 52.1881 29.8212 51.9881 30.1772 51.632C30.5333 51.2759 30.7333 50.793 30.7333 50.2894V45.8601H33.264V50.2894C33.264 50.793 33.464 51.2759 33.8201 51.632C34.1762 51.9881 34.6591 52.1881 35.1627 52.1881C35.6662 52.1881 36.1492 51.9881 36.5052 51.632C36.8613 51.2759 37.0613 50.793 37.0613 50.2894V45.8601H38.3267C38.6624 45.8601 38.9844 45.7268 39.2219 45.4896C39.4594 45.2523 39.593 44.9305 39.5933 44.5948V31.9401H24.4053V44.5948Z" fill="#4ADE80"/>
</g>
<defs>
<clipPath id="clip0_714_2534">
<rect width="64" height="64" fill="white"/>
</clipPath>
</defs>
</svg>
