<svg width="63" height="63" viewBox="0 0 63 63" fill="none" xmlns="http://www.w3.org/2000/svg">
<g clip-path="url(#clip0_715_3227)">
<mask id="path-1-inside-1_715_3227" fill="white">
<path fill-rule="evenodd" clip-rule="evenodd" d="M10.7702 3.70479C13.3232 3.13744 16.3637 2.95312 19.8799 2.95312H24.9747C28.1339 2.95312 31.084 4.53198 32.8364 7.16057L35.3954 10.9992C35.9796 11.8753 36.9629 12.4017 38.0161 12.4017H53.9382C58.9696 12.4017 63.0476 16.3737 62.9997 21.4887C62.9424 27.5799 62.9906 33.6733 62.9906 39.7647C62.9906 43.2809 62.8063 46.3214 62.2388 48.8744C61.6637 51.4633 60.6533 53.7395 58.8694 55.5234C57.0855 57.3073 54.8094 58.3176 52.2205 58.8927C49.6675 59.4603 46.6269 59.6445 43.1108 59.6445H19.8799C16.3637 59.6445 13.3232 59.4603 10.7702 58.8927C8.18145 58.3176 5.9051 57.3073 4.12121 55.5234C2.33735 53.7395 1.32711 51.4633 0.751787 48.8744C0.184432 46.3214 0.00012207 43.2809 0.00012207 39.7647V22.8329C0.00012207 19.3167 0.184432 16.2762 0.751787 13.7232C1.32711 11.1345 2.33735 8.8581 4.12121 7.07421C5.9051 5.29035 8.18145 4.28011 10.7702 3.70479Z"/>
</mask>
<path fill-rule="evenodd" clip-rule="evenodd" d="M10.7702 3.70479C13.3232 3.13744 16.3637 2.95312 19.8799 2.95312H24.9747C28.1339 2.95312 31.084 4.53198 32.8364 7.16057L35.3954 10.9992C35.9796 11.8753 36.9629 12.4017 38.0161 12.4017H53.9382C58.9696 12.4017 63.0476 16.3737 62.9997 21.4887C62.9424 27.5799 62.9906 33.6733 62.9906 39.7647C62.9906 43.2809 62.8063 46.3214 62.2388 48.8744C61.6637 51.4633 60.6533 53.7395 58.8694 55.5234C57.0855 57.3073 54.8094 58.3176 52.2205 58.8927C49.6675 59.4603 46.6269 59.6445 43.1108 59.6445H19.8799C16.3637 59.6445 13.3232 59.4603 10.7702 58.8927C8.18145 58.3176 5.9051 57.3073 4.12121 55.5234C2.33735 53.7395 1.32711 51.4633 0.751787 48.8744C0.184432 46.3214 0.00012207 43.2809 0.00012207 39.7647V22.8329C0.00012207 19.3167 0.184432 16.2762 0.751787 13.7232C1.32711 11.1345 2.33735 8.8581 4.12121 7.07421C5.9051 5.29035 8.18145 4.28011 10.7702 3.70479Z" stroke="#9A3412" stroke-width="12" mask="url(#path-1-inside-1_715_3227)"/>
<path d="M36.0895 20.8V30.2406C36.0895 30.9446 35.2575 31.2966 34.7455 30.8326L31.9453 28.2565C31.6413 27.9684 31.1613 27.9684 30.8572 28.2565L28.0571 30.8166C27.5451 31.2966 26.713 30.9286 26.713 30.2406V20.8C26.713 20.352 27.065 20 27.5131 20H35.2895C35.7375 20 36.0895 20.352 36.0895 20.8Z" fill="#FB923C"/>
<path d="M39.3692 20.0943C38.9052 20.0303 38.4892 20.4303 38.4892 20.8943V30.5268C38.4892 31.7429 37.7691 32.8469 36.6491 33.343C35.529 33.823 34.233 33.615 33.3369 32.783L31.9448 31.5029C31.6408 31.2149 31.1768 31.2149 30.8568 31.5029L29.4647 32.783C28.8887 33.327 28.1366 33.599 27.3846 33.599C26.9686 33.599 26.5525 33.519 26.1525 33.343C25.0324 32.8469 24.3124 31.7429 24.3124 30.5268V20.8943C24.3124 20.4303 23.8964 20.0303 23.4324 20.0943C18.9521 20.6543 17 23.6785 17 27.9987V43.9996C17 48.7998 19.4001 52 25.0004 52H37.8011C43.4015 52 45.8016 48.7998 45.8016 43.9996V27.9987C45.8016 23.6785 43.8495 20.6543 39.3692 20.0943ZM40.2013 46.7997H26.6005C25.9445 46.7997 25.4005 46.2557 25.4005 45.5996C25.4005 44.9436 25.9445 44.3996 26.6005 44.3996H40.2013C40.8573 44.3996 41.4013 44.9436 41.4013 45.5996C41.4013 46.2557 40.8573 46.7997 40.2013 46.7997ZM40.2013 40.3994H33.4009C32.7449 40.3994 32.2008 39.8553 32.2008 39.1993C32.2008 38.5433 32.7449 37.9992 33.4009 37.9992H40.2013C40.8573 37.9992 41.4013 38.5433 41.4013 39.1993C41.4013 39.8553 40.8573 40.3994 40.2013 40.3994Z" fill="#FB923C"/>
</g>
<defs>
<clipPath id="clip0_715_3227">
<rect width="63" height="63" fill="white"/>
</clipPath>
</defs>
</svg>
