<svg width="63" height="63" viewBox="0 0 63 63" fill="none" xmlns="http://www.w3.org/2000/svg">
<g clip-path="url(#clip0_715_3091)">
<mask id="path-1-inside-1_715_3091" fill="white">
<path fill-rule="evenodd" clip-rule="evenodd" d="M10.7701 3.70479C13.323 3.13744 16.3636 2.95312 19.8798 2.95312H24.9746C28.1337 2.95312 31.0839 4.53198 32.8363 7.16057L35.3953 10.9992C35.9795 11.8753 36.9628 12.4017 38.016 12.4017H53.9381C58.9695 12.4017 63.0475 16.3737 62.9996 21.4887C62.9423 27.5799 62.9905 33.6733 62.9905 39.7647C62.9905 43.2809 62.8062 46.3214 62.2387 48.8744C61.6636 51.4633 60.6532 53.7395 58.8693 55.5234C57.0854 57.3073 54.8093 58.3176 52.2203 58.8927C49.6673 59.4603 46.6268 59.6445 43.1107 59.6445H19.8798C16.3636 59.6445 13.323 59.4603 10.7701 58.8927C8.18133 58.3176 5.90498 57.3073 4.12109 55.5234C2.33723 53.7395 1.32699 51.4633 0.751665 48.8744C0.18431 46.3214 0 43.2809 0 39.7647V22.8329C0 19.3167 0.18431 16.2762 0.751665 13.7232C1.32699 11.1345 2.33723 8.8581 4.12109 7.07421C5.90498 5.29035 8.18133 4.28011 10.7701 3.70479Z"/>
</mask>
<path fill-rule="evenodd" clip-rule="evenodd" d="M10.7701 3.70479C13.323 3.13744 16.3636 2.95312 19.8798 2.95312H24.9746C28.1337 2.95312 31.0839 4.53198 32.8363 7.16057L35.3953 10.9992C35.9795 11.8753 36.9628 12.4017 38.016 12.4017H53.9381C58.9695 12.4017 63.0475 16.3737 62.9996 21.4887C62.9423 27.5799 62.9905 33.6733 62.9905 39.7647C62.9905 43.2809 62.8062 46.3214 62.2387 48.8744C61.6636 51.4633 60.6532 53.7395 58.8693 55.5234C57.0854 57.3073 54.8093 58.3176 52.2203 58.8927C49.6673 59.4603 46.6268 59.6445 43.1107 59.6445H19.8798C16.3636 59.6445 13.323 59.4603 10.7701 58.8927C8.18133 58.3176 5.90498 57.3073 4.12109 55.5234C2.33723 53.7395 1.32699 51.4633 0.751665 48.8744C0.18431 46.3214 0 43.2809 0 39.7647V22.8329C0 19.3167 0.18431 16.2762 0.751665 13.7232C1.32699 11.1345 2.33723 8.8581 4.12109 7.07421C5.90498 5.29035 8.18133 4.28011 10.7701 3.70479Z" stroke="#1E40AF" stroke-width="12" mask="url(#path-1-inside-1_715_3091)"/>
<path d="M46 21H35.1C34.8348 21 34.5804 21.1054 34.3929 21.2929C34.2054 21.4804 34.1 21.7348 34.1 22C34.1 22.2652 34.2054 22.5196 34.3929 22.7071C34.5804 22.8946 34.8348 23 35.1 23H43.63L34.81 32C34.7181 32.0939 34.6455 32.205 34.5966 32.3269C34.5476 32.4488 34.5231 32.5792 34.5244 32.7106C34.5258 32.842 34.5531 32.9718 34.6047 33.0927C34.6562 33.2136 34.7311 33.3231 34.825 33.415C34.9189 33.5069 35.03 33.5795 35.1519 33.6284C35.2738 33.6774 35.4042 33.7019 35.5356 33.7006C35.667 33.6992 35.7968 33.6719 35.9177 33.6203C36.0386 33.5688 36.1481 33.4939 36.24 33.4L45 24.46V32.9C45 33.1652 45.1054 33.4196 45.2929 33.6071C45.4804 33.7946 45.7348 33.9 46 33.9C46.2652 33.9 46.5196 33.7946 46.7071 33.6071C46.8946 33.4196 47 33.1652 47 32.9V22C47 21.7348 46.8946 21.4804 46.7071 21.2929C46.5196 21.1054 46.2652 21 46 21Z" fill="#60A5FA"/>
<path d="M25.46 29.73C25.308 29.6422 25.1355 29.596 24.96 29.596C24.7845 29.596 24.612 29.6422 24.46 29.73L15.78 34.73L25 40L34.19 34.74L25.46 29.73Z" fill="#60A5FA"/>
<path d="M15 46.73C14.9993 46.9062 15.0452 47.0795 15.133 47.2322C15.2208 47.385 15.3474 47.5119 15.5 47.6L24 52.46V41.46L15 36.28V46.73Z" fill="#60A5FA"/>
<path d="M26 52.46L34.5 47.6C34.6526 47.5119 34.7792 47.385 34.867 47.2322C34.9548 47.0795 35.0007 46.9062 35 46.73V36.29L26 41.44V52.46Z" fill="#60A5FA"/>
</g>
<defs>
<clipPath id="clip0_715_3091">
<rect width="63" height="63" fill="white"/>
</clipPath>
</defs>
</svg>
