<svg width="63" height="63" viewBox="0 0 63 63" fill="none" xmlns="http://www.w3.org/2000/svg">
<g clip-path="url(#clip0_715_2750)">
<mask id="path-1-inside-1_715_2750" fill="white">
<path fill-rule="evenodd" clip-rule="evenodd" d="M10.7702 3.70479C13.3232 3.13744 16.3637 2.95312 19.8799 2.95312H24.9747C28.1339 2.95312 31.084 4.53198 32.8364 7.16057L35.3954 10.9992C35.9796 11.8753 36.9629 12.4017 38.0161 12.4017H53.9382C58.9696 12.4017 63.0476 16.3737 62.9997 21.4887C62.9424 27.5799 62.9906 33.6733 62.9906 39.7647C62.9906 43.2809 62.8063 46.3214 62.2388 48.8744C61.6637 51.4633 60.6533 53.7395 58.8694 55.5234C57.0855 57.3073 54.8094 58.3176 52.2205 58.8927C49.6675 59.4603 46.6269 59.6445 43.1108 59.6445H19.8799C16.3637 59.6445 13.3232 59.4603 10.7702 58.8927C8.18145 58.3176 5.9051 57.3073 4.12121 55.5234C2.33735 53.7395 1.32711 51.4633 0.751787 48.8744C0.184432 46.3214 0.00012207 43.2809 0.00012207 39.7647V22.8329C0.00012207 19.3167 0.184432 16.2762 0.751787 13.7232C1.32711 11.1345 2.33735 8.8581 4.12121 7.07421C5.9051 5.29035 8.18145 4.28011 10.7702 3.70479Z"/>
</mask>
<path fill-rule="evenodd" clip-rule="evenodd" d="M10.7702 3.70479C13.3232 3.13744 16.3637 2.95312 19.8799 2.95312H24.9747C28.1339 2.95312 31.084 4.53198 32.8364 7.16057L35.3954 10.9992C35.9796 11.8753 36.9629 12.4017 38.0161 12.4017H53.9382C58.9696 12.4017 63.0476 16.3737 62.9997 21.4887C62.9424 27.5799 62.9906 33.6733 62.9906 39.7647C62.9906 43.2809 62.8063 46.3214 62.2388 48.8744C61.6637 51.4633 60.6533 53.7395 58.8694 55.5234C57.0855 57.3073 54.8094 58.3176 52.2205 58.8927C49.6675 59.4603 46.6269 59.6445 43.1108 59.6445H19.8799C16.3637 59.6445 13.3232 59.4603 10.7702 58.8927C8.18145 58.3176 5.9051 57.3073 4.12121 55.5234C2.33735 53.7395 1.32711 51.4633 0.751787 48.8744C0.184432 46.3214 0.00012207 43.2809 0.00012207 39.7647V22.8329C0.00012207 19.3167 0.184432 16.2762 0.751787 13.7232C1.32711 11.1345 2.33735 8.8581 4.12121 7.07421C5.9051 5.29035 8.18145 4.28011 10.7702 3.70479Z" stroke="#6B21A8" stroke-width="12" mask="url(#path-1-inside-1_715_2750)"/>
<g clip-path="url(#clip1_715_2750)">
<path d="M48.3956 24.2373C46.405 24.2373 44.7912 25.8511 44.7912 27.8417C44.7912 28.3411 44.8928 28.8168 45.0765 29.2492L37.5261 36.7997C37.0936 36.6161 36.6179 36.5143 36.1185 36.5143C35.619 36.5143 35.1433 36.6161 34.7109 36.7997L30.2006 32.2894C30.3842 31.857 30.4859 31.3813 30.4859 30.8818C30.4859 28.8912 28.8721 27.2774 26.8815 27.2774C24.8909 27.2774 23.2771 28.8912 23.2771 30.8818C23.2771 31.3812 23.3787 31.8569 23.5624 32.2893L16.0119 39.8397C15.5794 39.6561 15.1038 39.5544 14.6043 39.5544C12.6137 39.5544 10.9999 41.1681 10.9999 43.1588C10.9999 45.1494 12.6137 46.7632 14.6043 46.7632C16.5949 46.7632 18.2087 45.1494 18.2087 43.1588C18.2087 42.6594 18.107 42.1837 17.9234 41.7512L25.4739 34.2008C25.9063 34.3845 26.382 34.4861 26.8815 34.4861C27.3809 34.4861 27.8566 34.3845 28.289 34.2008L32.7994 38.7112C32.6157 39.1436 32.5141 39.6193 32.5141 40.1187C32.5141 42.1093 34.1278 43.7231 36.1185 43.7231C38.1091 43.7231 39.7229 42.1093 39.7229 40.1187C39.7229 39.6193 39.6212 39.1436 39.4376 38.7112L46.988 31.1607C47.4204 31.3444 47.8961 31.446 48.3956 31.446C50.3862 31.446 52 29.8322 52 27.8416C52 25.851 50.3862 24.2373 48.3956 24.2373Z" fill="#C084FC"/>
</g>
</g>
<defs>
<clipPath id="clip0_715_2750">
<rect width="63" height="63" fill="white"/>
</clipPath>
<clipPath id="clip1_715_2750">
<rect width="41" height="41" fill="white" transform="translate(11 15)"/>
</clipPath>
</defs>
</svg>
