<svg width="63" height="63" viewBox="0 0 63 63" fill="none" xmlns="http://www.w3.org/2000/svg">
<g clip-path="url(#clip0_715_2911)">
<mask id="path-1-inside-1_715_2911" fill="white">
<path fill-rule="evenodd" clip-rule="evenodd" d="M10.7702 3.70479C13.3232 3.13744 16.3637 2.95312 19.8799 2.95312H24.9747C28.1339 2.95312 31.084 4.53198 32.8364 7.16057L35.3954 10.9992C35.9796 11.8753 36.9629 12.4017 38.0161 12.4017H53.9382C58.9696 12.4017 63.0476 16.3737 62.9997 21.4887C62.9424 27.5799 62.9906 33.6733 62.9906 39.7647C62.9906 43.2809 62.8063 46.3214 62.2388 48.8744C61.6637 51.4633 60.6533 53.7395 58.8694 55.5234C57.0855 57.3073 54.8094 58.3176 52.2205 58.8927C49.6675 59.4603 46.6269 59.6445 43.1108 59.6445H19.8799C16.3637 59.6445 13.3232 59.4603 10.7702 58.8927C8.18145 58.3176 5.9051 57.3073 4.12121 55.5234C2.33735 53.7395 1.32711 51.4633 0.751787 48.8744C0.184432 46.3214 0.00012207 43.2809 0.00012207 39.7647V22.8329C0.00012207 19.3167 0.184432 16.2762 0.751787 13.7232C1.32711 11.1345 2.33735 8.8581 4.12121 7.07421C5.9051 5.29035 8.18145 4.28011 10.7702 3.70479Z"/>
</mask>
<path fill-rule="evenodd" clip-rule="evenodd" d="M10.7702 3.70479C13.3232 3.13744 16.3637 2.95312 19.8799 2.95312H24.9747C28.1339 2.95312 31.084 4.53198 32.8364 7.16057L35.3954 10.9992C35.9796 11.8753 36.9629 12.4017 38.0161 12.4017H53.9382C58.9696 12.4017 63.0476 16.3737 62.9997 21.4887C62.9424 27.5799 62.9906 33.6733 62.9906 39.7647C62.9906 43.2809 62.8063 46.3214 62.2388 48.8744C61.6637 51.4633 60.6533 53.7395 58.8694 55.5234C57.0855 57.3073 54.8094 58.3176 52.2205 58.8927C49.6675 59.4603 46.6269 59.6445 43.1108 59.6445H19.8799C16.3637 59.6445 13.3232 59.4603 10.7702 58.8927C8.18145 58.3176 5.9051 57.3073 4.12121 55.5234C2.33735 53.7395 1.32711 51.4633 0.751787 48.8744C0.184432 46.3214 0.00012207 43.2809 0.00012207 39.7647V22.8329C0.00012207 19.3167 0.184432 16.2762 0.751787 13.7232C1.32711 11.1345 2.33735 8.8581 4.12121 7.07421C5.9051 5.29035 8.18145 4.28011 10.7702 3.70479Z" stroke="#6B21A8" stroke-width="12" mask="url(#path-1-inside-1_715_2911)"/>
<g clip-path="url(#clip1_715_2911)">
<path d="M32.811 35.855C32.7047 35.8305 32.6271 35.7286 32.6271 35.6125V31.9315H33.7118C35.0216 31.9315 36.1167 30.9986 36.3689 29.762H32.6271C32.3272 29.762 32.0847 29.5196 32.0847 29.2197C32.0847 28.9203 32.3272 28.6773 32.6271 28.6773H36.4237V27.0502C36.4237 26.7508 36.1813 26.5078 35.8813 26.5078H26.1187C25.8188 26.5078 25.5764 26.7508 25.5764 27.0502V29.2197C25.5764 30.715 26.7929 31.9315 28.2882 31.9315H29.373V37.3557C29.373 38.2528 30.103 38.9828 31.0001 38.9828C32.3278 38.9828 33.5709 39.5084 34.4994 40.4641C35.4274 41.4192 35.9177 42.6769 35.8792 44.0063C35.8071 46.5478 33.681 48.6739 31.1411 48.7455C28.7194 48.823 26.5835 47.0614 26.1849 44.6685C26.0559 43.8886 25.405 43.3218 24.6376 43.3218H24.5286C24.0605 43.3218 23.6196 43.5236 23.3191 43.8745C23.0219 44.2216 22.8922 44.6799 22.9633 45.1318C23.5962 49.1588 27.0142 52.0003 30.9914 52.0003C31.3596 52.0003 31.7333 51.9759 32.1092 51.9254C35.742 51.4411 38.5314 48.6799 39.0504 45.0553C39.653 40.8415 36.9124 36.8003 32.811 35.855Z" fill="#C084FC"/>
<path d="M40.7627 20H21.2374C20.9375 20 20.6951 20.2424 20.6951 20.5424V22.1695H24.4917C24.7916 22.1695 25.034 22.4119 25.034 22.7118C25.034 23.0118 24.7916 23.2542 24.4917 23.2542H20.7499C21.0021 24.4903 22.0977 25.4237 23.4069 25.4237H38.5932C40.0885 25.4237 41.3051 24.2071 41.3051 22.7118V20.5424C41.3051 20.2424 41.0626 20 40.7627 20Z" fill="#C084FC"/>
</g>
</g>
<defs>
<clipPath id="clip0_715_2911">
<rect width="63" height="63" fill="white"/>
</clipPath>
<clipPath id="clip1_715_2911">
<rect width="32" height="32" fill="white" transform="translate(15 20)"/>
</clipPath>
</defs>
</svg>
