<svg width="64" height="64" viewBox="0 0 64 64" fill="none" xmlns="http://www.w3.org/2000/svg">
<g clip-path="url(#clip0_712_2818)">
<mask id="path-1-inside-1_712_2818" fill="white">
<path fill-rule="evenodd" clip-rule="evenodd" d="M10.941 3.7636C13.5345 3.18724 16.6233 3 20.1953 3H25.371C28.5803 3 31.5773 4.60392 33.3575 7.27423L35.9571 11.1738C36.5506 12.0638 37.5495 12.5985 38.6194 12.5985H54.7943C59.9055 12.5985 64.0482 16.6336 63.9996 21.8298C63.9413 28.0176 63.9903 34.2078 63.9903 40.3959C63.9903 43.9679 63.8031 47.0567 63.2266 49.6502C62.6423 52.2802 61.6159 54.5925 59.8037 56.4047C57.9915 58.2169 55.6792 59.2433 53.0492 59.8275C50.4557 60.4041 47.3669 60.5913 43.795 60.5913H20.1953C16.6233 60.5913 13.5345 60.4041 10.941 59.8275C8.31119 59.2433 5.99871 58.2169 4.1865 56.4047C2.37433 54.5925 1.34805 52.2802 0.763597 49.6502C0.187236 47.0567 0 43.9679 0 40.3959V23.1953C0 19.6233 0.187236 16.5345 0.763597 13.941C1.34805 11.3112 2.37433 8.99871 4.1865 7.1865C5.99871 5.37433 8.31119 4.34805 10.941 3.7636Z"/>
</mask>
<path fill-rule="evenodd" clip-rule="evenodd" d="M10.941 3.7636C13.5345 3.18724 16.6233 3 20.1953 3H25.371C28.5803 3 31.5773 4.60392 33.3575 7.27423L35.9571 11.1738C36.5506 12.0638 37.5495 12.5985 38.6194 12.5985H54.7943C59.9055 12.5985 64.0482 16.6336 63.9996 21.8298C63.9413 28.0176 63.9903 34.2078 63.9903 40.3959C63.9903 43.9679 63.8031 47.0567 63.2266 49.6502C62.6423 52.2802 61.6159 54.5925 59.8037 56.4047C57.9915 58.2169 55.6792 59.2433 53.0492 59.8275C50.4557 60.4041 47.3669 60.5913 43.795 60.5913H20.1953C16.6233 60.5913 13.5345 60.4041 10.941 59.8275C8.31119 59.2433 5.99871 58.2169 4.1865 56.4047C2.37433 54.5925 1.34805 52.2802 0.763597 49.6502C0.187236 47.0567 0 43.9679 0 40.3959V23.1953C0 19.6233 0.187236 16.5345 0.763597 13.941C1.34805 11.3112 2.37433 8.99871 4.1865 7.1865C5.99871 5.37433 8.31119 4.34805 10.941 3.7636Z" stroke="#9D174D" stroke-width="12" mask="url(#path-1-inside-1_712_2818)"/>
<path d="M25.6 20H38.4C40.9461 20 43.3879 21.0114 45.1882 22.8118C46.9886 24.6121 48 27.0539 48 29.6V42.4C48 44.9461 46.9886 47.3879 45.1882 49.1882C43.3879 50.9886 40.9461 52 38.4 52H25.6C23.0539 52 20.6121 50.9886 18.8118 49.1882C17.0114 47.3879 16 44.9461 16 42.4V29.6C16 27.0539 17.0114 24.6121 18.8118 22.8118C20.6121 21.0114 23.0539 20 25.6 20ZM35.2 34.4C34.7757 34.4 34.3687 34.5686 34.0686 34.8686C33.7686 35.1687 33.6 35.5757 33.6 36C33.6 36.4243 33.7686 36.8313 34.0686 37.1314C34.3687 37.4314 34.7757 37.6 35.2 37.6H40C40.4243 37.6 40.8313 37.4314 41.1314 37.1314C41.4314 36.8313 41.6 36.4243 41.6 36C41.6 35.5757 41.4314 35.1687 41.1314 34.8686C40.8313 34.5686 40.4243 34.4 40 34.4H35.2ZM32 40.8C31.5757 40.8 31.1687 40.9686 30.8686 41.2686C30.5686 41.5687 30.4 41.9757 30.4 42.4C30.4 42.8243 30.5686 43.2313 30.8686 43.5314C31.1687 43.8314 31.5757 44 32 44H40C40.4243 44 40.8313 43.8314 41.1314 43.5314C41.4314 43.2313 41.6 42.8243 41.6 42.4C41.6 41.9757 41.4314 41.5687 41.1314 41.2686C40.8313 40.9686 40.4243 40.8 40 40.8H32ZM32 28C31.5757 28 31.1687 28.1686 30.8686 28.4686C30.5686 28.7687 30.4 29.1757 30.4 29.6C30.4 30.0243 30.5686 30.4313 30.8686 30.7314C31.1687 31.0314 31.5757 31.2 32 31.2H40C40.4243 31.2 40.8313 31.0314 41.1314 30.7314C41.4314 30.4313 41.6 30.0243 41.6 29.6C41.6 29.1757 41.4314 28.7687 41.1314 28.4686C40.8313 28.1686 40.4243 28 40 28H32ZM25.3248 36.3888L24.1936 35.2576C24.046 35.1048 23.8695 34.9829 23.6742 34.899C23.479 34.8152 23.2691 34.771 23.0566 34.7692C22.8442 34.7674 22.6335 34.8078 22.4369 34.8883C22.2402 34.9687 22.0616 35.0875 21.9114 35.2378C21.7611 35.388 21.6423 35.5666 21.5619 35.7633C21.4814 35.9599 21.441 36.1706 21.4428 36.383C21.4446 36.5955 21.4888 36.8054 21.5726 37.0006C21.6565 37.1959 21.7784 37.3724 21.9312 37.52L24.1936 39.7824C24.3422 39.9312 24.5187 40.0492 24.7129 40.1297C24.9071 40.2102 25.1153 40.2517 25.3256 40.2517C25.5359 40.2517 25.7441 40.2102 25.9383 40.1297C26.1325 40.0492 26.309 39.9312 26.4576 39.7824L30.9824 35.2576C31.2828 34.9576 31.4518 34.5505 31.4521 34.1259C31.4524 33.7013 31.284 33.294 30.984 32.9936C30.684 32.6932 30.2769 32.5242 29.8523 32.5239C29.4277 32.5236 29.0204 32.692 28.72 32.992L25.3248 36.3872V36.3888Z" fill="#F472B6"/>
</g>
<defs>
<clipPath id="clip0_712_2818">
<rect width="64" height="64" fill="white"/>
</clipPath>
</defs>
</svg>
