<svg width="64" height="64" viewBox="0 0 64 64" fill="none" xmlns="http://www.w3.org/2000/svg">
<g clip-path="url(#clip0_715_3730)">
<mask id="path-1-inside-1_715_3730" fill="white">
<path fill-rule="evenodd" clip-rule="evenodd" d="M10.941 3.7636C13.5345 3.18724 16.6233 3 20.1953 3H25.371C28.5803 3 31.5773 4.60392 33.3575 7.27423L35.9571 11.1738C36.5506 12.0638 37.5495 12.5985 38.6194 12.5985H54.7943C59.9055 12.5985 64.0482 16.6336 63.9996 21.8298C63.9413 28.0176 63.9903 34.2078 63.9903 40.3959C63.9903 43.9679 63.8031 47.0567 63.2266 49.6502C62.6423 52.2802 61.6159 54.5925 59.8037 56.4047C57.9915 58.2169 55.6792 59.2433 53.0492 59.8275C50.4557 60.4041 47.3669 60.5913 43.795 60.5913H20.1953C16.6233 60.5913 13.5345 60.4041 10.941 59.8275C8.31119 59.2433 5.99871 58.2169 4.1865 56.4047C2.37433 54.5925 1.34805 52.2802 0.763596 49.6502C0.187236 47.0567 0 43.9679 0 40.3959V23.1953C0 19.6233 0.187236 16.5345 0.763596 13.941C1.34805 11.3112 2.37433 8.99871 4.1865 7.1865C5.99871 5.37433 8.31119 4.34805 10.941 3.7636Z"/>
</mask>
<path fill-rule="evenodd" clip-rule="evenodd" d="M10.941 3.7636C13.5345 3.18724 16.6233 3 20.1953 3H25.371C28.5803 3 31.5773 4.60392 33.3575 7.27423L35.9571 11.1738C36.5506 12.0638 37.5495 12.5985 38.6194 12.5985H54.7943C59.9055 12.5985 64.0482 16.6336 63.9996 21.8298C63.9413 28.0176 63.9903 34.2078 63.9903 40.3959C63.9903 43.9679 63.8031 47.0567 63.2266 49.6502C62.6423 52.2802 61.6159 54.5925 59.8037 56.4047C57.9915 58.2169 55.6792 59.2433 53.0492 59.8275C50.4557 60.4041 47.3669 60.5913 43.795 60.5913H20.1953C16.6233 60.5913 13.5345 60.4041 10.941 59.8275C8.31119 59.2433 5.99871 58.2169 4.1865 56.4047C2.37433 54.5925 1.34805 52.2802 0.763596 49.6502C0.187236 47.0567 0 43.9679 0 40.3959V23.1953C0 19.6233 0.187236 16.5345 0.763596 13.941C1.34805 11.3112 2.37433 8.99871 4.1865 7.1865C5.99871 5.37433 8.31119 4.34805 10.941 3.7636Z" stroke="#1E40AF" stroke-width="12" mask="url(#path-1-inside-1_715_3730)"/>
<g clip-path="url(#clip1_715_3730)">
<path d="M51.2341 33.1766V33.1853C51.2341 33.5896 51.3934 33.9571 51.6541 34.2266C51.9656 34.5153 52.3856 34.6921 52.8459 34.6921C52.9001 34.6921 52.9526 34.6903 53.0069 34.6851H52.9999V36.5226C52.9544 36.5191 52.9001 36.5156 52.8459 36.5156C52.3856 36.5156 51.9656 36.6923 51.6524 36.9828L51.6541 36.9811C51.3934 37.2558 51.2341 37.6286 51.2341 38.0381V38.0643V38.0626C51.2341 38.4779 51.2668 39.0467 51.3321 39.7688C51.3975 40.491 51.4301 41.1146 51.4301 41.6396C51.4406 41.7411 51.4476 41.8583 51.4476 41.9773C51.4476 42.7141 51.2079 43.3948 50.8001 43.9461L50.8071 43.9373C50.3276 44.3538 49.6959 44.6076 49.0064 44.6076C48.9119 44.6076 48.8191 44.6023 48.7281 44.5936L48.7404 44.5953H47.4279V42.9573H47.8286V42.8908C47.8671 42.8943 47.9109 42.8978 47.9564 42.8978C48.2609 42.8978 48.5391 42.7823 48.7491 42.5951L48.7474 42.5968C48.9189 42.3273 49.0204 41.9983 49.0204 41.6448C49.0204 41.5766 49.0169 41.5083 49.0081 41.4401V41.4488L48.8769 38.0363C48.8716 37.9733 48.8699 37.8998 48.8699 37.8263C48.8699 37.2873 49.0064 36.7816 49.2461 36.3388L49.2374 36.3546C49.5034 35.9713 49.9059 35.6966 50.3731 35.6021L50.3854 35.6003V35.4691C49.9129 35.3746 49.5121 35.1138 49.2409 34.7516L49.2374 34.7463C49.0046 34.3211 48.8664 33.8153 48.8664 33.2781C48.8664 33.1941 48.8699 33.1101 48.8769 33.0278V33.0383L49.0081 29.6258C49.0151 29.5663 49.0186 29.4963 49.0186 29.4263C49.0186 29.0781 48.9294 28.7508 48.7736 28.4673L48.7789 28.4778C48.5706 28.2871 48.2924 28.1716 47.9879 28.1716C47.9319 28.1716 47.8759 28.1751 47.8216 28.1838H47.8286H47.4349V26.6123H48.7474C48.8279 26.6036 48.9206 26.6001 49.0134 26.6001C49.7029 26.6001 50.3346 26.8538 50.8176 27.2721L50.8141 27.2686C51.2149 27.8111 51.4546 28.4918 51.4546 29.2286C51.4546 29.3476 51.4476 29.4648 51.4354 29.5803L51.4371 29.5663C51.4371 30.0913 51.4045 30.7149 51.3391 31.4371C51.2738 32.1593 51.2394 32.7391 51.2359 33.1766H51.2341ZM44.2761 35.2766C46.1591 35.8891 47.1006 36.9397 47.1006 38.4283V38.4791C47.1006 39.4241 46.6666 40.2676 45.9859 40.8206L45.9806 40.8241C45.1984 41.4243 44.2044 41.7848 43.1281 41.7848C43.0231 41.7848 42.9181 41.7813 42.8149 41.7743H42.8289C42.0939 41.7568 41.3974 41.6151 40.7534 41.3666L40.7954 41.3806C40.0866 41.1426 39.4741 40.7838 38.9526 40.3253L38.9579 40.3306L40.3351 38.2971C41.0596 38.9131 41.9941 39.3016 43.0179 39.3471H43.0266C43.9016 39.3471 44.3391 39.063 44.3391 38.4948C44.3391 38.2323 44.142 37.9698 43.7476 37.7073C43.3784 37.5131 42.9426 37.3346 42.4911 37.1963L42.4369 37.1823L42.1744 37.0511C40.38 36.3511 39.4829 35.3443 39.4829 34.0306C39.4829 34.0043 39.4811 33.9746 39.4811 33.9431C39.4811 33.0366 39.9011 32.2281 40.5591 31.7048L40.5644 31.6996C41.2959 31.1431 42.2234 30.8071 43.2279 30.8071C43.3066 30.8071 43.3854 30.8088 43.4641 30.8141H43.4536C44.8169 30.8526 46.0594 31.3408 47.0429 32.1353L47.0324 32.1266L45.6586 33.9606C45.0514 33.4671 44.2796 33.1538 43.4361 33.1083H43.4274C42.6807 33.1083 42.3074 33.3708 42.3074 33.8958C42.3319 34.2056 42.5086 34.4698 42.7624 34.6151L42.7676 34.6168C43.0704 34.8058 43.4186 34.9616 43.7879 35.0683L43.8176 35.0753C44.0393 35.1617 44.1945 35.227 44.2831 35.2713L44.2761 35.2766ZM20.7106 39.1511H21.1044L21.4946 41.3823C21.0571 41.5503 20.5496 41.6466 20.0211 41.6466C19.9861 41.6466 19.9494 41.6466 19.9144 41.6448H19.9196C18.0366 41.6448 17.0951 40.463 17.0951 38.0993V28.2538H16.1746C16.1344 28.2486 16.0871 28.2451 16.0381 28.2451C15.7459 28.2451 15.4816 28.3606 15.2874 28.5496C15.1369 28.8243 15.0476 29.1516 15.0476 29.4981C15.0476 29.5681 15.0511 29.6381 15.0581 29.7046V29.6958L15.1246 33.0453C15.1299 33.1188 15.1334 33.2046 15.1334 33.2921C15.1334 33.8363 15.0004 34.3491 14.7659 34.8023L14.7746 34.7848C14.5139 35.1611 14.1061 35.4201 13.6336 35.4726H13.6266V35.6038C14.1061 35.7001 14.5086 35.9748 14.7711 36.3528L14.7746 36.3581C15.0074 36.7833 15.1421 37.2908 15.1421 37.8281C15.1421 37.9016 15.1404 37.9751 15.1351 38.0468V38.0363C15.1351 38.4738 15.113 39.0863 15.0686 39.8738V41.4488C15.0634 41.5066 15.0599 41.5731 15.0599 41.6396C15.0599 42.0018 15.1474 42.3413 15.3031 42.6423L15.2979 42.6301C15.4851 42.8366 15.7529 42.9661 16.0539 42.9661C16.0994 42.9661 16.1449 42.9626 16.1904 42.9573H16.1851H16.5806V44.5323H15.2611C15.1824 44.5411 15.0896 44.5446 14.9969 44.5446C14.3056 44.5446 13.6739 44.2908 13.1891 43.8691L13.1926 43.8726C12.7919 43.3301 12.5521 42.6493 12.5521 41.9126C12.5521 41.7936 12.5591 41.6746 12.5714 41.5591L12.5696 41.5731C12.5696 41.0481 12.6023 40.4245 12.6676 39.7023C12.733 38.9802 12.7656 38.4114 12.7656 37.9961C12.7656 37.9838 12.7656 37.9716 12.7656 37.9576C12.7656 37.5621 12.6046 37.2051 12.3456 36.9461C12.0289 36.6801 11.6176 36.5191 11.1679 36.5191C11.1084 36.5191 11.0506 36.5226 10.9946 36.5278H11.0016V34.6903C11.0471 34.6938 11.1014 34.6973 11.1556 34.6973C11.6159 34.6973 12.0359 34.5206 12.3491 34.2301L12.3474 34.2318C12.6081 33.9623 12.7674 33.5948 12.7674 33.1906C12.7674 33.1871 12.7674 33.1836 12.7674 33.1801C12.7674 32.7858 12.7347 32.217 12.6694 31.4738C12.604 30.7307 12.5714 30.0978 12.5714 29.5751C12.5609 29.4736 12.5539 29.3563 12.5539 29.2373C12.5539 28.5006 12.7936 27.8198 13.2014 27.2686L13.1944 27.2773C13.6739 26.8608 14.3056 26.6071 14.9951 26.6071C15.0896 26.6071 15.1824 26.6123 15.2734 26.6211L15.2611 26.6193H20.1856V38.3058C20.1821 38.3338 20.1821 38.3653 20.1821 38.3986C20.1821 38.6086 20.2451 38.8028 20.3519 38.9656L20.3501 38.9621C20.4341 39.0723 20.5636 39.1441 20.7106 39.1476V39.1511ZM35.9391 35.2766C37.8221 35.8891 38.7636 36.9397 38.7636 38.4283V38.4791C38.7636 39.4241 38.3296 40.2676 37.6489 40.8206L37.6436 40.8241C36.8614 41.4243 35.8674 41.7848 34.7911 41.7848C34.6861 41.7848 34.5811 41.7813 34.4779 41.7743H34.4919C33.7429 41.7656 33.0306 41.6203 32.3726 41.3648L32.4146 41.3788C31.6971 41.1233 31.0759 40.7663 30.5334 40.3201L30.5439 40.3288L31.9211 38.2953C32.6456 38.9113 33.5801 39.2998 34.6039 39.3453H34.6126C35.4876 39.3453 35.9251 39.0613 35.9251 38.4931C35.9251 38.2306 35.728 37.9681 35.3336 37.7056C34.9644 37.5113 34.5286 37.3328 34.0771 37.1946L34.0229 37.1806L33.8251 37.0493C31.9865 36.3493 31.0671 35.3425 31.0671 34.0288C31.0671 34.0061 31.0654 33.9816 31.0654 33.9553C31.0654 33.0366 31.5029 32.2211 32.1801 31.7031L32.1871 31.6978C32.9344 31.1413 33.8759 30.8071 34.8944 30.8071C34.9696 30.8071 35.0449 30.8088 35.1184 30.8123H35.1079C36.4501 30.8438 37.6734 31.3356 38.6289 32.1336L38.6201 32.1266L37.2446 33.9623C36.6549 33.4776 35.9076 33.1643 35.0904 33.1101H35.0781C34.2906 33.1101 33.8969 33.3726 33.8969 33.8976C33.8986 34.2143 34.0841 34.4891 34.3519 34.6186L34.3571 34.6203C34.6791 34.8146 35.0519 34.9721 35.4474 35.0736L35.4771 35.0806C35.6941 35.1669 35.8464 35.2323 35.9339 35.2766H35.9391ZM25.7646 30.7476C25.8294 30.7441 25.9064 30.7423 25.9816 30.7423C27.1961 30.7423 28.2846 31.2901 29.0091 32.1528L29.0144 32.1581C29.7336 33.0768 30.1659 34.2476 30.1659 35.5198C30.1659 35.5951 30.1641 35.6721 30.1606 35.7473V35.7368C30.1554 36.1586 30.1081 36.5663 30.0224 36.9583L30.0294 36.9181V36.9846H23.7959C23.8554 37.6636 24.1826 38.2551 24.6691 38.6611L24.6726 38.6646C25.0944 39.0163 25.6404 39.2298 26.2371 39.2298C26.3264 39.2298 26.4156 39.2246 26.5031 39.2158L26.4926 39.2176C27.3431 39.1983 28.1324 38.9568 28.8114 38.5491L28.7904 38.5613L29.7704 40.3988C28.7501 41.1356 27.4744 41.5783 26.0936 41.5801C26.0341 41.5818 25.9659 41.5836 25.8959 41.5836C24.5151 41.5836 23.2639 41.0306 22.3504 40.1363C21.4334 39.1721 20.8699 37.8666 20.8699 36.4281C20.8699 36.3581 20.8716 36.2898 20.8734 36.2216V36.2321C20.8681 36.1376 20.8646 36.0256 20.8646 35.9136C20.8646 34.4978 21.4176 33.2116 22.3206 32.2578L22.3189 32.2596C23.1764 31.3286 24.4014 30.7476 25.7611 30.7476H25.7699H25.7646ZM23.7959 35.0806H27.5374C27.5374 33.7249 26.9465 33.0471 25.7646 33.0471C25.2659 33.0471 24.8144 33.2483 24.4854 33.5721C24.0986 33.9658 23.8449 34.4891 23.7959 35.0718V35.0806Z" fill="#60A5FA"/>
</g>
</g>
<defs>
<clipPath id="clip0_715_3730">
<rect width="64" height="64" fill="white"/>
</clipPath>
<clipPath id="clip1_715_3730">
<rect width="42" height="42" fill="white" transform="translate(11 14)"/>
</clipPath>
</defs>
</svg>
