<svg width="63" height="63" viewBox="0 0 63 63" fill="none" xmlns="http://www.w3.org/2000/svg">
<g clip-path="url(#clip0_715_2836)">
<mask id="path-1-inside-1_715_2836" fill="white">
<path fill-rule="evenodd" clip-rule="evenodd" d="M10.7701 3.70479C13.323 3.13744 16.3636 2.95312 19.8798 2.95312H24.9746C28.1337 2.95312 31.0839 4.53198 32.8363 7.16057L35.3953 10.9992C35.9795 11.8753 36.9628 12.4017 38.016 12.4017H53.9381C58.9695 12.4017 63.0475 16.3737 62.9996 21.4887C62.9423 27.5799 62.9905 33.6733 62.9905 39.7647C62.9905 43.2809 62.8062 46.3214 62.2387 48.8744C61.6636 51.4633 60.6532 53.7395 58.8693 55.5234C57.0854 57.3073 54.8093 58.3176 52.2203 58.8927C49.6673 59.4603 46.6268 59.6445 43.1107 59.6445H19.8798C16.3636 59.6445 13.323 59.4603 10.7701 58.8927C8.18133 58.3176 5.90498 57.3073 4.12109 55.5234C2.33723 53.7395 1.32699 51.4633 0.751665 48.8744C0.18431 46.3214 0 43.2809 0 39.7647V22.8329C0 19.3167 0.18431 16.2762 0.751665 13.7232C1.32699 11.1345 2.33723 8.8581 4.12109 7.07421C5.90498 5.29035 8.18133 4.28011 10.7701 3.70479Z"/>
</mask>
<path fill-rule="evenodd" clip-rule="evenodd" d="M10.7701 3.70479C13.323 3.13744 16.3636 2.95312 19.8798 2.95312H24.9746C28.1337 2.95312 31.0839 4.53198 32.8363 7.16057L35.3953 10.9992C35.9795 11.8753 36.9628 12.4017 38.016 12.4017H53.9381C58.9695 12.4017 63.0475 16.3737 62.9996 21.4887C62.9423 27.5799 62.9905 33.6733 62.9905 39.7647C62.9905 43.2809 62.8062 46.3214 62.2387 48.8744C61.6636 51.4633 60.6532 53.7395 58.8693 55.5234C57.0854 57.3073 54.8093 58.3176 52.2203 58.8927C49.6673 59.4603 46.6268 59.6445 43.1107 59.6445H19.8798C16.3636 59.6445 13.323 59.4603 10.7701 58.8927C8.18133 58.3176 5.90498 57.3073 4.12109 55.5234C2.33723 53.7395 1.32699 51.4633 0.751665 48.8744C0.18431 46.3214 0 43.2809 0 39.7647V22.8329C0 19.3167 0.18431 16.2762 0.751665 13.7232C1.32699 11.1345 2.33723 8.8581 4.12109 7.07421C5.90498 5.29035 8.18133 4.28011 10.7701 3.70479Z" stroke="#065F46" stroke-width="12" mask="url(#path-1-inside-1_715_2836)"/>
<path fill-rule="evenodd" clip-rule="evenodd" d="M14.2301 34.1439C13.8401 34.5338 13.5308 34.9966 13.3197 35.5061C13.1086 36.0156 13 36.5616 13 37.113C13 37.6645 13.1086 38.2105 13.3197 38.72C13.5308 39.2295 13.8401 39.6923 14.2301 40.0822L24.9178 50.7699C25.3077 51.1599 25.7705 51.4692 26.28 51.6803C26.7895 51.8914 27.3355 52 27.887 52C28.4384 52 28.9844 51.8914 29.4939 51.6803C30.0034 51.4692 30.4662 51.1599 30.8561 50.7699L43.7707 37.8553C44.1605 37.4654 44.4697 37.0025 44.6807 36.493C44.8916 35.9836 45.0001 35.4376 45 34.8862V22.5191C45 21.851 44.7346 21.2102 44.2622 20.7378C43.7897 20.2654 43.149 20 42.4809 20H30.1122C29.5608 19.9999 29.0147 20.1084 28.5053 20.3193C27.9958 20.5303 27.5329 20.8395 27.143 21.2293L14.2301 34.1439ZM34.9035 26.7176C33.0393 26.7176 31.5648 28.1148 31.5648 30.0562C31.5648 31.9993 33.0393 33.4352 34.9035 33.4352C36.8062 33.4352 38.2824 31.9993 38.2824 30.0562C38.2824 28.1148 36.8045 26.7176 34.9035 26.7176Z" fill="#34D399"/>
</g>
<defs>
<clipPath id="clip0_715_2836">
<rect width="63" height="63" fill="white"/>
</clipPath>
</defs>
</svg>
