<svg width="64" height="64" viewBox="0 0 64 64" fill="none" xmlns="http://www.w3.org/2000/svg">
<g clip-path="url(#clip0_709_4645)">
<path fill-rule="evenodd" clip-rule="evenodd" d="M10.941 3.7636C13.5345 3.18724 16.6233 3 20.1953 3H25.371C28.5803 3 31.5773 4.60392 33.3575 7.27423L35.9571 11.1738C36.5506 12.0638 37.5495 12.5985 38.6194 12.5985H54.7943C59.9055 12.5985 64.0482 16.6336 63.9996 21.8298C63.9413 28.0176 63.9903 34.2078 63.9903 40.3959C63.9903 43.9679 63.8031 47.0567 63.2266 49.6502C62.6423 52.2802 61.6159 54.5925 59.8037 56.4047C57.9915 58.2169 55.6792 59.2433 53.0492 59.8275C50.4557 60.4041 47.3669 60.5913 43.795 60.5913H20.1953C16.6233 60.5913 13.5345 60.4041 10.941 59.8275C8.31119 59.2433 5.99871 58.2169 4.1865 56.4047C2.37433 54.5925 1.34805 52.2802 0.763597 49.6502C0.187236 47.0567 0 43.9679 0 40.3959V23.1953C0 19.6233 0.187236 16.5345 0.763597 13.941C1.34805 11.3112 2.37433 8.99871 4.1865 7.1865C5.99871 5.37433 8.31119 4.34805 10.941 3.7636Z" fill="#166534"/>
<path d="M33.1972 20.3414C32.386 19.8852 31.3283 19.8872 30.5165 20.3414C26.4502 22.5855 22.3838 24.8302 18.3168 27.0732C17.5254 27.4896 16.9916 28.3394 17.0001 29.2215V42.7804C16.9944 43.6797 17.5557 44.5377 18.3675 44.9484C19.5357 45.5698 20.6706 46.2544 21.8599 46.8345C23.2337 47.5096 24.9525 47.6589 26.3431 46.9549C27.4719 46.3714 27.9733 45.0737 27.9718 43.8812C27.9809 39.4064 27.9733 34.9316 27.9753 30.4567C28.0022 30.2578 27.8528 30.0453 27.6359 30.0501C27.1162 30.0418 26.5959 30.0453 26.0762 30.0487C25.8799 30.0302 25.6882 30.1933 25.7031 30.3906C25.6961 34.8366 25.7045 39.2839 25.6989 43.7305C25.7102 44.3456 25.2946 44.9367 24.7019 45.1445C23.3328 45.6244 19.4251 43.0871 19.4251 43.0871C19.2817 43.0207 19.1907 42.8652 19.2047 42.7106C19.2047 38.2373 19.2054 33.7638 19.2047 29.2911C19.185 29.1108 19.2961 28.9484 19.4617 28.8747C23.5147 26.6439 27.5655 24.4075 31.6184 22.1753C31.7592 22.0813 31.9554 22.0816 32.0959 22.176C36.1488 24.4075 40.2004 26.6418 44.254 28.8728C44.4201 28.9463 44.5265 29.1114 44.5096 29.2911C44.5089 33.7638 44.511 38.2373 44.5082 42.7101C44.5202 42.8684 44.4384 43.0217 44.2906 43.0912C40.2756 45.31 36.2148 47.4572 32.236 49.7404C32.0624 49.8399 31.8657 49.9527 31.6712 49.843C30.6249 49.2643 29.5913 48.663 28.5485 48.0786C28.4351 48.0079 28.2907 47.9775 28.1725 48.0567C27.7049 48.3031 27.2651 48.5026 26.7282 48.7152C25.9742 49.0137 26.0946 49.1358 26.7747 49.532C27.9943 50.2222 29.2159 50.9096 30.4354 51.6005C31.2383 52.1015 32.317 52.1372 33.1457 51.6742C37.2127 49.4329 41.2784 47.189 45.3462 44.9478C46.1558 44.5349 46.7199 43.6802 46.7142 42.7802V29.2215C46.7221 28.3573 46.2087 27.5226 45.4412 27.1001C41.3607 24.8451 37.2783 22.595 33.1972 20.3414Z" fill="#4ADE80"/>
<path d="M39.3336 30.5214C37.7374 29.6674 35.8384 29.622 34.0646 29.7336C32.7831 29.8602 31.4353 30.2138 30.5017 31.1325C29.5441 32.0559 29.3357 33.5471 29.7905 34.7526C30.1165 35.6045 30.9369 36.1584 31.7854 36.4514C32.8783 36.8373 34.0262 36.9566 35.1744 37.0759C36.2217 37.1847 37.2694 37.2936 38.276 37.6048C38.6872 37.741 39.1661 37.9495 39.292 38.3969C39.4084 38.9268 39.2808 39.5426 38.8506 39.9108C37.4842 40.9922 33.6833 40.8265 32.3333 39.9753C31.7874 39.6127 31.5522 38.9708 31.4566 38.359C31.446 38.1684 31.2925 37.9935 31.0855 38.008C30.5672 38.0018 30.0489 38.0032 29.5306 38.0073C29.3498 37.9921 29.1618 38.1208 29.1519 38.3054C29.0454 41.1073 31.6188 42.3288 34.033 42.5977C35.4124 42.7292 36.822 42.7216 38.1802 42.4256C39.2013 42.1932 40.225 41.765 40.9279 40.9786C41.7946 40.0229 41.965 38.5999 41.5764 37.4094C41.2792 36.521 40.43 35.9512 39.5618 35.6581C38.3813 35.2533 36.9822 35.0357 35.9129 34.9338C34.3588 34.7858 32.5119 34.8463 32.072 33.825C31.8966 33.2903 32.0458 32.6263 32.5373 32.2974C33.8375 31.4154 36.4838 31.5326 37.8303 32.1914C38.4486 32.501 38.8069 33.1369 38.9548 33.7789C38.9822 33.9674 39.109 34.1642 39.3273 34.156C39.8421 34.1663 40.3568 34.1588 40.8714 34.1594C41.0482 34.1718 41.2418 34.072 41.2764 33.891C41.2545 32.5493 40.5694 31.1758 39.3336 30.5214Z" fill="#4ADE80"/>
</g>
<defs>
<clipPath id="clip0_709_4645">
<rect width="64" height="64" fill="white"/>
</clipPath>
</defs>
</svg>
