<svg width="63" height="63" viewBox="0 0 63 63" fill="none" xmlns="http://www.w3.org/2000/svg">
<g clip-path="url(#clip0_715_3260)">
<path fill-rule="evenodd" clip-rule="evenodd" d="M10.7701 3.70479C13.323 3.13744 16.3636 2.95312 19.8798 2.95312H24.9746C28.1337 2.95312 31.0839 4.53198 32.8363 7.16057L35.3953 10.9992C35.9795 11.8753 36.9628 12.4017 38.016 12.4017H53.9381C58.9695 12.4017 63.0475 16.3737 62.9996 21.4887C62.9423 27.5799 62.9905 33.6733 62.9905 39.7647C62.9905 43.2809 62.8062 46.3214 62.2387 48.8744C61.6636 51.4633 60.6532 53.7395 58.8693 55.5234C57.0854 57.3073 54.8093 58.3176 52.2203 58.8927C49.6673 59.4603 46.6268 59.6445 43.1107 59.6445H19.8798C16.3636 59.6445 13.323 59.4603 10.7701 58.8927C8.18133 58.3176 5.90498 57.3073 4.12109 55.5234C2.33723 53.7395 1.32699 51.4633 0.751665 48.8744C0.18431 46.3214 0 43.2809 0 39.7647V22.8329C0 19.3167 0.18431 16.2762 0.751665 13.7232C1.32699 11.1345 2.33723 8.8581 4.12109 7.07421C5.90498 5.29035 8.18133 4.28011 10.7701 3.70479Z" fill="#991B1B"/>
<path fill-rule="evenodd" clip-rule="evenodd" d="M15 42.9074H20.664L18.9086 48.1429H15V42.9074ZM15 32.9543H24L22.2457 38.1886H15V32.9543ZM15 23H27.336L25.5817 28.2354H15V23ZM32.9189 23H47V28.2354H31.1634L32.9189 23ZM27.8274 38.1897L29.5829 32.9543H47V38.1897H27.8274ZM26.2469 42.9074H47V48.1429H24.4914L26.2469 42.9074Z" fill="#F87171"/>
</g>
<defs>
<clipPath id="clip0_715_3260">
<rect width="63" height="63" fill="white"/>
</clipPath>
</defs>
</svg>
