<svg width="64" height="64" viewBox="0 0 64 64" fill="none" xmlns="http://www.w3.org/2000/svg">
<g clip-path="url(#clip0_714_2568)">
<mask id="path-1-inside-1_714_2568" fill="white">
<path fill-rule="evenodd" clip-rule="evenodd" d="M10.941 3.7636C13.5345 3.18724 16.6233 3 20.1953 3H25.371C28.5803 3 31.5773 4.60392 33.3575 7.27423L35.9571 11.1738C36.5506 12.0638 37.5495 12.5985 38.6194 12.5985H54.7943C59.9055 12.5985 64.0482 16.6336 63.9996 21.8298C63.9413 28.0176 63.9903 34.2078 63.9903 40.3959C63.9903 43.9679 63.8031 47.0567 63.2266 49.6502C62.6423 52.2802 61.6159 54.5925 59.8037 56.4047C57.9915 58.2169 55.6792 59.2433 53.0492 59.8275C50.4557 60.4041 47.3669 60.5913 43.795 60.5913H20.1953C16.6233 60.5913 13.5345 60.4041 10.941 59.8275C8.31119 59.2433 5.99871 58.2169 4.1865 56.4047C2.37433 54.5925 1.34805 52.2802 0.763597 49.6502C0.187236 47.0567 0 43.9679 0 40.3959V23.1953C0 19.6233 0.187236 16.5345 0.763597 13.941C1.34805 11.3112 2.37433 8.99871 4.1865 7.1865C5.99871 5.37433 8.31119 4.34805 10.941 3.7636Z"/>
</mask>
<path fill-rule="evenodd" clip-rule="evenodd" d="M10.941 3.7636C13.5345 3.18724 16.6233 3 20.1953 3H25.371C28.5803 3 31.5773 4.60392 33.3575 7.27423L35.9571 11.1738C36.5506 12.0638 37.5495 12.5985 38.6194 12.5985H54.7943C59.9055 12.5985 64.0482 16.6336 63.9996 21.8298C63.9413 28.0176 63.9903 34.2078 63.9903 40.3959C63.9903 43.9679 63.8031 47.0567 63.2266 49.6502C62.6423 52.2802 61.6159 54.5925 59.8037 56.4047C57.9915 58.2169 55.6792 59.2433 53.0492 59.8275C50.4557 60.4041 47.3669 60.5913 43.795 60.5913H20.1953C16.6233 60.5913 13.5345 60.4041 10.941 59.8275C8.31119 59.2433 5.99871 58.2169 4.1865 56.4047C2.37433 54.5925 1.34805 52.2802 0.763597 49.6502C0.187236 47.0567 0 43.9679 0 40.3959V23.1953C0 19.6233 0.187236 16.5345 0.763597 13.941C1.34805 11.3112 2.37433 8.99871 4.1865 7.1865C5.99871 5.37433 8.31119 4.34805 10.941 3.7636Z" stroke="#166534" stroke-width="12" mask="url(#path-1-inside-1_714_2568)"/>
<g clip-path="url(#clip1_714_2568)">
<path d="M42 41H36C34.9 41 34 40.1 34 39C34 37.9 34.9 37 36 37H42C42 37 48 30.3125 48 27C48 23.6875 45.3125 21 42 21C38.6875 21 36 23.6875 36 27C36 28.5938 37.3875 30.9625 38.8312 33H36C32.6937 33 30 35.6937 30 39C30 42.3063 32.6937 45 36 45H42C43.1 45 44 45.9 44 47C44 48.1 43.1 49 42 49H27.5938C26.5938 50.55 25.4812 51.9813 24.6375 53H42C45.3063 53 48 50.3063 48 47C48 43.6937 45.3063 41 42 41ZM42 25C43.1063 25 44 25.8937 44 27C44 28.1063 43.1063 29 42 29C40.8937 29 40 28.1063 40 27C40 25.8937 40.8937 25 42 25ZM22 37C18.6875 37 16 39.6875 16 43C16 46.3125 22 53 22 53C22 53 28 46.3125 28 43C28 39.6875 25.3125 37 22 37ZM22 45C20.8937 45 20 44.1063 20 43C20 41.8937 20.8937 41 22 41C23.1063 41 24 41.8937 24 43C24 44.1063 23.1063 45 22 45Z" fill="#4ADE80"/>
</g>
</g>
<defs>
<clipPath id="clip0_714_2568">
<rect width="64" height="64" fill="white"/>
</clipPath>
<clipPath id="clip1_714_2568">
<rect width="32" height="32" fill="white" transform="translate(16 21)"/>
</clipPath>
</defs>
</svg>
