<svg width="64" height="64" viewBox="0 0 64 64" fill="none" xmlns="http://www.w3.org/2000/svg">
<g clip-path="url(#clip0_712_2899)">
<path fill-rule="evenodd" clip-rule="evenodd" d="M10.941 3.7636C13.5345 3.18724 16.6233 3 20.1953 3H25.371C28.5803 3 31.5773 4.60392 33.3575 7.27423L35.9571 11.1738C36.5506 12.0638 37.5495 12.5985 38.6194 12.5985H54.7943C59.9055 12.5985 64.0482 16.6336 63.9996 21.8298C63.9413 28.0176 63.9903 34.2078 63.9903 40.3959C63.9903 43.9679 63.8031 47.0567 63.2266 49.6502C62.6423 52.2802 61.6159 54.5925 59.8037 56.4047C57.9915 58.2169 55.6792 59.2433 53.0492 59.8275C50.4557 60.4041 47.3669 60.5913 43.795 60.5913H20.1953C16.6233 60.5913 13.5345 60.4041 10.941 59.8275C8.31119 59.2433 5.99871 58.2169 4.1865 56.4047C2.37433 54.5925 1.34805 52.2802 0.763597 49.6502C0.187236 47.0567 0 43.9679 0 40.3959V23.1953C0 19.6233 0.187236 16.5345 0.763597 13.941C1.34805 11.3112 2.37433 8.99871 4.1865 7.1865C5.99871 5.37433 8.31119 4.34805 10.941 3.7636Z" fill="#854D0E"/>
<path d="M46.5262 35.5873V28.5598C46.5262 27.2471 45.5337 25.7584 44.3011 25.2621L35.3846 21.6123C33.3836 20.7959 31.1265 20.7959 29.1255 21.6123L20.2091 25.2621C18.9925 25.7584 18 27.2471 18 28.5598V35.5873C18 43.4152 23.6828 50.7469 31.4467 52.8919C31.9749 53.036 32.5512 53.036 33.0795 52.8919C40.8434 50.7469 46.5262 43.4152 46.5262 35.5873ZM33.4637 38.3887V42.5988C33.4637 43.2551 32.9194 43.7994 32.2631 43.7994C31.6067 43.7994 31.0625 43.2551 31.0625 42.5988V38.3887C29.4457 37.8764 28.2611 36.3717 28.2611 34.5948C28.2611 32.3857 30.054 30.5928 32.2631 30.5928C34.4722 30.5928 36.2651 32.3857 36.2651 34.5948C36.2651 36.3877 35.0805 37.8764 33.4637 38.3887Z" fill="#FACC15"/>
</g>
<defs>
<clipPath id="clip0_712_2899">
<rect width="64" height="64" fill="white"/>
</clipPath>
</defs>
</svg>
