<svg width="64" height="64" viewBox="0 0 64 64" fill="none" xmlns="http://www.w3.org/2000/svg">
<g clip-path="url(#clip0_715_3324)">
<path d="M53.0492 59.8275C55.6792 59.2433 57.9915 58.2169 59.8037 56.4047C61.6159 54.5925 62.6423 52.2802 63.2266 49.6502C63.8031 47.0567 63.9903 43.9679 63.9903 40.3959C63.9903 38.4558 63.9855 36.5155 63.9807 34.5752C63.9701 30.3266 63.9596 26.0776 63.9996 21.8298C64.0482 16.6336 59.9055 12.5985 54.7943 12.5985H38.6194C37.5495 12.5985 36.5506 12.0638 35.9571 11.1738L53.0492 59.8275ZM53.0492 59.8275C50.4557 60.4041 47.3669 60.5913 43.795 60.5913H20.1953C16.6233 60.5913 13.5345 60.4041 10.941 59.8275M53.0492 59.8275H10.941M60.9997 21.8017C61.0323 18.3172 58.2819 15.5985 54.7943 15.5985H38.6194C36.5463 15.5985 34.6109 14.5624 33.4612 12.8382L33.4609 12.8379L30.8614 8.93833C30.8613 8.93832 30.8613 8.9383 30.8613 8.93828C29.6375 7.10261 27.5772 6 25.371 6H20.1953C16.6923 6 13.863 6.18742 11.5919 6.69215M60.9997 21.8017L6.3078 9.30784M60.9997 21.8017C60.9596 26.0676 60.9702 30.3466 60.9807 34.6045C60.9855 36.5404 60.9903 38.472 60.9903 40.3959C60.9903 43.8989 60.8029 46.7281 60.2981 48.9992L60.298 48.9997C59.7929 51.2734 58.9669 52.9989 57.6824 54.2834C56.398 55.5678 54.6725 56.3938 52.3987 56.8989L52.3982 56.899C50.1271 57.4039 47.298 57.5913 43.795 57.5913H20.1953C16.6922 57.5913 13.8631 57.4039 11.5921 56.899L11.5916 56.8989C9.3179 56.3938 7.59223 55.5678 6.30782 54.2834C5.02346 52.999 4.19752 51.2735 3.69216 48.9994L0.766804 49.6495L3.69215 48.9994C3.18742 46.7282 3 43.8989 3 40.3959V23.1953C3 19.6923 3.18742 16.8631 3.69215 14.5919C4.19752 12.3179 5.02348 10.5922 6.3078 9.30784M60.9997 21.8017L6.3078 9.30784M11.5919 6.69215L10.941 3.7636M11.5919 6.69215L10.941 3.7636M11.5919 6.69215C9.31785 7.19752 7.59221 8.02348 6.30784 9.3078C6.30783 9.30781 6.30782 9.30783 6.3078 9.30784M10.941 3.7636C8.31119 4.34805 5.99871 5.37433 4.1865 7.1865C2.37433 8.99871 1.34805 11.3112 0.763596 13.941C0.187236 16.5345 0 19.6233 0 23.1953V40.3959C0 43.9679 0.187236 47.0567 0.763596 49.6502C1.34805 52.2802 2.37433 54.5925 4.1865 56.4047C5.99871 58.2169 8.31119 59.2433 10.941 59.8275M10.941 3.7636C13.5345 3.18724 16.6233 3 20.1953 3H25.371C28.5803 3 31.5773 4.60392 33.3575 7.27423L10.941 59.8275" stroke="#495057" stroke-width="6"/>
<path fill-rule="evenodd" clip-rule="evenodd" d="M47.4653 33.1988L47.4231 33.082L43.0665 21.7237C42.9788 21.5003 42.8222 21.3106 42.6194 21.1822C42.468 21.085 42.2959 21.0247 42.117 21.0061C41.938 20.9876 41.7572 21.0112 41.5891 21.0753C41.4209 21.1393 41.2701 21.2419 41.1489 21.3748C41.0276 21.5076 40.9391 21.6671 40.8907 21.8404L37.9524 30.8392H26.0476L23.1068 21.8404C23.0578 21.6678 22.9691 21.5091 22.848 21.3768C22.7268 21.2445 22.5764 21.1423 22.4087 21.0784C22.2411 21.0145 22.0609 20.9906 21.8824 21.0086C21.7039 21.0266 21.532 21.0861 21.3806 21.1822C21.1778 21.3106 21.0212 21.5003 20.9335 21.7237L16.5794 33.0845L16.5347 33.1963C15.9074 34.8343 15.8298 36.6319 16.3137 38.3179C16.7976 40.0039 17.8167 41.4867 19.2172 42.5428L19.2346 42.5552L19.2718 42.5825L25.8961 47.5501L31.1791 51.5416C31.4133 51.7187 31.6989 51.8145 31.9925 51.8145C32.2862 51.8145 32.5718 51.7187 32.806 51.5416L34.803 50.0314L38.089 47.5476L44.7629 42.5552L44.7803 42.5403C46.1802 41.4849 47.1991 40.003 47.6834 38.3181C48.1677 36.6331 48.0911 34.8364 47.4653 33.1988Z" fill="#E53935"/>
<path fill-rule="evenodd" clip-rule="evenodd" d="M47.4653 33.1988L47.4231 33.082C45.3014 33.5173 43.3023 34.4164 41.5688 35.7149L32.0062 42.9476L38.094 47.5501L44.7853 42.5403C46.1847 41.4846 47.2031 40.0025 47.687 38.3176C48.1708 36.6327 48.0914 34.8362 47.4653 33.1988Z" fill="#EF6C00"/>
<path fill-rule="evenodd" clip-rule="evenodd" d="M25.8961 47.5501L31.1791 51.5416C31.4133 51.7187 31.6989 51.8145 31.9925 51.8145C32.2862 51.8145 32.5718 51.7187 32.806 51.5416L34.803 50.0314L38.094 47.5501L32.0012 42.9476L25.8961 47.5501Z" fill="#F9A825"/>
<path fill-rule="evenodd" clip-rule="evenodd" d="M22.4312 35.7149C20.6984 34.4172 18.7001 33.519 16.5794 33.0845L16.5347 33.1988C15.908 34.8365 15.8299 36.6325 16.3137 38.3179C16.7976 40.0039 17.8167 41.4867 19.2172 42.5428L19.2346 42.5552L19.2718 42.5825L25.8961 47.5501L31.9888 42.9476L22.4312 35.7149Z" fill="#EF6C00"/>
</g>
<defs>
<clipPath id="clip0_715_3324">
<rect width="64" height="64" fill="white"/>
</clipPath>
</defs>
</svg>
