<svg width="64" height="64" viewBox="0 0 64 64" fill="none" xmlns="http://www.w3.org/2000/svg">
<g clip-path="url(#clip0_715_2480)">
<path fill-rule="evenodd" clip-rule="evenodd" d="M10.941 3.7636C13.5345 3.18724 16.6233 3 20.1953 3H25.371C28.5803 3 31.5773 4.60392 33.3575 7.27423L35.9571 11.1738C36.5506 12.0638 37.5495 12.5985 38.6194 12.5985H54.7943C59.9055 12.5985 64.0482 16.6336 63.9996 21.8298C63.9413 28.0176 63.9903 34.2078 63.9903 40.3959C63.9903 43.9679 63.8031 47.0567 63.2266 49.6502C62.6423 52.2802 61.6159 54.5925 59.8037 56.4047C57.9915 58.2169 55.6792 59.2433 53.0492 59.8275C50.4557 60.4041 47.3669 60.5913 43.795 60.5913H20.1953C16.6233 60.5913 13.5345 60.4041 10.941 59.8275C8.31119 59.2433 5.99871 58.2169 4.1865 56.4047C2.37433 54.5925 1.34805 52.2802 0.763597 49.6502C0.187236 47.0567 0 43.9679 0 40.3959V23.1953C0 19.6233 0.187236 16.5345 0.763597 13.941C1.34805 11.3112 2.37433 8.99871 4.1865 7.1865C5.99871 5.37433 8.31119 4.34805 10.941 3.7636Z" fill="#1E40AF"/>
<path d="M43.2 34.4H33.6V28C33.6 27.5757 33.4314 27.1687 33.1314 26.8686C32.8313 26.5686 32.4243 26.4 32 26.4C31.5757 26.4 31.1687 26.5686 30.8686 26.8686C30.5686 27.1687 30.4 27.5757 30.4 28V34.4H20.8C20.3757 34.4 19.9687 34.5686 19.6686 34.8686C19.3686 35.1687 19.2 35.5757 19.2 36V44C19.2 44.4243 19.3686 44.8313 19.6686 45.1314C19.9687 45.4314 20.3757 45.6 20.8 45.6C21.2243 45.6 21.6313 45.4314 21.9314 45.1314C22.2314 44.8313 22.4 44.4243 22.4 44V37.6H30.4V44C30.4 44.4243 30.5686 44.8313 30.8686 45.1314C31.1687 45.4314 31.5757 45.6 32 45.6C32.4243 45.6 32.8313 45.4314 33.1314 45.1314C33.4314 44.8313 33.6 44.4243 33.6 44V37.6H41.6V44C41.6 44.4243 41.7686 44.8313 42.0686 45.1314C42.3687 45.4314 42.7757 45.6 43.2 45.6C43.6243 45.6 44.0313 45.4314 44.3314 45.1314C44.6314 44.8313 44.8 44.4243 44.8 44V36C44.8 35.5757 44.6314 35.1687 44.3314 34.8686C44.0313 34.5686 43.6243 34.4 43.2 34.4Z" fill="#60A5FA"/>
<path d="M25.6 44V50.4C25.6 50.8243 25.4314 51.2313 25.1314 51.5314C24.8313 51.8314 24.4243 52 24 52H17.6C17.1757 52 16.7687 51.8314 16.4686 51.5314C16.1686 51.2313 16 50.8243 16 50.4V44C16 43.5757 16.1686 43.1687 16.4686 42.8686C16.7687 42.5686 17.1757 42.4 17.6 42.4H24C24.4243 42.4 24.8313 42.5686 25.1314 42.8686C25.4314 43.1687 25.6 43.5757 25.6 44ZM35.2 42.4H28.8C28.3757 42.4 27.9687 42.5686 27.6686 42.8686C27.3686 43.1687 27.2 43.5757 27.2 44V50.4C27.2 50.8243 27.3686 51.2313 27.6686 51.5314C27.9687 51.8314 28.3757 52 28.8 52H35.2C35.6243 52 36.0313 51.8314 36.3314 51.5314C36.6314 51.2313 36.8 50.8243 36.8 50.4V44C36.8 43.5757 36.6314 43.1687 36.3314 42.8686C36.0313 42.5686 35.6243 42.4 35.2 42.4ZM38.4 21.6C38.4 21.1757 38.2314 20.7687 37.9314 20.4686C37.6313 20.1686 37.2243 20 36.8 20H27.2C26.7757 20 26.3687 20.1686 26.0686 20.4686C25.7686 20.7687 25.6 21.1757 25.6 21.6V28C25.6 28.4243 25.7686 28.8313 26.0686 29.1314C26.3687 29.4314 26.7757 29.6 27.2 29.6H36.8C37.2243 29.6 37.6313 29.4314 37.9314 29.1314C38.2314 28.8313 38.4 28.4243 38.4 28V21.6ZM46.4 42.4H40C39.5757 42.4 39.1687 42.5686 38.8686 42.8686C38.5686 43.1687 38.4 43.5757 38.4 44V50.4C38.4 50.8243 38.5686 51.2313 38.8686 51.5314C39.1687 51.8314 39.5757 52 40 52H46.4C46.8243 52 47.2313 51.8314 47.5314 51.5314C47.8314 51.2313 48 50.8243 48 50.4V44C48 43.5757 47.8314 43.1687 47.5314 42.8686C47.2313 42.5686 46.8243 42.4 46.4 42.4Z" fill="#60A5FA"/>
</g>
<defs>
<clipPath id="clip0_715_2480">
<rect width="64" height="64" fill="white"/>
</clipPath>
</defs>
</svg>
