<svg width="64" height="64" viewBox="0 0 64 64" fill="none" xmlns="http://www.w3.org/2000/svg">
<g clip-path="url(#clip0_718_2629)">
<mask id="path-1-inside-1_718_2629" fill="white">
<path fill-rule="evenodd" clip-rule="evenodd" d="M10.941 3.7636C13.5345 3.18724 16.6233 3 20.1953 3H25.371C28.5803 3 31.5773 4.60392 33.3575 7.27423L35.9571 11.1738C36.5506 12.0638 37.5495 12.5985 38.6194 12.5985H54.7943C59.9055 12.5985 64.0482 16.6336 63.9996 21.8298C63.9413 28.0176 63.9903 34.2078 63.9903 40.3959C63.9903 43.9679 63.8031 47.0567 63.2266 49.6502C62.6423 52.2802 61.6159 54.5925 59.8037 56.4047C57.9915 58.2169 55.6792 59.2433 53.0492 59.8275C50.4557 60.4041 47.3669 60.5913 43.795 60.5913H20.1953C16.6233 60.5913 13.5345 60.4041 10.941 59.8275C8.31119 59.2433 5.99871 58.2169 4.1865 56.4047C2.37433 54.5925 1.34805 52.2802 0.763596 49.6502C0.187236 47.0567 0 43.9679 0 40.3959V23.1953C0 19.6233 0.187236 16.5345 0.763596 13.941C1.34805 11.3112 2.37433 8.99871 4.1865 7.1865C5.99871 5.37433 8.31119 4.34805 10.941 3.7636Z"/>
</mask>
<path fill-rule="evenodd" clip-rule="evenodd" d="M10.941 3.7636C13.5345 3.18724 16.6233 3 20.1953 3H25.371C28.5803 3 31.5773 4.60392 33.3575 7.27423L35.9571 11.1738C36.5506 12.0638 37.5495 12.5985 38.6194 12.5985H54.7943C59.9055 12.5985 64.0482 16.6336 63.9996 21.8298C63.9413 28.0176 63.9903 34.2078 63.9903 40.3959C63.9903 43.9679 63.8031 47.0567 63.2266 49.6502C62.6423 52.2802 61.6159 54.5925 59.8037 56.4047C57.9915 58.2169 55.6792 59.2433 53.0492 59.8275C50.4557 60.4041 47.3669 60.5913 43.795 60.5913H20.1953C16.6233 60.5913 13.5345 60.4041 10.941 59.8275C8.31119 59.2433 5.99871 58.2169 4.1865 56.4047C2.37433 54.5925 1.34805 52.2802 0.763596 49.6502C0.187236 47.0567 0 43.9679 0 40.3959V23.1953C0 19.6233 0.187236 16.5345 0.763596 13.941C1.34805 11.3112 2.37433 8.99871 4.1865 7.1865C5.99871 5.37433 8.31119 4.34805 10.941 3.7636Z" stroke="#9D174D" stroke-width="12" mask="url(#path-1-inside-1_718_2629)"/>
<path fill-rule="evenodd" clip-rule="evenodd" d="M36.6121 27.5149L33.8559 29.3538L31.0173 25.0999L33.7729 23.2603L36.6121 27.5149Z" fill="#F472B6"/>
<path fill-rule="evenodd" clip-rule="evenodd" d="M38.8534 40.2971L43.5621 47.3534L37.9531 51.0965L33.2444 44.0402L32.4229 42.8107L38.0311 39.0669L38.8534 40.2971Z" fill="#F472B6"/>
<path fill-rule="evenodd" clip-rule="evenodd" d="M31.7898 45.0099L32.8271 46.563L28.5575 49.4114L26.6987 46.6275L27.6317 46.0053L30.969 43.7783L31.7898 45.0099Z" fill="#F472B6"/>
<path fill-rule="evenodd" clip-rule="evenodd" d="M41.1876 36.9619L42.3852 36.1631L44.2433 38.9477L41.487 40.7866L40.4512 39.2329L42.0099 38.1929L41.1876 36.9619ZM40.4498 39.2329L39.6296 38.002L41.1876 36.9619L42.0099 38.1929L40.4498 39.2329Z" fill="#F472B6"/>
<path fill-rule="evenodd" clip-rule="evenodd" d="M21.8608 37.3615L20.9279 37.9837L18.0894 33.7291L22.3582 30.8799L24.3482 33.8625L21.0123 36.088L24.3489 33.8617L25.1982 35.1338L21.8608 37.3615Z" fill="#F472B6"/>
<path fill-rule="evenodd" clip-rule="evenodd" d="M31.4131 29.1459L32.2623 30.4179L26.6526 34.161L25.8041 32.889L21.1394 25.8994L26.7484 22.1562L31.4131 29.1459Z" fill="#F472B6"/>
<path fill-rule="evenodd" clip-rule="evenodd" d="M35.4167 28.3145L33.8581 29.3545L33.0081 28.0817L31.0188 25.0999L33.7743 23.2603L36.6143 27.5149L35.4167 28.3145Z" fill="#F472B6"/>
<path fill-rule="evenodd" clip-rule="evenodd" d="M28.452 47.2386L27.6311 46.0074L30.9684 43.7803L31.7892 45.0116L28.452 47.2386Z" fill="#F472B6"/>
<path fill-rule="evenodd" clip-rule="evenodd" d="M40.449 39.2321L39.6282 38.0031L41.1869 36.9624L42.0078 38.1937L40.449 39.2321Z" fill="#F472B6"/>
<path fill-rule="evenodd" clip-rule="evenodd" d="M21.8608 37.362L21.0107 36.0904L24.348 33.8633L25.198 35.1349L21.8608 37.362Z" fill="#F472B6"/>
<path fill-rule="evenodd" clip-rule="evenodd" d="M33.8575 29.3553L33.0098 28.0836L34.5685 27.043L35.4163 28.3146L33.8575 29.3553Z" fill="#F472B6"/>
<path fill-rule="evenodd" clip-rule="evenodd" d="M38.8524 40.2962L33.2454 44.0394L32.4246 42.8082L38.0315 39.0649L38.8524 40.2962Z" fill="#F472B6"/>
<path fill-rule="evenodd" clip-rule="evenodd" d="M31.4127 29.1455L32.2627 30.4194L26.6535 34.1626L25.8035 32.8887L31.4127 29.1455Z" fill="#F472B6"/>
<path fill-rule="evenodd" clip-rule="evenodd" d="M20.2703 28.1294L21.3289 29.715L19.741 30.7736L18.6824 29.188L20.2703 28.1294Z" fill="#F472B6"/>
<path fill-rule="evenodd" clip-rule="evenodd" d="M25.9873 47.1489L27.0459 48.7368L25.4602 49.7954L24.4016 48.2075L25.9873 47.1489Z" fill="#F472B6"/>
<path fill-rule="evenodd" clip-rule="evenodd" d="M21.813 48.7476L17.1686 41.7308L41.9914 25.1276L46.8615 32.0325L21.813 48.7476Z" fill="#F472B6"/>
</g>
<defs>
<clipPath id="clip0_718_2629">
<rect width="64" height="64" fill="white"/>
</clipPath>
</defs>
</svg>
