<svg width="64" height="64" viewBox="0 0 64 64" fill="none" xmlns="http://www.w3.org/2000/svg">
<g clip-path="url(#clip0_717_3780)">
<mask id="path-1-inside-1_717_3780" fill="white">
<path fill-rule="evenodd" clip-rule="evenodd" d="M10.941 3.7636C13.5345 3.18724 16.6233 3 20.1953 3H25.371C28.5803 3 31.5773 4.60392 33.3575 7.27423L35.9571 11.1738C36.5506 12.0638 37.5495 12.5985 38.6194 12.5985H54.7943C59.9055 12.5985 64.0482 16.6336 63.9996 21.8298C63.9413 28.0176 63.9903 34.2078 63.9903 40.3959C63.9903 43.9679 63.8031 47.0567 63.2266 49.6502C62.6423 52.2802 61.6159 54.5925 59.8037 56.4047C57.9915 58.2169 55.6792 59.2433 53.0492 59.8275C50.4557 60.4041 47.3669 60.5913 43.795 60.5913H20.1953C16.6233 60.5913 13.5345 60.4041 10.941 59.8275C8.31119 59.2433 5.99871 58.2169 4.1865 56.4047C2.37433 54.5925 1.34805 52.2802 0.763596 49.6502C0.187236 47.0567 0 43.9679 0 40.3959V23.1953C0 19.6233 0.187236 16.5345 0.763596 13.941C1.34805 11.3112 2.37433 8.99871 4.1865 7.1865C5.99871 5.37433 8.31119 4.34805 10.941 3.7636Z"/>
</mask>
<path fill-rule="evenodd" clip-rule="evenodd" d="M10.941 3.7636C13.5345 3.18724 16.6233 3 20.1953 3H25.371C28.5803 3 31.5773 4.60392 33.3575 7.27423L35.9571 11.1738C36.5506 12.0638 37.5495 12.5985 38.6194 12.5985H54.7943C59.9055 12.5985 64.0482 16.6336 63.9996 21.8298C63.9413 28.0176 63.9903 34.2078 63.9903 40.3959C63.9903 43.9679 63.8031 47.0567 63.2266 49.6502C62.6423 52.2802 61.6159 54.5925 59.8037 56.4047C57.9915 58.2169 55.6792 59.2433 53.0492 59.8275C50.4557 60.4041 47.3669 60.5913 43.795 60.5913H20.1953C16.6233 60.5913 13.5345 60.4041 10.941 59.8275C8.31119 59.2433 5.99871 58.2169 4.1865 56.4047C2.37433 54.5925 1.34805 52.2802 0.763596 49.6502C0.187236 47.0567 0 43.9679 0 40.3959V23.1953C0 19.6233 0.187236 16.5345 0.763596 13.941C1.34805 11.3112 2.37433 8.99871 4.1865 7.1865C5.99871 5.37433 8.31119 4.34805 10.941 3.7636Z" stroke="#1E40AF" stroke-width="12" mask="url(#path-1-inside-1_717_3780)"/>
<path d="M28.7451 21C27.2823 21.3246 25.8377 21.7771 24.4823 22.4606C24.5143 23.6583 24.5897 24.8057 24.7474 25.9691C24.2217 26.3051 23.6663 26.5954 23.1749 26.9909C22.6743 27.3749 22.1646 27.7429 21.712 28.1931C20.7977 27.5851 19.8469 27.032 18.8663 26.536C17.8057 27.6789 16.8114 28.9131 16 30.2937C16.6103 31.2811 17.248 32.2069 17.936 33.0846H17.9543V41.56L18 41.5623L23.1954 42.0629C23.3276 42.0751 23.4511 42.134 23.5437 42.2292C23.6363 42.3243 23.6919 42.4493 23.7006 42.5817L23.8606 44.8743L28.3931 45.1966L28.7063 43.08C28.726 42.9473 28.7927 42.8261 28.8942 42.7385C28.9957 42.6508 29.1253 42.6025 29.2594 42.6023H34.7406C35.0171 42.6023 35.2526 42.8057 35.2937 43.08L35.6069 45.1966L40.1394 44.8743L40.2994 42.5817C40.3095 42.4497 40.3655 42.3255 40.4579 42.2306C40.5502 42.1358 40.6729 42.0764 40.8046 42.0629L45.9977 41.5623L46.0434 41.56V40.8834H46.0457V33.0869H46.064C46.752 32.2091 47.3897 31.2834 48 30.296C47.1835 28.9433 46.2225 27.6833 45.1337 26.5383C44.1486 27.0343 43.1909 27.5966 42.288 28.1931C41.8354 27.7429 41.3257 27.3749 40.8251 26.9909C40.3337 26.5954 39.7806 26.3074 39.2549 25.9691C39.4103 24.8034 39.488 23.656 39.52 22.4606C38.1646 21.7771 36.7177 21.3269 35.2549 21C34.6697 21.9806 34.1371 23.0434 33.6709 24.0834C33.122 23.9959 32.5672 23.9516 32.0114 23.9509H31.9886C31.4331 23.9509 30.8777 23.9966 30.3291 24.0834C29.8629 23.0434 29.3303 21.9806 28.7451 21ZM24.6354 33.3977C25.0469 33.3863 25.4565 33.456 25.841 33.603C26.2254 33.7499 26.5772 33.9712 26.8761 34.2541C27.175 34.5371 27.4152 34.8762 27.583 35.252C27.7508 35.6278 27.8429 36.0331 27.854 36.4445C27.8651 36.8559 27.795 37.2655 27.6478 37.6499C27.5005 38.0342 27.2789 38.3858 26.9957 38.6845C26.7125 38.9831 26.3733 39.2231 25.9973 39.3906C25.6213 39.558 25.216 39.6498 24.8046 39.6606C23.9745 39.6823 23.1697 39.3736 22.5672 38.8022C21.9646 38.2309 21.6135 37.4437 21.5911 36.6136C21.5687 35.7836 21.8768 34.9786 22.4476 34.3755C23.0185 33.7725 23.8054 33.4208 24.6354 33.3977ZM39.3646 33.3977C40.1951 33.3971 40.9918 33.7264 41.5795 34.3133C42.1672 34.9001 42.4977 35.6964 42.4983 36.5269C42.4989 37.3574 42.1696 38.1541 41.5827 38.7418C40.9959 39.3295 40.1997 39.66 39.3691 39.6606H39.3669C38.5364 39.6609 37.7397 39.3312 37.1523 38.7442C36.5648 38.1572 36.2346 37.3608 36.2343 36.5303C36.234 35.6998 36.5636 34.9032 37.1507 34.3157C37.7377 33.7282 38.5341 33.398 39.3646 33.3977ZM32 35.2286C32.5577 35.2286 33.008 35.64 33.008 36.1451V39.0274C33.008 39.5326 32.5554 39.944 32 39.944C31.4423 39.944 30.992 39.5349 30.992 39.0274V36.1451C30.992 35.6377 31.4423 35.2286 32 35.2286Z" fill="#60A5FA"/>
<path d="M41.3807 43.1332L41.2207 45.4395C41.2121 45.5743 41.1547 45.7013 41.0592 45.7968C40.9637 45.8923 40.8367 45.9498 40.7019 45.9584L35.1682 46.3515L35.127 46.3538C34.9929 46.3536 34.8633 46.3053 34.7618 46.2176C34.6603 46.13 34.5936 46.0088 34.5739 45.8761L34.2585 43.7229H29.7419L29.4242 45.8761C29.4037 46.0159 29.331 46.1427 29.2207 46.2309C29.1104 46.3192 28.9707 46.3623 28.8299 46.3515L23.2962 45.9561C23.1621 45.9456 23.0361 45.8876 22.941 45.7925C22.8458 45.6973 22.7878 45.5714 22.7773 45.4372L22.6173 43.1309L17.9453 42.6807L17.9545 43.8418C17.9545 48.7767 24.2127 51.1469 31.9887 51.1744H32.007C39.783 51.1469 46.0413 48.7767 46.0413 43.8418L46.0505 42.6807L41.3807 43.1332Z" fill="#60A5FA"/>
</g>
<defs>
<clipPath id="clip0_717_3780">
<rect width="64" height="64" fill="white"/>
</clipPath>
</defs>
</svg>
