<svg width="64" height="64" viewBox="0 0 64 64" fill="none" xmlns="http://www.w3.org/2000/svg">
<g clip-path="url(#clip0_715_3694)">
<mask id="path-1-inside-1_715_3694" fill="white">
<path fill-rule="evenodd" clip-rule="evenodd" d="M10.941 3.7636C13.5345 3.18724 16.6233 3 20.1953 3H25.371C28.5803 3 31.5773 4.60392 33.3575 7.27423L35.9571 11.1738C36.5506 12.0638 37.5495 12.5985 38.6194 12.5985H54.7943C59.9055 12.5985 64.0482 16.6336 63.9996 21.8298C63.9413 28.0176 63.9903 34.2078 63.9903 40.3959C63.9903 43.9679 63.8031 47.0567 63.2266 49.6502C62.6423 52.2802 61.6159 54.5925 59.8037 56.4047C57.9915 58.2169 55.6792 59.2433 53.0492 59.8275C50.4557 60.4041 47.3669 60.5913 43.795 60.5913H20.1953C16.6233 60.5913 13.5345 60.4041 10.941 59.8275C8.31119 59.2433 5.99871 58.2169 4.1865 56.4047C2.37433 54.5925 1.34805 52.2802 0.763596 49.6502C0.187236 47.0567 0 43.9679 0 40.3959V23.1953C0 19.6233 0.187236 16.5345 0.763596 13.941C1.34805 11.3112 2.37433 8.99871 4.1865 7.1865C5.99871 5.37433 8.31119 4.34805 10.941 3.7636Z"/>
</mask>
<path fill-rule="evenodd" clip-rule="evenodd" d="M10.941 3.7636C13.5345 3.18724 16.6233 3 20.1953 3H25.371C28.5803 3 31.5773 4.60392 33.3575 7.27423L35.9571 11.1738C36.5506 12.0638 37.5495 12.5985 38.6194 12.5985H54.7943C59.9055 12.5985 64.0482 16.6336 63.9996 21.8298C63.9413 28.0176 63.9903 34.2078 63.9903 40.3959C63.9903 43.9679 63.8031 47.0567 63.2266 49.6502C62.6423 52.2802 61.6159 54.5925 59.8037 56.4047C57.9915 58.2169 55.6792 59.2433 53.0492 59.8275C50.4557 60.4041 47.3669 60.5913 43.795 60.5913H20.1953C16.6233 60.5913 13.5345 60.4041 10.941 59.8275C8.31119 59.2433 5.99871 58.2169 4.1865 56.4047C2.37433 54.5925 1.34805 52.2802 0.763596 49.6502C0.187236 47.0567 0 43.9679 0 40.3959V23.1953C0 19.6233 0.187236 16.5345 0.763596 13.941C1.34805 11.3112 2.37433 8.99871 4.1865 7.1865C5.99871 5.37433 8.31119 4.34805 10.941 3.7636Z" stroke="#1E40AF" stroke-width="12" mask="url(#path-1-inside-1_715_3694)"/>
<g clip-path="url(#clip1_715_3694)">
<path d="M28.1708 35.43H35.7813C37.9 35.43 39.591 33.6857 39.591 31.5581V24.3029C39.591 22.2382 37.8491 20.687 35.7813 20.3422C34.4723 20.1245 33.1142 20.0254 31.8119 20.0315C30.5091 20.0376 29.2656 20.1486 28.1708 20.3422C24.9466 20.912 24.3613 22.1041 24.3613 24.3029V27.2068H31.9805V28.1747H24.3613H21.5019C19.2873 28.1747 17.3482 29.5056 16.742 32.0377C16.0425 34.9399 16.0111 36.7508 16.742 39.7813C17.2836 42.0368 18.577 43.6443 20.7914 43.6443H23.4112V40.1631C23.4112 37.6481 25.5868 35.43 28.1708 35.43ZM27.6913 25.2708C26.9016 25.2708 26.2615 24.6236 26.2615 23.8233C26.2615 23.0202 26.9016 22.367 27.6913 22.367C28.4785 22.367 29.1209 23.0202 29.1209 23.8233C29.1209 24.6237 28.4785 25.2708 27.6913 25.2708ZM47.2105 32.0377C46.663 29.8333 45.6178 28.1747 43.4005 28.1747H40.5411V31.5581C40.5411 34.1813 38.3173 36.3888 35.7813 36.3888H28.1708C26.0865 36.3888 24.3613 38.173 24.3613 40.261V47.5159C24.3613 49.5807 26.1566 50.7956 28.1708 51.3873C30.5826 52.0969 32.8951 52.2254 35.7813 51.3873C37.6993 50.8326 39.591 49.7146 39.591 47.5159V44.6121H31.9805V43.6442H39.591H43.4005C45.615 43.6442 46.4404 42.0995 47.2105 39.7813C48.0056 37.3946 47.9717 35.0993 47.2105 32.0377ZM36.261 46.5479C37.051 46.5479 37.6906 47.1951 37.6906 47.9951C37.6906 48.7983 37.051 49.4517 36.261 49.4517C35.4738 49.4517 34.8312 48.7983 34.8312 47.9951C34.8312 47.1951 35.4738 46.5479 36.261 46.5479Z" fill="#60A5FA"/>
</g>
</g>
<defs>
<clipPath id="clip0_715_3694">
<rect width="64" height="64" fill="white"/>
</clipPath>
<clipPath id="clip1_715_3694">
<rect width="32" height="32" fill="white" transform="translate(16 20)"/>
</clipPath>
</defs>
</svg>
