<svg width="63" height="63" viewBox="0 0 63 63" fill="none" xmlns="http://www.w3.org/2000/svg">
<g clip-path="url(#clip0_715_3006)">
<mask id="path-1-inside-1_715_3006" fill="white">
<path fill-rule="evenodd" clip-rule="evenodd" d="M10.7701 3.70479C13.323 3.13744 16.3636 2.95312 19.8798 2.95312H24.9746C28.1337 2.95312 31.0839 4.53198 32.8363 7.16057L35.3953 10.9992C35.9795 11.8753 36.9628 12.4017 38.016 12.4017H53.9381C58.9695 12.4017 63.0475 16.3737 62.9996 21.4887C62.9423 27.5799 62.9905 33.6733 62.9905 39.7647C62.9905 43.2809 62.8062 46.3214 62.2387 48.8744C61.6636 51.4633 60.6532 53.7395 58.8693 55.5234C57.0854 57.3073 54.8093 58.3176 52.2203 58.8927C49.6673 59.4603 46.6268 59.6445 43.1107 59.6445H19.8798C16.3636 59.6445 13.323 59.4603 10.7701 58.8927C8.18133 58.3176 5.90498 57.3073 4.12109 55.5234C2.33723 53.7395 1.32699 51.4633 0.751665 48.8744C0.18431 46.3214 0 43.2809 0 39.7647V22.8329C0 19.3167 0.18431 16.2762 0.751665 13.7232C1.32699 11.1345 2.33723 8.8581 4.12109 7.07421C5.90498 5.29035 8.18133 4.28011 10.7701 3.70479Z"/>
</mask>
<path fill-rule="evenodd" clip-rule="evenodd" d="M10.7701 3.70479C13.323 3.13744 16.3636 2.95312 19.8798 2.95312H24.9746C28.1337 2.95312 31.0839 4.53198 32.8363 7.16057L35.3953 10.9992C35.9795 11.8753 36.9628 12.4017 38.016 12.4017H53.9381C58.9695 12.4017 63.0475 16.3737 62.9996 21.4887C62.9423 27.5799 62.9905 33.6733 62.9905 39.7647C62.9905 43.2809 62.8062 46.3214 62.2387 48.8744C61.6636 51.4633 60.6532 53.7395 58.8693 55.5234C57.0854 57.3073 54.8093 58.3176 52.2203 58.8927C49.6673 59.4603 46.6268 59.6445 43.1107 59.6445H19.8798C16.3636 59.6445 13.323 59.4603 10.7701 58.8927C8.18133 58.3176 5.90498 57.3073 4.12109 55.5234C2.33723 53.7395 1.32699 51.4633 0.751665 48.8744C0.18431 46.3214 0 43.2809 0 39.7647V22.8329C0 19.3167 0.18431 16.2762 0.751665 13.7232C1.32699 11.1345 2.33723 8.8581 4.12109 7.07421C5.90498 5.29035 8.18133 4.28011 10.7701 3.70479Z" stroke="#115E59" stroke-width="12" mask="url(#path-1-inside-1_715_3006)"/>
<g clip-path="url(#clip1_715_3006)">
<path d="M46.5 32.2998C46.4 31.7998 45.9 31.4998 45.4 31.4998C43.9 31.6998 42.5 30.9998 41.8 29.6998C41.1 28.3998 41.2 26.8998 42.1 25.6998C42.4 25.2998 42.4 24.6998 42 24.3998C40.2 22.6998 37.9 21.3998 35.5 20.6998C35 20.5998 34.5 20.7998 34.3 21.2998C33.7 22.6998 32.4 23.4998 31 23.4998C29.6 23.4998 28.2 22.5998 27.7 21.2998C27.5 20.7998 27 20.5998 26.5 20.6998C24.1 21.3998 21.8 22.6998 20 24.3998C19.6 24.7998 19.6 25.2998 19.9 25.6998C20.8 26.8998 20.9 28.3998 20.2 29.6998C19.5 30.9998 18.1 31.6998 16.6 31.4998C16.1 31.3998 15.6 31.7998 15.5 32.2998C15.2 33.4998 15 34.7998 15 35.9998C15 37.1998 15.2 38.4998 15.5 39.6998C15.6 40.1998 16.1 40.4998 16.6 40.4998C18 40.2998 19.4 40.9998 20.1 42.2998C20.8 43.5998 20.7 45.0998 19.8 46.2998C19.5 46.6998 19.5 47.2998 19.9 47.5998C21.7 49.2998 24 50.5998 26.4 51.2998C26.9 51.3998 27.4 51.1998 27.6 50.6998C28.2 49.2998 29.5 48.4998 30.9 48.4998C32.3 48.4998 33.7 49.3998 34.2 50.6998C34.4 51.0998 34.7 51.2998 35.1 51.2998C35.2 51.2998 35.3 51.2998 35.4 51.2998C37.8 50.5998 40 49.2998 41.9 47.5998C42.3 47.1998 42.3 46.6998 42 46.2998C41.1 45.0998 41 43.5998 41.7 42.2998C42.4 40.9998 43.8 40.2998 45.3 40.4998C45.8 40.5998 46.3 40.1998 46.4 39.6998C46.7 38.3998 46.9 37.1998 46.9 35.9998C46.9 34.7998 46.8 33.4998 46.5 32.2998ZM31.4 44.8998C31.3 44.9998 31.1 44.9998 31 44.9998C30.9 44.9998 30.7 44.9998 30.6 44.8998C27.1 43.2998 23 40.3998 23 31.5998C23 31.2998 23.2 30.9998 23.4 30.7998C23.7 30.5998 24 30.5998 24.3 30.6998C26.5 31.3998 28.7 30.7998 30.3 29.2998C30.7 28.8998 31.3 28.8998 31.7 29.2998C33.3 30.7998 35.5 31.3998 37.7 30.6998C38 30.5998 38.3 30.6998 38.6 30.7998C38.9 30.9998 39 31.2998 39 31.5998C39 40.3998 34.9 43.2998 31.4 44.8998Z" fill="#2DD4BF"/>
</g>
</g>
<defs>
<clipPath id="clip0_715_3006">
<rect width="63" height="63" fill="white"/>
</clipPath>
<clipPath id="clip1_715_3006">
<rect width="32" height="32" fill="white" transform="translate(15 20)"/>
</clipPath>
</defs>
</svg>
