<svg width="64" height="64" viewBox="0 0 64 64" fill="none" xmlns="http://www.w3.org/2000/svg">
<g clip-path="url(#clip0_710_2446)">
<path fill-rule="evenodd" clip-rule="evenodd" d="M10.941 3.7636C13.5345 3.18724 16.6233 3 20.1953 3H25.371C28.5803 3 31.5773 4.60392 33.3575 7.27423L35.9571 11.1738C36.5506 12.0638 37.5495 12.5985 38.6194 12.5985H54.7943C59.9055 12.5985 64.0482 16.6336 63.9996 21.8298C63.9413 28.0176 63.9903 34.2078 63.9903 40.3959C63.9903 43.9679 63.8031 47.0567 63.2266 49.6502C62.6423 52.2802 61.6159 54.5925 59.8037 56.4047C57.9915 58.2169 55.6792 59.2433 53.0492 59.8275C50.4557 60.4041 47.3669 60.5913 43.795 60.5913H20.1953C16.6233 60.5913 13.5345 60.4041 10.941 59.8275C8.31119 59.2433 5.99871 58.2169 4.1865 56.4047C2.37433 54.5925 1.34805 52.2802 0.763597 49.6502C0.187236 47.0567 0 43.9679 0 40.3959V23.1953C0 19.6233 0.187236 16.5345 0.763597 13.941C1.34805 11.3112 2.37433 8.99871 4.1865 7.1865C5.99871 5.37433 8.31119 4.34805 10.941 3.7636Z" fill="#9D174D"/>
<path d="M45.7172 38.1098C44.524 38.1113 43.3468 38.3797 42.2745 38.8945C41.9388 38.3466 41.6796 37.7568 41.5037 37.1409C41.4027 36.6581 41.3794 36.1627 41.4345 35.6728C41.5505 35.1337 41.701 34.6024 41.8851 34.0819C41.8783 34.0139 41.8023 33.6922 41.0383 33.6816C40.2743 33.6709 39.6162 33.8244 39.5456 34.0232C39.4129 34.3864 39.3063 34.7584 39.2267 35.1363C38.5944 36.6704 37.8161 38.1424 36.9021 39.5325C36.3901 38.7069 36.1795 37.7343 36.3051 36.7752C36.4211 36.2361 36.5715 35.7048 36.7556 35.1843C36.7488 35.1163 36.6728 34.7946 35.9088 34.7839C35.1448 34.7733 34.4867 34.9267 34.4161 35.1256C34.3455 35.3245 34.256 35.7929 34.0972 36.2387C33.9384 36.6844 32.0848 40.7576 31.599 41.808C31.3493 42.3418 31.1335 42.7769 30.9815 43.0705C30.9743 43.0896 30.9652 43.1079 30.9544 43.1252C30.8187 43.3775 30.7468 43.5149 30.7468 43.5149V43.5216C30.6423 43.7058 30.531 43.8766 30.4754 43.8766C30.3783 43.4953 30.383 43.0958 30.4889 42.7168C30.7603 41.3035 31.4253 39.1067 31.4185 39.0306C31.4185 38.9893 31.5433 38.6076 30.9883 38.4101C30.8596 38.3498 30.715 38.3303 30.5746 38.3542C30.4341 38.3781 30.3046 38.4442 30.204 38.5435C30.1551 38.5435 30.1212 38.6596 30.1212 38.6596C30.1212 38.6596 30.7251 36.1893 28.9691 36.1893C28.2853 36.3246 27.6359 36.593 27.0591 36.9787C26.4823 37.3644 25.9898 37.8597 25.6105 38.4354C25.1383 38.6877 24.1327 39.2268 23.0566 39.8074C22.6495 40.0329 22.2234 40.2585 21.8285 40.4747C21.8014 40.448 21.7729 40.4133 21.7458 40.3866C19.6085 38.1471 15.68 36.567 15.8496 33.5708C15.912 32.4791 16.2933 29.6123 23.3932 26.1304C29.2364 23.2983 33.8869 24.0831 34.6916 25.8234C35.8437 28.3084 32.2001 32.9222 26.1628 33.5908C25.4949 33.7241 24.8051 33.708 24.1443 33.5437C23.4836 33.3795 22.8689 33.0713 22.3456 32.6419C22.0267 32.3002 21.9778 32.2802 21.8598 32.3483C21.6657 32.4511 21.7905 32.758 21.8598 32.9355C22.0901 33.3454 22.4016 33.7058 22.7759 33.9953C23.1502 34.2848 23.5798 34.4976 24.0391 34.6211C26.4142 35.1259 28.8904 34.8845 31.1186 33.9311C34.7825 32.5391 37.6322 28.6688 36.7963 25.427C35.9563 22.1372 30.4048 21.0522 25.1505 22.8913C21.8594 23.9804 18.8185 25.696 16.201 27.9401C13.3066 30.6026 12.8492 32.9155 13.0365 33.8858C13.715 37.3264 18.5337 39.5645 20.462 41.2261C20.3643 41.2808 20.2748 41.3288 20.1988 41.3689C19.234 41.84 15.5565 43.7311 14.6351 45.7304C13.5942 47.9992 14.802 49.6207 15.5999 49.8396C16.8022 50.1227 18.0644 50.0294 19.2102 49.5729C20.3561 49.1164 21.3284 48.3194 21.9914 47.2932C22.556 46.442 22.903 45.4692 23.003 44.4577C23.1029 43.4461 22.9528 42.4258 22.5654 41.4837C22.5589 41.4684 22.5497 41.4544 22.5383 41.4423L23.2941 41.0059C23.7867 40.7189 24.2725 40.4533 24.6891 40.2345C24.4066 41.0358 24.2408 41.8725 24.1965 42.7195C24.1006 44.0178 24.5046 45.304 25.3283 46.3229C25.4536 46.429 25.5991 46.5096 25.7563 46.56C25.9136 46.6104 26.0794 46.6296 26.2442 46.6165C27.0584 46.6165 27.4316 45.9492 27.8401 45.1565C28.3394 44.1876 28.79 43.0612 28.79 43.0612C28.79 43.0612 28.2282 46.1054 29.7548 46.1054C30.3098 46.1054 30.8716 45.3954 31.1227 45.0377V45.0444C31.1227 45.0444 31.1362 45.0244 31.1647 44.9763L31.2543 44.8335V44.8202C31.4768 44.4385 31.9762 43.571 32.7185 42.1309C33.6765 40.2745 34.5993 37.9536 34.5993 37.9536C34.6883 38.4637 34.8112 38.9675 34.9671 39.4617C35.1906 40.0609 35.4549 40.6445 35.7582 41.2087C35.5356 41.5157 35.3972 41.6865 35.3972 41.6865L35.404 41.6932C35.2235 41.9254 35.0295 42.1776 34.8137 42.4232C34.1718 43.1173 33.5762 43.8516 33.0306 44.6213C32.9496 44.7506 32.9217 44.9054 32.9527 45.0542C32.9837 45.203 33.0713 45.3346 33.1975 45.4221C33.4832 45.5683 33.8088 45.6211 34.1271 45.5729C34.6067 45.5462 35.0783 45.4402 35.5221 45.2593C35.9509 45.1108 36.3555 44.9018 36.723 44.6387C37.1019 44.3805 37.4069 44.0308 37.6087 43.6231C37.8105 43.2155 37.9022 42.7637 37.8751 42.3111C37.8324 41.741 37.6844 41.1834 37.4382 40.6655C37.5074 40.5694 37.5739 40.4747 37.639 40.3786C38.4105 39.246 39.1059 38.0651 39.7206 36.8432C39.8096 37.3533 39.9325 37.8571 40.0884 38.3513C40.2727 38.8691 40.4997 39.3712 40.7669 39.8528C39.8793 40.5244 39.1802 41.4071 38.7355 42.4179C38.2985 43.6604 38.6378 44.2196 39.2783 44.349C39.6287 44.3728 39.9792 44.3022 40.2919 44.1449C40.7518 43.9962 41.185 43.7773 41.5757 43.4962C41.9876 43.2571 42.3326 42.9211 42.5797 42.5183C42.8267 42.1155 42.9681 41.6586 42.991 41.1887C42.9602 40.7197 42.8525 40.2586 42.6721 39.8234C43.8434 39.3734 45.1133 39.2299 46.3578 39.407C49.6607 39.7887 50.3134 41.816 50.1886 42.6701C50.13 42.9729 50.0062 43.2599 49.8255 43.5117C49.6448 43.7636 49.4114 43.9744 49.141 44.1302C48.9116 44.273 48.8356 44.321 48.856 44.4238C48.8831 44.5746 48.9917 44.5666 49.1885 44.5399C49.6863 44.3877 50.1255 44.0907 50.4482 43.6881C50.7709 43.2854 50.9619 42.796 50.996 42.2844C51.1005 40.2825 49.1573 38.0871 45.7213 38.1071L45.7172 38.1098ZM20.2327 46.5551C19.1362 47.7296 17.6096 48.1727 16.9501 47.7977C16.2418 47.3973 16.5199 45.6623 17.8661 44.4184C18.6646 43.7115 19.5277 43.0784 20.4444 42.5273C20.6045 42.4312 20.8406 42.2951 21.1229 42.1269L21.1989 42.0856L21.3658 41.9828C21.6063 42.7753 21.6281 43.6164 21.429 44.4199C21.2299 45.2234 20.817 45.9604 20.2327 46.5551ZM28.2132 41.2167C27.8319 42.1309 27.034 44.4732 26.5482 44.3424C26.1316 44.2329 25.8697 42.4579 26.4654 40.7042C26.7662 39.86 27.2043 39.0695 27.7627 38.3633C28.3598 37.7081 29.0193 37.4892 29.1781 37.7561C29.0332 38.9504 28.708 40.1168 28.2132 41.2167ZM34.7988 44.3157C34.6387 44.3971 34.4867 44.4491 34.4175 44.4118C34.3686 44.3851 34.4867 44.2783 34.4867 44.2783C34.4867 44.2783 35.3131 43.4041 35.6388 43.0091C35.826 42.7769 36.0459 42.5046 36.2847 42.1963V42.2844C36.2847 43.3281 35.2575 44.0314 34.8001 44.3184L34.7988 44.3157ZM39.8794 43.1759C39.7614 43.0945 39.7817 42.8209 40.178 41.9681C40.4535 41.4204 40.8384 40.9329 41.3097 40.5347C41.3819 40.7368 41.4195 40.9492 41.421 41.1633C41.4263 41.6192 41.2781 42.0639 40.9995 42.4282C40.7209 42.7925 40.3275 43.0559 39.8808 43.1773L39.8794 43.1759Z" fill="#CD6799"/>
</g>
<defs>
<clipPath id="clip0_710_2446">
<rect width="64" height="64" fill="white"/>
</clipPath>
</defs>
</svg>
