<svg width="64" height="64" viewBox="0 0 64 64" fill="none" xmlns="http://www.w3.org/2000/svg">
<g clip-path="url(#clip0_713_2508)">
<mask id="path-1-inside-1_713_2508" fill="white">
<path fill-rule="evenodd" clip-rule="evenodd" d="M10.9412 3.7636C13.5346 3.18724 16.6234 3 20.1955 3H25.3711C28.5804 3 31.5774 4.60392 33.3576 7.27423L35.9572 11.1738C36.5507 12.0638 37.5496 12.5985 38.6195 12.5985H54.7944C59.9056 12.5985 64.0483 16.6336 63.9997 21.8298C63.9415 28.0176 63.9904 34.2078 63.9904 40.3959C63.9904 43.9679 63.8032 47.0567 63.2267 49.6502C62.6425 52.2802 61.6161 54.5925 59.8039 56.4047C57.9917 58.2169 55.6794 59.2433 53.0494 59.8275C50.4558 60.4041 47.367 60.5913 43.7951 60.5913H20.1955C16.6234 60.5913 13.5346 60.4041 10.9412 59.8275C8.31131 59.2433 5.99883 58.2169 4.18662 56.4047C2.37445 54.5925 1.34817 52.2802 0.763719 49.6502C0.187358 47.0567 0.00012207 43.9679 0.00012207 40.3959V23.1953C0.00012207 19.6233 0.187358 16.5345 0.763719 13.941C1.34817 11.3112 2.37445 8.99871 4.18662 7.1865C5.99883 5.37433 8.31131 4.34805 10.9412 3.7636Z"/>
</mask>
<path fill-rule="evenodd" clip-rule="evenodd" d="M10.9412 3.7636C13.5346 3.18724 16.6234 3 20.1955 3H25.3711C28.5804 3 31.5774 4.60392 33.3576 7.27423L35.9572 11.1738C36.5507 12.0638 37.5496 12.5985 38.6195 12.5985H54.7944C59.9056 12.5985 64.0483 16.6336 63.9997 21.8298C63.9415 28.0176 63.9904 34.2078 63.9904 40.3959C63.9904 43.9679 63.8032 47.0567 63.2267 49.6502C62.6425 52.2802 61.6161 54.5925 59.8039 56.4047C57.9917 58.2169 55.6794 59.2433 53.0494 59.8275C50.4558 60.4041 47.367 60.5913 43.7951 60.5913H20.1955C16.6234 60.5913 13.5346 60.4041 10.9412 59.8275C8.31131 59.2433 5.99883 58.2169 4.18662 56.4047C2.37445 54.5925 1.34817 52.2802 0.763719 49.6502C0.187358 47.0567 0.00012207 43.9679 0.00012207 40.3959V23.1953C0.00012207 19.6233 0.187358 16.5345 0.763719 13.941C1.34817 11.3112 2.37445 8.99871 4.18662 7.1865C5.99883 5.37433 8.31131 4.34805 10.9412 3.7636Z" stroke="#6B21A8" stroke-width="12" mask="url(#path-1-inside-1_713_2508)"/>
<path d="M32.4482 31.0224C29.5991 31.0224 27.2753 33.3462 27.2753 36.1952C27.2753 39.0443 29.5991 41.3681 32.4482 41.3681C35.2972 41.3681 37.621 39.0443 37.621 36.1952C37.621 33.3462 35.2972 31.0224 32.4482 31.0224ZM34.0398 35.6859C34.0398 36.6568 33.5146 37.58 32.6869 38.0734L31.4613 38.8055C31.2703 38.917 31.0634 38.9806 30.8406 38.9806C30.4427 38.9806 30.0448 38.7737 29.822 38.4076C29.4877 37.8346 29.6628 37.1025 30.2358 36.7682L31.4454 36.0361C31.5728 35.9565 31.6364 35.8292 31.6364 35.7018V34.2216C31.6364 33.569 32.1776 33.0279 32.8302 33.0279C33.4827 33.0279 34.0398 33.5531 34.0398 34.2057V35.6859Z" fill="#C084FC"/>
<path d="M42.8588 24.5295L34.1048 21.2507C33.1975 20.9164 31.7173 20.9164 30.81 21.2507L22.056 24.5295C20.3688 25.1661 19 27.1398 19 28.9383V41.8306C19 43.1199 19.8436 44.8229 20.8781 45.5869L29.6322 52.1286C31.1761 53.2905 33.7068 53.2905 35.2507 52.1286L44.0048 45.5869C45.0394 44.807 45.8829 43.1199 45.8829 41.8306V28.9383C45.8989 27.1398 44.53 25.1661 42.8588 24.5295ZM32.4494 43.7565C28.2793 43.7565 24.8891 40.3663 24.8891 36.1962C24.8891 32.0261 28.2793 28.6359 32.4494 28.6359C36.6196 28.6359 40.0098 32.0261 40.0098 36.1962C40.0098 40.3663 36.6196 43.7565 32.4494 43.7565Z" fill="#C084FC"/>
</g>
<defs>
<clipPath id="clip0_713_2508">
<rect width="64" height="64" fill="white"/>
</clipPath>
</defs>
</svg>
