<svg width="64" height="64" viewBox="0 0 64 64" fill="none" xmlns="http://www.w3.org/2000/svg">
<g clip-path="url(#clip0_708_3800)">
<path fill-rule="evenodd" clip-rule="evenodd" d="M10.941 3.7636C13.5345 3.18724 16.6233 3 20.1953 3H25.371C28.5803 3 31.5773 4.60392 33.3575 7.27423L35.9571 11.1738C36.5506 12.0638 37.5495 12.5985 38.6194 12.5985H54.7943C59.9055 12.5985 64.0482 16.6336 63.9996 21.8298C63.9413 28.0176 63.9903 34.2078 63.9903 40.3959C63.9903 43.9679 63.8031 47.0567 63.2266 49.6502C62.6423 52.2802 61.6159 54.5925 59.8037 56.4047C57.9915 58.2169 55.6792 59.2433 53.0492 59.8275C50.4557 60.4041 47.3669 60.5913 43.795 60.5913H20.1953C16.6233 60.5913 13.5345 60.4041 10.941 59.8275C8.31119 59.2433 5.99871 58.2169 4.1865 56.4047C2.37433 54.5925 1.34805 52.2802 0.763597 49.6502C0.187236 47.0567 0 43.9679 0 40.3959V23.1953C0 19.6233 0.187236 16.5345 0.763597 13.941C1.34805 11.3112 2.37433 8.99871 4.1865 7.1865C5.99871 5.37433 8.31119 4.34805 10.941 3.7636Z" fill="#495057"/>
<g clip-path="url(#clip1_708_3800)">
<path fill-rule="evenodd" clip-rule="evenodd" d="M32 20.25C40.8368 20.25 48 27.5939 48 36.6547C48 43.9011 43.4208 50.0483 37.0672 52.2195C36.256 52.3811 35.968 51.8688 35.968 51.432C35.968 50.8912 35.9872 49.1249 35.9872 46.9297C35.9872 45.4001 35.4752 44.4018 34.9008 43.893C38.464 43.4866 42.208 42.0992 42.208 35.7984C42.208 34.0064 41.5872 32.5441 40.56 31.3953C40.7264 30.9809 41.2752 29.3123 40.4032 27.0531C40.4032 27.0531 39.0624 26.6136 36.008 28.7352C34.7296 28.372 33.36 28.1892 32 28.1828C30.64 28.1892 29.272 28.372 27.9952 28.7352C24.9376 26.6136 23.5936 27.0531 23.5936 27.0531C22.7248 29.3123 23.2736 30.9809 23.4384 31.3953C22.416 32.5441 21.7904 34.0064 21.7904 35.7984C21.7904 42.0832 25.5264 43.4919 29.08 43.9063C28.6224 44.3159 28.208 45.0384 28.064 46.0992C27.152 46.5184 24.8352 47.2439 23.408 44.7367C23.408 44.7367 22.5616 43.1605 20.9552 43.0453C20.9552 43.0453 19.3952 43.0246 20.8464 44.0422C20.8464 44.0422 21.8944 44.5462 22.6224 46.4422C22.6224 46.4422 23.5616 49.3701 28.0128 48.3781C28.0208 49.7493 28.0352 51.0416 28.0352 51.432C28.0352 51.8656 27.7408 52.3731 26.9424 52.2211C20.584 50.0531 16 43.9027 16 36.6547C16 27.5939 23.1648 20.25 32 20.25Z" fill="#CED4DA"/>
</g>
</g>
<defs>
<clipPath id="clip0_708_3800">
<rect width="64" height="64" fill="white"/>
</clipPath>
<clipPath id="clip1_708_3800">
<rect width="32" height="32" fill="white" transform="translate(16 20)"/>
</clipPath>
</defs>
</svg>
