<svg width="64" height="64" viewBox="0 0 64 64" fill="none" xmlns="http://www.w3.org/2000/svg">
<g clip-path="url(#clip0_712_2860)">
<path fill-rule="evenodd" clip-rule="evenodd" d="M10.941 3.7636C13.5345 3.18724 16.6233 3 20.1953 3H25.371C28.5803 3 31.5773 4.60392 33.3575 7.27423L35.9571 11.1738C36.5506 12.0638 37.5495 12.5985 38.6194 12.5985H54.7943C59.9055 12.5985 64.0482 16.6336 63.9996 21.8298C63.9413 28.0176 63.9903 34.2078 63.9903 40.3959C63.9903 43.9679 63.8031 47.0567 63.2266 49.6502C62.6423 52.2802 61.6159 54.5925 59.8037 56.4047C57.9915 58.2169 55.6792 59.2433 53.0492 59.8275C50.4557 60.4041 47.3669 60.5913 43.795 60.5913H20.1953C16.6233 60.5913 13.5345 60.4041 10.941 59.8275C8.31119 59.2433 5.99871 58.2169 4.1865 56.4047C2.37433 54.5925 1.34805 52.2802 0.763597 49.6502C0.187236 47.0567 0 43.9679 0 40.3959V23.1953C0 19.6233 0.187236 16.5345 0.763597 13.941C1.34805 11.3112 2.37433 8.99871 4.1865 7.1865C5.99871 5.37433 8.31119 4.34805 10.941 3.7636Z" fill="#6B21A8"/>
<g clip-path="url(#clip1_712_2860)">
<path d="M45.1494 21.5889C43.5774 21.5889 42.2984 22.8679 42.2984 24.4399C42.2984 24.808 42.3711 25.1752 42.5101 25.5156L37.8287 30.197C36.6408 29.3137 35.17 28.7902 33.5792 28.7902C32.3088 28.7902 31.0696 29.1283 29.9764 29.7703L27.0351 26.3928C27.2342 25.9972 27.3385 25.5603 27.3385 25.1151C27.3385 23.5433 26.0597 22.2646 24.4878 22.2646C22.9159 22.2646 21.637 23.5433 21.637 25.1151C21.637 26.6871 22.9159 27.9661 24.4878 27.9661C24.7849 27.9661 25.0758 27.9207 25.3558 27.8309L28.2642 31.1706C27.0871 32.4831 26.4426 34.1598 26.4426 35.9268C26.4426 36.635 26.5477 37.3352 26.7553 38.0121L20.35 42.571C19.9 42.291 19.3867 42.1441 18.8508 42.1441C17.2789 42.1442 16 43.4229 16 44.9947C16 46.5667 17.2789 47.8457 18.8508 47.8457C20.4227 47.8457 21.7016 46.5667 21.7016 44.9947C21.7016 44.7843 21.6784 44.5757 21.6325 44.3716L27.741 40.0242C28.5283 41.1421 29.6267 42.0185 30.8873 42.5347L30.2062 44.4551C28.7572 44.5876 27.6163 45.813 27.6163 47.2939C27.6163 48.8658 28.8952 50.1446 30.4671 50.1446C32.039 50.1446 33.3179 48.8658 33.3179 47.2939C33.3179 46.4577 32.9471 45.6649 32.3144 45.1249L33.0528 43.043C33.2317 43.0566 33.4079 43.0635 33.5792 43.0635C34.4933 43.0635 35.3824 42.8917 36.2261 42.5525L39.289 46.2447C39.077 46.6501 38.966 47.1001 38.966 47.5603C38.966 49.1324 40.2447 50.4114 41.8164 50.4114C43.3885 50.4114 44.6675 49.1324 44.6675 47.5603C44.6675 45.9886 43.3885 44.7099 41.8164 44.7099C41.5345 44.7099 41.2575 44.7511 40.9899 44.8326L38.1471 41.4057C39.784 40.0429 40.7156 38.066 40.7156 35.9269C40.7156 34.3786 40.2198 32.9441 39.3789 31.7733L44.0734 27.0788C44.4139 27.2177 44.7813 27.2904 45.1494 27.2904C46.7212 27.2904 48 26.0117 48 24.44C48 22.8679 46.7212 21.5889 45.1494 21.5889ZM33.5792 32.0786C35.7012 32.0786 37.4275 33.8049 37.4275 35.9269C37.4275 38.0488 35.7012 39.7751 33.5792 39.7751C31.4572 39.7751 29.7308 38.0488 29.7308 35.9269C29.7308 33.8049 31.4572 32.0786 33.5792 32.0786Z" fill="#C084FC"/>
</g>
</g>
<defs>
<clipPath id="clip0_712_2860">
<rect width="64" height="64" fill="white"/>
</clipPath>
<clipPath id="clip1_712_2860">
<rect width="32" height="32" fill="white" transform="translate(16 20)"/>
</clipPath>
</defs>
</svg>
