<svg width="63" height="63" viewBox="0 0 63 63" fill="none" xmlns="http://www.w3.org/2000/svg">
<g clip-path="url(#clip0_715_3140)">
<path fill-rule="evenodd" clip-rule="evenodd" d="M10.7701 3.70479C13.323 3.13744 16.3636 2.95312 19.8798 2.95312H24.9746C28.1337 2.95312 31.0839 4.53198 32.8363 7.16057L35.3953 10.9992C35.9795 11.8753 36.9628 12.4017 38.016 12.4017H53.9381C58.9695 12.4017 63.0475 16.3737 62.9996 21.4887C62.9423 27.5799 62.9905 33.6733 62.9905 39.7647C62.9905 43.2809 62.8062 46.3214 62.2387 48.8744C61.6636 51.4633 60.6532 53.7395 58.8693 55.5234C57.0854 57.3073 54.8093 58.3176 52.2203 58.8927C49.6673 59.4603 46.6268 59.6445 43.1107 59.6445H19.8798C16.3636 59.6445 13.323 59.4603 10.7701 58.8927C8.18133 58.3176 5.90498 57.3073 4.12109 55.5234C2.33723 53.7395 1.32699 51.4633 0.751665 48.8744C0.18431 46.3214 0 43.2809 0 39.7647V22.8329C0 19.3167 0.18431 16.2762 0.751665 13.7232C1.32699 11.1345 2.33723 8.8581 4.12109 7.07421C5.90498 5.29035 8.18133 4.28011 10.7701 3.70479Z" fill="#1E40AF"/>
<path d="M30.2308 30.2087C30.2748 30.5153 30.5942 30.6736 30.7133 30.2966C30.8315 29.9196 30.4115 29.2204 29.3246 28.0134C28.3978 26.9831 27.098 25.5514 27.8343 24.7897C28.7474 24.1599 28.3637 23.0554 27.5736 22.9479C26.8665 22.8532 26.223 23.7966 26.6342 25.3669C27.0443 26.9352 30.1058 29.3307 30.2308 30.2087Z" fill="#60A5FA"/>
<path d="M42.8687 24.2432C38.2143 24.2432 32.8247 29.8594 31.9614 31.1855C31.7368 30.8994 31.3921 30.7119 31.0005 30.7119C30.6079 30.7119 30.2631 30.8994 30.0385 31.1855C29.1753 29.8584 23.7856 24.2432 19.1314 24.2432C14.3296 24.2432 14.7222 28.5547 15.4078 31.2989C16.0933 34.044 18.9361 37.0811 22.0708 37.1797C18.5435 38.7471 18.2495 42.7657 19.3276 44.627C20.3501 46.3926 25.7818 50.378 29.7749 41.4835V43.3048C29.7749 43.9806 30.3237 44.5293 31.0005 44.5293C31.6763 44.5293 32.2251 43.9805 32.2251 43.3048V41.4825C36.2183 50.378 41.6509 46.3927 42.6723 44.627C43.7505 42.7657 43.4565 38.7472 39.9291 37.1798C43.0649 37.0812 45.9067 34.044 46.5922 31.2989C47.2778 28.5547 47.6705 24.2432 42.8687 24.2432Z" fill="#60A5FA"/>
<path d="M31.7691 30.2087C31.8941 29.3307 34.9556 26.9352 35.3667 25.3669C35.7769 23.7966 35.1334 22.8532 34.4263 22.9479C33.6362 23.0554 33.2534 24.1599 34.1656 24.7897C34.9019 25.5515 33.6021 26.9831 32.6753 28.0134C31.5884 29.2204 31.1685 29.9196 31.2866 30.2966C31.4057 30.6736 31.7251 30.5154 31.7691 30.2087Z" fill="#60A5FA"/>
</g>
<defs>
<clipPath id="clip0_715_3140">
<rect width="63" height="63" fill="white"/>
</clipPath>
</defs>
</svg>
