<svg width="64" height="64" viewBox="0 0 64 64" fill="none" xmlns="http://www.w3.org/2000/svg">
<g clip-path="url(#clip0_709_4624)">
<path fill-rule="evenodd" clip-rule="evenodd" d="M10.941 3.7636C13.5345 3.18724 16.6233 3 20.1953 3H25.371C28.5803 3 31.5773 4.60392 33.3575 7.27423L35.9571 11.1738C36.5506 12.0638 37.5495 12.5985 38.6194 12.5985H54.7943C59.9055 12.5985 64.0482 16.6336 63.9996 21.8298C63.9413 28.0176 63.9903 34.2078 63.9903 40.3959C63.9903 43.9679 63.8031 47.0567 63.2266 49.6502C62.6423 52.2802 61.6159 54.5925 59.8037 56.4047C57.9915 58.2169 55.6792 59.2433 53.0492 59.8275C50.4557 60.4041 47.3669 60.5913 43.795 60.5913H20.1953C16.6233 60.5913 13.5345 60.4041 10.941 59.8275C8.31119 59.2433 5.99871 58.2169 4.1865 56.4047C2.37433 54.5925 1.34805 52.2802 0.763597 49.6502C0.187236 47.0567 0 43.9679 0 40.3959V23.1953C0 19.6233 0.187236 16.5345 0.763597 13.941C1.34805 11.3112 2.37433 8.99871 4.1865 7.1865C5.99871 5.37433 8.31119 4.34805 10.941 3.7636Z" fill="#991B1B"/>
<g clip-path="url(#clip1_709_4624)">
<path fill-rule="evenodd" clip-rule="evenodd" d="M27.2 31.2C27.2 30.3163 26.4836 29.6 25.6 29.6C24.7164 29.6 24 30.3163 24 31.2V47.2C24 48.0837 24.7164 48.8 25.6 48.8C26.4836 48.8 27.2 48.0837 27.2 47.2V31.2ZM40 31.2C40 30.3163 39.2837 29.6 38.4 29.6C37.5163 29.6 36.8 30.3163 36.8 31.2V47.2C36.8 48.0837 37.5163 48.8 38.4 48.8C39.2837 48.8 40 48.0837 40 47.2V31.2ZM24 26.4V24.8C24 22.149 26.149 20 28.8 20H35.2C37.851 20 40 22.149 40 24.8V26.4H40.1053C41.5237 26.3999 42.7458 26.3999 43.7245 26.5314C44.7733 26.6724 45.7787 26.9904 46.5941 27.8059C47.4096 28.6213 47.7275 29.6267 47.8686 30.6755C48.0001 31.6542 48.0001 32.8763 48 34.2947V44.1053C48.0001 45.5237 48.0001 46.7457 47.8686 47.7245C47.7275 48.7733 47.4096 49.7787 46.5941 50.5941C45.7787 51.4096 44.7733 51.7275 43.7245 51.8686C42.7458 52.0001 41.5237 52.0001 40.1053 52H23.8947C22.4763 52.0001 21.2542 52.0001 20.2755 51.8686C19.2267 51.7275 18.2214 51.4096 17.4059 50.5941C16.5904 49.7787 16.2725 48.7733 16.1314 47.7245C15.9999 46.7457 15.9999 45.5237 16 44.1053V34.2947C15.9999 32.8763 15.9999 31.6542 16.1314 30.6755C16.2725 29.6267 16.5904 28.6213 17.4059 27.8059C18.2214 26.9904 19.2267 26.6724 20.2755 26.5314C21.2542 26.3999 22.4763 26.3999 23.8947 26.4H24ZM27.2 24.8C27.2 23.9164 27.9164 23.2 28.8 23.2H35.2C36.0837 23.2 36.8 23.9164 36.8 24.8V26.4H27.2V24.8Z" fill="#F87171"/>
</g>
</g>
<defs>
<clipPath id="clip0_709_4624">
<rect width="64" height="64" fill="white"/>
</clipPath>
<clipPath id="clip1_709_4624">
<rect width="32" height="32" fill="white" transform="translate(16 20)"/>
</clipPath>
</defs>
</svg>
