<svg width="63" height="63" viewBox="0 0 63 63" fill="none" xmlns="http://www.w3.org/2000/svg">
<g clip-path="url(#clip0_715_3230)">
<path fill-rule="evenodd" clip-rule="evenodd" d="M10.77 3.70479C13.3229 3.13744 16.3634 2.95312 19.8797 2.95312H24.9744C28.1336 2.95312 31.0838 4.53198 32.8362 7.16057L35.3952 10.9992C35.9794 11.8753 36.9627 12.4017 38.0159 12.4017H53.938C58.9693 12.4017 63.0473 16.3737 62.9995 21.4887C62.9421 27.5799 62.9903 33.6733 62.9903 39.7647C62.9903 43.2809 62.8061 46.3214 62.2385 48.8744C61.6634 51.4633 60.6531 53.7395 58.8692 55.5234C57.0853 57.3073 54.8091 58.3176 52.2202 58.8927C49.6672 59.4603 46.6267 59.6445 43.1105 59.6445H19.8797C16.3634 59.6445 13.3229 59.4603 10.77 58.8927C8.1812 58.3176 5.90486 57.3073 4.12097 55.5234C2.33711 53.7395 1.32687 51.4633 0.751543 48.8744C0.184188 46.3214 -0.00012207 43.2809 -0.00012207 39.7647V22.8329C-0.00012207 19.3167 0.184188 16.2762 0.751543 13.7232C1.32687 11.1345 2.33711 8.8581 4.12097 7.07421C5.90486 5.29035 8.1812 4.28011 10.77 3.70479Z" fill="#9A3412"/>
<path d="M36.0895 20.8V30.2406C36.0895 30.9446 35.2575 31.2966 34.7455 30.8326L31.9453 28.2565C31.6413 27.9684 31.1613 27.9684 30.8572 28.2565L28.0571 30.8166C27.5451 31.2966 26.713 30.9286 26.713 30.2406V20.8C26.713 20.352 27.065 20 27.5131 20H35.2895C35.7375 20 36.0895 20.352 36.0895 20.8Z" fill="#FB923C"/>
<path d="M39.3692 20.0943C38.9052 20.0303 38.4892 20.4303 38.4892 20.8943V30.5268C38.4892 31.7429 37.7691 32.8469 36.6491 33.343C35.529 33.823 34.233 33.615 33.3369 32.783L31.9448 31.5029C31.6408 31.2149 31.1768 31.2149 30.8568 31.5029L29.4647 32.783C28.8887 33.327 28.1366 33.599 27.3846 33.599C26.9686 33.599 26.5525 33.519 26.1525 33.343C25.0324 32.8469 24.3124 31.7429 24.3124 30.5268V20.8943C24.3124 20.4303 23.8964 20.0303 23.4324 20.0943C18.9521 20.6543 17 23.6785 17 27.9987V43.9996C17 48.7998 19.4001 52 25.0004 52H37.8011C43.4015 52 45.8016 48.7998 45.8016 43.9996V27.9987C45.8016 23.6785 43.8495 20.6543 39.3692 20.0943ZM40.2013 46.7997H26.6005C25.9445 46.7997 25.4005 46.2557 25.4005 45.5996C25.4005 44.9436 25.9445 44.3996 26.6005 44.3996H40.2013C40.8573 44.3996 41.4013 44.9436 41.4013 45.5996C41.4013 46.2557 40.8573 46.7997 40.2013 46.7997ZM40.2013 40.3994H33.4009C32.7449 40.3994 32.2008 39.8553 32.2008 39.1993C32.2008 38.5433 32.7449 37.9992 33.4009 37.9992H40.2013C40.8573 37.9992 41.4013 38.5433 41.4013 39.1993C41.4013 39.8553 40.8573 40.3994 40.2013 40.3994Z" fill="#FB923C"/>
</g>
<defs>
<clipPath id="clip0_715_3230">
<rect width="63" height="63" fill="white"/>
</clipPath>
</defs>
</svg>
