<svg width="64" height="64" viewBox="0 0 64 64" fill="none" xmlns="http://www.w3.org/2000/svg">
<g clip-path="url(#clip0_718_2478)">
<mask id="path-1-inside-1_718_2478" fill="white">
<path fill-rule="evenodd" clip-rule="evenodd" d="M10.941 3.7636C13.5345 3.18724 16.6233 3 20.1953 3H25.371C28.5803 3 31.5773 4.60392 33.3575 7.27423L35.9571 11.1738C36.5506 12.0638 37.5495 12.5985 38.6194 12.5985H54.7943C59.9055 12.5985 64.0482 16.6336 63.9996 21.8298C63.9413 28.0176 63.9903 34.2078 63.9903 40.3959C63.9903 43.9679 63.8031 47.0567 63.2266 49.6502C62.6423 52.2802 61.6159 54.5925 59.8037 56.4047C57.9915 58.2169 55.6792 59.2433 53.0492 59.8275C50.4557 60.4041 47.3669 60.5913 43.795 60.5913H20.1953C16.6233 60.5913 13.5345 60.4041 10.941 59.8275C8.31119 59.2433 5.99871 58.2169 4.1865 56.4047C2.37433 54.5925 1.34805 52.2802 0.763596 49.6502C0.187236 47.0567 0 43.9679 0 40.3959V23.1953C0 19.6233 0.187236 16.5345 0.763596 13.941C1.34805 11.3112 2.37433 8.99871 4.1865 7.1865C5.99871 5.37433 8.31119 4.34805 10.941 3.7636Z"/>
</mask>
<path fill-rule="evenodd" clip-rule="evenodd" d="M10.941 3.7636C13.5345 3.18724 16.6233 3 20.1953 3H25.371C28.5803 3 31.5773 4.60392 33.3575 7.27423L35.9571 11.1738C36.5506 12.0638 37.5495 12.5985 38.6194 12.5985H54.7943C59.9055 12.5985 64.0482 16.6336 63.9996 21.8298C63.9413 28.0176 63.9903 34.2078 63.9903 40.3959C63.9903 43.9679 63.8031 47.0567 63.2266 49.6502C62.6423 52.2802 61.6159 54.5925 59.8037 56.4047C57.9915 58.2169 55.6792 59.2433 53.0492 59.8275C50.4557 60.4041 47.3669 60.5913 43.795 60.5913H20.1953C16.6233 60.5913 13.5345 60.4041 10.941 59.8275C8.31119 59.2433 5.99871 58.2169 4.1865 56.4047C2.37433 54.5925 1.34805 52.2802 0.763596 49.6502C0.187236 47.0567 0 43.9679 0 40.3959V23.1953C0 19.6233 0.187236 16.5345 0.763596 13.941C1.34805 11.3112 2.37433 8.99871 4.1865 7.1865C5.99871 5.37433 8.31119 4.34805 10.941 3.7636Z" stroke="#991B1B" stroke-width="12" mask="url(#path-1-inside-1_718_2478)"/>
<g clip-path="url(#clip1_718_2478)">
<path d="M36.208 45.912L37.057 44.464C37.057 44.464 35.13 45.251 31.912 45.251C28.688 45.251 26.792 44.495 26.792 44.495L27.74 46.074L28.073 51.042C28.073 51.585 29.822 52.001 31.989 52.001C34.15 52.001 35.906 51.585 35.906 51.042L36.207 45.933L36.208 45.912ZM37.027 36.516C36.006 36.579 35.49 37.719 34.974 38.921C34.787 39.36 34.137 41.24 33.714 41.005C33.287 40.776 34.261 39.234 34.537 38.317C34.22 38.546 33.064 39.448 32.766 38.604C32.287 39.021 31.261 39.245 31.375 38.161C31.12 38.625 30.547 39.26 29.86 38.984C28.959 38.64 30.385 35.765 30.74 35.907C31.093 36.068 30.667 36.708 30.557 36.964C30.306 37.527 30.026 38.245 30.213 38.38C30.536 38.64 31.421 37.448 31.442 37.421C31.603 37.202 32.078 35.786 32.458 35.948C32.838 36.125 31.51 38.005 32.005 38.38C32.104 38.464 32.516 38.344 32.765 38.063C32.921 37.907 32.869 37.506 33.401 36.23C33.942 34.949 34.421 33.355 34.786 33.474C35.155 33.594 34.854 34.413 34.718 34.73C34.098 36.167 33.03 38.522 33.53 38.345C34.03 38.162 34.291 38.162 34.791 37.585C35.291 37.006 35.25 36.048 35.587 36.069C35.911 36.089 35.868 36.408 35.791 36.626C36.108 36.266 37.322 35.47 37.603 36.246C37.947 37.162 35.868 38.506 36.384 38.422C36.884 38.365 37.701 37.845 38.067 37.365L39.026 28.698C39.026 28.698 38.046 29.501 31.874 29.501C25.707 29.501 24.827 28.72 24.827 28.72L25.644 36.627C26.087 35.392 27.124 32.876 28.744 32.975C29.483 33.018 30.477 34.455 29.619 34.491C29.259 34.512 29.218 33.772 28.802 33.674C28.483 33.617 28.062 33.857 27.786 34.138C27.245 34.674 26.046 36.809 26.207 37.871C26.406 39.226 28.082 37.408 28.363 36.871C28.562 36.491 28.702 35.351 29.119 35.471C29.562 35.59 29.082 36.772 28.759 37.788C28.4 38.949 28.218 40.163 27.786 40.023C27.343 39.882 28.062 38.387 28.021 38.127C27.604 38.528 26.844 39.486 25.849 39.007L26.344 43.939C26.344 43.939 27.703 44.996 31.776 44.996C35.849 44.996 37.265 43.939 37.265 43.939L37.906 38.226C37.385 38.747 35.749 39.642 35.65 38.627C35.573 37.808 37.426 36.632 36.947 36.606L37.027 36.516ZM39.131 20.891L35.584 24.626L34.932 27.162C37.443 27.318 39.188 27.678 39.188 28.083C39.188 28.646 35.969 29.094 32 29.094C28.031 29.094 24.812 28.637 24.812 28.079C24.812 27.522 28.031 27.058 32 27.058C32.563 27.058 33.125 27.058 33.688 27.079L34.432 24.047L38.197 20.052C38.292 19.932 38.573 20.031 38.833 20.251C39.088 20.454 39.229 20.708 39.15 20.828V20.869L39.131 20.891ZM34.016 28.62C34.016 28.62 33.317 28.62 33.203 28.511C33.172 28.479 33.156 28.432 33.156 28.391C33.156 28.312 33.208 28.271 33.276 28.246L33.333 28.345C33.306 28.356 33.297 28.365 33.292 28.376C33.292 28.433 33.708 28.471 34.031 28.465C34.35 28.46 34.74 28.433 34.74 28.381C34.74 28.365 34.708 28.35 34.656 28.334L34.719 28.241C34.803 28.266 34.875 28.318 34.875 28.402C34.875 28.547 34.688 28.574 34.568 28.589C34.427 28.61 34.021 28.621 34.021 28.621L34.016 28.62Z" fill="#F87171"/>
</g>
</g>
<defs>
<clipPath id="clip0_718_2478">
<rect width="64" height="64" fill="white"/>
</clipPath>
<clipPath id="clip1_718_2478">
<rect width="32" height="32" fill="white" transform="translate(16 20)"/>
</clipPath>
</defs>
</svg>
