<svg width="63" height="63" viewBox="0 0 63 63" fill="none" xmlns="http://www.w3.org/2000/svg">
<g clip-path="url(#clip0_715_2994)">
<mask id="path-1-inside-1_715_2994" fill="white">
<path fill-rule="evenodd" clip-rule="evenodd" d="M10.7701 3.70479C13.323 3.13744 16.3636 2.95312 19.8798 2.95312H24.9746C28.1337 2.95312 31.0839 4.53198 32.8363 7.16057L35.3953 10.9992C35.9795 11.8753 36.9628 12.4017 38.016 12.4017H53.9381C58.9695 12.4017 63.0475 16.3737 62.9996 21.4887C62.9423 27.5799 62.9905 33.6733 62.9905 39.7647C62.9905 43.2809 62.8062 46.3214 62.2387 48.8744C61.6636 51.4633 60.6532 53.7395 58.8693 55.5234C57.0854 57.3073 54.8093 58.3176 52.2203 58.8927C49.6673 59.4603 46.6268 59.6445 43.1107 59.6445H19.8798C16.3636 59.6445 13.323 59.4603 10.7701 58.8927C8.18133 58.3176 5.90498 57.3073 4.12109 55.5234C2.33723 53.7395 1.32699 51.4633 0.751665 48.8744C0.18431 46.3214 0 43.2809 0 39.7647V22.8329C0 19.3167 0.18431 16.2762 0.751665 13.7232C1.32699 11.1345 2.33723 8.8581 4.12109 7.07421C5.90498 5.29035 8.18133 4.28011 10.7701 3.70479Z"/>
</mask>
<path fill-rule="evenodd" clip-rule="evenodd" d="M10.7701 3.70479C13.323 3.13744 16.3636 2.95312 19.8798 2.95312H24.9746C28.1337 2.95312 31.0839 4.53198 32.8363 7.16057L35.3953 10.9992C35.9795 11.8753 36.9628 12.4017 38.016 12.4017H53.9381C58.9695 12.4017 63.0475 16.3737 62.9996 21.4887C62.9423 27.5799 62.9905 33.6733 62.9905 39.7647C62.9905 43.2809 62.8062 46.3214 62.2387 48.8744C61.6636 51.4633 60.6532 53.7395 58.8693 55.5234C57.0854 57.3073 54.8093 58.3176 52.2203 58.8927C49.6673 59.4603 46.6268 59.6445 43.1107 59.6445H19.8798C16.3636 59.6445 13.323 59.4603 10.7701 58.8927C8.18133 58.3176 5.90498 57.3073 4.12109 55.5234C2.33723 53.7395 1.32699 51.4633 0.751665 48.8744C0.18431 46.3214 0 43.2809 0 39.7647V22.8329C0 19.3167 0.18431 16.2762 0.751665 13.7232C1.32699 11.1345 2.33723 8.8581 4.12109 7.07421C5.90498 5.29035 8.18133 4.28011 10.7701 3.70479Z" stroke="#854D0E" stroke-width="12" mask="url(#path-1-inside-1_715_2994)"/>
<path fill-rule="evenodd" clip-rule="evenodd" d="M15 23.5263C15 22.8563 15.2662 22.2137 15.7399 21.7399C16.2137 21.2662 16.8563 21 17.5263 21H42.7892C43.4592 21 44.1018 21.2662 44.5756 21.7399C45.0493 22.2137 45.3155 22.8563 45.3155 23.5263V26.8947C45.3155 27.5647 45.0493 28.2073 44.5756 28.681C44.1018 29.1548 43.4592 29.421 42.7892 29.421H17.5263C16.8563 29.421 16.2137 29.1548 15.7399 28.681C15.2662 28.2073 15 27.5647 15 26.8947V23.5263ZM20.8947 25.2105C20.8947 25.6572 20.7172 26.0855 20.4014 26.4014C20.0855 26.7172 19.6572 26.8947 19.2105 26.8947C18.7638 26.8947 18.3354 26.7172 18.0196 26.4014C17.7037 26.0855 17.5263 25.6572 17.5263 25.2105C17.5263 24.7638 17.7037 24.3354 18.0196 24.0196C18.3354 23.7037 18.7638 23.5263 19.2105 23.5263C19.6572 23.5263 20.0855 23.7037 20.4014 24.0196C20.7172 24.3354 20.8947 24.7638 20.8947 25.2105ZM15 33.6315C15 32.9614 15.2662 32.3189 15.7399 31.8451C16.2137 31.3713 16.8563 31.1052 17.5263 31.1052H27.7544C28.1849 31.1052 28.6082 31.2152 28.9843 31.4248C29.3603 31.6344 29.6765 31.9366 29.9029 32.3027C30.1294 32.6688 30.2585 33.0867 30.278 33.5168C30.2975 33.9468 30.2069 34.3747 30.0146 34.7599L28.3304 38.1283C28.1207 38.5482 27.7982 38.9015 27.399 39.1484C26.9997 39.3953 26.5396 39.5261 26.0702 39.5261H17.5263C16.8563 39.5261 16.2137 39.26 15.7399 38.7862C15.2662 38.3124 15 37.6699 15 36.9998V33.6315ZM20.8947 35.3157C20.8947 35.7623 20.7172 36.1907 20.4014 36.5066C20.0855 36.8224 19.6572 36.9998 19.2105 36.9998C18.7638 36.9998 18.3354 36.8224 18.0196 36.5066C17.7037 36.1907 17.5263 35.7623 17.5263 35.3157C17.5263 34.869 17.7037 34.4406 18.0196 34.1247C18.3354 33.8089 18.7638 33.6315 19.2105 33.6315C19.6572 33.6315 20.0855 33.8089 20.4014 34.1247C20.7172 34.4406 20.8947 34.869 20.8947 35.3157ZM15 43.7366C15 43.0666 15.2662 42.424 15.7399 41.9503C16.2137 41.4765 16.8563 41.2103 17.5263 41.2103H26.402C26.9861 41.2103 27.5522 41.4127 28.0039 41.783C28.4555 42.1533 28.765 42.6687 28.8794 43.2415L29.5531 46.6099C29.6264 46.9762 29.6174 47.3543 29.5269 47.7168C29.4365 48.0793 29.2667 48.4172 29.0299 48.7062C28.7931 48.9952 28.4952 49.228 28.1575 49.388C27.8199 49.548 27.451 49.6311 27.0774 49.6313H17.5263C16.8563 49.6313 16.2137 49.3651 15.7399 48.8914C15.2662 48.4176 15 47.775 15 47.105V43.7366ZM20.8947 45.4208C20.8947 45.8675 20.7172 46.2959 20.4014 46.6117C20.0855 46.9276 19.6572 47.105 19.2105 47.105C18.7638 47.105 18.3354 46.9276 18.0196 46.6117C17.7037 46.2959 17.5263 45.8675 17.5263 45.4208C17.5263 44.9741 17.7037 44.5458 18.0196 44.2299C18.3354 43.9141 18.7638 43.7366 19.2105 43.7366C19.6572 43.7366 20.0855 43.9141 20.4014 44.2299C20.7172 44.5458 20.8947 44.9741 20.8947 45.4208ZM33.7939 39.6255L32.6453 38.903C32.4567 38.7903 32.2923 38.6413 32.1617 38.4647C32.031 38.288 31.9366 38.0873 31.884 37.8739C31.834 37.6613 31.8282 37.4406 31.867 37.2257C31.9058 37.0107 31.9885 36.806 32.1097 36.6243C32.232 36.4389 32.3902 36.28 32.5751 36.157C32.76 36.0341 32.9677 35.9495 33.1859 35.9085C33.6281 35.8226 34.0864 35.9133 34.4626 36.1611L35.6112 36.8803C36.2326 36.3582 36.9585 35.9708 37.745 35.7418V34.423C37.745 33.9885 37.9202 33.5742 38.2351 33.2677C38.5501 32.9612 38.9762 32.7894 39.4208 32.7894C39.8654 32.7894 40.2916 32.9612 40.6065 33.2677C40.7613 33.4177 40.8844 33.5972 40.9686 33.7957C41.0528 33.9941 41.0963 34.2075 41.0966 34.423V35.7418C41.8915 35.9742 42.6174 36.3649 43.2305 36.8803L44.3791 36.1578C44.7544 35.9442 45.1964 35.8799 45.617 35.9775C46.038 36.0752 46.4035 36.3279 46.6376 36.6832C46.8734 37.0369 46.9576 37.4664 46.8751 37.879C46.7907 38.2956 46.5472 38.663 46.1963 38.903L45.0477 39.6255C45.3558 40.6596 45.3558 41.7611 45.0477 42.7952L46.1963 43.5194C46.3849 43.6321 46.5493 43.781 46.68 43.9577C46.8107 44.1343 46.905 44.3351 46.9576 44.5484C47.0077 44.7611 47.0135 44.9817 46.9746 45.1967C46.9358 45.4117 46.8532 45.6164 46.7319 45.7981C46.6098 45.9835 46.4515 46.1425 46.2666 46.2655C46.0817 46.3884 45.874 46.4729 45.6557 46.5139C45.2135 46.6003 44.755 46.5096 44.3791 46.2612L43.2305 45.5404C42.609 46.0625 41.8831 46.4499 41.0966 46.6789V47.9976C41.0963 48.2132 41.0528 48.4265 40.9686 48.625C40.8844 48.8234 40.7613 49.003 40.6065 49.153C40.2885 49.4605 39.8632 49.6321 39.4208 49.6313C38.9784 49.6321 38.5531 49.4605 38.2351 49.153C38.0803 49.003 37.9572 48.8234 37.873 48.625C37.7888 48.4265 37.7453 48.2132 37.745 47.9976V46.6789C36.9628 46.4508 36.2362 46.0632 35.6112 45.5404L34.4626 46.2629C34.086 46.4973 33.6334 46.577 33.1994 46.4852C32.7682 46.3962 32.3891 46.1416 32.1434 45.7762C32.0248 45.5971 31.9436 45.3959 31.9045 45.1846C31.8655 44.9734 31.8694 44.7564 31.9161 44.5467C31.9638 44.3356 32.0529 44.1361 32.1784 43.9597C32.3039 43.7833 32.4632 43.6336 32.647 43.5194L33.7922 42.7952C33.4842 41.7611 33.4842 40.6596 33.7922 39.6255H33.7939ZM39.4208 38.7716C38.0398 38.7716 36.9164 39.8663 36.9164 41.212C36.9164 42.5577 38.0398 43.6507 39.4208 43.6507C40.8019 43.6507 41.9252 42.556 41.9252 41.212C41.9252 39.8647 40.8019 38.7699 39.4208 38.7699V38.7716Z" fill="#FACC15"/>
</g>
<defs>
<clipPath id="clip0_715_2994">
<rect width="63" height="63" fill="white"/>
</clipPath>
</defs>
</svg>
