<svg width="64" height="64" viewBox="0 0 64 64" fill="none" xmlns="http://www.w3.org/2000/svg">
<g clip-path="url(#clip0_715_2641)">
<mask id="path-1-inside-1_715_2641" fill="white">
<path fill-rule="evenodd" clip-rule="evenodd" d="M10.941 3.7636C13.5345 3.18724 16.6233 3 20.1953 3H25.371C28.5803 3 31.5773 4.60392 33.3575 7.27423L35.9571 11.1738C36.5506 12.0638 37.5495 12.5985 38.6194 12.5985H54.7943C59.9055 12.5985 64.0482 16.6336 63.9996 21.8298C63.9413 28.0176 63.9903 34.2078 63.9903 40.3959C63.9903 43.9679 63.8031 47.0567 63.2266 49.6502C62.6423 52.2802 61.6159 54.5925 59.8037 56.4047C57.9915 58.2169 55.6792 59.2433 53.0492 59.8275C50.4557 60.4041 47.3669 60.5913 43.795 60.5913H20.1953C16.6233 60.5913 13.5345 60.4041 10.941 59.8275C8.31119 59.2433 5.99871 58.2169 4.1865 56.4047C2.37433 54.5925 1.34805 52.2802 0.763597 49.6502C0.187236 47.0567 0 43.9679 0 40.3959V23.1953C0 19.6233 0.187236 16.5345 0.763597 13.941C1.34805 11.3112 2.37433 8.99871 4.1865 7.1865C5.99871 5.37433 8.31119 4.34805 10.941 3.7636Z"/>
</mask>
<path fill-rule="evenodd" clip-rule="evenodd" d="M10.941 3.7636C13.5345 3.18724 16.6233 3 20.1953 3H25.371C28.5803 3 31.5773 4.60392 33.3575 7.27423L35.9571 11.1738C36.5506 12.0638 37.5495 12.5985 38.6194 12.5985H54.7943C59.9055 12.5985 64.0482 16.6336 63.9996 21.8298C63.9413 28.0176 63.9903 34.2078 63.9903 40.3959C63.9903 43.9679 63.8031 47.0567 63.2266 49.6502C62.6423 52.2802 61.6159 54.5925 59.8037 56.4047C57.9915 58.2169 55.6792 59.2433 53.0492 59.8275C50.4557 60.4041 47.3669 60.5913 43.795 60.5913H20.1953C16.6233 60.5913 13.5345 60.4041 10.941 59.8275C8.31119 59.2433 5.99871 58.2169 4.1865 56.4047C2.37433 54.5925 1.34805 52.2802 0.763597 49.6502C0.187236 47.0567 0 43.9679 0 40.3959V23.1953C0 19.6233 0.187236 16.5345 0.763597 13.941C1.34805 11.3112 2.37433 8.99871 4.1865 7.1865C5.99871 5.37433 8.31119 4.34805 10.941 3.7636Z" stroke="#075985" stroke-width="12" mask="url(#path-1-inside-1_715_2641)"/>
<g clip-path="url(#clip1_715_2641)">
<path fill-rule="evenodd" clip-rule="evenodd" d="M48 26.6667H16V24C16 21.7909 17.7909 20 20 20H44C46.2092 20 48 21.7909 48 24V26.6667ZM48 29.3333V48C48 50.2092 46.2092 52 44 52H20C17.7909 52 16 50.2092 16 48V29.3333H48ZM38.6667 22.6667C37.9303 22.6667 37.3333 23.2636 37.3333 24C37.3333 24.7364 37.9303 25.3333 38.6667 25.3333C39.4031 25.3333 40 24.7364 40 24C40 23.2636 39.4031 22.6667 38.6667 22.6667ZM42.6667 22.6667C41.9303 22.6667 41.3333 23.2636 41.3333 24C41.3333 24.7364 41.9303 25.3333 42.6667 25.3333C43.4031 25.3333 44 24.7364 44 24C44 23.2636 43.4031 22.6667 42.6667 22.6667ZM22.6667 33.3333C21.9303 33.3333 21.3333 33.9303 21.3333 34.6667C21.3333 35.4031 21.9303 36 22.6667 36H26.6667C27.4031 36 28 35.4031 28 34.6667C28 33.9303 27.4031 33.3333 26.6667 33.3333H22.6667ZM30.6667 33.3333C29.9303 33.3333 29.3333 33.9303 29.3333 34.6667C29.3333 35.4031 29.9303 36 30.6667 36C31.4031 36 32 35.4031 32 34.6667C32 33.9303 31.4031 33.3333 30.6667 33.3333Z" fill="#38BDF8"/>
</g>
</g>
<defs>
<clipPath id="clip0_715_2641">
<rect width="64" height="64" fill="white"/>
</clipPath>
<clipPath id="clip1_715_2641">
<rect width="32" height="32" fill="white" transform="translate(16 20)"/>
</clipPath>
</defs>
</svg>
