<svg width="64" height="64" viewBox="0 0 64 64" fill="none" xmlns="http://www.w3.org/2000/svg">
<g clip-path="url(#clip0_712_2547)">
<path fill-rule="evenodd" clip-rule="evenodd" d="M10.941 3.7636C13.5345 3.18724 16.6233 3 20.1953 3H25.371C28.5803 3 31.5773 4.60392 33.3575 7.27423L35.9571 11.1738C36.5506 12.0638 37.5495 12.5985 38.6194 12.5985H54.7943C59.9055 12.5985 64.0482 16.6336 63.9996 21.8298C63.9413 28.0176 63.9903 34.2078 63.9903 40.3959C63.9903 43.9679 63.8031 47.0567 63.2266 49.6502C62.6423 52.2802 61.6159 54.5925 59.8037 56.4047C57.9915 58.2169 55.6792 59.2433 53.0492 59.8275C50.4557 60.4041 47.3669 60.5913 43.795 60.5913H20.1953C16.6233 60.5913 13.5345 60.4041 10.941 59.8275C8.31119 59.2433 5.99871 58.2169 4.1865 56.4047C2.37433 54.5925 1.34805 52.2802 0.763597 49.6502C0.187236 47.0567 0 43.9679 0 40.3959V23.1953C0 19.6233 0.187236 16.5345 0.763597 13.941C1.34805 11.3112 2.37433 8.99871 4.1865 7.1865C5.99871 5.37433 8.31119 4.34805 10.941 3.7636Z" fill="#495057"/>
<path d="M33.8835 21.1511C35.6283 21.8469 36.3188 24.5953 35.4056 27.3072C34.5028 30.0069 32.3702 31.6507 30.6185 30.9671C28.879 30.2904 28.1762 27.5368 29.0738 24.8162C29.9644 22.1078 32.1232 20.4796 33.8835 21.1511ZM43.6421 26.7853C45.1172 27.9821 44.7728 30.6592 42.9011 32.7988C40.9789 34.9296 38.2566 35.7037 36.7885 34.5296C35.3047 33.3467 35.663 30.6766 37.5626 28.5526C39.4586 26.4061 42.1792 25.6303 43.6421 26.7853ZM22.956 23.2124C24.899 23.442 26.3132 25.879 26.1967 28.6327C25.9879 31.388 24.3267 33.4493 22.3976 33.2267C20.4703 33.0058 19.0613 30.5913 19.2196 27.8255C19.3796 25.0597 21.0773 23.0019 22.956 23.2124ZM47.5247 37.398C48.6484 38.9201 47.716 41.4197 45.399 42.94C43.082 44.4604 40.2884 44.4482 39.1316 42.8879C37.9766 41.3293 38.9298 38.8592 41.212 37.3006C43.5395 35.8237 46.3557 35.8307 47.5264 37.398M36.7502 50.7956C36.0649 52.1107 34.2627 52.9613 32.7807 52.8169C29.6913 52.5247 28.1362 48.5343 25.4226 46.9652C22.7055 45.3979 18.3898 46.1268 16.6903 43.5262C15.7092 42.0685 15.7927 39.7515 16.8208 38.3791C18.2402 36.4865 21.3139 36.8066 23.6205 36.1525C26.6559 35.3402 30.1088 32.5117 32.8537 34.0947C35.583 35.6707 34.9725 40.0681 35.6717 43.1122C36.2266 45.6519 37.94 48.5151 36.7502 50.7956Z" fill="#CED4DA"/>
</g>
<defs>
<clipPath id="clip0_712_2547">
<rect width="64" height="64" fill="white"/>
</clipPath>
</defs>
</svg>
