<svg width="64" height="64" viewBox="0 0 64 64" fill="none" xmlns="http://www.w3.org/2000/svg">
<g clip-path="url(#clip0_718_2559)">
<path fill-rule="evenodd" clip-rule="evenodd" d="M10.9412 3.7636C13.5346 3.18724 16.6234 3 20.1955 3H25.3711C28.5804 3 31.5774 4.60392 33.3576 7.27423L35.9572 11.1738C36.5507 12.0638 37.5496 12.5985 38.6195 12.5985H54.7944C59.9056 12.5985 64.0483 16.6336 63.9997 21.8298C63.9415 28.0176 63.9904 34.2078 63.9904 40.3959C63.9904 43.9679 63.8032 47.0567 63.2267 49.6502C62.6425 52.2802 61.6161 54.5925 59.8039 56.4047C57.9917 58.2169 55.6794 59.2433 53.0494 59.8275C50.4558 60.4041 47.367 60.5913 43.7951 60.5913H20.1955C16.6234 60.5913 13.5346 60.4041 10.9412 59.8275C8.31131 59.2433 5.99883 58.2169 4.18662 56.4047C2.37445 54.5925 1.34817 52.2802 0.763719 49.6502C0.187358 47.0567 0.00012207 43.9679 0.00012207 40.3959V23.1953C0.00012207 19.6233 0.187358 16.5345 0.763719 13.941C1.34817 11.3112 2.37445 8.99871 4.18662 7.1865C5.99883 5.37433 8.31131 4.34805 10.9412 3.7636Z" fill="#9A3412"/>
<path fill-rule="evenodd" clip-rule="evenodd" d="M19.854 21.0025C19.3549 20.9842 18.8573 21.0668 18.3909 21.2451C17.9245 21.4235 17.4988 21.6941 17.1392 22.0407C16.7797 22.3873 16.4938 22.8028 16.2985 23.2624C16.1031 23.722 16.0025 24.2163 16.0025 24.7157C16.0025 25.215 16.1031 25.7093 16.2985 26.1689C16.4938 26.6285 16.7797 27.044 17.1392 27.3906C17.4988 27.7372 17.9245 28.0078 18.3909 28.1862C18.8573 28.3646 19.3549 28.4471 19.854 28.4288H34.5328C35.4941 28.3937 36.4043 27.9871 37.072 27.2946C37.7396 26.602 38.1127 25.6776 38.1127 24.7157C38.1127 23.7537 37.7396 22.8293 37.072 22.1368C36.4043 21.4443 35.4941 21.0376 34.5328 21.0025H19.854ZM44.1151 21.0025C43.1096 21.0018 42.1451 21.3923 41.4334 22.0882C40.7218 22.784 40.3213 23.7282 40.3199 24.7132C40.3199 25.2013 40.4181 25.6847 40.6089 26.1357C40.7996 26.5866 41.0792 26.9963 41.4317 27.3414C41.7841 27.6865 42.2025 27.9601 42.6629 28.1467C43.1234 28.3333 43.6168 28.4292 44.1151 28.4288C45.1201 28.4276 46.0835 28.0355 46.7937 27.3388C47.5039 26.6421 47.9028 25.6978 47.9028 24.7132C47.9014 23.7294 47.5019 22.7863 46.7919 22.0907C46.0818 21.3951 45.1192 21.0038 44.1151 21.0025ZM19.9235 32.0153C17.8223 32.0153 16.1358 33.7068 16.1358 35.808C16.1358 37.8819 17.8248 39.5758 19.9235 39.6007C22.0248 39.6007 23.7187 37.9092 23.7187 35.808C23.7187 33.7068 22.0248 32.0153 19.9235 32.0153ZM29.0984 32.0923C28.1299 32.1825 27.235 32.648 26.605 33.3892C25.9751 34.1304 25.66 35.0886 25.7271 36.059C25.7943 37.0295 26.2383 37.9351 26.9643 38.5825C27.6904 39.23 28.6408 39.5677 29.6126 39.5237H44.6242C45.5915 39.4324 46.4849 38.967 47.1138 38.2265C47.7428 37.486 48.0577 36.5291 47.9913 35.5599C47.9249 34.5906 47.4824 33.6856 46.7583 33.0378C46.0342 32.3901 45.0857 32.0508 44.1151 32.0923H29.1009H29.0984ZM19.8515 42.7798C19.3524 42.7616 18.8548 42.8441 18.3884 43.0225C17.922 43.2009 17.4963 43.4715 17.1368 43.8181C16.7772 44.1647 16.4913 44.5802 16.296 45.0398C16.1007 45.4994 16 45.9936 16 46.493C16 46.9924 16.1007 47.4867 16.296 47.9463C16.4913 48.4059 16.7772 48.8214 17.1368 49.168C17.4963 49.5146 17.922 49.7852 18.3884 49.9635C18.8548 50.1419 19.3524 50.2245 19.8515 50.2062H34.5303C35.4916 50.171 36.4018 49.7644 37.0695 49.0719C37.7371 48.3794 38.1102 47.455 38.1102 46.493C38.1102 45.5311 37.7371 44.6066 37.0695 43.9141C36.4018 43.2216 35.4916 42.815 34.5303 42.7798H19.8515ZM44.1126 42.7798C43.1072 42.7792 42.1426 43.1697 41.431 43.8655C40.7193 44.5613 40.3188 45.5055 40.3174 46.4905C40.3174 46.9787 40.4156 47.4621 40.6064 47.913C40.7971 48.364 41.0767 48.7737 41.4292 49.1188C41.7816 49.4638 42.2 49.7375 42.6604 49.9241C43.1209 50.1106 43.6143 50.2065 44.1126 50.2062C45.1176 50.2049 46.081 49.8129 46.7912 49.1162C47.5014 48.4195 47.9003 47.4751 47.9003 46.4905C47.8989 45.5068 47.4994 44.5637 46.7894 43.8681C46.0794 43.1725 45.1167 42.7811 44.1126 42.7798Z" fill="#FB923C"/>
</g>
<defs>
<clipPath id="clip0_718_2559">
<rect width="64" height="64" fill="white"/>
</clipPath>
</defs>
</svg>
