<svg width="64" height="64" viewBox="0 0 64 64" fill="none" xmlns="http://www.w3.org/2000/svg">
<g clip-path="url(#clip0_715_3597)">
<path d="M53.0492 59.8275C55.6792 59.2433 57.9915 58.2169 59.8037 56.4047C61.6159 54.5925 62.6423 52.2802 63.2266 49.6502C63.8031 47.0567 63.9903 43.9679 63.9903 40.3959C63.9903 38.4558 63.9855 36.5155 63.9807 34.5752C63.9701 30.3266 63.9596 26.0776 63.9996 21.8298C64.0482 16.6336 59.9055 12.5985 54.7943 12.5985H38.6194C37.5495 12.5985 36.5506 12.0638 35.9571 11.1738L53.0492 59.8275ZM53.0492 59.8275C50.4557 60.4041 47.3669 60.5913 43.795 60.5913H20.1953C16.6233 60.5913 13.5345 60.4041 10.941 59.8275M53.0492 59.8275H10.941M60.9997 21.8017C61.0323 18.3172 58.2819 15.5985 54.7943 15.5985H38.6194C36.5463 15.5985 34.6109 14.5624 33.4612 12.8382L33.4609 12.8379L30.8614 8.93833C30.8613 8.93832 30.8613 8.9383 30.8613 8.93828C29.6375 7.10261 27.5772 6 25.371 6H20.1953C16.6923 6 13.863 6.18742 11.5919 6.69215M60.9997 21.8017L6.3078 9.30784M60.9997 21.8017C60.9596 26.0676 60.9702 30.3466 60.9807 34.6045C60.9855 36.5404 60.9903 38.472 60.9903 40.3959C60.9903 43.8989 60.8029 46.7281 60.2981 48.9992L60.298 48.9997C59.7929 51.2734 58.9669 52.9989 57.6824 54.2834C56.398 55.5678 54.6725 56.3938 52.3987 56.8989L52.3982 56.899C50.1271 57.4039 47.298 57.5913 43.795 57.5913H20.1953C16.6922 57.5913 13.8631 57.4039 11.5921 56.899L11.5916 56.8989C9.3179 56.3938 7.59223 55.5678 6.30782 54.2834C5.02346 52.999 4.19752 51.2735 3.69216 48.9994L0.766804 49.6495L3.69215 48.9994C3.18742 46.7282 3 43.8989 3 40.3959V23.1953C3 19.6923 3.18742 16.8631 3.69215 14.5919C4.19752 12.3179 5.02348 10.5922 6.3078 9.30784M60.9997 21.8017L6.3078 9.30784M11.5919 6.69215L10.941 3.7636M11.5919 6.69215L10.941 3.7636M11.5919 6.69215C9.31785 7.19752 7.59221 8.02348 6.30784 9.3078C6.30783 9.30781 6.30782 9.30783 6.3078 9.30784M10.941 3.7636C8.31119 4.34805 5.99871 5.37433 4.1865 7.1865C2.37433 8.99871 1.34805 11.3112 0.763596 13.941C0.187236 16.5345 0 19.6233 0 23.1953V40.3959C0 43.9679 0.187236 47.0567 0.763596 49.6502C1.34805 52.2802 2.37433 54.5925 4.1865 56.4047C5.99871 58.2169 8.31119 59.2433 10.941 59.8275M10.941 3.7636C13.5345 3.18724 16.6233 3 20.1953 3H25.371C28.5803 3 31.5773 4.60392 33.3575 7.27423L10.941 59.8275" stroke="#495057" stroke-width="6"/>
<g clip-path="url(#clip1_715_3597)">
<path d="M20.0039 51.489V43.9063C20.0132 43.509 20.2626 43.1716 20.6132 43.0343L20.6199 43.0316L30.5572 39.8836L20.6186 36.729C20.3772 36.637 20.1879 36.4556 20.0879 36.2263L20.0852 36.2196C20.0346 36.1343 20.0039 36.033 20.0039 35.9236C20.0039 35.917 20.0039 35.9103 20.0039 35.905V35.9063V28.2703C20.0039 28.2663 20.0039 28.261 20.0039 28.257C20.0039 28.1463 20.0346 28.0423 20.0892 27.9543L20.0879 27.957C20.1906 27.721 20.3799 27.5396 20.6146 27.4516L20.6212 27.449L44.0186 20.0303C44.0666 20.0116 44.1226 20.001 44.1799 20.001C44.4332 20.001 44.6372 20.2063 44.6372 20.4583C44.6372 20.4783 44.6359 20.497 44.6332 20.517V20.5143V28.0956C44.6226 28.493 44.3732 28.829 44.0239 28.9676L44.0172 28.9703L34.1839 32.0876L44.0212 35.2063C44.3786 35.3463 44.6279 35.6836 44.6372 36.081V36.0823V43.665V43.669C44.6372 43.717 44.6319 43.765 44.6226 43.8103L44.6239 43.8063C44.5666 44.1503 44.3346 44.429 44.0239 44.5503L44.0172 44.553L20.6186 51.9716C20.5679 51.989 20.5092 51.9996 20.4479 52.001C20.1999 51.9943 20.0012 51.7903 20.0012 51.541C20.0012 51.5223 20.0026 51.5036 20.0052 51.485V51.4876L20.0039 51.489Z" fill="#CED4DA"/>
</g>
</g>
<defs>
<clipPath id="clip0_715_3597">
<rect width="64" height="64" fill="white"/>
</clipPath>
<clipPath id="clip1_715_3597">
<rect width="32" height="32" fill="white" transform="translate(16 20)"/>
</clipPath>
</defs>
</svg>
