<svg width="64" height="64" viewBox="0 0 64 64" fill="none" xmlns="http://www.w3.org/2000/svg">
<g clip-path="url(#clip0_715_3405)">
<path d="M53.0492 59.8275C55.6792 59.2433 57.9915 58.2169 59.8037 56.4047C61.6159 54.5925 62.6423 52.2802 63.2266 49.6502C63.8031 47.0567 63.9903 43.9679 63.9903 40.3959C63.9903 38.4558 63.9855 36.5155 63.9807 34.5752C63.9701 30.3266 63.9596 26.0776 63.9996 21.8298C64.0482 16.6336 59.9055 12.5985 54.7943 12.5985H38.6194C37.5495 12.5985 36.5506 12.0638 35.9571 11.1738L53.0492 59.8275ZM53.0492 59.8275C50.4557 60.4041 47.3669 60.5913 43.795 60.5913H20.1953C16.6233 60.5913 13.5345 60.4041 10.941 59.8275M53.0492 59.8275H10.941M60.9997 21.8017C61.0323 18.3172 58.2819 15.5985 54.7943 15.5985H38.6194C36.5463 15.5985 34.6109 14.5624 33.4612 12.8382L33.4609 12.8379L30.8614 8.93833C30.8613 8.93832 30.8613 8.9383 30.8613 8.93828C29.6375 7.10261 27.5772 6 25.371 6H20.1953C16.6923 6 13.863 6.18742 11.5919 6.69215M60.9997 21.8017L6.3078 9.30784M60.9997 21.8017C60.9596 26.0676 60.9702 30.3466 60.9807 34.6045C60.9855 36.5404 60.9903 38.472 60.9903 40.3959C60.9903 43.8989 60.8029 46.7281 60.2981 48.9992L60.298 48.9997C59.7929 51.2734 58.9669 52.9989 57.6824 54.2834C56.398 55.5678 54.6725 56.3938 52.3987 56.8989L52.3982 56.899C50.1271 57.4039 47.298 57.5913 43.795 57.5913H20.1953C16.6922 57.5913 13.8631 57.4039 11.5921 56.899L11.5916 56.8989C9.3179 56.3938 7.59223 55.5678 6.30782 54.2834C5.02346 52.999 4.19752 51.2735 3.69216 48.9994L0.766804 49.6495L3.69215 48.9994C3.18742 46.7282 3 43.8989 3 40.3959V23.1953C3 19.6923 3.18742 16.8631 3.69215 14.5919C4.19752 12.3179 5.02348 10.5922 6.3078 9.30784M60.9997 21.8017L6.3078 9.30784M11.5919 6.69215L10.941 3.7636M11.5919 6.69215L10.941 3.7636M11.5919 6.69215C9.31785 7.19752 7.59221 8.02348 6.30784 9.3078C6.30783 9.30781 6.30782 9.30783 6.3078 9.30784M10.941 3.7636C8.31119 4.34805 5.99871 5.37433 4.1865 7.1865C2.37433 8.99871 1.34805 11.3112 0.763596 13.941C0.187236 16.5345 0 19.6233 0 23.1953V40.3959C0 43.9679 0.187236 47.0567 0.763596 49.6502C1.34805 52.2802 2.37433 54.5925 4.1865 56.4047C5.99871 58.2169 8.31119 59.2433 10.941 59.8275M10.941 3.7636C13.5345 3.18724 16.6233 3 20.1953 3H25.371C28.5803 3 31.5773 4.60392 33.3575 7.27423L10.941 59.8275" stroke="#495057" stroke-width="6"/>
<path d="M32.0915 51.9099C29.9755 51.928 27.8771 51.525 25.9184 50.7243C23.9597 49.9237 22.1798 48.7415 20.6823 47.2464C19.1849 45.7514 17.9997 43.9734 17.1959 42.016C16.3922 40.0586 15.9857 37.9608 16.0004 35.8449C16.015 33.7289 16.4504 31.637 17.2812 29.6909C18.112 27.7448 19.3216 25.9834 20.8396 24.5092C22.3576 23.035 24.1537 21.8775 26.1233 21.104C28.0929 20.3306 30.1967 19.9567 32.3122 20.004C36.5159 20.0742 40.5219 21.8008 43.4595 24.8086C46.3971 27.8163 48.0287 31.862 47.9996 36.0662C47.9705 40.2704 46.2831 44.2932 43.3042 47.26C40.3253 50.2268 36.2957 51.8979 32.0915 51.9099ZM29.5516 36.8947C29.6659 37.009 29.6659 37.009 29.7723 37.009C32.0915 38.8822 34.4095 40.6445 36.6178 42.5257C37.0688 42.9277 37.5485 43.2966 38.0529 43.6292C38.2118 43.7395 38.3962 43.8073 38.5887 43.826C38.7812 43.8448 38.9752 43.8139 39.1524 43.7364C39.3295 43.6589 39.4839 43.5373 39.6007 43.3832C39.7176 43.2291 39.793 43.0477 39.8198 42.8562C39.8363 42.5933 39.7973 42.3299 39.7054 42.0831L35.4078 31.816C34.7457 30.2699 34.0824 28.614 33.4203 27.069C33.3728 26.9128 33.2875 26.7707 33.172 26.6552C33.0565 26.5397 32.9144 26.4545 32.7582 26.4069C32.096 26.1862 31.6546 26.5213 31.323 27.18C29.0049 32.5902 26.7967 38.1103 24.4775 43.5206C24.4775 43.635 24.3631 43.7413 24.3631 43.8522H26.5714C26.7921 43.8522 26.7921 43.7379 26.903 43.6315C27.3445 42.6377 27.6761 41.5342 28.1175 40.5438C28.5284 39.3021 29.0071 38.0839 29.5516 36.8947Z" fill="#CED4DA"/>
<path d="M32.4231 29.7187C33.7485 33.1415 35.1837 36.4533 36.508 39.7662C36.1763 39.5455 35.8458 39.2139 35.5142 38.9932C33.8583 37.6677 32.1978 36.4533 30.5465 35.129C30.4321 35.0146 30.3258 35.0146 30.4321 34.7974C30.9879 33.1415 31.65 31.4855 32.4231 29.7187Z" fill="#CED4DA"/>
</g>
<defs>
<clipPath id="clip0_715_3405">
<rect width="64" height="64" fill="white"/>
</clipPath>
</defs>
</svg>
