<svg width="64" height="64" viewBox="0 0 64 64" fill="none" xmlns="http://www.w3.org/2000/svg">
<g clip-path="url(#clip0_712_2700)">
<path fill-rule="evenodd" clip-rule="evenodd" d="M10.941 3.7636C13.5345 3.18724 16.6233 3 20.1953 3H25.371C28.5803 3 31.5773 4.60392 33.3575 7.27423L35.9571 11.1738C36.5506 12.0638 37.5495 12.5985 38.6194 12.5985H54.7943C59.9055 12.5985 64.0482 16.6336 63.9996 21.8298C63.9413 28.0176 63.9903 34.2078 63.9903 40.3959C63.9903 43.9679 63.8031 47.0567 63.2266 49.6502C62.6423 52.2802 61.6159 54.5925 59.8037 56.4047C57.9915 58.2169 55.6792 59.2433 53.0492 59.8275C50.4557 60.4041 47.3669 60.5913 43.795 60.5913H20.1953C16.6233 60.5913 13.5345 60.4041 10.941 59.8275C8.31119 59.2433 5.99871 58.2169 4.1865 56.4047C2.37433 54.5925 1.34805 52.2802 0.763597 49.6502C0.187236 47.0567 0 43.9679 0 40.3959V23.1953C0 19.6233 0.187236 16.5345 0.763597 13.941C1.34805 11.3112 2.37433 8.99871 4.1865 7.1865C5.99871 5.37433 8.31119 4.34805 10.941 3.7636Z" fill="#6B21A8"/>
<path d="M27.4307 22.1163H21.6112C18.6047 22.1163 17.1163 23.6047 17.1163 26.6112V32.4456C17.1163 35.5116 18.6047 37 21.6112 36.9256H27.4456C30.5116 37 32 35.5116 31.9256 32.4307V26.6112C32 23.6047 30.5116 22.1163 27.4307 22.1163ZM27.5498 33.666C26.5377 33.666 25.5553 33.2791 24.7367 32.5944C23.814 33.2642 22.6977 33.666 21.4921 33.666C20.8819 33.666 20.3758 33.16 20.3758 32.5498C20.3758 31.9395 20.8819 31.4335 21.4921 31.4335C23.0102 31.4335 24.2753 30.3916 24.7367 28.9628H21.4921C20.8819 28.9628 20.3758 28.4567 20.3758 27.8465C20.3758 27.2363 20.8819 26.7302 21.4921 26.7302H23.4121C23.4716 26.1647 23.933 25.7181 24.5135 25.7181C25.094 25.7181 25.5553 26.1647 25.6149 26.7302H26.0019C26.0167 26.7302 26.0316 26.7302 26.0316 26.7302H27.5349C28.1451 26.7302 28.6512 27.2363 28.6512 27.8465C28.6512 28.4567 28.16 28.9628 27.5349 28.9628H27.0437C26.9098 29.6772 26.627 30.347 26.2549 30.9572C26.6567 31.2549 27.0884 31.4335 27.5498 31.4335C28.16 31.4335 28.666 31.9395 28.666 32.5498C28.666 33.16 28.16 33.666 27.5498 33.666Z" fill="#C084FC"/>
<path d="M27.5349 53C21.1795 53 16 47.8205 16 41.4651C16 40.8549 16.506 40.3488 17.1163 40.3488C17.7265 40.3488 18.2326 40.8549 18.2326 41.4651C18.2326 45.8707 21.2986 49.5619 25.4214 50.5293L25.0195 49.8595C24.707 49.3237 24.8707 48.6391 25.4065 48.3265C25.9274 48.014 26.627 48.1777 26.9395 48.7135L28.5023 51.3181C28.7107 51.6605 28.7107 52.0921 28.5172 52.4344C28.3088 52.7767 27.9367 53 27.5349 53Z" fill="#C084FC"/>
<path d="M46.8815 33.6512C46.2713 33.6512 45.7652 33.1451 45.7652 32.5349C45.7652 28.1293 42.6992 24.4381 38.5764 23.4707L38.9782 24.1405C39.2908 24.6763 39.1271 25.3609 38.5913 25.6735C38.0703 25.986 37.3708 25.8223 37.0582 25.2865L35.4954 22.6819C35.2871 22.3395 35.2871 21.9079 35.4806 21.5656C35.6889 21.2233 36.061 21 36.4629 21C42.8182 21 47.9978 26.1795 47.9978 32.5349C47.9978 33.1451 47.4917 33.6512 46.8815 33.6512Z" fill="#C084FC"/>
<path d="M39.3225 36.7791C35.155 36.7791 31.7616 40.1577 31.7616 44.3401C31.7616 48.5075 35.1402 51.901 39.3225 51.901C43.4899 51.901 46.8834 48.5224 46.8834 44.3401C46.8834 40.1577 43.5048 36.7791 39.3225 36.7791ZM43.0137 47.927C42.463 48.1949 41.7932 47.9866 41.5104 47.421L41.2574 46.9149H37.4025L37.1495 47.421C36.956 47.808 36.5541 48.0312 36.1523 48.0312C35.9885 48.0312 35.8099 47.9866 35.6611 47.9121C35.1104 47.6294 34.8871 46.9596 35.1551 46.4089L38.3402 40.0535C38.5337 39.6815 38.9206 39.4433 39.3374 39.4433C39.7541 39.4433 40.1411 39.6815 40.3346 40.0684L43.5197 46.4238C43.7876 46.9745 43.5644 47.6442 43.0137 47.927Z" fill="#C084FC"/>
<path d="M38.5174 44.6804H40.1398L39.3212 43.0581L38.5174 44.6804Z" fill="#C084FC"/>
</g>
<defs>
<clipPath id="clip0_712_2700">
<rect width="64" height="64" fill="white"/>
</clipPath>
</defs>
</svg>
