<svg width="64" height="64" viewBox="0 0 64 64" fill="none" xmlns="http://www.w3.org/2000/svg">
<g clip-path="url(#clip0_709_5067)">
<path fill-rule="evenodd" clip-rule="evenodd" d="M10.941 3.7636C13.5345 3.18724 16.6233 3 20.1953 3H25.371C28.5803 3 31.5773 4.60392 33.3575 7.27423L35.9571 11.1738C36.5506 12.0638 37.5495 12.5985 38.6194 12.5985H54.7943C59.9055 12.5985 64.0482 16.6336 63.9996 21.8298C63.9413 28.0176 63.9903 34.2078 63.9903 40.3959C63.9903 43.9679 63.8031 47.0567 63.2266 49.6502C62.6423 52.2802 61.6159 54.5925 59.8037 56.4047C57.9915 58.2169 55.6792 59.2433 53.0492 59.8275C50.4557 60.4041 47.3669 60.5913 43.795 60.5913H20.1953C16.6233 60.5913 13.5345 60.4041 10.941 59.8275C8.31119 59.2433 5.99871 58.2169 4.1865 56.4047C2.37433 54.5925 1.34805 52.2802 0.763597 49.6502C0.187236 47.0567 0 43.9679 0 40.3959V23.1953C0 19.6233 0.187236 16.5345 0.763597 13.941C1.34805 11.3112 2.37433 8.99871 4.1865 7.1865C5.99871 5.37433 8.31119 4.34805 10.941 3.7636Z" fill="#1E40AF"/>
<g clip-path="url(#clip1_709_5067)">
<path d="M41.8 23H22.2C19.8804 23 18 24.8804 18 27.2V46.8C18 49.1196 19.8804 51 22.2 51H41.8C44.1196 51 46 49.1196 46 46.8V27.2C46 24.8804 44.1196 23 41.8 23Z" fill="#60A5FA"/>
<path d="M30.7422 38.5311H34.2422V36.2889H24.4531V38.5311H27.9531V48.5389H30.7422V38.5311ZM35.3359 47.992C35.7789 48.2217 36.3203 48.3913 36.9219 48.5061C37.5234 48.621 38.1797 48.6756 38.8359 48.6756C39.4922 48.6756 40.0937 48.6155 40.6953 48.4897C41.2969 48.3639 41.7891 48.1561 42.2266 47.8881C42.6695 47.5983 43.0469 47.2319 43.2656 46.7397C43.4844 46.2475 43.6539 45.7006 43.6539 44.9897C43.6539 44.4921 43.5773 44.06 43.4297 43.6772C43.282 43.2944 43.0687 42.9663 42.7734 42.6928C42.4945 42.403 42.1719 42.146 41.7891 41.9272C41.4062 41.7085 40.9687 41.4788 40.4766 41.271C40.1156 41.1233 39.8203 40.9811 39.4922 40.8389C39.2078 40.6967 38.9617 40.5545 38.7812 40.4124C38.5789 40.2647 38.4258 40.1116 38.3164 39.953C38.207 39.7889 38.1523 39.6085 38.1523 39.4061C38.1523 39.2202 38.201 39.0506 38.3 38.8975C38.399 38.7444 38.5352 38.6186 38.7102 38.5092C38.8852 38.3999 39.1039 38.3178 39.3664 38.2577C39.6234 38.1975 39.9078 38.1702 40.2414 38.1702C40.4711 38.1702 40.7117 38.1871 40.9523 38.2216C41.2039 38.256 41.4609 38.3091 41.718 38.3802C41.975 38.4513 42.2266 38.5388 42.4836 38.6481C42.7242 38.7575 42.9484 38.8833 43.1398 39.0255V36.4552C42.7242 36.2966 42.2648 36.1763 41.7727 36.0997C41.2805 36.0231 40.7336 35.9849 40.0773 35.9849C39.4211 35.9849 38.8195 36.056 38.218 36.1927C37.6164 36.3294 37.1242 36.5481 36.6867 36.8489C36.2437 37.1442 35.9211 37.5052 35.6477 37.9974C35.3906 38.4567 35.2648 38.9817 35.2648 39.638C35.2648 40.4583 35.5 41.1692 35.9758 41.7161C36.4461 42.3177 37.1789 42.7552 38.1086 43.1927C38.4859 43.3458 38.8195 43.4989 39.1477 43.6466C39.4758 43.7942 39.7492 43.9474 39.968 44.106C40.2031 44.2646 40.3891 44.4396 40.5148 44.6255C40.6516 44.8114 40.7227 45.0302 40.7227 45.2817C40.7227 45.4567 40.68 45.6208 40.5969 45.7739C40.5137 45.9271 40.3836 46.0583 40.2086 46.1677C40.0336 46.2771 39.8203 46.3646 39.5523 46.4302C39.2953 46.4903 39.0055 46.5231 38.6227 46.5231C38.0211 46.5231 37.4195 46.4192 36.8727 46.2114C36.2711 46.0036 35.7242 45.6919 35.3359 45.3671V47.992Z" fill="#DEE2E6"/>
</g>
</g>
<defs>
<clipPath id="clip0_709_5067">
<rect width="64" height="64" fill="white"/>
</clipPath>
<clipPath id="clip1_709_5067">
<rect width="28" height="28" fill="white" transform="translate(18 23)"/>
</clipPath>
</defs>
</svg>
