<svg width="64" height="64" viewBox="0 0 64 64" fill="none" xmlns="http://www.w3.org/2000/svg">
<g clip-path="url(#clip0_709_4541)">
<path fill-rule="evenodd" clip-rule="evenodd" d="M10.941 3.7636C13.5345 3.18724 16.6233 3 20.1953 3H25.371C28.5803 3 31.5773 4.60392 33.3575 7.27423L35.9571 11.1738C36.5506 12.0638 37.5495 12.5985 38.6194 12.5985H54.7943C59.9055 12.5985 64.0482 16.6336 63.9996 21.8298C63.9413 28.0176 63.9903 34.2078 63.9903 40.3959C63.9903 43.9679 63.8031 47.0567 63.2266 49.6502C62.6423 52.2802 61.6159 54.5925 59.8037 56.4047C57.9915 58.2169 55.6792 59.2433 53.0492 59.8275C50.4557 60.4041 47.3669 60.5913 43.795 60.5913H20.1953C16.6233 60.5913 13.5345 60.4041 10.941 59.8275C8.31119 59.2433 5.99871 58.2169 4.1865 56.4047C2.37433 54.5925 1.34805 52.2802 0.763597 49.6502C0.187236 47.0567 0 43.9679 0 40.3959V23.1953C0 19.6233 0.187236 16.5345 0.763597 13.941C1.34805 11.3112 2.37433 8.99871 4.1865 7.1865C5.99871 5.37433 8.31119 4.34805 10.941 3.7636Z" fill="#B2230F"/>
<path d="M47.3929 34.5735L33.4212 20.6028C33.0477 20.2305 32.5324 20 31.9627 20C31.3929 20 30.8776 20.2305 30.5041 20.6028L27.6095 23.5028L31.2894 27.1827C31.5241 27.1006 31.7941 27.0536 32.0758 27.0536C33.4297 27.0536 34.5265 28.1504 34.5265 29.5044C34.5265 29.7914 34.4775 30.0656 34.3868 30.3217L34.3921 30.3046L37.9365 33.8512C38.1734 33.7669 38.4476 33.7178 38.7325 33.7178C40.0854 33.7178 41.1822 34.8146 41.1822 36.1675C41.1822 37.5204 40.0854 38.6172 38.7325 38.6172C37.3796 38.6172 36.2827 37.5204 36.2827 36.1675C36.2827 35.8336 36.35 35.5156 36.4705 35.2254L36.4641 35.2414L33.1459 31.9403V40.6402C33.9611 41.0509 34.5105 41.881 34.5105 42.8392C34.5105 44.1942 33.4116 45.2931 32.0565 45.2931C30.7015 45.2931 29.6026 44.1942 29.6026 42.8392C29.6026 42.1627 29.8757 41.5513 30.3185 41.1075C30.5436 40.8824 30.8114 40.6999 31.1091 40.5719L31.1251 40.5655V31.7802C30.2267 31.4025 29.6079 30.5287 29.6079 29.5119C29.6079 29.1704 29.6772 28.8461 29.8031 28.5505L29.7967 28.5666L26.1808 24.9336L16.5996 34.5084C16.2283 34.8829 16 35.3982 16 35.968C16 36.5377 16.2294 37.0531 16.6007 37.4276L30.5735 51.3961C30.9459 51.7695 31.4612 52 32.0309 52C32.6007 52 33.115 51.7695 33.4884 51.3961L47.395 37.4895C47.7685 37.1171 48 36.6007 48 36.032C48 35.4633 47.7685 34.9469 47.395 34.5746L47.3929 34.5735Z" fill="#F27968"/>
</g>
<defs>
<clipPath id="clip0_709_4541">
<rect width="64" height="64" fill="white"/>
</clipPath>
</defs>
</svg>
