<svg width="64" height="64" viewBox="0 0 64 64" fill="none" xmlns="http://www.w3.org/2000/svg">
<g clip-path="url(#clip0_712_2608)">
<path fill-rule="evenodd" clip-rule="evenodd" d="M10.941 3.7636C13.5345 3.18724 16.6233 3 20.1953 3H25.371C28.5803 3 31.5773 4.60392 33.3575 7.27423L35.9571 11.1738C36.5506 12.0638 37.5495 12.5985 38.6194 12.5985H54.7943C59.9055 12.5985 64.0482 16.6336 63.9996 21.8298C63.9413 28.0176 63.9903 34.2078 63.9903 40.3959C63.9903 43.9679 63.8031 47.0567 63.2266 49.6502C62.6423 52.2802 61.6159 54.5925 59.8037 56.4047C57.9915 58.2169 55.6792 59.2433 53.0492 59.8275C50.4557 60.4041 47.3669 60.5913 43.795 60.5913H20.1953C16.6233 60.5913 13.5345 60.4041 10.941 59.8275C8.31119 59.2433 5.99871 58.2169 4.1865 56.4047C2.37433 54.5925 1.34805 52.2802 0.763597 49.6502C0.187236 47.0567 0 43.9679 0 40.3959V23.1953C0 19.6233 0.187236 16.5345 0.763597 13.941C1.34805 11.3112 2.37433 8.99871 4.1865 7.1865C5.99871 5.37433 8.31119 4.34805 10.941 3.7636Z" fill="#1E40AF"/>
<g clip-path="url(#clip1_712_2608)">
<path d="M48 42.4V48.8C48 49.6487 47.6629 50.4626 47.0627 51.0627C46.4626 51.6629 45.6487 52 44.8 52H38.4V48.8C38.4 47.9513 38.0629 47.1374 37.4627 46.5373C36.8626 45.9371 36.0487 45.6 35.2 45.6C34.3513 45.6 33.5374 45.9371 32.9373 46.5373C32.3371 47.1374 32 47.9513 32 48.8V52H25.6C24.7513 52 23.9374 51.6629 23.3373 51.0627C22.7371 50.4626 22.4 49.6487 22.4 48.8V42.4H19.2C18.3513 42.4 17.5374 42.0629 16.9373 41.4627C16.3371 40.8626 16 40.0487 16 39.2C16 38.3513 16.3371 37.5374 16.9373 36.9373C17.5374 36.3371 18.3513 36 19.2 36H22.4V29.6C22.4 27.84 23.84 26.4 25.6 26.4H32V23.2C32 22.3513 32.3371 21.5374 32.9373 20.9373C33.5374 20.3371 34.3513 20 35.2 20C36.0487 20 36.8626 20.3371 37.4627 20.9373C38.0629 21.5374 38.4 22.3513 38.4 23.2V26.4H44.8C45.6487 26.4 46.4626 26.7371 47.0627 27.3373C47.6629 27.9374 48 28.7513 48 29.6V36H44.8C43.9513 36 43.1374 36.3371 42.5373 36.9373C41.9371 37.5374 41.6 38.3513 41.6 39.2C41.6 40.0487 41.9371 40.8626 42.5373 41.4627C43.1374 42.0629 43.9513 42.4 44.8 42.4H48Z" fill="#60A5FA"/>
</g>
</g>
<defs>
<clipPath id="clip0_712_2608">
<rect width="64" height="64" fill="white"/>
</clipPath>
<clipPath id="clip1_712_2608">
<rect width="32" height="32" fill="white" transform="translate(16 20)"/>
</clipPath>
</defs>
</svg>
