<svg width="64" height="64" viewBox="0 0 64 64" fill="none" xmlns="http://www.w3.org/2000/svg">
<g clip-path="url(#clip0_715_3454)">
<path fill-rule="evenodd" clip-rule="evenodd" d="M10.941 3.7636C13.5345 3.18724 16.6233 3 20.1953 3H25.371C28.5803 3 31.5773 4.60392 33.3575 7.27423L35.9571 11.1738C36.5506 12.0638 37.5495 12.5985 38.6194 12.5985H54.7943C59.9055 12.5985 64.0482 16.6336 63.9996 21.8298C63.9413 28.0176 63.9903 34.2078 63.9903 40.3959C63.9903 43.9679 63.8031 47.0567 63.2266 49.6502C62.6423 52.2802 61.6159 54.5925 59.8037 56.4047C57.9915 58.2169 55.6792 59.2433 53.0492 59.8275C50.4557 60.4041 47.3669 60.5913 43.795 60.5913H20.1953C16.6233 60.5913 13.5345 60.4041 10.941 59.8275C8.31119 59.2433 5.99871 58.2169 4.1865 56.4047C2.37433 54.5925 1.34805 52.2802 0.763597 49.6502C0.187236 47.0567 0 43.9679 0 40.3959V23.1953C0 19.6233 0.187236 16.5345 0.763597 13.941C1.34805 11.3112 2.37433 8.99871 4.1865 7.1865C5.99871 5.37433 8.31119 4.34805 10.941 3.7636Z" fill="#495057"/>
<g clip-path="url(#clip1_715_3454)">
<path d="M29.9044 43.7842C30.2621 45.1508 30.0076 46.5307 29.3163 47.6425C28.6999 48.8628 27.5876 49.8255 26.1609 50.1987C23.5214 50.8895 20.8215 49.31 20.1304 46.6705C19.7727 45.3036 20.0276 43.923 20.7193 42.8113C21.3358 41.5916 22.4479 40.6294 23.8739 40.2562C26.5134 39.5648 29.2134 41.1445 29.9044 43.7842ZM21.8957 36.8435C22.6904 35.9768 22.8656 34.5447 22.5911 33.726C22.1813 32.24 20.7555 31.2162 19.1676 31.3698C17.9998 31.4828 17.0409 32.2051 16.5673 33.1902C16.1731 33.7859 15.9722 34.5151 16.0465 35.2817C16.2189 37.0604 17.7973 38.362 19.575 38.1902C20.5453 38.0948 21.3714 37.5797 21.8957 36.8435ZM32.1461 20.5448C28.0484 21.0513 25.4093 22.93 24.1672 25.2573C21.6019 29.4302 23.7701 35.2913 30.3956 37.1711C39.0812 39.6377 32.19 45.1466 32.3914 48.8155C32.5936 52.4836 39.9421 53.8143 45.7372 44.1803C45.8484 43.9955 45.9529 43.8076 46.0548 43.6184C51.5555 34.142 44.6716 18.9952 32.1461 20.5448Z" fill="#CED4DA"/>
</g>
</g>
<defs>
<clipPath id="clip0_715_3454">
<rect width="64" height="64" fill="white"/>
</clipPath>
<clipPath id="clip1_715_3454">
<rect width="32" height="32" fill="white" transform="translate(16 20)"/>
</clipPath>
</defs>
</svg>
