<svg width="64" height="64" viewBox="0 0 64 64" fill="none" xmlns="http://www.w3.org/2000/svg">
<g clip-path="url(#clip0_709_4840)">
<mask id="path-1-inside-1_709_4840" fill="white">
<path fill-rule="evenodd" clip-rule="evenodd" d="M10.941 3.7636C13.5345 3.18724 16.6233 3 20.1953 3H25.371C28.5803 3 31.5773 4.60392 33.3575 7.27423L35.9571 11.1738C36.5506 12.0638 37.5495 12.5985 38.6194 12.5985H54.7943C59.9055 12.5985 64.0482 16.6336 63.9996 21.8298C63.9413 28.0176 63.9903 34.2078 63.9903 40.3959C63.9903 43.9679 63.8031 47.0567 63.2266 49.6502C62.6423 52.2802 61.6159 54.5925 59.8037 56.4047C57.9915 58.2169 55.6792 59.2433 53.0492 59.8275C50.4557 60.4041 47.3669 60.5913 43.795 60.5913H20.1953C16.6233 60.5913 13.5345 60.4041 10.941 59.8275C8.31119 59.2433 5.99871 58.2169 4.1865 56.4047C2.37433 54.5925 1.34805 52.2802 0.763596 49.6502C0.187236 47.0567 0 43.9679 0 40.3959V23.1953C0 19.6233 0.187236 16.5345 0.763596 13.941C1.34805 11.3112 2.37433 8.99871 4.1865 7.1865C5.99871 5.37433 8.31119 4.34805 10.941 3.7636Z"/>
</mask>
<path fill-rule="evenodd" clip-rule="evenodd" d="M10.941 3.7636C13.5345 3.18724 16.6233 3 20.1953 3H25.371C28.5803 3 31.5773 4.60392 33.3575 7.27423L35.9571 11.1738C36.5506 12.0638 37.5495 12.5985 38.6194 12.5985H54.7943C59.9055 12.5985 64.0482 16.6336 63.9996 21.8298C63.9413 28.0176 63.9903 34.2078 63.9903 40.3959C63.9903 43.9679 63.8031 47.0567 63.2266 49.6502C62.6423 52.2802 61.6159 54.5925 59.8037 56.4047C57.9915 58.2169 55.6792 59.2433 53.0492 59.8275C50.4557 60.4041 47.3669 60.5913 43.795 60.5913H20.1953C16.6233 60.5913 13.5345 60.4041 10.941 59.8275C8.31119 59.2433 5.99871 58.2169 4.1865 56.4047C2.37433 54.5925 1.34805 52.2802 0.763596 49.6502C0.187236 47.0567 0 43.9679 0 40.3959V23.1953C0 19.6233 0.187236 16.5345 0.763596 13.941C1.34805 11.3112 2.37433 8.99871 4.1865 7.1865C5.99871 5.37433 8.31119 4.34805 10.941 3.7636Z" stroke="#115E59" stroke-width="12" mask="url(#path-1-inside-1_709_4840)"/>
<g clip-path="url(#clip1_709_4840)">
<path fill-rule="evenodd" clip-rule="evenodd" d="M22.9858 22H41.0157C42.7487 22 43.3787 22.1805 44.0119 22.5196C44.645 22.8587 45.1428 23.3565 45.482 23.9897C45.8211 24.6228 46.0016 25.2513 46.0016 26.9858V38.6687L39.1707 32.3637C38.9229 32.135 38.6283 31.9627 38.3075 31.8588C37.9866 31.7548 37.6471 31.7217 37.3122 31.7616C36.9773 31.8015 36.655 31.9136 36.3676 32.09C36.0801 32.2665 35.8344 32.5031 35.6472 32.7837L30.778 40.0874L27.1954 37.7851C26.7178 37.4782 26.1446 37.356 25.5834 37.4414C25.0221 37.5267 24.5112 37.8137 24.1463 38.2487L18.0078 45.568C18.0027 45.3839 18.0001 45.1998 18 45.0157V26.9858C18 25.2513 18.1805 24.6228 18.5196 23.9897C18.8587 23.3565 19.3565 22.8587 19.9897 22.5196C20.6228 22.1805 21.2513 22 22.9858 22ZM37.7287 35.2696L46.0016 42.9032V45.0142C46.0016 46.7472 45.8211 47.3772 45.482 48.0103C45.1504 48.6367 44.6382 49.1489 44.0119 49.4804C43.3787 49.8195 42.7503 50 41.0157 50H22.9858C21.2513 50 20.6228 49.8195 19.9897 49.4804C19.716 49.3349 19.4624 49.1545 19.2352 48.9437L26.0893 40.7719L29.7389 43.1178C30.2538 43.4487 30.8781 43.564 31.4773 43.4389C32.0765 43.3138 32.6025 42.9582 32.9419 42.4489L37.7287 35.2696ZM25.7595 26.6669C24.0328 26.6669 22.6669 27.9612 22.6669 29.7595C22.6669 31.5594 24.0343 32.8895 25.7595 32.8895C27.5221 32.8895 28.8895 31.5594 28.8895 29.7595C28.8895 27.9612 27.5221 26.6669 25.7595 26.6669Z" fill="#14B8A6"/>
</g>
</g>
<defs>
<clipPath id="clip0_709_4840">
<rect width="64" height="64" fill="white"/>
</clipPath>
<clipPath id="clip1_709_4840">
<rect width="28" height="28" fill="white" transform="translate(18 22)"/>
</clipPath>
</defs>
</svg>
