<svg width="64" height="64" viewBox="0 0 64 64" fill="none" xmlns="http://www.w3.org/2000/svg">
<g clip-path="url(#clip0_715_3336)">
<path fill-rule="evenodd" clip-rule="evenodd" d="M10.941 3.7636C13.5345 3.18724 16.6233 3 20.1953 3H25.371C28.5803 3 31.5773 4.60392 33.3575 7.27423L35.9571 11.1738C36.5506 12.0638 37.5495 12.5985 38.6194 12.5985H54.7943C59.9055 12.5985 64.0482 16.6336 63.9996 21.8298C63.9413 28.0176 63.9903 34.2078 63.9903 40.3959C63.9903 43.9679 63.8031 47.0567 63.2266 49.6502C62.6423 52.2802 61.6159 54.5925 59.8037 56.4047C57.9915 58.2169 55.6792 59.2433 53.0492 59.8275C50.4557 60.4041 47.3669 60.5913 43.795 60.5913H20.1953C16.6233 60.5913 13.5345 60.4041 10.941 59.8275C8.31119 59.2433 5.99871 58.2169 4.1865 56.4047C2.37433 54.5925 1.34805 52.2802 0.763597 49.6502C0.187236 47.0567 0 43.9679 0 40.3959V23.1953C0 19.6233 0.187236 16.5345 0.763597 13.941C1.34805 11.3112 2.37433 8.99871 4.1865 7.1865C5.99871 5.37433 8.31119 4.34805 10.941 3.7636Z" fill="#854D0E"/>
<g clip-path="url(#clip1_715_3336)">
<path d="M22.6667 23H25.3333V25.6667H22.6667V32.3333C22.6667 33.0406 22.3857 33.7189 21.8856 34.219C21.3855 34.719 20.7072 35 20 35C20.7072 35 21.3855 35.281 21.8856 35.781C22.3857 36.2811 22.6667 36.9594 22.6667 37.6667V44.3333H25.3333V47H22.6667C21.24 46.64 20 45.8 20 44.3333V39C20 38.2928 19.719 37.6145 19.219 37.1144C18.7189 36.6143 18.0406 36.3333 17.3333 36.3333H16V33.6667H17.3333C18.0406 33.6667 18.7189 33.3857 19.219 32.8856C19.719 32.3855 20 31.7072 20 31V25.6667C20 24.9594 20.281 24.2811 20.781 23.781C21.2811 23.281 21.9594 23 22.6667 23ZM41.3333 23C42.0406 23 42.7189 23.281 43.219 23.781C43.719 24.2811 44 24.9594 44 25.6667V31C44 31.7072 44.281 32.3855 44.781 32.8856C45.2811 33.3857 45.9594 33.6667 46.6667 33.6667H48V36.3333H46.6667C45.9594 36.3333 45.2811 36.6143 44.781 37.1144C44.281 37.6145 44 38.2928 44 39V44.3333C44 45.0406 43.719 45.7189 43.219 46.219C42.7189 46.719 42.0406 47 41.3333 47H38.6667V44.3333H41.3333V37.6667C41.3333 36.9594 41.6143 36.2811 42.1144 35.781C42.6145 35.281 43.2928 35 44 35C43.2928 35 42.6145 34.719 42.1144 34.219C41.6143 33.7189 41.3333 33.0406 41.3333 32.3333V25.6667H38.6667V23H41.3333ZM32 39C32.2637 39 32.5215 39.0782 32.7408 39.2247C32.96 39.3712 33.1309 39.5795 33.2318 39.8231C33.3328 40.0667 33.3592 40.3348 33.3077 40.5935C33.2563 40.8521 33.1293 41.0897 32.9428 41.2761C32.7563 41.4626 32.5188 41.5896 32.2601 41.641C32.0015 41.6925 31.7334 41.6661 31.4898 41.5652C31.2461 41.4643 31.0379 41.2934 30.8914 41.0741C30.7449 40.8548 30.6667 40.597 30.6667 40.3333C30.6667 39.9797 30.8071 39.6406 31.0572 39.3905C31.3072 39.1405 31.6464 39 32 39ZM26.6667 39C26.9304 39 27.1882 39.0782 27.4074 39.2247C27.6267 39.3712 27.7976 39.5795 27.8985 39.8231C27.9994 40.0667 28.0258 40.3348 27.9744 40.5935C27.9229 40.8521 27.7959 41.0897 27.6095 41.2761C27.423 41.4626 27.1854 41.5896 26.9268 41.641C26.6681 41.6925 26.4001 41.6661 26.1564 41.5652C25.9128 41.4643 25.7045 41.2934 25.558 41.0741C25.4115 40.8548 25.3333 40.597 25.3333 40.3333C25.3333 39.9797 25.4738 39.6406 25.7239 39.3905C25.9739 39.1405 26.313 39 26.6667 39ZM37.3333 39C37.597 39 37.8548 39.0782 38.0741 39.2247C38.2934 39.3712 38.4643 39.5795 38.5652 39.8231C38.6661 40.0667 38.6925 40.3348 38.641 40.5935C38.5896 40.8521 38.4626 41.0897 38.2761 41.2761C38.0897 41.4626 37.8521 41.5896 37.5935 41.641C37.3348 41.6925 37.0667 41.6661 36.8231 41.5652C36.5795 41.4643 36.3712 41.2934 36.2247 41.0741C36.0782 40.8548 36 40.597 36 40.3333C36 39.9797 36.1405 39.6406 36.3905 39.3905C36.6406 39.1405 36.9797 39 37.3333 39Z" fill="#FACC15"/>
</g>
</g>
<defs>
<clipPath id="clip0_715_3336">
<rect width="64" height="64" fill="white"/>
</clipPath>
<clipPath id="clip1_715_3336">
<rect width="32" height="32" fill="white" transform="translate(16 19)"/>
</clipPath>
</defs>
</svg>
