<svg width="64" height="64" viewBox="0 0 64 64" fill="none" xmlns="http://www.w3.org/2000/svg">
<g clip-path="url(#clip0_712_2482)">
<path fill-rule="evenodd" clip-rule="evenodd" d="M10.941 3.7636C13.5345 3.18724 16.6233 3 20.1953 3H25.371C28.5803 3 31.5773 4.60392 33.3575 7.27423L35.9571 11.1738C36.5506 12.0638 37.5495 12.5985 38.6194 12.5985H54.7943C59.9055 12.5985 64.0482 16.6336 63.9996 21.8298C63.9413 28.0176 63.9903 34.2078 63.9903 40.3959C63.9903 43.9679 63.8031 47.0567 63.2266 49.6502C62.6423 52.2802 61.6159 54.5925 59.8037 56.4047C57.9915 58.2169 55.6792 59.2433 53.0492 59.8275C50.4557 60.4041 47.3669 60.5913 43.795 60.5913H20.1953C16.6233 60.5913 13.5345 60.4041 10.941 59.8275C8.31119 59.2433 5.99871 58.2169 4.1865 56.4047C2.37433 54.5925 1.34805 52.2802 0.763597 49.6502C0.187236 47.0567 0 43.9679 0 40.3959V23.1953C0 19.6233 0.187236 16.5345 0.763597 13.941C1.34805 11.3112 2.37433 8.99871 4.1865 7.1865C5.99871 5.37433 8.31119 4.34805 10.941 3.7636Z" fill="#495057"/>
<path d="M42.1592 23.3661L34.1702 20.3722C32.8413 19.8759 30.664 19.8759 29.3352 20.3722L21.3461 23.3661C19.5049 24.0545 18 26.2319 18 28.1851V40.0805C18 41.9697 19.2488 44.4513 20.7697 45.588L27.654 50.7272C29.9115 52.4243 33.6258 52.4243 35.8832 50.7272L42.7676 45.588C44.2885 44.4513 45.5373 41.9697 45.5373 40.0805V28.1851C45.5053 26.2319 44.0003 24.0545 42.1592 23.3661ZM31.6406 28.041C33.5298 28.041 35.0667 29.578 35.0667 31.4672C35.0667 33.3243 33.6098 34.8133 31.7687 34.8773H31.7046C31.6726 34.8773 31.6406 34.8773 31.6086 34.8773C29.6874 34.8133 28.2464 33.3243 28.2464 31.4672C28.2304 29.578 29.7674 28.041 31.6406 28.041ZM35.2589 42.9784C34.2822 43.6188 33.0175 43.955 31.7527 43.955C30.4879 43.955 29.2071 43.6348 28.2464 42.9784C27.3338 42.37 26.8375 41.5375 26.8215 40.6249C26.8215 39.7283 27.3338 38.8638 28.2464 38.2554C30.1837 36.9746 33.3377 36.9746 35.2749 38.2554C36.1874 38.8638 36.6998 39.6963 36.6998 40.6089C36.6838 41.5054 36.1714 42.37 35.2589 42.9784Z" fill="#CED4DA"/>
</g>
<defs>
<clipPath id="clip0_712_2482">
<rect width="64" height="64" fill="white"/>
</clipPath>
</defs>
</svg>
