<svg width="64" height="64" viewBox="0 0 64 64" fill="none" xmlns="http://www.w3.org/2000/svg">
<g clip-path="url(#clip0_712_2493)">
<mask id="path-1-inside-1_712_2493" fill="white">
<path fill-rule="evenodd" clip-rule="evenodd" d="M10.9412 3.7636C13.5346 3.18724 16.6234 3 20.1955 3H25.3711C28.5804 3 31.5774 4.60392 33.3576 7.27423L35.9572 11.1738C36.5507 12.0638 37.5496 12.5985 38.6195 12.5985H54.7944C59.9056 12.5985 64.0483 16.6336 63.9997 21.8298C63.9415 28.0176 63.9904 34.2078 63.9904 40.3959C63.9904 43.9679 63.8032 47.0567 63.2267 49.6502C62.6425 52.2802 61.6161 54.5925 59.8039 56.4047C57.9917 58.2169 55.6794 59.2433 53.0494 59.8275C50.4558 60.4041 47.367 60.5913 43.7951 60.5913H20.1955C16.6234 60.5913 13.5346 60.4041 10.9412 59.8275C8.31131 59.2433 5.99883 58.2169 4.18662 56.4047C2.37445 54.5925 1.34817 52.2802 0.763719 49.6502C0.187358 47.0567 0.00012207 43.9679 0.00012207 40.3959V23.1953C0.00012207 19.6233 0.187358 16.5345 0.763719 13.941C1.34817 11.3112 2.37445 8.99871 4.18662 7.1865C5.99883 5.37433 8.31131 4.34805 10.9412 3.7636Z"/>
</mask>
<path fill-rule="evenodd" clip-rule="evenodd" d="M10.9412 3.7636C13.5346 3.18724 16.6234 3 20.1955 3H25.3711C28.5804 3 31.5774 4.60392 33.3576 7.27423L35.9572 11.1738C36.5507 12.0638 37.5496 12.5985 38.6195 12.5985H54.7944C59.9056 12.5985 64.0483 16.6336 63.9997 21.8298C63.9415 28.0176 63.9904 34.2078 63.9904 40.3959C63.9904 43.9679 63.8032 47.0567 63.2267 49.6502C62.6425 52.2802 61.6161 54.5925 59.8039 56.4047C57.9917 58.2169 55.6794 59.2433 53.0494 59.8275C50.4558 60.4041 47.367 60.5913 43.7951 60.5913H20.1955C16.6234 60.5913 13.5346 60.4041 10.9412 59.8275C8.31131 59.2433 5.99883 58.2169 4.18662 56.4047C2.37445 54.5925 1.34817 52.2802 0.763719 49.6502C0.187358 47.0567 0.00012207 43.9679 0.00012207 40.3959V23.1953C0.00012207 19.6233 0.187358 16.5345 0.763719 13.941C1.34817 11.3112 2.37445 8.99871 4.18662 7.1865C5.99883 5.37433 8.31131 4.34805 10.9412 3.7636Z" stroke="#9A3412" stroke-width="12" mask="url(#path-1-inside-1_712_2493)"/>
<path d="M47.1515 29.0663L32.3802 22.0484C32.1439 21.937 31.8703 21.937 31.6347 22.0484L16.8658 29.0663C16.5631 29.2098 16.37 29.5153 16.37 29.8512C16.37 30.1856 16.5631 30.4908 16.8658 30.635L31.6347 37.6518C31.7525 37.7074 31.8798 37.7358 32.0071 37.7358C32.1347 37.7358 32.2624 37.7074 32.3802 37.6518L47.1515 30.635C47.4543 30.4908 47.6474 30.1856 47.6474 29.8512C47.6474 29.5153 47.4543 29.2098 47.1515 29.0663Z" fill="#FB923C"/>
<path d="M32.0074 43.9419C31.8376 43.9419 31.6681 43.905 31.5102 43.8305L16.7417 36.8133C16.1639 36.5387 15.9184 35.8484 16.1924 35.271C16.4667 34.6936 17.1566 34.4478 17.7354 34.7217L32.0067 41.5025L46.2819 34.7217C46.8582 34.4474 47.5499 34.6925 47.8242 35.271C48.0985 35.8487 47.8534 36.5387 47.2749 36.8133L32.5043 43.8305C32.3471 43.9046 32.1773 43.9419 32.0074 43.9419Z" fill="#FB923C"/>
<path d="M32.0074 49.8586C31.8376 49.8586 31.6681 49.8217 31.5102 49.7472L16.7417 42.7304C16.1639 42.4561 15.9184 41.7648 16.1924 41.187C16.4667 40.6085 17.1566 40.3634 17.7354 40.6377L32.0067 47.4182L46.2822 40.6377C46.8596 40.3634 47.5503 40.6085 47.8246 41.187C48.0988 41.7648 47.8537 42.4557 47.276 42.7304L32.5043 49.7472C32.3471 49.8217 32.1773 49.8586 32.0074 49.8586Z" fill="#FB923C"/>
</g>
<defs>
<clipPath id="clip0_712_2493">
<rect width="64" height="64" fill="white"/>
</clipPath>
</defs>
</svg>
