<svg width="64" height="64" viewBox="0 0 64 64" fill="none" xmlns="http://www.w3.org/2000/svg">
<g clip-path="url(#clip0_715_3743)">
<path fill-rule="evenodd" clip-rule="evenodd" d="M10.941 3.7636C13.5345 3.18724 16.6233 3 20.1953 3H25.371C28.5803 3 31.5773 4.60392 33.3575 7.27423L35.9571 11.1738C36.5506 12.0638 37.5495 12.5985 38.6194 12.5985H54.7943C59.9055 12.5985 64.0482 16.6336 63.9996 21.8298C63.9413 28.0176 63.9903 34.2078 63.9903 40.3959C63.9903 43.9679 63.8031 47.0567 63.2266 49.6502C62.6423 52.2802 61.6159 54.5925 59.8037 56.4047C57.9915 58.2169 55.6792 59.2433 53.0492 59.8275C50.4557 60.4041 47.3669 60.5913 43.795 60.5913H20.1953C16.6233 60.5913 13.5345 60.4041 10.941 59.8275C8.31119 59.2433 5.99871 58.2169 4.1865 56.4047C2.37433 54.5925 1.34805 52.2802 0.763597 49.6502C0.187236 47.0567 0 43.9679 0 40.3959V23.1953C0 19.6233 0.187236 16.5345 0.763597 13.941C1.34805 11.3112 2.37433 8.99871 4.1865 7.1865C5.99871 5.37433 8.31119 4.34805 10.941 3.7636Z" fill="#1E40AF"/>
<path d="M34.0025 22.4312C34.1734 21.9612 33.9948 21.4356 33.573 21.167C33.1512 20.8984 32.5994 20.9588 32.2458 21.3124L23.7124 29.8458C23.6165 29.9417 23.5397 30.0551 23.4863 30.1798L17.0862 45.1133C16.945 45.4427 16.9788 45.8211 17.1762 46.1206C17.3736 46.4199 17.7081 46.6 18.0667 46.6H24.4667C24.9152 46.6 25.3158 46.3195 25.4691 45.8979L34.0025 22.4312Z" fill="#60A5FA"/>
<path d="M38.2377 25.8919C38.0609 25.503 37.6691 25.2571 37.242 25.2669C36.8149 25.2767 36.4349 25.5405 36.2762 25.9371L32.0096 36.6038C31.8713 36.9494 31.9233 37.3421 32.1466 37.6399L37.6587 44.9893L26.2627 48.7881C25.7663 48.9534 25.4633 49.4543 25.5471 49.9708C25.6309 50.4873 26.0768 50.8666 26.6 50.8666H47.9333C48.296 50.8666 48.6339 50.6823 48.8301 50.3774C49.0264 50.0726 49.0544 49.6888 48.9044 49.3585L38.2377 25.8919Z" fill="#60A5FA"/>
</g>
<defs>
<clipPath id="clip0_715_3743">
<rect width="64" height="64" fill="white"/>
</clipPath>
</defs>
</svg>
