<svg width="63" height="63" viewBox="0 0 63 63" fill="none" xmlns="http://www.w3.org/2000/svg">
<g clip-path="url(#clip0_715_2859)">
<mask id="path-1-inside-1_715_2859" fill="white">
<path fill-rule="evenodd" clip-rule="evenodd" d="M10.7701 3.70479C13.323 3.13744 16.3636 2.95312 19.8798 2.95312H24.9746C28.1337 2.95312 31.0839 4.53198 32.8363 7.16057L35.3953 10.9992C35.9795 11.8753 36.9628 12.4017 38.016 12.4017H53.9381C58.9695 12.4017 63.0475 16.3737 62.9996 21.4887C62.9423 27.5799 62.9905 33.6733 62.9905 39.7647C62.9905 43.2809 62.8062 46.3214 62.2387 48.8744C61.6636 51.4633 60.6532 53.7395 58.8693 55.5234C57.0854 57.3073 54.8093 58.3176 52.2203 58.8927C49.6673 59.4603 46.6268 59.6445 43.1107 59.6445H19.8798C16.3636 59.6445 13.323 59.4603 10.7701 58.8927C8.18133 58.3176 5.90498 57.3073 4.12109 55.5234C2.33723 53.7395 1.32699 51.4633 0.751665 48.8744C0.18431 46.3214 0 43.2809 0 39.7647V22.8329C0 19.3167 0.18431 16.2762 0.751665 13.7232C1.32699 11.1345 2.33723 8.8581 4.12109 7.07421C5.90498 5.29035 8.18133 4.28011 10.7701 3.70479Z"/>
</mask>
<path fill-rule="evenodd" clip-rule="evenodd" d="M10.7701 3.70479C13.323 3.13744 16.3636 2.95312 19.8798 2.95312H24.9746C28.1337 2.95312 31.0839 4.53198 32.8363 7.16057L35.3953 10.9992C35.9795 11.8753 36.9628 12.4017 38.016 12.4017H53.9381C58.9695 12.4017 63.0475 16.3737 62.9996 21.4887C62.9423 27.5799 62.9905 33.6733 62.9905 39.7647C62.9905 43.2809 62.8062 46.3214 62.2387 48.8744C61.6636 51.4633 60.6532 53.7395 58.8693 55.5234C57.0854 57.3073 54.8093 58.3176 52.2203 58.8927C49.6673 59.4603 46.6268 59.6445 43.1107 59.6445H19.8798C16.3636 59.6445 13.323 59.4603 10.7701 58.8927C8.18133 58.3176 5.90498 57.3073 4.12109 55.5234C2.33723 53.7395 1.32699 51.4633 0.751665 48.8744C0.18431 46.3214 0 43.2809 0 39.7647V22.8329C0 19.3167 0.18431 16.2762 0.751665 13.7232C1.32699 11.1345 2.33723 8.8581 4.12109 7.07421C5.90498 5.29035 8.18133 4.28011 10.7701 3.70479Z" stroke="#854D0E" stroke-width="12" mask="url(#path-1-inside-1_715_2859)"/>
<path d="M23.96 26.3467H35.5867C36.1733 26.3467 36.6533 25.8667 36.6533 25.28V23.1467C36.6533 21.3867 35.2133 20 33.5067 20H26.0933C24.3333 20 22.9467 21.44 22.9467 23.1467V25.28C22.8933 25.8667 23.3733 26.3467 23.96 26.3467Z" fill="#FACC15"/>
<path d="M41.4 22.6133H40.3333C40.0133 22.6133 39.8 22.8267 39.8 23.1467V25.28C39.8 27.6267 37.88 29.4933 35.5867 29.4933H23.96C21.6133 29.4933 19.7467 27.5733 19.7467 25.28V23.1467C19.7467 22.8267 19.5333 22.6133 19.2133 22.6133H18.1467C16.3867 22.6133 15 24.0533 15 25.76V47.4133C15 49.1733 16.44 50.56 18.1467 50.56H28.8133C30.3067 50.56 30.4667 49.3333 30.4667 48.9067V37.4933C30.4667 36.2667 31.16 36 31.5333 36H43.0533C44.3333 36 44.5467 34.88 44.5467 34.5067V25.8667C44.6 24.0533 43.16 22.6133 41.4 22.6133Z" fill="#FACC15"/>
<path d="M45.88 41.5467H34.2533C33.9333 41.5467 33.6667 41.28 33.6667 40.96V39.7867C33.6667 39.4667 33.9333 39.2 34.2533 39.2H45.88C46.2 39.2 46.4667 39.4667 46.4667 39.7867V40.96C46.4667 41.28 46.2 41.5467 45.88 41.5467ZM45.88 46.7733H34.2533C33.9333 46.7733 33.6667 46.5067 33.6667 46.1867V45.0133C33.6667 44.6933 33.9333 44.4267 34.2533 44.4267H45.88C46.2 44.4267 46.4667 44.6933 46.4667 45.0133V46.1867C46.4667 46.5067 46.2 46.7733 45.88 46.7733ZM45.88 52H34.2533C33.9333 52 33.6667 51.7333 33.6667 51.4133V50.24C33.6667 49.92 33.9333 49.6533 34.2533 49.6533H45.88C46.2 49.6533 46.4667 49.92 46.4667 50.24V51.4133C46.4667 51.7333 46.2 52 45.88 52Z" fill="#FACC15"/>
</g>
<defs>
<clipPath id="clip0_715_2859">
<rect width="63" height="63" fill="white"/>
</clipPath>
</defs>
</svg>
