<svg width="63" height="63" viewBox="0 0 63 63" fill="none" xmlns="http://www.w3.org/2000/svg">
<g clip-path="url(#clip0_715_2753)">
<path fill-rule="evenodd" clip-rule="evenodd" d="M10.7701 3.70479C13.323 3.13744 16.3636 2.95312 19.8798 2.95312H24.9746C28.1337 2.95312 31.0839 4.53198 32.8363 7.16057L35.3953 10.9992C35.9795 11.8753 36.9628 12.4017 38.016 12.4017H53.9381C58.9695 12.4017 63.0475 16.3737 62.9996 21.4887C62.9423 27.5799 62.9905 33.6733 62.9905 39.7647C62.9905 43.2809 62.8062 46.3214 62.2387 48.8744C61.6636 51.4633 60.6532 53.7395 58.8693 55.5234C57.0854 57.3073 54.8093 58.3176 52.2203 58.8927C49.6673 59.4603 46.6268 59.6445 43.1107 59.6445H19.8798C16.3636 59.6445 13.323 59.4603 10.7701 58.8927C8.18133 58.3176 5.90498 57.3073 4.12109 55.5234C2.33723 53.7395 1.32699 51.4633 0.751665 48.8744C0.18431 46.3214 0 43.2809 0 39.7647V22.8329C0 19.3167 0.18431 16.2762 0.751665 13.7232C1.32699 11.1345 2.33723 8.8581 4.12109 7.07421C5.90498 5.29035 8.18133 4.28011 10.7701 3.70479Z" fill="#6B21A8"/>
<g clip-path="url(#clip1_715_2753)">
<path d="M48.3956 24.2373C46.405 24.2373 44.7912 25.8511 44.7912 27.8417C44.7912 28.3411 44.8928 28.8168 45.0765 29.2492L37.5261 36.7997C37.0936 36.6161 36.6179 36.5143 36.1185 36.5143C35.619 36.5143 35.1433 36.6161 34.7109 36.7997L30.2006 32.2894C30.3842 31.857 30.4859 31.3813 30.4859 30.8818C30.4859 28.8912 28.8721 27.2774 26.8815 27.2774C24.8909 27.2774 23.2771 28.8912 23.2771 30.8818C23.2771 31.3812 23.3787 31.8569 23.5624 32.2893L16.0119 39.8397C15.5794 39.6561 15.1038 39.5544 14.6043 39.5544C12.6137 39.5544 10.9999 41.1681 10.9999 43.1588C10.9999 45.1494 12.6137 46.7632 14.6043 46.7632C16.5949 46.7632 18.2087 45.1494 18.2087 43.1588C18.2087 42.6594 18.107 42.1837 17.9234 41.7512L25.4739 34.2008C25.9063 34.3845 26.382 34.4861 26.8815 34.4861C27.3809 34.4861 27.8566 34.3845 28.289 34.2008L32.7994 38.7112C32.6157 39.1436 32.5141 39.6193 32.5141 40.1187C32.5141 42.1093 34.1278 43.7231 36.1185 43.7231C38.1091 43.7231 39.7229 42.1093 39.7229 40.1187C39.7229 39.6193 39.6212 39.1436 39.4376 38.7112L46.988 31.1607C47.4204 31.3444 47.8961 31.446 48.3956 31.446C50.3862 31.446 52 29.8322 52 27.8416C52 25.851 50.3862 24.2373 48.3956 24.2373Z" fill="#C084FC"/>
</g>
</g>
<defs>
<clipPath id="clip0_715_2753">
<rect width="63" height="63" fill="white"/>
</clipPath>
<clipPath id="clip1_715_2753">
<rect width="41" height="41" fill="white" transform="translate(11 15)"/>
</clipPath>
</defs>
</svg>
