<svg width="64" height="64" viewBox="0 0 64 64" fill="none" xmlns="http://www.w3.org/2000/svg">
<g clip-path="url(#clip0_710_2535)">
<mask id="path-1-inside-1_710_2535" fill="white">
<path fill-rule="evenodd" clip-rule="evenodd" d="M10.941 3.7636C13.5345 3.18724 16.6233 3 20.1953 3H25.371C28.5803 3 31.5773 4.60392 33.3575 7.27423L35.9571 11.1738C36.5506 12.0638 37.5495 12.5985 38.6194 12.5985H54.7943C59.9055 12.5985 64.0482 16.6336 63.9996 21.8298C63.9413 28.0176 63.9903 34.2078 63.9903 40.3959C63.9903 43.9679 63.8031 47.0567 63.2266 49.6502C62.6423 52.2802 61.6159 54.5925 59.8037 56.4047C57.9915 58.2169 55.6792 59.2433 53.0492 59.8275C50.4557 60.4041 47.3669 60.5913 43.795 60.5913H20.1953C16.6233 60.5913 13.5345 60.4041 10.941 59.8275C8.31119 59.2433 5.99871 58.2169 4.1865 56.4047C2.37433 54.5925 1.34805 52.2802 0.763596 49.6502C0.187236 47.0567 0 43.9679 0 40.3959V23.1953C0 19.6233 0.187236 16.5345 0.763596 13.941C1.34805 11.3112 2.37433 8.99871 4.1865 7.1865C5.99871 5.37433 8.31119 4.34805 10.941 3.7636Z"/>
</mask>
<path fill-rule="evenodd" clip-rule="evenodd" d="M10.941 3.7636C13.5345 3.18724 16.6233 3 20.1953 3H25.371C28.5803 3 31.5773 4.60392 33.3575 7.27423L35.9571 11.1738C36.5506 12.0638 37.5495 12.5985 38.6194 12.5985H54.7943C59.9055 12.5985 64.0482 16.6336 63.9996 21.8298C63.9413 28.0176 63.9903 34.2078 63.9903 40.3959C63.9903 43.9679 63.8031 47.0567 63.2266 49.6502C62.6423 52.2802 61.6159 54.5925 59.8037 56.4047C57.9915 58.2169 55.6792 59.2433 53.0492 59.8275C50.4557 60.4041 47.3669 60.5913 43.795 60.5913H20.1953C16.6233 60.5913 13.5345 60.4041 10.941 59.8275C8.31119 59.2433 5.99871 58.2169 4.1865 56.4047C2.37433 54.5925 1.34805 52.2802 0.763596 49.6502C0.187236 47.0567 0 43.9679 0 40.3959V23.1953C0 19.6233 0.187236 16.5345 0.763596 13.941C1.34805 11.3112 2.37433 8.99871 4.1865 7.1865C5.99871 5.37433 8.31119 4.34805 10.941 3.7636Z" stroke="#581C87" stroke-width="9" mask="url(#path-1-inside-1_710_2535)"/>
<g clip-path="url(#clip1_710_2535)">
<path d="M31.5 18C21.2818 18 13 26.2834 13 36.5C13 46.7182 21.2818 55 31.5 55C41.7166 55 50 46.7182 50 36.5C50.0007 34.7563 49.7553 33.0213 49.2708 31.3462C49.18 31.1256 49.0075 30.9487 48.7893 30.8523C48.5711 30.7559 48.3241 30.7475 48.0999 30.8289C47.8757 30.9102 47.6915 31.0751 47.586 31.289C47.4804 31.5029 47.4615 31.7493 47.5333 31.9768H47.5303C47.9388 33.4306 48.15 34.9491 48.15 36.5C48.156 38.6874 47.7281 40.8543 46.8911 42.8753C46.0541 44.8962 44.8246 46.7311 43.2737 48.2737C41.7312 49.8247 39.8963 51.0542 37.8753 51.8912C35.8544 52.7283 33.6874 53.1561 31.5 53.15C29.3126 53.156 27.1457 52.7281 25.1247 51.8911C23.1038 51.0541 21.2689 49.8246 19.7263 48.2737C18.1753 46.7312 16.9457 44.8964 16.1086 42.8754C15.2716 40.8544 14.8438 38.6875 14.85 36.5C14.844 34.3126 15.2719 32.1457 16.1089 30.1247C16.9459 28.1038 18.1754 26.2689 19.7263 24.7263C21.2688 23.1753 23.1037 21.9457 25.1246 21.1087C27.1456 20.2716 29.3126 19.8438 31.5 19.85C35.4713 19.85 39.2284 21.2313 42.2269 23.7658C42.0374 24.2469 42.0185 24.7783 42.1735 25.2716C42.3284 25.7648 42.6477 26.19 43.0782 26.4763C43.5087 26.7626 44.0244 26.8926 44.5392 26.8447C45.054 26.7968 45.5367 26.5738 45.907 26.213C46.2773 25.8521 46.5127 25.3753 46.5739 24.8619C46.6351 24.3485 46.5184 23.8297 46.2434 23.3919C45.9683 22.9542 45.5515 22.6239 45.0624 22.4563C44.5734 22.2887 44.0416 22.2938 43.5558 22.4708C40.2044 19.5814 35.9251 17.9945 31.5 18ZM29.28 27.065L22.805 43.8723H26.8596L27.9187 41.0233H34.0376L32.9291 37.8752H28.9008L31.5216 30.6432L36.1836 43.8707H40.2397L33.7663 27.065H29.28Z" fill="#C084FC"/>
</g>
</g>
<defs>
<clipPath id="clip0_710_2535">
<rect width="64" height="64" fill="white"/>
</clipPath>
<clipPath id="clip1_710_2535">
<rect width="37" height="37" fill="white" transform="translate(13 18)"/>
</clipPath>
</defs>
</svg>
