<svg width="64" height="64" viewBox="0 0 64 64" fill="none" xmlns="http://www.w3.org/2000/svg">
<g clip-path="url(#clip0_711_2696)">
<path fill-rule="evenodd" clip-rule="evenodd" d="M10.941 3.7636C13.5345 3.18724 16.6233 3 20.1953 3H25.371C28.5803 3 31.5773 4.60392 33.3575 7.27423L35.9571 11.1738C36.5506 12.0638 37.5495 12.5985 38.6194 12.5985H54.7943C59.9055 12.5985 64.0482 16.6336 63.9996 21.8298C63.9413 28.0176 63.9903 34.2078 63.9903 40.3959C63.9903 43.9679 63.8031 47.0567 63.2266 49.6502C62.6423 52.2802 61.6159 54.5925 59.8037 56.4047C57.9915 58.2169 55.6792 59.2433 53.0492 59.8275C50.4557 60.4041 47.3669 60.5913 43.795 60.5913H20.1953C16.6233 60.5913 13.5345 60.4041 10.941 59.8275C8.31119 59.2433 5.99871 58.2169 4.1865 56.4047C2.37433 54.5925 1.34805 52.2802 0.763597 49.6502C0.187236 47.0567 0 43.9679 0 40.3959V23.1953C0 19.6233 0.187236 16.5345 0.763597 13.941C1.34805 11.3112 2.37433 8.99871 4.1865 7.1865C5.99871 5.37433 8.31119 4.34805 10.941 3.7636Z" fill="#155E75"/>
<g clip-path="url(#clip1_711_2696)">
<path d="M43.6134 33.0193L43.0684 31.7273C44.9348 27.509 44.811 27.3836 44.4486 27.0177L42.0644 24.6883L41.8278 24.4889H41.5516C41.4059 24.4889 40.971 24.4889 37.3468 26.1328L36.0129 25.5949C34.2889 21.3213 34.1121 21.3213 33.6073 21.3213H30.2439C29.7396 21.3213 29.5436 21.3207 27.9447 25.6102L26.6166 26.1494C24.1673 25.1152 22.731 24.5917 22.3433 24.5917L22.0254 24.6016L19.4608 27.116C19.0717 27.4819 18.9359 27.6109 20.9093 31.764L20.3663 33.0515C16 34.7395 16 34.9032 16 35.4197V38.7175C16 39.2349 16 39.4172 20.3809 40.9865L20.9238 42.2717C19.0578 46.4878 19.1831 46.6144 19.5457 46.9768L21.9299 49.3091L22.1671 49.513H22.4446C22.588 49.513 23.0175 49.513 26.6469 47.8657L27.9784 48.4072C29.7027 52.6803 29.8797 52.6793 30.3857 52.6793H33.7496C34.2641 52.6793 34.4465 52.6793 36.0502 48.392L37.3851 47.8522C39.8315 48.8867 41.2646 49.4119 41.6498 49.4119L41.9699 49.4028L44.5541 46.873C44.9217 46.502 45.0505 46.3738 43.0881 42.2379L43.6273 40.9493C47.9999 39.2597 47.9999 39.0823 47.9999 38.5775V35.2833C47.9994 34.7643 47.9994 34.5831 43.6134 33.0193ZM31.9992 42.4864C28.9148 42.4864 26.4033 40.0237 26.4033 36.9977C26.4033 33.974 28.9149 31.5136 31.9992 31.5136C35.0818 31.5136 37.5881 33.9745 37.5881 36.9977C37.5875 40.0237 35.0813 42.4864 31.9992 42.4864Z" fill="#22D3EE"/>
</g>
</g>
<defs>
<clipPath id="clip0_711_2696">
<rect width="64" height="64" fill="white"/>
</clipPath>
<clipPath id="clip1_711_2696">
<rect width="32" height="32" fill="white" transform="translate(16 21)"/>
</clipPath>
</defs>
</svg>
