<svg width="64" height="64" viewBox="0 0 64 64" fill="none" xmlns="http://www.w3.org/2000/svg">
<g clip-path="url(#clip0_715_3311)">
<mask id="path-1-inside-1_715_3311" fill="white">
<path fill-rule="evenodd" clip-rule="evenodd" d="M10.941 3.7636C13.5345 3.18724 16.6233 3 20.1953 3H25.371C28.5803 3 31.5773 4.60392 33.3575 7.27423L35.9571 11.1738C36.5506 12.0638 37.5495 12.5985 38.6194 12.5985H54.7943C59.9055 12.5985 64.0482 16.6336 63.9996 21.8298C63.9413 28.0176 63.9903 34.2078 63.9903 40.3959C63.9903 43.9679 63.8031 47.0567 63.2266 49.6502C62.6423 52.2802 61.6159 54.5925 59.8037 56.4047C57.9915 58.2169 55.6792 59.2433 53.0492 59.8275C50.4557 60.4041 47.3669 60.5913 43.795 60.5913H20.1953C16.6233 60.5913 13.5345 60.4041 10.941 59.8275C8.31119 59.2433 5.99871 58.2169 4.1865 56.4047C2.37433 54.5925 1.34805 52.2802 0.763596 49.6502C0.187236 47.0567 0 43.9679 0 40.3959V23.1953C0 19.6233 0.187236 16.5345 0.763596 13.941C1.34805 11.3112 2.37433 8.99871 4.1865 7.1865C5.99871 5.37433 8.31119 4.34805 10.941 3.7636Z"/>
</mask>
<path fill-rule="evenodd" clip-rule="evenodd" d="M10.941 3.7636C13.5345 3.18724 16.6233 3 20.1953 3H25.371C28.5803 3 31.5773 4.60392 33.3575 7.27423L35.9571 11.1738C36.5506 12.0638 37.5495 12.5985 38.6194 12.5985H54.7943C59.9055 12.5985 64.0482 16.6336 63.9996 21.8298C63.9413 28.0176 63.9903 34.2078 63.9903 40.3959C63.9903 43.9679 63.8031 47.0567 63.2266 49.6502C62.6423 52.2802 61.6159 54.5925 59.8037 56.4047C57.9915 58.2169 55.6792 59.2433 53.0492 59.8275C50.4557 60.4041 47.3669 60.5913 43.795 60.5913H20.1953C16.6233 60.5913 13.5345 60.4041 10.941 59.8275C8.31119 59.2433 5.99871 58.2169 4.1865 56.4047C2.37433 54.5925 1.34805 52.2802 0.763596 49.6502C0.187236 47.0567 0 43.9679 0 40.3959V23.1953C0 19.6233 0.187236 16.5345 0.763596 13.941C1.34805 11.3112 2.37433 8.99871 4.1865 7.1865C5.99871 5.37433 8.31119 4.34805 10.941 3.7636Z" stroke="#1E40AF" stroke-width="12" mask="url(#path-1-inside-1_715_3311)"/>
<path fill-rule="evenodd" clip-rule="evenodd" d="M25.9968 51C25.2311 51 24.4882 50.6503 23.9991 50.0149L16.5613 40.4789C16.3166 40.1672 16.1455 39.8043 16.0608 39.4172C15.976 39.0301 15.98 38.6288 16.0722 38.2434L18.7351 26.3417C18.9042 25.5531 19.4162 24.9177 20.1179 24.568L30.8951 19.2651C31.2379 19.0869 31.6196 19 32.0036 19C32.3876 19 32.7693 19.0869 33.1122 19.2629L43.8848 24.5451C44.5888 24.8949 45.1008 25.5326 45.2699 26.3211L47.9328 38.2229C48.1019 39.0114 47.9328 39.8229 47.4436 40.4583L39.9991 50.008C39.5099 50.6206 38.7648 51 37.9991 51H25.9968ZM43.6379 37.6629L43.7088 37.6811C43.8052 37.6941 43.8979 37.7268 43.9811 37.7774C44.0642 37.828 44.136 37.8952 44.1918 37.9749C44.2476 38.0546 44.2864 38.145 44.3055 38.2404C44.3247 38.3357 44.3238 38.4341 44.3031 38.5291C44.2816 38.6247 44.2403 38.7147 44.1819 38.7932C44.1234 38.8718 44.0492 38.9372 43.9638 38.9853C43.8785 39.0333 43.7841 39.0629 43.6866 39.0722C43.5891 39.0814 43.4907 39.07 43.3979 39.0389H43.3888L43.3751 39.0343L43.3065 39.0183L43.1922 38.9954C42.979 38.9268 42.7698 38.8459 42.5659 38.7531C42.1723 38.5952 41.7643 38.4758 41.3476 38.3966C41.2036 38.3918 41.0633 38.4435 40.9568 38.5406C40.8572 38.5217 40.7574 38.5041 40.6573 38.488C39.9795 40.6111 38.5444 42.4107 36.6253 43.544C36.6596 43.64 36.6985 43.7337 36.7419 43.8251C36.671 43.95 36.6521 44.0979 36.6893 44.2366C36.8585 44.6251 37.0665 44.9954 37.3088 45.3429C37.4459 45.5211 37.5693 45.7086 37.6836 45.9006L37.7476 46.0309L37.7751 46.088C37.8514 46.2145 37.8857 46.3618 37.8731 46.509C37.8605 46.6561 37.8016 46.7955 37.705 46.9072C37.6083 47.0188 37.4787 47.097 37.3349 47.1305C37.191 47.164 37.0403 47.1512 36.9042 47.0937C36.8136 47.0564 36.7318 47.0005 36.6641 46.9296C36.5963 46.8588 36.5442 46.7745 36.5111 46.6823C36.5035 46.667 36.4959 46.6518 36.4882 46.6366L36.4242 46.504C36.3441 46.2948 36.2762 46.0811 36.2208 45.864C36.0993 45.4592 35.9386 45.0672 35.7408 44.6937C35.6548 44.5775 35.5269 44.4996 35.3842 44.4766C35.3611 44.4363 35.3383 44.3959 35.3156 44.3554L35.2356 44.2091C33.1548 44.9951 30.8577 44.9894 28.7808 44.1931L28.6231 44.4789C28.5101 44.4962 28.4049 44.5472 28.3213 44.6251C28.0836 45.0137 27.9008 45.4366 27.7796 45.8777C27.7251 46.0948 27.6579 46.3085 27.5785 46.5177L27.5213 46.632L27.4916 46.6937C27.4581 46.7853 27.4059 46.8711 27.3384 46.9414C27.2708 47.0116 27.1893 47.0671 27.0991 47.1041C27.009 47.1411 26.912 47.1589 26.8146 47.1564C26.7171 47.1539 26.6213 47.1311 26.5331 47.0895C26.445 47.0479 26.3664 46.9884 26.3026 46.9148C26.2387 46.8411 26.1908 46.755 26.1621 46.6618C26.1334 46.5687 26.1243 46.4706 26.1356 46.3737C26.1469 46.2769 26.1782 46.1835 26.2276 46.0994L26.2596 46.0309L26.3191 45.912C26.4333 45.7177 26.5568 45.5326 26.6939 45.3543C26.9408 44.9977 27.1511 44.6183 27.3271 44.2206C27.3453 44.0853 27.323 43.9477 27.2631 43.8251L27.3911 43.5211C25.479 42.3967 24.0448 40.6112 23.3591 38.5017L23.0528 38.5543C22.9345 38.4705 22.7952 38.4214 22.6505 38.4126C22.2338 38.4918 21.8258 38.6112 21.4322 38.7691C21.2265 38.8606 21.0185 38.9406 20.8059 39.0091L20.6916 39.0343L20.6231 39.0503H20.6162L20.6116 39.0549H20.6002C20.4843 39.092 20.3608 39.0985 20.2416 39.0737C20.1224 39.0489 20.0118 38.9936 19.9203 38.9132C19.8289 38.8329 19.7599 38.7302 19.72 38.6152C19.6801 38.5002 19.6708 38.3768 19.6928 38.2571C19.7208 38.113 19.7936 37.9813 19.9006 37.8808C20.0077 37.7803 20.1437 37.716 20.2893 37.6971L20.2985 37.6949H20.3053L20.3191 37.6903C20.3739 37.6766 20.4425 37.6583 20.4928 37.6491C20.7145 37.6194 20.9385 37.6011 21.1625 37.5966C21.5876 37.5669 22.0082 37.4983 22.4173 37.3909C22.5386 37.3131 22.6409 37.2093 22.7168 37.0869L23.0093 37.0023C22.6914 34.8013 23.1995 32.5606 24.4356 30.712L24.2139 30.5131C24.2054 30.3684 24.1563 30.229 24.0722 30.1109C23.7501 29.8346 23.4018 29.5904 23.0322 29.3817C22.8324 29.2802 22.6385 29.1672 22.4516 29.0434C22.4023 29.0071 22.3543 28.9689 22.3076 28.9291L22.2985 28.92C22.1392 28.8065 22.0315 28.6345 21.9989 28.4416C21.9663 28.2488 22.0116 28.0509 22.1248 27.8914C22.192 27.8098 22.2776 27.7451 22.3744 27.7026C22.4713 27.6601 22.5769 27.641 22.6825 27.6469C22.8601 27.6544 23.0307 27.7184 23.1693 27.8297L23.2196 27.8686C23.2562 27.8983 23.2973 27.928 23.3248 27.9531C23.4871 28.1063 23.6425 28.2709 23.7865 28.44C24.0722 28.7531 24.3876 29.0389 24.7282 29.2903C24.8562 29.3589 25.0048 29.3726 25.1442 29.3314L25.3956 29.5097C26.9261 27.8865 29.0049 26.8895 31.2288 26.712L31.2448 26.4171C31.3536 26.3218 31.4329 26.1973 31.4733 26.0583C31.4888 25.6347 31.4628 25.2106 31.3956 24.792C31.351 24.5731 31.3189 24.3517 31.2996 24.1291V23.9326C31.2893 23.8348 31.2998 23.7359 31.3303 23.6424C31.3608 23.5489 31.4107 23.4629 31.4767 23.39C31.5427 23.3171 31.6234 23.2589 31.7134 23.2193C31.8034 23.1797 31.9007 23.1595 31.9991 23.16C32.097 23.1602 32.1938 23.1808 32.2833 23.2206C32.3728 23.2603 32.453 23.3183 32.5188 23.3907C32.5846 23.4632 32.6346 23.5487 32.6656 23.6416C32.6965 23.7345 32.7077 23.8328 32.6985 23.9303V24.1291C32.6801 24.3517 32.6488 24.573 32.6048 24.792C32.5371 25.2097 32.5103 25.6331 32.5248 26.056C32.5523 26.198 32.6344 26.3235 32.7533 26.4057V26.4217L32.7693 26.7189C34.9796 26.9177 37.0436 27.912 38.5751 29.5143L38.8402 29.3246C38.9834 29.3494 39.1307 29.3335 39.2653 29.2789C39.6059 29.0274 39.9213 28.7417 40.2071 28.4263C40.3514 28.2552 40.5056 28.0926 40.6688 27.9394L40.7853 27.848L40.8242 27.816C40.9489 27.6986 41.112 27.6307 41.2831 27.6249C41.4543 27.6192 41.6216 27.676 41.7539 27.7847C41.8861 27.8934 41.9742 28.0466 42.0017 28.2156C42.0292 28.3846 41.9941 28.5578 41.9031 28.7029C41.8496 28.785 41.7795 28.8551 41.6973 28.9086C41.6791 28.92 41.6585 28.936 41.6402 28.9543L41.5419 29.0297C41.3551 29.1536 41.1612 29.2665 40.9613 29.368C40.5918 29.5775 40.2435 29.8225 39.9213 30.0994C39.8274 30.2081 39.7798 30.3492 39.7888 30.4926C39.7509 30.5264 39.7128 30.5599 39.6745 30.5931L39.5419 30.7143C40.7808 32.5566 41.2996 34.7897 40.9979 36.9886L41.2791 37.0709C41.3499 37.1989 41.4551 37.3017 41.5808 37.3726C41.9922 37.4823 42.4128 37.5509 42.8379 37.5783C43.0596 37.5851 43.2836 37.6011 43.5053 37.6331L43.6379 37.6629ZM37.0665 30.5771L34.0768 32.6914L34.0676 32.6869C33.9777 32.7532 33.8713 32.7939 33.76 32.8046C33.6487 32.8152 33.5366 32.7954 33.4357 32.7473C33.3348 32.6992 33.2488 32.6245 33.187 32.5314C33.1252 32.4382 33.0899 32.33 33.0848 32.2183L32.8768 28.5634C34.4563 28.7591 35.928 29.465 37.0665 30.5771ZM31.4368 34.584H32.5613L33.2608 35.4549L33.0093 36.5429L31.9991 37.0251L30.9865 36.5383L30.7351 35.4526L31.4368 34.584ZM30.3762 28.6914C30.6208 28.6366 30.8699 28.5931 31.1213 28.5634L30.9156 32.2206L30.8973 32.2297C30.894 32.3129 30.8737 32.3945 30.8378 32.4695C30.8018 32.5446 30.751 32.6115 30.6883 32.6663C30.6257 32.7211 30.5525 32.7625 30.4733 32.788C30.3941 32.8136 30.3105 32.8227 30.2276 32.8149C30.1163 32.8054 30.0097 32.7659 29.9191 32.7006L29.9145 32.7029L26.9065 30.5771C27.8642 29.64 29.0665 28.9863 30.3762 28.6914ZM25.8185 31.944L28.5636 34.392L28.5613 34.408C28.645 34.4811 28.7073 34.5756 28.7416 34.6813C28.7759 34.7871 28.7809 34.9001 28.756 35.0085C28.7312 35.1168 28.6774 35.2164 28.6005 35.2966C28.5235 35.3768 28.4263 35.4347 28.3191 35.464L28.3168 35.4754L24.7968 36.488C24.6217 34.9018 24.9813 33.3026 25.8185 31.944ZM29.4939 38.4491L28.0951 41.8183C26.7548 40.9624 25.7344 39.6881 25.1922 38.1931L28.7991 37.5829L28.8059 37.5897C28.9466 37.5625 29.0924 37.5859 29.2173 37.656C29.3501 37.7301 29.4509 37.8507 29.5002 37.9945C29.5496 38.1384 29.5441 38.2954 29.4848 38.4354L29.4939 38.4491ZM33.6219 42.7829C32.3145 43.08 30.9476 43.0114 29.6768 42.5817L31.4528 39.3817C31.5055 39.2837 31.586 39.2018 31.6814 39.1447C31.7769 39.0875 31.886 39.0572 31.9972 39.057C32.1085 39.0567 32.2177 39.0866 32.3134 39.1433C32.4091 39.2001 32.4877 39.2817 32.5408 39.3794H32.5545L34.3351 42.584C34.1008 42.662 33.8628 42.7283 33.6219 42.7829ZM35.9168 41.832L34.5042 38.4286L34.5065 38.4217C34.463 38.3195 34.4479 38.2074 34.463 38.0974C34.4781 37.9873 34.5227 37.8834 34.5921 37.7967C34.6614 37.7099 34.753 37.6436 34.8571 37.6048C34.9612 37.5659 35.0738 37.556 35.1831 37.576L35.1899 37.5669L38.8311 38.1817C38.2927 39.6888 37.2672 40.9733 35.9168 41.832ZM39.2128 36.4766L35.6791 35.4594L35.6745 35.4457C35.5943 35.4235 35.5194 35.3853 35.4544 35.3335C35.3893 35.2816 35.3354 35.2171 35.2959 35.1439C35.2564 35.0706 35.2321 34.9902 35.2245 34.9073C35.2169 34.8245 35.2261 34.7409 35.2516 34.6617C35.2866 34.5554 35.3498 34.4606 35.4345 34.3874L35.4276 34.3829L38.1591 31.944C38.9956 33.3017 39.3636 34.8926 39.2105 36.4766H39.2128Z" fill="#60A5FA"/>
</g>
<defs>
<clipPath id="clip0_715_3311">
<rect width="64" height="64" fill="white"/>
</clipPath>
</defs>
</svg>
