<svg width="64" height="64" viewBox="0 0 64 64" fill="none" xmlns="http://www.w3.org/2000/svg">
<g clip-path="url(#clip0_718_2649)">
<path fill-rule="evenodd" clip-rule="evenodd" d="M10.941 3.7636C13.5345 3.18724 16.6233 3 20.1953 3H25.371C28.5803 3 31.5773 4.60392 33.3575 7.27423L35.9571 11.1738C36.5506 12.0638 37.5495 12.5985 38.6194 12.5985H54.7943C59.9055 12.5985 64.0482 16.6336 63.9996 21.8298C63.9413 28.0176 63.9903 34.2078 63.9903 40.3959C63.9903 43.9679 63.8031 47.0567 63.2266 49.6502C62.6423 52.2802 61.6159 54.5925 59.8037 56.4047C57.9915 58.2169 55.6792 59.2433 53.0492 59.8275C50.4557 60.4041 47.3669 60.5913 43.795 60.5913H20.1953C16.6233 60.5913 13.5345 60.4041 10.941 59.8275C8.31119 59.2433 5.99871 58.2169 4.1865 56.4047C2.37433 54.5925 1.34805 52.2802 0.763597 49.6502C0.187236 47.0567 0 43.9679 0 40.3959V23.1953C0 19.6233 0.187236 16.5345 0.763597 13.941C1.34805 11.3112 2.37433 8.99871 4.1865 7.1865C5.99871 5.37433 8.31119 4.34805 10.941 3.7636Z" fill="#6B21A8"/>
<path fill-rule="evenodd" clip-rule="evenodd" d="M38.1728 42.2145C38.7624 42.1617 39.3085 41.8823 39.6962 41.4349C40.0838 40.9876 40.2828 40.4073 40.2513 39.8163C40.2197 39.2252 39.9601 38.6694 39.527 38.2658C39.094 37.8623 38.5212 37.6426 37.9294 37.6528H37.8467C37.547 37.6632 37.2523 37.7326 36.9795 37.8571C36.7067 37.9816 36.4611 38.1587 36.2569 38.3783C36.0527 38.5978 35.8938 38.8556 35.7894 39.1367C35.685 39.4178 35.6371 39.7167 35.6485 40.0164C35.6765 40.5802 35.9073 41.115 36.2985 41.522C34.9158 44.2519 32.798 46.2468 29.6214 47.9155C27.4634 49.0571 25.2251 49.4637 22.9844 49.1777C21.1526 48.9342 19.7274 48.1188 18.8316 46.7763C17.5269 44.7814 17.4063 42.6211 18.5054 40.4655C19.1708 39.1844 20.1169 38.0703 21.2732 37.2061C21.0631 36.5234 20.8864 35.8308 20.7437 35.1309C14.8395 39.4042 15.4493 45.1879 17.2433 47.9179C18.5858 49.9506 21.3134 51.2151 24.3269 51.2151C25.1424 51.2151 25.9578 51.1324 26.7709 50.9291C31.9826 49.9127 35.9322 46.8164 38.1728 42.2145Z" fill="#C084FC" stroke="#C084FC" stroke-width="0.293" stroke-linejoin="round"/>
<path fill-rule="evenodd" clip-rule="evenodd" d="M45.3394 37.1674C42.2431 33.544 37.6837 31.5468 32.472 31.5468H31.8197C31.6319 31.1794 31.3462 30.871 30.9942 30.6558C30.6421 30.4405 30.2374 30.3268 29.8248 30.3271H29.7445C29.1395 30.3378 28.5636 30.5883 28.1434 31.0236C27.7232 31.4589 27.4931 32.0433 27.5038 32.6482C27.5144 33.2531 27.765 33.829 28.2002 34.2492C28.6355 34.6694 29.2199 34.8995 29.8248 34.8889H29.9075C30.3367 34.8678 30.7512 34.7265 31.1039 34.4812C31.4566 34.2359 31.7333 33.8964 31.9024 33.5014H32.6351C35.7314 33.5014 38.6623 34.3996 41.3095 36.1487C43.3422 37.4935 44.81 39.245 45.6254 41.3604C46.3156 43.0716 46.2754 44.7403 45.5427 46.1656C44.4034 48.3235 42.4889 49.5053 39.9646 49.5053C38.3337 49.5053 36.7879 49.016 35.9749 48.6497C35.5258 49.0586 34.7104 49.7086 34.1407 50.1151C35.8922 50.9306 37.6861 51.3796 39.395 51.3796C43.3044 51.3796 46.195 49.2193 47.2941 47.0614C48.4759 44.7001 48.3932 40.6277 45.3394 37.1674Z" fill="#C084FC" stroke="#C084FC" stroke-width="0.293" stroke-linejoin="round"/>
<path fill-rule="evenodd" clip-rule="evenodd" d="M24.6531 42.9081C24.6933 44.1301 25.712 45.1062 26.934 45.1062H27.0144C27.6193 45.0956 28.1952 44.8451 28.6154 44.4098C29.0356 43.9745 29.2657 43.3901 29.255 42.7852C29.2444 42.1803 28.9939 41.6044 28.5586 41.1842C28.1233 40.7639 27.5389 40.5339 26.934 40.5445H26.8513C26.7709 40.5445 26.648 40.5445 26.5676 40.5871C24.899 37.8193 24.2041 34.8057 24.4499 31.5463C24.613 29.1047 25.4284 26.9846 26.8513 25.2356C28.0331 23.7299 30.3139 22.9972 31.8621 22.9547C36.178 22.8743 38.0098 28.2491 38.1327 30.4071C38.6621 30.53 39.5579 30.8136 40.1677 31.0193C39.6785 24.4225 35.606 21 31.699 21C28.0354 21 24.6555 23.6472 23.3083 27.5566C21.4363 32.7683 22.6583 37.7768 24.9391 41.7263C24.7127 42.0764 24.6126 42.4934 24.6555 42.9081H24.6531Z" fill="#C084FC" stroke="#C084FC" stroke-width="0.293" stroke-linejoin="round"/>
</g>
<defs>
<clipPath id="clip0_718_2649">
<rect width="64" height="64" fill="white"/>
</clipPath>
</defs>
</svg>
