<svg width="64" height="64" viewBox="0 0 64 64" fill="none" xmlns="http://www.w3.org/2000/svg">
<g clip-path="url(#clip0_715_3694)">
<path d="M6.3078 9.30784C6.30782 9.30783 6.30783 9.30782 6.30784 9.3078C7.59221 8.02348 9.31785 7.19752 11.5919 6.69215C13.863 6.18742 16.6923 6 20.1953 6H25.371C27.5772 6 29.6375 7.10261 30.8613 8.93829C30.8613 8.9383 30.8613 8.93832 30.8614 8.93833L33.4609 12.8379L33.4612 12.8382C34.6109 14.5624 36.5463 15.5985 38.6194 15.5985H54.7943C58.2819 15.5985 61.0323 18.3172 60.9997 21.8017C60.9596 26.0676 60.9702 30.3466 60.9807 34.6045C60.9855 36.5404 60.9903 38.472 60.9903 40.3959C60.9903 43.8989 60.8029 46.7281 60.2981 48.9992L60.298 48.9997C59.7929 51.2734 58.9669 52.999 57.6824 54.2834C56.398 55.5678 54.6725 56.3938 52.3987 56.8989L52.3982 56.899C50.1272 57.4039 47.298 57.5913 43.795 57.5913H20.1953C16.6922 57.5913 13.8631 57.4039 11.5921 56.899L11.5916 56.8989C9.3179 56.3938 7.59223 55.5678 6.30782 54.2834C5.02346 52.999 4.19752 51.2735 3.69216 48.9994L0.763596 49.6502M6.3078 9.30784L4.1865 7.1865C2.37433 8.99871 1.34805 11.3112 0.763596 13.941C0.187236 16.5345 0 19.6233 0 23.1953V40.3959C0 43.9679 0.187236 47.0567 0.763596 49.6502M6.3078 9.30784C5.02348 10.5922 4.19752 12.3179 3.69215 14.5919M6.3078 9.30784L3.69215 14.5919M0.763596 49.6502L3.69215 48.9994C3.18742 46.7282 3 43.8989 3 40.3959V23.1953C3 19.6923 3.18742 16.863 3.69215 14.5919M0.763596 49.6502L3.69215 14.5919M3.69215 14.5919L0.76767 13.9419L3.69215 14.5919Z" stroke="#1E40AF" stroke-width="6"/>
<g clip-path="url(#clip1_715_3694)">
<path d="M28.1708 35.43H35.7813C37.9 35.43 39.591 33.6857 39.591 31.5581V24.3029C39.591 22.2382 37.8491 20.687 35.7813 20.3422C34.4723 20.1245 33.1142 20.0254 31.8119 20.0315C30.5091 20.0376 29.2656 20.1486 28.1708 20.3422C24.9466 20.912 24.3613 22.1041 24.3613 24.3029V27.2068H31.9805V28.1747H24.3613H21.5019C19.2873 28.1747 17.3482 29.5056 16.742 32.0377C16.0425 34.9399 16.0111 36.7508 16.742 39.7813C17.2836 42.0368 18.577 43.6443 20.7914 43.6443H23.4112V40.1631C23.4112 37.6481 25.5868 35.43 28.1708 35.43ZM27.6913 25.2708C26.9016 25.2708 26.2615 24.6236 26.2615 23.8233C26.2615 23.0202 26.9016 22.367 27.6913 22.367C28.4785 22.367 29.1209 23.0202 29.1209 23.8233C29.1209 24.6237 28.4785 25.2708 27.6913 25.2708ZM47.2105 32.0377C46.663 29.8333 45.6178 28.1747 43.4005 28.1747H40.5411V31.5581C40.5411 34.1813 38.3173 36.3888 35.7813 36.3888H28.1708C26.0865 36.3888 24.3613 38.173 24.3613 40.261V47.5159C24.3613 49.5807 26.1566 50.7956 28.1708 51.3873C30.5826 52.0969 32.8951 52.2254 35.7813 51.3873C37.6993 50.8326 39.591 49.7146 39.591 47.5159V44.6121H31.9805V43.6442H39.591H43.4005C45.615 43.6442 46.4404 42.0995 47.2105 39.7813C48.0056 37.3946 47.9717 35.0993 47.2105 32.0377ZM36.261 46.5479C37.051 46.5479 37.6906 47.1951 37.6906 47.9951C37.6906 48.7983 37.051 49.4517 36.261 49.4517C35.4738 49.4517 34.8312 48.7983 34.8312 47.9951C34.8312 47.1951 35.4738 46.5479 36.261 46.5479Z" fill="#60A5FA"/>
</g>
</g>
<defs>
<clipPath id="clip0_715_3694">
<rect width="64" height="64" fill="white"/>
</clipPath>
<clipPath id="clip1_715_3694">
<rect width="32" height="32" fill="white" transform="translate(16 20)"/>
</clipPath>
</defs>
</svg>
