<svg width="64" height="64" viewBox="0 0 64 64" fill="none" xmlns="http://www.w3.org/2000/svg">
<g clip-path="url(#clip0_712_2790)">
<mask id="path-1-inside-1_712_2790" fill="white">
<path fill-rule="evenodd" clip-rule="evenodd" d="M10.9412 3.7636C13.5346 3.18724 16.6234 3 20.1955 3H25.3711C28.5804 3 31.5774 4.60392 33.3576 7.27423L35.9572 11.1738C36.5507 12.0638 37.5496 12.5985 38.6195 12.5985H54.7944C59.9056 12.5985 64.0483 16.6336 63.9997 21.8298C63.9415 28.0176 63.9904 34.2078 63.9904 40.3959C63.9904 43.9679 63.8032 47.0567 63.2267 49.6502C62.6425 52.2802 61.6161 54.5925 59.8039 56.4047C57.9917 58.2169 55.6794 59.2433 53.0494 59.8275C50.4558 60.4041 47.367 60.5913 43.7951 60.5913H20.1955C16.6234 60.5913 13.5346 60.4041 10.9412 59.8275C8.31131 59.2433 5.99883 58.2169 4.18662 56.4047C2.37445 54.5925 1.34817 52.2802 0.763719 49.6502C0.187358 47.0567 0.00012207 43.9679 0.00012207 40.3959V23.1953C0.00012207 19.6233 0.187358 16.5345 0.763719 13.941C1.34817 11.3112 2.37445 8.99871 4.18662 7.1865C5.99883 5.37433 8.31131 4.34805 10.9412 3.7636Z"/>
</mask>
<path fill-rule="evenodd" clip-rule="evenodd" d="M10.9412 3.7636C13.5346 3.18724 16.6234 3 20.1955 3H25.3711C28.5804 3 31.5774 4.60392 33.3576 7.27423L35.9572 11.1738C36.5507 12.0638 37.5496 12.5985 38.6195 12.5985H54.7944C59.9056 12.5985 64.0483 16.6336 63.9997 21.8298C63.9415 28.0176 63.9904 34.2078 63.9904 40.3959C63.9904 43.9679 63.8032 47.0567 63.2267 49.6502C62.6425 52.2802 61.6161 54.5925 59.8039 56.4047C57.9917 58.2169 55.6794 59.2433 53.0494 59.8275C50.4558 60.4041 47.367 60.5913 43.7951 60.5913H20.1955C16.6234 60.5913 13.5346 60.4041 10.9412 59.8275C8.31131 59.2433 5.99883 58.2169 4.18662 56.4047C2.37445 54.5925 1.34817 52.2802 0.763719 49.6502C0.187358 47.0567 0.00012207 43.9679 0.00012207 40.3959V23.1953C0.00012207 19.6233 0.187358 16.5345 0.763719 13.941C1.34817 11.3112 2.37445 8.99871 4.18662 7.1865C5.99883 5.37433 8.31131 4.34805 10.9412 3.7636Z" stroke="#9A3412" stroke-width="12" mask="url(#path-1-inside-1_712_2790)"/>
<path d="M16.1882 31C14.7471 31 13.5221 31.5044 12.5132 32.5132C11.5044 33.5221 11 34.7471 11 36.1882C11 37.6294 11.5044 38.8544 12.5132 39.8632C13.5221 40.8721 14.7471 41.3765 16.1882 41.3765C17.6294 41.3765 18.8544 40.8721 19.8632 39.8632C20.8721 38.8544 21.3765 37.6294 21.3765 36.1882C21.3765 34.7471 20.8721 33.5221 19.8632 32.5132C18.8544 31.5044 17.6294 31 16.1882 31ZM32 31C30.5588 31 29.3338 31.5044 28.325 32.5132C27.3162 33.5221 26.8118 34.7471 26.8118 36.1882C26.8118 37.6294 27.3162 38.8544 28.325 39.8632C29.3338 40.8721 30.5485 41.3765 31.9691 41.3765C33.3897 41.3765 34.6147 40.8721 35.6441 39.8632C36.6735 38.8544 37.1882 37.6294 37.1882 36.1882C37.1882 34.7471 36.6735 33.5221 35.6441 32.5132C34.6147 31.5044 33.3794 31 31.9382 31H32ZM47.8118 31C46.3706 31 45.1456 31.5044 44.1368 32.5132C43.1279 33.5221 42.6235 34.7471 42.6235 36.1882C42.6235 37.6294 43.1279 38.8544 44.1368 39.8632C45.1456 40.8721 46.3706 41.3765 47.8118 41.3765C49.2529 41.3765 50.4779 40.8721 51.4868 39.8632C52.4956 38.8544 53 37.6294 53 36.1882C53 34.7471 52.4956 33.5221 51.4868 32.5132C50.4779 31.5044 49.2529 31 47.8118 31Z" fill="#FB923C"/>
</g>
<defs>
<clipPath id="clip0_712_2790">
<rect width="64" height="64" fill="white"/>
</clipPath>
</defs>
</svg>
