<svg width="64" height="64" viewBox="0 0 64 64" fill="none" xmlns="http://www.w3.org/2000/svg">
<g clip-path="url(#clip0_714_2656)">
<path fill-rule="evenodd" clip-rule="evenodd" d="M10.941 3.7636C13.5345 3.18724 16.6233 3 20.1953 3H25.371C28.5803 3 31.5773 4.60392 33.3575 7.27423L35.9571 11.1738C36.5506 12.0638 37.5495 12.5985 38.6194 12.5985H54.7943C59.9055 12.5985 64.0482 16.6336 63.9996 21.8298C63.9413 28.0176 63.9903 34.2078 63.9903 40.3959C63.9903 43.9679 63.8031 47.0567 63.2266 49.6502C62.6423 52.2802 61.6159 54.5925 59.8037 56.4047C57.9915 58.2169 55.6792 59.2433 53.0492 59.8275C50.4557 60.4041 47.3669 60.5913 43.795 60.5913H20.1953C16.6233 60.5913 13.5345 60.4041 10.941 59.8275C8.31119 59.2433 5.99871 58.2169 4.1865 56.4047C2.37433 54.5925 1.34805 52.2802 0.763597 49.6502C0.187236 47.0567 0 43.9679 0 40.3959V23.1953C0 19.6233 0.187236 16.5345 0.763597 13.941C1.34805 11.3112 2.37433 8.99871 4.1865 7.1865C5.99871 5.37433 8.31119 4.34805 10.941 3.7636Z" fill="#854D0E"/>
<g clip-path="url(#clip1_714_2656)">
<path d="M20 47.0162C20 48.1042 20.5333 49.1068 21.6 50.0242C22.6667 50.9415 24.128 51.6668 25.984 52.2002C27.84 52.7335 29.8453 53.0002 32 53.0002C34.1547 53.0002 36.16 52.7335 38.016 52.2002C39.872 51.6668 41.3333 50.9415 42.4 50.0242C43.4667 49.1068 44 48.1042 44 47.0162V43.6242C44 44.7122 43.456 45.6722 42.368 46.5042C41.28 47.3362 39.84 47.9548 38.048 48.3602C36.256 48.7655 34.24 48.9788 32 49.0002C29.76 49.0215 27.744 48.8082 25.952 48.3602C24.16 47.9122 22.72 47.2935 21.632 46.5042C20.544 45.7148 20 44.7548 20 43.6242V47.0162ZM20 41.0002C20 42.0882 20.5333 43.0908 21.6 44.0082C22.6667 44.9255 24.128 45.6615 25.984 46.2162C27.84 46.7708 29.8453 47.0375 32 47.0162C34.1547 46.9948 36.16 46.7282 38.016 46.2162C39.872 45.7042 41.3333 44.9682 42.4 44.0082C43.4667 43.0482 44 42.0455 44 41.0002V37.6402C44 38.7068 43.456 39.6562 42.368 40.4882C41.28 41.3202 39.84 41.9495 38.048 42.3762C36.256 42.8028 34.24 43.0162 32 43.0162C29.76 43.0162 27.744 42.8028 25.952 42.3762C24.16 41.9495 22.72 41.3202 21.632 40.4882C20.544 39.6562 20 38.7068 20 37.6402V41.0002ZM20 35.0162C20 36.1042 20.5333 37.1068 21.6 38.0242C22.6667 38.9415 24.128 39.6668 25.984 40.2002C27.84 40.7335 29.8453 41.0002 32 41.0002C34.1547 41.0002 36.16 40.7335 38.016 40.2002C39.872 39.6668 41.3333 38.9415 42.4 38.0242C43.4667 37.1068 44 36.1042 44 35.0162V31.6242C44 32.7122 43.456 33.6722 42.368 34.5042C41.28 35.3362 39.84 35.9548 38.048 36.3602C36.256 36.7655 34.24 36.9788 32 37.0002C29.76 37.0215 27.744 36.8082 25.952 36.3602C24.16 35.9122 22.72 35.2935 21.632 34.5042C20.544 33.7148 20 32.7548 20 31.6242V35.0162ZM20 29.0002C20 30.0882 20.5333 31.0908 21.6 32.0082C22.6667 32.9255 24.128 33.6615 25.984 34.2162C27.84 34.7708 29.8453 35.0375 32 35.0162C34.1547 34.9948 36.16 34.7282 38.016 34.2162C39.872 33.7042 41.3333 32.9682 42.4 32.0082C43.4667 31.0482 44 30.0455 44 29.0002V27.0162C44 25.9282 43.4667 24.9255 42.4 24.0082C41.3333 23.0908 39.872 22.3655 38.016 21.8322C36.16 21.2988 34.1547 21.0215 32 21.0002C29.8453 20.9788 27.84 21.2562 25.984 21.8322C24.128 22.4082 22.6667 23.1335 21.6 24.0082C20.5333 24.8828 20 25.8855 20 27.0162V29.0002Z" fill="#FACC15"/>
</g>
</g>
<defs>
<clipPath id="clip0_714_2656">
<rect width="64" height="64" fill="white"/>
</clipPath>
<clipPath id="clip1_714_2656">
<rect width="32" height="32" fill="white" transform="translate(16 21)"/>
</clipPath>
</defs>
</svg>
