<svg width="64" height="64" viewBox="0 0 64 64" fill="none" xmlns="http://www.w3.org/2000/svg">
<g clip-path="url(#clip0_717_3809)">
<path d="M6.3078 9.30784C6.30782 9.30783 6.30783 9.30782 6.30784 9.3078C7.59221 8.02348 9.31785 7.19752 11.5919 6.69215C13.863 6.18742 16.6923 6 20.1953 6H25.371C27.5772 6 29.6375 7.10261 30.8613 8.93829C30.8613 8.9383 30.8613 8.93832 30.8614 8.93833L33.4609 12.8379L33.4612 12.8382C34.6109 14.5624 36.5463 15.5985 38.6194 15.5985H54.7943C58.2819 15.5985 61.0323 18.3172 60.9997 21.8017C60.9596 26.0676 60.9702 30.3466 60.9807 34.6045C60.9855 36.5404 60.9903 38.472 60.9903 40.3959C60.9903 43.8989 60.8029 46.7281 60.2981 48.9992L60.298 48.9997C59.7929 51.2734 58.9669 52.999 57.6824 54.2834C56.398 55.5678 54.6725 56.3938 52.3987 56.8989L52.3982 56.899C50.1272 57.4039 47.298 57.5913 43.795 57.5913H20.1953C16.6922 57.5913 13.8631 57.4039 11.5921 56.899L11.5916 56.8989C9.3179 56.3938 7.59223 55.5678 6.30782 54.2834C5.02346 52.999 4.19752 51.2735 3.69216 48.9994L0.763596 49.6502M6.3078 9.30784L4.1865 7.1865C2.37433 8.99871 1.34805 11.3112 0.763596 13.941C0.187236 16.5345 0 19.6233 0 23.1953V40.3959C0 43.9679 0.187236 47.0567 0.763596 49.6502M6.3078 9.30784C5.02348 10.5922 4.19752 12.3179 3.69215 14.5919M6.3078 9.30784L3.69215 14.5919M0.763596 49.6502L3.69215 48.9994C3.18742 46.7282 3 43.8989 3 40.3959V23.1953C3 19.6923 3.18742 16.863 3.69215 14.5919M0.763596 49.6502L3.69215 14.5919M3.69215 14.5919L0.76767 13.9419L3.69215 14.5919Z" stroke="#115E59" stroke-width="6"/>
<g clip-path="url(#clip1_717_3809)">
<path d="M46.265 25.7352C44.265 23.7352 41.197 23.7352 39.197 25.5992C39.068 25.7352 39.068 25.8642 39.068 26.0002C39.068 26.1362 39.068 26.2652 39.197 26.4012L39.864 27.0682C40 27.1972 40.265 27.1972 40.531 27.0682C41.068 26.6672 41.599 26.5312 42.266 26.5312C43.865 26.5312 45.198 27.8642 45.198 29.4702C45.198 30.2662 44.933 30.9332 44.402 31.4702C40.402 35.4702 34.933 24.2662 22.803 30.0012C22 30.4022 21.599 31.3342 22 32.1372V32.2662L24 35.8652C24.401 36.6682 25.469 36.9332 26.265 36.5322L27.197 36.0012C28.265 35.3342 29.197 34.6682 30.136 33.8652C30.265 33.7362 30.667 33.7362 30.803 33.8652C31.068 34.0012 31.068 34.2662 30.932 34.5322L30.803 34.6682C29.864 35.4712 28.803 36.2672 27.735 36.9332L26.803 37.3342C26.402 37.5992 26 37.7352 25.47 37.7352C24.531 37.7352 23.599 37.1982 23.198 36.4022L21.198 32.9332C17.47 35.6002 15.069 40.8042 16.402 47.3342C16.402 47.5992 16.667 47.7352 16.933 47.7352H19.198C19.47 47.7352 19.599 47.5992 19.735 47.3342C20 45.4702 21.599 44.2662 23.47 44.5312C24.933 44.6672 26.137 45.8642 26.266 47.3342C26.266 47.5992 26.531 47.7352 26.803 47.7352H28.932C29.197 47.7352 29.333 47.5992 29.469 47.3342C29.734 45.4702 31.333 44.2662 33.197 44.5312C34.666 44.6672 35.864 45.8642 36 47.3342C36 47.5992 36.265 47.7352 36.531 47.7352H38.667C38.932 47.7352 39.198 47.4702 39.198 47.1982C39.198 44.1372 40.137 40.6672 42.402 38.9332C50.266 32.8042 48.137 27.6002 46.266 25.7362L46.265 25.7352ZM38 34.9322L36.401 34.1362C36.401 33.5992 36.802 33.1972 37.333 33.1972C37.864 33.1972 38.265 33.5982 38.265 34.1362C38.401 34.5312 38.265 34.8032 38 34.9322Z" fill="#2DD4BF"/>
</g>
</g>
<defs>
<clipPath id="clip0_717_3809">
<rect width="64" height="64" fill="white"/>
</clipPath>
<clipPath id="clip1_717_3809">
<rect width="32" height="32" fill="white" transform="translate(16 20)"/>
</clipPath>
</defs>
</svg>
