<svg width="64" height="64" viewBox="0 0 64 64" fill="none" xmlns="http://www.w3.org/2000/svg">
<g clip-path="url(#clip0_710_2504)">
<path fill-rule="evenodd" clip-rule="evenodd" d="M10.941 3.7636C13.5345 3.18724 16.6233 3 20.1953 3H25.371C28.5803 3 31.5773 4.60392 33.3575 7.27423L35.9571 11.1738C36.5506 12.0638 37.5495 12.5985 38.6194 12.5985H54.7943C59.9055 12.5985 64.0482 16.6336 63.9996 21.8298C63.9413 28.0176 63.9903 34.2078 63.9903 40.3959C63.9903 43.9679 63.8031 47.0567 63.2266 49.6502C62.6423 52.2802 61.6159 54.5925 59.8037 56.4047C57.9915 58.2169 55.6792 59.2433 53.0492 59.8275C50.4557 60.4041 47.3669 60.5913 43.795 60.5913H20.1953C16.6233 60.5913 13.5345 60.4041 10.941 59.8275C8.31119 59.2433 5.99871 58.2169 4.1865 56.4047C2.37433 54.5925 1.34805 52.2802 0.763597 49.6502C0.187236 47.0567 0 43.9679 0 40.3959V23.1953C0 19.6233 0.187236 16.5345 0.763597 13.941C1.34805 11.3112 2.37433 8.99871 4.1865 7.1865C5.99871 5.37433 8.31119 4.34805 10.941 3.7636Z" fill="#9D174D"/>
<path fill-rule="evenodd" clip-rule="evenodd" d="M34.7307 24.6626L41.3025 28.4569C41.4876 28.2609 41.7037 28.0879 41.9489 27.9454C43.3119 27.1619 45.0503 27.6271 45.8419 28.9901C46.6254 30.3531 46.1602 32.0915 44.7973 32.8831C44.5539 33.023 44.2984 33.1231 44.0383 33.1854V40.777C44.2956 40.8394 44.5483 40.9389 44.7891 41.0773C46.1602 41.8689 46.6254 43.6073 45.8338 44.9703C45.0503 46.3333 43.3037 46.7985 41.9408 46.015C41.6694 45.859 41.4336 45.6648 41.2362 45.4431L34.7045 49.2143C34.7979 49.4965 34.8484 49.7983 34.8484 50.112C34.8484 51.679 33.5752 52.9604 32.0001 52.9604C30.4249 52.9604 29.1517 51.6872 29.1517 50.112C29.1517 49.8321 29.1919 49.5616 29.2669 49.3061L22.6969 45.5128C22.5138 45.705 22.3007 45.8748 22.0594 46.015C20.6882 46.7985 18.9498 46.3333 18.1663 44.9703C17.3828 43.6073 17.848 41.8689 19.211 41.0773C19.452 40.9387 19.7047 40.8392 19.9619 40.7768V33.1854C19.7017 33.1231 19.4462 33.023 19.2028 32.8831C17.8399 32.0996 17.3747 30.3531 18.1582 28.9901C18.9417 27.6271 20.6882 27.1619 22.0512 27.9454C22.2951 28.0871 22.5102 28.259 22.6946 28.4537L29.2681 24.6584C29.1924 24.4017 29.1517 24.1299 29.1517 23.8484C29.1517 22.2732 30.4249 21 32.0001 21C33.5752 21 34.8484 22.2732 34.8484 23.8484C34.8484 24.1314 34.8073 24.4047 34.7307 24.6626ZM34.046 25.8317L40.6334 29.635C40.4298 30.3502 40.5046 31.1432 40.9042 31.8385C41.3052 32.536 41.9585 32.9984 42.6834 33.1786V40.7798C42.6465 40.7888 42.6097 40.7986 42.5732 40.8092L33.9695 25.9076C33.9955 25.8828 34.021 25.8575 34.046 25.8317ZM30.0324 25.9093L21.4289 40.8106C21.3917 40.7998 21.3543 40.7898 21.3167 40.7805V33.1786C22.0416 32.9984 22.6949 32.536 23.0959 31.8385C23.4963 31.1418 23.5706 30.3471 23.3654 29.6308L29.951 25.8285C29.9776 25.856 30.0047 25.8829 30.0324 25.9093ZM32.7959 26.5844L41.3975 41.4823C41.205 41.6659 41.0353 41.8797 40.8961 42.1219C40.7577 42.3627 40.6582 42.6155 40.5958 42.8728H23.4044C23.3421 42.6156 23.2426 42.3629 23.104 42.1219C22.9642 41.8813 22.7949 41.6686 22.6034 41.4859L31.2066 26.5851C31.4584 26.6578 31.7246 26.6967 32.0001 26.6967C32.2764 26.6967 32.5434 26.6575 32.7959 26.5844ZM34.1065 48.1931L40.6512 44.4144C40.6315 44.3528 40.614 44.2905 40.5986 44.2276H23.4008C23.3917 44.2645 23.3818 44.3013 23.3713 44.3378L29.948 48.135C30.4659 47.5976 31.1934 47.2637 32.0001 47.2637C32.8354 47.2637 33.5859 47.6218 34.1065 48.1931Z" fill="#F472B6"/>
</g>
<defs>
<clipPath id="clip0_710_2504">
<rect width="64" height="64" fill="white"/>
</clipPath>
</defs>
</svg>
