<svg width="64" height="64" viewBox="0 0 64 64" fill="none" xmlns="http://www.w3.org/2000/svg">
<g clip-path="url(#clip0_715_3457)">
<path d="M53.0492 59.8275C55.6792 59.2433 57.9915 58.2169 59.8037 56.4047C61.6159 54.5925 62.6423 52.2802 63.2266 49.6502C63.8031 47.0567 63.9903 43.9679 63.9903 40.3959C63.9903 38.4558 63.9855 36.5155 63.9807 34.5752C63.9701 30.3266 63.9596 26.0776 63.9996 21.8298C64.0482 16.6336 59.9055 12.5985 54.7943 12.5985H38.6194C37.5495 12.5985 36.5506 12.0638 35.9571 11.1738L53.0492 59.8275ZM53.0492 59.8275C50.4557 60.4041 47.3669 60.5913 43.795 60.5913H20.1953C16.6233 60.5913 13.5345 60.4041 10.941 59.8275M53.0492 59.8275H10.941M60.9997 21.8017C61.0323 18.3172 58.2819 15.5985 54.7943 15.5985H38.6194C36.5463 15.5985 34.6109 14.5624 33.4612 12.8382L33.4609 12.8379L30.8614 8.93833C30.8613 8.93832 30.8613 8.9383 30.8613 8.93828C29.6375 7.10261 27.5772 6 25.371 6H20.1953C16.6923 6 13.863 6.18742 11.5919 6.69215M60.9997 21.8017L6.3078 9.30784M60.9997 21.8017C60.9596 26.0676 60.9702 30.3466 60.9807 34.6045C60.9855 36.5404 60.9903 38.472 60.9903 40.3959C60.9903 43.8989 60.8029 46.7281 60.2981 48.9992L60.298 48.9997C59.7929 51.2734 58.9669 52.9989 57.6824 54.2834C56.398 55.5678 54.6725 56.3938 52.3987 56.8989L52.3982 56.899C50.1271 57.4039 47.298 57.5913 43.795 57.5913H20.1953C16.6922 57.5913 13.8631 57.4039 11.5921 56.899L11.5916 56.8989C9.3179 56.3938 7.59223 55.5678 6.30782 54.2834C5.02346 52.999 4.19752 51.2735 3.69216 48.9994L0.766804 49.6495L3.69215 48.9994C3.18742 46.7282 3 43.8989 3 40.3959V23.1953C3 19.6923 3.18742 16.8631 3.69215 14.5919C4.19752 12.3179 5.02348 10.5922 6.3078 9.30784M60.9997 21.8017L6.3078 9.30784M11.5919 6.69215L10.941 3.7636M11.5919 6.69215L10.941 3.7636M11.5919 6.69215C9.31785 7.19752 7.59221 8.02348 6.30784 9.3078C6.30783 9.30781 6.30782 9.30783 6.3078 9.30784M10.941 3.7636C8.31119 4.34805 5.99871 5.37433 4.1865 7.1865C2.37433 8.99871 1.34805 11.3112 0.763596 13.941C0.187236 16.5345 0 19.6233 0 23.1953V40.3959C0 43.9679 0.187236 47.0567 0.763596 49.6502C1.34805 52.2802 2.37433 54.5925 4.1865 56.4047C5.99871 58.2169 8.31119 59.2433 10.941 59.8275M10.941 3.7636C13.5345 3.18724 16.6233 3 20.1953 3H25.371C28.5803 3 31.5773 4.60392 33.3575 7.27423L10.941 59.8275" stroke="#495057" stroke-width="6"/>
<g clip-path="url(#clip1_715_3457)">
<path d="M29.9044 43.7842C30.2621 45.1508 30.0076 46.5307 29.3163 47.6425C28.6999 48.8628 27.5876 49.8255 26.1609 50.1987C23.5214 50.8895 20.8215 49.31 20.1304 46.6705C19.7727 45.3036 20.0276 43.923 20.7193 42.8113C21.3358 41.5916 22.4479 40.6294 23.8739 40.2562C26.5134 39.5648 29.2134 41.1445 29.9044 43.7842ZM21.8957 36.8435C22.6904 35.9768 22.8656 34.5447 22.5911 33.726C22.1813 32.24 20.7555 31.2162 19.1676 31.3698C17.9998 31.4828 17.0409 32.2051 16.5673 33.1902C16.1731 33.7859 15.9722 34.5151 16.0465 35.2817C16.2189 37.0604 17.7973 38.362 19.575 38.1902C20.5453 38.0948 21.3714 37.5797 21.8957 36.8435ZM32.1461 20.5448C28.0484 21.0513 25.4093 22.93 24.1672 25.2573C21.6019 29.4302 23.7701 35.2913 30.3956 37.1711C39.0812 39.6377 32.19 45.1466 32.3914 48.8155C32.5936 52.4836 39.9421 53.8143 45.7372 44.1803C45.8484 43.9955 45.9529 43.8076 46.0548 43.6184C51.5555 34.142 44.6716 18.9952 32.1461 20.5448Z" fill="#CED4DA"/>
</g>
</g>
<defs>
<clipPath id="clip0_715_3457">
<rect width="64" height="64" fill="white"/>
</clipPath>
<clipPath id="clip1_715_3457">
<rect width="32" height="32" fill="white" transform="translate(16 20)"/>
</clipPath>
</defs>
</svg>
