<svg width="64" height="64" viewBox="0 0 64 64" fill="none" xmlns="http://www.w3.org/2000/svg">
<g clip-path="url(#clip0_711_2489)">
<path fill-rule="evenodd" clip-rule="evenodd" d="M10.941 3.7636C13.5345 3.18724 16.6233 3 20.1953 3H25.371C28.5803 3 31.5773 4.60392 33.3575 7.27423L35.9571 11.1738C36.5506 12.0638 37.5495 12.5985 38.6194 12.5985H54.7943C59.9055 12.5985 64.0482 16.6336 63.9996 21.8298C63.9413 28.0176 63.9903 34.2078 63.9903 40.3959C63.9903 43.9679 63.8031 47.0567 63.2266 49.6502C62.6423 52.2802 61.6159 54.5925 59.8037 56.4047C57.9915 58.2169 55.6792 59.2433 53.0492 59.8275C50.4557 60.4041 47.3669 60.5913 43.795 60.5913H20.1953C16.6233 60.5913 13.5345 60.4041 10.941 59.8275C8.31119 59.2433 5.99871 58.2169 4.1865 56.4047C2.37433 54.5925 1.34805 52.2802 0.763597 49.6502C0.187236 47.0567 0 43.9679 0 40.3959V23.1953C0 19.6233 0.187236 16.5345 0.763597 13.941C1.34805 11.3112 2.37433 8.99871 4.1865 7.1865C5.99871 5.37433 8.31119 4.34805 10.941 3.7636Z" fill="#1E40AF"/>
<path d="M31.864 20.0491L18.0354 28.0366V44.0126L31.864 52L45.6994 44.0126V28.0366L31.864 20.0491Z" fill="url(#paint0_radial_711_2489)"/>
<path d="M31.864 28.152L25.0069 32.1143V40.0366L31.864 44L38.7211 40.0389V32.1143L31.864 28.152Z" fill="#6F95DB"/>
<path d="M31.864 20L18 28.0423L31.864 35.5909L45.728 28.0914L31.864 20ZM31.864 36.6263L18 43.9783L31.864 51.9703L45.6789 43.928L31.864 36.6263Z" fill="white" fill-opacity="0.1"/>
</g>
<defs>
<radialGradient id="paint0_radial_711_2489" cx="0" cy="0" r="1" gradientUnits="userSpaceOnUse" gradientTransform="translate(31.7514 35.0154) scale(14.8286 17.1094)">
<stop stop-color="#93B4E7"/>
<stop offset="0.593" stop-color="#B9D1F8"/>
<stop offset="1" stop-color="#9CB6E0"/>
</radialGradient>
<clipPath id="clip0_711_2489">
<rect width="64" height="64" fill="white"/>
</clipPath>
</defs>
</svg>
