<svg width="63" height="63" viewBox="0 0 63 63" fill="none" xmlns="http://www.w3.org/2000/svg">
<g clip-path="url(#clip0_715_3191)">
<mask id="path-1-inside-1_715_3191" fill="white">
<path fill-rule="evenodd" clip-rule="evenodd" d="M10.7701 3.70479C13.323 3.13744 16.3636 2.95312 19.8798 2.95312H24.9746C28.1337 2.95312 31.0839 4.53198 32.8363 7.16057L35.3953 10.9992C35.9795 11.8753 36.9628 12.4017 38.016 12.4017H53.9381C58.9695 12.4017 63.0475 16.3737 62.9996 21.4887C62.9423 27.5799 62.9905 33.6733 62.9905 39.7647C62.9905 43.2809 62.8062 46.3214 62.2387 48.8744C61.6636 51.4633 60.6532 53.7395 58.8693 55.5234C57.0854 57.3073 54.8093 58.3176 52.2203 58.8927C49.6673 59.4603 46.6268 59.6445 43.1107 59.6445H19.8798C16.3636 59.6445 13.323 59.4603 10.7701 58.8927C8.18133 58.3176 5.90498 57.3073 4.12109 55.5234C2.33723 53.7395 1.32699 51.4633 0.751665 48.8744C0.18431 46.3214 0 43.2809 0 39.7647V22.8329C0 19.3167 0.18431 16.2762 0.751665 13.7232C1.32699 11.1345 2.33723 8.8581 4.12109 7.07421C5.90498 5.29035 8.18133 4.28011 10.7701 3.70479Z"/>
</mask>
<path fill-rule="evenodd" clip-rule="evenodd" d="M10.7701 3.70479C13.323 3.13744 16.3636 2.95312 19.8798 2.95312H24.9746C28.1337 2.95312 31.0839 4.53198 32.8363 7.16057L35.3953 10.9992C35.9795 11.8753 36.9628 12.4017 38.016 12.4017H53.9381C58.9695 12.4017 63.0475 16.3737 62.9996 21.4887C62.9423 27.5799 62.9905 33.6733 62.9905 39.7647C62.9905 43.2809 62.8062 46.3214 62.2387 48.8744C61.6636 51.4633 60.6532 53.7395 58.8693 55.5234C57.0854 57.3073 54.8093 58.3176 52.2203 58.8927C49.6673 59.4603 46.6268 59.6445 43.1107 59.6445H19.8798C16.3636 59.6445 13.323 59.4603 10.7701 58.8927C8.18133 58.3176 5.90498 57.3073 4.12109 55.5234C2.33723 53.7395 1.32699 51.4633 0.751665 48.8744C0.18431 46.3214 0 43.2809 0 39.7647V22.8329C0 19.3167 0.18431 16.2762 0.751665 13.7232C1.32699 11.1345 2.33723 8.8581 4.12109 7.07421C5.90498 5.29035 8.18133 4.28011 10.7701 3.70479Z" stroke="#166534" stroke-width="12" mask="url(#path-1-inside-1_715_3191)"/>
<path d="M36.6242 20C34.0949 20 31.9769 21.7607 31.4288 24.1232H16.4546C15.6512 24.1232 15 24.7744 15 25.5778C15 26.3811 15.6512 27.0323 16.4546 27.0323H31.5673C32.2766 29.1448 34.2727 30.6667 36.6242 30.6667C38.9758 30.6667 40.9717 29.1448 41.6812 27.0323H45.5454C46.3488 27.0323 47 26.3811 47 25.5778C47 24.7744 46.3488 24.1232 45.5454 24.1232H41.8197C41.2716 21.7607 39.1536 20 36.6242 20Z" fill="#4ADE80"/>
<path d="M23.0485 30.6667C20.5954 30.6667 18.5291 32.3228 17.9068 34.5781L16.4164 34.6171C15.6134 34.6382 14.9795 35.3063 15.0005 36.1093C15.0216 36.9124 15.6896 37.5463 16.4927 37.5252L17.9254 37.4876C18.5694 39.7093 20.6193 41.3333 23.0485 41.3333C25.4638 41.3333 27.504 39.7278 28.1603 37.5259H45.5454C46.3488 37.5259 47 36.8747 47 36.0713C47 35.2679 46.3488 34.6167 45.5454 34.6167H28.2007C27.5915 32.3418 25.5156 30.6667 23.0485 30.6667Z" fill="#4ADE80"/>
<path d="M36.6242 41.3333C34.2203 41.3333 32.1877 42.9239 31.5216 45.11H16.4546C15.6512 45.11 15 45.7612 15 46.5646C15 47.3678 15.6512 48.0192 16.4546 48.0192H31.4638C32.0626 50.3097 34.1459 52 36.6242 52C39.1024 52 41.1859 50.3097 41.7845 48.0192H45.5454C46.3488 48.0192 47 47.3678 47 46.5646C47 45.7612 46.3488 45.11 45.5454 45.11H41.7267C41.0608 42.9239 39.0283 41.3333 36.6242 41.3333Z" fill="#4ADE80"/>
</g>
<defs>
<clipPath id="clip0_715_3191">
<rect width="63" height="63" fill="white"/>
</clipPath>
</defs>
</svg>
