<svg width="63" height="63" viewBox="0 0 63 63" fill="none" xmlns="http://www.w3.org/2000/svg">
<g clip-path="url(#clip0_715_3060)">
<mask id="path-1-inside-1_715_3060" fill="white">
<path fill-rule="evenodd" clip-rule="evenodd" d="M10.7701 3.70479C13.323 3.13744 16.3636 2.95312 19.8798 2.95312H24.9746C28.1337 2.95312 31.0839 4.53198 32.8363 7.16057L35.3953 10.9992C35.9795 11.8753 36.9628 12.4017 38.016 12.4017H53.9381C58.9695 12.4017 63.0475 16.3737 62.9996 21.4887C62.9423 27.5799 62.9905 33.6733 62.9905 39.7647C62.9905 43.2809 62.8062 46.3214 62.2387 48.8744C61.6636 51.4633 60.6532 53.7395 58.8693 55.5234C57.0854 57.3073 54.8093 58.3176 52.2203 58.8927C49.6673 59.4603 46.6268 59.6445 43.1107 59.6445H19.8798C16.3636 59.6445 13.323 59.4603 10.7701 58.8927C8.18133 58.3176 5.90498 57.3073 4.12109 55.5234C2.33723 53.7395 1.32699 51.4633 0.751665 48.8744C0.18431 46.3214 0 43.2809 0 39.7647V22.8329C0 19.3167 0.18431 16.2762 0.751665 13.7232C1.32699 11.1345 2.33723 8.8581 4.12109 7.07421C5.90498 5.29035 8.18133 4.28011 10.7701 3.70479Z"/>
</mask>
<path fill-rule="evenodd" clip-rule="evenodd" d="M10.7701 3.70479C13.323 3.13744 16.3636 2.95312 19.8798 2.95312H24.9746C28.1337 2.95312 31.0839 4.53198 32.8363 7.16057L35.3953 10.9992C35.9795 11.8753 36.9628 12.4017 38.016 12.4017H53.9381C58.9695 12.4017 63.0475 16.3737 62.9996 21.4887C62.9423 27.5799 62.9905 33.6733 62.9905 39.7647C62.9905 43.2809 62.8062 46.3214 62.2387 48.8744C61.6636 51.4633 60.6532 53.7395 58.8693 55.5234C57.0854 57.3073 54.8093 58.3176 52.2203 58.8927C49.6673 59.4603 46.6268 59.6445 43.1107 59.6445H19.8798C16.3636 59.6445 13.323 59.4603 10.7701 58.8927C8.18133 58.3176 5.90498 57.3073 4.12109 55.5234C2.33723 53.7395 1.32699 51.4633 0.751665 48.8744C0.18431 46.3214 0 43.2809 0 39.7647V22.8329C0 19.3167 0.18431 16.2762 0.751665 13.7232C1.32699 11.1345 2.33723 8.8581 4.12109 7.07421C5.90498 5.29035 8.18133 4.28011 10.7701 3.70479Z" stroke="#075985" stroke-width="12" mask="url(#path-1-inside-1_715_3060)"/>
<g clip-path="url(#clip1_715_3060)">
<path fill-rule="evenodd" clip-rule="evenodd" d="M28.4359 49C28.4359 47.8955 29.3313 47 30.4359 47H44.8975C46.002 47 46.8975 47.8955 46.8975 49C46.8975 50.1045 46.002 51 44.8975 51H30.4359C29.3313 51 28.4359 50.1045 28.4359 49ZM28.4359 41.6667C28.4359 40.5621 29.3313 39.6667 30.4359 39.6667H44.8975C46.002 39.6667 46.8975 40.5621 46.8975 41.6667C46.8975 42.7712 46.002 43.6667 44.8975 43.6667H30.4359C29.3313 43.6667 28.4359 42.7712 28.4359 41.6667ZM28.4359 34.3333C28.4359 33.2288 29.3313 32.3333 30.4359 32.3333H44.8975C46.002 32.3333 46.8975 33.2288 46.8975 34.3333C46.8975 35.4379 46.002 36.3333 44.8975 36.3333H30.4359C29.3313 36.3333 28.4359 35.4379 28.4359 34.3333ZM39 28.3333H28.3333C26.1242 28.3333 24.3333 30.1242 24.3333 32.3333V43H19C16.7909 43 15 41.2092 15 39V23C15 20.7909 16.7909 19 19 19H35C37.2092 19 39 20.7909 39 23V28.3333Z" fill="#38BDF8"/>
</g>
</g>
<defs>
<clipPath id="clip0_715_3060">
<rect width="63" height="63" fill="white"/>
</clipPath>
<clipPath id="clip1_715_3060">
<rect width="32" height="32" fill="white" transform="translate(15 19)"/>
</clipPath>
</defs>
</svg>
