<svg width="64" height="64" viewBox="0 0 64 64" fill="none" xmlns="http://www.w3.org/2000/svg">
<g clip-path="url(#clip0_711_2578)">
<path fill-rule="evenodd" clip-rule="evenodd" d="M10.941 3.7636C13.5345 3.18724 16.6233 3 20.1953 3H25.371C28.5803 3 31.5773 4.60392 33.3575 7.27423L35.9571 11.1738C36.5506 12.0638 37.5495 12.5985 38.6194 12.5985H54.7943C59.9055 12.5985 64.0482 16.6336 63.9996 21.8298C63.9413 28.0176 63.9903 34.2078 63.9903 40.3959C63.9903 43.9679 63.8031 47.0567 63.2266 49.6502C62.6423 52.2802 61.6159 54.5925 59.8037 56.4047C57.9915 58.2169 55.6792 59.2433 53.0492 59.8275C50.4557 60.4041 47.3669 60.5913 43.795 60.5913H20.1953C16.6233 60.5913 13.5345 60.4041 10.941 59.8275C8.31119 59.2433 5.99871 58.2169 4.1865 56.4047C2.37433 54.5925 1.34805 52.2802 0.763597 49.6502C0.187236 47.0567 0 43.9679 0 40.3959V23.1953C0 19.6233 0.187236 16.5345 0.763597 13.941C1.34805 11.3112 2.37433 8.99871 4.1865 7.1865C5.99871 5.37433 8.31119 4.34805 10.941 3.7636Z" fill="#1E40AF"/>
<g clip-path="url(#clip1_711_2578)">
<path fill-rule="evenodd" clip-rule="evenodd" d="M32.8 20V28V28.0871C32.7998 28.7656 32.7997 29.425 32.8728 29.9688C32.9552 30.582 33.1562 31.2816 33.7373 31.8627C34.3184 32.4439 35.0181 32.6447 35.6312 32.7272C36.175 32.8003 36.8344 32.8002 37.513 32.8H37.6H45.6V42.4C45.6 46.9254 45.6 49.1882 44.1941 50.5941C42.7882 52 40.5254 52 36 52H29.6C25.0745 52 22.8118 52 21.4059 50.5941C20 49.1882 20 46.9254 20 42.4V29.6C20 25.0745 20 22.8118 21.4059 21.4059C22.8118 20 25.0745 20 29.6 20H32.8ZM36 20.0074V28C36 28.7995 36.0034 29.2381 36.0443 29.5424L36.0459 29.5541L36.0576 29.5557C36.3619 29.5966 36.8005 29.6 37.6 29.6H45.5926C45.5763 28.9414 45.524 28.5055 45.3565 28.1009C45.1128 27.5128 44.6504 27.0504 43.7254 26.1255L39.4746 21.8745C38.5496 20.9496 38.0872 20.4872 37.499 20.2436C37.0944 20.076 36.6586 20.0237 36 20.0074ZM26.4 37.6C26.4 36.7163 27.1164 36 28 36H37.6C38.4837 36 39.2 36.7163 39.2 37.6C39.2 38.4837 38.4837 39.2 37.6 39.2H28C27.1164 39.2 26.4 38.4837 26.4 37.6ZM28 42.4C27.1164 42.4 26.4 43.1163 26.4 44C26.4 44.8837 27.1164 45.6 28 45.6H34.4C35.2837 45.6 36 44.8837 36 44C36 43.1163 35.2837 42.4 34.4 42.4H28Z" fill="#60A5FA"/>
</g>
</g>
<defs>
<clipPath id="clip0_711_2578">
<rect width="64" height="64" fill="white"/>
</clipPath>
<clipPath id="clip1_711_2578">
<rect width="32" height="32" fill="white" transform="translate(17 20)"/>
</clipPath>
</defs>
</svg>
