<svg width="64" height="64" viewBox="0 0 64 64" fill="none" xmlns="http://www.w3.org/2000/svg">
<g clip-path="url(#clip0_715_3711)">
<path d="M6.3078 9.30784C6.30782 9.30783 6.30783 9.30782 6.30784 9.3078C7.59221 8.02348 9.31785 7.19752 11.5919 6.69215C13.863 6.18742 16.6923 6 20.1953 6H25.371C27.5772 6 29.6375 7.10261 30.8613 8.93829C30.8613 8.9383 30.8613 8.93832 30.8614 8.93833L33.4609 12.8379L33.4612 12.8382C34.6109 14.5624 36.5463 15.5985 38.6194 15.5985H54.7943C58.2819 15.5985 61.0323 18.3172 60.9997 21.8017C60.9596 26.0676 60.9702 30.3466 60.9807 34.6045C60.9855 36.5404 60.9903 38.472 60.9903 40.3959C60.9903 43.8989 60.8029 46.7281 60.2981 48.9992L60.298 48.9997C59.7929 51.2734 58.9669 52.999 57.6824 54.2834C56.398 55.5678 54.6725 56.3938 52.3987 56.8989L52.3982 56.899C50.1272 57.4039 47.298 57.5913 43.795 57.5913H20.1953C16.6922 57.5913 13.8631 57.4039 11.5921 56.899L11.5916 56.8989C9.3179 56.3938 7.59223 55.5678 6.30782 54.2834C5.02346 52.999 4.19752 51.2735 3.69216 48.9994L0.763596 49.6502M6.3078 9.30784L4.1865 7.1865C2.37433 8.99871 1.34805 11.3112 0.763596 13.941C0.187236 16.5345 0 19.6233 0 23.1953V40.3959C0 43.9679 0.187236 47.0567 0.763596 49.6502M6.3078 9.30784C5.02348 10.5922 4.19752 12.3179 3.69215 14.5919M6.3078 9.30784L3.69215 14.5919M0.763596 49.6502L3.69215 48.9994C3.18742 46.7282 3 43.8989 3 40.3959V23.1953C3 19.6923 3.18742 16.863 3.69215 14.5919M0.763596 49.6502L3.69215 14.5919M3.69215 14.5919L0.76767 13.9419L3.69215 14.5919Z" stroke="#1E40AF" stroke-width="6"/>
<path d="M43.899 33.3749C44.2036 33.7124 44.2759 34.292 44.1166 35.1131C43.9501 35.9683 43.6297 36.5783 43.1549 36.944C42.6797 37.3097 41.9571 37.4926 40.9867 37.4926H39.5225L40.4213 32.8685H42.0704C42.9851 32.8685 43.5943 33.0374 43.899 33.3749ZM23.2845 32.8685H21.6354L20.7365 37.4926H22.2006C23.1708 37.4926 23.8937 37.3097 24.3689 36.944C24.8438 36.5783 25.1641 35.9682 25.3305 35.1131C25.4898 34.292 25.4175 33.7124 25.1129 33.3749C24.8083 33.0374 24.1991 32.8685 23.2845 32.8685ZM52.959 35.9999C52.959 42.089 43.5752 47.0251 32 47.0251C20.4248 47.0251 11.041 42.089 11.041 35.9999C11.041 29.9108 20.4248 24.9746 32 24.9746C43.5752 24.9746 52.959 29.9108 52.959 35.9999ZM27.2866 36.7616C27.536 36.3147 27.7135 35.8214 27.8185 35.282C28.0729 33.9722 27.8809 32.9521 27.2423 32.2212C26.604 31.4903 25.5881 31.125 24.196 31.125H19.5675L17.4202 42.1736H19.8271L20.3979 39.2365H22.4597C23.3692 39.2365 24.1175 39.141 24.705 38.9496C25.2925 38.7586 25.8263 38.4383 26.3069 37.9883C26.7101 37.6175 27.0365 37.2088 27.2866 36.7616ZM35.7582 39.2365L36.7574 34.0946C36.9608 33.0489 36.8082 32.2923 36.3003 31.8253C35.7921 31.3587 34.869 31.125 33.5303 31.125H31.403L31.974 28.1874H29.5861L27.4383 39.2364H29.8263L31.0564 32.9065H32.965C33.576 32.9065 33.9754 33.0075 34.163 33.2098C34.3506 33.4122 34.3905 33.7915 34.2824 34.3475L33.3324 39.2364H35.7582V39.2365ZM46.0282 32.2212C45.39 31.4904 44.3742 31.1251 42.982 31.1251H38.3535L36.2061 42.1737H38.6131L39.1838 39.2366H41.2457C42.1551 39.2366 42.9035 39.1411 43.4909 38.9497C44.0784 38.7586 44.6122 38.4384 45.0928 37.9884C45.4964 37.6175 45.8226 37.2089 46.0725 36.7617C46.3222 36.3148 46.4993 35.8215 46.6044 35.2821C46.8589 33.9722 46.6669 32.9521 46.0282 32.2212Z" fill="#60A5FA"/>
</g>
<defs>
<clipPath id="clip0_715_3711">
<rect width="64" height="64" fill="white"/>
</clipPath>
</defs>
</svg>
