<svg width="64" height="64" viewBox="0 0 64 64" fill="none" xmlns="http://www.w3.org/2000/svg">
<g clip-path="url(#clip0_717_3826)">
<path fill-rule="evenodd" clip-rule="evenodd" d="M10.941 3.7636C13.5345 3.18724 16.6233 3 20.1953 3H25.371C28.5803 3 31.5773 4.60392 33.3575 7.27423L35.9571 11.1738C36.5506 12.0638 37.5495 12.5985 38.6194 12.5985H54.7943C59.9055 12.5985 64.0482 16.6336 63.9996 21.8298C63.9413 28.0176 63.9903 34.2078 63.9903 40.3959C63.9903 43.9679 63.8031 47.0567 63.2266 49.6502C62.6423 52.2802 61.6159 54.5925 59.8037 56.4047C57.9915 58.2169 55.6792 59.2433 53.0492 59.8275C50.4557 60.4041 47.3669 60.5913 43.795 60.5913H20.1953C16.6233 60.5913 13.5345 60.4041 10.941 59.8275C8.31119 59.2433 5.99871 58.2169 4.1865 56.4047C2.37433 54.5925 1.34805 52.2802 0.763597 49.6502C0.187236 47.0567 0 43.9679 0 40.3959V23.1953C0 19.6233 0.187236 16.5345 0.763597 13.941C1.34805 11.3112 2.37433 8.99871 4.1865 7.1865C5.99871 5.37433 8.31119 4.34805 10.941 3.7636Z" fill="#115E59"/>
<g clip-path="url(#clip1_717_3826)">
<path d="M38.5787 31.3587C38.731 31.4353 38.8679 31.5393 38.9827 31.6654L42.1147 30.272L39.192 27.3774L38.5373 31.316L38.5787 31.3587ZM32.08 28.728C32.2321 28.9575 32.3276 29.2198 32.3587 29.4934L37.0213 31.4694C37.1626 31.3612 37.3233 31.281 37.4947 31.2334L38.26 26.5L35.42 23.5214L32.08 28.6574V28.728ZM47.9907 36.0494L42.9933 31.052L39.596 32.444L47.948 35.9934C47.948 35.9934 48.0187 36.0494 47.9907 36.0494ZM47.1547 36.8574L39.1373 33.432C39.0257 33.5801 38.8857 33.7043 38.7254 33.7975C38.5651 33.8907 38.3879 33.9509 38.204 33.9747L37.3413 39.2507C37.5987 39.51 37.7438 39.86 37.7453 40.2254L42.5893 41.2414L47.0293 36.828V36.7454L47.1547 36.8574ZM36.5333 32.3334L32.176 30.48C32.0257 30.7101 31.8186 30.8976 31.5748 31.0244C31.331 31.1512 31.0587 31.213 30.784 31.204H30.5187L26.9133 36.7734L36.5467 32.5974V32.6107C36.5397 32.5366 36.5397 32.4621 36.5467 32.388C36.5484 32.3785 36.5481 32.3687 36.5458 32.3593C36.5435 32.3499 36.5393 32.341 36.5333 32.3334ZM41.8227 42.0774L37.5627 41.2C37.4026 41.4047 37.1909 41.563 36.9493 41.6587L35.9347 47.952L41.8507 42.0907C41.8507 42.0907 41.8373 42.1174 41.8227 42.1174V42.0774ZM35.864 41.6454C35.6626 41.5628 35.4834 41.4341 35.3408 41.2697C35.1981 41.1053 35.096 40.9097 35.0427 40.6987L27.1093 39.0694L26.9973 39.2507L34.1947 49.664L34.6253 49.232L35.8507 41.672C35.8507 41.672 35.892 41.7014 35.864 41.6867V41.6454ZM27.276 38.1094L35.1133 39.724C35.226 39.5273 35.3849 39.3611 35.5764 39.2398C35.7679 39.1185 35.986 39.0458 36.212 39.028L37.0613 33.836L36.8813 33.6827L27.1373 37.8587C27.1885 37.9394 27.2348 38.0231 27.276 38.1094ZM23.9907 39.4174L23.824 39.2507L20.4413 40.6427L22.084 42.272L23.9493 39.376L23.9907 39.4174ZM26.2173 39.9467C25.9818 40.055 25.7259 40.1118 25.4667 40.1134C25.2627 40.1142 25.0599 40.0813 24.8667 40.016L22.808 43.0094L31.828 51.9454L33.4147 50.372L26.2173 39.9467ZM24.9507 36.4254C25.0899 36.4125 25.2301 36.4125 25.3693 36.4254C25.5216 36.4062 25.6757 36.4062 25.828 36.4254L29.4747 30.7587C29.1898 30.4638 29.0302 30.07 29.0293 29.66C29.0162 29.5399 29.0162 29.4188 29.0293 29.2987L24.6027 27.252L21.04 30.7187L24.9507 36.4254ZM25.3547 26.556L29.6707 28.3934C29.9833 28.1361 30.3794 28.0024 30.784 28.0174C30.9636 28.0189 31.142 28.0472 31.3133 28.1014L34.6813 22.8387L31.8973 20.0547L25.3547 26.472C25.3547 26.472 25.3413 26.5414 25.3547 26.556ZM23.7413 37.4414C23.828 37.2795 23.9356 37.1297 24.0613 36.996L20.3707 31.484L16 35.7294L23.7387 37.4414H23.7413ZM23.392 38.3747L16.7107 36.98L19.648 39.96L23.3507 38.3867L23.392 38.3747Z" fill="#2DD4BF"/>
</g>
</g>
<defs>
<clipPath id="clip0_717_3826">
<rect width="64" height="64" fill="white"/>
</clipPath>
<clipPath id="clip1_717_3826">
<rect width="32" height="32" fill="white" transform="translate(16 20)"/>
</clipPath>
</defs>
</svg>
