<svg width="64" height="64" viewBox="0 0 64 64" fill="none" xmlns="http://www.w3.org/2000/svg">
<g clip-path="url(#clip0_712_2658)">
<path fill-rule="evenodd" clip-rule="evenodd" d="M10.941 3.7636C13.5345 3.18724 16.6233 3 20.1953 3H25.371C28.5803 3 31.5773 4.60392 33.3575 7.27423L35.9571 11.1738C36.5506 12.0638 37.5495 12.5985 38.6194 12.5985H54.7943C59.9055 12.5985 64.0482 16.6336 63.9996 21.8298C63.9413 28.0176 63.9903 34.2078 63.9903 40.3959C63.9903 43.9679 63.8031 47.0567 63.2266 49.6502C62.6423 52.2802 61.6159 54.5925 59.8037 56.4047C57.9915 58.2169 55.6792 59.2433 53.0492 59.8275C50.4557 60.4041 47.3669 60.5913 43.795 60.5913H20.1953C16.6233 60.5913 13.5345 60.4041 10.941 59.8275C8.31119 59.2433 5.99871 58.2169 4.1865 56.4047C2.37433 54.5925 1.34805 52.2802 0.763597 49.6502C0.187236 47.0567 0 43.9679 0 40.3959V23.1953C0 19.6233 0.187236 16.5345 0.763597 13.941C1.34805 11.3112 2.37433 8.99871 4.1865 7.1865C5.99871 5.37433 8.31119 4.34805 10.941 3.7636Z" fill="#991B1B"/>
<path d="M20.9286 38.4286C21.9893 38.4286 22.8571 37.5607 22.8571 36.5C22.8571 35.4393 21.9893 34.5714 20.9286 34.5714C19.8679 34.5714 19 35.4393 19 36.5C19 37.5607 19.8679 38.4286 20.9286 38.4286Z" stroke="#F87171" stroke-width="3.85714"/>
<path d="M20.9286 26.8571C21.9893 26.8571 22.8571 25.9893 22.8571 24.9286C22.8571 23.8679 21.9893 23 20.9286 23C19.8679 23 19 23.8679 19 24.9286C19 25.9893 19.8679 26.8571 20.9286 26.8571Z" stroke="#F87171" stroke-width="3.85714"/>
<path d="M20.9286 50C21.9893 50 22.8571 49.1321 22.8571 48.0714C22.8571 47.0107 21.9893 46.1429 20.9286 46.1429C19.8679 46.1429 19 47.0107 19 48.0714C19 49.1321 19.8679 50 20.9286 50Z" stroke="#F87171" stroke-width="3.85714"/>
<path d="M32.5 38.4286C33.5607 38.4286 34.4286 37.5607 34.4286 36.5C34.4286 35.4393 33.5607 34.5714 32.5 34.5714C31.4393 34.5714 30.5714 35.4393 30.5714 36.5C30.5714 37.5607 31.4393 38.4286 32.5 38.4286Z" stroke="#F87171" stroke-width="3.85714"/>
<path d="M32.5 26.8571C33.5607 26.8571 34.4286 25.9893 34.4286 24.9286C34.4286 23.8679 33.5607 23 32.5 23C31.4393 23 30.5714 23.8679 30.5714 24.9286C30.5714 25.9893 31.4393 26.8571 32.5 26.8571Z" stroke="#F87171" stroke-width="3.85714"/>
<path d="M32.5 50C33.5607 50 34.4286 49.1321 34.4286 48.0714C34.4286 47.0107 33.5607 46.1429 32.5 46.1429C31.4393 46.1429 30.5714 47.0107 30.5714 48.0714C30.5714 49.1321 31.4393 50 32.5 50Z" stroke="#F87171" stroke-width="3.85714"/>
<path d="M44.0714 38.4286C45.1321 38.4286 46 37.5607 46 36.5C46 35.4393 45.1321 34.5714 44.0714 34.5714C43.0107 34.5714 42.1429 35.4393 42.1429 36.5C42.1429 37.5607 43.0107 38.4286 44.0714 38.4286Z" stroke="#F87171" stroke-width="3.85714"/>
<path d="M44.0714 26.8571C45.1321 26.8571 46 25.9893 46 24.9286C46 23.8679 45.1321 23 44.0714 23C43.0107 23 42.1429 23.8679 42.1429 24.9286C42.1429 25.9893 43.0107 26.8571 44.0714 26.8571Z" stroke="#F87171" stroke-width="3.85714"/>
<path d="M44.0714 50C45.1321 50 46 49.1321 46 48.0714C46 47.0107 45.1321 46.1429 44.0714 46.1429C43.0107 46.1429 42.1429 47.0107 42.1429 48.0714C42.1429 49.1321 43.0107 50 44.0714 50Z" stroke="#F87171" stroke-width="3.85714"/>
</g>
<defs>
<clipPath id="clip0_712_2658">
<rect width="64" height="64" fill="white"/>
</clipPath>
</defs>
</svg>
