<svg width="64" height="64" viewBox="0 0 64 64" fill="none" xmlns="http://www.w3.org/2000/svg">
<g clip-path="url(#clip0_715_2567)">
<mask id="path-1-inside-1_715_2567" fill="white">
<path fill-rule="evenodd" clip-rule="evenodd" d="M10.9412 3.7636C13.5346 3.18724 16.6234 3 20.1955 3H25.3711C28.5804 3 31.5774 4.60392 33.3576 7.27423L35.9572 11.1738C36.5507 12.0638 37.5496 12.5985 38.6195 12.5985H54.7944C59.9056 12.5985 64.0483 16.6336 63.9997 21.8298C63.9415 28.0176 63.9904 34.2078 63.9904 40.3959C63.9904 43.9679 63.8032 47.0567 63.2267 49.6502C62.6425 52.2802 61.6161 54.5925 59.8039 56.4047C57.9917 58.2169 55.6794 59.2433 53.0494 59.8275C50.4558 60.4041 47.367 60.5913 43.7951 60.5913H20.1955C16.6234 60.5913 13.5346 60.4041 10.9412 59.8275C8.31131 59.2433 5.99883 58.2169 4.18662 56.4047C2.37445 54.5925 1.34817 52.2802 0.763719 49.6502C0.187358 47.0567 0.00012207 43.9679 0.00012207 40.3959V23.1953C0.00012207 19.6233 0.187358 16.5345 0.763719 13.941C1.34817 11.3112 2.37445 8.99871 4.18662 7.1865C5.99883 5.37433 8.31131 4.34805 10.9412 3.7636Z"/>
</mask>
<path fill-rule="evenodd" clip-rule="evenodd" d="M10.9412 3.7636C13.5346 3.18724 16.6234 3 20.1955 3H25.3711C28.5804 3 31.5774 4.60392 33.3576 7.27423L35.9572 11.1738C36.5507 12.0638 37.5496 12.5985 38.6195 12.5985H54.7944C59.9056 12.5985 64.0483 16.6336 63.9997 21.8298C63.9415 28.0176 63.9904 34.2078 63.9904 40.3959C63.9904 43.9679 63.8032 47.0567 63.2267 49.6502C62.6425 52.2802 61.6161 54.5925 59.8039 56.4047C57.9917 58.2169 55.6794 59.2433 53.0494 59.8275C50.4558 60.4041 47.367 60.5913 43.7951 60.5913H20.1955C16.6234 60.5913 13.5346 60.4041 10.9412 59.8275C8.31131 59.2433 5.99883 58.2169 4.18662 56.4047C2.37445 54.5925 1.34817 52.2802 0.763719 49.6502C0.187358 47.0567 0.00012207 43.9679 0.00012207 40.3959V23.1953C0.00012207 19.6233 0.187358 16.5345 0.763719 13.941C1.34817 11.3112 2.37445 8.99871 4.18662 7.1865C5.99883 5.37433 8.31131 4.34805 10.9412 3.7636Z" stroke="#9A3412" stroke-width="12" mask="url(#path-1-inside-1_715_2567)"/>
<g clip-path="url(#clip1_715_2567)">
<path fill-rule="evenodd" clip-rule="evenodd" d="M43.2 38.5236H38.4C35.7488 38.5236 33.6 40.5701 33.6 43.0951V47.6665C33.6 50.1914 35.7488 52.2379 38.4 52.2379H43.2C45.8512 52.2379 48 50.1914 48 47.6665V43.0951C48 40.5701 45.8512 38.5236 43.2 38.5236ZM25.6 38.5236H20.8C18.1488 38.5236 16 40.5701 16 43.0951V47.6665C16 50.1914 18.1488 52.2379 20.8 52.2379H25.6C28.2512 52.2379 30.4 50.1914 30.4 47.6665V43.0951C30.4 40.5701 28.2512 38.5236 25.6 38.5236ZM43.2 21.7617H38.4C35.7488 21.7617 33.6 23.8082 33.6 26.3331V30.9046C33.6 33.4295 35.7488 35.476 38.4 35.476H43.2C45.8512 35.476 48 33.4295 48 30.9046V26.3331C48 23.8082 45.8512 21.7617 43.2 21.7617ZM30.4 26.3331V30.9046C30.4 33.4295 28.2512 35.476 25.6 35.476H20.8C18.1488 35.476 16 33.4295 16 30.9046V26.3331C16 23.8082 18.1488 21.7617 20.8 21.7617H25.6C28.2512 21.7617 30.4 23.8082 30.4 26.3331Z" fill="#FB923C"/>
</g>
</g>
<defs>
<clipPath id="clip0_715_2567">
<rect width="64" height="64" fill="white"/>
</clipPath>
<clipPath id="clip1_715_2567">
<rect width="32" height="32" fill="white" transform="translate(16 21)"/>
</clipPath>
</defs>
</svg>
