<svg width="64" height="64" viewBox="0 0 64 64" fill="none" xmlns="http://www.w3.org/2000/svg">
<g clip-path="url(#clip0_715_2506)">
<mask id="path-1-inside-1_715_2506" fill="white">
<path fill-rule="evenodd" clip-rule="evenodd" d="M10.9412 3.7636C13.5346 3.18724 16.6234 3 20.1955 3H25.3711C28.5804 3 31.5774 4.60392 33.3576 7.27423L35.9572 11.1738C36.5507 12.0638 37.5496 12.5985 38.6195 12.5985H54.7944C59.9056 12.5985 64.0483 16.6336 63.9997 21.8298C63.9415 28.0176 63.9904 34.2078 63.9904 40.3959C63.9904 43.9679 63.8032 47.0567 63.2267 49.6502C62.6425 52.2802 61.6161 54.5925 59.8039 56.4047C57.9917 58.2169 55.6794 59.2433 53.0494 59.8275C50.4558 60.4041 47.367 60.5913 43.7951 60.5913H20.1955C16.6234 60.5913 13.5346 60.4041 10.9412 59.8275C8.31131 59.2433 5.99883 58.2169 4.18662 56.4047C2.37445 54.5925 1.34817 52.2802 0.763719 49.6502C0.187358 47.0567 0.00012207 43.9679 0.00012207 40.3959V23.1953C0.00012207 19.6233 0.187358 16.5345 0.763719 13.941C1.34817 11.3112 2.37445 8.99871 4.18662 7.1865C5.99883 5.37433 8.31131 4.34805 10.9412 3.7636Z"/>
</mask>
<path fill-rule="evenodd" clip-rule="evenodd" d="M10.9412 3.7636C13.5346 3.18724 16.6234 3 20.1955 3H25.3711C28.5804 3 31.5774 4.60392 33.3576 7.27423L35.9572 11.1738C36.5507 12.0638 37.5496 12.5985 38.6195 12.5985H54.7944C59.9056 12.5985 64.0483 16.6336 63.9997 21.8298C63.9415 28.0176 63.9904 34.2078 63.9904 40.3959C63.9904 43.9679 63.8032 47.0567 63.2267 49.6502C62.6425 52.2802 61.6161 54.5925 59.8039 56.4047C57.9917 58.2169 55.6794 59.2433 53.0494 59.8275C50.4558 60.4041 47.367 60.5913 43.7951 60.5913H20.1955C16.6234 60.5913 13.5346 60.4041 10.9412 59.8275C8.31131 59.2433 5.99883 58.2169 4.18662 56.4047C2.37445 54.5925 1.34817 52.2802 0.763719 49.6502C0.187358 47.0567 0.00012207 43.9679 0.00012207 40.3959V23.1953C0.00012207 19.6233 0.187358 16.5345 0.763719 13.941C1.34817 11.3112 2.37445 8.99871 4.18662 7.1865C5.99883 5.37433 8.31131 4.34805 10.9412 3.7636Z" stroke="#6B21A8" stroke-width="12" mask="url(#path-1-inside-1_715_2506)"/>
<g clip-path="url(#clip1_715_2506)">
<path d="M20.706 47.5133C22.15 48.9055 23.8776 50.0403 25.8889 50.8139C27.9002 51.5874 30.1436 52 32.5674 52C35.2749 52 37.7761 51.5874 40.0195 50.7368C42.0565 49.989 40.3031 46.1982 38.8075 46.8173C37.1575 47.5136 35.146 47.8746 32.8508 47.8746C31.0458 47.8746 29.3958 47.5909 27.9515 47.0497C26.5075 46.5079 25.244 45.7343 24.2126 44.729C23.1812 43.7233 22.356 42.4856 21.7887 41.0674C21.1957 39.6231 20.912 37.9731 20.912 36.1681C20.912 34.4663 21.1957 32.8418 21.763 31.3978C22.3302 29.9538 23.1038 28.6645 24.1352 27.6331C25.1409 26.5759 26.3786 25.7249 27.7968 25.1319C29.215 24.5388 30.8137 24.2294 32.5671 24.2294C34.1919 24.2294 35.6872 24.4614 37.0283 24.874C38.3434 25.2866 39.478 25.9312 40.4318 26.7821C41.3858 27.6331 42.1336 28.6645 42.6751 29.9022C43.2169 31.1399 43.4747 32.5839 43.4747 34.2342C43.4747 35.1883 43.3716 36.0908 43.165 36.9417C42.959 37.741 42.7012 38.4628 42.3402 39.0303C42.0047 39.5721 41.6179 40.0102 41.154 40.3196C40.6123 40.6806 39.8129 40.8869 39.1941 40.6806C38.4205 40.4228 38.5755 39.3398 38.6268 38.6951C38.7044 37.8184 38.9362 36.9933 39.1167 36.1423C39.4003 34.7499 39.7098 33.3833 39.9934 32.0166C40.1481 31.2688 40.3284 30.4953 40.4831 29.7475C40.6894 28.7934 39.9674 27.8651 38.962 27.8651H37.8274C37.1312 27.8651 36.5124 28.3293 36.3316 28.9997C36.2545 29.3091 36.1769 29.567 36.1769 29.567C35.6099 27.8136 33.521 27.3236 31.8707 27.3494C29.7047 27.3752 27.7192 28.484 26.2752 30.0569C26.1463 30.2116 25.9915 30.3663 25.8626 30.5211C25.1148 31.4236 24.5475 32.4808 24.1608 33.5896C23.7482 34.7757 23.5419 35.9876 23.5419 37.2253C23.5419 38.2828 23.6966 39.2882 23.9803 40.1907C24.2897 41.1192 24.728 41.9183 25.2953 42.5887C25.8626 43.2594 26.5846 43.8007 27.4355 44.1875C28.2865 44.5742 29.2405 44.7805 30.272 44.7805C31.0455 44.7805 31.7675 44.6516 32.4122 44.4198C33.031 44.1877 33.5983 43.9041 34.0882 43.5689C34.475 43.311 34.836 43.0016 35.1197 42.7177C35.2999 43.0531 35.5065 43.3365 35.7901 43.6202C36.5124 44.3937 37.6209 44.7805 39.0909 44.7805C40.2513 44.7805 41.3856 44.5487 42.4431 44.0846C43.5003 43.6202 44.4541 42.8982 45.2534 41.9702C46.027 41.0416 46.6716 39.9073 47.1358 38.5664C47.6002 37.2256 47.832 35.6785 47.832 33.9766C47.832 31.6559 47.3936 29.593 46.5427 27.8654C45.6918 26.1378 44.5314 24.668 43.0877 23.5076C41.6695 22.3473 40.0192 21.4963 38.1884 20.9033C36.3837 20.2836 34.5013 20 32.5674 20C30.3241 20 28.1838 20.4126 26.1983 21.2119C24.2128 22.0371 22.4594 23.1716 20.9896 24.5898C19.4941 26.0081 18.3079 27.7357 17.457 29.6696C16.6061 31.6035 16.1677 33.7695 16.1677 36.0387C16.1677 38.3333 16.5545 40.4996 17.3539 42.4335C18.1274 44.3932 19.262 46.0951 20.706 47.5133ZM34.6558 36.6833C34.4755 37.3795 34.2177 38.05 33.8564 38.6688C33.4954 39.2619 33.0571 39.7516 32.4898 40.1383C31.9741 40.4993 31.3552 40.6801 30.5816 40.6801C30.0917 40.6801 29.7049 40.577 29.4213 40.3962C29.1119 40.1899 28.854 39.9321 28.6735 39.5968C28.4672 39.2358 28.3383 38.8491 28.2609 38.4623C28.1836 38.0497 28.132 37.6629 28.132 37.328C28.132 36.606 28.2352 35.884 28.4414 35.1362C28.6477 34.4142 28.9314 33.7438 29.3182 33.1765C29.7049 32.6092 30.1433 32.145 30.6848 31.784C31.1747 31.4488 31.7162 31.2941 32.3609 31.2941C32.8766 31.2941 33.2894 31.3715 33.5986 31.552C33.908 31.7325 34.1659 31.9645 34.3464 32.2482C34.5526 32.5576 34.6816 32.9186 34.7845 33.3054C34.8876 33.7438 34.9394 34.2079 34.9394 34.6463C34.9136 35.2909 34.8365 35.9613 34.6558 36.6833Z" fill="#C084FC"/>
</g>
</g>
<defs>
<clipPath id="clip0_715_2506">
<rect width="64" height="64" fill="white"/>
</clipPath>
<clipPath id="clip1_715_2506">
<rect width="32" height="32" fill="white" transform="translate(16 20)"/>
</clipPath>
</defs>
</svg>
