<svg width="64" height="64" viewBox="0 0 64 64" fill="none" xmlns="http://www.w3.org/2000/svg">
<g clip-path="url(#clip0_717_4171)">
<mask id="path-1-inside-1_717_4171" fill="white">
<path fill-rule="evenodd" clip-rule="evenodd" d="M10.941 3.7636C13.5345 3.18724 16.6233 3 20.1953 3H25.371C28.5803 3 31.5773 4.60392 33.3575 7.27423L35.9571 11.1738C36.5506 12.0638 37.5495 12.5985 38.6194 12.5985H54.7943C59.9055 12.5985 64.0482 16.6336 63.9996 21.8298C63.9413 28.0176 63.9903 34.2078 63.9903 40.3959C63.9903 43.9679 63.8031 47.0567 63.2266 49.6502C62.6423 52.2802 61.6159 54.5925 59.8037 56.4047C57.9915 58.2169 55.6792 59.2433 53.0492 59.8275C50.4557 60.4041 47.3669 60.5913 43.795 60.5913H20.1953C16.6233 60.5913 13.5345 60.4041 10.941 59.8275C8.31119 59.2433 5.99871 58.2169 4.1865 56.4047C2.37433 54.5925 1.34805 52.2802 0.763596 49.6502C0.187236 47.0567 0 43.9679 0 40.3959V23.1953C0 19.6233 0.187236 16.5345 0.763596 13.941C1.34805 11.3112 2.37433 8.99871 4.1865 7.1865C5.99871 5.37433 8.31119 4.34805 10.941 3.7636Z"/>
</mask>
<path fill-rule="evenodd" clip-rule="evenodd" d="M10.941 3.7636C13.5345 3.18724 16.6233 3 20.1953 3H25.371C28.5803 3 31.5773 4.60392 33.3575 7.27423L35.9571 11.1738C36.5506 12.0638 37.5495 12.5985 38.6194 12.5985H54.7943C59.9055 12.5985 64.0482 16.6336 63.9996 21.8298C63.9413 28.0176 63.9903 34.2078 63.9903 40.3959C63.9903 43.9679 63.8031 47.0567 63.2266 49.6502C62.6423 52.2802 61.6159 54.5925 59.8037 56.4047C57.9915 58.2169 55.6792 59.2433 53.0492 59.8275C50.4557 60.4041 47.3669 60.5913 43.795 60.5913H20.1953C16.6233 60.5913 13.5345 60.4041 10.941 59.8275C8.31119 59.2433 5.99871 58.2169 4.1865 56.4047C2.37433 54.5925 1.34805 52.2802 0.763596 49.6502C0.187236 47.0567 0 43.9679 0 40.3959V23.1953C0 19.6233 0.187236 16.5345 0.763596 13.941C1.34805 11.3112 2.37433 8.99871 4.1865 7.1865C5.99871 5.37433 8.31119 4.34805 10.941 3.7636Z" stroke="#166534" stroke-width="12" mask="url(#path-1-inside-1_717_4171)"/>
<path d="M33.3531 34.895L32.484 35.3295L31.615 34.895L18.7403 28.4576L31.615 21.2156C31.8596 21.0744 32.1372 21 32.4197 21C32.7021 21 32.9797 21.0744 33.2243 21.2156L46.099 28.4576L39.6617 31.6763C39.6214 31.6335 39.5718 31.6005 39.5168 31.5797L33.0795 28.3611C32.7044 28.2049 32.284 28.1963 31.9029 28.3372C31.5217 28.4781 31.208 28.7579 31.0246 29.1206C30.8413 29.4832 30.8019 29.9018 30.9144 30.2922C31.0269 30.6827 31.2829 31.0162 31.6311 31.2257L36.0889 33.4627L33.3531 34.895ZM18 29.8899V44.374C18.0005 44.6591 18.0767 44.939 18.221 45.1851C18.3652 45.4311 18.5722 45.6344 18.8208 45.7741L31.6955 53V36.9066L30.8908 36.5043L18 29.8899ZM46.9681 29.8899L40.5307 33.1086V40.2541C40.5307 40.6809 40.3612 41.0902 40.0593 41.392C39.7575 41.6938 39.3482 41.8634 38.9214 41.8634C38.4945 41.8634 38.0852 41.6938 37.7834 41.392C37.4816 41.0902 37.312 40.6809 37.312 40.2541V34.7179L33.2887 36.7296V52.823L46.1634 45.5971C46.3975 45.4623 46.5939 45.2708 46.7345 45.0402C46.8751 44.8095 46.9554 44.5472 46.9681 44.2774V29.7934C46.9765 29.8081 46.981 29.8247 46.981 29.8417C46.981 29.8586 46.9765 29.8753 46.9681 29.8899Z" fill="#22C55E"/>
</g>
<defs>
<clipPath id="clip0_717_4171">
<rect width="64" height="64" fill="white"/>
</clipPath>
</defs>
</svg>
