<svg width="63" height="63" viewBox="0 0 63 63" fill="none" xmlns="http://www.w3.org/2000/svg">
<g clip-path="url(#clip0_715_3147)">
<mask id="path-1-inside-1_715_3147" fill="white">
<path fill-rule="evenodd" clip-rule="evenodd" d="M10.7701 3.70479C13.323 3.13744 16.3636 2.95312 19.8798 2.95312H24.9746C28.1337 2.95312 31.0839 4.53198 32.8363 7.16057L35.3953 10.9992C35.9795 11.8753 36.9628 12.4017 38.016 12.4017H53.9381C58.9695 12.4017 63.0475 16.3737 62.9996 21.4887C62.9423 27.5799 62.9905 33.6733 62.9905 39.7647C62.9905 43.2809 62.8062 46.3214 62.2387 48.8744C61.6636 51.4633 60.6532 53.7395 58.8693 55.5234C57.0854 57.3073 54.8093 58.3176 52.2203 58.8927C49.6673 59.4603 46.6268 59.6445 43.1107 59.6445H19.8798C16.3636 59.6445 13.323 59.4603 10.7701 58.8927C8.18133 58.3176 5.90498 57.3073 4.12109 55.5234C2.33723 53.7395 1.32699 51.4633 0.751665 48.8744C0.18431 46.3214 0 43.2809 0 39.7647V22.8329C0 19.3167 0.18431 16.2762 0.751665 13.7232C1.32699 11.1345 2.33723 8.8581 4.12109 7.07421C5.90498 5.29035 8.18133 4.28011 10.7701 3.70479Z"/>
</mask>
<path fill-rule="evenodd" clip-rule="evenodd" d="M10.7701 3.70479C13.323 3.13744 16.3636 2.95312 19.8798 2.95312H24.9746C28.1337 2.95312 31.0839 4.53198 32.8363 7.16057L35.3953 10.9992C35.9795 11.8753 36.9628 12.4017 38.016 12.4017H53.9381C58.9695 12.4017 63.0475 16.3737 62.9996 21.4887C62.9423 27.5799 62.9905 33.6733 62.9905 39.7647C62.9905 43.2809 62.8062 46.3214 62.2387 48.8744C61.6636 51.4633 60.6532 53.7395 58.8693 55.5234C57.0854 57.3073 54.8093 58.3176 52.2203 58.8927C49.6673 59.4603 46.6268 59.6445 43.1107 59.6445H19.8798C16.3636 59.6445 13.323 59.4603 10.7701 58.8927C8.18133 58.3176 5.90498 57.3073 4.12109 55.5234C2.33723 53.7395 1.32699 51.4633 0.751665 48.8744C0.18431 46.3214 0 43.2809 0 39.7647V22.8329C0 19.3167 0.18431 16.2762 0.751665 13.7232C1.32699 11.1345 2.33723 8.8581 4.12109 7.07421C5.90498 5.29035 8.18133 4.28011 10.7701 3.70479Z" stroke="#495057" stroke-width="12" mask="url(#path-1-inside-1_715_3147)"/>
<g clip-path="url(#clip1_715_3147)">
<path d="M28.9333 30.2265C28.8541 30.2242 28.7751 30.215 28.696 30.215C26.6263 30.215 24.5567 31.0048 22.9773 32.5837C21.3375 34.2232 20.5572 36.3909 20.6202 38.5388L16.8987 42.2609C14.5243 44.636 14.3534 48.3164 16.5183 50.4807C18.6832 52.6456 22.3631 52.4748 24.7379 50.0996L28.4594 46.3787C28.5383 46.381 28.6176 46.39 28.6965 46.39C30.7661 46.39 32.8358 45.6001 34.4154 44.021C36.0549 42.3815 36.8357 40.2144 36.7725 38.0658L42.7384 32.1L34.8991 24.2607L28.9333 30.2265ZM32.374 41.9802C31.392 42.9622 30.0857 43.5035 28.6966 43.5035C27.3078 43.5035 26.0012 42.9621 25.0194 41.9802C22.9918 39.9528 22.9918 36.6524 25.0194 34.6251C26.0018 33.643 27.3078 33.1015 28.6966 33.1015C30.0858 33.1015 31.3921 33.6425 32.374 34.6251C34.402 36.6531 34.402 39.9528 32.374 41.9802Z" fill="#CED4DA"/>
<path d="M47 26.9437L40.0555 20L35.9207 24.135L42.8652 31.0785L47 26.9437ZM39.0469 23.5814L40.1017 22.5268L41.6257 24.051L40.5709 25.1055L39.0469 23.5814ZM42.6798 25.105L44.2038 26.6292L43.1494 27.684L41.6256 26.1598L42.6798 25.105Z" fill="#CED4DA"/>
</g>
</g>
<defs>
<clipPath id="clip0_715_3147">
<rect width="63" height="63" fill="white"/>
</clipPath>
<clipPath id="clip1_715_3147">
<rect width="32" height="32" fill="white" transform="translate(15 20)"/>
</clipPath>
</defs>
</svg>
