<svg width="64" height="64" viewBox="0 0 64 64" fill="none" xmlns="http://www.w3.org/2000/svg">
<g clip-path="url(#clip0_710_2535)">
<mask id="path-1-inside-1_710_2535" fill="white">
<path fill-rule="evenodd" clip-rule="evenodd" d="M10.941 3.7636C13.5345 3.18724 16.6233 3 20.1953 3H25.371C28.5803 3 31.5773 4.60392 33.3575 7.27423L35.9571 11.1738C36.5506 12.0638 37.5495 12.5985 38.6194 12.5985H54.7943C59.9055 12.5985 64.0482 16.6336 63.9996 21.8298C63.9413 28.0176 63.9903 34.2078 63.9903 40.3959C63.9903 43.9679 63.8031 47.0567 63.2266 49.6502C62.6423 52.2802 61.6159 54.5925 59.8037 56.4047C57.9915 58.2169 55.6792 59.2433 53.0492 59.8275C50.4557 60.4041 47.3669 60.5913 43.795 60.5913H20.1953C16.6233 60.5913 13.5345 60.4041 10.941 59.8275C8.31119 59.2433 5.99871 58.2169 4.1865 56.4047C2.37433 54.5925 1.34805 52.2802 0.763596 49.6502C0.187236 47.0567 0 43.9679 0 40.3959V23.1953C0 19.6233 0.187236 16.5345 0.763596 13.941C1.34805 11.3112 2.37433 8.99871 4.1865 7.1865C5.99871 5.37433 8.31119 4.34805 10.941 3.7636Z"/>
</mask>
<path fill-rule="evenodd" clip-rule="evenodd" d="M10.941 3.7636C13.5345 3.18724 16.6233 3 20.1953 3H25.371C28.5803 3 31.5773 4.60392 33.3575 7.27423L35.9571 11.1738C36.5506 12.0638 37.5495 12.5985 38.6194 12.5985H54.7943C59.9055 12.5985 64.0482 16.6336 63.9996 21.8298C63.9413 28.0176 63.9903 34.2078 63.9903 40.3959C63.9903 43.9679 63.8031 47.0567 63.2266 49.6502C62.6423 52.2802 61.6159 54.5925 59.8037 56.4047C57.9915 58.2169 55.6792 59.2433 53.0492 59.8275C50.4557 60.4041 47.3669 60.5913 43.795 60.5913H20.1953C16.6233 60.5913 13.5345 60.4041 10.941 59.8275C8.31119 59.2433 5.99871 58.2169 4.1865 56.4047C2.37433 54.5925 1.34805 52.2802 0.763596 49.6502C0.187236 47.0567 0 43.9679 0 40.3959V23.1953C0 19.6233 0.187236 16.5345 0.763596 13.941C1.34805 11.3112 2.37433 8.99871 4.1865 7.1865C5.99871 5.37433 8.31119 4.34805 10.941 3.7636Z" stroke="#581C87" stroke-width="12" mask="url(#path-1-inside-1_710_2535)"/>
<g clip-path="url(#clip1_710_2535)">
<path d="M32 21C23.1627 21 16 28.164 16 37C16 45.8373 23.1627 53 32 53C40.836 53 48 45.8373 48 37C48.0006 35.492 47.7883 33.9914 47.3693 32.5427C47.2908 32.3519 47.1416 32.1989 46.9529 32.1155C46.7642 32.0321 46.5506 32.0249 46.3567 32.0952C46.1627 32.1656 46.0035 32.3082 45.9122 32.4932C45.8209 32.6782 45.8046 32.8913 45.8667 33.088H45.864C46.2173 34.3453 46.4 35.6587 46.4 37C46.4052 38.8918 46.0351 40.7659 45.3112 42.5138C44.5873 44.2616 43.524 45.8485 42.1827 47.1827C40.8486 48.524 39.2616 49.5874 37.5138 50.3114C35.7659 51.0353 33.8918 51.4053 32 51.4C30.1082 51.4052 28.2341 51.0352 26.4863 50.3112C24.7384 49.5873 23.1515 48.524 21.8173 47.1827C20.4759 45.8486 19.4125 44.2617 18.6886 42.5138C17.9646 40.766 17.5947 38.8919 17.6 37C17.5948 35.1082 17.9649 33.2341 18.6888 31.4863C19.4127 29.7384 20.476 28.1515 21.8173 26.8173C23.1514 25.4759 24.7383 24.4125 26.4862 23.6886C28.234 22.9647 30.1082 22.5947 32 22.6C35.4347 22.6 38.684 23.7947 41.2773 25.9867C41.1134 26.4027 41.0971 26.8623 41.2311 27.2889C41.3651 27.7155 41.6413 28.0833 42.0136 28.3309C42.3859 28.5784 42.8319 28.6909 43.2771 28.6494C43.7223 28.608 44.1399 28.4152 44.4601 28.1031C44.7804 27.791 44.9839 27.3786 45.0369 26.9346C45.0898 26.4906 44.9889 26.0419 44.751 25.6633C44.5132 25.2847 44.1527 24.9991 43.7297 24.8541C43.3067 24.7091 42.8468 24.7136 42.4267 24.8667C39.5281 22.3677 35.8271 20.9952 32 21ZM30.08 28.84L24.48 43.376H27.9867L28.9027 40.912H34.1947L33.236 38.1893H29.752L32.0187 31.9347L36.0507 43.3747H39.5587L33.96 28.84H30.08Z" fill="#C084FC"/>
</g>
</g>
<defs>
<clipPath id="clip0_710_2535">
<rect width="64" height="64" fill="white"/>
</clipPath>
<clipPath id="clip1_710_2535">
<rect width="32" height="32" fill="white" transform="translate(16 21)"/>
</clipPath>
</defs>
</svg>
