<svg width="64" height="64" viewBox="0 0 64 64" fill="none" xmlns="http://www.w3.org/2000/svg">
<g clip-path="url(#clip0_718_2589)">
<mask id="path-1-inside-1_718_2589" fill="white">
<path fill-rule="evenodd" clip-rule="evenodd" d="M10.941 3.7636C13.5345 3.18724 16.6233 3 20.1953 3H25.371C28.5803 3 31.5773 4.60392 33.3575 7.27423L35.9571 11.1738C36.5506 12.0638 37.5495 12.5985 38.6194 12.5985H54.7943C59.9055 12.5985 64.0482 16.6336 63.9996 21.8298C63.9413 28.0176 63.9903 34.2078 63.9903 40.3959C63.9903 43.9679 63.8031 47.0567 63.2266 49.6502C62.6423 52.2802 61.6159 54.5925 59.8037 56.4047C57.9915 58.2169 55.6792 59.2433 53.0492 59.8275C50.4557 60.4041 47.3669 60.5913 43.795 60.5913H20.1953C16.6233 60.5913 13.5345 60.4041 10.941 59.8275C8.31119 59.2433 5.99871 58.2169 4.1865 56.4047C2.37433 54.5925 1.34805 52.2802 0.763596 49.6502C0.187236 47.0567 0 43.9679 0 40.3959V23.1953C0 19.6233 0.187236 16.5345 0.763596 13.941C1.34805 11.3112 2.37433 8.99871 4.1865 7.1865C5.99871 5.37433 8.31119 4.34805 10.941 3.7636Z"/>
</mask>
<path fill-rule="evenodd" clip-rule="evenodd" d="M10.941 3.7636C13.5345 3.18724 16.6233 3 20.1953 3H25.371C28.5803 3 31.5773 4.60392 33.3575 7.27423L35.9571 11.1738C36.5506 12.0638 37.5495 12.5985 38.6194 12.5985H54.7943C59.9055 12.5985 64.0482 16.6336 63.9996 21.8298C63.9413 28.0176 63.9903 34.2078 63.9903 40.3959C63.9903 43.9679 63.8031 47.0567 63.2266 49.6502C62.6423 52.2802 61.6159 54.5925 59.8037 56.4047C57.9915 58.2169 55.6792 59.2433 53.0492 59.8275C50.4557 60.4041 47.3669 60.5913 43.795 60.5913H20.1953C16.6233 60.5913 13.5345 60.4041 10.941 59.8275C8.31119 59.2433 5.99871 58.2169 4.1865 56.4047C2.37433 54.5925 1.34805 52.2802 0.763596 49.6502C0.187236 47.0567 0 43.9679 0 40.3959V23.1953C0 19.6233 0.187236 16.5345 0.763596 13.941C1.34805 11.3112 2.37433 8.99871 4.1865 7.1865C5.99871 5.37433 8.31119 4.34805 10.941 3.7636Z" stroke="#9D174D" stroke-width="12" mask="url(#path-1-inside-1_718_2589)"/>
<g clip-path="url(#clip1_718_2589)">
<path d="M37.7859 20.3179L37.6249 23.9329C37.6199 24.1359 37.8539 24.2609 38.0159 24.1359L39.4269 23.0679L40.6249 23.9999C40.7809 24.1039 40.9899 23.9999 40.9999 23.8119L40.8649 20.1349L42.6409 19.9999C43.5629 19.9369 44.3489 20.6719 44.3489 21.5989V50.4009C44.3489 51.3179 43.5829 52.0469 42.6669 51.9999L21.1979 51.0419C20.3649 51.0059 19.6929 50.3339 19.6669 49.4949L18.6669 23.0939C18.6149 22.2089 19.2869 21.4479 20.1719 21.4009L37.7709 20.2919L37.7859 20.3179ZM33.6929 32.4009C33.6929 33.0259 37.9069 32.7189 38.4789 32.2919C38.4789 28.0259 36.1869 25.7709 31.9999 25.7709C27.8019 25.7709 25.4689 28.0679 25.4689 31.4949C25.4689 37.4269 33.4689 37.5309 33.4689 40.7709C33.4689 41.7089 33.0419 42.2399 32.0679 42.2399C30.7869 42.2399 30.2659 41.5889 30.3339 39.3599C30.3339 38.8809 25.4689 38.7189 25.3079 39.3599C24.9489 44.7349 28.2819 46.2919 32.1049 46.2919C35.8289 46.2919 38.7349 44.3079 38.7349 40.7189C38.7349 34.3599 30.5999 34.5309 30.5999 31.3859C30.5999 30.0939 31.5639 29.9219 32.1049 29.9219C32.7089 29.9219 33.7719 30.0159 33.6939 32.4119L33.6929 32.4009Z" fill="#F472B6"/>
</g>
</g>
<defs>
<clipPath id="clip0_718_2589">
<rect width="64" height="64" fill="white"/>
</clipPath>
<clipPath id="clip1_718_2589">
<rect width="32" height="32" fill="white" transform="translate(16 20)"/>
</clipPath>
</defs>
</svg>
