<svg width="64" height="64" viewBox="0 0 64 64" fill="none" xmlns="http://www.w3.org/2000/svg">
<g clip-path="url(#clip0_712_2777)">
<path fill-rule="evenodd" clip-rule="evenodd" d="M10.941 3.7636C13.5345 3.18724 16.6233 3 20.1953 3H25.371C28.5803 3 31.5773 4.60392 33.3575 7.27423L35.9571 11.1738C36.5506 12.0638 37.5495 12.5985 38.6194 12.5985H54.7943C59.9055 12.5985 64.0482 16.6336 63.9996 21.8298C63.9413 28.0176 63.9903 34.2078 63.9903 40.3959C63.9903 43.9679 63.8031 47.0567 63.2266 49.6502C62.6423 52.2802 61.6159 54.5925 59.8037 56.4047C57.9915 58.2169 55.6792 59.2433 53.0492 59.8275C50.4557 60.4041 47.3669 60.5913 43.795 60.5913H20.1953C16.6233 60.5913 13.5345 60.4041 10.941 59.8275C8.31119 59.2433 5.99871 58.2169 4.1865 56.4047C2.37433 54.5925 1.34805 52.2802 0.763597 49.6502C0.187236 47.0567 0 43.9679 0 40.3959V23.1953C0 19.6233 0.187236 16.5345 0.763597 13.941C1.34805 11.3112 2.37433 8.99871 4.1865 7.1865C5.99871 5.37433 8.31119 4.34805 10.941 3.7636Z" fill="#6B21A8"/>
<g clip-path="url(#clip1_712_2777)">
<path d="M32 20C31.1224 20 30.2624 20.0736 29.4228 20.2093C29.7911 20.3479 30.2507 20.4226 30.8776 20.3927C33.0342 20.29 34.3705 20.7009 32.8285 21.3181C31.2865 21.9353 31.5734 22.5905 32.2932 22.6418C33.013 22.6931 34.6906 21.9251 35.2473 22.6007C35.8217 23.298 34.6027 24.4419 35.3296 25.6777C36.411 27.5169 32.7122 27.9379 31.7777 29.3169C30.8761 30.6472 30.3676 32.0719 31.3957 33.9817C32.4238 35.8915 32.6656 34.738 34.4733 34.9473C38.0369 35.3597 36.9702 38.1498 41.3607 39.0234C43.0404 39.3577 41.8859 43.0066 38.9384 44.765C36.0976 46.4595 36.9946 48.4033 32.9576 49.6995C31.9875 50.0109 31.2494 49.8321 32.0002 48.7528C33.4564 46.6597 33.33 44.3267 32.0002 43.2824C30.6704 42.2382 29.1797 42.0106 29.5393 40.4025C29.8988 38.7943 31.2906 38.2316 31.3896 36.786C31.4851 35.3918 29.2731 30.6462 26.5084 31.5858C24.9293 32.1227 21.8751 30.1139 22.0367 27.4833C22.2241 24.4271 24.5651 23.9588 24.0394 22.141C24.0378 22.1359 24.0398 22.1293 24.0394 22.1237C19.2368 24.8848 16.0002 30.0631 16.0002 36.0002C16.0002 44.8367 23.1635 51.9999 31.9999 51.9999C40.8364 51.9999 47.9997 44.8367 47.9997 36.0002C47.9997 27.1638 40.8364 20 32 20Z" fill="#C084FC"/>
</g>
</g>
<defs>
<clipPath id="clip0_712_2777">
<rect width="64" height="64" fill="white"/>
</clipPath>
<clipPath id="clip1_712_2777">
<rect width="32" height="32" fill="white" transform="translate(16 20)"/>
</clipPath>
</defs>
</svg>
