<svg width="63" height="63" viewBox="0 0 63 63" fill="none" xmlns="http://www.w3.org/2000/svg">
<g clip-path="url(#clip0_715_2726)">
<mask id="path-1-inside-1_715_2726" fill="white">
<path fill-rule="evenodd" clip-rule="evenodd" d="M10.7701 3.70479C13.323 3.13744 16.3636 2.95312 19.8798 2.95312H24.9746C28.1337 2.95312 31.0839 4.53198 32.8363 7.16057L35.3953 10.9992C35.9795 11.8753 36.9628 12.4017 38.016 12.4017H53.9381C58.9695 12.4017 63.0475 16.3737 62.9996 21.4887C62.9423 27.5799 62.9905 33.6733 62.9905 39.7647C62.9905 43.2809 62.8062 46.3214 62.2387 48.8744C61.6636 51.4633 60.6532 53.7395 58.8693 55.5234C57.0854 57.3073 54.8093 58.3176 52.2203 58.8927C49.6673 59.4603 46.6268 59.6445 43.1107 59.6445H19.8798C16.3636 59.6445 13.323 59.4603 10.7701 58.8927C8.18133 58.3176 5.90498 57.3073 4.12109 55.5234C2.33723 53.7395 1.32699 51.4633 0.751665 48.8744C0.18431 46.3214 0 43.2809 0 39.7647V22.8329C0 19.3167 0.18431 16.2762 0.751665 13.7232C1.32699 11.1345 2.33723 8.8581 4.12109 7.07421C5.90498 5.29035 8.18133 4.28011 10.7701 3.70479Z"/>
</mask>
<path fill-rule="evenodd" clip-rule="evenodd" d="M10.7701 3.70479C13.323 3.13744 16.3636 2.95312 19.8798 2.95312H24.9746C28.1337 2.95312 31.0839 4.53198 32.8363 7.16057L35.3953 10.9992C35.9795 11.8753 36.9628 12.4017 38.016 12.4017H53.9381C58.9695 12.4017 63.0475 16.3737 62.9996 21.4887C62.9423 27.5799 62.9905 33.6733 62.9905 39.7647C62.9905 43.2809 62.8062 46.3214 62.2387 48.8744C61.6636 51.4633 60.6532 53.7395 58.8693 55.5234C57.0854 57.3073 54.8093 58.3176 52.2203 58.8927C49.6673 59.4603 46.6268 59.6445 43.1107 59.6445H19.8798C16.3636 59.6445 13.323 59.4603 10.7701 58.8927C8.18133 58.3176 5.90498 57.3073 4.12109 55.5234C2.33723 53.7395 1.32699 51.4633 0.751665 48.8744C0.18431 46.3214 0 43.2809 0 39.7647V22.8329C0 19.3167 0.18431 16.2762 0.751665 13.7232C1.32699 11.1345 2.33723 8.8581 4.12109 7.07421C5.90498 5.29035 8.18133 4.28011 10.7701 3.70479Z" stroke="#1E40AF" stroke-width="12" mask="url(#path-1-inside-1_715_2726)"/>
<path d="M26.6377 31.6328V40.3574H35.3623V31.6328H26.6377ZM33.1812 38.1763H28.8188V33.814H33.1812V38.1763ZM26.6377 31.6328V40.3574H35.3623V31.6328H26.6377ZM33.1812 38.1763H28.8188V33.814H33.1812V38.1763ZM26.6377 31.6328V40.3574H35.3623V31.6328H26.6377ZM33.1812 38.1763H28.8188V33.814H33.1812V38.1763ZM26.6377 31.6328V40.3574H35.3623V31.6328H26.6377ZM33.1812 38.1763H28.8188V33.814H33.1812V38.1763ZM46.7043 32.1418L43.3599 29.379V23.9988C43.3576 23.8594 43.3152 23.7236 43.2379 23.6075C43.1605 23.4915 43.0514 23.4002 42.9236 23.3444L35.7258 20.0727H35.435L34.9988 20.2181L31 22.8355L27.0012 20.1454L26.565 20H26.2742L19.0764 23.3444C18.9486 23.4002 18.8395 23.4915 18.7621 23.6075C18.6848 23.7236 18.6424 23.8594 18.6401 23.9988V29.379L15.2957 32.1418C15.1948 32.1987 15.1132 32.2845 15.0614 32.3881C15.0096 32.4918 14.9899 32.6085 15.0049 32.7234V39.2669C14.9984 39.3807 15.0219 39.4943 15.0729 39.5964C15.1239 39.6984 15.2007 39.7853 15.2957 39.8485L18.6401 42.6113V47.9915C18.6424 48.1309 18.6848 48.2667 18.7621 48.3827C18.8395 48.4987 18.9486 48.5901 19.0764 48.6458L26.2742 51.9175H26.565L27.0012 51.7721L31 49.1548L34.9988 51.8448L35.435 51.9903H35.7258L42.9236 48.7185C43.0514 48.6628 43.1605 48.5714 43.2379 48.4554C43.3152 48.3394 43.3576 48.2036 43.3599 48.0642V42.6113L46.7043 39.8485C46.7993 39.7853 46.8761 39.6984 46.9271 39.5964C46.9781 39.4943 47.0016 39.3807 46.9951 39.2669V32.7234C47.0101 32.6085 46.9904 32.4918 46.9386 32.3881C46.8868 32.2845 46.8052 32.1987 46.7043 32.1418ZM35.7258 23.6353C35.9415 23.6353 36.1524 23.6992 36.3317 23.8191C36.5111 23.9389 36.6508 24.1092 36.7334 24.3085C36.8159 24.5078 36.8375 24.727 36.7955 24.9386C36.7534 25.1501 36.6495 25.3445 36.497 25.497C36.3445 25.6495 36.1501 25.7534 35.9386 25.7955C35.727 25.8375 35.5078 25.8159 35.3085 25.7334C35.1092 25.6509 34.9389 25.5111 34.8191 25.3317C34.6992 25.1524 34.6353 24.9415 34.6353 24.7258C34.6353 24.4366 34.7502 24.1592 34.9547 23.9547C35.1592 23.7502 35.4366 23.6353 35.7258 23.6353ZM26.2742 23.6353C26.4899 23.6353 26.7007 23.6992 26.8801 23.8191C27.0594 23.9389 27.1992 24.1092 27.2817 24.3085C27.3643 24.5078 27.3859 24.727 27.3438 24.9386C27.3017 25.1501 27.1978 25.3445 27.0453 25.497C26.8928 25.6495 26.6985 25.7534 26.4869 25.7955C26.2754 25.8375 26.0561 25.8159 25.8568 25.7334C25.6575 25.6509 25.4872 25.5111 25.3674 25.3317C25.2476 25.1524 25.1836 24.9415 25.1836 24.7258C25.1836 24.4366 25.2985 24.1592 25.503 23.9547C25.7075 23.7502 25.9849 23.6353 26.2742 23.6353ZM26.2742 48.355C26.0585 48.355 25.8476 48.291 25.6683 48.1712C25.4889 48.0514 25.3491 47.881 25.2666 47.6818C25.1841 47.4825 25.1625 47.2632 25.2045 47.0517C25.2466 46.8401 25.3505 46.6458 25.503 46.4933C25.6555 46.3407 25.8499 46.2369 26.0614 46.1948C26.273 46.1527 26.4922 46.1743 26.6915 46.2569C26.8908 46.3394 27.0611 46.4792 27.1809 46.6585C27.3008 46.8379 27.3647 47.0487 27.3647 47.2644C27.3647 47.5537 27.2498 47.8311 27.0453 48.0356C26.8408 48.2401 26.5634 48.355 26.2742 48.355ZM35.7258 48.355C35.5101 48.355 35.2993 48.291 35.1199 48.1712C34.9406 48.0514 34.8008 47.881 34.7183 47.6818C34.6357 47.4825 34.6141 47.2632 34.6562 47.0517C34.6983 46.8401 34.8022 46.6458 34.9547 46.4933C35.1072 46.3407 35.3015 46.2369 35.5131 46.1948C35.7246 46.1527 35.9439 46.1743 36.1432 46.2569C36.3425 46.3394 36.5128 46.4792 36.6326 46.6585C36.7524 46.8379 36.8164 47.0487 36.8164 47.2644C36.8164 47.5537 36.7015 47.8311 36.497 48.0356C36.2925 48.2401 36.0151 48.355 35.7258 48.355ZM38.634 36.7222C38.9233 36.7222 39.2007 36.8371 39.4052 37.0416C39.6097 37.2461 39.7246 37.5235 39.7246 37.8128C39.7246 38.102 39.6097 38.3794 39.4052 38.5839C39.2007 38.7884 38.9233 38.9033 38.634 38.9033H37.5435V41.0845C37.5435 41.4701 37.3903 41.84 37.1176 42.1127C36.8449 42.3854 36.475 42.5386 36.0894 42.5386H33.9082V43.6292C33.9082 43.9184 33.7933 44.1958 33.5888 44.4003C33.3843 44.6048 33.1069 44.7197 32.8176 44.7197C32.5284 44.7197 32.251 44.6048 32.0465 44.4003C31.842 44.1958 31.7271 43.9184 31.7271 43.6292V42.5386H30.2729V43.6292C30.2729 43.9184 30.158 44.1958 29.9535 44.4003C29.749 44.6048 29.4716 44.7197 29.1824 44.7197C28.8931 44.7197 28.6157 44.6048 28.4112 44.4003C28.2067 44.1958 28.0918 43.9184 28.0918 43.6292V42.5386H25.9106C25.525 42.5386 25.1551 42.3854 24.8824 42.1127C24.6097 41.84 24.4565 41.4701 24.4565 41.0845V38.9033H23.366C23.0767 38.9033 22.7993 38.7884 22.5948 38.5839C22.3903 38.3794 22.2754 38.102 22.2754 37.8128C22.2754 37.5235 22.3903 37.2461 22.5948 37.0416C22.7993 36.8371 23.0767 36.7222 23.366 36.7222H24.4565V35.2681H23.366C23.0767 35.2681 22.7993 35.1532 22.5948 34.9487C22.3903 34.7441 22.2754 34.4667 22.2754 34.1775C22.2754 33.8883 22.3903 33.6109 22.5948 33.4063C22.7993 33.2018 23.0767 33.0869 23.366 33.0869H24.4565V30.9058C24.4565 30.5201 24.6097 30.1503 24.8824 29.8776C25.1551 29.6049 25.525 29.4517 25.9106 29.4517H28.0918V28.3611C28.0918 28.0718 28.2067 27.7945 28.4112 27.5899C28.6157 27.3854 28.8931 27.2705 29.1824 27.2705C29.4716 27.2705 29.749 27.3854 29.9535 27.5899C30.158 27.7945 30.2729 28.0718 30.2729 28.3611V29.4517H31.7271V28.3611C31.7271 28.0718 31.842 27.7945 32.0465 27.5899C32.251 27.3854 32.5284 27.2705 32.8176 27.2705C33.1069 27.2705 33.3843 27.3854 33.5888 27.5899C33.7933 27.7945 33.9082 28.0718 33.9082 28.3611V29.4517H36.0894C36.475 29.4517 36.8449 29.6049 37.1176 29.8776C37.3903 30.1503 37.5435 30.5201 37.5435 30.9058V33.0869H38.634C38.9233 33.0869 39.2007 33.2018 39.4052 33.4063C39.6097 33.6109 39.7246 33.8883 39.7246 34.1775C39.7246 34.4667 39.6097 34.7441 39.4052 34.9487C39.2007 35.1532 38.9233 35.2681 38.634 35.2681H37.5435V36.7222H38.634ZM26.6377 40.3574H35.3623V31.6328H26.6377V40.3574ZM28.8188 33.814H33.1812V38.1763H28.8188V33.814ZM26.6377 31.6328V40.3574H35.3623V31.6328H26.6377ZM33.1812 38.1763H28.8188V33.814H33.1812V38.1763ZM26.6377 31.6328V40.3574H35.3623V31.6328H26.6377ZM33.1812 38.1763H28.8188V33.814H33.1812V38.1763Z" fill="#60A5FA"/>
</g>
<defs>
<clipPath id="clip0_715_2726">
<rect width="63" height="63" fill="white"/>
</clipPath>
</defs>
</svg>
