<svg width="64" height="64" viewBox="0 0 64 64" fill="none" xmlns="http://www.w3.org/2000/svg">
<g clip-path="url(#clip0_715_3375)">
<path fill-rule="evenodd" clip-rule="evenodd" d="M10.941 3.7636C13.5345 3.18724 16.6233 3 20.1953 3H25.371C28.5803 3 31.5773 4.60392 33.3575 7.27423L35.9571 11.1738C36.5506 12.0638 37.5495 12.5985 38.6194 12.5985H54.7943C59.9055 12.5985 64.0482 16.6336 63.9996 21.8298C63.9413 28.0176 63.9903 34.2078 63.9903 40.3959C63.9903 43.9679 63.8031 47.0567 63.2266 49.6502C62.6423 52.2802 61.6159 54.5925 59.8037 56.4047C57.9915 58.2169 55.6792 59.2433 53.0492 59.8275C50.4557 60.4041 47.3669 60.5913 43.795 60.5913H20.1953C16.6233 60.5913 13.5345 60.4041 10.941 59.8275C8.31119 59.2433 5.99871 58.2169 4.1865 56.4047C2.37433 54.5925 1.34805 52.2802 0.763597 49.6502C0.187236 47.0567 0 43.9679 0 40.3959V23.1953C0 19.6233 0.187236 16.5345 0.763597 13.941C1.34805 11.3112 2.37433 8.99871 4.1865 7.1865C5.99871 5.37433 8.31119 4.34805 10.941 3.7636Z" fill="#854D0E"/>
<g clip-path="url(#clip1_715_3375)">
<path d="M23.1035 18.0637C23.4926 17.9228 23.9282 18.0198 24.2209 18.3125L28.6553 22.7469C28.63 22.7856 28.6068 22.8264 28.5862 22.8691L20.6404 39.3086L23.1035 18.0637Z" fill="#FACC15"/>
<path d="M20.8252 43.4728L31.4512 49.8485C31.737 50.02 32.0866 50.048 32.3961 49.924L43.0628 45.6573C43.508 45.4794 43.7798 45.0259 43.7267 44.5493L41.5934 25.3493C41.5494 24.953 41.2881 24.6143 40.9158 24.4713C40.5436 24.3284 40.1226 24.4049 39.8246 24.6698L36.2939 27.8083L20.8252 43.4728Z" fill="#FACC15"/>
<path d="M35.0684 26.0128L32.8876 22.7416C32.6813 22.4321 32.3286 22.2524 31.9569 22.2675C31.5853 22.2825 31.2483 22.4901 31.0676 22.8153L30.4068 24.0048L24.0369 37.1839L35.0684 26.0128Z" fill="#FACC15"/>
</g>
</g>
<defs>
<clipPath id="clip0_715_3375">
<rect width="64" height="64" fill="white"/>
</clipPath>
<clipPath id="clip1_715_3375">
<rect width="32" height="32" fill="white" transform="translate(16 18)"/>
</clipPath>
</defs>
</svg>
