<svg width="64" height="64" viewBox="0 0 64 64" fill="none" xmlns="http://www.w3.org/2000/svg">
<g clip-path="url(#clip0_715_2553)">
<path fill-rule="evenodd" clip-rule="evenodd" d="M10.941 3.7636C13.5345 3.18724 16.6233 3 20.1953 3H25.371C28.5803 3 31.5773 4.60392 33.3575 7.27423L35.9571 11.1738C36.5506 12.0638 37.5495 12.5985 38.6194 12.5985H54.7943C59.9055 12.5985 64.0482 16.6336 63.9996 21.8298C63.9413 28.0176 63.9903 34.2078 63.9903 40.3959C63.9903 43.9679 63.8031 47.0567 63.2266 49.6502C62.6423 52.2802 61.6159 54.5925 59.8037 56.4047C57.9915 58.2169 55.6792 59.2433 53.0492 59.8275C50.4557 60.4041 47.3669 60.5913 43.795 60.5913H20.1953C16.6233 60.5913 13.5345 60.4041 10.941 59.8275C8.31119 59.2433 5.99871 58.2169 4.1865 56.4047C2.37433 54.5925 1.34805 52.2802 0.763597 49.6502C0.187236 47.0567 0 43.9679 0 40.3959V23.1953C0 19.6233 0.187236 16.5345 0.763597 13.941C1.34805 11.3112 2.37433 8.99871 4.1865 7.1865C5.99871 5.37433 8.31119 4.34805 10.941 3.7636Z" fill="#854D0E"/>
<path d="M48 25.47V44.4828C48 46.0339 46.7367 47.4571 45.1856 47.649L44.6899 47.7129C42.0675 48.0647 38.3736 49.1521 35.3994 50.3994C34.36 50.8311 33.2087 50.0476 33.2087 48.9122V26.6693C33.2087 26.0776 33.5445 25.5339 34.0722 25.2461C36.9984 23.663 41.4279 22.2559 44.4341 22H44.53C46.4489 22 48 23.5511 48 25.47Z" fill="#FACC15"/>
<path d="M29.9439 25.2461C27.0175 23.663 22.5881 22.2559 19.5819 22H19.47C17.5511 22 16 23.5511 16 25.47V44.4828C16 46.0339 17.2633 47.4571 18.8144 47.649L19.3101 47.7129C21.9325 48.0647 25.6264 49.1521 28.6006 50.3994C29.64 50.8311 30.7914 50.0476 30.7914 48.9122V26.6693C30.7914 26.0616 30.4715 25.5339 29.9439 25.2461ZM20.8132 30.0913H24.4111C25.0667 30.0913 25.6104 30.6349 25.6104 31.2906C25.6104 31.9622 25.0667 32.4899 24.4111 32.4899H20.8132C20.1576 32.4899 19.6139 31.9622 19.6139 31.2906C19.6139 30.6349 20.1576 30.0913 20.8132 30.0913ZM25.6104 37.2871H20.8132C20.1576 37.2871 19.6139 36.7594 19.6139 36.0878C19.6139 35.4321 20.1576 34.8885 20.8132 34.8885H25.6104C26.266 34.8885 26.8097 35.4321 26.8097 36.0878C26.8097 36.7594 26.266 37.2871 25.6104 37.2871Z" fill="#FACC15"/>
</g>
<defs>
<clipPath id="clip0_715_2553">
<rect width="64" height="64" fill="white"/>
</clipPath>
</defs>
</svg>
