<svg width="63" height="63" viewBox="0 0 63 63" fill="none" xmlns="http://www.w3.org/2000/svg">
<g clip-path="url(#clip0_715_2945)">
<path fill-rule="evenodd" clip-rule="evenodd" d="M10.7701 3.70479C13.323 3.13744 16.3636 2.95312 19.8798 2.95312H24.9746C28.1337 2.95312 31.0839 4.53198 32.8363 7.16057L35.3953 10.9992C35.9795 11.8753 36.9628 12.4017 38.016 12.4017H53.9381C58.9695 12.4017 63.0475 16.3737 62.9996 21.4887C62.9423 27.5799 62.9905 33.6733 62.9905 39.7647C62.9905 43.2809 62.8062 46.3214 62.2387 48.8744C61.6636 51.4633 60.6532 53.7395 58.8693 55.5234C57.0854 57.3073 54.8093 58.3176 52.2203 58.8927C49.6673 59.4603 46.6268 59.6445 43.1107 59.6445H19.8798C16.3636 59.6445 13.323 59.4603 10.7701 58.8927C8.18133 58.3176 5.90498 57.3073 4.12109 55.5234C2.33723 53.7395 1.32699 51.4633 0.751665 48.8744C0.18431 46.3214 0 43.2809 0 39.7647V22.8329C0 19.3167 0.18431 16.2762 0.751665 13.7232C1.32699 11.1345 2.33723 8.8581 4.12109 7.07421C5.90498 5.29035 8.18133 4.28011 10.7701 3.70479Z" fill="#155E75"/>
<path d="M43.4609 23.5391C38.7261 18.8203 31.0481 18.8203 26.3452 23.5391C23.0341 26.8183 22.0423 31.5371 23.322 35.696L15.8039 43.2141C15.2761 43.7579 14.9082 44.8296 15.0201 45.5974L15.5 49.0846C15.676 50.2363 16.7477 51.324 17.8994 51.4839L21.3865 51.9638C22.1543 52.0758 23.226 51.7239 23.7699 51.164L25.0816 49.8524C25.4015 49.5484 25.4015 49.0366 25.0816 48.7166L21.9784 45.6134C21.5145 45.1496 21.5145 44.3818 21.9784 43.9179C22.4422 43.454 23.21 43.454 23.6739 43.9179L26.7931 47.0371C27.0971 47.341 27.6089 47.341 27.9129 47.0371L31.304 43.6619C35.4469 44.9576 40.1657 43.9499 43.4609 40.6707C48.1797 35.9519 48.1797 28.2579 43.4609 23.5391ZM34.9991 35.9839C32.7916 35.9839 31.0001 34.1924 31.0001 31.9849C31.0001 29.7775 32.7916 27.986 34.9991 27.986C37.2065 27.986 38.998 29.7775 38.998 31.9849C38.998 34.1924 37.2065 35.9839 34.9991 35.9839Z" fill="#22D3EE"/>
</g>
<defs>
<clipPath id="clip0_715_2945">
<rect width="63" height="63" fill="white"/>
</clipPath>
</defs>
</svg>
