<svg width="64" height="64" viewBox="0 0 64 64" fill="none" xmlns="http://www.w3.org/2000/svg">
<g clip-path="url(#clip0_717_3838)">
<path fill-rule="evenodd" clip-rule="evenodd" d="M10.941 3.7636C13.5345 3.18724 16.6233 3 20.1953 3H25.371C28.5803 3 31.5773 4.60392 33.3575 7.27423L35.9571 11.1738C36.5506 12.0638 37.5495 12.5985 38.6194 12.5985H54.7943C59.9055 12.5985 64.0482 16.6336 63.9996 21.8298C63.9413 28.0176 63.9903 34.2078 63.9903 40.3959C63.9903 43.9679 63.8031 47.0567 63.2266 49.6502C62.6423 52.2802 61.6159 54.5925 59.8037 56.4047C57.9915 58.2169 55.6792 59.2433 53.0492 59.8275C50.4557 60.4041 47.3669 60.5913 43.795 60.5913H20.1953C16.6233 60.5913 13.5345 60.4041 10.941 59.8275C8.31119 59.2433 5.99871 58.2169 4.1865 56.4047C2.37433 54.5925 1.34805 52.2802 0.763597 49.6502C0.187236 47.0567 0 43.9679 0 40.3959V23.1953C0 19.6233 0.187236 16.5345 0.763597 13.941C1.34805 11.3112 2.37433 8.99871 4.1865 7.1865C5.99871 5.37433 8.31119 4.34805 10.941 3.7636Z" fill="#115E59"/>
<path d="M31.9974 20C29.8961 19.999 27.8152 20.4121 25.8736 21.2159C23.9321 22.0196 22.168 23.1982 20.6823 24.6841C19.1966 26.1701 18.0183 27.9344 17.2149 29.876C16.4115 31.8177 15.9986 33.8987 16 36C15.9986 38.1015 16.4115 40.1827 17.2151 42.1246C18.0187 44.0664 19.1972 45.8308 20.6832 47.3168C22.1692 48.8028 23.9336 49.9813 25.8754 50.7849C27.8173 51.5885 29.8985 52.0014 32 52C34.1015 52.0014 36.1827 51.5885 38.1246 50.7849C40.0664 49.9813 41.8308 48.8028 43.3168 47.3168C44.8028 45.8308 45.9813 44.0664 46.7849 42.1246C47.5885 40.1827 48.0014 38.1015 48 36C48 27.1573 40.7851 20 31.9974 20ZM24.492 39.4334C25.0154 40.1322 25.7141 40.4226 26.7007 40.4226C27.1691 40.4226 27.6349 40.3624 28.0432 40.1871C28.4462 40.017 28.9146 39.7815 29.4956 39.4308L31.1233 41.7599C29.8388 42.8403 28.2062 43.4186 26.528 43.3876C25.1305 43.3876 23.9686 43.0972 22.9218 42.5162C21.9054 41.9171 21.0936 41.0251 20.5927 39.9568C20.0694 38.8498 19.7815 37.5728 19.7815 36.0576C19.7815 34.6052 20.0694 33.2679 20.5927 32.1583C21.09 31.0592 21.9012 30.1302 22.9244 29.4864C23.911 28.8427 25.1331 28.5522 26.473 28.5522C27.4046 28.5522 28.2761 28.6699 28.9748 28.9604C29.7599 29.264 30.4848 29.6984 31.1259 30.2427L29.4982 32.4514C29.0839 32.1453 28.634 31.8905 28.1583 31.6925C27.7124 31.5269 27.239 31.4479 26.7635 31.4596C24.7851 31.4596 23.7959 32.9748 23.7959 36.055C23.7409 37.6304 24.0314 38.7347 24.4946 39.4308L24.492 39.4334ZM40.492 43.0422C39.911 44.8479 39.0396 46.1825 37.8175 47.1717C36.5954 48.1636 34.965 48.6869 32.929 48.8597L32.5234 46.1276C33.858 45.9496 34.8499 45.6591 35.491 45.1933C35.7213 45.0232 36.1871 44.4972 36.1871 44.4972L31.3588 29.018H35.3706L38.1655 40.598L41.1331 29.018H45.0324L40.492 43.0422Z" fill="#2DD4BF"/>
</g>
<defs>
<clipPath id="clip0_717_3838">
<rect width="64" height="64" fill="white"/>
</clipPath>
</defs>
</svg>
