<svg width="64" height="64" viewBox="0 0 64 64" fill="none" xmlns="http://www.w3.org/2000/svg">
<g clip-path="url(#clip0_709_4541)">
<path fill-rule="evenodd" clip-rule="evenodd" d="M10.941 3.7636C13.5345 3.18724 16.6233 3 20.1953 3H25.371C28.5803 3 31.5773 4.60392 33.3575 7.27423L35.9571 11.1738C36.5506 12.0638 37.5495 12.5985 38.6194 12.5985H54.7943C59.9055 12.5985 64.0482 16.6336 63.9996 21.8298C63.9413 28.0176 63.9903 34.2078 63.9903 40.3959C63.9903 43.9679 63.8031 47.0567 63.2266 49.6502C62.6423 52.2802 61.6159 54.5925 59.8037 56.4047C57.9915 58.2169 55.6792 59.2433 53.0492 59.8275C50.4557 60.4041 47.3669 60.5913 43.795 60.5913H20.1953C16.6233 60.5913 13.5345 60.4041 10.941 59.8275C8.31119 59.2433 5.99871 58.2169 4.1865 56.4047C2.37433 54.5925 1.34805 52.2802 0.763597 49.6502C0.187236 47.0567 0 43.9679 0 40.3959V23.1953C0 19.6233 0.187236 16.5345 0.763597 13.941C1.34805 11.3112 2.37433 8.99871 4.1865 7.1865C5.99871 5.37433 8.31119 4.34805 10.941 3.7636Z" fill="#B2230F"/>
<path d="M16.669 37.6151C15.777 36.7231 15.777 35.2769 16.669 34.3849L30.3849 20.669C31.2769 19.777 32.7231 19.777 33.6151 20.669L47.331 34.3849C48.223 35.2769 48.223 36.7231 47.331 37.6151L33.6151 51.331C32.7231 52.223 31.2769 52.223 30.3849 51.331L16.669 37.6151Z" fill="#CED4DA"/>
<path d="M27.5988 23.4989L26.2098 24.8878L29.7972 28.4752C29.652 28.7865 29.571 29.1337 29.571 29.4999C29.571 30.5394 30.2241 31.4264 31.1424 31.7728V40.5484C30.2241 40.8948 29.571 41.7817 29.571 42.8213C29.571 44.1625 30.6583 45.2498 31.9996 45.2498C33.3408 45.2498 34.4281 44.1625 34.4281 42.8213C34.4281 41.8789 33.8913 41.0617 33.1068 40.6592V31.7848L36.5359 35.214C36.3978 35.519 36.321 35.8576 36.321 36.2142C36.321 37.5554 37.4084 38.6428 38.7496 38.6428C40.0909 38.6428 41.1782 37.5554 41.1782 36.2142C41.1782 34.8729 40.0909 33.7856 38.7496 33.7856C38.4889 33.7856 38.238 33.8266 38.0025 33.9026L34.3197 30.2198C34.3902 29.9924 34.4281 29.7505 34.4281 29.4999C34.4281 28.1586 33.3408 27.0713 31.9996 27.0713C31.7489 27.0713 31.5072 27.1093 31.2797 27.1798L27.5988 23.4989Z" fill="#EE513B"/>
</g>
<defs>
<clipPath id="clip0_709_4541">
<rect width="64" height="64" fill="white"/>
</clipPath>
</defs>
</svg>
