<svg width="64" height="64" viewBox="0 0 64 64" fill="none" xmlns="http://www.w3.org/2000/svg">
<g clip-path="url(#clip0_712_2559)">
<mask id="path-1-inside-1_712_2559" fill="white">
<path fill-rule="evenodd" clip-rule="evenodd" d="M10.941 3.7636C13.5345 3.18724 16.6233 3 20.1953 3H25.371C28.5803 3 31.5773 4.60392 33.3575 7.27423L35.9571 11.1738C36.5506 12.0638 37.5495 12.5985 38.6194 12.5985H54.7943C59.9055 12.5985 64.0482 16.6336 63.9996 21.8298C63.9413 28.0176 63.9903 34.2078 63.9903 40.3959C63.9903 43.9679 63.8031 47.0567 63.2266 49.6502C62.6423 52.2802 61.6159 54.5925 59.8037 56.4047C57.9915 58.2169 55.6792 59.2433 53.0492 59.8275C50.4557 60.4041 47.3669 60.5913 43.795 60.5913H20.1953C16.6233 60.5913 13.5345 60.4041 10.941 59.8275C8.31119 59.2433 5.99871 58.2169 4.1865 56.4047C2.37433 54.5925 1.34805 52.2802 0.763597 49.6502C0.187236 47.0567 0 43.9679 0 40.3959V23.1953C0 19.6233 0.187236 16.5345 0.763597 13.941C1.34805 11.3112 2.37433 8.99871 4.1865 7.1865C5.99871 5.37433 8.31119 4.34805 10.941 3.7636Z"/>
</mask>
<path fill-rule="evenodd" clip-rule="evenodd" d="M10.941 3.7636C13.5345 3.18724 16.6233 3 20.1953 3H25.371C28.5803 3 31.5773 4.60392 33.3575 7.27423L35.9571 11.1738C36.5506 12.0638 37.5495 12.5985 38.6194 12.5985H54.7943C59.9055 12.5985 64.0482 16.6336 63.9996 21.8298C63.9413 28.0176 63.9903 34.2078 63.9903 40.3959C63.9903 43.9679 63.8031 47.0567 63.2266 49.6502C62.6423 52.2802 61.6159 54.5925 59.8037 56.4047C57.9915 58.2169 55.6792 59.2433 53.0492 59.8275C50.4557 60.4041 47.3669 60.5913 43.795 60.5913H20.1953C16.6233 60.5913 13.5345 60.4041 10.941 59.8275C8.31119 59.2433 5.99871 58.2169 4.1865 56.4047C2.37433 54.5925 1.34805 52.2802 0.763597 49.6502C0.187236 47.0567 0 43.9679 0 40.3959V23.1953C0 19.6233 0.187236 16.5345 0.763597 13.941C1.34805 11.3112 2.37433 8.99871 4.1865 7.1865C5.99871 5.37433 8.31119 4.34805 10.941 3.7636Z" stroke="#854D0E" stroke-width="12" mask="url(#path-1-inside-1_712_2559)"/>
<path d="M19.7455 26.5927H44.377C45.2987 26.5927 46.1226 27.4166 46.1226 28.3382V32.4112C46.1226 33.3809 45.2987 34.1567 44.377 34.1567H19.7455C18.7758 34.1567 18 33.3809 18 32.4112V28.3382C18 27.4166 18.7758 26.5927 19.7455 26.5927ZM43.9891 30.7634V29.9876C43.9891 29.6959 43.6974 29.4057 43.4073 29.4057H40.3041C39.9643 29.4057 39.7223 29.6974 39.7223 29.9876V30.7634C39.7223 31.1032 39.9643 31.3452 40.3041 31.3452H43.4073C43.699 31.3452 43.9891 31.1032 43.9891 30.7634ZM19.7455 35.5144H44.377C45.2987 35.5144 46.1226 36.2901 46.1226 37.2599V41.3328C46.1226 42.3026 45.2987 43.0784 44.377 43.0784H19.7455C18.7758 43.0784 18 42.3026 18 41.3328V37.2599C18 36.2901 18.7758 35.5144 19.7455 35.5144ZM43.9891 39.685V38.9092C43.9891 38.6175 43.6974 38.3274 43.4073 38.3274H40.3041C39.9643 38.3274 39.7223 38.6191 39.7223 38.9092V39.685C39.7223 40.0248 39.9643 40.2669 40.3041 40.2669H43.4073C43.699 40.2669 43.9891 40.0248 43.9891 39.685ZM19.7455 44.436H44.377C45.2987 44.436 46.1226 45.2118 46.1226 46.1815V50.2545C46.1226 51.2242 45.2987 52 44.377 52H19.7455C18.7758 52 18 51.2242 18 50.2545V46.1815C18 45.2118 18.7758 44.436 19.7455 44.436ZM43.9891 48.6067V47.8309C43.9891 47.4911 43.6974 47.249 43.4073 47.249H40.3041C39.9643 47.249 39.7223 47.4911 39.7223 47.8309V48.6067C39.7223 48.9465 39.9643 49.1885 40.3041 49.1885H43.4073C43.699 49.1885 43.9891 48.9465 43.9891 48.6067ZM44.377 25.2847H19.7455C19.4538 25.2847 19.1637 25.3328 18.9216 25.4306L21.879 21.4057C22.4608 20.6299 23.7223 20 24.692 20H39.4321C40.3538 20 41.6137 20.6299 42.1955 21.4057L45.2025 25.4306C44.9108 25.3328 44.6191 25.2847 44.377 25.2847Z" fill="#FACC15"/>
</g>
<defs>
<clipPath id="clip0_712_2559">
<rect width="64" height="64" fill="white"/>
</clipPath>
</defs>
</svg>
