<svg width="64" height="64" viewBox="0 0 64 64" fill="none" xmlns="http://www.w3.org/2000/svg">
<g clip-path="url(#clip0_711_2633)">
<path fill-rule="evenodd" clip-rule="evenodd" d="M10.941 3.7636C13.5345 3.18724 16.6233 3 20.1953 3H25.371C28.5803 3 31.5773 4.60392 33.3575 7.27423L35.9571 11.1738C36.5506 12.0638 37.5495 12.5985 38.6194 12.5985H54.7943C59.9055 12.5985 64.0482 16.6336 63.9996 21.8298C63.9413 28.0176 63.9903 34.2078 63.9903 40.3959C63.9903 43.9679 63.8031 47.0567 63.2266 49.6502C62.6423 52.2802 61.6159 54.5925 59.8037 56.4047C57.9915 58.2169 55.6792 59.2433 53.0492 59.8275C50.4557 60.4041 47.3669 60.5913 43.795 60.5913H20.1953C16.6233 60.5913 13.5345 60.4041 10.941 59.8275C8.31119 59.2433 5.99871 58.2169 4.1865 56.4047C2.37433 54.5925 1.34805 52.2802 0.763597 49.6502C0.187236 47.0567 0 43.9679 0 40.3959V23.1953C0 19.6233 0.187236 16.5345 0.763597 13.941C1.34805 11.3112 2.37433 8.99871 4.1865 7.1865C5.99871 5.37433 8.31119 4.34805 10.941 3.7636Z" fill="#854D0E"/>
<path d="M22.976 29.25H16V34.8019H22.976V29.25Z" fill="#FACC15"/>
<path d="M22.9735 26.8623V20.2063C19.3255 20.8783 16.9415 23.2303 16.2375 26.8463H22.9255C22.9415 26.8463 22.9575 26.8623 22.9735 26.8623Z" fill="#FACC15"/>
<path d="M22.976 42.896V37.2H16V42.848H22.784C22.848 42.848 22.912 42.88 22.976 42.896Z" fill="#FACC15"/>
<path d="M47.759 26.8475C47.071 23.3435 44.831 21.0395 41.375 20.2875V26.8475H47.759Z" fill="#FACC15"/>
<path d="M38.975 34.8V20.016C38.895 20 38.799 20 38.703 20H25.375V34.8H38.975Z" fill="#FACC15"/>
<path d="M47.999 37.2H41.375V42.848H47.999V37.2Z" fill="#FACC15"/>
<path d="M41.375 51.7139C44.799 50.9619 47.039 48.6901 47.743 45.2499H41.375V51.7139Z" fill="#FACC15"/>
<path d="M22.7843 45.2507H16.2563C16.9923 48.8027 19.3603 51.1227 22.9763 51.7947V45.2187C22.9123 45.2347 22.8483 45.2507 22.7843 45.2507Z" fill="#FACC15"/>
<path d="M47.999 29.25H41.375V34.8019H47.999V29.25Z" fill="#FACC15"/>
<path d="M25.375 37.2V52H38.703C38.799 52 38.895 52 38.975 51.984V37.2H25.375Z" fill="#FACC15"/>
</g>
<defs>
<clipPath id="clip0_711_2633">
<rect width="64" height="64" fill="white"/>
</clipPath>
</defs>
</svg>
