<svg width="64" height="64" viewBox="0 0 64 64" fill="none" xmlns="http://www.w3.org/2000/svg">
<g clip-path="url(#clip0_714_2558)">
<path fill-rule="evenodd" clip-rule="evenodd" d="M10.941 3.7636C13.5345 3.18724 16.6233 3 20.1953 3H25.371C28.5803 3 31.5773 4.60392 33.3575 7.27423L35.9571 11.1738C36.5506 12.0638 37.5495 12.5985 38.6194 12.5985H54.7943C59.9055 12.5985 64.0482 16.6336 63.9996 21.8298C63.9413 28.0176 63.9903 34.2078 63.9903 40.3959C63.9903 43.9679 63.8031 47.0567 63.2266 49.6502C62.6423 52.2802 61.6159 54.5925 59.8037 56.4047C57.9915 58.2169 55.6792 59.2433 53.0492 59.8275C50.4557 60.4041 47.3669 60.5913 43.795 60.5913H20.1953C16.6233 60.5913 13.5345 60.4041 10.941 59.8275C8.31119 59.2433 5.99871 58.2169 4.1865 56.4047C2.37433 54.5925 1.34805 52.2802 0.763597 49.6502C0.187236 47.0567 0 43.9679 0 40.3959V23.1953C0 19.6233 0.187236 16.5345 0.763597 13.941C1.34805 11.3112 2.37433 8.99871 4.1865 7.1865C5.99871 5.37433 8.31119 4.34805 10.941 3.7636Z" fill="#495057"/>
<path d="M33.0083 40.4485C32.3705 40.5938 31.7088 40.6004 31.0681 40.4679C30.4275 40.3353 29.8228 40.0667 29.295 39.6802C28.7671 39.2936 28.3285 38.7982 28.0088 38.2275C27.689 37.6567 27.4956 37.0239 27.4416 36.3719C27.4146 36.1 27.2911 35.8468 27.0933 35.6583C26.9273 35.4966 26.7161 35.3892 26.4876 35.3505C26.2591 35.3117 26.0243 35.3434 25.8142 35.4413C25.6042 35.5392 25.4289 35.6987 25.3117 35.8985C25.1944 36.0984 25.1408 36.3292 25.1578 36.5603C25.1578 36.6783 25.1712 36.7944 25.1978 36.9086C25.3693 38.1726 25.8904 39.3636 26.7022 40.3476C27.514 41.3315 28.5844 42.0692 29.7928 42.4777C31.0012 42.8862 32.2996 42.9493 33.5419 42.6597C34.7842 42.3702 35.921 41.7396 36.8244 40.839C37.7277 39.9384 38.3616 38.8034 38.6548 37.562C38.948 36.3205 38.8888 35.0219 38.4839 33.8123C38.0789 32.6027 37.3444 31.5301 36.3629 30.7154C35.3813 29.9007 34.1919 29.3762 32.9284 29.2009L32.5801 29.1381C32.3508 29.1223 32.1221 29.1761 31.9238 29.2924C31.7256 29.4087 31.567 29.5821 31.469 29.79C31.3709 29.9979 31.3378 30.2305 31.3741 30.4575C31.4104 30.6845 31.5143 30.8952 31.6723 31.0621C31.8609 31.2599 32.1141 31.3835 32.386 31.4104C33.0298 31.4635 33.655 31.6525 34.2204 31.965C34.7858 32.2775 35.2785 32.7063 35.6659 33.2232C36.0533 33.7402 36.3267 34.3334 36.4679 34.9637C36.6092 35.5941 36.6151 36.2473 36.4854 36.8801C36.3268 37.7534 35.9112 38.5595 35.2917 39.1952C34.6723 39.8309 33.8772 40.2673 33.0083 40.4485Z" fill="#CED4DA"/>
<path d="M23.1538 31.7016C23.0189 31.5647 22.8516 31.4642 22.6675 31.4091C22.4834 31.3541 22.2883 31.3465 22.1004 31.3869C21.9126 31.4273 21.7379 31.5145 21.5927 31.6404C21.4475 31.7663 21.3364 31.9267 21.2697 32.107C20.3858 34.5492 20.3609 37.2199 21.1991 39.6782C22.0374 42.1365 23.6886 44.2356 25.8804 45.6291C28.0722 47.0227 30.6736 47.6274 33.2553 47.3434C35.8371 47.0595 38.2448 45.9039 40.0814 44.0674C41.918 42.2308 43.0736 39.823 43.3575 37.2413C43.6414 34.6595 43.0367 32.0582 41.6432 29.8664C40.2497 27.6746 38.1506 26.0233 35.6922 25.1851C33.2339 24.3469 30.5633 24.3717 28.121 25.2556C27.9404 25.3217 27.7793 25.4323 27.6528 25.5773C27.5263 25.7222 27.4385 25.8967 27.3975 26.0847C27.3565 26.2726 27.3636 26.4679 27.4183 26.6523C27.4729 26.8368 27.5732 27.0044 27.71 27.1398C27.8624 27.292 28.0549 27.3979 28.265 27.4454C28.4751 27.4929 28.6944 27.48 28.8975 27.4081C30.288 26.9002 31.7819 26.7414 33.2481 26.9456C34.9351 27.1738 36.5247 27.8687 37.8377 28.9522C39.1508 30.0356 40.135 31.4643 40.6793 33.0772C41.2236 34.6901 41.3065 36.4231 40.9185 38.0806C40.5305 39.738 39.687 41.2541 38.4833 42.4578C37.2796 43.6616 35.7635 44.505 34.106 44.893C32.4485 45.281 30.7156 45.1982 29.1027 44.6538C27.4898 44.1095 26.061 43.1253 24.9776 41.8123C23.8942 40.4992 23.1993 38.9096 22.9711 37.2226C22.7734 35.7611 22.9361 34.2734 23.445 32.8892C23.514 32.684 23.5233 32.4634 23.4718 32.2531C23.4202 32.0429 23.3099 31.8516 23.1538 31.7016Z" fill="#CED4DA"/>
<path d="M30.7074 51.9245C33.1808 52.1272 35.6674 51.7514 37.9703 50.8267C40.2733 49.902 42.3293 48.4538 43.9756 46.5969C45.622 44.7399 46.8134 42.5252 47.4555 40.1281C48.0977 37.7309 48.1729 35.2172 47.6753 32.786C47.1777 30.3547 46.1209 28.0727 44.5886 26.1206C43.0563 24.1685 41.0906 22.5999 38.8471 21.5391C36.6036 20.4783 34.1439 19.9544 31.6628 20.0089C29.1818 20.0633 26.7474 20.6946 24.5526 21.8528C24.393 21.9351 24.255 22.0539 24.1498 22.1995C24.0447 22.3452 23.9754 22.5136 23.9476 22.691C23.9198 22.8685 23.9343 23.05 23.9898 23.2208C24.0453 23.3916 24.1403 23.5469 24.2672 23.6741C24.4381 23.8436 24.6582 23.9548 24.8961 23.9917C25.134 24.0286 25.3775 23.9894 25.5918 23.8797C28.4918 22.3464 31.8457 21.9045 35.044 22.6341C38.2423 23.3638 41.0726 25.2166 43.0208 27.8559C44.969 30.4952 45.9056 33.7458 45.6606 37.0171C45.4156 40.2884 44.0051 43.3632 41.6855 45.6828C39.3658 48.0024 36.291 49.4129 33.0197 49.658C29.7485 49.903 26.4978 48.9663 23.8585 47.0182C21.2192 45.07 19.3664 42.2396 18.6368 39.0414C17.9071 35.8431 18.3491 32.4892 19.8823 29.5891C19.992 29.3748 20.0313 29.1314 19.9943 28.8935C19.9574 28.6556 19.8463 28.4355 19.6768 28.2645C19.5496 28.1377 19.3943 28.0427 19.2234 27.9871C19.0526 27.9316 18.8711 27.9172 18.6936 27.945C18.5162 27.9728 18.3478 28.0421 18.2022 28.1472C18.0565 28.2523 17.9377 28.3903 17.8554 28.55C16.6183 30.8886 15.9809 33.4977 16.0004 36.1434C16.02 38.789 16.6958 41.3884 17.9673 43.7085C19.2389 46.0287 21.0664 47.9969 23.2859 49.4368C25.5054 50.8767 28.0477 51.7433 30.6846 51.9587L30.7074 51.9245Z" fill="#CED4DA"/>
<path d="M18.375 26.1463C18.5996 26.3715 18.8666 26.5501 19.1606 26.6716C19.4546 26.7931 19.7697 26.8552 20.0878 26.8543C20.8435 26.8544 21.5683 27.1542 22.1033 27.6879L31.2384 36.823C31.35 36.9347 31.4835 37.022 31.6306 37.0794C31.7776 37.1369 31.935 37.1632 32.0927 37.1568C32.2504 37.1504 32.4051 37.1113 32.547 37.042C32.6889 36.9728 32.8149 36.8749 32.917 36.7545C33.0998 36.5214 33.1893 36.2286 33.1682 35.9331C33.1471 35.6376 33.0169 35.3606 32.8028 35.1558L23.7076 26.0721C23.174 25.5371 22.8742 24.8123 22.8741 24.0567C22.875 23.7386 22.8129 23.4234 22.6914 23.1294C22.5698 22.8355 22.3913 22.5684 22.1661 22.3438L20.0193 20.1799C19.9449 20.0963 19.8461 20.038 19.7369 20.0133C19.6277 19.9885 19.5135 19.9986 19.4102 20.042C19.307 20.0854 19.22 20.1601 19.1613 20.2554C19.1026 20.3508 19.0752 20.4622 19.083 20.5739V22.4866C19.083 22.638 19.0228 22.7832 18.9158 22.8903C18.8087 22.9973 18.6635 23.0575 18.512 23.0575H16.5937C16.4806 23.0481 16.3675 23.0748 16.2706 23.1337C16.1737 23.1926 16.0979 23.2807 16.0542 23.3853C16.0104 23.4899 16.0009 23.6057 16.0271 23.7161C16.0532 23.8264 16.1137 23.9257 16.1997 23.9996L18.375 26.1463Z" fill="#CED4DA"/>
</g>
<defs>
<clipPath id="clip0_714_2558">
<rect width="64" height="64" fill="white"/>
</clipPath>
</defs>
</svg>
