<svg width="63" height="63" viewBox="0 0 63 63" fill="none" xmlns="http://www.w3.org/2000/svg">
<g clip-path="url(#clip0_715_2959)">
<mask id="path-1-inside-1_715_2959" fill="white">
<path fill-rule="evenodd" clip-rule="evenodd" d="M10.7702 3.70479C13.3232 3.13744 16.3637 2.95312 19.8799 2.95312H24.9747C28.1339 2.95312 31.084 4.53198 32.8364 7.16057L35.3954 10.9992C35.9796 11.8753 36.9629 12.4017 38.0161 12.4017H53.9382C58.9696 12.4017 63.0476 16.3737 62.9997 21.4887C62.9424 27.5799 62.9906 33.6733 62.9906 39.7647C62.9906 43.2809 62.8063 46.3214 62.2388 48.8744C61.6637 51.4633 60.6533 53.7395 58.8694 55.5234C57.0855 57.3073 54.8094 58.3176 52.2205 58.8927C49.6675 59.4603 46.6269 59.6445 43.1108 59.6445H19.8799C16.3637 59.6445 13.3232 59.4603 10.7702 58.8927C8.18145 58.3176 5.9051 57.3073 4.12121 55.5234C2.33735 53.7395 1.32711 51.4633 0.751787 48.8744C0.184432 46.3214 0.00012207 43.2809 0.00012207 39.7647V22.8329C0.00012207 19.3167 0.184432 16.2762 0.751787 13.7232C1.32711 11.1345 2.33735 8.8581 4.12121 7.07421C5.9051 5.29035 8.18145 4.28011 10.7702 3.70479Z"/>
</mask>
<path fill-rule="evenodd" clip-rule="evenodd" d="M10.7702 3.70479C13.3232 3.13744 16.3637 2.95312 19.8799 2.95312H24.9747C28.1339 2.95312 31.084 4.53198 32.8364 7.16057L35.3954 10.9992C35.9796 11.8753 36.9629 12.4017 38.0161 12.4017H53.9382C58.9696 12.4017 63.0476 16.3737 62.9997 21.4887C62.9424 27.5799 62.9906 33.6733 62.9906 39.7647C62.9906 43.2809 62.8063 46.3214 62.2388 48.8744C61.6637 51.4633 60.6533 53.7395 58.8694 55.5234C57.0855 57.3073 54.8094 58.3176 52.2205 58.8927C49.6675 59.4603 46.6269 59.6445 43.1108 59.6445H19.8799C16.3637 59.6445 13.3232 59.4603 10.7702 58.8927C8.18145 58.3176 5.9051 57.3073 4.12121 55.5234C2.33735 53.7395 1.32711 51.4633 0.751787 48.8744C0.184432 46.3214 0.00012207 43.2809 0.00012207 39.7647V22.8329C0.00012207 19.3167 0.184432 16.2762 0.751787 13.7232C1.32711 11.1345 2.33735 8.8581 4.12121 7.07421C5.9051 5.29035 8.18145 4.28011 10.7702 3.70479Z" stroke="#9A3412" stroke-width="12" mask="url(#path-1-inside-1_715_2959)"/>
<path d="M37.704 20H24.296C18.472 20 15 23.472 15 29.296V42.688C15 48.528 18.472 52 24.296 52H37.688C43.512 52 46.984 48.528 46.984 42.704V29.296C47 23.472 43.528 20 37.704 20ZM39.4 36.528C39.4 37.184 38.856 37.728 38.2 37.728C37.544 37.728 37 37.184 37 36.528V31.696L24.648 44.048C24.408 44.288 24.104 44.4 23.8 44.4C23.496 44.4 23.192 44.288 22.952 44.048C22.488 43.584 22.488 42.816 22.952 42.352L35.304 30H30.472C29.816 30 29.272 29.456 29.272 28.8C29.272 28.144 29.816 27.6 30.472 27.6H38.2C38.856 27.6 39.4 28.144 39.4 28.8V36.528Z" fill="#FB923C"/>
</g>
<defs>
<clipPath id="clip0_715_2959">
<rect width="63" height="63" fill="white"/>
</clipPath>
</defs>
</svg>
