<svg width="64" height="64" viewBox="0 0 64 64" fill="none" xmlns="http://www.w3.org/2000/svg">
<g clip-path="url(#clip0_718_2679)">
<path fill-rule="evenodd" clip-rule="evenodd" d="M10.941 3.7636C13.5345 3.18724 16.6233 3 20.1953 3H25.371C28.5803 3 31.5773 4.60392 33.3575 7.27423L35.9571 11.1738C36.5506 12.0638 37.5495 12.5985 38.6194 12.5985H54.7943C59.9055 12.5985 64.0482 16.6336 63.9996 21.8298C63.9413 28.0176 63.9903 34.2078 63.9903 40.3959C63.9903 43.9679 63.8031 47.0567 63.2266 49.6502C62.6423 52.2802 61.6159 54.5925 59.8037 56.4047C57.9915 58.2169 55.6792 59.2433 53.0492 59.8275C50.4557 60.4041 47.3669 60.5913 43.795 60.5913H20.1953C16.6233 60.5913 13.5345 60.4041 10.941 59.8275C8.31119 59.2433 5.99871 58.2169 4.1865 56.4047C2.37433 54.5925 1.34805 52.2802 0.763597 49.6502C0.187236 47.0567 0 43.9679 0 40.3959V23.1953C0 19.6233 0.187236 16.5345 0.763597 13.941C1.34805 11.3112 2.37433 8.99871 4.1865 7.1865C5.99871 5.37433 8.31119 4.34805 10.941 3.7636Z" fill="#854D0E"/>
<path d="M45.1643 27.8082L34.0334 21.4337C33.0255 20.8554 31.7867 20.8554 30.7787 21.4337L19.6479 27.8082C19.0057 28.1762 18.5188 28.743 18.2446 29.4081C18.0846 29.7967 18 30.2172 18 30.6515V43.3525C18 44.5273 18.608 45.5033 19.6273 46.0884L21.2044 46.9866L21.2524 32.0868C21.2524 31.7714 21.321 31.4446 21.4284 31.1589C21.6387 30.6423 22.0272 30.1715 22.5278 29.8858L31.1467 24.9512C31.9284 24.5032 32.8861 24.5032 33.6677 24.9512L42.2867 29.8858C42.8878 30.2309 43.3152 30.8023 43.4821 31.456C43.5346 31.6594 43.5621 31.8697 43.5621 32.0868V41.9217C43.5621 42.8314 43.0752 43.6702 42.2867 44.1228L33.6677 49.0574C33.2746 49.2836 32.8358 49.3933 32.3969 49.391V53C32.9592 53 33.526 52.856 34.0289 52.568L45.1597 46.1935C46.1791 45.6107 46.8076 44.525 46.8076 43.3502V30.6515C46.8076 30.3498 46.7665 30.0549 46.6865 29.7738C46.4648 28.9533 45.9208 28.2425 45.1643 27.8082Z" fill="#FACC15"/>
<path d="M33.3086 45.6454L39.4911 42.105C40.058 41.7805 40.4054 41.1793 40.4054 40.5257V33.4746C40.4054 33.326 40.3871 33.1821 40.3528 33.0404C40.2363 32.5627 39.9277 32.1467 39.4911 31.8953L33.3086 28.3572C32.7487 28.0372 32.0607 28.0372 31.5007 28.3572L25.3205 31.8953C24.9319 32.1193 24.6439 32.4735 24.5022 32.8826C24.4428 33.0678 24.404 33.2758 24.404 33.4746L24.3811 48.7789L27.6792 50.6303V43.4581L31.5007 45.6454C31.775 45.8031 32.0813 45.8831 32.3875 45.8854C32.7052 45.8899 33.0229 45.81 33.3086 45.6454ZM28.198 40.032C27.8621 39.84 27.6541 39.4811 27.6541 39.0949V34.9077C27.6541 34.7797 27.6769 34.6563 27.7181 34.5397C27.8049 34.302 27.9718 34.0986 28.198 33.9706L31.8687 31.8701C32.2001 31.6804 32.6092 31.6804 32.9429 31.8701L36.6136 33.9706C36.8833 34.126 37.0707 34.3866 37.1324 34.6837C37.1438 34.7477 37.1553 34.8414 37.1553 34.9077V39.0949C37.1553 39.4811 36.9473 39.84 36.6113 40.032L32.9406 42.1324C32.7738 42.2284 32.5887 42.2764 32.4035 42.2764C32.2184 42.2764 32.0333 42.2284 31.8664 42.1347L28.198 40.032Z" fill="#FACC15"/>
</g>
<defs>
<clipPath id="clip0_718_2679">
<rect width="64" height="64" fill="white"/>
</clipPath>
</defs>
</svg>
