<svg width="64" height="64" viewBox="0 0 64 64" fill="none" xmlns="http://www.w3.org/2000/svg">
<g clip-path="url(#clip0_717_3809)">
<mask id="path-1-inside-1_717_3809" fill="white">
<path fill-rule="evenodd" clip-rule="evenodd" d="M10.941 3.7636C13.5345 3.18724 16.6233 3 20.1953 3H25.371C28.5803 3 31.5773 4.60392 33.3575 7.27423L35.9571 11.1738C36.5506 12.0638 37.5495 12.5985 38.6194 12.5985H54.7943C59.9055 12.5985 64.0482 16.6336 63.9996 21.8298C63.9413 28.0176 63.9903 34.2078 63.9903 40.3959C63.9903 43.9679 63.8031 47.0567 63.2266 49.6502C62.6423 52.2802 61.6159 54.5925 59.8037 56.4047C57.9915 58.2169 55.6792 59.2433 53.0492 59.8275C50.4557 60.4041 47.3669 60.5913 43.795 60.5913H20.1953C16.6233 60.5913 13.5345 60.4041 10.941 59.8275C8.31119 59.2433 5.99871 58.2169 4.1865 56.4047C2.37433 54.5925 1.34805 52.2802 0.763596 49.6502C0.187236 47.0567 0 43.9679 0 40.3959V23.1953C0 19.6233 0.187236 16.5345 0.763596 13.941C1.34805 11.3112 2.37433 8.99871 4.1865 7.1865C5.99871 5.37433 8.31119 4.34805 10.941 3.7636Z"/>
</mask>
<path fill-rule="evenodd" clip-rule="evenodd" d="M10.941 3.7636C13.5345 3.18724 16.6233 3 20.1953 3H25.371C28.5803 3 31.5773 4.60392 33.3575 7.27423L35.9571 11.1738C36.5506 12.0638 37.5495 12.5985 38.6194 12.5985H54.7943C59.9055 12.5985 64.0482 16.6336 63.9996 21.8298C63.9413 28.0176 63.9903 34.2078 63.9903 40.3959C63.9903 43.9679 63.8031 47.0567 63.2266 49.6502C62.6423 52.2802 61.6159 54.5925 59.8037 56.4047C57.9915 58.2169 55.6792 59.2433 53.0492 59.8275C50.4557 60.4041 47.3669 60.5913 43.795 60.5913H20.1953C16.6233 60.5913 13.5345 60.4041 10.941 59.8275C8.31119 59.2433 5.99871 58.2169 4.1865 56.4047C2.37433 54.5925 1.34805 52.2802 0.763596 49.6502C0.187236 47.0567 0 43.9679 0 40.3959V23.1953C0 19.6233 0.187236 16.5345 0.763596 13.941C1.34805 11.3112 2.37433 8.99871 4.1865 7.1865C5.99871 5.37433 8.31119 4.34805 10.941 3.7636Z" stroke="#115E59" stroke-width="12" mask="url(#path-1-inside-1_717_3809)"/>
<g clip-path="url(#clip1_717_3809)">
<path d="M46.265 25.7352C44.265 23.7352 41.197 23.7352 39.197 25.5992C39.068 25.7352 39.068 25.8642 39.068 26.0002C39.068 26.1362 39.068 26.2652 39.197 26.4012L39.864 27.0682C40 27.1972 40.265 27.1972 40.531 27.0682C41.068 26.6672 41.599 26.5312 42.266 26.5312C43.865 26.5312 45.198 27.8642 45.198 29.4702C45.198 30.2662 44.933 30.9332 44.402 31.4702C40.402 35.4702 34.933 24.2662 22.803 30.0012C22 30.4022 21.599 31.3342 22 32.1372V32.2662L24 35.8652C24.401 36.6682 25.469 36.9332 26.265 36.5322L27.197 36.0012C28.265 35.3342 29.197 34.6682 30.136 33.8652C30.265 33.7362 30.667 33.7362 30.803 33.8652C31.068 34.0012 31.068 34.2662 30.932 34.5322L30.803 34.6682C29.864 35.4712 28.803 36.2672 27.735 36.9332L26.803 37.3342C26.402 37.5992 26 37.7352 25.47 37.7352C24.531 37.7352 23.599 37.1982 23.198 36.4022L21.198 32.9332C17.47 35.6002 15.069 40.8042 16.402 47.3342C16.402 47.5992 16.667 47.7352 16.933 47.7352H19.198C19.47 47.7352 19.599 47.5992 19.735 47.3342C20 45.4702 21.599 44.2662 23.47 44.5312C24.933 44.6672 26.137 45.8642 26.266 47.3342C26.266 47.5992 26.531 47.7352 26.803 47.7352H28.932C29.197 47.7352 29.333 47.5992 29.469 47.3342C29.734 45.4702 31.333 44.2662 33.197 44.5312C34.666 44.6672 35.864 45.8642 36 47.3342C36 47.5992 36.265 47.7352 36.531 47.7352H38.667C38.932 47.7352 39.198 47.4702 39.198 47.1982C39.198 44.1372 40.137 40.6672 42.402 38.9332C50.266 32.8042 48.137 27.6002 46.266 25.7362L46.265 25.7352ZM38 34.9322L36.401 34.1362C36.401 33.5992 36.802 33.1972 37.333 33.1972C37.864 33.1972 38.265 33.5982 38.265 34.1362C38.401 34.5312 38.265 34.8032 38 34.9322Z" fill="#2DD4BF"/>
</g>
</g>
<defs>
<clipPath id="clip0_717_3809">
<rect width="64" height="64" fill="white"/>
</clipPath>
<clipPath id="clip1_717_3809">
<rect width="32" height="32" fill="white" transform="translate(16 20)"/>
</clipPath>
</defs>
</svg>
