<svg width="64" height="64" viewBox="0 0 64 64" fill="none" xmlns="http://www.w3.org/2000/svg">
<g clip-path="url(#clip0_718_2573)">
<path fill-rule="evenodd" clip-rule="evenodd" d="M10.941 3.7636C13.5345 3.18724 16.6233 3 20.1953 3H25.371C28.5803 3 31.5773 4.60392 33.3575 7.27423L35.9571 11.1738C36.5506 12.0638 37.5495 12.5985 38.6194 12.5985H54.7943C59.9055 12.5985 64.0482 16.6336 63.9996 21.8298C63.9413 28.0176 63.9903 34.2078 63.9903 40.3959C63.9903 43.9679 63.8031 47.0567 63.2266 49.6502C62.6423 52.2802 61.6159 54.5925 59.8037 56.4047C57.9915 58.2169 55.6792 59.2433 53.0492 59.8275C50.4557 60.4041 47.3669 60.5913 43.795 60.5913H20.1953C16.6233 60.5913 13.5345 60.4041 10.941 59.8275C8.31119 59.2433 5.99871 58.2169 4.1865 56.4047C2.37433 54.5925 1.34805 52.2802 0.763597 49.6502C0.187236 47.0567 0 43.9679 0 40.3959V23.1953C0 19.6233 0.187236 16.5345 0.763597 13.941C1.34805 11.3112 2.37433 8.99871 4.1865 7.1865C5.99871 5.37433 8.31119 4.34805 10.941 3.7636Z" fill="#9A3412"/>
<path d="M43.5729 24.2286C40.6459 19.9786 34.9169 18.7496 30.5049 21.4266L23.0409 26.1716C20.9989 27.4526 19.5979 29.5366 19.1869 31.9056C18.8219 33.8746 19.1399 35.9106 20.0779 37.6816C19.4369 38.6456 19.0049 39.7336 18.8119 40.8796C18.3849 43.2856 18.9419 45.7646 20.3589 47.7596C23.2909 51.9996 29.0049 53.2336 33.4269 50.5876L40.8959 45.8376C42.9269 44.5566 44.3229 42.4726 44.7349 40.1036C45.0939 38.1396 44.7769 36.1086 43.8389 34.3486C45.8229 31.2336 45.7189 27.2286 43.5729 24.2286ZM29.7599 48.1716C27.3589 48.7966 24.8219 47.8536 23.4109 45.8126C22.5459 44.6146 22.2289 43.1356 22.4789 41.6666L22.6249 40.9586L22.7599 40.5206L23.1609 40.7866C24.0409 41.4536 25.0259 41.9326 26.0779 42.2556L26.3489 42.3496L26.3179 42.6156C26.2919 42.9856 26.4009 43.4016 26.6149 43.7196C27.0529 44.3496 27.8129 44.6516 28.5469 44.4536C28.7079 44.4016 28.8649 44.3496 28.9999 44.2656L36.4379 39.5206C36.8129 39.2806 37.0529 38.9216 37.1459 38.4946C37.2289 38.0516 37.1199 37.5986 36.8799 37.2396C36.4369 36.6246 35.6819 36.3486 34.9479 36.5316C34.7869 36.5886 34.6149 36.6516 34.4789 36.7346L31.6659 38.5206C29.0049 40.1036 25.5669 39.3596 23.8009 36.8126C22.9419 35.6146 22.6029 34.1196 22.8629 32.6666C23.1229 31.2286 23.9829 29.9686 25.2279 29.1976L32.6499 24.4526C33.1189 24.1606 33.6239 23.9476 34.1709 23.7856C36.5719 23.1606 39.1029 24.1036 40.5199 26.1346C41.5199 27.5406 41.8009 29.3376 41.2799 30.9836L41.1449 31.4266L40.7599 31.1606C39.8689 30.5096 38.8799 30.0146 37.8279 29.6916L37.5619 29.6136L37.5879 29.3476C37.6139 28.9566 37.5049 28.5456 37.2909 28.2276C36.8529 27.5976 36.0929 27.3316 35.3589 27.5196C35.1979 27.5716 35.0409 27.6236 34.9059 27.7076L27.4529 32.4936C27.0779 32.7436 26.8379 33.0926 26.7599 33.5296C26.6819 33.9566 26.7859 34.4256 27.0259 34.7696C27.4529 35.3996 28.2289 35.6656 28.9479 35.4776C29.1199 35.4256 29.2809 35.3736 29.4119 35.2896L32.2559 33.4766C32.7199 33.1696 33.2399 32.9456 33.7719 32.7996C36.1889 32.1696 38.7099 33.1176 40.1209 35.1586C40.9859 36.3566 41.3189 37.8356 41.0789 39.2886C40.8289 40.7266 39.9799 41.9866 38.7459 42.7576L31.3079 47.4916C30.8239 47.7836 30.3029 48.0126 29.7609 48.1686L29.7599 48.1716Z" fill="#FB923C"/>
</g>
<defs>
<clipPath id="clip0_718_2573">
<rect width="64" height="64" fill="white"/>
</clipPath>
</defs>
</svg>
