<svg width="64" height="64" viewBox="0 0 64 64" fill="none" xmlns="http://www.w3.org/2000/svg">
<g clip-path="url(#clip0_712_2915)">
<path fill-rule="evenodd" clip-rule="evenodd" d="M10.941 3.7636C13.5345 3.18724 16.6233 3 20.1953 3H25.371C28.5803 3 31.5773 4.60392 33.3575 7.27423L35.9571 11.1738C36.5506 12.0638 37.5495 12.5985 38.6194 12.5985H54.7943C59.9055 12.5985 64.0482 16.6336 63.9996 21.8298C63.9413 28.0176 63.9903 34.2078 63.9903 40.3959C63.9903 43.9679 63.8031 47.0567 63.2266 49.6502C62.6423 52.2802 61.6159 54.5925 59.8037 56.4047C57.9915 58.2169 55.6792 59.2433 53.0492 59.8275C50.4557 60.4041 47.3669 60.5913 43.795 60.5913H20.1953C16.6233 60.5913 13.5345 60.4041 10.941 59.8275C8.31119 59.2433 5.99871 58.2169 4.1865 56.4047C2.37433 54.5925 1.34805 52.2802 0.763597 49.6502C0.187236 47.0567 0 43.9679 0 40.3959V23.1953C0 19.6233 0.187236 16.5345 0.763597 13.941C1.34805 11.3112 2.37433 8.99871 4.1865 7.1865C5.99871 5.37433 8.31119 4.34805 10.941 3.7636Z" fill="#166534"/>
<g clip-path="url(#clip1_712_2915)">
<path d="M32 37C31.4 37 31 37.4 31 38V40C31 40.6 31.4 41 32 41C32.6 41 33 40.6 33 40V38C33 37.4 32.6 37 32 37Z" fill="#4ADE80"/>
<path d="M32 30C30.3 30 29 31.3 29 33V34H35V33C35 31.3 33.7 30 32 30Z" fill="#4ADE80"/>
<path d="M47.5 32.2998C47.4 31.7998 46.9 31.4998 46.4 31.4998C44.9 31.6998 43.5 30.9998 42.8 29.6998C42.1 28.3998 42.2 26.8998 43.1 25.6998C43.4 25.2998 43.4 24.6998 43 24.3998C41.2 22.6998 38.9 21.3998 36.5 20.6998C36 20.5998 35.5 20.7998 35.3 21.2998C34.7 22.6998 33.4 23.4998 32 23.4998C30.6 23.4998 29.2 22.5998 28.7 21.2998C28.5 20.7998 28 20.5998 27.5 20.6998C25.1 21.3998 22.8 22.6998 21 24.3998C20.6 24.7998 20.6 25.2998 20.9 25.6998C21.8 26.8998 21.9 28.3998 21.2 29.6998C20.5 30.9998 19.1 31.6998 17.6 31.4998C17.1 31.3998 16.6 31.7998 16.5 32.2998C16.2 33.4998 16 34.7998 16 35.9998C16 37.1998 16.2 38.4998 16.5 39.6998C16.6 40.1998 17.1 40.4998 17.6 40.4998C19 40.2998 20.4 40.9998 21.1 42.2998C21.8 43.5998 21.7 45.0998 20.8 46.2998C20.5 46.6998 20.5 47.2998 20.9 47.5998C22.7 49.2998 25 50.5998 27.4 51.2998C27.9 51.3998 28.4 51.1998 28.6 50.6998C29.2 49.2998 30.5 48.4998 31.9 48.4998C33.3 48.4998 34.7 49.3998 35.2 50.6998C35.4 51.0998 35.7 51.2998 36.1 51.2998C36.2 51.2998 36.3 51.2998 36.4 51.2998C38.8 50.5998 41 49.2998 42.9 47.5998C43.3 47.1998 43.3 46.6998 43 46.2998C42.1 45.0998 42 43.5998 42.7 42.2998C43.4 40.9998 44.8 40.2998 46.3 40.4998C46.8 40.5998 47.3 40.1998 47.4 39.6998C47.7 38.3998 47.9 37.1998 47.9 35.9998C47.9 34.7998 47.8 33.4998 47.5 32.2998ZM38 40.9998C38 42.6998 36.7 43.9998 35 43.9998H29C27.3 43.9998 26 42.6998 26 40.9998V36.9998C26 36.0998 26.4 35.2998 27 34.7998V32.9998C27 30.1998 29.2 27.9998 32 27.9998C34.8 27.9998 37 30.1998 37 32.9998V34.7998C37.6 35.2998 38 36.0998 38 36.9998V40.9998Z" fill="#4ADE80"/>
</g>
</g>
<defs>
<clipPath id="clip0_712_2915">
<rect width="64" height="64" fill="white"/>
</clipPath>
<clipPath id="clip1_712_2915">
<rect width="32" height="32" fill="white" transform="translate(16 20)"/>
</clipPath>
</defs>
</svg>
