<svg width="64" height="64" viewBox="0 0 64 64" fill="none" xmlns="http://www.w3.org/2000/svg">
<g clip-path="url(#clip0_712_2686)">
<path fill-rule="evenodd" clip-rule="evenodd" d="M10.941 3.7636C13.5345 3.18724 16.6233 3 20.1953 3H25.371C28.5803 3 31.5773 4.60392 33.3575 7.27423L35.9571 11.1738C36.5506 12.0638 37.5495 12.5985 38.6194 12.5985H54.7943C59.9055 12.5985 64.0482 16.6336 63.9996 21.8298C63.9413 28.0176 63.9903 34.2078 63.9903 40.3959C63.9903 43.9679 63.8031 47.0567 63.2266 49.6502C62.6423 52.2802 61.6159 54.5925 59.8037 56.4047C57.9915 58.2169 55.6792 59.2433 53.0492 59.8275C50.4557 60.4041 47.3669 60.5913 43.795 60.5913H20.1953C16.6233 60.5913 13.5345 60.4041 10.941 59.8275C8.31119 59.2433 5.99871 58.2169 4.1865 56.4047C2.37433 54.5925 1.34805 52.2802 0.763597 49.6502C0.187236 47.0567 0 43.9679 0 40.3959V23.1953C0 19.6233 0.187236 16.5345 0.763597 13.941C1.34805 11.3112 2.37433 8.99871 4.1865 7.1865C5.99871 5.37433 8.31119 4.34805 10.941 3.7636Z" fill="#1E40AF"/>
<path d="M24 43.4C24 43.8243 23.8314 44.2313 23.5314 44.5314C23.2313 44.8314 22.8243 45 22.4 45H19.2C18.7757 45 18.3687 44.8314 18.0686 44.5314C17.7686 44.2313 17.6 43.8243 17.6 43.4C17.6 42.9757 17.7686 42.5687 18.0686 42.2686C18.3687 41.9686 18.7757 41.8 19.2 41.8H22.4C22.8243 41.8 23.2313 41.9686 23.5314 42.2686C23.8314 42.5687 24 42.9757 24 43.4ZM22.4 38.6C22.8243 38.6 23.2313 38.4314 23.5314 38.1314C23.8314 37.8313 24 37.4243 24 37C24 36.5757 23.8314 36.1687 23.5314 35.8686C23.2313 35.5686 22.8243 35.4 22.4 35.4H17.6C17.1757 35.4 16.7687 35.5686 16.4686 35.8686C16.1686 36.1687 16 36.5757 16 37C16 37.4243 16.1686 37.8313 16.4686 38.1314C16.7687 38.4314 17.1757 38.6 17.6 38.6H22.4ZM38.4 29C38.8243 29 39.2313 28.8314 39.5314 28.5314C39.8314 28.2313 40 27.8243 40 27.4V24.2C40 23.7757 39.8314 23.3687 39.5314 23.0686C39.2313 22.7686 38.8243 22.6 38.4 22.6C37.9757 22.6 37.5687 22.7686 37.2686 23.0686C36.9686 23.3687 36.8 23.7757 36.8 24.2V27.4C36.8 27.8243 36.9686 28.2313 37.2686 28.5314C37.5687 28.8314 37.9757 29 38.4 29ZM25.6 45C25.1757 45 24.7687 45.1686 24.4686 45.4686C24.1686 45.7687 24 46.1757 24 46.6V49.8C24 50.2243 24.1686 50.6313 24.4686 50.9314C24.7687 51.2314 25.1757 51.4 25.6 51.4C26.0243 51.4 26.4313 51.2314 26.7314 50.9314C27.0314 50.6313 27.2 50.2243 27.2 49.8V46.6C27.2 46.1757 27.0314 45.7687 26.7314 45.4686C26.4313 45.1686 26.0243 45 25.6 45ZM19.2 32.2H22.4C22.8243 32.2 23.2313 32.0314 23.5314 31.7314C23.8314 31.4313 24 31.0243 24 30.6C24 30.1757 23.8314 29.7687 23.5314 29.4686C23.2313 29.1686 22.8243 29 22.4 29H19.2C18.7757 29 18.3687 29.1686 18.0686 29.4686C17.7686 29.7687 17.6 30.1757 17.6 30.6C17.6 31.0243 17.7686 31.4313 18.0686 31.7314C18.3687 32.0314 18.7757 32.2 19.2 32.2ZM41.6 32.2H44.8C45.2243 32.2 45.6313 32.0314 45.9314 31.7314C46.2314 31.4313 46.4 31.0243 46.4 30.6C46.4 30.1757 46.2314 29.7687 45.9314 29.4686C45.6313 29.1686 45.2243 29 44.8 29H41.6C41.1757 29 40.7687 29.1686 40.4686 29.4686C40.1686 29.7687 40 30.1757 40 30.6C40 31.0243 40.1686 31.4313 40.4686 31.7314C40.7687 32.0314 41.1757 32.2 41.6 32.2ZM44.8 41.8H41.6C41.1757 41.8 40.7687 41.9686 40.4686 42.2686C40.1686 42.5687 40 42.9757 40 43.4C40 43.8243 40.1686 44.2313 40.4686 44.5314C40.7687 44.8314 41.1757 45 41.6 45H44.8C45.2243 45 45.6313 44.8314 45.9314 44.5314C46.2314 44.2313 46.4 43.8243 46.4 43.4C46.4 42.9757 46.2314 42.5687 45.9314 42.2686C45.6313 41.9686 45.2243 41.8 44.8 41.8ZM38.4 45C37.9757 45 37.5687 45.1686 37.2686 45.4686C36.9686 45.7687 36.8 46.1757 36.8 46.6V49.8C36.8 50.2243 36.9686 50.6313 37.2686 50.9314C37.5687 51.2314 37.9757 51.4 38.4 51.4C38.8243 51.4 39.2313 51.2314 39.5314 50.9314C39.8314 50.6313 40 50.2243 40 49.8V46.6C40 46.1757 39.8314 45.7687 39.5314 45.4686C39.2313 45.1686 38.8243 45 38.4 45ZM46.4 35.4H41.6C41.1757 35.4 40.7687 35.5686 40.4686 35.8686C40.1686 36.1687 40 36.5757 40 37C40 37.4243 40.1686 37.8313 40.4686 38.1314C40.7687 38.4314 41.1757 38.6 41.6 38.6H46.4C46.8243 38.6 47.2313 38.4314 47.5314 38.1314C47.8314 37.8313 48 37.4243 48 37C48 36.5757 47.8314 36.1687 47.5314 35.8686C47.2313 35.5686 46.8243 35.4 46.4 35.4ZM32 21C31.5757 21 31.1687 21.1686 30.8686 21.4686C30.5686 21.7687 30.4 22.1757 30.4 22.6V27.4C30.4 27.8243 30.5686 28.2313 30.8686 28.5314C31.1687 28.8314 31.5757 29 32 29C32.4243 29 32.8313 28.8314 33.1314 28.5314C33.4314 28.2313 33.6 27.8243 33.6 27.4V22.6C33.6 22.1757 33.4314 21.7687 33.1314 21.4686C32.8313 21.1686 32.4243 21 32 21ZM25.6 22.6C25.1757 22.6 24.7687 22.7686 24.4686 23.0686C24.1686 23.3687 24 23.7757 24 24.2V27.4C24 27.8243 24.1686 28.2313 24.4686 28.5314C24.7687 28.8314 25.1757 29 25.6 29C26.0243 29 26.4313 28.8314 26.7314 28.5314C27.0314 28.2313 27.2 27.8243 27.2 27.4V24.2C27.2 23.7757 27.0314 23.3687 26.7314 23.0686C26.4313 22.7686 26.0243 22.6 25.6 22.6ZM32 45C31.5757 45 31.1687 45.1686 30.8686 45.4686C30.5686 45.7687 30.4 46.1757 30.4 46.6V51.4C30.4 51.8243 30.5686 52.2313 30.8686 52.5314C31.1687 52.8314 31.5757 53 32 53C32.4243 53 32.8313 52.8314 33.1314 52.5314C33.4314 52.2313 33.6 51.8243 33.6 51.4V46.6C33.6 46.1757 33.4314 45.7687 33.1314 45.4686C32.8313 45.1686 32.4243 45 32 45Z" fill="#60A5FA"/>
<path d="M40 25.8H24C22.2327 25.8 20.8 27.2327 20.8 29V45C20.8 46.7673 22.2327 48.2 24 48.2H40C41.7673 48.2 43.2 46.7673 43.2 45V29C43.2 27.2327 41.7673 25.8 40 25.8Z" fill="#60A5FA"/>
</g>
<defs>
<clipPath id="clip0_712_2686">
<rect width="64" height="64" fill="white"/>
</clipPath>
</defs>
</svg>
