<svg width="63" height="63" viewBox="0 0 63 63" fill="none" xmlns="http://www.w3.org/2000/svg">
<g clip-path="url(#clip0_715_2714)">
<path fill-rule="evenodd" clip-rule="evenodd" d="M10.7701 3.70479C13.323 3.13744 16.3636 2.95312 19.8798 2.95312H24.9746C28.1337 2.95312 31.0839 4.53198 32.8363 7.16057L35.3953 10.9992C35.9795 11.8753 36.9628 12.4017 38.016 12.4017H53.9381C58.9695 12.4017 63.0475 16.3737 62.9996 21.4887C62.9423 27.5799 62.9905 33.6733 62.9905 39.7647C62.9905 43.2809 62.8062 46.3214 62.2387 48.8744C61.6636 51.4633 60.6532 53.7395 58.8693 55.5234C57.0854 57.3073 54.8093 58.3176 52.2203 58.8927C49.6673 59.4603 46.6268 59.6445 43.1107 59.6445H19.8798C16.3636 59.6445 13.323 59.4603 10.7701 58.8927C8.18133 58.3176 5.90498 57.3073 4.12109 55.5234C2.33723 53.7395 1.32699 51.4633 0.751665 48.8744C0.18431 46.3214 0 43.2809 0 39.7647V22.8329C0 19.3167 0.18431 16.2762 0.751665 13.7232C1.32699 11.1345 2.33723 8.8581 4.12109 7.07421C5.90498 5.29035 8.18133 4.28011 10.7701 3.70479Z" fill="#854D0E"/>
<g clip-path="url(#clip1_715_2714)">
<path d="M43.2401 41.3258L46.6701 43.0418C47.1101 43.2618 47.1101 43.8898 46.6701 44.1098L31.5341 51.6798C31.3683 51.7626 31.1854 51.8057 31.0001 51.8057C30.8148 51.8057 30.6319 51.7626 30.4661 51.6798L15.3301 44.1098C15.2312 44.06 15.1481 43.9837 15.0901 43.8894C15.032 43.7951 15.0013 43.6866 15.0013 43.5758C15.0013 43.4651 15.032 43.3566 15.0901 43.2623C15.1481 43.168 15.2312 43.0917 15.3301 43.0418L18.7621 41.3258L29.3961 46.6438C30.4061 47.1478 31.5961 47.1478 32.6041 46.6438L43.2381 41.3238L43.2401 41.3258ZM30.4661 21.1258C30.6319 21.0431 30.8148 21 31.0001 21C31.1854 21 31.3683 21.0431 31.5341 21.1258L46.6701 28.6938C46.7689 28.744 46.8519 28.8205 46.9098 28.915C46.9678 29.0094 46.9985 29.118 46.9985 29.2288C46.9985 29.3396 46.9678 29.4483 46.9098 29.5427C46.8519 29.6371 46.7689 29.7137 46.6701 29.7638L31.5341 37.3298C31.3683 37.4126 31.1854 37.4557 31.0001 37.4557C30.8148 37.4557 30.6319 37.4126 30.4661 37.3298L15.3301 29.7638C15.2307 29.7142 15.1471 29.6378 15.0887 29.5433C15.0302 29.4488 14.9993 29.3399 14.9993 29.2288C14.9993 29.1177 15.0302 29.0088 15.0887 28.9143C15.1471 28.8198 15.2307 28.7435 15.3301 28.6938L30.4661 21.1258Z" fill="#FACC15"/>
<path d="M43.2401 34.1523L46.6701 35.8683C47.1101 36.0883 47.1101 36.7163 46.6701 36.9363L31.5341 44.5043C31.3682 44.5871 31.1854 44.6302 31.0001 44.6302C30.8147 44.6302 30.6319 44.5871 30.4661 44.5043L15.3301 36.9363C15.2312 36.8865 15.1481 36.8102 15.09 36.7159C15.032 36.6216 15.0012 36.5131 15.0012 36.4023C15.0012 36.2916 15.032 36.1831 15.09 36.0888C15.1481 35.9945 15.2312 35.9182 15.3301 35.8683L18.7621 34.1523L29.3961 39.4703C30.4061 39.9743 31.5961 39.9743 32.6041 39.4703L43.2401 34.1523Z" fill="#FACC15"/>
</g>
</g>
<defs>
<clipPath id="clip0_715_2714">
<rect width="63" height="63" fill="white"/>
</clipPath>
<clipPath id="clip1_715_2714">
<rect width="32" height="32" fill="white" transform="translate(15 21)"/>
</clipPath>
</defs>
</svg>
