<svg width="64" height="64" viewBox="0 0 64 64" fill="none" xmlns="http://www.w3.org/2000/svg">
<g clip-path="url(#clip0_711_2549)">
<path fill-rule="evenodd" clip-rule="evenodd" d="M10.9409 3.7636C13.5344 3.18724 16.6232 3 20.1952 3H25.3708C28.5802 3 31.5772 4.60392 33.3574 7.27423L35.957 11.1738C36.5505 12.0638 37.5494 12.5985 38.6193 12.5985H54.7941C59.9054 12.5985 64.0481 16.6336 63.9995 21.8298C63.9412 28.0176 63.9902 34.2078 63.9902 40.3959C63.9902 43.9679 63.803 47.0567 63.2265 49.6502C62.6422 52.2802 61.6158 54.5925 59.8036 56.4047C57.9914 58.2169 55.6791 59.2433 53.0491 59.8275C50.4556 60.4041 47.3668 60.5913 43.7948 60.5913H20.1952C16.6232 60.5913 13.5344 60.4041 10.9409 59.8275C8.31107 59.2433 5.99858 58.2169 4.18638 56.4047C2.37421 54.5925 1.34793 52.2802 0.763475 49.6502C0.187114 47.0567 -0.00012207 43.9679 -0.00012207 40.3959V23.1953C-0.00012207 19.6233 0.187114 16.5345 0.763475 13.941C1.34793 11.3112 2.37421 8.99871 4.18638 7.1865C5.99858 5.37433 8.31107 4.34805 10.9409 3.7636Z" fill="#9A3412"/>
<g clip-path="url(#clip1_711_2549)">
<path d="M16 36V34.016C16 31.7973 16.7787 29.9093 18.336 28.352C19.8933 26.7947 21.7813 26.016 24 26.016C24.6827 26.016 25.408 26.1333 26.176 26.368C26.56 24.5333 27.488 23.0187 28.96 21.824C30.432 20.6293 32.1173 20.0213 34.016 20C36.2133 20 38.0907 20.7893 39.648 22.368C41.2053 23.9467 41.9947 25.824 42.016 28C42.016 28.5973 41.9093 29.28 41.696 30.048C41.8453 30.0267 41.952 30.016 42.016 30.016C43.6587 30.016 45.0667 30.6027 46.24 31.776C47.4133 32.9493 48 34.3573 48 36V38.016C48 39.68 47.4133 41.088 46.24 42.24C45.0667 43.392 43.6587 43.9787 42.016 44H41.632C41.824 43.4667 41.9413 42.9867 41.984 42.56C42.048 41.6853 41.9413 40.832 41.664 40C41.3867 39.168 40.9173 38.432 40.256 37.792L36.256 33.792C35.0827 32.5973 33.664 32 32 32C30.336 32 28.928 32.5867 27.776 33.76L23.776 37.76C23.136 38.4 22.6667 39.1467 22.368 40C22.0693 40.8533 21.9627 41.7173 22.048 42.592C22.0693 42.976 22.1547 43.392 22.304 43.84C20.4907 43.4347 18.9867 42.5067 17.792 41.056C16.5973 39.6053 16 37.92 16 36ZM26.016 42.208C25.952 41.568 26.144 41.0347 26.592 40.608L30.592 36.608C30.9973 36.2027 31.4667 36 32 36C32.5547 36 33.024 36.2027 33.408 36.608L37.408 40.608C37.856 41.0347 38.0587 41.568 38.016 42.208C37.9947 42.4 37.9413 42.592 37.856 42.784C37.7067 43.1467 37.4613 43.4453 37.12 43.68C36.7787 43.9147 36.4053 44.0213 36 44H34.016V50.016C34.016 50.5707 33.8133 51.04 33.408 51.424C33.0027 51.808 32.5333 52 32 52C31.4667 52 30.9973 51.808 30.592 51.424C30.1867 51.04 29.9947 50.5707 30.016 50.016V44H28C27.5947 44 27.232 43.8933 26.912 43.68C26.592 43.4667 26.336 43.168 26.144 42.784C26.08 42.592 26.0373 42.4 26.016 42.208Z" fill="#FB923C"/>
</g>
</g>
<defs>
<clipPath id="clip0_711_2549">
<rect width="64" height="64" fill="white"/>
</clipPath>
<clipPath id="clip1_711_2549">
<rect width="32" height="32" fill="white" transform="translate(16 20)"/>
</clipPath>
</defs>
</svg>
