<svg width="64" height="64" viewBox="0 0 64 64" fill="none" xmlns="http://www.w3.org/2000/svg">
<g clip-path="url(#clip0_715_3321)">
<path fill-rule="evenodd" clip-rule="evenodd" d="M10.941 3.7636C13.5345 3.18724 16.6233 3 20.1953 3H25.371C28.5803 3 31.5773 4.60392 33.3575 7.27423L35.9571 11.1738C36.5506 12.0638 37.5495 12.5985 38.6194 12.5985H54.7943C59.9055 12.5985 64.0482 16.6336 63.9996 21.8298C63.9413 28.0176 63.9903 34.2078 63.9903 40.3959C63.9903 43.9679 63.8031 47.0567 63.2266 49.6502C62.6423 52.2802 61.6159 54.5925 59.8037 56.4047C57.9915 58.2169 55.6792 59.2433 53.0492 59.8275C50.4557 60.4041 47.3669 60.5913 43.795 60.5913H20.1953C16.6233 60.5913 13.5345 60.4041 10.941 59.8275C8.31119 59.2433 5.99871 58.2169 4.1865 56.4047C2.37433 54.5925 1.34805 52.2802 0.763597 49.6502C0.187236 47.0567 0 43.9679 0 40.3959V23.1953C0 19.6233 0.187236 16.5345 0.763597 13.941C1.34805 11.3112 2.37433 8.99871 4.1865 7.1865C5.99871 5.37433 8.31119 4.34805 10.941 3.7636Z" fill="#495057"/>
<path fill-rule="evenodd" clip-rule="evenodd" d="M47.4653 33.1988L47.4231 33.082L43.0665 21.7237C42.9788 21.5003 42.8222 21.3106 42.6194 21.1822C42.468 21.085 42.2959 21.0247 42.117 21.0061C41.938 20.9876 41.7572 21.0112 41.5891 21.0753C41.4209 21.1393 41.2701 21.2419 41.1489 21.3748C41.0276 21.5076 40.9391 21.6671 40.8907 21.8404L37.9524 30.8392H26.0476L23.1068 21.8404C23.0578 21.6678 22.9691 21.5091 22.848 21.3768C22.7268 21.2445 22.5764 21.1423 22.4087 21.0784C22.2411 21.0145 22.0609 20.9906 21.8824 21.0086C21.7039 21.0266 21.532 21.0861 21.3806 21.1822C21.1778 21.3106 21.0212 21.5003 20.9335 21.7237L16.5794 33.0845L16.5347 33.1963C15.9074 34.8343 15.8298 36.6319 16.3137 38.3179C16.7976 40.0039 17.8167 41.4867 19.2172 42.5428L19.2346 42.5552L19.2718 42.5825L25.8961 47.5501L31.1791 51.5416C31.4133 51.7187 31.6989 51.8145 31.9925 51.8145C32.2862 51.8145 32.5718 51.7187 32.806 51.5416L34.803 50.0314L38.089 47.5476L44.7629 42.5552L44.7803 42.5403C46.1802 41.4849 47.1991 40.003 47.6834 38.3181C48.1677 36.6331 48.0911 34.8364 47.4653 33.1988Z" fill="#E53935"/>
<path fill-rule="evenodd" clip-rule="evenodd" d="M47.4653 33.1988L47.4231 33.082C45.3014 33.5173 43.3023 34.4164 41.5688 35.7149L32.0062 42.9476L38.094 47.5501L44.7853 42.5403C46.1847 41.4846 47.2031 40.0025 47.687 38.3176C48.1708 36.6327 48.0914 34.8362 47.4653 33.1988Z" fill="#EF6C00"/>
<path fill-rule="evenodd" clip-rule="evenodd" d="M25.8961 47.5501L31.1791 51.5416C31.4133 51.7187 31.6989 51.8145 31.9925 51.8145C32.2862 51.8145 32.5718 51.7187 32.806 51.5416L34.803 50.0314L38.094 47.5501L32.0012 42.9476L25.8961 47.5501Z" fill="#F9A825"/>
<path fill-rule="evenodd" clip-rule="evenodd" d="M22.4312 35.7149C20.6984 34.4172 18.7001 33.519 16.5794 33.0845L16.5347 33.1988C15.908 34.8365 15.8299 36.6325 16.3137 38.3179C16.7976 40.0039 17.8167 41.4867 19.2172 42.5428L19.2346 42.5552L19.2718 42.5825L25.8961 47.5501L31.9888 42.9476L22.4312 35.7149Z" fill="#EF6C00"/>
</g>
<defs>
<clipPath id="clip0_715_3321">
<rect width="64" height="64" fill="white"/>
</clipPath>
</defs>
</svg>
