<svg width="64" height="64" viewBox="0 0 64 64" fill="none" xmlns="http://www.w3.org/2000/svg">
<g clip-path="url(#clip0_711_2564)">
<mask id="path-1-inside-1_711_2564" fill="white">
<path fill-rule="evenodd" clip-rule="evenodd" d="M10.941 3.7636C13.5345 3.18724 16.6233 3 20.1953 3H25.371C28.5803 3 31.5773 4.60392 33.3575 7.27423L35.9571 11.1738C36.5506 12.0638 37.5495 12.5985 38.6194 12.5985H54.7943C59.9055 12.5985 64.0482 16.6336 63.9996 21.8298C63.9413 28.0176 63.9903 34.2078 63.9903 40.3959C63.9903 43.9679 63.8031 47.0567 63.2266 49.6502C62.6423 52.2802 61.6159 54.5925 59.8037 56.4047C57.9915 58.2169 55.6792 59.2433 53.0492 59.8275C50.4557 60.4041 47.3669 60.5913 43.795 60.5913H20.1953C16.6233 60.5913 13.5345 60.4041 10.941 59.8275C8.31119 59.2433 5.99871 58.2169 4.1865 56.4047C2.37433 54.5925 1.34805 52.2802 0.763597 49.6502C0.187236 47.0567 0 43.9679 0 40.3959V23.1953C0 19.6233 0.187236 16.5345 0.763597 13.941C1.34805 11.3112 2.37433 8.99871 4.1865 7.1865C5.99871 5.37433 8.31119 4.34805 10.941 3.7636Z"/>
</mask>
<path fill-rule="evenodd" clip-rule="evenodd" d="M10.941 3.7636C13.5345 3.18724 16.6233 3 20.1953 3H25.371C28.5803 3 31.5773 4.60392 33.3575 7.27423L35.9571 11.1738C36.5506 12.0638 37.5495 12.5985 38.6194 12.5985H54.7943C59.9055 12.5985 64.0482 16.6336 63.9996 21.8298C63.9413 28.0176 63.9903 34.2078 63.9903 40.3959C63.9903 43.9679 63.8031 47.0567 63.2266 49.6502C62.6423 52.2802 61.6159 54.5925 59.8037 56.4047C57.9915 58.2169 55.6792 59.2433 53.0492 59.8275C50.4557 60.4041 47.3669 60.5913 43.795 60.5913H20.1953C16.6233 60.5913 13.5345 60.4041 10.941 59.8275C8.31119 59.2433 5.99871 58.2169 4.1865 56.4047C2.37433 54.5925 1.34805 52.2802 0.763597 49.6502C0.187236 47.0567 0 43.9679 0 40.3959V23.1953C0 19.6233 0.187236 16.5345 0.763597 13.941C1.34805 11.3112 2.37433 8.99871 4.1865 7.1865C5.99871 5.37433 8.31119 4.34805 10.941 3.7636Z" stroke="#166534" stroke-width="12" mask="url(#path-1-inside-1_711_2564)"/>
<g clip-path="url(#clip1_711_2564)">
<path d="M15.9999 36C15.9999 37.9413 16.6079 39.6373 17.8239 41.088C19.0399 42.5387 20.5653 43.456 22.3999 43.84C22.4213 43.84 22.4319 43.8293 22.4319 43.808V43.744C22.4319 43.744 22.4426 43.7333 22.4639 43.712C22.8266 42.816 23.2746 42.0907 23.8079 41.536C24.3413 40.9813 25.0773 40.5867 26.0159 40.352V38.016C26.0159 36.352 26.5919 34.9333 27.7439 33.76C28.8959 32.5867 30.3146 32 31.9999 32C33.6853 32 35.1039 32.5867 36.2559 33.76C37.4079 34.9333 37.9946 36.352 38.0159 38.016V40.352C38.9333 40.608 39.6586 41.0133 40.1919 41.568C40.7253 42.1227 41.1733 42.8373 41.5359 43.712L41.6319 44H42.0159C43.6586 44 45.0666 43.4133 46.2399 42.24C47.4133 41.0667 47.9999 39.6587 47.9999 38.016V36C47.9999 34.3573 47.4133 32.9493 46.2399 31.776C45.0666 30.6027 43.6586 30.016 42.0159 30.016C41.9519 30.016 41.8453 30.0267 41.6959 30.048C41.9093 29.28 42.0159 28.5973 42.0159 28C42.0159 25.8027 41.2266 23.9253 39.6479 22.368C38.0693 20.8107 36.1919 20.0213 34.0159 20C32.0959 20 30.4106 20.608 28.9599 21.824C27.5093 23.04 26.5813 24.5547 26.1759 26.368C25.4079 26.1333 24.6826 26.016 23.9999 26.016C21.8026 26.016 19.9146 26.7947 18.3359 28.352C16.7573 29.9093 15.9786 31.7973 15.9999 34.016V36ZM26.0159 45.824C25.9519 46.4427 26.1439 46.976 26.5919 47.424L30.5919 51.424C30.9759 51.808 31.4453 52 31.9999 52C32.5546 52 33.0239 51.808 33.4079 51.424L37.4079 47.424C37.8559 46.976 38.0586 46.4427 38.0159 45.824C37.9733 45.6107 37.9199 45.4187 37.8559 45.248C37.7066 44.864 37.4613 44.5653 37.1199 44.352C36.7786 44.1387 36.4053 44.0213 35.9999 44H34.0159V38.016C34.0159 37.4613 33.8133 36.992 33.4079 36.608C33.0026 36.224 32.5333 36.0213 31.9999 36C31.4666 35.9787 30.9973 36.1813 30.5919 36.608C30.1866 37.0347 29.9946 37.504 30.0159 38.016V44H27.9999C27.5946 44 27.2213 44.1173 26.8799 44.352C26.5386 44.5867 26.2933 44.8853 26.1439 45.248C26.0799 45.44 26.0373 45.632 26.0159 45.824Z" fill="#4ADE80"/>
</g>
</g>
<defs>
<clipPath id="clip0_711_2564">
<rect width="64" height="64" fill="white"/>
</clipPath>
<clipPath id="clip1_711_2564">
<rect width="32" height="32" fill="white" transform="translate(16 20)"/>
</clipPath>
</defs>
</svg>
