<svg width="64" height="64" viewBox="0 0 64 64" fill="none" xmlns="http://www.w3.org/2000/svg">
<g clip-path="url(#clip0_709_4645)">
<path fill-rule="evenodd" clip-rule="evenodd" d="M10.941 3.7636C13.5345 3.18724 16.6233 3 20.1953 3H25.371C28.5803 3 31.5773 4.60392 33.3575 7.27423L35.9571 11.1738C36.5506 12.0638 37.5495 12.5985 38.6194 12.5985H54.7943C59.9055 12.5985 64.0482 16.6336 63.9996 21.8298C63.9413 28.0176 63.9903 34.2078 63.9903 40.3959C63.9903 43.9679 63.8031 47.0567 63.2266 49.6502C62.6423 52.2802 61.6159 54.5925 59.8037 56.4047C57.9915 58.2169 55.6792 59.2433 53.0492 59.8275C50.4557 60.4041 47.3669 60.5913 43.795 60.5913H20.1953C16.6233 60.5913 13.5345 60.4041 10.941 59.8275C8.31119 59.2433 5.99871 58.2169 4.1865 56.4047C2.37433 54.5925 1.34805 52.2802 0.763597 49.6502C0.187236 47.0567 0 43.9679 0 40.3959V23.1953C0 19.6233 0.187236 16.5345 0.763597 13.941C1.34805 11.3112 2.37433 8.99871 4.1865 7.1865C5.99871 5.37433 8.31119 4.34805 10.941 3.7636Z" fill="#166534"/>
<mask id="mask0_709_4645" style="mask-type:luminance" maskUnits="userSpaceOnUse" x="18" y="20" width="29" height="32">
<path d="M31.2997 20.2024L18.7579 27.4414C18.5275 27.5741 18.3361 27.7653 18.2031 27.9955C18.07 28.2258 18 28.4871 18 28.753V43.2411C18 43.782 18.2882 44.2818 18.7579 44.5527L31.3006 51.7974C31.5311 51.9301 31.7923 51.9999 32.0583 51.9999C32.3242 51.9999 32.5854 51.9301 32.8159 51.7974L45.3565 44.5527C45.5863 44.4195 45.7772 44.2282 45.9099 43.998C46.0426 43.7678 46.1125 43.5068 46.1126 43.2411V28.753C46.1126 28.2124 45.8239 27.7123 45.3535 27.4414L32.8147 20.2024C32.5837 20.0698 32.3219 20 32.0556 20C31.7892 20 31.5275 20.0698 31.2965 20.2024" fill="white"/>
</mask>
<g mask="url(#mask0_709_4645)">
<path d="M58.7866 26.2124L23.446 8.88965L5.32544 45.8554L40.6652 63.179L58.7866 26.2124Z" fill="url(#paint0_linear_709_4645)"/>
</g>
<mask id="mask1_709_4645" style="mask-type:luminance" maskUnits="userSpaceOnUse" x="18" y="20" width="28" height="32">
<path d="M18 44.1182C18.12 44.2739 18.27 44.4087 18.4465 44.51L29.2052 50.7243L30.9973 51.7543C31.2652 51.9091 31.5706 51.9746 31.8707 51.9523C31.9707 51.9442 32.0708 51.9255 32.1684 51.8978L45.3961 27.6775C45.2949 27.5674 45.1764 27.4751 45.0436 27.3977L36.8315 22.6554L32.4905 20.1578C32.3672 20.0878 32.235 20.0348 32.0975 20L18 44.1182Z" fill="white"/>
</mask>
<g mask="url(#mask1_709_4645)">
<path d="M2.71997 31.2926L27.6741 65.0668L60.6763 40.6839L35.7207 6.91064L2.71997 31.2926Z" fill="url(#paint1_linear_709_4645)"/>
</g>
<mask id="mask2_709_4645" style="mask-type:luminance" maskUnits="userSpaceOnUse" x="18" y="20" width="28" height="32">
<path d="M31.1119 20.0057C30.8986 20.0272 30.6922 20.0933 30.5061 20.1997L18 27.4179L31.4855 51.9806C31.673 51.9538 31.8576 51.8913 32.0243 51.7948L44.5661 44.5501C44.7555 44.4405 44.9189 44.2913 45.0453 44.1128C45.1717 43.9342 45.2581 43.7304 45.2984 43.5154L31.551 20.0304C31.45 20.0102 31.3473 20.0001 31.2444 20L31.1193 20.006" fill="white"/>
</mask>
<g mask="url(#mask2_709_4645)">
<path d="M17.9998 20V51.9812H45.2931V20H17.9998Z" fill="url(#paint2_linear_709_4645)"/>
</g>
</g>
<defs>
<linearGradient id="paint0_linear_709_4645" x1="41.1058" y1="17.5236" x2="22.9864" y2="54.487" gradientUnits="userSpaceOnUse">
<stop offset="0.3" stop-color="#3E863D"/>
<stop offset="0.5" stop-color="#55934F"/>
<stop offset="0.8" stop-color="#5AAD45"/>
</linearGradient>
<linearGradient id="paint1_linear_709_4645" x1="15.3463" y1="48.3733" x2="48.3501" y2="23.9875" gradientUnits="userSpaceOnUse">
<stop offset="0.57" stop-color="#3E863D"/>
<stop offset="0.72" stop-color="#619857"/>
<stop offset="1" stop-color="#76AC64"/>
</linearGradient>
<linearGradient id="paint2_linear_709_4645" x1="18.009" y1="35.9915" x2="45.2982" y2="35.9915" gradientUnits="userSpaceOnUse">
<stop offset="0.16" stop-color="#6BBF47"/>
<stop offset="0.38" stop-color="#79B461"/>
<stop offset="0.47" stop-color="#75AC64"/>
<stop offset="0.7" stop-color="#659E5A"/>
<stop offset="0.9" stop-color="#3E863D"/>
</linearGradient>
<clipPath id="clip0_709_4645">
<rect width="64" height="64" fill="white"/>
</clipPath>
</defs>
</svg>
