<svg width="64" height="64" viewBox="0 0 64 64" fill="none" xmlns="http://www.w3.org/2000/svg">
<g clip-path="url(#clip0_713_2465)">
<mask id="path-1-inside-1_713_2465" fill="white">
<path fill-rule="evenodd" clip-rule="evenodd" d="M10.941 3.7636C13.5345 3.18724 16.6233 3 20.1953 3H25.371C28.5803 3 31.5773 4.60392 33.3575 7.27423L35.9571 11.1738C36.5506 12.0638 37.5495 12.5985 38.6194 12.5985H54.7943C59.9055 12.5985 64.0482 16.6336 63.9996 21.8298C63.9413 28.0176 63.9903 34.2078 63.9903 40.3959C63.9903 43.9679 63.8031 47.0567 63.2266 49.6502C62.6423 52.2802 61.6159 54.5925 59.8037 56.4047C57.9915 58.2169 55.6792 59.2433 53.0492 59.8275C50.4557 60.4041 47.3669 60.5913 43.795 60.5913H20.1953C16.6233 60.5913 13.5345 60.4041 10.941 59.8275C8.31119 59.2433 5.99871 58.2169 4.1865 56.4047C2.37433 54.5925 1.34805 52.2802 0.763597 49.6502C0.187236 47.0567 0 43.9679 0 40.3959V23.1953C0 19.6233 0.187236 16.5345 0.763597 13.941C1.34805 11.3112 2.37433 8.99871 4.1865 7.1865C5.99871 5.37433 8.31119 4.34805 10.941 3.7636Z"/>
</mask>
<path fill-rule="evenodd" clip-rule="evenodd" d="M10.941 3.7636C13.5345 3.18724 16.6233 3 20.1953 3H25.371C28.5803 3 31.5773 4.60392 33.3575 7.27423L35.9571 11.1738C36.5506 12.0638 37.5495 12.5985 38.6194 12.5985H54.7943C59.9055 12.5985 64.0482 16.6336 63.9996 21.8298C63.9413 28.0176 63.9903 34.2078 63.9903 40.3959C63.9903 43.9679 63.8031 47.0567 63.2266 49.6502C62.6423 52.2802 61.6159 54.5925 59.8037 56.4047C57.9915 58.2169 55.6792 59.2433 53.0492 59.8275C50.4557 60.4041 47.3669 60.5913 43.795 60.5913H20.1953C16.6233 60.5913 13.5345 60.4041 10.941 59.8275C8.31119 59.2433 5.99871 58.2169 4.1865 56.4047C2.37433 54.5925 1.34805 52.2802 0.763597 49.6502C0.187236 47.0567 0 43.9679 0 40.3959V23.1953C0 19.6233 0.187236 16.5345 0.763597 13.941C1.34805 11.3112 2.37433 8.99871 4.1865 7.1865C5.99871 5.37433 8.31119 4.34805 10.941 3.7636Z" stroke="#1E40AF" stroke-width="12" mask="url(#path-1-inside-1_713_2465)"/>
<path d="M44.8 20H37.3333V52H44.8C46.6133 52 48 50.6133 48 48.8V23.2C48 21.3867 46.6133 20 44.8 20ZM45.5467 45.28L43.4133 47.4133C43.2 47.6267 42.9867 47.7333 42.6667 47.7333C42.3467 47.7333 42.1333 47.6267 41.92 47.4133L39.7867 45.28C39.36 44.8533 39.36 44.2133 39.7867 43.7867C40.2133 43.36 40.8533 43.36 41.28 43.7867L42.6667 45.1733L44.0533 43.7867C44.48 43.36 45.12 43.36 45.5467 43.7867C45.9733 44.2133 45.9733 44.8533 45.5467 45.28ZM45.5467 28.2133C45.3333 28.4267 45.12 28.5333 44.8 28.5333C44.48 28.5333 44.2667 28.4267 44.0533 28.2133L42.6667 26.8267L41.28 28.2133C40.8533 28.64 40.2133 28.64 39.7867 28.2133C39.36 27.7867 39.36 27.1467 39.7867 26.72L41.92 24.5867C42.3467 24.16 42.9867 24.16 43.4133 24.5867L45.5467 26.72C45.9733 27.1467 45.9733 27.7867 45.5467 28.2133Z" fill="#60A5FA"/>
<path d="M19.2 20C17.3867 20 16 21.3867 16 23.2V48.8C16 50.6133 17.3867 52 19.2 52H35.2V20H19.2ZM27.7333 38.1333H21.3333C20.6933 38.1333 20.2667 37.7067 20.2667 37.0667C20.2667 36.4267 20.6933 36 21.3333 36H27.7333C28.3733 36 28.8 36.4267 28.8 37.0667C28.8 37.7067 28.3733 38.1333 27.7333 38.1333ZM27.7333 33.8667H21.3333C20.6933 33.8667 20.2667 33.44 20.2667 32.8C20.2667 32.16 20.6933 31.7333 21.3333 31.7333H27.7333C28.3733 31.7333 28.8 32.16 28.8 32.8C28.8 33.44 28.3733 33.8667 27.7333 33.8667ZM32 29.6H21.3333C20.6933 29.6 20.2667 29.1733 20.2667 28.5333C20.2667 27.8933 20.6933 27.4667 21.3333 27.4667H32C32.64 27.4667 33.0667 27.8933 33.0667 28.5333C33.0667 29.1733 32.64 29.6 32 29.6Z" fill="#60A5FA"/>
</g>
<defs>
<clipPath id="clip0_713_2465">
<rect width="64" height="64" fill="white"/>
</clipPath>
</defs>
</svg>
