<svg width="64" height="64" viewBox="0 0 64 64" fill="none" xmlns="http://www.w3.org/2000/svg">
<g clip-path="url(#clip0_717_4123)">
<mask id="path-1-inside-1_717_4123" fill="white">
<path fill-rule="evenodd" clip-rule="evenodd" d="M10.941 3.7636C13.5345 3.18724 16.6233 3 20.1953 3H25.371C28.5803 3 31.5773 4.60392 33.3575 7.27423L35.9571 11.1738C36.5506 12.0638 37.5495 12.5985 38.6194 12.5985H54.7943C59.9055 12.5985 64.0482 16.6336 63.9996 21.8298C63.9413 28.0176 63.9903 34.2078 63.9903 40.3959C63.9903 43.9679 63.8031 47.0567 63.2266 49.6502C62.6423 52.2802 61.6159 54.5925 59.8037 56.4047C57.9915 58.2169 55.6792 59.2433 53.0492 59.8275C50.4557 60.4041 47.3669 60.5913 43.795 60.5913H20.1953C16.6233 60.5913 13.5345 60.4041 10.941 59.8275C8.31119 59.2433 5.99871 58.2169 4.1865 56.4047C2.37433 54.5925 1.34805 52.2802 0.763596 49.6502C0.187236 47.0567 0 43.9679 0 40.3959V23.1953C0 19.6233 0.187236 16.5345 0.763596 13.941C1.34805 11.3112 2.37433 8.99871 4.1865 7.1865C5.99871 5.37433 8.31119 4.34805 10.941 3.7636Z"/>
</mask>
<path fill-rule="evenodd" clip-rule="evenodd" d="M10.941 3.7636C13.5345 3.18724 16.6233 3 20.1953 3H25.371C28.5803 3 31.5773 4.60392 33.3575 7.27423L35.9571 11.1738C36.5506 12.0638 37.5495 12.5985 38.6194 12.5985H54.7943C59.9055 12.5985 64.0482 16.6336 63.9996 21.8298C63.9413 28.0176 63.9903 34.2078 63.9903 40.3959C63.9903 43.9679 63.8031 47.0567 63.2266 49.6502C62.6423 52.2802 61.6159 54.5925 59.8037 56.4047C57.9915 58.2169 55.6792 59.2433 53.0492 59.8275C50.4557 60.4041 47.3669 60.5913 43.795 60.5913H20.1953C16.6233 60.5913 13.5345 60.4041 10.941 59.8275C8.31119 59.2433 5.99871 58.2169 4.1865 56.4047C2.37433 54.5925 1.34805 52.2802 0.763596 49.6502C0.187236 47.0567 0 43.9679 0 40.3959V23.1953C0 19.6233 0.187236 16.5345 0.763596 13.941C1.34805 11.3112 2.37433 8.99871 4.1865 7.1865C5.99871 5.37433 8.31119 4.34805 10.941 3.7636Z" stroke="#854D0E" stroke-width="12" mask="url(#path-1-inside-1_717_4123)"/>
<path d="M45.1467 22.9867C44.7409 22.6942 44.2718 22.5016 43.7776 22.4244C43.2834 22.3472 42.7779 22.3875 42.3023 22.5422C41.0474 22.8951 39.7478 23.0628 38.4445 23.04C36.5184 22.9355 34.6299 22.4648 32.88 21.6533C30.7183 20.6536 28.38 20.0917 26 20C20.8623 20 18.8889 21.7778 18.5334 22.0267C18.3632 22.1934 18.2284 22.3926 18.1368 22.6125C18.0451 22.8324 17.9986 23.0685 18 23.3067V50.2222C18 50.6937 18.1873 51.1459 18.5207 51.4793C18.8541 51.8127 19.3063 52 19.7778 52C20.2493 52 20.7015 51.8127 21.0349 51.4793C21.3683 51.1459 21.5556 50.6937 21.5556 50.2222V42.5778C22.9722 42.0354 24.4844 41.7874 26 41.8489C27.9261 41.9534 29.8146 42.424 31.5645 43.2356C33.7262 44.2353 36.0645 44.7972 38.4445 44.8889C40.5876 44.9698 42.7196 44.5434 44.6667 43.6444C45.1915 43.3979 45.6364 43.0088 45.9508 42.5216C46.2651 42.0344 46.4362 41.4686 46.4445 40.8889V25.5289C46.4438 25.0328 46.326 24.544 46.1004 24.1022C45.8749 23.6604 45.5481 23.2781 45.1467 22.9867Z" fill="#FACC15"/>
</g>
<defs>
<clipPath id="clip0_717_4123">
<rect width="64" height="64" fill="white"/>
</clipPath>
</defs>
</svg>
