<svg width="64" height="64" viewBox="0 0 64 64" fill="none" xmlns="http://www.w3.org/2000/svg">
<g clip-path="url(#clip0_717_4114)">
<path fill-rule="evenodd" clip-rule="evenodd" d="M10.941 3.7636C13.5345 3.18724 16.6233 3 20.1953 3H25.371C28.5803 3 31.5773 4.60392 33.3575 7.27423L35.9571 11.1738C36.5506 12.0638 37.5495 12.5985 38.6194 12.5985H54.7943C59.9055 12.5985 64.0482 16.6336 63.9996 21.8298C63.9413 28.0176 63.9903 34.2078 63.9903 40.3959C63.9903 43.9679 63.8031 47.0567 63.2266 49.6502C62.6423 52.2802 61.6159 54.5925 59.8037 56.4047C57.9915 58.2169 55.6792 59.2433 53.0492 59.8275C50.4557 60.4041 47.3669 60.5913 43.795 60.5913H20.1953C16.6233 60.5913 13.5345 60.4041 10.941 59.8275C8.31119 59.2433 5.99871 58.2169 4.1865 56.4047C2.37433 54.5925 1.34805 52.2802 0.763597 49.6502C0.187236 47.0567 0 43.9679 0 40.3959V23.1953C0 19.6233 0.187236 16.5345 0.763597 13.941C1.34805 11.3112 2.37433 8.99871 4.1865 7.1865C5.99871 5.37433 8.31119 4.34805 10.941 3.7636Z" fill="#854D0E"/>
<path d="M48 41.4444H33.7778V32.5556H48V41.4444ZM17.7778 53H30.2222V21H17.7778C17.3063 21 16.8541 21.1873 16.5207 21.5207C16.1873 21.8541 16 22.3063 16 22.7778V51.2222C16 51.6937 16.1873 52.1459 16.5207 52.4793C16.8541 52.8127 17.3063 53 17.7778 53ZM48 22.7778C48 22.3063 47.8127 21.8541 47.4793 21.5207C47.1459 21.1873 46.6937 21 46.2222 21H33.7778V29.8889H48V22.7778ZM48 51.2222V44.1111H33.7778V53H46.2222C46.6937 53 47.1459 52.8127 47.4793 52.4793C47.8127 52.1459 48 51.6937 48 51.2222Z" fill="#FACC15"/>
</g>
<defs>
<clipPath id="clip0_717_4114">
<rect width="64" height="64" fill="white"/>
</clipPath>
</defs>
</svg>
