<svg width="63" height="63" viewBox="0 0 63 63" fill="none" xmlns="http://www.w3.org/2000/svg">
<g clip-path="url(#clip0_715_2798)">
<path fill-rule="evenodd" clip-rule="evenodd" d="M10.7701 3.70479C13.323 3.13744 16.3636 2.95312 19.8798 2.95312H24.9746C28.1337 2.95312 31.0839 4.53198 32.8363 7.16057L35.3953 10.9992C35.9795 11.8753 36.9628 12.4017 38.016 12.4017H53.9381C58.9695 12.4017 63.0475 16.3737 62.9996 21.4887C62.9423 27.5799 62.9905 33.6733 62.9905 39.7647C62.9905 43.2809 62.8062 46.3214 62.2387 48.8744C61.6636 51.4633 60.6532 53.7395 58.8693 55.5234C57.0854 57.3073 54.8093 58.3176 52.2203 58.8927C49.6673 59.4603 46.6268 59.6445 43.1107 59.6445H19.8798C16.3636 59.6445 13.323 59.4603 10.7701 58.8927C8.18133 58.3176 5.90498 57.3073 4.12109 55.5234C2.33723 53.7395 1.32699 51.4633 0.751665 48.8744C0.18431 46.3214 0 43.2809 0 39.7647V22.8329C0 19.3167 0.18431 16.2762 0.751665 13.7232C1.32699 11.1345 2.33723 8.8581 4.12109 7.07421C5.90498 5.29035 8.18133 4.28011 10.7701 3.70479Z" fill="#115E59"/>
<path d="M33.8 43C33.3 43.5 33 44.2 33 45V47C33 47.6 33.4 48 34 48H44C44.6 48 45 47.6 45 47V45C45 44.2 44.7 43.5 44.2 43H33.8Z" fill="#2DD4BF"/>
<path d="M28.2 25C28.7 24.5 29 23.8 29 23V21C29 20.4 28.6 20 28 20H18C17.4 20 17 20.4 17 21V23C17 23.8 17.3 24.5 17.8 25H28.2Z" fill="#2DD4BF"/>
<path d="M33.7 38H34.8C34.9 38 35 38.1 35 38.2V41H43V37C43 33.1 39.9 30 36 30H33.7C33.4 29.4 32.7 29 32 29H30C29.3 29 28.6 29.4 28.3 30H27.2C27.1 30 27 29.9 27 29.8V27H19V31C19 34.9 22.1 38 26 38H28.3C28.6 38.6 29.3 39 30 39H32C32.7 39 33.4 38.6 33.7 38Z" fill="#2DD4BF"/>
</g>
<defs>
<clipPath id="clip0_715_2798">
<rect width="63" height="63" fill="white"/>
</clipPath>
</defs>
</svg>
