<svg width="64" height="64" viewBox="0 0 64 64" fill="none" xmlns="http://www.w3.org/2000/svg">
<g clip-path="url(#clip0_717_3765)">
<path d="M6.3078 9.30784C6.30782 9.30783 6.30783 9.30782 6.30784 9.3078C7.59221 8.02348 9.31785 7.19752 11.5919 6.69215C13.863 6.18742 16.6923 6 20.1953 6H25.371C27.5772 6 29.6375 7.10261 30.8613 8.93829C30.8613 8.9383 30.8613 8.93832 30.8614 8.93833L33.4609 12.8379L33.4612 12.8382C34.6109 14.5624 36.5463 15.5985 38.6194 15.5985H54.7943C58.2819 15.5985 61.0323 18.3172 60.9997 21.8017C60.9596 26.0676 60.9702 30.3466 60.9807 34.6045C60.9855 36.5404 60.9903 38.472 60.9903 40.3959C60.9903 43.8989 60.8029 46.7281 60.2981 48.9992L60.298 48.9997C59.7929 51.2734 58.9669 52.999 57.6824 54.2834C56.398 55.5678 54.6725 56.3938 52.3987 56.8989L52.3982 56.899C50.1272 57.4039 47.298 57.5913 43.795 57.5913H20.1953C16.6922 57.5913 13.8631 57.4039 11.5921 56.899L11.5916 56.8989C9.3179 56.3938 7.59223 55.5678 6.30782 54.2834C5.02346 52.999 4.19752 51.2735 3.69216 48.9994L0.763596 49.6502M6.3078 9.30784L4.1865 7.1865C2.37433 8.99871 1.34805 11.3112 0.763596 13.941C0.187236 16.5345 0 19.6233 0 23.1953V40.3959C0 43.9679 0.187236 47.0567 0.763596 49.6502M6.3078 9.30784C5.02348 10.5922 4.19752 12.3179 3.69215 14.5919M6.3078 9.30784L3.69215 14.5919M0.763596 49.6502L3.69215 48.9994C3.18742 46.7282 3 43.8989 3 40.3959V23.1953C3 19.6923 3.18742 16.863 3.69215 14.5919M0.763596 49.6502L3.69215 14.5919M3.69215 14.5919L0.76767 13.9419L3.69215 14.5919Z" stroke="#1E40AF" stroke-width="6"/>
<path fill-rule="evenodd" clip-rule="evenodd" d="M34.317 20.1691C32.7806 19.9436 31.2194 19.9436 29.683 20.1691L28.6692 22.8148C27.3899 23.1379 26.1644 23.6455 25.0314 24.3217L22.4438 23.1683C21.1985 24.0951 20.0951 25.1985 19.1683 26.4438L20.3217 29.0314C19.6455 30.1644 19.1379 31.3899 18.8148 32.6692L16.1691 33.683C15.9436 35.2194 15.9436 36.7806 16.1691 38.317L18.8148 39.3308C19.1379 40.6101 19.6455 41.8356 20.3217 42.9686L19.1683 45.5561C20.0951 46.8015 21.1985 47.9049 22.4438 48.8317L25.0314 47.6783C26.1644 48.3545 27.3899 48.8621 28.6692 49.1852L29.683 51.8309C31.2189 52.0564 32.7811 52.0564 34.317 51.8309L35.3308 49.1852C36.6101 48.8621 37.8356 48.3545 38.9686 47.6783L41.5561 48.8317C42.8015 47.9049 43.9049 46.8015 44.8317 45.5561L43.6783 42.9686C44.3545 41.8356 44.8621 40.6101 45.1852 39.3308L47.8309 38.317C48.0564 36.7811 48.0564 35.2189 47.8309 33.683L45.1852 32.6692C44.8621 31.3899 44.3545 30.1644 43.6783 29.0314L44.8317 26.4438C43.9049 25.1985 42.8015 24.0951 41.5561 23.1683L38.9686 24.3217C37.8356 23.6455 36.6101 23.1379 35.3308 22.8148L34.317 20.1691ZM32 25.7471C37.6581 25.7471 42.2529 30.3419 42.2529 36C42.2529 41.6581 37.6581 46.2529 32 46.2529C26.3419 46.2529 21.7471 41.6581 21.7471 36C21.7471 30.3419 26.3419 25.7471 32 25.7471Z" fill="#60A5FA"/>
<path fill-rule="evenodd" clip-rule="evenodd" d="M36.116 40.1097C35.5766 40.6521 34.9351 41.0823 34.2287 41.3757C33.5222 41.669 32.7646 41.8196 31.9997 41.8187C28.7881 41.8187 26.1816 39.2122 26.1816 36.0007C26.1816 32.7891 28.7881 30.1826 31.9997 30.1826C33.6069 30.1826 35.0629 30.8357 36.116 31.8917L34.0593 33.9469C33.6528 33.5392 33.1345 33.2612 32.5699 33.1482C32.0054 33.0352 31.42 33.0923 30.8879 33.3122C30.3559 33.5321 29.901 33.905 29.5809 34.3836C29.2609 34.8621 29.09 35.4249 29.09 36.0007C29.09 36.5764 29.2609 37.1392 29.5809 37.6178C29.901 38.0964 30.3559 38.4692 30.8879 38.6891C31.42 38.909 32.0054 38.9661 32.5699 38.8531C33.1345 38.7401 33.6528 38.4622 34.0593 38.0544L36.116 40.1097Z" fill="#60A5FA"/>
</g>
<defs>
<clipPath id="clip0_717_3765">
<rect width="64" height="64" fill="white"/>
</clipPath>
</defs>
</svg>
