<svg width="64" height="64" viewBox="0 0 64 64" fill="none" xmlns="http://www.w3.org/2000/svg">
<g clip-path="url(#clip0_715_3418)">
<path fill-rule="evenodd" clip-rule="evenodd" d="M10.941 3.7636C13.5345 3.18724 16.6233 3 20.1953 3H25.371C28.5803 3 31.5773 4.60392 33.3575 7.27423L35.9571 11.1738C36.5506 12.0638 37.5495 12.5985 38.6194 12.5985H54.7943C59.9055 12.5985 64.0482 16.6336 63.9996 21.8298C63.9413 28.0176 63.9903 34.2078 63.9903 40.3959C63.9903 43.9679 63.8031 47.0567 63.2266 49.6502C62.6423 52.2802 61.6159 54.5925 59.8037 56.4047C57.9915 58.2169 55.6792 59.2433 53.0492 59.8275C50.4557 60.4041 47.3669 60.5913 43.795 60.5913H20.1953C16.6233 60.5913 13.5345 60.4041 10.941 59.8275C8.31119 59.2433 5.99871 58.2169 4.1865 56.4047C2.37433 54.5925 1.34805 52.2802 0.763597 49.6502C0.187236 47.0567 0 43.9679 0 40.3959V23.1953C0 19.6233 0.187236 16.5345 0.763597 13.941C1.34805 11.3112 2.37433 8.99871 4.1865 7.1865C5.99871 5.37433 8.31119 4.34805 10.941 3.7636Z" fill="#495057"/>
<g clip-path="url(#clip1_715_3418)">
<path d="M27.7414 36C27.7414 33.9011 29.4449 32.1977 31.5437 32.1977C33.6426 32.1977 35.346 33.9011 35.346 36C35.346 38.0989 33.6426 39.8023 31.5437 39.8023C29.4449 39.8327 27.7414 38.0989 27.7414 36ZM31.5437 20C24.0608 20 17.7947 25.1103 16.0304 32.0456C16.0304 32.1065 16 32.1369 16 32.1977C16 32.6236 16.3346 32.9582 16.7605 32.9582H23.2091C23.5133 32.9582 23.7871 32.7757 23.9087 32.5019C25.2471 29.6122 28.1369 27.6046 31.5437 27.6046C36.1673 27.6046 39.9392 31.3764 39.9392 36C39.9392 40.6236 36.1673 44.3954 31.5437 44.3954C28.1673 44.3954 25.2471 42.3878 23.9087 39.4981C23.7871 39.2243 23.5133 39.0418 23.2091 39.0418H16.7605C16.3346 39.0418 16 39.3764 16 39.8023C16 39.8631 16 39.8935 16.0304 39.9544C17.7947 46.8897 24.0608 52 31.5437 52C40.3954 52 47.5741 44.8213 47.5741 35.9696C47.5741 27.1483 40.3954 20 31.5437 20Z" fill="#CED4DA"/>
</g>
</g>
<defs>
<clipPath id="clip0_715_3418">
<rect width="64" height="64" fill="white"/>
</clipPath>
<clipPath id="clip1_715_3418">
<rect width="31.5741" height="32" fill="white" transform="translate(16 20)"/>
</clipPath>
</defs>
</svg>
