<svg width="63" height="63" viewBox="0 0 63 63" fill="none" xmlns="http://www.w3.org/2000/svg">
<g clip-path="url(#clip0_715_3034)">
<mask id="path-1-inside-1_715_3034" fill="white">
<path fill-rule="evenodd" clip-rule="evenodd" d="M10.7701 3.70479C13.323 3.13744 16.3636 2.95312 19.8798 2.95312H24.9746C28.1337 2.95312 31.0839 4.53198 32.8363 7.16057L35.3953 10.9992C35.9795 11.8753 36.9628 12.4017 38.016 12.4017H53.9381C58.9695 12.4017 63.0475 16.3737 62.9996 21.4887C62.9423 27.5799 62.9905 33.6733 62.9905 39.7647C62.9905 43.2809 62.8062 46.3214 62.2387 48.8744C61.6636 51.4633 60.6532 53.7395 58.8693 55.5234C57.0854 57.3073 54.8093 58.3176 52.2203 58.8927C49.6673 59.4603 46.6268 59.6445 43.1107 59.6445H19.8798C16.3636 59.6445 13.323 59.4603 10.7701 58.8927C8.18133 58.3176 5.90498 57.3073 4.12109 55.5234C2.33723 53.7395 1.32699 51.4633 0.751665 48.8744C0.18431 46.3214 0 43.2809 0 39.7647V22.8329C0 19.3167 0.18431 16.2762 0.751665 13.7232C1.32699 11.1345 2.33723 8.8581 4.12109 7.07421C5.90498 5.29035 8.18133 4.28011 10.7701 3.70479Z"/>
</mask>
<path fill-rule="evenodd" clip-rule="evenodd" d="M10.7701 3.70479C13.323 3.13744 16.3636 2.95312 19.8798 2.95312H24.9746C28.1337 2.95312 31.0839 4.53198 32.8363 7.16057L35.3953 10.9992C35.9795 11.8753 36.9628 12.4017 38.016 12.4017H53.9381C58.9695 12.4017 63.0475 16.3737 62.9996 21.4887C62.9423 27.5799 62.9905 33.6733 62.9905 39.7647C62.9905 43.2809 62.8062 46.3214 62.2387 48.8744C61.6636 51.4633 60.6532 53.7395 58.8693 55.5234C57.0854 57.3073 54.8093 58.3176 52.2203 58.8927C49.6673 59.4603 46.6268 59.6445 43.1107 59.6445H19.8798C16.3636 59.6445 13.323 59.4603 10.7701 58.8927C8.18133 58.3176 5.90498 57.3073 4.12109 55.5234C2.33723 53.7395 1.32699 51.4633 0.751665 48.8744C0.18431 46.3214 0 43.2809 0 39.7647V22.8329C0 19.3167 0.18431 16.2762 0.751665 13.7232C1.32699 11.1345 2.33723 8.8581 4.12109 7.07421C5.90498 5.29035 8.18133 4.28011 10.7701 3.70479Z" stroke="#115E59" stroke-width="12" mask="url(#path-1-inside-1_715_3034)"/>
<path d="M39.7273 32.8182H45.5455C45.9312 32.8182 46.3012 32.6649 46.574 32.3922C46.8468 32.1194 47 31.7494 47 31.3636V25.5455C47 25.1597 46.8468 24.7897 46.574 24.5169C46.3012 24.2442 45.9312 24.0909 45.5455 24.0909H39.7273C39.3415 24.0909 38.9715 24.2442 38.6988 24.5169C38.426 24.7897 38.2727 25.1597 38.2727 25.5455V27H32.4545V29.4C31.5068 29.1083 30.4932 29.1083 29.5455 29.4V21.9091H23.7273V20.4545C23.7273 20.0688 23.574 19.6988 23.3012 19.426C23.0285 19.1532 22.6585 19 22.2727 19H16.4545C16.0688 19 15.6988 19.1532 15.426 19.426C15.1532 19.6988 15 20.0688 15 20.4545V26.2727C15 26.6585 15.1532 27.0285 15.426 27.3012C15.6988 27.574 16.0688 27.7273 16.4545 27.7273H22.2727C22.6585 27.7273 23.0285 27.574 23.3012 27.3012C23.574 27.0285 23.7273 26.6585 23.7273 26.2727V24.8182H26.6364V31.1455C26.0418 31.8375 25.6182 32.6596 25.4 33.5455H23.7273V32.0909C23.7273 31.7051 23.574 31.3352 23.3012 31.0624C23.0285 30.7896 22.6585 30.6364 22.2727 30.6364H16.4545C16.0688 30.6364 15.6988 30.7896 15.426 31.0624C15.1532 31.3352 15 31.7051 15 32.0909V37.9091C15 38.2949 15.1532 38.6648 15.426 38.9376C15.6988 39.2104 16.0688 39.3636 16.4545 39.3636H22.2727C22.6585 39.3636 23.0285 39.2104 23.3012 38.9376C23.574 38.6648 23.7273 38.2949 23.7273 37.9091V36.4545H25.4C25.6182 37.3404 26.0418 38.1625 26.6364 38.8545V45.1818H23.7273V43.7273C23.7273 43.3415 23.574 42.9715 23.3012 42.6988C23.0285 42.426 22.6585 42.2727 22.2727 42.2727H16.4545C16.0688 42.2727 15.6988 42.426 15.426 42.6988C15.1532 42.9715 15 43.3415 15 43.7273V49.5455C15 49.9312 15.1532 50.3012 15.426 50.574C15.6988 50.8468 16.0688 51 16.4545 51H22.2727C22.6585 51 23.0285 50.8468 23.3012 50.574C23.574 50.3012 23.7273 49.9312 23.7273 49.5455V48.0909H29.5455V40.6C30.4932 40.8917 31.5068 40.8917 32.4545 40.6V43H38.2727V44.4545C38.2727 44.8403 38.426 45.2103 38.6988 45.4831C38.9715 45.7558 39.3415 45.9091 39.7273 45.9091H45.5455C45.9312 45.9091 46.3012 45.7558 46.574 45.4831C46.8468 45.2103 47 44.8403 47 44.4545V38.6364C47 38.2506 46.8468 37.8806 46.574 37.6078C46.3012 37.3351 45.9312 37.1818 45.5455 37.1818H39.7273C39.3415 37.1818 38.9715 37.3351 38.6988 37.6078C38.426 37.8806 38.2727 38.2506 38.2727 38.6364V40.0909H35.3636V38.8545C36.3044 37.7909 36.8236 36.42 36.8236 35C36.8236 33.58 36.3044 32.2091 35.3636 31.1455V29.9091H38.2727V31.3636C38.2727 31.7494 38.426 32.1194 38.6988 32.3922C38.9715 32.6649 39.3415 32.8182 39.7273 32.8182Z" fill="#2DD4BF"/>
</g>
<defs>
<clipPath id="clip0_715_3034">
<rect width="63" height="63" fill="white"/>
</clipPath>
</defs>
</svg>
