<svg width="64" height="64" viewBox="0 0 64 64" fill="none" xmlns="http://www.w3.org/2000/svg">
<g clip-path="url(#clip0_715_2539)">
<path fill-rule="evenodd" clip-rule="evenodd" d="M10.941 3.7636C13.5345 3.18724 16.6233 3 20.1953 3H25.371C28.5803 3 31.5773 4.60392 33.3575 7.27423L35.9571 11.1738C36.5506 12.0638 37.5495 12.5985 38.6194 12.5985H54.7943C59.9055 12.5985 64.0482 16.6336 63.9996 21.8298C63.9413 28.0176 63.9903 34.2078 63.9903 40.3959C63.9903 43.9679 63.8031 47.0567 63.2266 49.6502C62.6423 52.2802 61.6159 54.5925 59.8037 56.4047C57.9915 58.2169 55.6792 59.2433 53.0492 59.8275C50.4557 60.4041 47.3669 60.5913 43.795 60.5913H20.1953C16.6233 60.5913 13.5345 60.4041 10.941 59.8275C8.31119 59.2433 5.99871 58.2169 4.1865 56.4047C2.37433 54.5925 1.34805 52.2802 0.763597 49.6502C0.187236 47.0567 0 43.9679 0 40.3959V23.1953C0 19.6233 0.187236 16.5345 0.763597 13.941C1.34805 11.3112 2.37433 8.99871 4.1865 7.1865C5.99871 5.37433 8.31119 4.34805 10.941 3.7636Z" fill="#854D0E"/>
<path d="M49.6412 48.6806C49.0288 49.2842 48.2593 49.7038 47.4203 49.8918C46.5812 50.0797 45.7063 50.0284 44.8949 49.7437L40.4334 54.2052C40.3732 54.2678 40.301 54.3176 40.221 54.3516C40.1411 54.3856 40.0551 54.4032 39.9683 54.4032C39.8814 54.4032 39.7955 54.3856 39.7155 54.3516C39.6356 54.3176 39.5634 54.2678 39.5031 54.2052L37.6046 52.3067C37.4872 52.1803 37.4219 52.0141 37.4219 51.8416C37.4219 51.669 37.4872 51.5029 37.6046 51.3765L42.0851 46.915C41.7732 46.0494 41.7318 45.1096 41.9664 44.2199C42.2009 43.3303 42.7003 42.533 43.3984 41.9338C44.0965 41.3346 44.9603 40.9617 45.8751 40.8646C46.79 40.7676 47.7128 40.9509 48.5211 41.3903L45.5024 44.5039L47.4009 46.4024L50.4765 43.3268C50.9317 44.1903 51.0962 45.1776 50.9458 46.1421C50.7953 47.1065 50.3378 47.9968 49.6412 48.6806ZM50.9701 27.797V38.7324C49.5671 37.7895 47.9143 37.287 46.2239 37.2895C45.3945 37.2921 44.5697 37.4136 43.7748 37.6503V30.2461H40.8321V39.188C39.8451 39.991 39.05 41.0044 38.5048 42.154C37.9595 43.3036 37.6779 44.5605 37.6806 45.8328C37.6611 46.1489 37.6611 46.466 37.6806 46.7821H16.797C15.79 46.7821 14.8242 46.382 14.1121 45.67C13.4 44.9579 13 43.9921 13 42.9851V27.797C13 26.79 13.4 25.8242 14.1121 25.1121C14.8242 24.4 15.79 24 16.797 24H47.1731C48.1801 24 49.1459 24.4 49.858 25.1121C50.5701 25.8242 50.9701 26.79 50.9701 27.797ZM30.0866 41.0866L26.4604 30.2081H22.4925L19.0183 41.0866H22.2457L22.7963 39.0552H26.2895L26.8401 41.0866H30.0866ZM39.1424 33.7014C39.1735 33.223 39.0956 32.7439 38.9148 32.2999C38.7339 31.856 38.4547 31.4589 38.0983 31.1384C37.2125 30.4833 36.1215 30.1667 35.0227 30.2461H31.2257V41.0866H34.1494V37.4984H34.9847C35.6321 37.5094 36.2759 37.4 36.8832 37.1756C37.364 36.9952 37.7986 36.7098 38.1552 36.3403C38.4725 35.9925 38.7062 35.577 38.8387 35.1252C39.0039 34.6682 39.0937 34.1873 39.1045 33.7014H39.1424ZM25.2833 34.8784L25.0555 34.0431L24.7707 32.942C24.7707 32.5433 24.6189 32.2395 24.5619 31.9927C24.5148 32.2996 24.4514 32.6038 24.3721 32.904C24.3721 33.2647 24.2202 33.6254 24.1252 33.9861C24.0303 34.3469 23.9734 34.6316 23.8974 34.8784L23.4418 36.644H25.701L25.2833 34.8784ZM35.896 32.9799C35.7705 32.8606 35.6207 32.77 35.4568 32.7143C35.2929 32.6586 35.1189 32.6391 34.9467 32.6572H34.1873V35.1442H34.7759C35.0168 35.15 35.2562 35.1047 35.4783 35.0113C35.6873 34.9269 35.866 34.7813 35.9909 34.5937C36.1376 34.3543 36.2103 34.0769 36.1997 33.7963C36.1998 33.6315 36.1622 33.4688 36.0898 33.3208C36.0174 33.1727 35.9122 33.0432 35.7821 32.942L35.896 32.9799Z" fill="#FACC15"/>
</g>
<defs>
<clipPath id="clip0_715_2539">
<rect width="64" height="64" fill="white"/>
</clipPath>
</defs>
</svg>
