<svg width="64" height="64" viewBox="0 0 64 64" fill="none" xmlns="http://www.w3.org/2000/svg">
<g clip-path="url(#clip0_714_2541)">
<path fill-rule="evenodd" clip-rule="evenodd" d="M10.941 3.7636C13.5345 3.18724 16.6233 3 20.1953 3H25.371C28.5803 3 31.5773 4.60392 33.3575 7.27423L35.9571 11.1738C36.5506 12.0638 37.5495 12.5985 38.6194 12.5985H54.7943C59.9055 12.5985 64.0482 16.6336 63.9996 21.8298C63.9413 28.0176 63.9903 34.2078 63.9903 40.3959C63.9903 43.9679 63.8031 47.0567 63.2266 49.6502C62.6423 52.2802 61.6159 54.5925 59.8037 56.4047C57.9915 58.2169 55.6792 59.2433 53.0492 59.8275C50.4557 60.4041 47.3669 60.5913 43.795 60.5913H20.1953C16.6233 60.5913 13.5345 60.4041 10.941 59.8275C8.31119 59.2433 5.99871 58.2169 4.1865 56.4047C2.37433 54.5925 1.34805 52.2802 0.763597 49.6502C0.187236 47.0567 0 43.9679 0 40.3959V23.1953C0 19.6233 0.187236 16.5345 0.763597 13.941C1.34805 11.3112 2.37433 8.99871 4.1865 7.1865C5.99871 5.37433 8.31119 4.34805 10.941 3.7636Z" fill="#495057"/>
<path d="M42.7514 48.9981C41.4235 50.982 40.0155 52.9179 37.8717 52.9499C35.7278 52.9979 35.0399 51.686 32.608 51.686C30.1602 51.686 29.4083 52.9179 27.3764 52.9979C25.2805 53.0779 23.6966 50.886 22.3527 48.9501C19.6169 44.9984 17.521 37.7189 20.3369 32.8232C21.7288 30.3914 24.2246 28.8555 26.9284 28.8075C28.9763 28.7755 30.9282 30.1994 32.1921 30.1994C33.44 30.1994 35.8078 28.4875 38.2877 28.7435C39.3276 28.7915 42.2394 29.1595 44.1113 31.9113C43.9673 32.0073 40.6395 33.9591 40.6715 38.0069C40.7195 42.8385 44.9112 44.4544 44.9592 44.4704C44.9112 44.5824 44.2873 46.7743 42.7514 48.9981ZM33.616 23.3998C34.7839 22.0719 36.7198 21.064 38.3197 21C38.5276 22.8719 37.7757 24.7598 36.6558 26.1037C35.5518 27.4636 33.728 28.5195 31.9361 28.3755C31.6961 26.5356 32.592 24.6158 33.616 23.3998Z" fill="#CED4DA"/>
</g>
<defs>
<clipPath id="clip0_714_2541">
<rect width="64" height="64" fill="white"/>
</clipPath>
</defs>
</svg>
