<svg width="63" height="63" viewBox="0 0 63 63" fill="none" xmlns="http://www.w3.org/2000/svg">
<g clip-path="url(#clip0_715_3272)">
<path fill-rule="evenodd" clip-rule="evenodd" d="M10.7701 3.70479C13.323 3.13744 16.3636 2.95312 19.8798 2.95312H24.9746C28.1337 2.95312 31.0839 4.53198 32.8363 7.16057L35.3953 10.9992C35.9795 11.8753 36.9628 12.4017 38.016 12.4017H53.9381C58.9695 12.4017 63.0475 16.3737 62.9996 21.4887C62.9423 27.5799 62.9905 33.6733 62.9905 39.7647C62.9905 43.2809 62.8062 46.3214 62.2387 48.8744C61.6636 51.4633 60.6532 53.7395 58.8693 55.5234C57.0854 57.3073 54.8093 58.3176 52.2203 58.8927C49.6673 59.4603 46.6268 59.6445 43.1107 59.6445H19.8798C16.3636 59.6445 13.323 59.4603 10.7701 58.8927C8.18133 58.3176 5.90498 57.3073 4.12109 55.5234C2.33723 53.7395 1.32699 51.4633 0.751665 48.8744C0.18431 46.3214 0 43.2809 0 39.7647V22.8329C0 19.3167 0.18431 16.2762 0.751665 13.7232C1.32699 11.1345 2.33723 8.8581 4.12109 7.07421C5.90498 5.29035 8.18133 4.28011 10.7701 3.70479Z" fill="#854D0E"/>
<path d="M39.1073 20.4345C39.7999 20.1476 40.5422 20 41.2918 20C42.0414 20 42.7836 20.1476 43.4763 20.4345C44.1687 20.7214 44.798 21.1418 45.3281 21.6719C45.8582 22.2019 46.2786 22.8312 46.5655 23.5238C46.8522 24.2163 46.9999 24.9586 46.9999 25.7082C46.9999 26.4578 46.8522 27.2 46.5655 27.8926C46.2786 28.5851 45.8582 29.2144 45.3281 29.7444L44.499 30.5735L36.4265 22.5009L37.2555 21.6719C37.7855 21.1418 38.4148 20.7214 39.1073 20.4345Z" fill="#FACC15"/>
<path d="M34.1638 24.7637L17.6474 41.2801C17.4505 41.4769 17.3084 41.7219 17.2351 41.9905L15.0564 49.979C14.9053 50.5329 15.0627 51.1254 15.4687 51.5313C15.8747 51.9374 16.4671 52.0946 17.021 51.9436L25.0095 49.7649C25.2782 49.6916 25.523 49.5495 25.7199 49.3526L42.2362 32.8363L34.1638 24.7637Z" fill="#FACC15"/>
</g>
<defs>
<clipPath id="clip0_715_3272">
<rect width="63" height="63" fill="white"/>
</clipPath>
</defs>
</svg>
