<svg width="63" height="63" viewBox="0 0 63 63" fill="none" xmlns="http://www.w3.org/2000/svg">
<g clip-path="url(#clip0_715_2663)">
<mask id="path-1-inside-1_715_2663" fill="white">
<path fill-rule="evenodd" clip-rule="evenodd" d="M10.7701 3.70479C13.323 3.13744 16.3636 2.95312 19.8798 2.95312H24.9746C28.1337 2.95312 31.0839 4.53198 32.8363 7.16057L35.3953 10.9992C35.9795 11.8753 36.9628 12.4017 38.016 12.4017H53.9381C58.9695 12.4017 63.0475 16.3737 62.9996 21.4887C62.9423 27.5799 62.9905 33.6733 62.9905 39.7647C62.9905 43.2809 62.8062 46.3214 62.2387 48.8744C61.6636 51.4633 60.6532 53.7395 58.8693 55.5234C57.0854 57.3073 54.8093 58.3176 52.2203 58.8927C49.6673 59.4603 46.6268 59.6445 43.1107 59.6445H19.8798C16.3636 59.6445 13.323 59.4603 10.7701 58.8927C8.18133 58.3176 5.90498 57.3073 4.12109 55.5234C2.33723 53.7395 1.32699 51.4633 0.751665 48.8744C0.18431 46.3214 0 43.2809 0 39.7647V22.8329C0 19.3167 0.18431 16.2762 0.751665 13.7232C1.32699 11.1345 2.33723 8.8581 4.12109 7.07421C5.90498 5.29035 8.18133 4.28011 10.7701 3.70479Z"/>
</mask>
<path fill-rule="evenodd" clip-rule="evenodd" d="M10.7701 3.70479C13.323 3.13744 16.3636 2.95312 19.8798 2.95312H24.9746C28.1337 2.95312 31.0839 4.53198 32.8363 7.16057L35.3953 10.9992C35.9795 11.8753 36.9628 12.4017 38.016 12.4017H53.9381C58.9695 12.4017 63.0475 16.3737 62.9996 21.4887C62.9423 27.5799 62.9905 33.6733 62.9905 39.7647C62.9905 43.2809 62.8062 46.3214 62.2387 48.8744C61.6636 51.4633 60.6532 53.7395 58.8693 55.5234C57.0854 57.3073 54.8093 58.3176 52.2203 58.8927C49.6673 59.4603 46.6268 59.6445 43.1107 59.6445H19.8798C16.3636 59.6445 13.323 59.4603 10.7701 58.8927C8.18133 58.3176 5.90498 57.3073 4.12109 55.5234C2.33723 53.7395 1.32699 51.4633 0.751665 48.8744C0.18431 46.3214 0 43.2809 0 39.7647V22.8329C0 19.3167 0.18431 16.2762 0.751665 13.7232C1.32699 11.1345 2.33723 8.8581 4.12109 7.07421C5.90498 5.29035 8.18133 4.28011 10.7701 3.70479Z" stroke="#854D0E" stroke-width="12" mask="url(#path-1-inside-1_715_2663)"/>
<path d="M15.983 47.2561L23.0934 50.8113C23.3401 50.9344 23.6122 50.9986 23.888 50.9986C24.1638 50.9986 24.4358 50.9344 24.6825 50.8113L30.9983 47.6525L37.3141 50.8095C37.5603 50.9344 37.8324 50.9997 38.1085 51C38.3846 51.0003 38.6568 50.9357 38.9033 50.8113L46.0137 47.2561C46.6163 46.9539 46.9967 46.3389 46.9967 45.6652V36.7772C46.9967 36.1035 46.6163 35.4884 46.0137 35.1863L39.8863 32.1235V24.3341C39.8863 23.6603 39.5059 23.0453 38.9033 22.7431L31.7929 19.1879C31.546 19.0643 31.2736 19 30.9974 19C30.7213 19 30.4489 19.0643 30.202 19.1879L23.0916 22.7431C22.4908 23.0453 22.1104 23.6603 22.1104 24.3341V32.1235L15.983 35.188C15.6875 35.3352 15.439 35.562 15.2653 35.8427C15.0917 36.1234 14.9998 36.4471 15 36.7772V45.6652C15 46.3389 15.3804 46.9539 15.983 47.2561ZM23.888 35.2094L27.9124 37.2216L22.7343 39.8115L18.7098 37.7993L23.888 35.2094ZM30.9983 30.7654L36.3311 28.099V32.1235L30.9983 34.7899V30.7654ZM42.1332 37.2216L37.0102 39.7831L32.9857 37.7709L38.1087 35.2094L42.1332 37.2216ZM23.888 47.233L23.7778 47.1779V43.2654L29.2207 40.5421V44.5666L23.888 47.233ZM38.1087 47.233V43.2085L43.4415 40.5421V44.5666L38.1087 47.233ZM30.9983 22.7662L35.0228 24.7784L29.8998 27.34L25.8753 25.3277L30.9983 22.7662Z" fill="#FACC15"/>
</g>
<defs>
<clipPath id="clip0_715_2663">
<rect width="63" height="63" fill="white"/>
</clipPath>
</defs>
</svg>
