<svg width="64" height="64" viewBox="0 0 64 64" fill="none" xmlns="http://www.w3.org/2000/svg">
<g clip-path="url(#clip0_714_2633)">
<mask id="path-1-inside-1_714_2633" fill="white">
<path fill-rule="evenodd" clip-rule="evenodd" d="M10.941 3.7636C13.5345 3.18724 16.6233 3 20.1953 3H25.371C28.5803 3 31.5773 4.60392 33.3575 7.27423L35.9571 11.1738C36.5506 12.0638 37.5495 12.5985 38.6194 12.5985H54.7943C59.9055 12.5985 64.0482 16.6336 63.9996 21.8298C63.9413 28.0176 63.9903 34.2078 63.9903 40.3959C63.9903 43.9679 63.8031 47.0567 63.2266 49.6502C62.6423 52.2802 61.6159 54.5925 59.8037 56.4047C57.9915 58.2169 55.6792 59.2433 53.0492 59.8275C50.4557 60.4041 47.3669 60.5913 43.795 60.5913H20.1953C16.6233 60.5913 13.5345 60.4041 10.941 59.8275C8.31119 59.2433 5.99871 58.2169 4.1865 56.4047C2.37433 54.5925 1.34805 52.2802 0.763597 49.6502C0.187236 47.0567 0 43.9679 0 40.3959V23.1953C0 19.6233 0.187236 16.5345 0.763597 13.941C1.34805 11.3112 2.37433 8.99871 4.1865 7.1865C5.99871 5.37433 8.31119 4.34805 10.941 3.7636Z"/>
</mask>
<path fill-rule="evenodd" clip-rule="evenodd" d="M10.941 3.7636C13.5345 3.18724 16.6233 3 20.1953 3H25.371C28.5803 3 31.5773 4.60392 33.3575 7.27423L35.9571 11.1738C36.5506 12.0638 37.5495 12.5985 38.6194 12.5985H54.7943C59.9055 12.5985 64.0482 16.6336 63.9996 21.8298C63.9413 28.0176 63.9903 34.2078 63.9903 40.3959C63.9903 43.9679 63.8031 47.0567 63.2266 49.6502C62.6423 52.2802 61.6159 54.5925 59.8037 56.4047C57.9915 58.2169 55.6792 59.2433 53.0492 59.8275C50.4557 60.4041 47.3669 60.5913 43.795 60.5913H20.1953C16.6233 60.5913 13.5345 60.4041 10.941 59.8275C8.31119 59.2433 5.99871 58.2169 4.1865 56.4047C2.37433 54.5925 1.34805 52.2802 0.763597 49.6502C0.187236 47.0567 0 43.9679 0 40.3959V23.1953C0 19.6233 0.187236 16.5345 0.763597 13.941C1.34805 11.3112 2.37433 8.99871 4.1865 7.1865C5.99871 5.37433 8.31119 4.34805 10.941 3.7636Z" stroke="#991B1B" stroke-width="12" mask="url(#path-1-inside-1_714_2633)"/>
<path fill-rule="evenodd" clip-rule="evenodd" d="M32 52C40.8368 52 48 44.8368 48 36C48 27.1632 40.8368 20 32 20C23.1632 20 16 27.1632 16 36C16 44.8368 23.1632 52 32 52ZM29.6 43.9856C29.6 42.5984 30.6544 41.6 31.9856 41.6C33.3456 41.6 34.4 42.5984 34.4 43.9856C34.4 45.3728 33.3456 46.4 31.9856 46.4C30.6544 46.4 29.6 45.3728 29.6 43.9856ZM30.6752 26.4C30.5672 26.4001 30.4604 26.4221 30.3612 26.4646C30.262 26.507 30.1723 26.5692 30.0977 26.6472C30.0231 26.7252 29.9651 26.8176 29.9271 26.9186C29.8892 27.0197 29.8721 27.1274 29.8768 27.2352L30.3664 38.4352C30.3755 38.6412 30.4637 38.8358 30.6128 38.9783C30.7619 39.1208 30.9602 39.2002 31.1664 39.2H32.8352C33.0414 39.2002 33.2397 39.1208 33.3888 38.9783C33.5379 38.8358 33.6261 38.6412 33.6352 38.4352L34.1232 27.2352C34.128 27.1272 34.1108 27.0194 34.0727 26.9182C34.0346 26.8171 33.9765 26.7247 33.9017 26.6466C33.8269 26.5686 33.7371 26.5065 33.6377 26.4641C33.5383 26.4217 33.4313 26.3999 33.3232 26.4H30.6752Z" fill="#F87171"/>
</g>
<defs>
<clipPath id="clip0_714_2633">
<rect width="64" height="64" fill="white"/>
</clipPath>
</defs>
</svg>
