<svg width="64" height="64" viewBox="0 0 64 64" fill="none" xmlns="http://www.w3.org/2000/svg">
<g clip-path="url(#clip0_715_3725)">
<path fill-rule="evenodd" clip-rule="evenodd" d="M10.941 3.7636C13.5345 3.18724 16.6233 3 20.1953 3H25.371C28.5803 3 31.5773 4.60392 33.3575 7.27423L35.9571 11.1738C36.5506 12.0638 37.5495 12.5985 38.6194 12.5985H54.7943C59.9055 12.5985 64.0482 16.6336 63.9996 21.8298C63.9413 28.0176 63.9903 34.2078 63.9903 40.3959C63.9903 43.9679 63.8031 47.0567 63.2266 49.6502C62.6423 52.2802 61.6159 54.5925 59.8037 56.4047C57.9915 58.2169 55.6792 59.2433 53.0492 59.8275C50.4557 60.4041 47.3669 60.5913 43.795 60.5913H20.1953C16.6233 60.5913 13.5345 60.4041 10.941 59.8275C8.31119 59.2433 5.99871 58.2169 4.1865 56.4047C2.37433 54.5925 1.34805 52.2802 0.763597 49.6502C0.187236 47.0567 0 43.9679 0 40.3959V23.1953C0 19.6233 0.187236 16.5345 0.763597 13.941C1.34805 11.3112 2.37433 8.99871 4.1865 7.1865C5.99871 5.37433 8.31119 4.34805 10.941 3.7636Z" fill="#1E40AF"/>
<g clip-path="url(#clip1_715_3725)">
<path d="M51.2341 33.1761V33.1849C51.2341 33.5891 51.3934 33.9566 51.6541 34.2261C51.9656 34.5149 52.3856 34.6916 52.8459 34.6916C52.9001 34.6916 52.9526 34.6899 53.0069 34.6846H52.9999V36.5221C52.9544 36.5186 52.9001 36.5151 52.8459 36.5151C52.3856 36.5151 51.9656 36.6919 51.6524 36.9824L51.6541 36.9806C51.3934 37.2554 51.2341 37.6281 51.2341 38.0376V38.0639V38.0621C51.2341 38.4774 51.2668 39.0462 51.3321 39.7684C51.3975 40.4905 51.4301 41.1141 51.4301 41.6391C51.4406 41.7406 51.4476 41.8579 51.4476 41.9769C51.4476 42.7136 51.2079 43.3944 50.8001 43.9456L50.8071 43.9369C50.3276 44.3534 49.6959 44.6071 49.0064 44.6071C48.9119 44.6071 48.8191 44.6019 48.7281 44.5931L48.7404 44.5949H47.4279V42.9569H47.8286V42.8904C47.8671 42.8939 47.9109 42.8974 47.9564 42.8974C48.2609 42.8974 48.5391 42.7819 48.7491 42.5946L48.7474 42.5964C48.9189 42.3269 49.0204 41.9979 49.0204 41.6444C49.0204 41.5761 49.0169 41.5079 49.0081 41.4396V41.4484L48.8769 38.0359C48.8716 37.9729 48.8699 37.8994 48.8699 37.8259C48.8699 37.2869 49.0064 36.7811 49.2461 36.3384L49.2374 36.3541C49.5034 35.9709 49.9059 35.6961 50.3731 35.6016L50.3854 35.5999V35.4686C49.9129 35.3741 49.5121 35.1134 49.2409 34.7511L49.2374 34.7459C49.0046 34.3206 48.8664 33.8149 48.8664 33.2776C48.8664 33.1936 48.8699 33.1096 48.8769 33.0274V33.0379L49.0081 29.6254C49.0151 29.5659 49.0186 29.4959 49.0186 29.4259C49.0186 29.0776 48.9294 28.7504 48.7736 28.4669L48.7789 28.4774C48.5706 28.2866 48.2924 28.1711 47.9879 28.1711C47.9319 28.1711 47.8759 28.1746 47.8216 28.1834H47.8286H47.4349V26.6119H48.7474C48.8279 26.6031 48.9206 26.5996 49.0134 26.5996C49.7029 26.5996 50.3346 26.8534 50.8176 27.2716L50.8141 27.2681C51.2149 27.8106 51.4546 28.4914 51.4546 29.2281C51.4546 29.3471 51.4476 29.4644 51.4354 29.5799L51.4371 29.5659C51.4371 30.0909 51.4045 30.7144 51.3391 31.4366C51.2738 32.1588 51.2394 32.7386 51.2359 33.1761H51.2341ZM44.2761 35.2761C46.1591 35.8886 47.1006 36.9392 47.1006 38.4279V38.4786C47.1006 39.4236 46.6666 40.2671 45.9859 40.8201L45.9806 40.8236C45.1984 41.4239 44.2044 41.7844 43.1281 41.7844C43.0231 41.7844 42.9181 41.7809 42.8149 41.7739H42.8289C42.0939 41.7564 41.3974 41.6146 40.7534 41.3661L40.7954 41.3801C40.0866 41.1421 39.4741 40.7834 38.9526 40.3249L38.9579 40.3301L40.3351 38.2966C41.0596 38.9126 41.9941 39.3011 43.0179 39.3466H43.0266C43.9016 39.3466 44.3391 39.0625 44.3391 38.4944C44.3391 38.2319 44.142 37.9694 43.7476 37.7069C43.3784 37.5126 42.9426 37.3341 42.4911 37.1959L42.4369 37.1819L42.1744 37.0506C40.38 36.3506 39.4829 35.3438 39.4829 34.0301C39.4829 34.0039 39.4811 33.9741 39.4811 33.9426C39.4811 33.0361 39.9011 32.2276 40.5591 31.7044L40.5644 31.6991C41.2959 31.1426 42.2234 30.8066 43.2279 30.8066C43.3066 30.8066 43.3854 30.8084 43.4641 30.8136H43.4536C44.8169 30.8521 46.0594 31.3404 47.0429 32.1349L47.0324 32.1261L45.6586 33.9601C45.0514 33.4666 44.2796 33.1534 43.4361 33.1079H43.4274C42.6807 33.1079 42.3074 33.3704 42.3074 33.8954C42.3319 34.2051 42.5086 34.4694 42.7624 34.6146L42.7676 34.6164C43.0704 34.8054 43.4186 34.9611 43.7879 35.0679L43.8176 35.0749C44.0393 35.1612 44.1945 35.2265 44.2831 35.2709L44.2761 35.2761ZM20.7106 39.1506H21.1044L21.4946 41.3819C21.0571 41.5499 20.5496 41.6461 20.0211 41.6461C19.9861 41.6461 19.9494 41.6461 19.9144 41.6444H19.9196C18.0366 41.6444 17.0951 40.4625 17.0951 38.0989V28.2534H16.1746C16.1344 28.2481 16.0871 28.2446 16.0381 28.2446C15.7459 28.2446 15.4816 28.3601 15.2874 28.5491C15.1369 28.8239 15.0476 29.1511 15.0476 29.4976C15.0476 29.5676 15.0511 29.6376 15.0581 29.7041V29.6954L15.1246 33.0449C15.1299 33.1184 15.1334 33.2041 15.1334 33.2916C15.1334 33.8359 15.0004 34.3486 14.7659 34.8019L14.7746 34.7844C14.5139 35.1606 14.1061 35.4196 13.6336 35.4721H13.6266V35.6034C14.1061 35.6996 14.5086 35.9744 14.7711 36.3524L14.7746 36.3576C15.0074 36.7829 15.1421 37.2904 15.1421 37.8276C15.1421 37.9011 15.1404 37.9746 15.1351 38.0464V38.0359C15.1351 38.4734 15.113 39.0859 15.0686 39.8734V41.4484C15.0634 41.5061 15.0599 41.5726 15.0599 41.6391C15.0599 42.0014 15.1474 42.3409 15.3031 42.6419L15.2979 42.6296C15.4851 42.8361 15.7529 42.9656 16.0539 42.9656C16.0994 42.9656 16.1449 42.9621 16.1904 42.9569H16.1851H16.5806V44.5319H15.2611C15.1824 44.5406 15.0896 44.5441 14.9969 44.5441C14.3056 44.5441 13.6739 44.2904 13.1891 43.8686L13.1926 43.8721C12.7919 43.3296 12.5521 42.6489 12.5521 41.9121C12.5521 41.7931 12.5591 41.6741 12.5714 41.5586L12.5696 41.5726C12.5696 41.0476 12.6023 40.424 12.6676 39.7019C12.733 38.9797 12.7656 38.4109 12.7656 37.9956C12.7656 37.9834 12.7656 37.9711 12.7656 37.9571C12.7656 37.5616 12.6046 37.2046 12.3456 36.9456C12.0289 36.6796 11.6176 36.5186 11.1679 36.5186C11.1084 36.5186 11.0506 36.5221 10.9946 36.5274H11.0016V34.6899C11.0471 34.6934 11.1014 34.6969 11.1556 34.6969C11.6159 34.6969 12.0359 34.5201 12.3491 34.2296L12.3474 34.2314C12.6081 33.9619 12.7674 33.5944 12.7674 33.1901C12.7674 33.1866 12.7674 33.1831 12.7674 33.1796C12.7674 32.7853 12.7347 32.2165 12.6694 31.4734C12.604 30.7302 12.5714 30.0973 12.5714 29.5746C12.5609 29.4731 12.5539 29.3559 12.5539 29.2369C12.5539 28.5001 12.7936 27.8194 13.2014 27.2681L13.1944 27.2769C13.6739 26.8604 14.3056 26.6066 14.9951 26.6066C15.0896 26.6066 15.1824 26.6119 15.2734 26.6206L15.2611 26.6189H20.1856V38.3054C20.1821 38.3334 20.1821 38.3649 20.1821 38.3981C20.1821 38.6081 20.2451 38.8024 20.3519 38.9651L20.3501 38.9616C20.4341 39.0719 20.5636 39.1436 20.7106 39.1471V39.1506ZM35.9391 35.2761C37.8221 35.8886 38.7636 36.9392 38.7636 38.4279V38.4786C38.7636 39.4236 38.3296 40.2671 37.6489 40.8201L37.6436 40.8236C36.8614 41.4239 35.8674 41.7844 34.7911 41.7844C34.6861 41.7844 34.5811 41.7809 34.4779 41.7739H34.4919C33.7429 41.7651 33.0306 41.6199 32.3726 41.3644L32.4146 41.3784C31.6971 41.1229 31.0759 40.7659 30.5334 40.3196L30.5439 40.3284L31.9211 38.2949C32.6456 38.9109 33.5801 39.2994 34.6039 39.3449H34.6126C35.4876 39.3449 35.9251 39.0608 35.9251 38.4926C35.9251 38.2301 35.728 37.9676 35.3336 37.7051C34.9644 37.5109 34.5286 37.3324 34.0771 37.1941L34.0229 37.1801L33.8251 37.0489C31.9865 36.3489 31.0671 35.342 31.0671 34.0284C31.0671 34.0056 31.0654 33.9811 31.0654 33.9549C31.0654 33.0361 31.5029 32.2206 32.1801 31.7026L32.1871 31.6974C32.9344 31.1409 33.8759 30.8066 34.8944 30.8066C34.9696 30.8066 35.0449 30.8084 35.1184 30.8119H35.1079C36.4501 30.8434 37.6734 31.3351 38.6289 32.1331L38.6201 32.1261L37.2446 33.9619C36.6549 33.4771 35.9076 33.1639 35.0904 33.1096H35.0781C34.2906 33.1096 33.8969 33.3721 33.8969 33.8971C33.8986 34.2139 34.0841 34.4886 34.3519 34.6181L34.3571 34.6199C34.6791 34.8141 35.0519 34.9716 35.4474 35.0731L35.4771 35.0801C35.6941 35.1664 35.8464 35.2318 35.9339 35.2761H35.9391ZM25.7646 30.7471C25.8294 30.7436 25.9064 30.7419 25.9816 30.7419C27.1961 30.7419 28.2846 31.2896 29.0091 32.1524L29.0144 32.1576C29.7336 33.0764 30.1659 34.2471 30.1659 35.5194C30.1659 35.5946 30.1641 35.6716 30.1606 35.7469V35.7364C30.1554 36.1581 30.1081 36.5659 30.0224 36.9579L30.0294 36.9176V36.9841H23.7959C23.8554 37.6631 24.1826 38.2546 24.6691 38.6606L24.6726 38.6641C25.0944 39.0159 25.6404 39.2294 26.2371 39.2294C26.3264 39.2294 26.4156 39.2241 26.5031 39.2154L26.4926 39.2171C27.3431 39.1979 28.1324 38.9564 28.8114 38.5486L28.7904 38.5609L29.7704 40.3984C28.7501 41.1351 27.4744 41.5779 26.0936 41.5796C26.0341 41.5814 25.9659 41.5831 25.8959 41.5831C24.5151 41.5831 23.2639 41.0301 22.3504 40.1359C21.4334 39.1716 20.8699 37.8661 20.8699 36.4276C20.8699 36.3576 20.8716 36.2894 20.8734 36.2211V36.2316C20.8681 36.1371 20.8646 36.0251 20.8646 35.9131C20.8646 34.4974 21.4176 33.2111 22.3206 32.2574L22.3189 32.2591C23.1764 31.3281 24.4014 30.7471 25.7611 30.7471H25.7699H25.7646ZM23.7959 35.0801H27.5374C27.5374 33.7244 26.9465 33.0466 25.7646 33.0466C25.2659 33.0466 24.8144 33.2479 24.4854 33.5716C24.0986 33.9654 23.8449 34.4886 23.7959 35.0714V35.0801Z" fill="#60A5FA"/>
</g>
</g>
<defs>
<clipPath id="clip0_715_3725">
<rect width="64" height="64" fill="white"/>
</clipPath>
<clipPath id="clip1_715_3725">
<rect width="42" height="42" fill="white" transform="translate(11 14)"/>
</clipPath>
</defs>
</svg>
