<svg width="64" height="64" viewBox="0 0 64 64" fill="none" xmlns="http://www.w3.org/2000/svg">
<g clip-path="url(#clip0_715_3608)">
<path fill-rule="evenodd" clip-rule="evenodd" d="M10.941 3.7636C13.5345 3.18724 16.6233 3 20.1953 3H25.371C28.5803 3 31.5773 4.60392 33.3575 7.27423L35.9571 11.1738C36.5506 12.0638 37.5495 12.5985 38.6194 12.5985H54.7943C59.9055 12.5985 64.0482 16.6336 63.9996 21.8298C63.9413 28.0176 63.9903 34.2078 63.9903 40.3959C63.9903 43.9679 63.8031 47.0567 63.2266 49.6502C62.6423 52.2802 61.6159 54.5925 59.8037 56.4047C57.9915 58.2169 55.6792 59.2433 53.0492 59.8275C50.4557 60.4041 47.3669 60.5913 43.795 60.5913H20.1953C16.6233 60.5913 13.5345 60.4041 10.941 59.8275C8.31119 59.2433 5.99871 58.2169 4.1865 56.4047C2.37433 54.5925 1.34805 52.2802 0.763597 49.6502C0.187236 47.0567 0 43.9679 0 40.3959V23.1953C0 19.6233 0.187236 16.5345 0.763597 13.941C1.34805 11.3112 2.37433 8.99871 4.1865 7.1865C5.99871 5.37433 8.31119 4.34805 10.941 3.7636Z" fill="#495057"/>
<path fill-rule="evenodd" clip-rule="evenodd" d="M29.8863 23.2999C29.6543 22.9042 29.3228 22.576 28.9248 22.348C28.5268 22.12 28.0761 22 27.6174 22C27.1587 22 26.708 22.12 26.31 22.348C25.912 22.576 25.5806 22.9042 25.3486 23.2999L14.3551 42.2013C13.3456 43.9356 14.6088 46.1048 16.6253 46.1048H25.2062C24.76 45.7211 24.4626 45.193 24.3661 44.6125C24.2696 44.032 24.38 43.436 24.6782 42.9286L33.0028 28.6581L29.8863 23.2999Z" fill="#CED4DA"/>
<path d="M36.8519 27.4468C37.0465 27.1224 37.3217 26.854 37.6508 26.6676C37.9799 26.4813 38.3517 26.3833 38.7299 26.3833C39.1081 26.3833 39.4799 26.4813 39.809 26.6676C40.1381 26.854 40.4133 27.1224 40.6079 27.4468L49.7065 42.9132C50.54 44.3317 49.4994 46.1048 47.8272 46.1048H29.6351C27.9655 46.1048 26.9224 44.3317 27.7585 42.9132L36.8519 27.4468Z" fill="#CED4DA"/>
</g>
<defs>
<clipPath id="clip0_715_3608">
<rect width="64" height="64" fill="white"/>
</clipPath>
</defs>
</svg>
