<svg width="64" height="64" viewBox="0 0 64 64" fill="none" xmlns="http://www.w3.org/2000/svg">
<g clip-path="url(#clip0_715_2617)">
<mask id="path-1-inside-1_715_2617" fill="white">
<path fill-rule="evenodd" clip-rule="evenodd" d="M10.941 3.7636C13.5345 3.18724 16.6233 3 20.1953 3H25.371C28.5803 3 31.5773 4.60392 33.3575 7.27423L35.9571 11.1738C36.5506 12.0638 37.5495 12.5985 38.6194 12.5985H54.7943C59.9055 12.5985 64.0482 16.6336 63.9996 21.8298C63.9413 28.0176 63.9903 34.2078 63.9903 40.3959C63.9903 43.9679 63.8031 47.0567 63.2266 49.6502C62.6423 52.2802 61.6159 54.5925 59.8037 56.4047C57.9915 58.2169 55.6792 59.2433 53.0492 59.8275C50.4557 60.4041 47.3669 60.5913 43.795 60.5913H20.1953C16.6233 60.5913 13.5345 60.4041 10.941 59.8275C8.31119 59.2433 5.99871 58.2169 4.1865 56.4047C2.37433 54.5925 1.34805 52.2802 0.763597 49.6502C0.187236 47.0567 0 43.9679 0 40.3959V23.1953C0 19.6233 0.187236 16.5345 0.763597 13.941C1.34805 11.3112 2.37433 8.99871 4.1865 7.1865C5.99871 5.37433 8.31119 4.34805 10.941 3.7636Z"/>
</mask>
<path fill-rule="evenodd" clip-rule="evenodd" d="M10.941 3.7636C13.5345 3.18724 16.6233 3 20.1953 3H25.371C28.5803 3 31.5773 4.60392 33.3575 7.27423L35.9571 11.1738C36.5506 12.0638 37.5495 12.5985 38.6194 12.5985H54.7943C59.9055 12.5985 64.0482 16.6336 63.9996 21.8298C63.9413 28.0176 63.9903 34.2078 63.9903 40.3959C63.9903 43.9679 63.8031 47.0567 63.2266 49.6502C62.6423 52.2802 61.6159 54.5925 59.8037 56.4047C57.9915 58.2169 55.6792 59.2433 53.0492 59.8275C50.4557 60.4041 47.3669 60.5913 43.795 60.5913H20.1953C16.6233 60.5913 13.5345 60.4041 10.941 59.8275C8.31119 59.2433 5.99871 58.2169 4.1865 56.4047C2.37433 54.5925 1.34805 52.2802 0.763597 49.6502C0.187236 47.0567 0 43.9679 0 40.3959V23.1953C0 19.6233 0.187236 16.5345 0.763597 13.941C1.34805 11.3112 2.37433 8.99871 4.1865 7.1865C5.99871 5.37433 8.31119 4.34805 10.941 3.7636Z" stroke="#991B1B" stroke-width="12" mask="url(#path-1-inside-1_715_2617)"/>
<g clip-path="url(#clip1_715_2617)">
<path d="M36.9233 33.3338H36.8814V31.1273C36.8814 28.7497 34.9471 26.8154 32.5697 26.8154H31.4306C29.0529 26.8154 27.1187 28.7498 27.1187 31.1273V33.3338H27.0768C26.3818 33.3338 25.8184 33.8976 25.8184 34.5925V42.6176C25.8184 43.3127 26.3819 43.8763 27.0768 43.8763H36.9236C37.6187 43.8763 38.182 43.3127 38.182 42.6176V34.5925C38.1817 33.8976 37.6182 33.3338 36.9233 33.3338ZM33.2583 39.7184C33.2583 40.4134 32.6948 40.9768 31.9999 40.9768C31.3048 40.9768 30.7415 40.4134 30.7415 39.7184V38.1453C30.7415 37.4502 31.3048 36.887 31.9999 36.887C32.6949 36.887 33.2583 37.4504 33.2583 38.1453V39.7184ZM34.4174 33.3338H29.5824V31.1273C29.5824 30.1083 30.4113 29.2794 31.4304 29.2794H32.5695C33.5883 29.2794 34.4174 30.1082 34.4174 31.1273V33.3338Z" fill="#F87171"/>
<path d="M44.239 46.3099L44.379 46.1394C46.7478 43.2584 48 39.7522 48 36C48 32.1871 46.7102 28.6359 44.2696 25.7306L44.1337 25.5689L44.207 25.3706C44.3394 25.0127 44.4066 24.636 44.4066 24.2517C44.4066 22.4721 42.9588 21.0243 41.1794 21.0243C40.5297 21.0243 39.9034 21.2168 39.3678 21.5804L39.1935 21.6989L39.004 21.6066C36.8184 20.5405 34.4618 20 32 20C29.457 20 27.0321 20.5741 24.7924 21.7065L24.5903 21.8086L24.4095 21.6724C23.8467 21.2484 23.176 21.0241 22.4698 21.0241C20.6903 21.0241 19.2427 22.4718 19.2427 24.2514C19.2427 24.7306 19.3458 25.1924 19.549 25.624L19.6458 25.8295L19.5036 26.0067C17.2116 28.8613 16 32.3171 16 36C16 39.7522 17.2522 43.2584 19.621 46.1394L19.761 46.3099L19.6745 46.5129C19.5042 46.9128 19.4178 47.3378 19.4178 47.7758C19.4178 49.5551 20.8656 51.0029 22.645 51.0029C23.3312 51.0029 23.9867 50.7897 24.541 50.3865L24.719 50.2572L24.9162 50.3547C27.1236 51.4464 29.507 52 32 52C34.493 52 36.8764 51.4464 39.0837 50.3547L39.281 50.2572L39.459 50.3865C40.0133 50.7897 40.6689 51.0029 41.3549 51.0029C43.1343 51.0029 44.5822 49.5551 44.5822 47.7758C44.5822 47.3375 44.4958 46.9128 44.3256 46.5129L44.239 46.3099ZM42.803 44.6058L42.6432 44.8059L42.401 44.7231C42.0633 44.6074 41.7113 44.5484 41.3548 44.5484C39.5755 44.5484 38.1276 45.9962 38.1276 47.7758C38.1276 47.8866 38.1334 47.9989 38.1447 48.1095L38.171 48.3642L37.9398 48.4749C36.0749 49.3665 34.0766 49.8182 31.9999 49.8182C29.9233 49.8182 27.9248 49.3665 26.0601 48.4749L25.8289 48.3642L25.8552 48.1095C25.8665 47.9989 25.8723 47.8866 25.8723 47.7758C25.8723 45.9962 24.4246 44.5484 22.6451 44.5484C22.2886 44.5484 21.9367 44.6072 21.599 44.7231L21.3567 44.8059L21.1969 44.6058C19.2244 42.1348 18.1818 39.1587 18.1818 36C18.1818 32.8726 19.2053 29.9203 21.1415 27.4629L21.2951 27.2678L21.5326 27.3398C21.8363 27.4318 22.1516 27.4785 22.4698 27.4785C24.2492 27.4785 25.697 26.0307 25.697 24.2514C25.697 24.1631 25.6927 24.0702 25.6837 23.9682L25.6623 23.721L25.8846 23.6108C27.7982 22.6626 29.8558 22.1818 31.9999 22.1818C34.0122 22.1818 35.9546 22.6076 37.7732 23.4472L38.0164 23.5594L37.9814 23.8248C37.9622 23.9705 37.9525 24.1139 37.9525 24.2514C37.9525 26.0306 39.4002 27.4784 41.1796 27.4784C41.5864 27.4784 41.9843 27.4028 42.3624 27.2538L42.6116 27.1554L42.7794 27.3642C44.7391 29.8058 45.8182 32.8726 45.8182 35.9998C45.8182 39.1587 44.7756 42.1349 42.803 44.6058Z" fill="#F87171"/>
</g>
</g>
<defs>
<clipPath id="clip0_715_2617">
<rect width="64" height="64" fill="white"/>
</clipPath>
<clipPath id="clip1_715_2617">
<rect width="32" height="32" fill="white" transform="translate(16 20)"/>
</clipPath>
</defs>
</svg>
