<svg width="64" height="64" viewBox="0 0 64 64" fill="none" xmlns="http://www.w3.org/2000/svg">
<g clip-path="url(#clip0_717_3925)">
<path fill-rule="evenodd" clip-rule="evenodd" d="M10.941 3.7636C13.5345 3.18724 16.6233 3 20.1953 3H25.371C28.5803 3 31.5773 4.60392 33.3575 7.27423L35.9571 11.1738C36.5506 12.0638 37.5495 12.5985 38.6194 12.5985H54.7943C59.9055 12.5985 64.0482 16.6336 63.9996 21.8298C63.9413 28.0176 63.9903 34.2078 63.9903 40.3959C63.9903 43.9679 63.8031 47.0567 63.2266 49.6502C62.6423 52.2802 61.6159 54.5925 59.8037 56.4047C57.9915 58.2169 55.6792 59.2433 53.0492 59.8275C50.4557 60.4041 47.3669 60.5913 43.795 60.5913H20.1953C16.6233 60.5913 13.5345 60.4041 10.941 59.8275C8.31119 59.2433 5.99871 58.2169 4.1865 56.4047C2.37433 54.5925 1.34805 52.2802 0.763597 49.6502C0.187236 47.0567 0 43.9679 0 40.3959V23.1953C0 19.6233 0.187236 16.5345 0.763597 13.941C1.34805 11.3112 2.37433 8.99871 4.1865 7.1865C5.99871 5.37433 8.31119 4.34805 10.941 3.7636Z" fill="#075985"/>
<path d="M32.0074 32.5061C32.5569 32.5061 33.0941 32.6687 33.5513 32.9733C34.0086 33.278 34.3655 33.7112 34.5771 34.2182C34.7887 34.7253 34.8455 35.2837 34.7405 35.823C34.6354 36.3623 34.3732 36.8585 33.9867 37.2491C33.6003 37.6397 33.1069 37.9072 32.5687 38.018C32.0305 38.1288 31.4716 38.0778 30.9623 37.8716C30.453 37.6654 30.0161 37.3132 29.7066 36.8592C29.3971 36.4052 29.2288 35.8698 29.2229 35.3204C29.2209 34.9528 29.2914 34.5883 29.4303 34.2479C29.5692 33.9076 29.7737 33.5978 30.0323 33.3365C30.2909 33.0752 30.5984 32.8673 30.9373 32.7248C31.2762 32.5823 31.6398 32.508 32.0074 32.5061ZM25.1131 47.2329C26.0512 47.7987 28.0912 46.9351 30.4737 44.7015C29.6774 43.7966 28.927 42.8523 28.2252 41.8723C27.0242 41.7378 25.8312 41.5389 24.6515 41.2766C23.892 44.4632 24.175 46.6522 25.1131 47.2329ZM26.1703 38.6857L25.7385 37.9262C25.5701 38.3445 25.426 38.7721 25.3067 39.2068C25.7087 39.2962 26.1554 39.3706 26.617 39.4451L26.1703 38.6857ZM35.9088 37.554L37.1149 35.3204L35.9088 33.0868C35.4621 32.2976 34.9856 31.5977 34.5537 30.8979C33.7497 30.8532 32.9009 30.8532 32.0074 30.8532C31.114 30.8532 30.2652 30.8532 29.4611 30.8532C29.0293 31.5531 28.5528 32.2529 28.1061 33.0421L26.9 35.3204L28.1061 37.554C28.5528 38.3432 29.0293 39.043 29.4611 39.7429C30.2652 39.7429 31.114 39.7429 32.0074 39.7429C32.9009 39.7429 33.7497 39.7429 34.5537 39.7429C34.9856 39.043 35.4621 38.3432 35.9088 37.554ZM32.0074 27.5475C31.7245 27.8751 31.4267 28.2175 31.1289 28.6196H32.886C32.5882 28.2175 32.2904 27.8751 32.0074 27.5475ZM32.0074 43.0933C32.2904 42.7657 32.5882 42.4232 32.886 42.0212H31.1289C31.4267 42.4232 31.7245 42.7657 32.0074 43.0933ZM38.8869 23.4079C37.9637 22.842 35.9088 23.7057 33.5412 25.9393C34.3375 26.8442 35.0879 27.7884 35.7897 28.7685C36.9896 28.8833 38.1826 29.0623 39.3634 29.3046C40.1228 26.118 39.8399 23.929 38.8869 23.3483M37.8446 31.8955L38.2764 32.655C38.4447 32.2367 38.5889 31.8091 38.7082 31.3744C38.3062 31.285 37.8595 31.2106 37.3979 31.1361L37.8446 31.8955ZM40.0037 21.4721C42.1926 22.7229 42.4309 26.0137 41.4928 29.8555C45.275 30.9723 48 32.8336 48 35.3353C48 37.8369 45.275 39.6982 41.4928 40.815C42.416 44.6568 42.1778 47.9477 40.0037 49.1985C37.8297 50.4493 34.8664 49.0198 32.0074 46.2948C29.1484 49.0198 26.1852 50.4493 23.9963 49.1985C21.8074 47.9477 21.584 44.7313 22.5072 40.815C18.725 39.6982 16 37.8369 16 35.3353C16 32.8336 18.725 30.9574 22.5072 29.8406C21.584 25.9988 21.8222 22.708 23.9963 21.4572C26.1703 20.2064 29.1484 21.6359 32.0074 24.3609C34.8664 21.6359 37.8297 20.2064 40.0037 21.4572M39.5719 35.3204C40.089 36.4166 40.5464 37.54 40.9418 38.6857C44.0689 37.7476 45.826 36.4074 45.826 35.3204C45.826 34.2334 44.0242 32.8932 40.9418 31.9551C40.5464 33.1008 40.089 34.2242 39.5719 35.3204ZM24.443 35.3204C23.9258 34.2242 23.4685 33.1008 23.0731 31.9551C19.946 32.8932 18.1889 34.2334 18.1889 35.3204C18.1889 36.4074 19.9907 37.7476 23.0731 38.6857C23.4685 37.54 23.9258 36.4166 24.443 35.3204ZM37.8446 38.6857L37.3979 39.4451C37.8595 39.4451 38.3062 39.2962 38.7082 39.2068C38.5889 38.7721 38.4447 38.3445 38.2764 37.9262L37.8446 38.6857ZM33.4965 44.7015C35.8641 46.9351 37.9637 47.7987 38.8423 47.2329C39.7208 46.6671 40.0782 44.5228 39.3188 41.2766C38.1379 41.5189 36.945 41.6979 35.745 41.8127C35.0449 42.8131 34.2944 43.7772 33.4965 44.7015ZM26.1703 31.9551L26.617 31.1957C26.1554 31.1957 25.7087 31.3446 25.3067 31.4339C25.426 31.8687 25.5701 32.2963 25.7385 32.7145L26.1703 31.9551ZM30.5184 25.9393C28.1061 23.7057 26.0512 22.842 25.1131 23.4079C24.175 23.9737 23.892 26.118 24.6515 29.3641C25.8323 29.1218 27.0253 28.9429 28.2252 28.8281C28.9398 27.8267 29.7052 26.8625 30.5184 25.9393Z" fill="#38BDF8"/>
</g>
<defs>
<clipPath id="clip0_717_3925">
<rect width="64" height="64" fill="white"/>
</clipPath>
</defs>
</svg>
