<svg width="63" height="63" viewBox="0 0 63 63" fill="none" xmlns="http://www.w3.org/2000/svg">
<g clip-path="url(#clip0_715_2973)">
<path fill-rule="evenodd" clip-rule="evenodd" d="M10.7701 3.70479C13.323 3.13744 16.3636 2.95312 19.8798 2.95312H24.9746C28.1337 2.95312 31.0839 4.53198 32.8363 7.16057L35.3953 10.9992C35.9795 11.8753 36.9628 12.4017 38.016 12.4017H53.9381C58.9695 12.4017 63.0475 16.3737 62.9996 21.4887C62.9423 27.5799 62.9905 33.6733 62.9905 39.7647C62.9905 43.2809 62.8062 46.3214 62.2387 48.8744C61.6636 51.4633 60.6532 53.7395 58.8693 55.5234C57.0854 57.3073 54.8093 58.3176 52.2203 58.8927C49.6673 59.4603 46.6268 59.6445 43.1107 59.6445H19.8798C16.3636 59.6445 13.323 59.4603 10.7701 58.8927C8.18133 58.3176 5.90498 57.3073 4.12109 55.5234C2.33723 53.7395 1.32699 51.4633 0.751665 48.8744C0.18431 46.3214 0 43.2809 0 39.7647V22.8329C0 19.3167 0.18431 16.2762 0.751665 13.7232C1.32699 11.1345 2.33723 8.8581 4.12109 7.07421C5.90498 5.29035 8.18133 4.28011 10.7701 3.70479Z" fill="#854D0E"/>
<path d="M45.8966 44.5019L40.3793 38.9847C41.4828 37.023 41.9732 34.8161 41.9732 32.4866C41.9732 25.0077 35.9655 19 28.4866 19C21.0077 19 15 25.0077 15 32.4866C15 39.9655 21.0077 45.9732 28.4866 45.9732C30.8161 45.9732 33.023 45.3602 34.9847 44.3793L40.5019 49.8966C41.2375 50.6322 42.2184 51 43.1992 51C44.1801 51 45.1609 50.6322 45.8966 49.8966C47.3678 48.4253 47.3678 45.9732 45.8966 44.5019ZM37.069 33.7126H34.4943C34.3716 34.4483 34.0038 35.1839 33.636 35.9195L35.4751 37.7586C35.9655 38.249 35.9655 38.9847 35.4751 39.4751C35.2299 39.7203 34.9847 39.8429 34.6169 39.8429C34.249 39.8429 34.0038 39.7203 33.7586 39.4751L31.9195 37.636C30.9387 38.249 29.7126 38.6169 28.4866 38.6169C27.2605 38.6169 26.0345 38.249 25.0536 37.636L23.2146 39.4751C22.9693 39.7203 22.7241 39.8429 22.3563 39.8429C21.9885 39.8429 21.7433 39.7203 21.4981 39.4751C21.0077 38.9847 21.0077 38.249 21.4981 37.7586L23.3372 35.9195C22.9693 35.3065 22.6015 34.5709 22.4789 33.7126H19.9042C19.1686 33.7126 18.6782 33.2222 18.6782 32.4866C18.6782 31.751 19.1686 31.2605 19.9042 31.2605H22.4789C22.6015 30.5249 22.9693 29.7893 23.3372 29.0536L21.4981 27.2146C21.0077 26.7241 21.0077 25.9885 21.4981 25.4981C21.9885 25.0077 22.7241 25.0077 23.2146 25.4981L25.0536 27.3372C25.4215 27.092 25.6667 26.9693 26.0345 26.8467C26.0345 26.7241 26.0345 26.4789 26.0345 26.3563C26.0345 25.0077 27.1379 23.9042 28.4866 23.9042C29.8352 23.9042 30.9387 25.0077 30.9387 26.3563C30.9387 26.4789 30.9387 26.7241 30.9387 26.8467C31.3065 26.9693 31.5517 27.2146 31.9195 27.3372L33.7586 25.4981C34.249 25.0077 34.9847 25.0077 35.4751 25.4981C35.9655 25.9885 35.9655 26.7241 35.4751 27.2146L33.636 29.0536C34.0038 29.6667 34.3716 30.4023 34.4943 31.2605H37.069C37.8046 31.2605 38.295 31.751 38.295 32.4866C38.295 33.2222 37.8046 33.7126 37.069 33.7126Z" fill="#FACC15"/>
</g>
<defs>
<clipPath id="clip0_715_2973">
<rect width="63" height="63" fill="white"/>
</clipPath>
</defs>
</svg>
