<svg width="64" height="64" viewBox="0 0 64 64" fill="none" xmlns="http://www.w3.org/2000/svg">
<g clip-path="url(#clip0_710_2473)">
<mask id="path-1-inside-1_710_2473" fill="white">
<path fill-rule="evenodd" clip-rule="evenodd" d="M10.941 3.7636C13.5345 3.18724 16.6233 3 20.1953 3H25.371C28.5803 3 31.5773 4.60392 33.3575 7.27423L35.9571 11.1738C36.5506 12.0638 37.5495 12.5985 38.6194 12.5985H54.7943C59.9055 12.5985 64.0482 16.6336 63.9996 21.8298C63.9413 28.0176 63.9903 34.2078 63.9903 40.3959C63.9903 43.9679 63.8031 47.0567 63.2266 49.6502C62.6423 52.2802 61.6159 54.5925 59.8037 56.4047C57.9915 58.2169 55.6792 59.2433 53.0492 59.8275C50.4557 60.4041 47.3669 60.5913 43.795 60.5913H20.1953C16.6233 60.5913 13.5345 60.4041 10.941 59.8275C8.31119 59.2433 5.99871 58.2169 4.1865 56.4047C2.37433 54.5925 1.34805 52.2802 0.763596 49.6502C0.187236 47.0567 0 43.9679 0 40.3959V23.1953C0 19.6233 0.187236 16.5345 0.763596 13.941C1.34805 11.3112 2.37433 8.99871 4.1865 7.1865C5.99871 5.37433 8.31119 4.34805 10.941 3.7636Z"/>
</mask>
<path fill-rule="evenodd" clip-rule="evenodd" d="M10.941 3.7636C13.5345 3.18724 16.6233 3 20.1953 3H25.371C28.5803 3 31.5773 4.60392 33.3575 7.27423L35.9571 11.1738C36.5506 12.0638 37.5495 12.5985 38.6194 12.5985H54.7943C59.9055 12.5985 64.0482 16.6336 63.9996 21.8298C63.9413 28.0176 63.9903 34.2078 63.9903 40.3959C63.9903 43.9679 63.8031 47.0567 63.2266 49.6502C62.6423 52.2802 61.6159 54.5925 59.8037 56.4047C57.9915 58.2169 55.6792 59.2433 53.0492 59.8275C50.4557 60.4041 47.3669 60.5913 43.795 60.5913H20.1953C16.6233 60.5913 13.5345 60.4041 10.941 59.8275C8.31119 59.2433 5.99871 58.2169 4.1865 56.4047C2.37433 54.5925 1.34805 52.2802 0.763596 49.6502C0.187236 47.0567 0 43.9679 0 40.3959V23.1953C0 19.6233 0.187236 16.5345 0.763596 13.941C1.34805 11.3112 2.37433 8.99871 4.1865 7.1865C5.99871 5.37433 8.31119 4.34805 10.941 3.7636Z" stroke="#854D0E" stroke-width="12" mask="url(#path-1-inside-1_710_2473)"/>
<g clip-path="url(#clip1_710_2473)">
<path d="M43.2 20H20.8C18.149 20 16 22.149 16 24.8V47.2C16 49.851 18.149 52 20.8 52H43.2C45.851 52 48 49.851 48 47.2V24.8C48 22.149 45.851 20 43.2 20Z" fill="#FACC15"/>
<path d="M36.25 43.125C36.875 44.1875 37.75 44.9375 39.1875 44.9375C40.4375 44.9375 41.25 44.3125 41.25 43.4375C41.25 42.4375 40.4375 42.0625 39.0625 41.4375L38.3125 41.125C36.125 40.1875 34.6875 39.0625 34.6875 36.625C34.6875 34.375 36.375 32.625 39.0625 32.625C41 32.625 42.375 33.3125 43.3125 35.0625L41 36.5625C40.5 35.625 39.9375 35.25 39.0625 35.25C38.1875 35.25 37.625 35.8125 37.625 36.5625C37.625 37.4375 38.1875 37.8125 39.5 38.375L40.25 38.6875C42.8125 39.8125 44.25 40.875 44.25 43.4375C44.25 46.125 42.125 47.625 39.25 47.625C36.4375 47.625 34.625 46.3125 33.75 44.5625L36.25 43.125ZM25.625 43.375C26.125 44.1875 26.5 44.9375 27.5625 44.9375C28.5625 44.9375 29.1875 44.5625 29.1875 43.0625V32.6875H32.1875V42.9375C32.1875 46.0625 30.375 47.4375 27.6875 47.4375C25.25 47.4375 23.875 46.1875 23.1875 44.6875L25.625 43.375Z" fill="#212529"/>
</g>
</g>
<defs>
<clipPath id="clip0_710_2473">
<rect width="64" height="64" fill="white"/>
</clipPath>
<clipPath id="clip1_710_2473">
<rect width="32" height="32" fill="white" transform="translate(16 20)"/>
</clipPath>
</defs>
</svg>
