<svg width="64" height="64" viewBox="0 0 64 64" fill="none" xmlns="http://www.w3.org/2000/svg">
<g clip-path="url(#clip0_711_2586)">
<mask id="path-1-inside-1_711_2586" fill="white">
<path fill-rule="evenodd" clip-rule="evenodd" d="M10.941 3.7636C13.5345 3.18724 16.6233 3 20.1953 3H25.371C28.5803 3 31.5773 4.60392 33.3575 7.27423L35.9571 11.1738C36.5506 12.0638 37.5495 12.5985 38.6194 12.5985H54.7943C59.9055 12.5985 64.0482 16.6336 63.9996 21.8298C63.9413 28.0176 63.9903 34.2078 63.9903 40.3959C63.9903 43.9679 63.8031 47.0567 63.2266 49.6502C62.6423 52.2802 61.6159 54.5925 59.8037 56.4047C57.9915 58.2169 55.6792 59.2433 53.0492 59.8275C50.4557 60.4041 47.3669 60.5913 43.795 60.5913H20.1953C16.6233 60.5913 13.5345 60.4041 10.941 59.8275C8.31119 59.2433 5.99871 58.2169 4.1865 56.4047C2.37433 54.5925 1.34805 52.2802 0.763597 49.6502C0.187236 47.0567 0 43.9679 0 40.3959V23.1953C0 19.6233 0.187236 16.5345 0.763597 13.941C1.34805 11.3112 2.37433 8.99871 4.1865 7.1865C5.99871 5.37433 8.31119 4.34805 10.941 3.7636Z"/>
</mask>
<path fill-rule="evenodd" clip-rule="evenodd" d="M10.941 3.7636C13.5345 3.18724 16.6233 3 20.1953 3H25.371C28.5803 3 31.5773 4.60392 33.3575 7.27423L35.9571 11.1738C36.5506 12.0638 37.5495 12.5985 38.6194 12.5985H54.7943C59.9055 12.5985 64.0482 16.6336 63.9996 21.8298C63.9413 28.0176 63.9903 34.2078 63.9903 40.3959C63.9903 43.9679 63.8031 47.0567 63.2266 49.6502C62.6423 52.2802 61.6159 54.5925 59.8037 56.4047C57.9915 58.2169 55.6792 59.2433 53.0492 59.8275C50.4557 60.4041 47.3669 60.5913 43.795 60.5913H20.1953C16.6233 60.5913 13.5345 60.4041 10.941 59.8275C8.31119 59.2433 5.99871 58.2169 4.1865 56.4047C2.37433 54.5925 1.34805 52.2802 0.763597 49.6502C0.187236 47.0567 0 43.9679 0 40.3959V23.1953C0 19.6233 0.187236 16.5345 0.763597 13.941C1.34805 11.3112 2.37433 8.99871 4.1865 7.1865C5.99871 5.37433 8.31119 4.34805 10.941 3.7636Z" stroke="#9D174D" stroke-width="12" mask="url(#path-1-inside-1_711_2586)"/>
<g clip-path="url(#clip1_711_2586)">
<path fill-rule="evenodd" clip-rule="evenodd" d="M48 24.282V39.4945C48 43.2558 45.0818 46.5279 41.4209 46.4344C37.2264 46.3261 33.9984 42.0659 35.5749 37.5055C36.4438 34.9914 38.8764 33.3488 41.4736 33.3078C42.7131 33.2898 43.1619 33.6112 44.8055 34.1855V29.2051C44.8055 28.2992 44.0899 27.5641 43.2082 27.5641H30.4301C29.5484 27.5641 28.8328 28.2992 28.8328 29.2051V46.0535C28.8328 49.8328 25.8874 53.1167 22.2105 52.9969C18.6902 52.882 15.863 49.8443 16.0051 46.1684C16.1441 42.6254 19.1837 39.9473 22.6354 39.8652C24.2662 39.8258 24.5633 40.0821 25.6383 40.75V24.282C25.6383 22.4687 27.0694 21 28.8328 21H44.8055C46.5705 21 48 22.4687 48 24.282Z" fill="#F472B6"/>
</g>
</g>
<defs>
<clipPath id="clip0_711_2586">
<rect width="64" height="64" fill="white"/>
</clipPath>
<clipPath id="clip1_711_2586">
<rect width="32" height="32" fill="white" transform="translate(16 21)"/>
</clipPath>
</defs>
</svg>
