<svg width="64" height="64" viewBox="0 0 64 64" fill="none" xmlns="http://www.w3.org/2000/svg">
<g clip-path="url(#clip0_710_2565)">
<mask id="path-1-inside-1_710_2565" fill="white">
<path fill-rule="evenodd" clip-rule="evenodd" d="M10.941 3.7636C13.5345 3.18724 16.6233 3 20.1953 3H25.371C28.5803 3 31.5773 4.60392 33.3575 7.27423L35.9571 11.1738C36.5506 12.0638 37.5495 12.5985 38.6194 12.5985H54.7943C59.9055 12.5985 64.0482 16.6336 63.9996 21.8298C63.9413 28.0176 63.9903 34.2078 63.9903 40.3959C63.9903 43.9679 63.8031 47.0567 63.2266 49.6502C62.6423 52.2802 61.6159 54.5925 59.8037 56.4047C57.9915 58.2169 55.6792 59.2433 53.0492 59.8275C50.4557 60.4041 47.3669 60.5913 43.795 60.5913H20.1953C16.6233 60.5913 13.5345 60.4041 10.941 59.8275C8.31119 59.2433 5.99871 58.2169 4.1865 56.4047C2.37433 54.5925 1.34805 52.2802 0.763596 49.6502C0.187236 47.0567 0 43.9679 0 40.3959V23.1953C0 19.6233 0.187236 16.5345 0.763596 13.941C1.34805 11.3112 2.37433 8.99871 4.1865 7.1865C5.99871 5.37433 8.31119 4.34805 10.941 3.7636Z"/>
</mask>
<path fill-rule="evenodd" clip-rule="evenodd" d="M10.941 3.7636C13.5345 3.18724 16.6233 3 20.1953 3H25.371C28.5803 3 31.5773 4.60392 33.3575 7.27423L35.9571 11.1738C36.5506 12.0638 37.5495 12.5985 38.6194 12.5985H54.7943C59.9055 12.5985 64.0482 16.6336 63.9996 21.8298C63.9413 28.0176 63.9903 34.2078 63.9903 40.3959C63.9903 43.9679 63.8031 47.0567 63.2266 49.6502C62.6423 52.2802 61.6159 54.5925 59.8037 56.4047C57.9915 58.2169 55.6792 59.2433 53.0492 59.8275C50.4557 60.4041 47.3669 60.5913 43.795 60.5913H20.1953C16.6233 60.5913 13.5345 60.4041 10.941 59.8275C8.31119 59.2433 5.99871 58.2169 4.1865 56.4047C2.37433 54.5925 1.34805 52.2802 0.763596 49.6502C0.187236 47.0567 0 43.9679 0 40.3959V23.1953C0 19.6233 0.187236 16.5345 0.763596 13.941C1.34805 11.3112 2.37433 8.99871 4.1865 7.1865C5.99871 5.37433 8.31119 4.34805 10.941 3.7636Z" stroke="#1E40AF" stroke-width="12" mask="url(#path-1-inside-1_710_2565)"/>
<path d="M40.292 35.547C42.26 35.678 44.021 34.334 44.407 32.402C43.932 31.667 43.12 31.225 42.246 31.225C39.974 31.173 38.755 33.876 40.293 35.548L40.292 35.547ZM31.115 24.697L36.474 21.593L34.766 20.63L27.375 24.911L27.964 25.239L29.083 25.868L31.115 24.692V24.697ZM37.161 21.307C37.25 21.334 37.322 21.407 37.349 21.495L39.833 29.088C39.88 29.219 39.828 29.36 39.708 29.432C37.74 30.588 36.792 32.921 37.391 35.125C38.047 37.516 40.328 39.078 42.792 38.828C42.927 38.817 43.057 38.901 43.099 39.031L45.662 46.834C45.703 46.965 45.651 47.105 45.537 47.178L37.678 51.949C37.641 51.97 37.594 51.985 37.547 51.985C37.479 52.001 37.407 51.985 37.344 51.944L34.579 50.147C34.531 50.116 34.495 50.07 34.47 50.018L29.074 37.122L20.855 41.997C20.839 42.008 20.818 42.018 20.803 42.029C20.719 42.065 20.62 42.054 20.542 42.008L18.683 40.915C18.547 40.842 18.495 40.67 18.568 40.534L26.521 24.785C26.546 24.728 26.598 24.681 26.656 24.654L34.615 20.045C34.703 19.993 34.812 19.988 34.907 20.04L37.161 21.307ZM28.839 26.407L26.907 25.318L19.214 40.547L20.61 41.37L27.241 32.355C27.304 32.266 27.408 32.219 27.512 32.235C27.616 32.246 27.704 32.312 27.747 32.412L34.975 49.708L36.908 50.959L28.845 26.407H28.839ZM42.245 36.964C39.989 36.964 38.458 34.672 39.322 32.588C40.182 30.505 42.885 29.969 44.478 31.563C45.073 32.156 45.406 32.959 45.406 33.798C45.411 35.547 43.994 36.964 42.245 36.964Z" fill="#60A5FA"/>
</g>
<defs>
<clipPath id="clip0_710_2565">
<rect width="64" height="64" fill="white"/>
</clipPath>
</defs>
</svg>
