<svg width="63" height="63" viewBox="0 0 63 63" fill="none" xmlns="http://www.w3.org/2000/svg">
<g clip-path="url(#clip0_715_3173)">
<mask id="path-1-inside-1_715_3173" fill="white">
<path fill-rule="evenodd" clip-rule="evenodd" d="M10.7702 3.70479C13.3232 3.13744 16.3637 2.95312 19.8799 2.95312H24.9747C28.1339 2.95312 31.084 4.53198 32.8364 7.16057L35.3954 10.9992C35.9796 11.8753 36.9629 12.4017 38.0161 12.4017H53.9382C58.9696 12.4017 63.0476 16.3737 62.9997 21.4887C62.9424 27.5799 62.9906 33.6733 62.9906 39.7647C62.9906 43.2809 62.8063 46.3214 62.2388 48.8744C61.6637 51.4633 60.6533 53.7395 58.8694 55.5234C57.0855 57.3073 54.8094 58.3176 52.2205 58.8927C49.6675 59.4603 46.6269 59.6445 43.1108 59.6445H19.8799C16.3637 59.6445 13.3232 59.4603 10.7702 58.8927C8.18145 58.3176 5.9051 57.3073 4.12121 55.5234C2.33735 53.7395 1.32711 51.4633 0.751787 48.8744C0.184432 46.3214 0.00012207 43.2809 0.00012207 39.7647V22.8329C0.00012207 19.3167 0.184432 16.2762 0.751787 13.7232C1.32711 11.1345 2.33735 8.8581 4.12121 7.07421C5.9051 5.29035 8.18145 4.28011 10.7702 3.70479Z"/>
</mask>
<path fill-rule="evenodd" clip-rule="evenodd" d="M10.7702 3.70479C13.3232 3.13744 16.3637 2.95312 19.8799 2.95312H24.9747C28.1339 2.95312 31.084 4.53198 32.8364 7.16057L35.3954 10.9992C35.9796 11.8753 36.9629 12.4017 38.0161 12.4017H53.9382C58.9696 12.4017 63.0476 16.3737 62.9997 21.4887C62.9424 27.5799 62.9906 33.6733 62.9906 39.7647C62.9906 43.2809 62.8063 46.3214 62.2388 48.8744C61.6637 51.4633 60.6533 53.7395 58.8694 55.5234C57.0855 57.3073 54.8094 58.3176 52.2205 58.8927C49.6675 59.4603 46.6269 59.6445 43.1108 59.6445H19.8799C16.3637 59.6445 13.3232 59.4603 10.7702 58.8927C8.18145 58.3176 5.9051 57.3073 4.12121 55.5234C2.33735 53.7395 1.32711 51.4633 0.751787 48.8744C0.184432 46.3214 0.00012207 43.2809 0.00012207 39.7647V22.8329C0.00012207 19.3167 0.184432 16.2762 0.751787 13.7232C1.32711 11.1345 2.33735 8.8581 4.12121 7.07421C5.9051 5.29035 8.18145 4.28011 10.7702 3.70479Z" stroke="#9A3412" stroke-width="12" mask="url(#path-1-inside-1_715_3173)"/>
<path d="M45.0495 20.0022C44.1159 20.075 41.6192 21.9299 38.9948 24.5543L29.0937 34.4554C29.5367 34.6197 29.9497 34.853 30.2917 35.1949C30.6146 35.5179 30.8355 35.9057 31 36.3199L40.8802 26.4397C43.8795 23.4404 45.8713 20.6053 45.349 20.083C45.2837 20.0177 45.1828 19.9918 45.0495 20.0022ZM31.026 26.0882C22.1753 26.0882 15 31.6633 15 38.5387C15 45.4141 22.1753 50.9867 31.026 50.9866C34.5698 50.9866 37.3784 50.2532 39.9818 49.1767C41.7864 48.4305 43.5568 47.0408 43.8568 45.2027C43.9288 44.7612 43.73 43.8633 43.0833 42.8043C42.1541 41.2826 40.4784 39.5199 40.5417 39.0179C40.6455 38.1939 41.8333 38.7819 43.4531 39.0048C45.0729 39.2278 47 40.4194 47 36.6142C47 34.5672 44.9262 31.6819 41.6432 29.4475L32.0964 38.9944C32.0952 39.0044 32.0999 39.0153 32.099 39.0257C31.9226 40.4572 31.2472 41.781 30.1823 42.846C28.6148 44.4134 26.9854 44.63 25.5833 44.9397C24.1813 45.2494 22.9818 45.3642 22.9818 45.3642L19.7057 45.6871L20.0729 42.4163C20.0729 42.4163 20.2018 41.23 20.526 39.8434C20.8503 38.4568 21.0975 36.8475 22.6406 35.3043C23.6792 34.2657 24.9686 33.615 26.3594 33.4189L33.4948 26.2809C32.6883 26.1674 31.8685 26.0882 31.026 26.0882ZM27.3594 36.0179C26.4237 35.9503 25.3603 36.3555 24.526 37.1897C23.1912 38.5245 22.724 42.7106 22.724 42.7106C22.724 42.7106 26.9621 42.2954 28.2969 40.9606C29.6317 39.6258 29.8695 37.6999 28.8281 36.6585C28.4376 36.268 27.9208 36.0584 27.3594 36.0179Z" fill="#FB923C"/>
</g>
<defs>
<clipPath id="clip0_715_3173">
<rect width="63" height="63" fill="white"/>
</clipPath>
</defs>
</svg>
