<svg width="64" height="64" viewBox="0 0 64 64" fill="none" xmlns="http://www.w3.org/2000/svg">
<g clip-path="url(#clip0_715_3295)">
<path fill-rule="evenodd" clip-rule="evenodd" d="M10.941 3.7636C13.5345 3.18724 16.6233 3 20.1953 3H25.371C28.5803 3 31.5773 4.60392 33.3575 7.27423L35.9571 11.1738C36.5506 12.0638 37.5495 12.5985 38.6194 12.5985H54.7943C59.9055 12.5985 64.0482 16.6336 63.9996 21.8298C63.9413 28.0176 63.9903 34.2078 63.9903 40.3959C63.9903 43.9679 63.8031 47.0567 63.2266 49.6502C62.6423 52.2802 61.6159 54.5925 59.8037 56.4047C57.9915 58.2169 55.6792 59.2433 53.0492 59.8275C50.4557 60.4041 47.3669 60.5913 43.795 60.5913H20.1953C16.6233 60.5913 13.5345 60.4041 10.941 59.8275C8.31119 59.2433 5.99871 58.2169 4.1865 56.4047C2.37433 54.5925 1.34805 52.2802 0.763597 49.6502C0.187236 47.0567 0 43.9679 0 40.3959V23.1953C0 19.6233 0.187236 16.5345 0.763597 13.941C1.34805 11.3112 2.37433 8.99871 4.1865 7.1865C5.99871 5.37433 8.31119 4.34805 10.941 3.7636Z" fill="#1E40AF"/>
<g clip-path="url(#clip1_715_3295)">
<path d="M37.0214 37.0013L42.6214 27.336L45.3281 37.0067L42.6214 46.6733L37.0214 37.0067V37.0013ZM34.2921 38.5707L39.8934 48.2427L30.1387 45.7413L23.0921 38.5707H34.2921ZM39.8921 25.76L34.2921 35.4307H23.0921L30.1387 28.26L39.8907 25.76H39.8921ZM47.8921 33.7107L44.4707 21L31.7187 24.4067L29.8307 27.7253L26.0001 27.6973L16.6667 37.0013L26.0001 46.304L29.8281 46.2747L31.7187 49.5933L44.4707 52.9987L47.8841 40.2907L45.9467 37L47.8921 33.7107Z" fill="#60A5FA"/>
</g>
</g>
<defs>
<clipPath id="clip0_715_3295">
<rect width="64" height="64" fill="white"/>
</clipPath>
<clipPath id="clip1_715_3295">
<rect width="32" height="32" fill="white" transform="translate(16 21)"/>
</clipPath>
</defs>
</svg>
