<svg width="64" height="64" viewBox="0 0 64 64" fill="none" xmlns="http://www.w3.org/2000/svg">
<g clip-path="url(#clip0_715_3706)">
<path fill-rule="evenodd" clip-rule="evenodd" d="M10.941 3.7636C13.5345 3.18724 16.6233 3 20.1953 3H25.371C28.5803 3 31.5773 4.60392 33.3575 7.27423L35.9571 11.1738C36.5506 12.0638 37.5495 12.5985 38.6194 12.5985H54.7943C59.9055 12.5985 64.0482 16.6336 63.9996 21.8298C63.9413 28.0176 63.9903 34.2078 63.9903 40.3959C63.9903 43.9679 63.8031 47.0567 63.2266 49.6502C62.6423 52.2802 61.6159 54.5925 59.8037 56.4047C57.9915 58.2169 55.6792 59.2433 53.0492 59.8275C50.4557 60.4041 47.3669 60.5913 43.795 60.5913H20.1953C16.6233 60.5913 13.5345 60.4041 10.941 59.8275C8.31119 59.2433 5.99871 58.2169 4.1865 56.4047C2.37433 54.5925 1.34805 52.2802 0.763597 49.6502C0.187236 47.0567 0 43.9679 0 40.3959V23.1953C0 19.6233 0.187236 16.5345 0.763597 13.941C1.34805 11.3112 2.37433 8.99871 4.1865 7.1865C5.99871 5.37433 8.31119 4.34805 10.941 3.7636Z" fill="#1E40AF"/>
<path d="M43.899 33.3749C44.2036 33.7124 44.2759 34.292 44.1166 35.1131C43.9501 35.9683 43.6297 36.5783 43.1549 36.944C42.6797 37.3097 41.9571 37.4926 40.9867 37.4926H39.5225L40.4213 32.8685H42.0704C42.9851 32.8685 43.5943 33.0374 43.899 33.3749ZM23.2845 32.8685H21.6354L20.7365 37.4926H22.2006C23.1708 37.4926 23.8937 37.3097 24.3689 36.944C24.8438 36.5783 25.1641 35.9682 25.3305 35.1131C25.4898 34.292 25.4175 33.7124 25.1129 33.3749C24.8083 33.0374 24.1991 32.8685 23.2845 32.8685ZM52.959 35.9999C52.959 42.089 43.5752 47.0251 32 47.0251C20.4248 47.0251 11.041 42.089 11.041 35.9999C11.041 29.9108 20.4248 24.9746 32 24.9746C43.5752 24.9746 52.959 29.9108 52.959 35.9999ZM27.2866 36.7616C27.536 36.3147 27.7135 35.8214 27.8185 35.282C28.0729 33.9722 27.8809 32.9521 27.2423 32.2212C26.604 31.4903 25.5881 31.125 24.196 31.125H19.5675L17.4202 42.1736H19.8271L20.3979 39.2365H22.4597C23.3692 39.2365 24.1175 39.141 24.705 38.9496C25.2925 38.7586 25.8263 38.4383 26.3069 37.9883C26.7101 37.6175 27.0365 37.2088 27.2866 36.7616ZM35.7582 39.2365L36.7574 34.0946C36.9608 33.0489 36.8082 32.2923 36.3003 31.8253C35.7921 31.3587 34.869 31.125 33.5303 31.125H31.403L31.974 28.1874H29.5861L27.4383 39.2364H29.8263L31.0564 32.9065H32.965C33.576 32.9065 33.9754 33.0075 34.163 33.2098C34.3506 33.4122 34.3905 33.7915 34.2824 34.3475L33.3324 39.2364H35.7582V39.2365ZM46.0282 32.2212C45.39 31.4904 44.3742 31.1251 42.982 31.1251H38.3535L36.2061 42.1737H38.6131L39.1838 39.2366H41.2457C42.1551 39.2366 42.9035 39.1411 43.4909 38.9497C44.0784 38.7586 44.6122 38.4384 45.0928 37.9884C45.4964 37.6175 45.8226 37.2089 46.0725 36.7617C46.3222 36.3148 46.4993 35.8215 46.6044 35.2821C46.8589 33.9722 46.6669 32.9521 46.0282 32.2212Z" fill="#60A5FA"/>
</g>
<defs>
<clipPath id="clip0_715_3706">
<rect width="64" height="64" fill="white"/>
</clipPath>
</defs>
</svg>
