<svg width="64" height="64" viewBox="0 0 64 64" fill="none" xmlns="http://www.w3.org/2000/svg">
<g clip-path="url(#clip0_709_4759)">
<path fill-rule="evenodd" clip-rule="evenodd" d="M10.941 3.7636C13.5345 3.18724 16.6233 3 20.1953 3H25.371C28.5803 3 31.5773 4.60392 33.3575 7.27423L35.9571 11.1738C36.5506 12.0638 37.5495 12.5985 38.6194 12.5985H54.7943C59.9055 12.5985 64.0482 16.6336 63.9996 21.8298C63.9413 28.0176 63.9903 34.2078 63.9903 40.3959C63.9903 43.9679 63.8031 47.0567 63.2266 49.6502C62.6423 52.2802 61.6159 54.5925 59.8037 56.4047C57.9915 58.2169 55.6792 59.2433 53.0492 59.8275C50.4557 60.4041 47.3669 60.5913 43.795 60.5913H20.1953C16.6233 60.5913 13.5345 60.4041 10.941 59.8275C8.31119 59.2433 5.99871 58.2169 4.1865 56.4047C2.37433 54.5925 1.34805 52.2802 0.763597 49.6502C0.187236 47.0567 0 43.9679 0 40.3959V23.1953C0 19.6233 0.187236 16.5345 0.763597 13.941C1.34805 11.3112 2.37433 8.99871 4.1865 7.1865C5.99871 5.37433 8.31119 4.34805 10.941 3.7636Z" fill="#1E40AF"/>
<g clip-path="url(#clip1_709_4759)">
<path d="M27.6037 43.0455C27.3127 44.4762 27.1238 45.1679 26.0195 45.2565C25.7474 45.2783 25.5258 45.4837 25.4833 45.7534C25.4408 46.0229 25.5886 46.2866 25.8408 46.391C25.9118 46.4203 27.6008 47.1105 29.5741 47.1106C29.5744 47.1106 29.5746 47.1106 29.5748 47.1106C30.9499 47.1106 32.1295 46.7772 33.0808 46.1199C34.208 45.341 34.9852 44.1219 35.3984 42.4981L31.601 38.6704C28.3918 39.1898 27.9372 41.4061 27.6037 43.0455Z" fill="#CED4DA"/>
<path d="M47.774 26.2355C47.6719 26.1325 47.4898 26.0098 47.2024 26.0098C46.8654 26.0098 45.9702 26.0098 40.5335 30.6361C38.0221 32.773 35.1266 35.4167 32.8235 37.6664L36.427 41.2986C38.7958 38.8364 41.5591 35.7504 43.7567 33.1019C45.1444 31.4296 46.2115 30.0497 46.9283 29.0008C47.8778 27.6113 48.2936 26.7592 47.774 26.2355Z" fill="#CED4DA"/>
<path d="M33.9764 47.416C32.7569 48.2587 31.276 48.6859 29.5741 48.6859C27.3341 48.6858 25.4472 47.9328 25.2378 47.8464C24.3099 47.4619 23.7711 46.5003 23.9274 45.5083C24.0805 44.5365 24.8591 43.798 25.8316 43.6923C25.9163 43.4392 26.01 42.9782 26.0603 42.7317C26.2451 41.823 26.4983 40.5783 27.2769 39.4704C28.1272 38.2608 29.4089 37.4852 31.0919 37.1602C32.0578 36.2016 33.1598 35.1476 34.3098 34.078C33.7285 33.9518 33.2087 33.5732 32.9299 33.0005C32.4499 32.0141 32.8685 30.8275 33.8636 30.3527C34.8611 29.8768 36.0577 30.2925 36.5369 31.2804C36.6316 31.4752 36.69 31.6775 36.7173 31.8806C37.6711 31.0263 38.6183 30.1972 39.5125 29.4363C39.5178 29.4317 39.5228 29.4274 39.5282 29.4229C38.5232 27.4996 37.0819 25.7955 35.3257 24.4908C32.804 22.6172 29.8013 21.6263 26.6425 21.6255C26.6415 21.6255 26.6408 21.6255 26.64 21.6255C24.5082 21.6255 21.9168 22.3704 19.8768 23.5698C17.3764 25.0398 15.9995 27.0058 16 29.1055C16.0008 31.6404 17.4305 32.7007 18.5793 33.5525C19.516 34.2473 20.2559 34.796 20.2563 35.9984C20.2566 37.2008 19.5171 37.7489 18.5809 38.443C17.4324 39.2944 16.0031 40.3541 16.0038 42.8893C16.0044 44.9886 17.3822 46.9551 19.8833 48.4265C21.9248 49.6274 24.5175 50.3738 26.6498 50.3744C26.6512 50.3744 26.6525 50.3744 26.6539 50.3744C30.5235 50.3744 34.1611 48.8808 36.897 46.1686C38.9484 44.1352 40.3088 41.599 40.8618 38.8399C39.4883 40.363 38.1055 41.8419 36.8684 43.1049C36.3437 45.0026 35.3722 46.4515 33.9764 47.416ZM26.9332 27.5906C27.1791 26.5204 28.2524 25.8523 29.3308 26.0975C30.4078 26.3414 31.0825 27.4051 30.8384 28.4738C30.5924 29.5414 29.5185 30.2096 28.44 29.9657C27.3621 29.7231 26.6871 28.6582 26.9332 27.5906ZM20.4355 31.2381C19.7459 30.38 19.8877 29.1312 20.7522 28.4481C21.6165 27.7664 22.8758 27.9062 23.5667 28.7627C24.2549 29.6195 24.1126 30.8683 23.2488 31.5527C22.3863 32.236 21.1251 32.0947 20.4355 31.2381ZM21.4882 44.3334C20.6232 43.6498 20.4809 42.401 21.1706 41.5432C21.8597 40.6871 23.1195 40.5467 23.9843 41.2301C24.8485 41.9136 24.9909 43.1626 24.3018 44.0189C23.6128 44.8767 22.3529 45.017 21.4882 44.3334Z" fill="#CED4DA"/>
</g>
</g>
<defs>
<clipPath id="clip0_709_4759">
<rect width="64" height="64" fill="white"/>
</clipPath>
<clipPath id="clip1_709_4759">
<rect width="32" height="32" fill="white" transform="translate(16 20)"/>
</clipPath>
</defs>
</svg>
