<svg width="63" height="63" viewBox="0 0 63 63" fill="none" xmlns="http://www.w3.org/2000/svg">
<g clip-path="url(#clip0_715_3082)">
<path fill-rule="evenodd" clip-rule="evenodd" d="M10.7701 3.70479C13.323 3.13744 16.3636 2.95312 19.8798 2.95312H24.9746C28.1337 2.95312 31.0839 4.53198 32.8363 7.16057L35.3953 10.9992C35.9795 11.8753 36.9628 12.4017 38.016 12.4017H53.9381C58.9695 12.4017 63.0475 16.3737 62.9996 21.4887C62.9423 27.5799 62.9905 33.6733 62.9905 39.7647C62.9905 43.2809 62.8062 46.3214 62.2387 48.8744C61.6636 51.4633 60.6532 53.7395 58.8693 55.5234C57.0854 57.3073 54.8093 58.3176 52.2203 58.8927C49.6673 59.4603 46.6268 59.6445 43.1107 59.6445H19.8798C16.3636 59.6445 13.323 59.4603 10.7701 58.8927C8.18133 58.3176 5.90498 57.3073 4.12109 55.5234C2.33723 53.7395 1.32699 51.4633 0.751665 48.8744C0.18431 46.3214 0 43.2809 0 39.7647V22.8329C0 19.3167 0.18431 16.2762 0.751665 13.7232C1.32699 11.1345 2.33723 8.8581 4.12109 7.07421C5.90498 5.29035 8.18133 4.28011 10.7701 3.70479Z" fill="#1E40AF"/>
<path d="M29.8612 32.3136L33.4312 28.6994C33.7439 28.3866 34.1009 27.9854 34.4579 27.5384C34.8149 27.1371 35.2162 26.7801 35.6189 26.4674C36.3771 25.7977 37.2696 25.2179 38.3863 25.2179C39.3688 25.2179 40.2156 25.6649 40.841 26.2446C41.4665 26.8244 41.8235 27.6726 41.8235 28.6551C41.8235 29.0564 41.7792 29.5033 41.645 29.8161C41.3323 30.4415 41.0652 30.8871 40.7968 31.2441C40.6625 31.4226 40.5283 31.6011 40.5283 31.7796C40.5283 31.9138 40.5283 32.048 40.6183 32.0923C41.1095 33.2975 41.4665 34.3242 41.6893 35.5737C41.8235 36.065 42.0905 36.2877 42.5375 36.2877C42.716 36.2877 42.8945 36.2435 43.073 36.1092C43.43 35.8865 43.7427 35.5295 44.0555 35.1725C44.234 34.994 44.3682 34.8155 44.4567 34.7255C46.0632 33.1633 47 30.9327 47 28.6565C47 26.2461 46.0175 24.1041 44.4567 22.5433C42.8945 21.0253 40.7082 20 38.3877 20C36.0673 20 33.8353 20.9368 32.2745 22.589L26.1612 28.6579C24.5547 30.3087 23.6622 32.4507 23.6622 34.7269C23.6622 35.3967 23.9307 36.7804 24.3762 38.0742C24.8232 39.3237 25.403 40.4389 26.1612 40.4389C26.5625 40.4389 27.4107 39.7692 28.1247 39.0109C28.8387 38.2527 29.5527 37.4044 29.5527 37.0917C29.5527 36.8689 29.3742 36.6005 29.1957 36.1992C28.973 35.7979 28.883 35.3067 28.883 34.7269C28.883 33.8344 29.24 32.9419 29.8655 32.3165L29.8612 32.3136ZM29.7284 49.4496L35.8416 43.3806C37.4481 41.8184 38.3406 39.5421 38.3406 37.2673C38.3406 36.5976 38.0722 35.2596 37.6266 33.9644C37.2254 32.7149 36.5999 31.5539 35.8416 31.5539C35.5289 31.5539 34.5921 32.2679 33.9224 33.0262C33.1641 33.7845 32.4501 34.5884 32.4501 34.9012C32.4501 35.1239 32.5844 35.4809 32.8071 35.8379C33.0299 36.2392 33.2084 36.6862 33.2084 37.2659C33.1641 38.1584 32.8071 39.0509 32.1817 39.7649L28.5674 43.3349C28.2547 43.6919 27.8977 44.0489 27.5407 44.4502L26.4254 45.5654C25.6671 46.2794 24.7289 46.7707 23.6137 46.7707C21.7387 46.7707 20.2222 45.2984 20.2222 43.3792C20.2222 42.9322 20.3122 42.5309 20.445 42.2182C20.7134 41.5928 20.9805 41.1472 21.2932 40.7902C21.4274 40.6117 21.4717 40.4332 21.4717 40.299C21.4717 40.209 21.4274 40.1205 21.3817 39.942C20.8462 38.7368 20.5335 37.71 20.3107 36.4605C20.2208 36.2378 20.1765 36.0593 20.0423 35.9693C19.908 35.7908 19.6853 35.7465 19.4625 35.7465C19.284 35.7465 19.1498 35.7908 18.9713 35.925C18.6143 36.1478 18.2573 36.5048 17.9445 36.8618C17.8103 37.0403 17.6318 37.1745 17.5433 37.2631C15.9368 38.8696 15 41.1015 15 43.3763C15 45.7411 15.9368 47.9288 17.5433 49.4896C19.1055 51.0518 21.2475 51.9886 23.6123 51.9886C25.9328 51.9886 28.1647 51.0961 29.7255 49.4453L29.7284 49.4496Z" fill="#60A5FA"/>
</g>
<defs>
<clipPath id="clip0_715_3082">
<rect width="63" height="63" fill="white"/>
</clipPath>
</defs>
</svg>
