<svg width="63" height="63" viewBox="0 0 63 63" fill="none" xmlns="http://www.w3.org/2000/svg">
<g clip-path="url(#clip0_715_3244)">
<path fill-rule="evenodd" clip-rule="evenodd" d="M10.7701 3.70479C13.323 3.13744 16.3636 2.95312 19.8798 2.95312H24.9746C28.1337 2.95312 31.0839 4.53198 32.8363 7.16057L35.3953 10.9992C35.9795 11.8753 36.9628 12.4017 38.016 12.4017H53.9381C58.9695 12.4017 63.0475 16.3737 62.9996 21.4887C62.9423 27.5799 62.9905 33.6733 62.9905 39.7647C62.9905 43.2809 62.8062 46.3214 62.2387 48.8744C61.6636 51.4633 60.6532 53.7395 58.8693 55.5234C57.0854 57.3073 54.8093 58.3176 52.2203 58.8927C49.6673 59.4603 46.6268 59.6445 43.1107 59.6445H19.8798C16.3636 59.6445 13.323 59.4603 10.7701 58.8927C8.18133 58.3176 5.90498 57.3073 4.12109 55.5234C2.33723 53.7395 1.32699 51.4633 0.751665 48.8744C0.18431 46.3214 0 43.2809 0 39.7647V22.8329C0 19.3167 0.18431 16.2762 0.751665 13.7232C1.32699 11.1345 2.33723 8.8581 4.12109 7.07421C5.90498 5.29035 8.18133 4.28011 10.7701 3.70479Z" fill="#854D0E"/>
<path fill-rule="evenodd" clip-rule="evenodd" d="M27.7198 32.5683C27.7198 33.4219 28.0589 34.2406 28.6625 34.8442C29.2661 35.4478 30.0848 35.7869 30.9384 35.7869C31.792 35.7869 32.6107 35.4478 33.2143 34.8442C33.8179 34.2406 34.157 33.4219 34.157 32.5683C34.157 31.7147 33.8179 30.896 33.2143 30.2924C32.6107 29.6888 31.792 29.3497 30.9384 29.3497C30.0848 29.3497 29.2661 29.6888 28.6625 30.2924C28.0589 30.896 27.7198 31.7147 27.7198 32.5683Z" fill="#FACC15"/>
<path fill-rule="evenodd" clip-rule="evenodd" d="M30.9517 19.0005C28.2699 18.9773 25.6415 19.7507 23.3996 21.2226C21.1577 22.6946 19.4032 24.7989 18.3584 27.2689C17.3135 29.739 17.0254 32.4636 17.5304 35.0975C18.0355 37.7315 19.311 40.1562 21.1954 42.0646C23.0798 43.9729 25.4883 45.279 28.1157 45.8173C30.743 46.3555 33.471 46.1018 35.9541 45.0882C38.4371 44.0747 40.5634 42.3469 42.0636 40.1237C43.5637 37.9006 44.3702 35.2822 44.3809 32.6003C44.3809 25.2457 38.3863 19.0005 30.9517 19.0005ZM39.7943 36.9682L39.1756 37.9975C39.0489 38.1833 38.8798 38.3363 38.6822 38.4439C38.4847 38.5514 38.2645 38.6105 38.0396 38.6162C37.8806 38.6072 37.724 38.573 37.5756 38.5149L35.8743 37.8429C35.1472 38.4729 34.3051 38.9564 33.3944 39.2669L33.085 41.1762C33.026 41.4755 32.8652 41.7453 32.63 41.9397C32.3948 42.1341 32.0996 42.2412 31.7944 42.2428H30.5091C30.2039 42.2412 29.9087 42.1341 29.6735 41.9397C29.4383 41.7453 29.2775 41.4755 29.2184 41.1762L28.9091 39.2669C28.0311 38.9962 27.2217 38.5396 26.5358 37.9282L24.7332 38.6002C24.5849 38.6583 24.4282 38.6925 24.2692 38.7015C24.038 38.6967 23.812 38.6323 23.613 38.5146C23.414 38.3969 23.2488 38.2298 23.1332 38.0295L22.5145 36.9629C22.3603 36.6967 22.3067 36.3839 22.3635 36.0815C22.4202 35.7791 22.5836 35.5071 22.8239 35.3149L24.3172 34.0776C24.2176 33.6202 24.1658 33.1537 24.1625 32.6856C24.1661 32.2352 24.2179 31.7864 24.3172 31.347L22.8239 30.1097C22.5817 29.9188 22.417 29.6467 22.3601 29.3437C22.3032 29.0407 22.3581 28.7273 22.5145 28.4617L23.1332 27.395C23.2437 27.1904 23.4078 27.0197 23.6079 26.9013C23.808 26.7829 24.0367 26.7213 24.2692 26.7231C24.4282 26.732 24.5849 26.7662 24.7332 26.8244L26.5358 27.4964C27.2325 26.8875 28.0377 26.4153 28.9091 26.1044L29.2184 24.3018C29.2669 23.9999 29.4258 23.7268 29.6643 23.5356C29.9028 23.3444 30.2039 23.2487 30.5091 23.2671H31.7997C32.097 23.248 32.3911 23.3367 32.6282 23.5169C32.8653 23.6972 33.0294 23.9569 33.0904 24.2484L33.3997 26.1044C34.2685 26.3961 35.0739 26.8504 35.773 27.443L37.5756 26.7711C37.724 26.7129 37.8806 26.6787 38.0396 26.6697C38.2708 26.6746 38.4968 26.7389 38.6958 26.8567C38.8948 26.9744 39.0601 27.1414 39.1756 27.3417L39.7943 28.4084C39.9362 28.6777 39.9828 28.987 39.9267 29.2862C39.8705 29.5854 39.7148 29.8568 39.4849 30.0563L37.9916 31.2936C38.094 31.7506 38.1458 32.2174 38.1463 32.6856C38.1428 33.1361 38.0909 33.5849 37.9916 34.0243L39.4849 35.2616C39.7298 35.4637 39.8951 35.7459 39.9518 36.0583C40.0084 36.3707 39.9526 36.693 39.7943 36.9682Z" fill="#FACC15"/>
<path fill-rule="evenodd" clip-rule="evenodd" d="M17.5226 42.5788C16.8535 42.5816 16.2127 42.849 15.7401 43.3227C15.2675 43.7963 15.0014 44.4377 15 45.1068V48.472C15 49.1416 15.2656 49.7838 15.7385 50.2577C16.2115 50.7316 16.8531 50.9986 17.5226 51H44.4769C45.146 50.9972 45.7868 50.7298 46.2594 50.2561C46.732 49.7825 46.9981 49.1411 46.9995 48.472V45.1068C46.9995 44.4372 46.7339 43.795 46.261 43.3211C45.788 42.8472 45.1464 42.5802 44.4769 42.5788H43.6555C42.1531 44.5237 40.2249 46.0984 38.0189 47.1818C35.813 48.2652 33.3881 48.8285 30.9304 48.8285C28.4728 48.8285 26.0478 48.2652 23.8419 47.1818C21.636 46.0984 19.7077 44.5237 18.2053 42.5788H17.5226Z" fill="#FACC15"/>
</g>
<defs>
<clipPath id="clip0_715_3244">
<rect width="63" height="63" fill="white"/>
</clipPath>
</defs>
</svg>
