<svg width="64" height="64" viewBox="0 0 64 64" fill="none" xmlns="http://www.w3.org/2000/svg">
<g clip-path="url(#clip0_710_2572)">
<path fill-rule="evenodd" clip-rule="evenodd" d="M10.941 3.7636C13.5345 3.18724 16.6233 3 20.1953 3H25.371C28.5803 3 31.5773 4.60392 33.3575 7.27423L35.9571 11.1738C36.5506 12.0638 37.5495 12.5985 38.6194 12.5985H54.7943C59.9055 12.5985 64.0482 16.6336 63.9996 21.8298C63.9413 28.0176 63.9903 34.2078 63.9903 40.3959C63.9903 43.9679 63.8031 47.0567 63.2266 49.6502C62.6423 52.2802 61.6159 54.5925 59.8037 56.4047C57.9915 58.2169 55.6792 59.2433 53.0492 59.8275C50.4557 60.4041 47.3669 60.5913 43.795 60.5913H20.1953C16.6233 60.5913 13.5345 60.4041 10.941 59.8275C8.31119 59.2433 5.99871 58.2169 4.1865 56.4047C2.37433 54.5925 1.34805 52.2802 0.763597 49.6502C0.187236 47.0567 0 43.9679 0 40.3959V23.1953C0 19.6233 0.187236 16.5345 0.763597 13.941C1.34805 11.3112 2.37433 8.99871 4.1865 7.1865C5.99871 5.37433 8.31119 4.34805 10.941 3.7636Z" fill="#075985"/>
<path d="M32.0253 52.0507C40.8759 52.0507 48.0507 44.8759 48.0507 36.0253C48.0507 27.1748 40.8759 20 32.0253 20C23.1748 20 16 27.1748 16 36.0253C16 44.8759 23.1748 52.0507 32.0253 52.0507Z" stroke="#38BDF8" stroke-width="0.582203"/>
<path fill-rule="evenodd" clip-rule="evenodd" d="M32.2225 26.1577C29.5533 26.1581 26.9936 27.202 25.1064 29.0599C23.2192 30.9177 22.1589 33.4373 22.1589 36.0645C22.1594 38.6914 23.2198 41.2106 25.107 43.0681C26.9941 44.9256 29.5536 45.9693 32.2225 45.9697C34.8919 45.9701 37.4522 44.9267 39.3401 43.0692C41.2279 41.2116 42.2888 38.6919 42.2892 36.0645C42.2888 33.437 41.2279 30.9174 39.3401 29.0598C37.4522 27.2022 34.8919 26.1589 32.2225 26.1593V26.1577ZM35.1102 29.1324C35.5853 29.1322 36.0558 29.2241 36.4948 29.403C36.9338 29.5818 37.3327 29.844 37.6686 30.1746C38.0046 30.5052 38.271 30.8978 38.4527 31.3298C38.6344 31.7618 38.7279 32.2248 38.7277 32.6924C38.7272 33.6361 38.3459 34.541 37.6675 35.2081C36.9891 35.8751 36.0692 36.2496 35.1102 36.2492C34.1518 36.2492 33.2326 35.8748 32.5545 35.2081C31.8765 34.5414 31.4952 33.6371 31.4944 32.6939C31.494 32.2265 31.5871 31.7636 31.7686 31.3316C31.95 30.8996 32.2161 30.507 32.5518 30.1763C32.8874 29.8455 33.286 29.5831 33.7247 29.404C34.1634 29.2249 34.6353 29.1326 35.1102 29.1324Z" fill="#38BDF8"/>
<path d="M43.5575 27.9601C45.5545 27.9601 47.1734 26.367 47.1734 24.4017C47.1734 22.4364 45.5545 20.8433 43.5575 20.8433C41.5605 20.8433 39.9417 22.4364 39.9417 24.4017C39.9417 26.367 41.5605 27.9601 43.5575 27.9601Z" fill="#38BDF8"/>
</g>
<defs>
<clipPath id="clip0_710_2572">
<rect width="64" height="64" fill="white"/>
</clipPath>
</defs>
</svg>
