<svg width="64" height="64" viewBox="0 0 64 64" fill="none" xmlns="http://www.w3.org/2000/svg">
<g clip-path="url(#clip0_718_2576)">
<mask id="path-1-inside-1_718_2576" fill="white">
<path fill-rule="evenodd" clip-rule="evenodd" d="M10.9412 3.7636C13.5346 3.18724 16.6234 3 20.1955 3H25.3711C28.5804 3 31.5774 4.60392 33.3576 7.27423L35.9572 11.1738C36.5507 12.0638 37.5496 12.5985 38.6195 12.5985H54.7944C59.9056 12.5985 64.0483 16.6336 63.9997 21.8298C63.9415 28.0176 63.9904 34.2078 63.9904 40.3959C63.9904 43.9679 63.8032 47.0567 63.2267 49.6502C62.6425 52.2802 61.6161 54.5925 59.8039 56.4047C57.9916 58.2169 55.6794 59.2433 53.0494 59.8275C50.4558 60.4041 47.367 60.5913 43.7951 60.5913H20.1955C16.6234 60.5913 13.5346 60.4041 10.9412 59.8275C8.31131 59.2433 5.99883 58.2169 4.18662 56.4047C2.37445 54.5925 1.34817 52.2802 0.763719 49.6502C0.187358 47.0567 0.00012207 43.9679 0.00012207 40.3959V23.1953C0.00012207 19.6233 0.187358 16.5345 0.763719 13.941C1.34817 11.3112 2.37445 8.99871 4.18662 7.1865C5.99883 5.37433 8.31131 4.34805 10.9412 3.7636Z"/>
</mask>
<path fill-rule="evenodd" clip-rule="evenodd" d="M10.9412 3.7636C13.5346 3.18724 16.6234 3 20.1955 3H25.3711C28.5804 3 31.5774 4.60392 33.3576 7.27423L35.9572 11.1738C36.5507 12.0638 37.5496 12.5985 38.6195 12.5985H54.7944C59.9056 12.5985 64.0483 16.6336 63.9997 21.8298C63.9415 28.0176 63.9904 34.2078 63.9904 40.3959C63.9904 43.9679 63.8032 47.0567 63.2267 49.6502C62.6425 52.2802 61.6161 54.5925 59.8039 56.4047C57.9916 58.2169 55.6794 59.2433 53.0494 59.8275C50.4558 60.4041 47.367 60.5913 43.7951 60.5913H20.1955C16.6234 60.5913 13.5346 60.4041 10.9412 59.8275C8.31131 59.2433 5.99883 58.2169 4.18662 56.4047C2.37445 54.5925 1.34817 52.2802 0.763719 49.6502C0.187358 47.0567 0.00012207 43.9679 0.00012207 40.3959V23.1953C0.00012207 19.6233 0.187358 16.5345 0.763719 13.941C1.34817 11.3112 2.37445 8.99871 4.18662 7.1865C5.99883 5.37433 8.31131 4.34805 10.9412 3.7636Z" stroke="#9A3412" stroke-width="12" mask="url(#path-1-inside-1_718_2576)"/>
<path d="M43.573 24.2291C40.646 19.9791 34.917 18.7501 30.505 21.4271L23.041 26.1721C20.999 27.4531 19.598 29.5371 19.187 31.9061C18.822 33.8751 19.14 35.9111 20.078 37.6821C19.437 38.6461 19.005 39.7341 18.812 40.8801C18.385 43.2861 18.942 45.7651 20.359 47.7601C23.291 52.0001 29.005 53.2341 33.427 50.5881L40.896 45.8381C42.927 44.5571 44.323 42.4731 44.735 40.1041C45.094 38.1401 44.777 36.1091 43.839 34.3491C45.823 31.2341 45.719 27.2291 43.573 24.2291ZM29.76 48.1721C27.359 48.7971 24.822 47.8541 23.411 45.8131C22.546 44.6151 22.229 43.1361 22.479 41.6671L22.625 40.9591L22.76 40.5211L23.161 40.7871C24.041 41.4541 25.026 41.9331 26.078 42.2561L26.349 42.3501L26.318 42.6161C26.292 42.9861 26.401 43.4021 26.615 43.7201C27.053 44.3501 27.813 44.6521 28.547 44.4541C28.708 44.4021 28.865 44.3501 29 44.2661L36.438 39.5211C36.813 39.2811 37.053 38.9221 37.146 38.4951C37.229 38.0521 37.12 37.5991 36.88 37.2401C36.437 36.6251 35.682 36.3491 34.948 36.5321C34.787 36.5891 34.615 36.6521 34.479 36.7351L31.666 38.5211C29.005 40.1041 25.567 39.3601 23.801 36.8131C22.942 35.6151 22.603 34.1201 22.863 32.6671C23.123 31.2291 23.983 29.9691 25.228 29.1981L32.65 24.4531C33.119 24.1611 33.624 23.9481 34.171 23.7861C36.572 23.1611 39.103 24.1041 40.52 26.1351C41.52 27.5411 41.801 29.3381 41.28 30.9841L41.145 31.4271L40.76 31.1611C39.869 30.5101 38.88 30.0151 37.828 29.6921L37.562 29.6141L37.588 29.3481C37.614 28.9571 37.505 28.5461 37.291 28.2281C36.853 27.5981 36.093 27.3321 35.359 27.5201C35.198 27.5721 35.041 27.6241 34.906 27.7081L27.453 32.4941C27.078 32.7441 26.838 33.0931 26.76 33.5301C26.682 33.9571 26.786 34.4261 27.026 34.7701C27.453 35.4001 28.229 35.6661 28.948 35.4781C29.12 35.4261 29.281 35.3741 29.412 35.2901L32.256 33.4771C32.72 33.1701 33.24 32.9461 33.772 32.8001C36.189 32.1701 38.71 33.1181 40.121 35.1591C40.986 36.3571 41.319 37.8361 41.079 39.2891C40.829 40.7271 39.98 41.9871 38.746 42.7581L31.308 47.4921C30.824 47.7841 30.303 48.0131 29.761 48.1691L29.76 48.1721Z" fill="#FB923C"/>
</g>
<defs>
<clipPath id="clip0_718_2576">
<rect width="64" height="64" fill="white"/>
</clipPath>
</defs>
</svg>
