<svg width="64" height="64" viewBox="0 0 64 64" fill="none" xmlns="http://www.w3.org/2000/svg">
<g clip-path="url(#clip0_712_2878)">
<mask id="path-1-inside-1_712_2878" fill="white">
<path fill-rule="evenodd" clip-rule="evenodd" d="M10.9412 3.7636C13.5346 3.18724 16.6234 3 20.1955 3H25.3711C28.5804 3 31.5774 4.60392 33.3576 7.27423L35.9572 11.1738C36.5507 12.0638 37.5496 12.5985 38.6195 12.5985H54.7944C59.9056 12.5985 64.0483 16.6336 63.9997 21.8298C63.9415 28.0176 63.9904 34.2078 63.9904 40.3959C63.9904 43.9679 63.8032 47.0567 63.2267 49.6502C62.6425 52.2802 61.6161 54.5925 59.8039 56.4047C57.9917 58.2169 55.6794 59.2433 53.0494 59.8275C50.4558 60.4041 47.367 60.5913 43.7951 60.5913H20.1955C16.6234 60.5913 13.5346 60.4041 10.9412 59.8275C8.31131 59.2433 5.99883 58.2169 4.18662 56.4047C2.37445 54.5925 1.34817 52.2802 0.763719 49.6502C0.187358 47.0567 0.00012207 43.9679 0.00012207 40.3959V23.1953C0.00012207 19.6233 0.187358 16.5345 0.763719 13.941C1.34817 11.3112 2.37445 8.99871 4.18662 7.1865C5.99883 5.37433 8.31131 4.34805 10.9412 3.7636Z"/>
</mask>
<path fill-rule="evenodd" clip-rule="evenodd" d="M10.9412 3.7636C13.5346 3.18724 16.6234 3 20.1955 3H25.3711C28.5804 3 31.5774 4.60392 33.3576 7.27423L35.9572 11.1738C36.5507 12.0638 37.5496 12.5985 38.6195 12.5985H54.7944C59.9056 12.5985 64.0483 16.6336 63.9997 21.8298C63.9415 28.0176 63.9904 34.2078 63.9904 40.3959C63.9904 43.9679 63.8032 47.0567 63.2267 49.6502C62.6425 52.2802 61.6161 54.5925 59.8039 56.4047C57.9917 58.2169 55.6794 59.2433 53.0494 59.8275C50.4558 60.4041 47.367 60.5913 43.7951 60.5913H20.1955C16.6234 60.5913 13.5346 60.4041 10.9412 59.8275C8.31131 59.2433 5.99883 58.2169 4.18662 56.4047C2.37445 54.5925 1.34817 52.2802 0.763719 49.6502C0.187358 47.0567 0.00012207 43.9679 0.00012207 40.3959V23.1953C0.00012207 19.6233 0.187358 16.5345 0.763719 13.941C1.34817 11.3112 2.37445 8.99871 4.18662 7.1865C5.99883 5.37433 8.31131 4.34805 10.9412 3.7636Z" stroke="#9A3412" stroke-width="12" mask="url(#path-1-inside-1_712_2878)"/>
<path d="M44.5714 23H19.4286C17.4857 23 16 24.4857 16 26.4286V47C16 48.9429 17.4857 50.4286 19.4286 50.4286H44.5714C46.5143 50.4286 48 48.9429 48 47V26.4286C48 24.4857 46.5143 23 44.5714 23ZM27.5429 27.1143C27.6571 27 27.6571 26.8857 27.7714 26.7714C28.2286 26.3143 28.9143 26.3143 29.3714 26.7714C29.4857 26.8857 29.6 27 29.6 27.1143C29.7143 27.2286 29.7143 27.4571 29.7143 27.5714C29.7143 27.6857 29.7143 27.9143 29.6 28.0286C29.4857 28.1429 29.4857 28.2571 29.3714 28.3714C29.1429 28.6 28.9143 28.7143 28.5714 28.7143C28.4571 28.7143 28.2286 28.7143 28.1143 28.6C28 28.4857 27.8857 28.4857 27.7714 28.3714C27.6571 28.2571 27.5429 28.1429 27.5429 28.0286C27.4286 27.9143 27.4286 27.6857 27.4286 27.5714C27.4286 27.4571 27.4286 27.2286 27.5429 27.1143ZM24.1143 27.1143C24.2286 27 24.2286 26.8857 24.3429 26.7714C24.4571 26.6571 24.5714 26.5429 24.6857 26.5429C25.1429 26.3143 25.6 26.4286 25.9429 26.7714C26.0571 26.8857 26.1714 27 26.1714 27.1143C26.2857 27.2286 26.2857 27.4571 26.2857 27.5714C26.2857 27.9143 26.1714 28.1429 25.9429 28.3714C25.7143 28.6 25.4857 28.7143 25.1429 28.7143C24.8 28.7143 24.5714 28.6 24.3429 28.3714C24.1143 28.1429 24 27.9143 24 27.5714C24 27.4571 24 27.2286 24.1143 27.1143ZM20.9143 26.7714L21.0286 26.6571C21.1429 26.6571 21.1429 26.5429 21.2571 26.5429C21.3714 26.4286 21.3714 26.4286 21.4857 26.4286C21.6 26.4286 21.8286 26.4286 21.9429 26.4286C22.0571 26.4286 22.0571 26.4286 22.1714 26.5429C22.2857 26.5429 22.2857 26.6571 22.4 26.6571L22.5143 26.7714C22.6286 26.8857 22.7429 27 22.7429 27.1143C22.8571 27.2286 22.8571 27.4571 22.8571 27.5714C22.8571 27.6857 22.8571 27.9143 22.7429 28.0286C22.7429 28.1429 22.6286 28.2571 22.5143 28.3714C22.2857 28.6 22.0571 28.7143 21.7143 28.7143C21.3714 28.7143 21.1429 28.6 20.9143 28.3714C20.6857 28.1429 20.5714 27.9143 20.5714 27.5714C20.5714 27.2286 20.6857 27 20.9143 26.7714ZM33.1429 44.7143C33.1429 45.4 32.6857 45.8571 32 45.8571H20.5714C19.8857 45.8571 19.4286 45.4 19.4286 44.7143V43.8L27.3143 40.2571L33.1429 44.1429V44.7143ZM33.1429 41.4L28.1143 37.9714C27.7714 37.7429 27.4286 37.7429 26.9714 37.8571L19.4286 41.2857V33.2857C19.4286 32.6 19.8857 32.1429 20.5714 32.1429H32C32.6857 32.1429 33.1429 32.6 33.1429 33.2857V41.4ZM44.5714 44.7143C44.5714 45.4 44.1143 45.8571 43.4286 45.8571H36.5714C35.8857 45.8571 35.4286 45.4 35.4286 44.7143V41.2857C35.4286 40.6 35.8857 40.1429 36.5714 40.1429H43.4286C44.1143 40.1429 44.5714 40.6 44.5714 41.2857V44.7143ZM43.4286 39H40C39.3143 39 38.8571 38.5429 38.8571 37.8571C38.8571 37.1714 39.3143 36.7143 40 36.7143H43.4286C44.1143 36.7143 44.5714 37.1714 44.5714 37.8571C44.5714 38.5429 44.1143 39 43.4286 39ZM43.4286 35.5714H36.5714C35.8857 35.5714 35.4286 35.1143 35.4286 34.4286C35.4286 33.7429 35.8857 33.2857 36.5714 33.2857H43.4286C44.1143 33.2857 44.5714 33.7429 44.5714 34.4286C44.5714 35.1143 44.1143 35.5714 43.4286 35.5714Z" fill="#FB923C"/>
<path d="M24.8 35.9143C24.3429 35.4571 23.6571 35.4571 23.2 35.9143C23.0857 36.0286 22.9714 36.1429 22.9714 36.2571C22.8571 36.3714 22.8571 36.6 22.8571 36.7143C22.8571 37.0571 22.9714 37.2857 23.2 37.5143C23.3143 37.6286 23.4286 37.7429 23.5429 37.7429C23.6571 37.7429 23.8857 37.8571 24 37.8571C24.3429 37.8571 24.5714 37.7429 24.8 37.5143C25.0286 37.2857 25.1429 37.0571 25.1429 36.7143C25.1429 36.6 25.1429 36.3714 25.0286 36.2571C24.9143 36.1429 24.9143 36.0286 24.8 35.9143Z" fill="#FB923C"/>
</g>
<defs>
<clipPath id="clip0_712_2878">
<rect width="64" height="64" fill="white"/>
</clipPath>
</defs>
</svg>
