<svg width="64" height="64" viewBox="0 0 64 64" fill="none" xmlns="http://www.w3.org/2000/svg">
<g clip-path="url(#clip0_709_5032)">
<mask id="path-1-inside-1_709_5032" fill="white">
<path fill-rule="evenodd" clip-rule="evenodd" d="M10.941 3.7636C13.5345 3.18724 16.6233 3 20.1953 3H25.371C28.5803 3 31.5773 4.60392 33.3575 7.27423L35.9571 11.1738C36.5506 12.0638 37.5495 12.5985 38.6194 12.5985H54.7943C59.9055 12.5985 64.0482 16.6336 63.9996 21.8298C63.9413 28.0176 63.9903 34.2078 63.9903 40.3959C63.9903 43.9679 63.8031 47.0567 63.2266 49.6502C62.6423 52.2802 61.6159 54.5925 59.8037 56.4047C57.9915 58.2169 55.6792 59.2433 53.0492 59.8275C50.4557 60.4041 47.3669 60.5913 43.795 60.5913H20.1953C16.6233 60.5913 13.5345 60.4041 10.941 59.8275C8.31119 59.2433 5.99871 58.2169 4.1865 56.4047C2.37433 54.5925 1.34805 52.2802 0.763596 49.6502C0.187236 47.0567 0 43.9679 0 40.3959V23.1953C0 19.6233 0.187236 16.5345 0.763596 13.941C1.34805 11.3112 2.37433 8.99871 4.1865 7.1865C5.99871 5.37433 8.31119 4.34805 10.941 3.7636Z"/>
</mask>
<path fill-rule="evenodd" clip-rule="evenodd" d="M10.941 3.7636C13.5345 3.18724 16.6233 3 20.1953 3H25.371C28.5803 3 31.5773 4.60392 33.3575 7.27423L35.9571 11.1738C36.5506 12.0638 37.5495 12.5985 38.6194 12.5985H54.7943C59.9055 12.5985 64.0482 16.6336 63.9996 21.8298C63.9413 28.0176 63.9903 34.2078 63.9903 40.3959C63.9903 43.9679 63.8031 47.0567 63.2266 49.6502C62.6423 52.2802 61.6159 54.5925 59.8037 56.4047C57.9915 58.2169 55.6792 59.2433 53.0492 59.8275C50.4557 60.4041 47.3669 60.5913 43.795 60.5913H20.1953C16.6233 60.5913 13.5345 60.4041 10.941 59.8275C8.31119 59.2433 5.99871 58.2169 4.1865 56.4047C2.37433 54.5925 1.34805 52.2802 0.763596 49.6502C0.187236 47.0567 0 43.9679 0 40.3959V23.1953C0 19.6233 0.187236 16.5345 0.763596 13.941C1.34805 11.3112 2.37433 8.99871 4.1865 7.1865C5.99871 5.37433 8.31119 4.34805 10.941 3.7636Z" stroke="#495057" stroke-width="12" mask="url(#path-1-inside-1_709_5032)"/>
<g clip-path="url(#clip1_709_5032)">
<path d="M48 26.2338C48 25.3793 47.8932 24.6316 47.5728 23.7771C46.8251 22.2817 45.4365 21.2136 43.8344 21C43.6207 21 43.4071 21 43.1935 21C43.0867 21 43.0867 21 42.9799 21C42.8731 21 42.7662 21 42.6594 21H25.0356C24.9288 21.1068 24.8219 21.1068 24.7151 21.2136C24.7151 21.1068 24.6083 21.1068 24.5015 21.1068C21.5108 21.1068 19.1609 23.4567 19.1609 26.4474C19.1609 27.1951 19.3746 27.8359 19.8018 28.4768C20.6563 29.8653 22.1517 30.7198 23.8606 30.7198H25.1424L16.8111 43.3236C15.8498 44.8189 15.743 46.6347 16.4907 48.2369C17.2383 49.7322 18.6269 50.8004 20.2291 51.014C20.4427 51.014 20.6563 51.014 20.8699 51.014H38.387H38.4938C38.6006 51.014 38.8142 51.014 38.921 51.014C41.9118 51.014 44.2616 48.6641 44.2616 45.6734C44.2616 45.0325 43.8344 44.6053 43.1935 44.6053H36.678C36.678 44.6053 36.678 44.4985 36.7848 44.4985L47.2523 28.7972C47.6796 28.1564 47.8932 27.5155 48 26.7678C48 26.661 48 26.5542 48 26.4474C48 26.3406 48 26.3406 48 26.2338ZM29.8421 39.2647H26.6377C25.9969 39.2647 25.5696 38.8375 25.5696 38.1966C25.5696 37.5558 25.9969 37.1285 26.6377 37.1285H29.8421C30.4829 37.1285 30.9102 37.5558 30.9102 38.1966C30.9102 38.8375 30.4829 39.2647 29.8421 39.2647ZM34.1145 36.0604H28.774C28.1331 36.0604 27.7059 35.6331 27.7059 34.9923C27.7059 34.3514 28.1331 33.9242 28.774 33.9242H34.1145C34.7554 33.9242 35.1826 34.3514 35.1826 34.9923C35.1826 35.6331 34.7554 36.0604 34.1145 36.0604ZM41.9118 46.7415C41.4845 48.0233 40.3096 48.8778 38.921 48.8778C38.8142 48.8778 38.7074 48.8778 38.4938 48.8778C37.6393 48.7709 36.8916 48.2369 36.4644 47.3824C36.3576 47.1688 36.2508 46.9551 36.2508 46.7415H41.9118ZM37.9597 28.5836H23.8606C22.8993 28.5836 22.0449 28.1564 21.6176 27.4087C21.404 27.0882 21.2972 26.7678 21.2972 26.4474C21.2972 24.6316 22.6857 23.243 24.5015 23.243C24.6083 23.243 24.7151 23.243 24.7151 23.1362C24.8219 23.243 24.9288 23.243 25.0356 23.243H38.6006C36.7848 25.5929 37.5325 27.7291 37.9597 28.5836Z" fill="#CED4DA"/>
</g>
</g>
<defs>
<clipPath id="clip0_709_5032">
<rect width="64" height="64" fill="white"/>
</clipPath>
<clipPath id="clip1_709_5032">
<rect width="32" height="32" fill="white" transform="translate(16 20)"/>
</clipPath>
</defs>
</svg>
