<svg width="64" height="64" viewBox="0 0 64 64" fill="none" xmlns="http://www.w3.org/2000/svg">
<g clip-path="url(#clip0_712_2521)">
<path fill-rule="evenodd" clip-rule="evenodd" d="M10.9409 3.7636C13.5344 3.18724 16.6232 3 20.1952 3H25.3708C28.5802 3 31.5772 4.60392 33.3574 7.27423L35.957 11.1738C36.5505 12.0638 37.5494 12.5985 38.6193 12.5985H54.7941C59.9054 12.5985 64.0481 16.6336 63.9995 21.8298C63.9412 28.0176 63.9902 34.2078 63.9902 40.3959C63.9902 43.9679 63.803 47.0567 63.2265 49.6502C62.6422 52.2802 61.6158 54.5925 59.8036 56.4047C57.9914 58.2169 55.6791 59.2433 53.0491 59.8275C50.4556 60.4041 47.3668 60.5913 43.7948 60.5913H20.1952C16.6232 60.5913 13.5344 60.4041 10.9409 59.8275C8.31107 59.2433 5.99858 58.2169 4.18638 56.4047C2.37421 54.5925 1.34793 52.2802 0.763475 49.6502C0.187114 47.0567 -0.00012207 43.9679 -0.00012207 40.3959V23.1953C-0.00012207 19.6233 0.187114 16.5345 0.763475 13.941C1.34793 11.3112 2.37421 8.99871 4.18638 7.1865C5.99858 5.37433 8.31107 4.34805 10.9409 3.7636Z" fill="#9A3412"/>
<path d="M16 23.2857C16 22.0234 17.0234 21 18.2857 21H45.7143C46.9767 21 48 22.0234 48 23.2857V27.8571C48 29.1195 46.9767 30.1429 45.7143 30.1429H18.2857C17.0234 30.1429 16 29.1195 16 27.8571V23.2857Z" fill="#FB923C"/>
<path d="M16 37C16 35.7376 17.0234 34.7143 18.2857 34.7143H32C33.2624 34.7143 34.2857 35.7376 34.2857 37V50.7143C34.2857 51.9767 33.2624 53 32 53H18.2857C17.0234 53 16 51.9767 16 50.7143V37Z" fill="#FB923C"/>
<path d="M41.1429 34.7143C39.8805 34.7143 38.8571 35.7376 38.8571 37V50.7143C38.8571 51.9767 39.8805 53 41.1429 53H45.7143C46.9767 53 48 51.9767 48 50.7143V37C48 35.7376 46.9767 34.7143 45.7143 34.7143H41.1429Z" fill="#FB923C"/>
</g>
<defs>
<clipPath id="clip0_712_2521">
<rect width="64" height="64" fill="white"/>
</clipPath>
</defs>
</svg>
