<svg width="64" height="64" viewBox="0 0 64 64" fill="none" xmlns="http://www.w3.org/2000/svg">
<g clip-path="url(#clip0_712_2721)">
<path fill-rule="evenodd" clip-rule="evenodd" d="M10.941 3.7636C13.5345 3.18724 16.6233 3 20.1953 3H25.371C28.5803 3 31.5773 4.60392 33.3575 7.27423L35.9571 11.1738C36.5506 12.0638 37.5495 12.5985 38.6194 12.5985H54.7943C59.9055 12.5985 64.0482 16.6336 63.9996 21.8298C63.9413 28.0176 63.9903 34.2078 63.9903 40.3959C63.9903 43.9679 63.8031 47.0567 63.2266 49.6502C62.6423 52.2802 61.6159 54.5925 59.8037 56.4047C57.9915 58.2169 55.6792 59.2433 53.0492 59.8275C50.4557 60.4041 47.3669 60.5913 43.795 60.5913H20.1953C16.6233 60.5913 13.5345 60.4041 10.941 59.8275C8.31119 59.2433 5.99871 58.2169 4.1865 56.4047C2.37433 54.5925 1.34805 52.2802 0.763597 49.6502C0.187236 47.0567 0 43.9679 0 40.3959V23.1953C0 19.6233 0.187236 16.5345 0.763597 13.941C1.34805 11.3112 2.37433 8.99871 4.1865 7.1865C5.99871 5.37433 8.31119 4.34805 10.941 3.7636Z" fill="#075985"/>
<g clip-path="url(#clip1_712_2721)">
<path d="M36.6 37.4004L34.7999 39.2004L36.6 41.0004L34.2 43.4004L42.7999 52.0004C43.9999 53.2004 45.8 53.2004 47 52.0004C48.2 50.8004 48.2 49.0004 47 47.8004L36.6 37.4004ZM44.4 51.0004C43.6 51.0004 42.7999 50.4004 42.7999 49.4004C42.7999 48.6004 43.4 47.8004 44.4 47.8004C45.4 47.8004 46 48.4004 46 49.4004C46 50.4004 45.4 51.0004 44.4 51.0004Z" fill="#38BDF8"/>
<path d="M23.2 37L25 35.8L28 32.4L29.8 34.2L31.6 32.4L31.4 32.2C31.8 31.2 32 30.2 32 29C32 24.6 28.4 21 24 21C22.8 21 21.8 21.2 20.8 21.6L26.6 27.4L22.4 31.6L16.6 25.8C16.2 26.8 16 27.8 16 29C16 33.2 19.2 36.4 23.2 37Z" fill="#38BDF8"/>
<path d="M32.0001 42.6002L33.8001 41.0002L32.0001 39.2002L43.4001 27.8002L45.8001 27.0002L48.0001 22.6002L46.6001 21.2002L42.0001 23.2002L41.0001 25.6002L29.8001 37.0002L28.0001 35.2002L26.4001 37.0002C26.4001 37.0002 28.0001 38.2002 26.2001 40.0002C25.2001 41.0002 23.6001 39.8002 20.6001 42.8002C19.6001 43.8002 16.4001 47.0002 16.4001 47.0002C16.4001 47.0002 15.2001 49.0002 17.6001 51.4002C20.0001 53.8002 22.0001 52.6002 22.0001 52.6002C22.0001 52.6002 25.2001 49.4002 26.2001 48.4002C29.0001 45.6002 28.0001 43.8002 28.8001 43.0002C30.6001 41.2002 32.0001 42.6002 32.0001 42.6002ZM25.8001 41.8002L27.2001 43.2002L19.6001 50.8002L18.2001 49.4002L25.8001 41.8002Z" fill="#38BDF8"/>
</g>
</g>
<defs>
<clipPath id="clip0_712_2721">
<rect width="64" height="64" fill="white"/>
</clipPath>
<clipPath id="clip1_712_2721">
<rect width="32" height="32" fill="white" transform="translate(16 21)"/>
</clipPath>
</defs>
</svg>
