<svg width="63" height="63" viewBox="0 0 63 63" fill="none" xmlns="http://www.w3.org/2000/svg">
<g clip-path="url(#clip0_715_3179)">
<path fill-rule="evenodd" clip-rule="evenodd" d="M10.77 3.70479C13.3229 3.13744 16.3634 2.95312 19.8797 2.95312H24.9744C28.1336 2.95312 31.0838 4.53198 32.8362 7.16057L35.3952 10.9992C35.9794 11.8753 36.9627 12.4017 38.0159 12.4017H53.938C58.9693 12.4017 63.0473 16.3737 62.9995 21.4887C62.9421 27.5799 62.9903 33.6733 62.9903 39.7647C62.9903 43.2809 62.8061 46.3214 62.2385 48.8744C61.6634 51.4633 60.6531 53.7395 58.8692 55.5234C57.0853 57.3073 54.8091 58.3176 52.2202 58.8927C49.6672 59.4603 46.6267 59.6445 43.1105 59.6445H19.8797C16.3634 59.6445 13.3229 59.4603 10.77 58.8927C8.1812 58.3176 5.90486 57.3073 4.12097 55.5234C2.33711 53.7395 1.32687 51.4633 0.751543 48.8744C0.184188 46.3214 -0.00012207 43.2809 -0.00012207 39.7647V22.8329C-0.00012207 19.3167 0.184188 16.2762 0.751543 13.7232C1.32687 11.1345 2.33711 8.8581 4.12097 7.07421C5.90486 5.29035 8.1812 4.28011 10.77 3.70479Z" fill="#9A3412"/>
<path d="M45.0495 20.0022C44.1159 20.075 41.6192 21.9299 38.9948 24.5543L29.0937 34.4554C29.5367 34.6197 29.9497 34.853 30.2917 35.1949C30.6146 35.5179 30.8355 35.9057 31 36.3199L40.8802 26.4397C43.8795 23.4404 45.8713 20.6053 45.349 20.083C45.2837 20.0177 45.1828 19.9918 45.0495 20.0022ZM31.026 26.0882C22.1753 26.0882 15 31.6633 15 38.5387C15 45.4141 22.1753 50.9867 31.026 50.9866C34.5698 50.9866 37.3784 50.2532 39.9818 49.1767C41.7864 48.4305 43.5568 47.0408 43.8568 45.2027C43.9288 44.7612 43.73 43.8633 43.0833 42.8043C42.1541 41.2826 40.4784 39.5199 40.5417 39.0179C40.6455 38.1939 41.8333 38.7819 43.4531 39.0048C45.0729 39.2278 47 40.4194 47 36.6142C47 34.5672 44.9262 31.6819 41.6432 29.4475L32.0964 38.9944C32.0952 39.0044 32.0999 39.0153 32.099 39.0257C31.9226 40.4572 31.2472 41.781 30.1823 42.846C28.6148 44.4134 26.9854 44.63 25.5833 44.9397C24.1813 45.2494 22.9818 45.3642 22.9818 45.3642L19.7057 45.6871L20.0729 42.4163C20.0729 42.4163 20.2018 41.23 20.526 39.8434C20.8503 38.4568 21.0975 36.8475 22.6406 35.3043C23.6792 34.2657 24.9686 33.615 26.3594 33.4189L33.4948 26.2809C32.6883 26.1674 31.8685 26.0882 31.026 26.0882ZM27.3594 36.0179C26.4237 35.9503 25.3603 36.3555 24.526 37.1897C23.1912 38.5245 22.724 42.7106 22.724 42.7106C22.724 42.7106 26.9621 42.2954 28.2969 40.9606C29.6317 39.6258 29.8695 37.6999 28.8281 36.6585C28.4376 36.268 27.9208 36.0584 27.3594 36.0179Z" fill="#FB923C"/>
</g>
<defs>
<clipPath id="clip0_715_3179">
<rect width="63" height="63" fill="white"/>
</clipPath>
</defs>
</svg>
