<svg width="63" height="63" viewBox="0 0 63 63" fill="none" xmlns="http://www.w3.org/2000/svg">
<g clip-path="url(#clip0_715_2876)">
<mask id="path-1-inside-1_715_2876" fill="white">
<path fill-rule="evenodd" clip-rule="evenodd" d="M10.7701 3.70479C13.323 3.13744 16.3636 2.95312 19.8798 2.95312H24.9746C28.1337 2.95312 31.0839 4.53198 32.8363 7.16057L35.3953 10.9992C35.9795 11.8753 36.9628 12.4017 38.016 12.4017H53.9381C58.9695 12.4017 63.0475 16.3737 62.9996 21.4887C62.9423 27.5799 62.9905 33.6733 62.9905 39.7647C62.9905 43.2809 62.8062 46.3214 62.2387 48.8744C61.6636 51.4633 60.6532 53.7395 58.8693 55.5234C57.0854 57.3073 54.8093 58.3176 52.2203 58.8927C49.6673 59.4603 46.6268 59.6445 43.1107 59.6445H19.8798C16.3636 59.6445 13.323 59.4603 10.7701 58.8927C8.18133 58.3176 5.90498 57.3073 4.12109 55.5234C2.33723 53.7395 1.32699 51.4633 0.751665 48.8744C0.18431 46.3214 0 43.2809 0 39.7647V22.8329C0 19.3167 0.18431 16.2762 0.751665 13.7232C1.32699 11.1345 2.33723 8.8581 4.12109 7.07421C5.90498 5.29035 8.18133 4.28011 10.7701 3.70479Z"/>
</mask>
<path fill-rule="evenodd" clip-rule="evenodd" d="M10.7701 3.70479C13.323 3.13744 16.3636 2.95312 19.8798 2.95312H24.9746C28.1337 2.95312 31.0839 4.53198 32.8363 7.16057L35.3953 10.9992C35.9795 11.8753 36.9628 12.4017 38.016 12.4017H53.9381C58.9695 12.4017 63.0475 16.3737 62.9996 21.4887C62.9423 27.5799 62.9905 33.6733 62.9905 39.7647C62.9905 43.2809 62.8062 46.3214 62.2387 48.8744C61.6636 51.4633 60.6532 53.7395 58.8693 55.5234C57.0854 57.3073 54.8093 58.3176 52.2203 58.8927C49.6673 59.4603 46.6268 59.6445 43.1107 59.6445H19.8798C16.3636 59.6445 13.323 59.4603 10.7701 58.8927C8.18133 58.3176 5.90498 57.3073 4.12109 55.5234C2.33723 53.7395 1.32699 51.4633 0.751665 48.8744C0.18431 46.3214 0 43.2809 0 39.7647V22.8329C0 19.3167 0.18431 16.2762 0.751665 13.7232C1.32699 11.1345 2.33723 8.8581 4.12109 7.07421C5.90498 5.29035 8.18133 4.28011 10.7701 3.70479Z" stroke="#854D0E" stroke-width="12" mask="url(#path-1-inside-1_715_2876)"/>
<path d="M40.7273 31.8182H46.5455C46.9312 31.8182 47.3012 31.6649 47.574 31.3922C47.8468 31.1194 48 30.7494 48 30.3636V24.5455C48 24.1597 47.8468 23.7897 47.574 23.5169C47.3012 23.2442 46.9312 23.0909 46.5455 23.0909H40.7273C40.3415 23.0909 39.9715 23.2442 39.6988 23.5169C39.426 23.7897 39.2727 24.1597 39.2727 24.5455V26H33.4545V28.4C32.5068 28.1083 31.4932 28.1083 30.5455 28.4V20.9091H24.7273V19.4545C24.7273 19.0688 24.574 18.6988 24.3012 18.426C24.0285 18.1532 23.6585 18 23.2727 18H17.4545C17.0688 18 16.6988 18.1532 16.426 18.426C16.1532 18.6988 16 19.0688 16 19.4545V25.2727C16 25.6585 16.1532 26.0285 16.426 26.3012C16.6988 26.574 17.0688 26.7273 17.4545 26.7273H23.2727C23.6585 26.7273 24.0285 26.574 24.3012 26.3012C24.574 26.0285 24.7273 25.6585 24.7273 25.2727V23.8182H27.6364V30.1455C27.0418 30.8375 26.6182 31.6596 26.4 32.5455H24.7273V31.0909C24.7273 30.7051 24.574 30.3352 24.3012 30.0624C24.0285 29.7896 23.6585 29.6364 23.2727 29.6364H17.4545C17.0688 29.6364 16.6988 29.7896 16.426 30.0624C16.1532 30.3352 16 30.7051 16 31.0909V36.9091C16 37.2949 16.1532 37.6648 16.426 37.9376C16.6988 38.2104 17.0688 38.3636 17.4545 38.3636H23.2727C23.6585 38.3636 24.0285 38.2104 24.3012 37.9376C24.574 37.6648 24.7273 37.2949 24.7273 36.9091V35.4545H26.4C26.6182 36.3404 27.0418 37.1625 27.6364 37.8545V44.1818H24.7273V42.7273C24.7273 42.3415 24.574 41.9715 24.3012 41.6988C24.0285 41.426 23.6585 41.2727 23.2727 41.2727H17.4545C17.0688 41.2727 16.6988 41.426 16.426 41.6988C16.1532 41.9715 16 42.3415 16 42.7273V48.5455C16 48.9312 16.1532 49.3012 16.426 49.574C16.6988 49.8468 17.0688 50 17.4545 50H23.2727C23.6585 50 24.0285 49.8468 24.3012 49.574C24.574 49.3012 24.7273 48.9312 24.7273 48.5455V47.0909H30.5455V39.6C31.4932 39.8917 32.5068 39.8917 33.4545 39.6V42H39.2727V43.4545C39.2727 43.8403 39.426 44.2103 39.6988 44.4831C39.9715 44.7558 40.3415 44.9091 40.7273 44.9091H46.5455C46.9312 44.9091 47.3012 44.7558 47.574 44.4831C47.8468 44.2103 48 43.8403 48 43.4545V37.6364C48 37.2506 47.8468 36.8806 47.574 36.6078C47.3012 36.3351 46.9312 36.1818 46.5455 36.1818H40.7273C40.3415 36.1818 39.9715 36.3351 39.6988 36.6078C39.426 36.8806 39.2727 37.2506 39.2727 37.6364V39.0909H36.3636V37.8545C37.3044 36.7909 37.8236 35.42 37.8236 34C37.8236 32.58 37.3044 31.2091 36.3636 30.1455V28.9091H39.2727V30.3636C39.2727 30.7494 39.426 31.1194 39.6988 31.3922C39.9715 31.6649 40.3415 31.8182 40.7273 31.8182Z" fill="#FACC15"/>
</g>
<defs>
<clipPath id="clip0_715_2876">
<rect width="63" height="63" fill="white"/>
</clipPath>
</defs>
</svg>
