<svg width="64" height="64" viewBox="0 0 64 64" fill="none" xmlns="http://www.w3.org/2000/svg">
<g clip-path="url(#clip0_713_2495)">
<path fill-rule="evenodd" clip-rule="evenodd" d="M10.941 3.7636C13.5345 3.18724 16.6233 3 20.1953 3H25.371C28.5803 3 31.5773 4.60392 33.3575 7.27423L35.9571 11.1738C36.5506 12.0638 37.5495 12.5985 38.6194 12.5985H54.7943C59.9055 12.5985 64.0482 16.6336 63.9996 21.8298C63.9413 28.0176 63.9903 34.2078 63.9903 40.3959C63.9903 43.9679 63.8031 47.0567 63.2266 49.6502C62.6423 52.2802 61.6159 54.5925 59.8037 56.4047C57.9915 58.2169 55.6792 59.2433 53.0492 59.8275C50.4557 60.4041 47.3669 60.5913 43.795 60.5913H20.1953C16.6233 60.5913 13.5345 60.4041 10.941 59.8275C8.31119 59.2433 5.99871 58.2169 4.1865 56.4047C2.37433 54.5925 1.34805 52.2802 0.763597 49.6502C0.187236 47.0567 0 43.9679 0 40.3959V23.1953C0 19.6233 0.187236 16.5345 0.763597 13.941C1.34805 11.3112 2.37433 8.99871 4.1865 7.1865C5.99871 5.37433 8.31119 4.34805 10.941 3.7636Z" fill="#991B1B"/>
<path fill-rule="evenodd" clip-rule="evenodd" d="M24.8889 21V53H19.5556C17.5919 53 16 51.4082 16 49.4444V24.5556C16 22.5919 17.5919 21 19.5556 21H24.8889ZM44.4444 21C46.4082 21 48 22.5919 48 24.5556V49.4444C48 51.4082 46.4082 53 44.4444 53H28.4444V21H44.4444ZM40.8889 42.3333H35.5556C34.5737 42.3333 33.7778 43.1292 33.7778 44.1111C33.7778 45.093 34.5737 45.8889 35.5556 45.8889H40.8889C41.8708 45.8889 42.6667 45.093 42.6667 44.1111C42.6667 43.1292 41.8708 42.3333 40.8889 42.3333ZM40.8889 35.2222H35.5556C34.5737 35.2222 33.7778 36.0181 33.7778 37C33.7778 37.9117 34.464 38.6631 35.3482 38.7658L35.5556 38.7778H40.8889C41.8708 38.7778 42.6667 37.9819 42.6667 37C42.6667 36.0181 41.8708 35.2222 40.8889 35.2222ZM40.8889 28.1111H35.5556C34.5737 28.1111 33.7778 28.9071 33.7778 29.8889C33.7778 30.8707 34.5737 31.6667 35.5556 31.6667H40.8889C41.8708 31.6667 42.6667 30.8707 42.6667 29.8889C42.6667 28.9071 41.8708 28.1111 40.8889 28.1111Z" fill="#F87171"/>
</g>
<defs>
<clipPath id="clip0_713_2495">
<rect width="64" height="64" fill="white"/>
</clipPath>
</defs>
</svg>
