<svg width="64" height="64" viewBox="0 0 64 64" fill="none" xmlns="http://www.w3.org/2000/svg">
<g clip-path="url(#clip0_712_2736)">
<mask id="path-1-inside-1_712_2736" fill="white">
<path fill-rule="evenodd" clip-rule="evenodd" d="M10.941 3.7636C13.5345 3.18724 16.6233 3 20.1953 3H25.371C28.5803 3 31.5773 4.60392 33.3575 7.27423L35.9571 11.1738C36.5506 12.0638 37.5495 12.5985 38.6194 12.5985H54.7943C59.9055 12.5985 64.0482 16.6336 63.9996 21.8298C63.9413 28.0176 63.9903 34.2078 63.9903 40.3959C63.9903 43.9679 63.8031 47.0567 63.2266 49.6502C62.6423 52.2802 61.6159 54.5925 59.8037 56.4047C57.9915 58.2169 55.6792 59.2433 53.0492 59.8275C50.4557 60.4041 47.3669 60.5913 43.795 60.5913H20.1953C16.6233 60.5913 13.5345 60.4041 10.941 59.8275C8.31119 59.2433 5.99871 58.2169 4.1865 56.4047C2.37433 54.5925 1.34805 52.2802 0.763597 49.6502C0.187236 47.0567 0 43.9679 0 40.3959V23.1953C0 19.6233 0.187236 16.5345 0.763597 13.941C1.34805 11.3112 2.37433 8.99871 4.1865 7.1865C5.99871 5.37433 8.31119 4.34805 10.941 3.7636Z"/>
</mask>
<path fill-rule="evenodd" clip-rule="evenodd" d="M10.941 3.7636C13.5345 3.18724 16.6233 3 20.1953 3H25.371C28.5803 3 31.5773 4.60392 33.3575 7.27423L35.9571 11.1738C36.5506 12.0638 37.5495 12.5985 38.6194 12.5985H54.7943C59.9055 12.5985 64.0482 16.6336 63.9996 21.8298C63.9413 28.0176 63.9903 34.2078 63.9903 40.3959C63.9903 43.9679 63.8031 47.0567 63.2266 49.6502C62.6423 52.2802 61.6159 54.5925 59.8037 56.4047C57.9915 58.2169 55.6792 59.2433 53.0492 59.8275C50.4557 60.4041 47.3669 60.5913 43.795 60.5913H20.1953C16.6233 60.5913 13.5345 60.4041 10.941 59.8275C8.31119 59.2433 5.99871 58.2169 4.1865 56.4047C2.37433 54.5925 1.34805 52.2802 0.763597 49.6502C0.187236 47.0567 0 43.9679 0 40.3959V23.1953C0 19.6233 0.187236 16.5345 0.763597 13.941C1.34805 11.3112 2.37433 8.99871 4.1865 7.1865C5.99871 5.37433 8.31119 4.34805 10.941 3.7636Z" stroke="#065F46" stroke-width="12" mask="url(#path-1-inside-1_712_2736)"/>
<path d="M33.6 34.4H30.4V39.6H33.6V34.4Z" fill="#34D399"/>
<path d="M35 40C35 40.2652 34.8947 40.5196 34.7071 40.7071C34.5196 40.8946 34.2652 41 34 41H30C29.7348 41 29.4804 40.8946 29.2929 40.7071C29.1054 40.5196 29 40.2652 29 40V38H16V47C16 47.5304 16.2107 48.0391 16.5858 48.4142C16.9609 48.7893 17.4696 49 18 49H46C46.5304 49 47.0391 48.7893 47.4142 48.4142C47.7893 48.0391 48 47.5304 48 47V38H35V40Z" fill="#34D399"/>
<path d="M47.71 31.38L43.62 27.29C43.4337 27.1053 43.1823 27.0011 42.92 27H37.92V25.05C37.9336 24.5246 37.7397 24.0149 37.3804 23.6313C37.0211 23.2476 36.5252 23.0209 36 23H27.84C27.5834 23.0101 27.3313 23.0716 27.0989 23.1808C26.8664 23.2901 26.6582 23.4449 26.4866 23.636C26.3151 23.8272 26.1836 24.0508 26.1 24.2937C26.0164 24.5366 25.9824 24.7937 26 25.05V27H21.08C20.9484 26.9992 20.8179 27.0245 20.6961 27.0742C20.5743 27.124 20.4635 27.1973 20.37 27.29L16.29 31.38C16.1973 31.4734 16.124 31.5843 16.0742 31.7061C16.0245 31.8279 15.9993 31.9584 16 32.09V36H29V34C29 33.7348 29.1054 33.4804 29.2929 33.2929C29.4804 33.1054 29.7348 33 30 33H34C34.2652 33 34.5196 33.1054 34.7071 33.2929C34.8947 33.4804 35 33.7348 35 34V36H48V32.08C47.9989 31.8177 47.8947 31.5663 47.71 31.38ZM36 27H28V25H36V27Z" fill="#34D399"/>
</g>
<defs>
<clipPath id="clip0_712_2736">
<rect width="64" height="64" fill="white"/>
</clipPath>
</defs>
</svg>
