<svg width="63" height="63" viewBox="0 0 63 63" fill="none" xmlns="http://www.w3.org/2000/svg">
<g clip-path="url(#clip0_715_2900)">
<path fill-rule="evenodd" clip-rule="evenodd" d="M10.7701 3.70479C13.323 3.13744 16.3636 2.95312 19.8798 2.95312H24.9746C28.1337 2.95312 31.0839 4.53198 32.8363 7.16057L35.3953 10.9992C35.9795 11.8753 36.9628 12.4017 38.016 12.4017H53.9381C58.9695 12.4017 63.0475 16.3737 62.9996 21.4887C62.9423 27.5799 62.9905 33.6733 62.9905 39.7647C62.9905 43.2809 62.8062 46.3214 62.2387 48.8744C61.6636 51.4633 60.6532 53.7395 58.8693 55.5234C57.0854 57.3073 54.8093 58.3176 52.2203 58.8927C49.6673 59.4603 46.6268 59.6445 43.1107 59.6445H19.8798C16.3636 59.6445 13.323 59.4603 10.7701 58.8927C8.18133 58.3176 5.90498 57.3073 4.12109 55.5234C2.33723 53.7395 1.32699 51.4633 0.751665 48.8744C0.18431 46.3214 0 43.2809 0 39.7647V22.8329C0 19.3167 0.18431 16.2762 0.751665 13.7232C1.32699 11.1345 2.33723 8.8581 4.12109 7.07421C5.90498 5.29035 8.18133 4.28011 10.7701 3.70479Z" fill="#854D0E"/>
<path d="M24.575 19.5844C24.8744 19.9263 25.0257 20.3732 24.9957 20.8267C24.9657 21.2801 24.7568 21.7032 24.415 22.0027L21.3178 24.7136L24.415 27.4246C24.591 27.5709 24.7358 27.7509 24.8411 27.9541C24.9463 28.1573 25.0098 28.3795 25.0279 28.6076C25.0459 28.8357 25.0181 29.0651 24.946 29.2823C24.874 29.4995 24.7592 29.7 24.6085 29.8722C24.4577 30.0443 24.274 30.1845 24.0682 30.2845C23.8624 30.3845 23.6386 30.4423 23.4101 30.4545C23.1816 30.4667 22.953 30.433 22.7378 30.3555C22.5225 30.2779 22.3249 30.158 22.1567 30.0029L17.5852 26.0028C17.4016 25.8419 17.2545 25.6437 17.1537 25.4213C17.053 25.199 17.0009 24.9577 17.0009 24.7136C17.0009 24.4695 17.053 24.2283 17.1537 24.0059C17.2545 23.7836 17.4016 23.5854 17.5852 23.4245L22.1567 19.4244C22.4987 19.125 22.9455 18.9737 23.399 19.0037C23.8525 19.0337 24.2755 19.2426 24.575 19.5844ZM28.854 19.5844C28.5547 19.9263 28.4034 20.3732 28.4334 20.8267C28.4634 21.2801 28.6722 21.7032 29.014 22.0027L32.1112 24.7136L29.014 27.4246C28.8381 27.5709 28.6932 27.7509 28.588 27.9541C28.4827 28.1573 28.4192 28.3795 28.4012 28.6076C28.3832 28.8357 28.411 29.0651 28.483 29.2823C28.5551 29.4995 28.6698 29.7 28.8206 29.8722C28.9714 30.0443 29.1551 30.1845 29.3609 30.2845C29.5667 30.3845 29.7904 30.4423 30.0189 30.4545C30.2474 30.4667 30.476 30.433 30.6913 30.3555C30.9066 30.2779 31.1041 30.158 31.2724 30.0029L35.8439 26.0028C36.0275 25.8419 36.1745 25.6437 36.2753 25.4213C36.3761 25.199 36.4282 24.9577 36.4282 24.7136C36.4282 24.4695 36.3761 24.2283 36.2753 24.0059C36.1745 23.7836 36.0275 23.5854 35.8439 23.4245L31.2724 19.4244C30.9304 19.125 30.4835 18.9737 30.0301 19.0037C29.5766 19.0337 29.1536 19.2426 28.854 19.5844ZM18.7143 33.8567C18.2597 33.8567 17.8236 34.0373 17.5021 34.3588C17.1806 34.6803 17 35.1164 17 35.571C17 36.0257 17.1806 36.4618 17.5021 36.7833C17.8236 37.1048 18.2597 37.2854 18.7143 37.2854H42.7149C43.1696 37.2854 43.6056 37.1048 43.9271 36.7833C44.2486 36.4618 44.4292 36.0257 44.4292 35.571C44.4292 35.1164 44.2486 34.6803 43.9271 34.3588C43.6056 34.0373 43.1696 33.8567 42.7149 33.8567H18.7143ZM17 42.4284C17 41.9737 17.1806 41.5376 17.5021 41.2161C17.8236 40.8946 18.2597 40.714 18.7143 40.714H42.7149C43.1696 40.714 43.6056 40.8946 43.9271 41.2161C44.2486 41.5376 44.4292 41.9737 44.4292 42.4284C44.4292 42.883 44.2486 43.3191 43.9271 43.6406C43.6056 43.9621 43.1696 44.1427 42.7149 44.1427H18.7143C18.2597 44.1427 17.8236 43.9621 17.5021 43.6406C17.1806 43.3191 17 42.883 17 42.4284ZM18.7143 47.5713C18.2597 47.5713 17.8236 47.752 17.5021 48.0735C17.1806 48.395 17 48.831 17 49.2857C17 49.7403 17.1806 50.1764 17.5021 50.4979C17.8236 50.8194 18.2597 51 18.7143 51H33.5718C34.0265 51 34.4626 50.8194 34.784 50.4979C35.1055 50.1764 35.2862 49.7403 35.2862 49.2857C35.2862 48.831 35.1055 48.395 34.784 48.0735C34.4626 47.752 34.0265 47.5713 33.5718 47.5713H18.7143Z" fill="#FACC15"/>
</g>
<defs>
<clipPath id="clip0_715_2900">
<rect width="63" height="63" fill="white"/>
</clipPath>
</defs>
</svg>
