<svg width="64" height="64" viewBox="0 0 64 64" fill="none" xmlns="http://www.w3.org/2000/svg">
<g clip-path="url(#clip0_709_4819)">
<path fill-rule="evenodd" clip-rule="evenodd" d="M10.941 3.7636C13.5345 3.18724 16.6233 3 20.1953 3H25.371C28.5803 3 31.5773 4.60392 33.3575 7.27423L35.9571 11.1738C36.5506 12.0638 37.5495 12.5985 38.6194 12.5985H54.7943C59.9055 12.5985 64.0482 16.6336 63.9996 21.8298C63.9413 28.0176 63.9903 34.2078 63.9903 40.3959C63.9903 43.9679 63.8031 47.0567 63.2266 49.6502C62.6423 52.2802 61.6159 54.5925 59.8037 56.4047C57.9915 58.2169 55.6792 59.2433 53.0492 59.8275C50.4557 60.4041 47.3669 60.5913 43.795 60.5913H20.1953C16.6233 60.5913 13.5345 60.4041 10.941 59.8275C8.31119 59.2433 5.99871 58.2169 4.1865 56.4047C2.37433 54.5925 1.34805 52.2802 0.763597 49.6502C0.187236 47.0567 0 43.9679 0 40.3959V23.1953C0 19.6233 0.187236 16.5345 0.763597 13.941C1.34805 11.3112 2.37433 8.99871 4.1865 7.1865C5.99871 5.37433 8.31119 4.34805 10.941 3.7636Z" fill="#854D0E"/>
<g clip-path="url(#clip1_709_4819)">
<path d="M21.0085 33.9363H26.9924L22.7524 29.6964C21.1365 29.6964 19.8245 28.3844 19.8245 26.7524C19.8245 25.9759 20.133 25.2312 20.6821 24.6821C21.2312 24.133 21.9759 23.8245 22.7524 23.8245C24.3844 23.8245 25.6964 25.1365 25.6964 26.7524L29.9363 30.9924V25.0085C29.3901 24.4572 29.0837 23.7125 29.0837 22.9365C29.0837 22.1605 29.3901 21.4158 29.9363 20.8646C30.2058 20.5907 30.5271 20.3733 30.8814 20.2249C31.2358 20.0764 31.6161 20 32.0003 20C32.3845 20 32.7648 20.0764 33.1191 20.2249C33.4735 20.3733 33.7948 20.5907 34.0642 20.8646C35.2002 22.0005 35.2002 23.8565 34.0642 25.0085V30.9924L38.3202 26.7524C38.3202 25.9759 38.6287 25.2312 39.1777 24.6821C39.7268 24.133 40.4716 23.8245 41.2481 23.8245C42.0247 23.8245 42.7694 24.133 43.3185 24.6821C43.8676 25.2312 44.1761 25.9759 44.1761 26.7524C44.1761 28.3844 42.8641 29.6964 41.2481 29.6964L37.0082 33.9363H42.9921C43.5434 33.3901 44.288 33.0837 45.0641 33.0837C45.8401 33.0837 46.5847 33.3901 47.136 33.9363C48.288 35.0723 48.288 36.9283 47.136 38.0642C46 39.2002 44.1441 39.2002 42.9921 38.0642H37.0082L41.2481 42.3202C42.8641 42.3202 44.1761 43.6162 44.1761 45.2481C44.1761 46.0247 43.8676 46.7694 43.3185 47.3185C42.7694 47.8676 42.0247 48.1761 41.2481 48.1761C39.6162 48.1761 38.3202 46.8641 38.3202 45.2481L34.0642 41.0082V46.9921C35.2002 48.1441 35.2002 50 34.0642 51.136C32.9283 52.288 31.0723 52.288 29.9363 51.136C29.3901 50.5847 29.0837 49.8401 29.0837 49.0641C29.0837 48.288 29.3901 47.5434 29.9363 46.9921V41.0082L25.6964 45.2481C25.6964 46.8641 24.3844 48.1761 22.7524 48.1761C21.9759 48.1761 21.2312 47.8676 20.6821 47.3185C20.133 46.7694 19.8245 46.0247 19.8245 45.2481C19.8245 44.4716 20.133 43.7268 20.6821 43.1777C21.2312 42.6287 21.9759 42.3202 22.7524 42.3202L26.9924 38.0642H21.0085C19.8565 39.2002 18.0005 39.2002 16.8646 38.0642C16.5907 37.7948 16.3733 37.4735 16.2249 37.1191C16.0764 36.7648 16 36.3845 16 36.0003C16 35.6161 16.0764 35.2358 16.2249 34.8814C16.3733 34.5271 16.5907 34.2058 16.8646 33.9363C17.4158 33.3901 18.1605 33.0837 18.9365 33.0837C19.7125 33.0837 20.4572 33.3901 21.0085 33.9363Z" fill="#EAB308"/>
</g>
</g>
<defs>
<clipPath id="clip0_709_4819">
<rect width="64" height="64" fill="white"/>
</clipPath>
<clipPath id="clip1_709_4819">
<rect width="32" height="32" fill="white" transform="translate(16 20)"/>
</clipPath>
</defs>
</svg>
