<svg width="64" height="64" viewBox="0 0 64 64" fill="none" xmlns="http://www.w3.org/2000/svg">
<g clip-path="url(#clip0_711_2503)">
<path fill-rule="evenodd" clip-rule="evenodd" d="M10.941 3.7636C13.5345 3.18724 16.6233 3 20.1953 3H25.371C28.5803 3 31.5773 4.60392 33.3575 7.27423L35.9571 11.1738C36.5506 12.0638 37.5495 12.5985 38.6194 12.5985H54.7943C59.9055 12.5985 64.0482 16.6336 63.9996 21.8298C63.9413 28.0176 63.9903 34.2078 63.9903 40.3959C63.9903 43.9679 63.8031 47.0567 63.2266 49.6502C62.6423 52.2802 61.6159 54.5925 59.8037 56.4047C57.9915 58.2169 55.6792 59.2433 53.0492 59.8275C50.4557 60.4041 47.3669 60.5913 43.795 60.5913H20.1953C16.6233 60.5913 13.5345 60.4041 10.941 59.8275C8.31119 59.2433 5.99871 58.2169 4.1865 56.4047C2.37433 54.5925 1.34805 52.2802 0.763597 49.6502C0.187236 47.0567 0 43.9679 0 40.3959V23.1953C0 19.6233 0.187236 16.5345 0.763597 13.941C1.34805 11.3112 2.37433 8.99871 4.1865 7.1865C5.99871 5.37433 8.31119 4.34805 10.941 3.7636Z" fill="#1E40AF"/>
<path d="M17.6 22H46.4C46.8243 22 47.2313 22.1686 47.5314 22.4686C47.8314 22.7687 48 23.1757 48 23.6V49.2C48 49.6243 47.8314 50.0313 47.5314 50.3314C47.2313 50.6314 46.8243 50.8 46.4 50.8H17.6C17.1757 50.8 16.7687 50.6314 16.4686 50.3314C16.1686 50.0313 16 49.6243 16 49.2V23.6C16 23.1757 16.1686 22.7687 16.4686 22.4686C16.7687 22.1686 17.1757 22 17.6 22ZM24 42V35.6L27.2 38.8L30.4 35.6V42H33.6V30.8H30.4L27.2 34L24 30.8H20.8V42H24ZM41.6 37.2V30.8H38.4V37.2H35.2L40 42L44.8 37.2H41.6Z" fill="#60A5FA"/>
</g>
<defs>
<clipPath id="clip0_711_2503">
<rect width="64" height="64" fill="white"/>
</clipPath>
</defs>
</svg>
