<svg width="64" height="64" viewBox="0 0 64 64" fill="none" xmlns="http://www.w3.org/2000/svg">
<g clip-path="url(#clip0_762_2779)">
<path d="M31.2929 0.707106C31.6834 0.316581 32.3166 0.316582 32.7071 0.707107L62.2929 30.2929C62.9229 30.9229 62.4767 32 61.5858 32H46.7143C46.162 32 45.7143 32.4477 45.7143 33V50.2976C45.7143 50.5811 45.594 50.8511 45.3838 51.0413C41.1582 54.8644 36.9327 59.0685 32.7071 63.2929C32.3166 63.6834 31.6834 63.6834 31.2929 63.2929L0.707106 32.7071C0.316581 32.3166 0.316582 31.6834 0.707107 31.2929L31.2929 0.707106ZM19.3795 31.2967C19.0215 31.6901 19.0378 32.2948 19.4139 32.6709L30.2929 43.5499C30.9229 44.1799 32 43.7337 32 42.8428V33C32 32.4477 32.4477 32 33 32H43.0116C43.8774 32 44.3316 30.9769 43.744 30.3411C40.2415 26.5508 36.4621 22.7988 32.6672 19.3467C32.2887 19.0024 31.7113 19.0024 31.3328 19.3467C27.2192 23.0889 23.1236 27.1833 19.3795 31.2967Z" fill="#10B981"/>
</g>
<defs>
<clipPath id="clip0_762_2779">
<rect width="64" height="64" fill="white"/>
</clipPath>
</defs>
</svg>
