<svg width="64" height="64" viewBox="0 0 64 64" fill="none" xmlns="http://www.w3.org/2000/svg">
<g clip-path="url(#clip0_763_2772)">
<path d="M32 0.0219727C14.198 0.0219727 0.0220032 14.198 0.0220032 32C0.0220032 49.802 14.198 63.99 32 63.99C49.802 63.99 63.978 49.804 63.978 32C63.978 14.196 49.802 0.0219727 32 0.0219727ZM7.4368 37.0778C7.09073 35.3301 9.12197 34.4332 10.382 35.6929L28.3125 53.6175C29.5727 54.8774 28.676 56.9092 26.9279 56.5633C17.1301 54.6243 9.37597 46.8709 7.4368 37.0778ZM37.5616 56.4804C37.5618 56.4802 37.5618 56.4798 37.5616 56.4795L8.30838 27.2166C7.82375 26.7318 7.61538 26.0308 7.79558 25.3694C10.6803 14.782 20.428 6.96797 32 6.96797C39.3966 6.98826 46.3749 10.2306 51.1414 15.7999C51.8249 16.5985 51.6797 17.7892 50.8777 18.4687L50.3814 18.8892C49.476 19.6563 48.1109 19.4638 47.3396 18.562C43.4634 14.0303 37.7653 11.3913 31.728 11.418C23.48 11.3704 16.0817 16.3395 12.9697 23.8887C12.6788 24.5942 12.872 25.398 13.4117 25.9376L37.7884 50.3124C38.3311 50.8551 39.1403 51.0476 39.8469 50.7481C44.9261 48.5953 48.9893 44.3081 50.8112 39.0966C51.2296 37.8997 50.2783 36.73 49.0103 36.73H42.622C41.5174 36.73 40.622 35.8345 40.622 34.73V34.002C40.622 32.8974 41.5174 32.002 42.622 32.002H55.03C56.1346 32.002 57.0383 32.8997 56.9518 34.0009C56.0824 45.0629 48.0611 54.1195 37.5622 56.4815C37.5615 56.4816 37.5611 56.4809 37.5616 56.4804V56.4804Z" fill="#A855F7"/>
</g>
<defs>
<clipPath id="clip0_763_2772">
<rect width="64" height="64" fill="white"/>
</clipPath>
</defs>
</svg>
