<svg width="64" height="64" viewBox="0 0 64 64" fill="none" xmlns="http://www.w3.org/2000/svg">
<path d="M40.6109 20.1831H42.5629L48.1261 14.6199L48.3994 12.258C45.2124 9.44506 41.3609 7.49102 37.2088 6.58045C33.0567 5.66988 28.741 5.83282 24.6693 7.05391C20.5977 8.27501 16.9046 10.5139 13.9388 13.5592C10.9731 16.6044 8.8326 20.3555 7.7196 24.458C8.33937 24.204 9.02591 24.1628 9.67161 24.3409L20.798 22.506C20.798 22.506 21.3641 21.569 21.6569 21.6276C24.041 19.0093 27.3356 17.4013 30.8665 17.1328C34.3974 16.8642 37.8973 17.9555 40.6499 20.1831H40.6109Z" fill="#F44336"/>
<path d="M56.0512 24.4579C54.7725 19.7489 52.1471 15.5156 48.497 12.2773L40.689 20.0854C42.3162 21.415 43.6203 23.0968 44.5029 25.0039C45.3854 26.911 45.8234 28.9936 45.7837 31.0947C45.7837 31.8601 46.4102 32.4667 47.1605 32.6183C48.4906 32.8872 49.7237 33.5421 50.6975 34.5159C52.0007 35.8192 52.7328 37.5867 52.7328 39.4297C52.7328 41.2727 52.0007 43.0403 50.6975 44.3435C49.3943 45.6467 47.6267 46.3788 45.7837 46.3788H31.8854L30.4995 47.7843V56.1194L31.8854 57.5053H45.7837C49.6647 57.5355 53.4524 56.3157 56.5865 54.0264C59.7206 51.737 62.0345 48.4997 63.186 44.7933C64.3376 41.0869 64.2656 37.1083 62.9806 33.446C61.6957 29.7838 59.2661 26.6323 56.0512 24.4579Z" fill="#448AFF"/>
<path d="M17.9674 57.4268H31.8656V46.3004H17.9674C16.9772 46.3002 15.9986 46.0872 15.0979 45.6758L13.1459 46.2809L7.54366 51.8441L7.05566 53.7961C10.1973 56.1684 14.0307 57.4439 17.9674 57.4268Z" fill="#43A047"/>
<path d="M17.9676 21.3341C14.2018 21.3566 10.5371 22.5547 7.48531 24.7611C4.43351 26.9674 2.14702 30.0718 0.945202 33.6408C-0.256617 37.2097 -0.313751 41.0648 0.781782 44.6678C1.87731 48.2707 4.0708 51.4416 7.05588 53.7374L15.1177 45.6756C14.0932 45.2127 13.1963 44.5082 12.5039 43.6226C11.8116 42.7369 11.3444 41.6964 11.1426 40.5905C10.9407 39.4846 11.0102 38.3462 11.3451 37.273C11.6799 36.1998 12.2701 35.2239 13.065 34.429C13.8599 33.6341 14.8358 33.0439 15.909 32.7091C16.9822 32.3742 18.1206 32.3047 19.2265 32.5066C20.3324 32.7084 21.3729 33.1755 22.2585 33.8679C23.5366 34.867 25.5377 35.2556 26.6848 34.1085L30.5543 30.2389C31.5956 29.1976 31.7221 27.5254 30.6704 26.4946C29.3035 25.1551 27.7284 24.0374 26.0013 23.1879C23.5022 21.9586 20.7526 21.3242 17.9676 21.3341Z" fill="#FFC107"/>
</svg>
