<svg width="64" height="64" viewBox="0 0 64 64" fill="none" xmlns="http://www.w3.org/2000/svg">
<g clip-path="url(#clip0_762_2803)">
<path d="M62.7858 29.147L34.8424 1.20565C34.0955 0.460923 33.0648 0 31.9253 0C30.7858 0 29.7551 0.460923 29.0083 1.20565L23.219 7.0056L30.5788 14.3654C31.0483 14.2011 31.5882 14.1072 32.1515 14.1072C34.8594 14.1072 37.0531 16.3009 37.0531 19.0088C37.0531 19.5828 36.9549 20.1312 36.7735 20.6434L36.7842 20.6092L43.873 27.7023C44.3468 27.5337 44.8952 27.4356 45.4649 27.4356C48.1707 27.4356 50.3644 29.6292 50.3644 32.335C50.3644 35.0408 48.1707 37.2345 45.4649 37.2345C42.7591 37.2345 40.5655 35.0408 40.5655 32.335C40.5655 31.6671 40.6999 31.0312 40.9411 30.4508L40.9282 30.4828L35.9971 25.577C35.3664 24.9495 34.2918 25.3963 34.2918 26.2859V41.2803C35.9221 42.1019 37.0211 43.7621 37.0211 45.6783C37.0211 48.3884 34.8232 50.5863 32.1131 50.5863C29.403 50.5863 27.2051 48.3884 27.2051 45.6783C27.2051 44.3254 27.7514 43.1027 28.637 42.215C29.0872 41.7647 29.6228 41.3998 30.2182 41.1438L30.2502 41.131V23.5604C28.4535 22.805 27.2158 21.0573 27.2158 19.0237C27.2158 18.3409 27.3545 17.6922 27.6063 17.1011L27.5935 17.1331L20.3617 9.86716L1.19925 29.0168C0.456655 29.7658 0 30.7965 0 31.936C0 33.0755 0.458789 34.1062 1.20139 34.8552L29.147 62.7922C29.8917 63.5391 30.9224 64 32.0619 64C33.2014 64 34.2299 63.5391 34.9768 62.7922L62.7901 34.9789C63.5369 34.2342 64 33.2014 64 32.064C64 30.9266 63.5369 29.8938 62.7901 29.1491L62.7858 29.147Z" fill="#EF4444"/>
</g>
<defs>
<clipPath id="clip0_762_2803">
<rect width="64" height="64" fill="white"/>
</clipPath>
</defs>
</svg>
