<svg width="64" height="64" viewBox="0 0 64 64" fill="none" xmlns="http://www.w3.org/2000/svg">
<path d="M62.9325 25.3946L62.8462 25.1644L54.1357 2.44354C53.9593 1.9974 53.6456 1.61897 53.2398 1.36301C52.9371 1.16925 52.5932 1.04909 52.2357 1.01217C51.8782 0.975253 51.517 1.0226 51.1811 1.15042C50.8452 1.27823 50.5439 1.48297 50.3014 1.74821C50.0588 2.01344 49.8818 2.33181 49.7845 2.67779L43.9049 20.6779H20.0952L14.2157 2.67779C14.1176 2.33232 13.9402 2.01454 13.6975 1.7498C13.4549 1.48506 13.1537 1.28069 12.8181 1.15297C12.4824 1.02526 12.1216 0.977738 11.7643 1.0142C11.407 1.05067 11.0632 1.17012 10.7603 1.36301C10.3546 1.61899 10.0409 1.99743 9.86464 2.44354L1.15826 25.1686L1.06785 25.3946C-0.185565 28.6704 -0.339963 32.265 0.627935 35.6363C1.59583 39.0076 3.63356 41.9728 6.43385 44.0848L6.46678 44.1097L6.54072 44.1672L19.7912 54.0979L30.3589 62.0851C30.8274 62.439 31.3986 62.6305 31.9859 62.6305C32.5731 62.6305 33.1443 62.439 33.6129 62.0851L44.1805 54.0978L57.5255 44.1095L57.5624 44.0808C60.3626 41.9695 62.4005 39.0053 63.3691 35.6348C64.3377 32.2643 64.1845 28.6704 62.9325 25.3946Z" fill="#E53935"/>
<path d="M62.9325 25.3946L62.8462 25.1644C58.6023 26.0353 54.6035 27.8341 51.1364 30.4319L32.0104 44.8943L44.1886 54.0978L57.5337 44.1095L57.5706 44.0808C60.3693 41.9685 62.4056 39.0037 63.3727 35.6334C64.3398 32.263 64.1853 28.6695 62.9325 25.3946Z" fill="#EF6C00"/>
<path d="M19.7912 54.0979L30.3589 62.0851C30.8274 62.439 31.3986 62.6305 31.9859 62.6305C32.5731 62.6305 33.1443 62.439 33.6129 62.0851L44.1805 54.0978L32.0022 44.8943L19.7912 54.0979Z" fill="#F9A825"/>
<path d="M12.8639 30.4317C9.39805 27.8353 5.40062 26.038 1.15826 25.1686L1.06785 25.3946C-0.185565 28.6704 -0.339963 32.265 0.627935 35.6363C1.59583 39.0076 3.63356 41.9728 6.43385 44.0848L6.46678 44.1097L6.54072 44.1672L19.7912 54.0979L31.9775 44.8943L12.8639 30.4317Z" fill="#EF6C00"/>
</svg>
