<svg width="64" height="64" viewBox="0 0 64 64" fill="none" xmlns="http://www.w3.org/2000/svg">
<path d="M4.84988 29.5241C4.72534 29.5241 4.6942 29.4618 4.75648 29.3684L5.41033 28.5278C5.4726 28.4343 5.62828 28.3721 5.75283 28.3721H16.8684C16.9929 28.3721 17.0241 28.4655 16.9618 28.5589L16.4325 29.3684C16.3702 29.4618 16.2145 29.5552 16.1211 29.5552L4.84988 29.5241ZM0.148348 32.3886C0.023804 32.3886 -0.00733238 32.3263 0.0549396 32.2329L0.708796 31.3923C0.771068 31.2989 0.926748 31.2366 1.05129 31.2366H15.2493C15.3739 31.2366 15.4361 31.33 15.405 31.4234L15.1559 32.1707C15.1248 32.2952 15.0002 32.3575 14.8757 32.3575L0.148348 32.3886ZM7.68326 35.2531C7.55872 35.2531 7.52758 35.1597 7.58985 35.0663L8.02576 34.2879C8.08803 34.1945 8.21257 34.1011 8.33712 34.1011H14.5643C14.6889 34.1011 14.7511 34.1945 14.7511 34.319L14.6889 35.0663C14.6889 35.1909 14.5643 35.2843 14.4709 35.2843L7.68326 35.2531Z" fill="#06B6D4"/>
<path d="M40.0024 28.9638C38.0408 29.462 36.702 29.8356 34.7716 30.3338C34.3045 30.4584 34.2734 30.4895 33.8686 30.0225C33.4016 29.4931 33.0591 29.1506 32.4052 28.8393C30.4437 27.8741 28.5444 28.1543 26.7696 29.3063C24.6524 30.6763 23.5626 32.7002 23.5937 35.2222C23.6249 37.713 25.3374 39.768 27.7971 40.1105C29.9144 40.3907 31.6891 39.6435 33.0902 38.0555C33.3704 37.713 33.6195 37.3394 33.9309 36.9035H27.9216C27.2678 36.9035 27.1121 36.4987 27.3301 35.9694C27.7348 35.0042 28.4821 33.3851 28.918 32.5756C29.0114 32.3888 29.2294 32.0774 29.6964 32.0774H41.0299C40.9676 32.9181 40.9676 33.7588 40.8431 34.5994C40.5006 36.8412 39.6599 38.8962 38.2899 40.7021C36.0481 43.66 33.1214 45.497 29.4162 45.9952C26.3648 46.4 23.5315 45.8084 21.0406 43.9402C18.7365 42.1966 17.4288 39.8926 17.0863 37.0281C16.6816 33.6342 17.6779 30.5829 19.7329 27.9052C21.9435 25.0096 24.8703 23.1725 28.451 22.5187C31.3777 21.9894 34.18 22.3319 36.702 24.0443C38.3522 25.1341 39.5354 26.6286 40.3138 28.4345C40.5006 28.7147 40.376 28.8704 40.0024 28.9638Z" fill="#06B6D4"/>
<path d="M50.3084 46.1818C47.4751 46.1195 44.8908 45.31 42.7113 43.4418C40.8742 41.8539 39.7222 39.8301 39.3486 37.4326C38.7881 33.9142 39.7533 30.8006 41.8706 28.0295C44.1435 25.0405 46.8835 23.4837 50.5887 22.8298C53.7645 22.2694 56.7536 22.5807 59.4624 24.4177C61.9222 26.0991 63.4478 28.372 63.8526 31.3611C64.3819 35.5644 63.1676 38.9894 60.272 41.9162C58.217 44.0023 55.695 45.31 52.7993 45.9016C51.9587 46.0573 51.118 46.0884 50.3084 46.1818ZM57.7188 33.6029C57.6877 33.1981 57.6877 32.8867 57.6254 32.5754C57.065 29.4929 54.2316 27.7493 51.2737 28.4343C48.378 29.0881 46.5099 30.9252 45.8249 33.852C45.2644 36.2806 46.4476 38.7403 48.6894 39.7367C50.4019 40.4839 52.1143 40.3905 53.7645 39.5498C56.2243 38.2733 57.5631 36.2806 57.7188 33.6029Z" fill="#06B6D4"/>
</svg>
