<svg width="64" height="64" viewBox="0 0 64 64" fill="none" xmlns="http://www.w3.org/2000/svg">
<g clip-path="url(#clip0_763_2542)">
<path d="M60.53 11.47C56.53 7.46996 50.394 7.46996 46.394 11.198C46.136 11.47 46.136 11.728 46.136 12C46.136 12.272 46.136 12.53 46.394 12.802L47.728 14.136C48 14.394 48.53 14.394 49.062 14.136C50.136 13.334 51.198 13.062 52.532 13.062C55.73 13.062 58.396 15.728 58.396 18.94C58.396 20.532 57.866 21.866 56.804 22.94C48.804 30.94 37.866 8.53196 13.606 20.002C12 20.804 11.198 22.668 12 24.274V24.532L16 31.73C16.802 33.336 18.938 33.866 20.53 33.064L22.394 32.002C24.53 30.668 26.394 29.336 28.272 27.73C28.53 27.472 29.334 27.472 29.606 27.73C30.136 28.002 30.136 28.532 29.864 29.064L29.606 29.336C27.728 30.942 25.606 32.534 23.47 33.866L21.606 34.668C20.804 35.198 20 35.47 18.94 35.47C17.062 35.47 15.198 34.396 14.396 32.804L10.396 25.866C2.94001 31.2 -1.86199 41.608 0.804005 54.668C0.804005 55.198 1.33401 55.47 1.86601 55.47H6.39601C6.94001 55.47 7.19801 55.198 7.47001 54.668C8.00001 50.94 11.198 48.532 14.94 49.062C17.866 49.334 20.274 51.728 20.532 54.668C20.532 55.198 21.062 55.47 21.606 55.47H25.864C26.394 55.47 26.666 55.198 26.938 54.668C27.468 50.94 30.666 48.532 34.394 49.062C37.332 49.334 39.728 51.728 40 54.668C40 55.198 40.53 55.47 41.062 55.47H45.334C45.864 55.47 46.396 54.94 46.396 54.396C46.396 48.274 48.274 41.334 52.804 37.866C68.532 25.608 64.274 15.2 60.532 11.472L60.53 11.47ZM44 29.864L40.802 28.272C40.802 27.198 41.604 26.394 42.666 26.394C43.728 26.394 44.53 27.196 44.53 28.272C44.802 29.062 44.53 29.606 44 29.864Z" fill="#14B8A6"/>
</g>
<defs>
<clipPath id="clip0_763_2542">
<rect width="64" height="64" fill="white"/>
</clipPath>
</defs>
</svg>
