<svg width="64" height="64" viewBox="0 0 64 64" fill="none" xmlns="http://www.w3.org/2000/svg">
<path fill-rule="evenodd" clip-rule="evenodd" d="M37.4613 7.32521L50.6049 14.9139C50.975 14.5218 51.4073 14.1757 51.8977 13.8909C54.6236 12.3239 58.1004 13.2543 59.6838 15.9802C61.2508 18.7061 60.3204 22.1829 57.5944 23.7663C57.1078 24.046 56.5966 24.2462 56.0764 24.3707V39.554C56.591 39.6788 57.0965 39.8777 57.5781 40.1545C60.3204 41.7379 61.2508 45.2147 59.6674 47.9406C58.1004 50.6665 54.6073 51.597 51.8814 50.0299C51.3387 49.718 50.8671 49.3297 50.4723 48.8862L37.4089 56.4286C37.5957 56.9929 37.6967 57.5965 37.6967 58.2241C37.6967 61.3581 35.1503 63.9208 32 63.9208C28.8496 63.9208 26.3033 61.3744 26.3033 58.2241C26.3033 57.6641 26.3837 57.1232 26.5337 56.6123L13.3936 49.0257C13.0275 49.41 12.6012 49.7496 12.1186 50.0299C9.37633 51.597 5.89953 50.6665 4.33253 47.9406C2.76552 45.2147 3.69593 41.7379 6.42187 40.1545C6.90384 39.8775 7.40928 39.6785 7.92358 39.5537V24.3707C7.40334 24.2462 6.89221 24.046 6.40555 23.7663C3.67961 22.1993 2.7492 18.7061 4.3162 15.9802C5.88321 13.2543 9.37633 12.3239 12.1023 13.8909C12.59 14.1742 13.0203 14.5181 13.389 14.9075L26.5362 7.31677C26.3846 6.80343 26.3033 6.25972 26.3033 5.69672C26.3033 2.54639 28.8496 0 32 0C35.1503 0 37.6967 2.54639 37.6967 5.69672C37.6967 6.26281 37.6145 6.80939 37.4613 7.32521ZM36.0919 9.6633L49.2668 17.27C48.8595 18.7004 49.009 20.2863 49.8084 21.6769C50.6103 23.072 51.9168 23.9968 53.3668 24.3573V39.5595C53.2929 39.5777 53.2194 39.5973 53.1463 39.6183L35.9389 9.81525C35.9909 9.76557 36.0419 9.71491 36.0919 9.6633ZM28.0646 9.81869L10.8576 39.6213C10.7832 39.5997 10.7084 39.5796 10.6332 39.561V24.3573C12.0831 23.9968 13.3896 23.072 14.1916 21.6769C14.9926 20.2836 15.141 18.6941 14.7308 17.2616L27.9019 9.65696C27.9551 9.71196 28.0093 9.76588 28.0646 9.81869ZM33.5917 11.1688L50.7948 40.9646C50.4098 41.3317 50.0705 41.7595 49.792 42.2439C49.5152 42.7255 49.3163 43.231 49.1915 43.7456H14.8088C14.684 43.2313 14.485 42.7259 14.2079 42.2439C13.9284 41.7626 13.5897 41.3372 13.2067 40.9717L30.4131 11.1702C30.9166 11.3156 31.4491 11.3934 32 11.3934C32.5526 11.3934 33.0867 11.3151 33.5917 11.1688ZM36.2129 54.3862L49.3022 46.8289C49.263 46.7055 49.2279 46.5809 49.197 46.4552H14.8015C14.7833 46.5291 14.7635 46.6025 14.7424 46.6756L27.8959 54.2701C28.9316 53.1952 30.3866 52.5274 32 52.5274C33.6707 52.5274 35.1716 53.2436 36.2129 54.3862Z" fill="#EC4899"/>
</svg>
