<svg width="64" height="64" viewBox="0 0 64 64" fill="none" xmlns="http://www.w3.org/2000/svg">
<g clip-path="url(#clip0_763_2545)">
<path d="M40.416 51.8241L42.114 48.9281C42.114 48.9281 38.26 50.5021 31.824 50.5021C25.376 50.5021 21.584 48.9901 21.584 48.9901L23.48 52.1481L24.146 62.0841C24.146 63.1701 27.644 64.0021 31.978 64.0021C36.3 64.0021 39.812 63.1701 39.812 62.0841L40.414 51.8661L40.416 51.8241ZM42.054 33.0321C40.012 33.1581 38.98 35.4381 37.948 37.8421C37.574 38.7201 36.274 42.4801 35.428 42.0101C34.574 41.5521 36.522 38.4681 37.074 36.6341C36.44 37.0921 34.128 38.8961 33.532 37.2081C32.574 38.0421 30.522 38.4901 30.75 36.3221C30.24 37.2501 29.094 38.5201 27.72 37.9681C25.918 37.2801 28.77 31.5301 29.48 31.8141C30.186 32.1361 29.334 33.4161 29.114 33.9281C28.612 35.0541 28.052 36.4901 28.426 36.7601C29.072 37.2801 30.842 34.8961 30.884 34.8421C31.206 34.4041 32.156 31.5721 32.916 31.8961C33.676 32.2501 31.02 36.0101 32.01 36.7601C32.208 36.9281 33.032 36.6881 33.53 36.1261C33.842 35.8141 33.738 35.0121 34.802 32.4601C35.884 29.8981 36.842 26.7101 37.572 26.9481C38.31 27.1881 37.708 28.8261 37.436 29.4601C36.196 32.3341 34.06 37.0441 35.06 36.6901C36.06 36.3241 36.582 36.3241 37.582 35.1701C38.582 34.0121 38.5 32.0961 39.174 32.1381C39.822 32.1781 39.736 32.8161 39.582 33.2521C40.216 32.5321 42.644 30.9401 43.206 32.4921C43.894 34.3241 39.736 37.0121 40.768 36.8441C41.768 36.7301 43.402 35.6901 44.134 34.7301L46.052 17.3961C46.052 17.3961 44.092 19.0021 31.748 19.0021C19.414 19.0021 17.654 17.4401 17.654 17.4401L19.288 33.2541C20.174 30.7841 22.248 25.7521 25.488 25.9501C26.966 26.0361 28.954 28.9101 27.238 28.9821C26.518 29.0241 26.436 27.5441 25.604 27.3481C24.966 27.2341 24.124 27.7141 23.572 28.2761C22.49 29.3481 20.092 33.6181 20.414 35.7421C20.812 38.4521 24.164 34.8161 24.726 33.7421C25.124 32.9821 25.404 30.7021 26.238 30.9421C27.124 31.1801 26.164 33.5441 25.518 35.5761C24.8 37.8981 24.436 40.3261 23.572 40.0461C22.686 39.7641 24.124 36.7741 24.042 36.2541C23.208 37.0561 21.688 38.9721 19.698 38.0141L20.688 47.8781C20.688 47.8781 23.406 49.9921 31.552 49.9921C39.698 49.9921 42.53 47.8781 42.53 47.8781L43.812 36.4521C42.77 37.4941 39.498 39.2841 39.3 37.2541C39.146 35.6161 42.852 33.2641 41.894 33.2121L42.054 33.0321ZM46.262 1.78206L39.168 9.25206L37.864 14.3241C42.886 14.6361 46.376 15.3561 46.376 16.1661C46.376 17.2921 39.938 18.1881 32 18.1881C24.062 18.1881 17.624 17.2741 17.624 16.1581C17.624 15.0441 24.062 14.1161 32 14.1161C33.126 14.1161 34.25 14.1161 35.376 14.1581L36.864 8.09406L44.394 0.104061C44.584 -0.135939 45.146 0.0620611 45.666 0.502061C46.176 0.908061 46.458 1.41606 46.3 1.65606V1.73806L46.262 1.78206ZM36.032 17.2401C36.032 17.2401 34.634 17.2401 34.406 17.0221C34.344 16.9581 34.312 16.8641 34.312 16.7821C34.312 16.6241 34.416 16.5421 34.552 16.4921L34.666 16.6901C34.612 16.7121 34.594 16.7301 34.584 16.7521C34.584 16.8661 35.416 16.9421 36.062 16.9301C36.7 16.9201 37.48 16.8661 37.48 16.7621C37.48 16.7301 37.416 16.7001 37.312 16.6681L37.438 16.4821C37.606 16.5321 37.75 16.6361 37.75 16.8041C37.75 17.0941 37.376 17.1481 37.136 17.1781C36.854 17.2201 36.042 17.2421 36.042 17.2421L36.032 17.2401Z" fill="#EF4444"/>
</g>
<defs>
<clipPath id="clip0_763_2545">
<rect width="64" height="64" fill="white"/>
</clipPath>
</defs>
</svg>
