<svg width="64" height="64" viewBox="0 0 64 64" fill="none" xmlns="http://www.w3.org/2000/svg">
<g clip-path="url(#clip0_762_5116)">
<path d="M1.86924 54.1484C1.07041 54.1484 0.594043 53.258 1.03735 52.5935L14.6888 32.1295C14.9129 31.7935 14.9129 31.3557 14.6888 31.0196L1.03731 10.5549C0.594014 9.8904 1.07038 9 1.8692 9H10.7593C11.0935 9 11.4057 9.167 11.5912 9.44507L25.983 31.0196C26.2072 31.3557 26.2072 31.7935 25.983 32.1295L11.5912 53.7034C11.4057 53.9814 11.0935 54.1484 10.7593 54.1484H1.86924Z" fill="#A855F7"/>
<path d="M16.9283 54.1486C16.1295 54.1485 15.6532 53.2581 16.0965 52.5936L29.748 32.1295C29.9721 31.7935 29.9721 31.3557 29.748 31.0196L16.0965 10.5549C15.6532 9.8904 16.1296 9 16.9284 9H25.8185C26.1527 9 26.4649 9.167 26.6503 9.44506L55.4341 52.5943C55.8774 53.2588 55.401 54.1492 54.6022 54.1492H45.7134C45.3791 54.1492 45.067 53.9822 44.8815 53.7041L36.599 41.2879C36.2032 40.6945 35.3311 40.6944 34.9352 41.2878L26.6509 53.7042C26.4654 53.9822 26.1532 54.1492 25.819 54.1492L16.9283 54.1486Z" fill="#A855F7"/>
<path d="M51.9857 40.9788C51.6514 40.9788 51.3393 40.8118 51.1538 40.5337L47.4682 35.0085C47.025 34.344 47.5013 33.4536 48.3001 33.4536H62.9998C63.5521 33.4536 63.9998 33.9013 63.9998 34.4536V39.9795C63.9998 40.5318 63.5521 40.9795 62.9997 40.9795L51.9857 40.9788ZM44.4562 29.6924C44.122 29.6924 43.8098 29.5253 43.6243 29.2473L39.9388 23.7221C39.4955 23.0575 39.9719 22.1672 40.7707 22.1672H63.0001C63.5523 22.1672 64.0001 22.6149 64.0001 23.1672V28.6924C64.0001 29.2446 63.5523 29.6924 63.0001 29.6924H44.4562Z" fill="#A855F7"/>
</g>
<defs>
<clipPath id="clip0_762_5116">
<rect width="64" height="64" fill="white"/>
</clipPath>
</defs>
</svg>
