<svg width="61" height="64" viewBox="0 0 61 64" fill="none" xmlns="http://www.w3.org/2000/svg">
<g clip-path="url(#clip0_762_5148)">
<path d="M53.8404 0.000251043C53.8405 0.00018863 53.8405 0 53.8403 0H7.76009C4.57916 0 1.99998 2.57967 1.99998 5.7601V58.2399C1.99998 61.4208 4.57966 64 7.76009 64H53.8399C57.0208 64 59.6 61.4203 59.6 58.2399V5.7606C59.6 2.57986 57.0206 0.000808011 53.8405 0.000502112C53.8403 0.000502099 53.8403 0.000313455 53.8404 0.000251043V0.000251043ZM18.0649 52.9206C17.42 53.4938 16.4005 53.036 16.4005 52.1732V43.8268C16.4005 42.964 17.42 42.5062 18.0649 43.0794L22.7597 47.2526C23.2072 47.6504 23.2072 48.3496 22.7597 48.7474L18.0649 52.9206ZM39.8005 54.4C39.2482 54.4 38.8005 53.9523 38.8005 53.4V35.2883C38.7694 33.7942 38.0502 32 34.8005 32C28.2931 32 20.9937 35.2728 20.9214 35.3054L17.8132 36.7139C17.1512 37.0139 16.4005 36.5298 16.4005 35.803V10.6C16.4005 10.0477 16.8482 9.6 17.4005 9.6H21.8005C22.3528 9.6 22.8005 10.0477 22.8005 10.6V26.3915C22.8005 27.0711 23.4635 27.553 24.1148 27.3592C27.1605 26.453 31.029 25.6 34.8005 25.6C38.7563 25.6 41.1242 27.1553 42.414 28.4602C45.1669 31.2442 45.2045 34.7905 45.2005 35.2V53.4C45.2005 53.9523 44.7528 54.4 44.2005 54.4H39.8005ZM40.696 19.6587C40.5103 19.8774 40.2362 20 39.9493 20H36.0202C35.1925 20 34.7142 19.0444 35.1691 18.353C36.849 15.7996 37.9929 13.1478 38.6287 10.406C38.7368 9.93975 39.146 9.6 39.6247 9.6H44.0747C44.6738 9.6 45.1407 10.1237 45.0345 10.7133C44.4742 13.8228 43.1089 16.8165 40.696 19.6587Z" fill="#A855F7"/>
</g>
<defs>
<clipPath id="clip0_762_5148">
<rect width="60.6316" height="64" fill="white"/>
</clipPath>
</defs>
</svg>
