<svg width="64" height="64" viewBox="0 0 64 64" fill="none" xmlns="http://www.w3.org/2000/svg">
<path d="M31.6605 51.6203C32.0106 51.7175 32.3805 51.7175 32.7306 51.6203L45.334 48.1211C46.1359 47.8985 46.7161 47.2025 46.7909 46.3736L48.4257 28.2418C48.5313 27.0711 47.6093 26.0622 46.4338 26.0622H24.7105C23.6744 26.0622 22.8098 25.2709 22.7183 24.2389L22.433 21.0211C22.3293 19.8514 23.2509 18.8444 24.4252 18.8444H47.4532C48.4803 18.8444 49.3404 18.0664 49.4431 17.0444L49.7522 13.9689C49.8706 12.7912 48.9459 11.7689 47.7623 11.7689H16.6128C15.4349 11.7689 14.5121 12.7817 14.6214 13.9544L16.2398 31.3233C16.3356 32.3516 17.1985 33.1378 18.2312 33.1378H38.7204C39.8951 33.1378 40.8168 34.1453 40.7125 35.3154L40.2127 40.9219C40.1383 41.7566 39.5514 42.4564 38.7425 42.675L32.7174 44.3034C32.3756 44.3958 32.0155 44.3958 31.6737 44.3034L25.6555 42.6769C24.8432 42.4573 24.2551 41.7527 24.1844 40.9142L23.9589 38.2408C23.8716 37.2051 23.0054 36.4089 21.966 36.4089H18.8834C17.7073 36.4089 16.7851 37.4187 16.8916 38.59L17.5993 46.3748C17.6746 47.2031 18.2547 47.8983 19.0561 48.1208L31.6605 51.6203ZM4.19207 2.17586C4.08884 1.00643 5.01034 0 6.18432 0H58.2068C59.3808 0 60.3023 1.00643 60.199 2.17586L55.4286 56.2185C55.3553 57.0494 54.774 57.7475 53.9701 57.9701L32.7293 63.8522C32.38 63.9489 32.0111 63.9489 31.6618 63.8522L10.421 57.9701C9.61714 57.7475 9.03584 57.0494 8.9625 56.2185L4.19207 2.17586Z" fill="#F97316"/>
</svg>
