<svg width="64" height="64" viewBox="0 0 64 64" fill="none" xmlns="http://www.w3.org/2000/svg">
<path d="M35.7671 0.302142C39.2565 1.69374 40.6377 7.19056 38.8112 12.6143C37.0056 18.0137 32.7403 21.3014 29.237 19.9341C25.758 18.5808 24.3525 13.0735 26.1476 7.63239C27.9289 2.21559 32.2463 -1.04075 35.7671 0.302142ZM55.2842 11.5706C58.2344 13.9642 57.5456 19.3183 53.8022 23.5975C49.9579 27.8593 44.5133 29.4074 41.577 27.0591C38.6094 24.6934 39.3261 19.3531 43.1251 15.1053C46.9173 10.8122 52.3584 9.26056 55.2842 11.5706ZM13.912 4.42476C17.798 4.88398 20.6265 9.75806 20.3934 15.2653C19.9759 20.776 16.6534 24.8987 12.7952 24.4533C8.94051 24.0115 6.12252 19.1827 6.43911 13.6511C6.75918 8.11945 10.1547 4.0038 13.912 4.42476ZM63.0494 32.796C65.2968 35.8401 63.432 40.8394 58.798 43.8801C54.164 46.9207 48.5767 46.8964 46.2632 43.7757C43.9531 40.6585 45.8596 35.7183 50.4241 32.6012C55.079 29.6475 60.7115 29.6614 63.0528 32.796M41.5005 59.5912C40.1297 62.2214 36.5255 63.9226 33.5614 63.6338C27.3827 63.0494 24.2725 55.0685 18.8452 51.9305C13.411 48.7959 4.77963 50.2536 1.38065 45.0525C-0.581509 42.1371 -0.414517 37.5031 1.64157 34.7581C4.48043 30.973 10.6278 31.6131 15.241 30.305C21.3118 28.6803 28.2176 23.0235 33.7075 26.1894C39.166 29.3413 37.9449 38.1362 39.3435 44.2245C40.4533 49.3038 43.8801 55.0303 41.5005 59.5912Z" fill="#90A4AE"/>
</svg>
