<svg width="64" height="64" viewBox="0 0 64 64" fill="none" xmlns="http://www.w3.org/2000/svg">
<g clip-path="url(#clip0_762_2799)">
<path fill-rule="evenodd" clip-rule="evenodd" d="M11.3962 0H52.6074C56.5685 0 58.0086 0.412468 59.4557 1.18762C60.9029 1.96278 62.0408 3.10062 62.8159 4.54781C63.5911 5.995 64.0036 7.43152 64.0036 11.3962V38.0999L48.3902 23.6884C47.8237 23.1657 47.1505 22.7719 46.4171 22.5344C45.6837 22.2968 44.9076 22.221 44.1421 22.3123C43.3766 22.4035 42.64 22.6596 41.983 23.0629C41.326 23.4662 40.7643 24.0072 40.3365 24.6485L29.207 41.3427L21.0181 36.0802C19.9263 35.3788 18.6163 35.0995 17.3334 35.2945C16.0505 35.4896 14.8827 36.1457 14.0488 37.1398L0.0177792 53.8697C0.00609845 53.449 0.000171238 53.0282 0 52.6074V11.3962C0 7.43152 0.412468 5.995 1.18762 4.54781C1.96278 3.10062 3.10062 1.96278 4.54781 1.18762C5.995 0.412468 7.43152 0 11.3962 0ZM45.0941 30.3306L64.0036 47.7787V52.6038C64.0036 56.5649 63.5911 58.005 62.8159 59.4522C62.0581 60.8838 60.8874 62.0545 59.4557 62.8124C58.0086 63.5875 56.572 64 52.6074 64H11.3962C7.43152 64 5.995 63.5875 4.54781 62.8124C3.92236 62.4797 3.34268 62.0674 2.82327 61.5856L18.4899 42.9073L26.8317 48.2693C28.0087 49.0256 29.4358 49.2892 30.8053 49.0032C32.1748 48.7172 33.3771 47.9045 34.153 46.7404L45.0941 30.3306ZM17.7361 10.6673C13.7892 10.6673 10.6673 13.6256 10.6673 17.7361C10.6673 21.8501 13.7928 24.8903 17.7361 24.8903C21.7648 24.8903 24.8903 21.8501 24.8903 17.7361C24.8903 13.6256 21.7648 10.6673 17.7361 10.6673Z" fill="#14B8A6"/>
</g>
<defs>
<clipPath id="clip0_762_2799">
<rect width="64" height="64" fill="white"/>
</clipPath>
</defs>
</svg>
