<svg width="64" height="64" viewBox="0 0 64 64" fill="none" xmlns="http://www.w3.org/2000/svg">
<g clip-path="url(#clip0_734_7529)">
<path d="M57.7842 13.0468C58.3279 12.2369 58.6176 11.2832 58.6162 10.3077C58.6162 7.58846 56.4115 5.38462 53.6931 5.38462C52.7175 5.38316 51.7637 5.67291 50.9538 6.21677C45.6483 2.31 39.0946 0 32 0C14.3262 0 0 14.3269 0 32C0 49.6738 14.3269 64 32 64C49.6723 64 64 49.6734 64 32C64 24.906 61.6906 18.3529 57.7842 13.0468ZM52.8977 52.8975C50.1829 55.6123 47.0222 57.7435 43.5032 59.232C39.8614 60.7723 35.9915 61.5534 32.0008 61.5534C28.01 61.5534 24.14 60.7723 20.4982 59.232C16.9792 57.7435 13.8186 55.6125 11.1037 52.8975C8.38877 50.1826 6.25754 47.022 4.76923 43.5031C3.22877 39.8612 2.44769 35.9911 2.44769 32.0003C2.44769 28.0095 3.22877 24.1395 4.76908 20.4977C6.25738 16.9788 8.38862 13.8182 11.1035 11.1032C13.8185 8.38831 16.9791 6.25708 20.498 4.76877C24.14 3.22831 28.01 2.44723 32.0008 2.44723C35.9914 2.44723 39.8614 3.22831 43.5032 4.76862C45.56 5.63804 47.5112 6.73883 49.3189 8.04969C48.9575 8.74756 48.7692 9.52211 48.77 10.308C48.77 13.0272 50.9742 15.2311 53.6931 15.2311C54.5074 15.2311 55.2746 15.0322 55.9512 14.6822C57.2622 16.4898 58.363 18.4409 59.2323 20.4977C60.7728 24.1395 61.5538 28.0095 61.5538 32.0003C61.5538 35.9909 60.7728 39.8612 59.2323 43.5031C57.7438 47.022 55.6128 50.1828 52.8977 52.8975Z" fill="#3B82F6"/>
<path d="M32.0012 46.7704C40.158 46.7704 46.7704 40.158 46.7704 32.0012C46.7704 23.8444 40.158 17.232 32.0012 17.232C23.8444 17.232 17.232 23.8444 17.232 32.0012C17.232 40.158 23.8444 46.7704 32.0012 46.7704Z" fill="#3B82F6"/>
</g>
<defs>
<clipPath id="clip0_734_7529">
<rect width="64" height="64" fill="white"/>
</clipPath>
</defs>
</svg>
