<svg width="64" height="64" viewBox="0 0 64 64" fill="none" xmlns="http://www.w3.org/2000/svg">
<g clip-path="url(#clip0_762_5183)">
<path d="M57.0192 5H46.1667C45.9907 5 45.817 5.00873 45.6443 5.02165H9.66824C7.22571 5.02165 5.23857 7.00879 5.23857 9.45114V44.6555C5.23857 47.0978 7.22571 49.0849 9.66824 49.0849H10.8081V51.5519C10.8081 51.73 10.8085 51.9836 10.8307 52.2732H1.89853C0.851839 52.2732 0 53.1249 0 54.1716V56.8386C0 57.8853 0.851839 58.737 1.89853 58.737H55.6186C56.6653 58.737 57.5171 57.8853 57.5171 56.8386V54.1716C57.5171 53.1249 56.6653 52.2732 55.6186 52.2732H46.6867C46.7089 51.9838 46.7092 51.7302 46.7092 51.5519V49.0849H47.8491C50.2916 49.0849 52.2788 47.0978 52.2788 44.6555V31.5056H57.0197C60.8688 31.5056 64.0004 28.3741 64.0004 24.525V11.9808C64 8.13154 60.8685 5 57.0192 5ZM57.6321 24.5248C57.6321 24.857 57.3516 25.1376 57.0194 25.1376H52.2784V11.3679H57.0194C57.3516 11.3679 57.6321 11.6484 57.6321 11.9806V24.5248Z" fill="#EF4444"/>
</g>
<defs>
<clipPath id="clip0_762_5183">
<rect width="64" height="64" fill="white"/>
</clipPath>
</defs>
</svg>
