<svg width="64" height="64" viewBox="0 0 64 64" fill="none" xmlns="http://www.w3.org/2000/svg">
<path d="M23.8613 26.0344C23.269 24.7249 23.0035 23.1974 23.456 21.8098C23.9083 20.3912 24.9217 19.2532 25.935 18.193C28.7562 15.3711 32.233 13.2978 34.9922 10.4296C36.5198 8.8549 37.7824 6.96859 38.2188 4.80149C38.2963 4.45767 38.3491 4.11165 38.3809 3.76454C38.4745 2.74162 39.4762 2.38539 39.6457 3.39851C39.8011 4.32727 39.786 5.28725 39.6065 6.20473C39.1546 8.62094 37.8135 10.7566 36.2391 12.5961C34.9766 14.0773 33.5265 15.3868 32.0145 16.603C30.253 18.0217 28.5227 19.5493 27.4161 21.5448C26.4802 23.1658 26.2619 25.1613 26.9013 26.923C27.4177 28.4178 28.2729 29.7222 29.1659 31.0038C29.7851 31.8925 28.9809 32.546 28.2197 31.7754C27.9643 31.5168 27.7116 31.2557 27.4622 30.9918C26.0597 29.4952 24.7343 27.9053 23.8613 26.0344ZM31.8118 23.6647C31.5469 26.1435 32.8404 28.4818 34.3842 30.3215C35.1321 31.1476 35.7714 32.161 35.8023 33.3147C35.8283 34.5931 35.2337 35.7973 34.3901 36.7487C34.2283 36.9312 34.2968 37.0366 34.5086 36.9156C36.1923 35.8399 37.8132 34.4836 38.6395 32.6289C39.1851 31.3661 39.0605 29.8693 38.3436 28.6999C37.5015 27.3281 36.395 26.1121 35.7403 24.6156C35.3812 23.7739 35.2566 22.7918 35.5529 21.9032C35.9429 20.703 36.7846 19.7207 37.6733 18.8633C38.4484 18.1277 39.2752 17.4592 40.1333 16.8317C41.0647 16.1506 40.5088 14.9998 39.4755 15.5136C38.1821 16.1567 36.9384 16.8963 35.7714 17.7566C33.8537 19.1908 32.0769 21.1861 31.8118 23.6647ZM48.8511 35.388C50.5504 35.4817 52.2179 36.7286 52.5301 38.4436C52.8264 39.9246 52.1095 41.3899 51.1893 42.5122C49.677 44.3205 47.6346 45.6146 45.5775 46.7215C45.3993 46.8304 45.5217 47.0505 45.7231 46.995C48.207 46.3113 50.6546 45.3125 52.6703 43.6971C53.8858 42.6838 54.9615 41.3427 55.1956 39.737C55.4139 38.3498 54.8374 36.9155 53.8083 35.9958C52.5609 34.8574 50.7998 34.4368 49.147 34.6552C48.967 34.6788 48.7836 34.7052 48.6002 34.7379C47.8087 34.8788 48.0508 35.311 48.8511 35.388ZM15.0067 39.8461C17.0486 40.3918 19.1533 40.5479 21.2423 40.6882C23.1129 40.8129 24.9839 40.8443 26.8704 40.8285C31.734 40.751 36.6289 40.4232 41.3991 39.3633C41.851 39.2543 42.3501 39.1763 42.7559 38.8958C43.1496 38.6408 42.9242 37.9363 42.46 38.004C39.5111 38.4342 36.5512 38.7847 33.5734 38.9737C29.5982 39.223 25.5915 39.3789 21.601 39.1141C20.463 39.0051 19.2936 38.9423 18.2337 38.5056C18.002 38.4045 17.6901 38.2098 17.7456 37.9205C17.7546 37.8732 17.7766 37.8294 17.8026 37.7889C18.0466 37.4096 18.4877 37.2166 18.8725 37.0093C19.7611 36.5893 19.5935 35.7125 18.6453 35.9711C17.4553 36.2957 16.2897 36.7122 15.1627 37.1963C14.5233 37.5083 13.8063 37.7575 13.292 38.2877C13.0889 38.5055 13.0889 38.8803 13.3229 39.067C13.7907 39.4879 14.4139 39.6749 15.0067 39.8461ZM40.6221 44.447C40.3889 44.2589 40.0878 44.1645 39.7927 44.2163C37.2189 44.6677 34.6311 45.0774 32.0297 45.2093C29.0054 45.412 25.9811 45.2403 22.9882 44.9286C22.4116 44.8506 21.8346 44.7573 21.3203 44.4924C21.0553 44.3364 20.7904 44.0871 20.806 43.7592C20.8311 43.342 20.5685 42.8841 20.1877 43.0567C19.7122 43.2723 19.2565 43.526 18.8417 43.8534C18.4983 44.1184 18.1556 44.539 18.2489 45.0067C18.3898 45.5522 18.9197 45.8796 19.3874 46.1289C20.5407 46.7216 21.8347 46.9863 23.0978 47.2202C26.2929 47.735 29.5512 47.7507 32.7625 47.5318C35.311 47.3333 37.85 46.9682 40.3475 46.3906C41.2073 46.1917 41.309 45.0011 40.6221 44.447ZM22.5523 50.5389C22.4309 50.2424 22.2344 49.8029 21.9371 49.9225C21.4775 50.1075 21.0385 50.3376 20.65 50.6498C20.2908 50.9305 20.0106 51.4143 20.1823 51.8663C20.4006 52.4429 20.9463 52.7865 21.4602 53.0818C22.8013 53.815 24.3133 54.1575 25.7941 54.4229C29.1463 54.9526 32.5912 54.8748 35.9274 54.2826C37.1512 54.0512 38.3752 53.7603 39.566 53.3768C40.4 53.1081 40.4053 51.9849 39.623 51.5903C39.2621 51.4082 38.9051 51.2183 38.5525 51.0196C38.3465 50.9035 38.107 50.8599 37.8741 50.901C36.0437 51.2237 34.1984 51.5469 32.326 51.6638C29.6919 51.8664 27.0258 51.6481 24.3912 51.3209C23.7772 51.1827 23.0124 51.1202 22.5872 50.5976C22.5737 50.5811 22.5604 50.5586 22.5523 50.5389ZM44.4548 59.5514C46.6371 59.1 48.8355 58.5847 50.8307 57.5718C51.454 57.2127 52.2179 56.823 52.4211 56.0751C52.4464 55.9088 52.4255 55.7608 52.3719 55.6281C52.2634 55.3591 51.6438 55.8119 51.4696 56.0438C50.9239 56.7769 49.9891 57.0572 49.1626 57.3379C46.5751 58.0705 43.8933 58.3669 41.2278 58.6632C34.1659 59.3022 27.0569 59.4582 19.9953 58.8658C17.6257 58.6161 15.2089 58.3512 12.9486 57.5096C12.6333 57.3722 12.1727 57.2348 12.0669 56.8742C12.0367 56.7711 12.0581 56.66 12.1088 56.5653C12.285 56.236 12.635 56.0341 12.9486 55.8567C14.0297 55.3059 15.194 54.9213 16.3859 54.6938C16.9234 54.5912 16.9723 54.128 16.4254 54.1421C14.9129 54.1888 13.432 54.5783 11.9981 55.0623C10.7665 55.5137 9.50375 56.0129 8.52133 56.9173C8.13169 57.2598 7.77349 57.9145 8.17828 58.3825C8.802 59.0529 9.76876 59.2242 10.6256 59.4268C15.4272 60.2533 20.2908 60.7203 25.1553 60.892C31.6092 61.0797 38.1098 60.7989 44.4548 59.5514ZM50.8464 60.3936C47.9154 61.3289 44.8757 61.8431 41.8511 62.2642C36.6289 62.9189 31.3595 63.1215 26.1059 62.966C23.7934 62.8758 21.481 62.7365 19.186 62.4654C18.5685 62.3925 18.4453 62.8147 19.0444 62.9812C22.5834 63.7297 26.2152 63.87 29.8166 63.9789C35.1007 64.0726 40.3856 63.87 45.5926 63.0436C48.0561 62.6078 50.5347 62.0774 52.7479 60.9236C52.9763 60.8032 53.2054 60.67 53.4275 60.5233C54.2454 59.9826 53.5063 59.3672 52.6016 59.745C52.0226 59.9868 51.4271 60.1923 50.8464 60.3936Z" fill="#3B82F6"/>
</svg>
