<svg width="71" height="64" viewBox="0 0 71 64" fill="none" xmlns="http://www.w3.org/2000/svg">
<path d="M56.4286 24C54.8506 24 53.5714 25.2792 53.5714 26.8571C53.5714 28.4351 54.8506 29.7143 56.4286 29.7143C58.0065 29.7143 59.2857 30.9935 59.2857 32.5714V55.2857C59.2857 56.9426 57.9426 58.2857 56.2857 58.2857H33.5714C31.9935 58.2857 30.7143 57.0065 30.7143 55.4286C30.7143 53.8506 29.4351 52.5714 27.8571 52.5714C26.2792 52.5714 25 53.8506 25 55.4286V61C25 62.6569 26.3431 64 28 64H62C63.6569 64 65 62.6569 65 61V27C65 25.3431 63.6569 24 62 24H56.4286Z" fill="#EAB308"/>
<g clip-path="url(#clip0_762_2541)">
<path d="M41.65 0H7.35C3.29071 0 0 3.29071 0 7.35V41.65C0 45.7093 3.29071 49 7.35 49H41.65C45.7093 49 49 45.7093 49 41.65V7.35C49 3.29071 45.7093 0 41.65 0Z" fill="#EAB308"/>
<path d="M31.0078 35.4102C31.9648 37.0371 33.3047 38.1855 35.5059 38.1855C37.4199 38.1855 38.6641 37.2285 38.6641 35.8887C38.6641 34.3574 37.4199 33.7832 35.3145 32.8262L34.166 32.3477C30.8164 30.9121 28.6152 29.1895 28.6152 25.457C28.6152 22.0117 31.1992 19.332 35.3145 19.332C38.2812 19.332 40.3867 20.3848 41.8223 23.0645L38.2812 25.3613C37.5156 23.9258 36.6543 23.3516 35.3145 23.3516C33.9746 23.3516 33.1133 24.2129 33.1133 25.3613C33.1133 26.7012 33.9746 27.2754 35.9844 28.1367L37.1328 28.6152C41.0566 30.3379 43.2578 31.9648 43.2578 35.8887C43.2578 40.0039 40.0039 42.3008 35.6016 42.3008C31.2949 42.3008 28.5195 40.291 27.1797 37.6113L31.0078 35.4102ZM14.7383 35.793C15.5039 37.0371 16.0781 38.1855 17.7051 38.1855C19.2363 38.1855 20.1934 37.6113 20.1934 35.3145V19.4277H24.7871V35.123C24.7871 39.9082 22.0117 42.0137 17.8965 42.0137C14.1641 42.0137 12.0586 40.0996 11.0059 37.8027L14.7383 35.793Z" fill="#212529"/>
</g>
<defs>
<clipPath id="clip0_762_2541">
<rect width="49" height="49" fill="white"/>
</clipPath>
</defs>
</svg>
