<svg width="64" height="64" viewBox="0 0 64 64" fill="none" xmlns="http://www.w3.org/2000/svg">
<g clip-path="url(#clip0_762_2675)">
<mask id="mask0_762_2675" style="mask-type:luminance" maskUnits="userSpaceOnUse" x="0" y="0" width="64" height="64">
<path d="M0 0H64V64H0V0Z" fill="white"/>
</mask>
<g mask="url(#mask0_762_2675)">
<path fill-rule="evenodd" clip-rule="evenodd" d="M47.4441 50.4124L41.902 51.2438L34.4203 52.0751L29.5709 52.2134L24.8606 52.0751L21.2578 50.9663L18.0715 47.5031L15.5775 40.4371L15.0235 38.9126L11.6981 37.8047L9.75846 34.618L8.37317 30.046L9.89761 26.028L13.4996 24.7809L16.4088 26.1667L17.7946 29.2147L19.4573 28.9373L20.0112 28.2446L19.4573 25.0584L19.3186 21.0399L20.1499 15.4982L20.1171 12.3328L22.6435 8.29392L27.0773 5.10766L34.836 1.78225L43.4256 3.02927L50.9073 8.43262L54.3715 13.9742L56.5881 17.9923L57.142 27.9676L55.4793 36.5577L52.4318 44.1777L49.522 48.1953" fill="#F0D6B7"/>
<path fill-rule="evenodd" clip-rule="evenodd" d="M42.7352 74.3811L22.9224 75.2125V78.5374L24.5851 90.1755L23.7537 91.146L9.89901 86.4353L8.92851 84.7726L7.54322 69.1169L4.35695 59.6955L3.66431 57.4789L14.7475 49.8589L18.2121 48.4731L21.2597 52.2138L23.892 54.5691L26.9409 55.5387L28.3257 55.9544L29.9884 63.1587L31.2354 64.6832L34.4217 63.5744L32.2051 67.8699L44.2588 73.5502L42.7348 74.3816" fill="#335061"/>
<path fill-rule="evenodd" clip-rule="evenodd" d="M9.89948 26.0281L13.5014 24.7811L16.4112 26.1668L17.7969 29.2148L19.4592 28.9374L19.8748 27.2752L19.0435 24.0889L19.8748 16.468L19.1822 12.3117L21.6758 9.40241L27.0791 5.10738L25.5547 3.029L17.9352 6.77009L14.7484 9.2637L12.9475 13.1431L10.1764 16.8841L9.34509 21.3179L9.89948 26.0281Z" fill="#6D6B6D"/>
<path fill-rule="evenodd" clip-rule="evenodd" d="M15.5793 13.0072C15.5793 13.0072 17.6577 7.88125 25.9703 5.38719C34.2834 2.89313 26.386 3.58578 26.386 3.58578L17.3807 7.04989L13.9166 10.5136L12.393 13.2846L15.5793 13.0072ZM11.423 25.0587C11.423 25.0587 8.51325 15.3599 19.5974 13.9746L19.1817 12.3119L11.5617 14.1133L9.3446 21.3176L9.89899 26.0283L11.423 25.0587Z" fill="#DCD9D8"/>
<path fill-rule="evenodd" clip-rule="evenodd" d="M15.8568 37.9433L17.6711 36.1858C17.6711 36.1858 18.4896 36.2806 18.6283 37.2502C18.7665 38.2207 19.1822 46.9491 25.1395 51.6598C25.6833 52.0896 20.7062 50.9667 20.7062 50.9667L16.2729 44.0398M41.3505 35.311C41.3505 35.311 41.6735 31.1113 42.804 31.4343C43.9354 31.7574 43.9354 32.8879 43.9354 32.8879C43.9354 32.8879 41.1887 34.6649 41.3505 35.311Z" fill="#F7E4CD"/>
<path d="M52.8507 19.9321C52.8507 19.9321 50.5671 20.4142 50.3567 22.4261C50.1466 24.4381 52.8507 22.8418 53.2664 22.7031M36.0849 20.0708C36.0849 20.0708 33.0365 20.4865 33.0365 22.4257C33.0365 24.3658 36.5006 24.2271 37.4702 23.3962" fill="#F7E4CD"/>
<path fill-rule="evenodd" clip-rule="evenodd" d="M17.2421 29.0765C17.2421 29.0765 11.977 25.8898 11.4231 28.9383C10.8691 31.9858 9.62167 34.2029 12.2544 37.3892L10.4535 36.8352L8.79076 32.5406L8.23682 28.3839L11.4231 25.0585L15.0255 25.3359L17.1038 26.9981L17.2421 29.0765ZM19.7362 20.3482C19.7362 20.3482 22.0915 8.1562 34.007 5.80085C43.8166 3.86206 48.97 6.21652 50.9097 8.43316C50.9097 8.43316 42.1814 -1.95741 33.8683 1.22885C25.5552 4.41555 19.4596 10.2346 19.5979 13.9748C19.8337 20.346 19.7362 20.3482 19.7362 20.3482ZM51.8802 9.81624C51.8802 9.81624 47.8626 9.67798 47.7234 13.2804C47.7234 13.2804 47.7234 13.8343 48.0004 14.3882C48.0004 14.3882 51.1875 10.7859 53.1268 12.726" fill="#F7E4CD"/>
<path fill-rule="evenodd" clip-rule="evenodd" d="M34.2861 14.7658C34.2861 14.7658 33.5948 9.2366 28.8801 12.4512C25.8321 14.5296 26.1095 17.4389 26.6635 17.9928C27.2174 18.5468 27.0667 19.6635 27.4886 18.8969C27.9105 18.1311 27.7714 15.637 29.2958 14.9448C30.8198 14.2517 33.3187 13.478 34.2861 14.7658Z" fill="#F7E4CD"/>
<path fill-rule="evenodd" clip-rule="evenodd" d="M21.2601 52.2136L8.23675 58.0327C8.23675 58.0327 13.6401 79.5078 10.8691 86.1582L8.92939 85.4656L8.79069 77.2912L5.18875 61.7742L3.66431 57.4792L17.242 48.3356L21.2601 52.2145M22.5993 64.0915L24.4472 66.3458V74.6593H22.2302C22.2302 74.6593 21.9532 68.8398 21.9532 68.1467C21.9532 67.4541 22.2297 64.9605 22.2297 64.9605M22.6454 75.9059L16.4107 76.1829L18.2121 77.4294L22.6454 78.1225" fill="#49728B"/>
<path fill-rule="evenodd" clip-rule="evenodd" d="M45.3658 74.5195L53.1246 74.1039C53.1246 74.1039 56.3108 66.0682 56.3108 65.6529C56.3108 65.2368 59.0818 54.0144 59.0818 54.0144L52.8471 47.5028L51.6005 46.3944L48.2751 49.7194V62.6045L45.3658 74.5195Z" fill="#335061"/>
<path fill-rule="evenodd" clip-rule="evenodd" d="M48.8314 73.5505L43.9824 74.5201L44.6751 78.3999C46.476 79.2313 49.5245 77.0142 49.5245 77.0142M48.9688 49.3048L58.6671 56.5091L58.9446 53.1841L51.6015 46.395L48.9688 49.3048Z" fill="#49728B"/>
<path d="M45.0512 73.4136L42.0032 65.6549L38.8169 61.0829C38.8169 61.0829 39.5091 59.1432 40.4787 59.1432H43.6659L46.7139 60.2516L46.4369 65.3779L45.0512 73.4141" fill="white"/>
<path fill-rule="evenodd" clip-rule="evenodd" d="M45.645 70.7793C45.645 70.7793 41.7652 63.298 41.7652 62.1897C41.7652 62.1897 42.4578 60.527 43.4279 60.9427C44.3984 61.3583 46.4763 62.4667 46.4763 62.4667V59.8343L41.7656 58.8638L38.5793 59.28L43.9827 72.0263L45.0906 72.165" fill="#DCD9D8"/>
<path d="M28.7007 52.493L24.8626 52.0756L21.2598 50.9673V52.2143L23.02 54.1553L28.562 56.6489" fill="white"/>
<path fill-rule="evenodd" clip-rule="evenodd" d="M22.5077 52.9074C22.5077 52.9074 26.8032 54.7088 28.1885 54.2932L28.3263 55.9541L24.4478 55.1245L22.092 53.4618L22.5077 52.9074Z" fill="#DCD9D8"/>
<path fill-rule="evenodd" clip-rule="evenodd" d="M50.5773 59.6143C48.2264 59.5452 46.1023 59.266 44.2429 58.7413C44.3692 57.9791 44.1325 57.231 44.3227 56.682C44.8411 56.3084 45.7097 56.3142 46.4932 56.2268C45.8156 55.8936 44.8637 55.762 44.0825 55.9543C44.0639 55.4252 43.8263 55.0973 43.6827 54.6834C45.0042 54.2118 48.1249 51.1186 49.8798 52.1432C50.716 52.6302 51.0714 55.4123 51.1361 56.7653C51.1902 57.8878 51.0342 59.02 50.5773 59.6147" fill="#D33833"/>
<path d="M50.5773 59.6143C48.2264 59.5452 46.1023 59.266 44.2429 58.7413C44.3692 57.9791 44.1325 57.231 44.3227 56.682C44.8411 56.3084 45.7097 56.3142 46.4932 56.2268C45.8156 55.8936 44.8637 55.762 44.0825 55.9543C44.0639 55.4252 43.8263 55.0973 43.6827 54.6834C45.0042 54.2118 48.1249 51.1186 49.8798 52.1432C50.716 52.6302 51.0714 55.4123 51.1361 56.7653C51.1902 57.8878 51.0342 59.02 50.5773 59.6147V59.6143Z" stroke="#D33833" stroke-width="2.1382"/>
<path fill-rule="evenodd" clip-rule="evenodd" d="M39.3345 55.7715C39.3283 55.9492 39.3212 56.1287 39.3137 56.3077C38.5798 56.7903 37.3948 56.7845 36.5892 57.1896C37.7768 57.2414 38.7119 57.5277 39.5202 57.9305L39.4679 59.2746C38.1225 60.1955 36.8932 61.567 35.3094 62.4307C34.5604 62.8393 31.9317 63.8905 31.1349 63.7048C30.6842 63.6002 30.6434 63.0405 30.4631 62.5131C30.0793 61.384 29.1952 59.5861 29.1181 57.8866C29.0197 55.7391 28.8035 52.1403 31.1167 52.5826C32.9837 52.9389 35.1551 53.799 36.6007 54.5887C37.4839 55.0717 37.9944 55.6682 39.3345 55.7715Z" fill="#D33833"/>
<path d="M39.3345 55.7715C39.3283 55.9492 39.3212 56.1287 39.3137 56.3077C38.5798 56.7903 37.3948 56.7845 36.5892 57.1896C37.7768 57.2414 38.7119 57.5277 39.5202 57.9305L39.4679 59.2746C38.1225 60.1955 36.8932 61.567 35.3094 62.4307C34.5604 62.8393 31.9317 63.8905 31.1349 63.7048C30.6842 63.6002 30.6434 63.0405 30.4631 62.5131C30.0793 61.384 29.1952 59.5861 29.1181 57.8866C29.0197 55.7391 28.8035 52.1403 31.1167 52.5826C32.9837 52.9389 35.1551 53.799 36.6007 54.5887C37.4839 55.0717 37.9944 55.6682 39.3345 55.7715Z" stroke="#D33833" stroke-width="2.1382"/>
<path fill-rule="evenodd" clip-rule="evenodd" d="M40.6707 58.3338C40.4655 57.1639 40.228 56.8302 40.3197 55.8101C43.4395 53.7304 44.0249 59.3823 40.6707 58.3338Z" fill="#D33833"/>
<path d="M40.6707 58.3338C40.4655 57.1639 40.228 56.8302 40.3197 55.8101C43.4395 53.7304 44.0249 59.3823 40.6707 58.3338Z" stroke="#D33833" stroke-width="2.1382"/>
<path fill-rule="evenodd" clip-rule="evenodd" d="M45.1886 59.2806C45.1886 59.2806 44.2181 57.8948 44.9112 57.4792C45.6043 57.0635 46.297 57.4792 46.7126 56.7865C47.1283 56.0939 46.7126 55.6782 46.8513 54.8468C46.9901 54.0155 47.6831 53.8768 48.3758 53.7385C49.068 53.5998 51.0081 53.3228 51.2851 54.0155L50.4537 51.5219L48.791 50.9679L43.5264 54.0155L43.249 55.5399V58.5875M30.6404 63.853C30.4738 61.6904 30.2978 59.5314 30.102 57.3715C29.8086 54.1458 30.8766 54.7086 33.6725 54.7086C34.0996 54.7086 36.3017 55.2182 36.4594 55.5399C37.215 57.0834 35.196 56.7404 37.3298 57.9042C39.1312 58.8862 42.3135 57.3077 41.5854 55.1243C41.1781 54.639 39.4631 54.9731 38.8485 54.6545L35.6015 52.9705C34.2242 52.2562 31.0415 51.2148 29.5733 52.2132C25.853 54.7436 29.8082 61.0647 31.135 63.7041" fill="#EF3D3A"/>
<path fill-rule="evenodd" clip-rule="evenodd" d="M34.2862 14.7663C30.5101 13.8867 28.6338 16.3466 27.4891 18.8978C26.4672 18.6501 26.8736 17.2604 27.132 16.5518C27.8078 14.6932 30.5318 12.2186 32.7573 12.5546C33.715 12.6986 35.0112 13.5747 34.2862 14.7663ZM52.6868 19.0649L52.8658 19.072C53.7193 20.8446 54.458 22.7227 55.5345 24.2874C54.813 25.967 50.0739 27.4533 50.1471 24.4372C51.1721 23.9897 52.9411 24.3459 53.85 23.7738C53.3245 22.3318 52.5662 21.1043 52.6868 19.0649ZM36.2192 19.1136C37.0289 20.5982 37.2926 22.1572 38.4434 23.2793C38.9619 23.7845 39.9696 24.4 39.4698 25.8044C39.3532 26.1354 38.4997 26.8741 38.0074 27.019C36.2082 27.5508 32.0155 27.1289 33.4354 24.8857C34.9235 24.9553 36.9234 25.8518 38.0353 24.7718C37.1813 23.4065 35.6587 20.705 36.2192 19.1136ZM52.0087 34.1972C49.2998 35.9375 46.2788 37.8297 41.8397 37.391C40.8914 36.5667 40.5298 34.7312 41.4511 33.5192C41.9306 34.3439 41.6292 35.8608 42.9662 36.089C45.4851 36.5198 48.4166 34.5482 50.2282 33.8591C51.3516 31.9646 50.1311 31.268 49.1189 30.0493C47.0472 27.5517 44.2678 24.4558 44.3684 20.7165C45.2059 20.1094 45.2782 21.6436 45.3987 21.9228C46.48 24.455 49.2032 27.6931 51.1907 29.8605C51.6782 30.3945 52.482 30.9064 52.5711 31.2596C52.829 32.2855 51.9006 33.5152 52.0083 34.1977M16.2942 32.3652C15.4452 31.8804 15.2431 29.7462 14.246 29.685C12.8213 29.5986 13.0809 32.4547 13.0867 34.1245C12.106 33.2342 11.9336 30.4933 12.6542 29.0859C11.833 28.6826 11.4665 29.5304 11.011 29.8291C11.5959 25.577 17.2311 27.857 16.2942 32.3652ZM53.7326 35.968C52.4714 38.3686 50.6877 41.012 46.9869 41.0887C46.9116 40.3132 46.854 39.1339 46.9909 38.6673C49.82 38.3952 51.5669 36.9554 53.7326 35.968ZM36.0061 37.5244C38.3663 38.7652 42.7039 38.8991 45.9119 38.8051C46.0838 39.5079 46.0798 40.3761 46.0865 41.2336C41.9629 41.4388 37.0874 40.4182 36.0061 37.5244ZM35.5572 39.8385C37.1893 43.9364 42.7987 43.4644 47.5294 43.3514C47.3211 43.8832 46.8695 44.5125 46.3085 44.7394C44.7929 45.3562 40.6118 45.8242 38.5072 44.7066C37.1729 43.9971 36.3154 42.3938 35.5842 41.4538C35.231 41 33.4721 39.8408 35.5572 39.8385Z" fill="#231F20"/>
<path fill-rule="evenodd" clip-rule="evenodd" d="M51.8138 62.4425C49.8985 65.7227 48.0661 69.092 45.7936 71.9854C46.7464 69.1846 47.1541 64.4961 47.2976 60.9221C49.2909 59.9892 50.9975 61.1326 51.8138 62.4425Z" fill="#81B0C4"/>
<path fill-rule="evenodd" clip-rule="evenodd" d="M44.9493 52.0423C43.9628 52.6862 43.1231 53.49 42.1756 54.1774C40.0751 54.2815 38.9286 54.032 37.3851 52.8257C37.4104 52.7287 37.5655 52.7721 37.5713 52.6529C39.8203 53.6553 42.6786 52.2452 44.9493 52.0423Z" fill="#F0D6B7"/>
<path fill-rule="evenodd" clip-rule="evenodd" d="M33.1456 67.3698C33.7633 64.6932 36.1843 63.3061 38.3823 61.8317C40.6512 64.7113 42.0312 68.4147 43.5508 71.9888C39.9604 70.9061 36.2924 69.1499 33.1456 67.3698Z" fill="#81B0C4"/>
<path fill-rule="evenodd" clip-rule="evenodd" d="M45.7691 88.757C45.6774 90.9462 45.9845 94.456 46.0873 96.7519C47.5422 96.7537 48.1661 96.4338 49.2523 96.0673C49.3746 93.3658 48.397 90.866 48.1152 88.399C47.54 88.2456 46.4848 88.804 45.7691 88.757ZM23.1108 76.3089C24.0702 85.1303 25.4599 92.5455 28.0094 100.357C33.6666 102.075 40.4872 102.224 45.4877 100.674C44.5695 96.2658 44.9706 90.8983 44.4339 86.1934C44.0297 82.6571 44.2358 79.099 43.6814 75.4913C37.6222 74.231 29.057 75.1966 23.1108 76.3089ZM45.1137 75.5467C45.0627 79.3352 45.2834 83.0723 45.5728 86.8657C47.0272 86.6472 48.0146 86.5014 49.3662 86.2054C48.9275 82.5534 48.9811 78.444 48.0872 75.2134C47.0538 75.2236 46.144 75.2015 45.1137 75.5467ZM52.4935 74.936C51.8031 74.7778 50.9992 74.9298 50.3398 74.9427C50.65 78.031 51.402 81.4388 51.667 84.6805C52.7049 84.7128 53.2593 84.2232 54.1132 84.0587C54.1584 81.2133 53.8642 77.2927 52.4935 74.936ZM63.6676 85.1453C65.8311 84.6198 67.1915 81.9702 66.5862 79.2492C66.1803 77.4203 65.457 73.9766 64.6828 72.8067C64.1112 71.9412 62.5601 70.8081 61.322 71.6013C59.3079 72.8909 55.7595 73.2653 54.2905 74.8266C55.027 77.279 55.2557 80.6474 55.5597 83.7543C58.0759 83.9112 61.1722 83.0621 63.2648 83.963C61.8037 84.4363 59.9079 84.4403 58.6458 85.1298C59.6774 85.6284 62.0926 85.5273 63.6676 85.1453ZM43.5489 71.9882C42.0289 68.415 40.6494 64.7116 38.3804 61.832C36.1824 63.3064 33.7615 64.693 33.1437 67.3701C36.2901 69.1502 39.959 70.9064 43.5494 71.9886L43.5489 71.9882ZM47.2949 60.9222C47.1509 64.4962 46.7432 69.1843 45.7904 71.9855C48.0629 69.0917 49.8953 65.7229 51.8106 62.4427C50.9943 61.1323 49.2877 59.9894 47.2949 60.9222ZM43.0486 59.4133C42.1876 59.3202 41.4568 60.4028 40.3378 59.9349C40.0808 60.2185 39.8482 60.5256 39.5867 60.8026C42.059 63.7819 43.1824 68.0091 45.092 71.5104C46.1165 68.1469 45.9982 64.4626 46.2242 60.7915C44.8163 60.8806 44.0351 59.5183 43.0486 59.4133ZM40.3183 55.8096C40.2262 56.8302 40.4637 57.1638 40.6689 58.3333C44.0235 59.3823 43.4377 53.7299 40.3183 55.8096ZM36.5985 54.5887C35.1534 53.799 32.982 52.9388 31.115 52.5825C28.8008 52.1398 29.018 55.7391 29.1164 57.8862C29.193 59.5861 30.0771 61.384 30.4613 62.5131C30.6412 63.0405 30.682 63.6002 31.1327 63.7052C31.9295 63.8904 34.5583 62.8393 35.3072 62.4312C36.8915 61.567 38.1203 60.1954 39.4657 59.2746C39.4835 58.8266 39.5003 58.379 39.5185 57.9309C38.7093 57.5277 37.7747 57.2418 36.587 57.1896C37.3927 56.7845 38.5776 56.7903 39.3115 56.3081C39.3186 56.1286 39.3261 55.9492 39.3323 55.7719C37.9922 55.6682 37.4822 55.0717 36.5985 54.5887ZM22.7935 52.0809C21.5939 53.2987 26.1579 54.9587 27.611 55.0482C27.603 54.2776 28.0501 53.5513 27.9602 52.9982C26.2341 52.6951 23.9665 52.8954 22.7935 52.0809ZM37.5704 52.6526C37.5646 52.7722 37.4095 52.7288 37.3842 52.8254C38.9273 54.0317 40.0742 54.2811 42.1747 54.177C43.1217 53.4897 43.9619 52.6858 44.9484 52.0419C42.6777 52.2449 39.8194 53.655 37.5708 52.653L37.5704 52.6526ZM51.1335 56.7659C51.0688 55.413 50.7134 52.6304 49.8771 52.1434C48.1218 51.1188 45.0016 54.212 43.6801 54.6835C43.8237 55.0974 44.0612 55.4254 44.0794 55.9545C44.8611 55.7622 45.813 55.8938 46.4901 56.227C45.7071 56.3148 44.8385 56.309 44.32 56.6821C44.1299 57.2312 44.3665 57.9792 44.2402 58.7415C46.0997 59.2662 48.2237 59.5453 50.5747 59.6145C51.032 59.0202 51.1875 57.8884 51.1335 56.7659ZM20.774 53.2584C20.3973 52.9898 17.8492 49.6746 17.5 49.812C12.889 51.6302 8.57759 54.7748 4.72483 57.7488C8.39856 65.6312 9.8809 75.2883 10.1432 84.5958C14.3514 86.5639 18.0473 89.4014 23.7578 89.6974C23.097 85.0222 22.4939 80.8512 22.1185 76.4494C20.6841 75.8445 18.6256 76.4769 17.2824 76.2619C17.2713 74.644 19.3333 75.5529 19.5048 74.4654C19.6342 73.642 18.3704 73.58 18.7821 72.2838C19.8314 72.6653 20.3827 73.5082 21.5021 73.8246C22.5254 71.5867 21.4879 67.6271 21.6351 65.757C21.6634 65.406 21.811 63.8116 22.5976 64.0912C23.2933 64.3389 22.5577 68.3317 22.6339 70.1017C22.7035 71.7325 22.4372 73.311 23.0975 74.3347C28.7662 73.5581 34.473 73.0906 40.1925 72.9343C38.879 72.3706 37.3187 71.8375 35.6081 70.8732C34.6806 70.3503 31.7571 69.2623 31.4899 68.3818C31.0627 66.9783 32.6102 66.2303 32.8747 65.0271C30.0895 66.5463 29.5462 63.5709 28.8872 61.4633C28.2903 59.5542 27.9504 58.1281 27.8037 57.0274C25.4045 55.8836 22.8391 54.7252 20.774 53.2584ZM48.6966 50.213C52.5387 48.35 53.2309 57.1754 51.7251 60.0186C51.9577 60.8668 52.7581 61.1912 53.0851 61.9534C50.9411 65.7942 48.5601 69.3789 46.3722 73.174C47.9995 72.161 50.3238 72.9928 52.2387 72.2346C52.9389 71.958 53.445 70.3556 53.975 69.0736C55.4329 65.547 56.9631 61.1013 57.6443 57.7351C57.7976 56.9684 58.2168 55.2977 58.1229 54.6153C57.9554 53.3931 56.2971 52.4868 55.4542 51.7312C53.9005 50.3353 52.922 49.1073 51.3014 47.8023C50.6442 48.7723 49.2337 49.4242 48.6966 50.213ZM11.9876 16.1444C10.1574 18.1585 10.5403 21.9328 10.7619 24.6179C14.0709 22.5364 18.4625 24.7827 18.4213 28.3226C20.0012 28.281 19.0116 26.3497 18.7258 25.1058C17.792 21.0425 20.299 16.6283 18.8392 12.912C16.0053 13.127 13.6765 14.2845 11.9876 16.1444ZM25.0863 4.45403C20.942 5.62838 15.6308 8.64004 13.9278 12.363C15.2466 12.1715 16.1617 11.5063 17.4628 11.4239C17.9547 11.392 18.5986 11.6304 19.1636 11.4895C20.2892 11.2103 21.2398 8.68568 22.0893 7.7462C22.9171 6.82887 23.9124 6.43713 24.5935 5.6009C25.0314 5.38952 25.6784 5.40414 25.7032 4.74695C25.5135 4.54443 25.3137 4.38932 25.0863 4.45403ZM46.6594 5.5588C42.3577 3.13165 35.0772 1.30631 30.5012 3.58721C26.8093 5.42851 21.8185 8.47385 20.1168 12.3337C21.7064 16.0584 19.6462 19.4711 19.5141 23.253C19.4446 25.2649 20.462 27.0215 20.54 29.2116C19.9958 30.109 18.334 30.2198 17.1836 30.1582C16.7967 28.2207 16.1187 26.0426 14.1232 25.8241C11.2999 25.5153 9.23523 27.852 9.10716 30.2933C8.9556 33.165 11.3132 37.9244 14.6541 37.5943C15.945 37.4671 16.2623 36.1731 17.6684 36.1864C18.4306 37.7073 16.4927 38.185 16.2933 39.2725C16.2415 39.5534 16.4542 40.6516 16.5778 41.1665C17.1849 43.6739 18.5374 46.9195 19.8691 48.8286C21.5593 51.25 24.8798 51.6151 28.453 51.8522C29.0911 50.478 31.4411 50.591 32.9731 50.9504C31.1371 50.2236 29.431 48.4612 28.0165 46.9013C26.3923 45.1114 24.7469 43.1917 24.6636 40.8523C27.7333 45.111 30.2694 48.8304 35.8514 50.7036C40.0746 52.1199 45.0078 50.0544 48.2534 47.7752C49.6002 46.8282 50.404 45.325 51.3613 43.9491C54.9428 38.797 56.6144 31.4437 56.2466 24.3161C56.095 21.3767 56.1017 18.447 55.1156 16.4696C54.0849 14.4019 50.5986 12.5522 48.557 14.4223C48.179 12.4117 50.2543 11.1678 52.692 11.8919C50.954 9.64821 49.1295 6.95295 46.659 5.55924L46.6594 5.5588ZM54.6734 71.8809C58.0347 70.2102 64.315 67.3834 66.4222 71.8871C67.2 73.5472 68.1124 76.3537 68.5152 78.0673C69.0842 80.4852 67.8984 85.5668 65.4132 86.3782C63.2182 87.0948 60.6568 87.0509 58.0125 86.52C57.7014 86.2608 57.3549 85.8096 57.1129 85.339C55.2247 85.2659 53.4569 85.4405 51.9657 86.2164C52.1071 87.6124 51.1627 87.8366 50.2773 88.1242C49.6214 90.7264 51.5904 94.1249 51.1193 96.498C50.7825 98.1886 48.7028 98.4501 47.1744 98.7661C47.1243 99.7056 47.2408 100.49 47.3454 101.285C46.9958 102.573 45.4279 103.306 43.9424 103.486C39.0549 104.073 31.6339 104.337 26.9325 102.647C25.6208 99.429 24.5873 95.5151 23.4945 91.8409C18.9097 92.3306 15.2009 89.8627 11.7054 88.2456C10.4951 87.6846 8.82044 87.3753 8.36842 86.4119C7.9297 85.479 8.10962 83.6909 8.00061 82.0025C7.72364 77.6893 7.48655 73.5295 6.34765 69.113C5.83625 67.1312 4.94507 65.3825 4.32333 63.473C3.74856 61.7031 2.74438 59.5157 2.48204 57.7519C2.09339 55.136 4.55643 54.9902 6.13139 53.8566C8.56607 52.1044 10.4769 51.1348 13.1137 49.5532C13.8945 49.0847 16.2499 47.8989 16.5175 47.3525C17.0502 46.2698 15.6038 44.7432 15.2169 43.8946C14.6053 42.5518 14.2863 41.412 14.1985 40.0879C11.9863 39.7382 10.3099 38.4216 9.29727 36.9375C7.62171 34.4811 6.45977 29.9366 7.90932 26.4796C8.02321 26.2075 8.59 25.6721 8.67375 25.2542C8.83861 24.4309 8.36355 23.3358 8.33341 22.4602C8.18141 17.9666 9.09386 14.0957 12.1184 12.741C13.3463 7.84945 17.7411 6.2222 21.8819 3.7915C23.4298 2.88305 25.136 2.30252 26.8984 1.65375C33.2191 -0.672798 42.9183 -0.234528 48.1639 3.73302C50.3885 5.41566 53.9444 8.96797 55.2162 11.54C58.5753 18.3304 58.3369 29.6787 55.9873 37.939C55.6718 39.0482 55.2136 40.6782 54.5737 42.0103C54.1278 42.9409 52.7417 44.8021 52.9101 45.6233C53.0833 46.4724 56.0706 48.7404 56.711 49.3582C57.8645 50.4705 60.0559 51.9475 60.2332 53.3519C60.4237 54.8462 59.5751 56.89 59.1448 58.332C57.7067 63.1437 56.3033 67.5917 54.6729 71.8818" fill="#231F20"/>
<path fill-rule="evenodd" clip-rule="evenodd" d="M32.2504 38.5724C32.4325 38.3296 33.4353 37.9609 34.8384 38.6362C34.8384 38.6362 33.1757 38.9136 33.3139 41.6855L32.6208 41.5468C32.6208 41.5468 31.9051 39.0333 32.2504 38.5724Z" fill="#F7E4CD"/>
<path fill-rule="evenodd" clip-rule="evenodd" d="M44.3997 62.3974C44.3996 62.5995 44.3193 62.7934 44.1763 62.9363C44.0333 63.0792 43.8394 63.1594 43.6372 63.1594C43.4351 63.1593 43.2412 63.0789 43.0983 62.9359C42.9554 62.793 42.8752 62.5991 42.8752 62.3969C42.8753 62.1948 42.9557 62.0009 43.0986 61.858C43.2416 61.7151 43.4355 61.6349 43.6377 61.6349C43.8398 61.635 44.0337 61.7153 44.1766 61.8583C44.3195 62.0013 44.3997 62.1952 44.3997 62.3974ZM45.1619 65.9302C45.1619 66.0303 45.1422 66.1294 45.1039 66.2219C45.0656 66.3143 45.0094 66.3984 44.9387 66.4691C44.8679 66.5399 44.7839 66.5961 44.6914 66.6344C44.5989 66.6727 44.4998 66.6924 44.3997 66.6924C44.2996 66.6924 44.2005 66.6727 44.108 66.6344C44.0155 66.5961 43.9315 66.5399 43.8607 66.4691C43.7899 66.3984 43.7338 66.3143 43.6955 66.2219C43.6572 66.1294 43.6375 66.0303 43.6375 65.9302C43.6375 65.728 43.7178 65.5341 43.8607 65.3912C44.0037 65.2482 44.1975 65.1679 44.3997 65.1679C44.6018 65.1679 44.7957 65.2482 44.9387 65.3912C45.0816 65.5341 45.1619 65.728 45.1619 65.9302Z" fill="#1D1919"/>
<path d="M30.1909 63.0708H5.92528C5.73281 63.0708 5.57678 63.2268 5.57678 63.4193V64.1829C5.57678 64.3754 5.73281 64.5314 5.92528 64.5314H30.1909C30.3833 64.5314 30.5394 64.3754 30.5394 64.1829V63.4193C30.5394 63.2268 30.3833 63.0708 30.1909 63.0708Z" fill="black"/>
<path d="M56.2156 63.0708H34.7382C34.5458 63.0708 34.3899 63.2267 34.3899 63.4191V64.1831C34.3899 64.3755 34.5458 64.5314 34.7382 64.5314H56.2156C56.4079 64.5314 56.5639 64.3755 56.5639 64.1831V63.4191C56.5639 63.2267 56.4079 63.0708 56.2156 63.0708Z" fill="black"/>
<path d="M29.5267 62.3618H5.92486C5.73249 62.3618 5.57654 62.5178 5.57654 62.7101V63.4741C5.57654 63.6665 5.73249 63.8224 5.92486 63.8224H29.5267C29.7191 63.8224 29.875 63.6665 29.875 63.4741V62.7101C29.875 62.5178 29.7191 62.3618 29.5267 62.3618Z" fill="black"/>
<path d="M56.2155 62.3618H36.8626C36.6702 62.3618 36.5143 62.5178 36.5143 62.7101V63.4741C36.5143 63.6665 36.6702 63.8224 36.8626 63.8224H56.2155C56.4079 63.8224 56.5638 63.6665 56.5638 63.4741V62.7101C56.5638 62.5178 56.4079 62.3618 56.2155 62.3618Z" fill="black"/>
</g>
</g>
<defs>
<clipPath id="clip0_762_2675">
<rect width="64" height="64" fill="white"/>
</clipPath>
</defs>
</svg>
