<svg width="64" height="64" viewBox="0 0 64 64" fill="none" xmlns="http://www.w3.org/2000/svg">
<g clip-path="url(#clip0_734_7597)">
<path d="M44.1721 17.6569C43.8073 16.9116 42.746 16.9091 42.3778 17.6527L39.2757 23.9169C39.079 24.314 39.1713 24.7895 39.4717 25.1152C40.4369 26.1615 41.1627 27.421 41.5746 28.8187C41.7091 29.2752 42.1135 29.6126 42.5894 29.6126H44.2203C44.6962 29.6126 45.1006 29.2753 45.2349 28.8188C45.6203 27.508 46.2816 26.3108 47.1626 25.2995C47.4452 24.975 47.5286 24.5143 47.3394 24.1279L44.1721 17.6569Z" fill="#F97316"/>
<path d="M34.7341 22.328C35.0631 22.4057 35.4079 22.2533 35.5578 21.9504L42.3787 8.16518C42.7466 7.42167 43.8077 7.42358 44.1729 8.16842L50.9694 22.0297C51.1228 22.3425 51.4858 22.4931 51.8216 22.4003C52.046 22.3383 52.2245 22.1712 52.2993 21.9507L59.2921 1.32103C59.5119 0.672577 59.0297 0 58.345 0H28.1923C27.5076 0 27.0254 0.672588 27.2452 1.32104L34.2052 21.8529C34.2866 22.093 34.4874 22.2698 34.7341 22.328ZM32.5566 36.733C35.4676 36.733 37.8341 34.3665 37.8341 31.4555C37.8341 30.3874 37.5199 29.4031 36.9754 28.5654C36.8079 28.2932 36.5985 28.0419 36.3891 27.8115L36.3681 27.7906C36.1621 27.564 35.9156 27.3576 35.6684 27.1915C35.6602 27.186 35.6526 27.1797 35.6456 27.1728C35.6386 27.1658 35.631 27.1596 35.6228 27.154C35.5672 27.1163 35.4974 27.0653 35.4262 27.0269C35.4122 27.0193 35.3951 27.0165 35.3838 27.0052C35.3726 26.994 35.3554 26.9911 35.3414 26.9836C35.2679 26.944 35.1944 26.891 35.1209 26.8529C35.1148 26.8497 35.108 26.8482 35.1011 26.8482C35.0942 26.8482 35.0874 26.8466 35.0813 26.8435C35.0023 26.8033 34.9067 26.7465 34.8277 26.7063C34.8216 26.7032 34.8148 26.7016 34.8079 26.7016C34.801 26.7016 34.7942 26.7 34.7881 26.6969C34.7167 26.6612 34.6453 26.6261 34.5739 26.6045C34.5556 26.599 34.5362 26.597 34.519 26.5885C34.4964 26.5774 34.4711 26.572 34.4476 26.5628C34.407 26.5468 34.3616 26.5262 34.3202 26.5095C34.2898 26.4972 34.265 26.4909 34.2343 26.4795C34.2109 26.4709 34.1778 26.4684 34.154 26.461C34.086 26.4398 34.018 26.4088 33.95 26.3904C33.9426 26.3883 33.9349 26.3874 33.9272 26.3874C33.921 26.3874 33.9148 26.3868 33.9087 26.3856C33.8219 26.368 33.749 26.3505 33.6652 26.3329C33.6383 26.3273 33.6197 26.3273 33.5926 26.3224C33.5626 26.3169 33.526 26.2995 33.496 26.2939C33.4445 26.2842 33.3989 26.2803 33.3467 26.2699C33.3226 26.2651 33.2977 26.2628 33.2731 26.2609C33.2265 26.2574 33.1814 26.2411 33.135 26.2351C33.0877 26.2289 33.0375 26.2199 32.9964 26.2199H32.1796C32.0959 26.2199 32.033 26.2408 31.9493 26.2408C31.8936 26.2408 31.8383 26.2484 31.7832 26.2561C31.7382 26.2624 31.6932 26.2666 31.6482 26.2753C31.6255 26.2796 31.6025 26.2827 31.5794 26.2827C31.5607 26.2827 31.5421 26.2845 31.5239 26.2883C31.4316 26.3074 31.3536 26.3265 31.2582 26.3455C28.9545 26.911 27.2372 29.0052 27.2372 31.4764C27.2791 34.3455 29.6456 36.733 32.5566 36.733ZM54.7555 26.178H54.7137C54.6299 26.178 54.5671 26.1571 54.4833 26.1571H54.211C54.1299 26.1571 54.0488 26.1571 53.958 26.1668C53.9032 26.1727 53.8483 26.178 53.7932 26.178H53.7713C53.6875 26.178 53.6037 26.199 53.5199 26.199C53.4623 26.199 53.406 26.2259 53.3494 26.2372L53.1323 26.2807C53.1255 26.282 53.1185 26.2827 53.1116 26.2827C53.1046 26.2827 53.0977 26.2834 53.0908 26.2848C53.0036 26.3025 52.9303 26.3201 52.8457 26.3378C52.8206 26.3431 52.7955 26.3463 52.7711 26.3543C52.7408 26.3643 52.7085 26.3703 52.6776 26.3783C52.6204 26.393 52.5633 26.4096 52.5062 26.4347C52.484 26.4444 52.4599 26.4516 52.4382 26.4623C52.4204 26.4711 52.4005 26.475 52.3821 26.4824C52.2869 26.5205 52.1931 26.5587 52.1168 26.5969C52.0215 26.635 51.9436 26.6731 51.8514 26.7112C51.8331 26.7188 51.8132 26.7226 51.7954 26.7314C51.7737 26.7421 51.7495 26.7491 51.7279 26.7599C51.6583 26.795 51.5887 26.832 51.5191 26.8829C51.5128 26.8875 51.5107 26.8889 51.5032 26.891C51.4906 26.8946 51.4814 26.9149 51.47 26.9213C51.2877 27.024 51.1061 27.1462 50.944 27.288L50.9231 27.3089C50.6508 27.5183 50.4205 27.7487 50.1901 28C49.9597 28.2513 49.7713 28.5445 49.6037 28.8377C49.1639 29.6126 48.9126 30.5131 48.9126 31.4555C48.9126 34.3665 51.2791 36.733 54.1901 36.733C57.1011 36.733 59.4676 34.3665 59.4676 31.4555C59.4676 28.9005 57.6247 26.7435 55.2163 26.2618C55.0906 26.2199 54.9231 26.1989 54.7555 26.178ZM10.6718 36.733C13.5828 36.733 15.9493 34.3665 15.9493 31.4555C15.9493 28.5445 13.5828 26.178 10.6718 26.178C7.76078 26.178 5.39429 28.5445 5.39429 31.4555C5.39429 34.3665 7.76078 36.733 10.6718 36.733Z" fill="#F97316"/>
<path d="M54.2319 40.8175C50.1473 40.8175 46.6703 38.1842 45.3896 34.5408C45.2386 34.1114 44.8462 33.8018 44.3909 33.8018H42.4185C41.9633 33.8018 41.5708 34.1114 41.4198 34.5408C40.1391 38.1842 36.6621 40.8175 32.5775 40.8175C32.2991 40.8175 32.0271 40.8046 31.7616 40.7825C31.3764 40.7504 30.9992 40.9202 30.7807 41.2391C29.6415 42.9012 28.3119 44.4448 26.7764 45.8855C23.7817 48.7128 20.389 50.807 16.7241 52.1264L16.2821 52.2881C16.0168 52.3851 15.7228 52.3654 15.4728 52.2338L15.0696 52.0217C10.9383 49.897 8.69198 45.7209 9.09454 41.5421C9.1376 41.0951 8.84214 40.6776 8.40844 40.561C8.36159 40.5484 8.31495 40.5354 8.2685 40.522C7.972 40.4365 7.66837 40.5624 7.53036 40.8384C6.19005 43.6028 4.78691 46.451 4.28429 49.5086C3.73979 52.7756 3.50942 58.7442 8.11675 61.9274C10.1272 63.3096 12.2424 64.0007 14.6089 64.0007C19.1534 64.0007 24.0539 61.5714 29.2476 58.9955C33.3105 56.985 37.4989 54.8908 41.855 53.8227C43.5094 53.4248 45.1848 53.1735 46.7974 52.9431C49.7503 52.5243 52.5565 52.1054 54.8393 50.7861C57.2686 49.3829 58.923 47.0374 59.3838 44.3567C59.6047 43.1257 59.564 41.8829 59.2975 40.6908C59.1614 40.0818 58.467 39.8303 57.8921 40.073C56.7726 40.5457 55.5377 40.8175 54.2319 40.8175Z" fill="#F97316"/>
</g>
<defs>
<clipPath id="clip0_734_7597">
<rect width="64" height="64" fill="white"/>
</clipPath>
</defs>
</svg>
