<svg width="64" height="64" viewBox="0 0 64 64" fill="none" xmlns="http://www.w3.org/2000/svg">
<path d="M63.248 2L63.0347 2.104C63.0347 2.104 50.8672 7.90375 41.0516 9.1757C36.1078 9.81567 28.9055 10.4583 22.4791 10.829C19.5898 11.0049 16.6966 11.1089 13.8021 11.141C11.3569 11.1543 9.45561 11.0556 8.60231 10.8476C6.43066 10.3303 4.29329 9.67841 2.20257 8.89571L1.5306 8.62906L2.45323 11.7543L0 13.9115L0.661306 15.0768L1.83459 15.1648L4.63981 15.5141L5.07179 16.8847L6.76505 17.0367L7.61302 19.9113L7.85834 19.9273C7.85834 19.9273 11.4262 20.2339 12.5568 20.2339C13.5301 20.2339 15.0367 20.1246 15.4154 20.1006L15.4794 21.1565L16.2447 21.3005V22.1405L14.1141 24.0337L14.5301 24.1084C14.1567 24.1351 13.9248 24.1564 13.1968 24.1884C12.0528 24.2337 10.7062 24.2417 9.98892 24.1404C8.42632 23.9111 8.09833 23.9111 8.09833 23.9111H7.94634L7.62102 24.2577L7.49835 25.447H7.90367L8.05033 28.4096L15.8713 28.1082L15.3247 37.9265L15.2714 38.8518L9.29295 38.5131L9.23962 36.4839H10.6742L10.8262 35.3639L12.0635 35.0813L12.6581 34.2493L7.02904 32.8894L2.48256 34.2387L3.72251 35.2733H4.16516L4.23182 36.1639L5.5491 36.2386V38.2732L3.91984 38.6918L4.42648 39.7691L4.70647 39.9504V42.1503H5.6211V50.9393L4.11183 51.1686L4.37315 54.4938L5.26378 54.6431L5.11712 60.8882L9.92492 60.9762L9.07162 54.8351L14.3567 54.7071L13.9861 57.6057L13.3194 60.3576L20.2738 60.4456L20.3458 54.3658L23.871 54.0485L23.679 57.4964L23.511 60.1362H27.8655L27.7242 54.0032L28.1935 54.0752L28.3722 50.3633H27.7242L27.5695 49.4567L27.2202 46.0168L27.3509 42.3796H28.1375V39.2278L27.1669 39.2998L27.2735 37.1505L28.4228 37.0359L28.4815 36.0972L28.9401 36.0306L30.3001 34.9933L25.4283 33.9933L20.8711 35.004L21.6311 36.2546L22.2684 36.2012L22.4124 36.1906L22.5031 37.3692L23.5964 37.3159L23.607 39.1131L19.5379 39.0198L19.6792 36.6812L19.8365 34.212V30.9775L19.9645 27.9056L29.2574 27.4309L40.3397 26.791L40.4277 28.5882L40.0223 33.7853L39.8543 38.2998L36.3345 38.2385L36.3185 35.5239L37.8491 35.4679L37.9238 34.4733L38.6437 34.364L38.6117 34.212L39.017 34.1853L39.7903 33.1507L34.4306 31.8948L29.1321 33.0307L29.8201 34.2307L30.1934 34.204V34.4413H30.8494V35.5133L32.2467 35.5346L32.2307 37.8172H30.8254L30.7881 39.1638L31.2867 39.2224L31.2307 41.8303L32.2813 41.8837L32.164 51.5233L30.7667 51.8113L30.8094 52.9392H31.2787V55.5658H32.0493L31.8627 58.779L31.564 62.2828L37.3504 62.4348L37.1665 59.3096L36.7985 57.0484L36.7398 55.4671L40.273 55.4031L40.1637 58.075L40.1423 61.6215L42.8969 61.8402L46.2354 61.7068L47.6567 61.2882L46.99 59.2616L46.8487 56.5951L46.6354 55.0405L49.9233 54.9205L49.7713 56.899L49.7553 60.9389L51.7232 61.1229L53.4058 61.0802L54.5151 60.7336L54.0164 56.9364L53.8858 54.6378L54.5524 54.5658L54.5684 52.1792L54.7817 52.1339L54.7097 50.9873H53.9018L53.7711 49.582L53.7098 42.4036L54.3017 42.3876V39.9824L54.5577 40.0197V38.7905L53.6671 38.7185L53.6831 36.4892L55.203 36.3532L55.115 35.3879L55.8083 35.3319L55.7443 35.02L57.2909 34.2467L51.8085 33.1454L46.7927 34.1587L47.4114 35.3106L48.006 35.2573L48.0433 35.4626H48.5846L48.614 36.5986L50.0726 36.5826L50.1659 38.6438L45.7101 38.6118L45.1475 34.7266L44.6728 32.5241L44.2862 28.6069L44.4861 26.6176L54.7444 25.8363L54.7764 22.3272L55.3124 22.1938L55.251 21.1805L54.6137 20.8125H54.5151L53.5631 20.9459L51.4485 21.2552C50.0067 21.4662 48.5622 21.6582 47.1154 21.8312L46.6061 21.8845L46.5687 21.4099L44.4755 20.3166L44.4915 19.5833L45.2141 19.5619L45.2674 17.77C45.5074 17.754 46.2061 17.706 47.3234 17.6047C48.614 17.4847 50.0966 17.3247 50.9525 17.1247C52.5445 16.7514 54.8244 16.3754 54.8244 16.3754L55.027 16.3434L56.115 13.3889L58.2616 12.7649L58.4376 12.2742L63.184 10.9623L64 10.2903L62.0881 6.11983L62.2134 5.49052L63.1307 5.01054L63.9227 2.59464L63.248 2ZM39.5344 18.1647L39.5077 19.5673L40.593 19.6126L40.5503 20.4659L38.4464 21.8472L38.2171 22.5351L33.2573 22.7751L33.2839 22.2845L33.5826 21.8018L33.6093 21.3939L33.6119 20.7859L33.7906 20.3699L33.8733 19.9433V19.6979L34.0866 18.8366L39.5344 18.1647ZM25.7189 19.3939L25.6043 20.0979L26.1349 20.7219L26.0976 21.7538L26.5669 22.4738L26.4416 23.3484L26.5082 23.4418L21.5831 23.6391L21.6364 23.2338L19.8952 22.2898L19.8365 21.3699L20.6125 21.3325L20.6871 19.7379L25.7189 19.3939ZM36.4251 42.0597L39.7797 42.2783L39.6463 47.4461L40.1343 51.5553L36.5611 51.4299L36.4278 42.0597H36.4251ZM9.15695 42.2837L14.9167 42.5823L14.3994 46.0035V49.254L14.7647 50.6486L9.19162 50.91L9.15695 42.2837ZM50.1606 42.3103V50.9926L46.7181 51.2433L46.5821 46.6488L46.1607 42.4036L50.1606 42.3103ZM19.5085 42.513L23.6097 42.529L23.655 50.518L19.8418 50.5873L19.6392 48.1127L19.6232 45.3209L19.5085 42.513Z" fill="#DEE2E6"/>
</svg>
