<svg width="64" height="64" viewBox="0 0 64 64" fill="none" xmlns="http://www.w3.org/2000/svg">
<g clip-path="url(#clip0_762_2808)">
<path fill-rule="evenodd" clip-rule="evenodd" d="M28.4999 0V14V14.1523C28.4997 15.3397 28.4994 16.4937 28.6279 17.4455C28.7728 18.5184 29.126 19.7428 30.1475 20.7598C31.169 21.7768 32.3989 22.1283 33.4767 22.2725C34.4326 22.4006 35.5917 22.4003 36.7844 22.4H36.9374H50.9999V39.2C50.9999 47.1195 50.9999 51.0793 48.5286 53.5396C46.0573 56 42.0798 56 34.1249 56H22.8749C14.92 56 10.9425 56 8.47123 53.5396C5.99994 51.0793 5.99994 47.1195 5.99994 39.2V16.8C5.99994 8.8804 5.99994 4.92061 8.47123 2.4603C10.9425 0 14.92 0 22.8749 0H28.4999ZM34.1249 0.0129362V14C34.1249 15.3991 34.1308 16.1667 34.2028 16.6993L34.2057 16.7197L34.2262 16.7225C34.7611 16.7941 35.532 16.8 36.9374 16.8H50.987C50.9583 15.6474 50.8663 14.8847 50.5719 14.1766C50.1435 13.1475 49.3307 12.3382 47.7048 10.7196L40.2326 3.2804C38.6067 1.66183 37.7938 0.852544 36.76 0.426272C36.0487 0.132972 35.2826 0.0414682 34.1249 0.0129362ZM17.2499 30.8C17.2499 29.2536 18.5092 28 20.0624 28H36.9374C38.4908 28 39.7499 29.2536 39.7499 30.8C39.7499 32.3464 38.4908 33.6 36.9374 33.6H20.0624C18.5092 33.6 17.2499 32.3464 17.2499 30.8ZM20.0624 39.2C18.5092 39.2 17.2499 40.4536 17.2499 42C17.2499 43.5464 18.5092 44.8 20.0624 44.8H31.3124C32.8658 44.8 34.1249 43.5464 34.1249 42C34.1249 40.4536 32.8658 39.2 31.3124 39.2H20.0624Z" fill="#495057"/>
<g clip-path="url(#clip1_762_2808)">
<path d="M58.75 29H34.25C31.3505 29 29 31.3505 29 34.25V58.75C29 61.6495 31.3505 64 34.25 64H58.75C61.6495 64 64 61.6495 64 58.75V34.25C64 31.3505 61.6495 29 58.75 29Z" fill="#EAB308"/>
<path d="M51.1484 54.293C51.832 55.4551 52.7891 56.2754 54.3613 56.2754C55.7285 56.2754 56.6172 55.5918 56.6172 54.6348C56.6172 53.541 55.7285 53.1309 54.2246 52.4473L53.4043 52.1055C51.0117 51.0801 49.4395 49.8496 49.4395 47.1836C49.4395 44.7227 51.2852 42.8086 54.2246 42.8086C56.3438 42.8086 57.8477 43.5605 58.873 45.4746L56.3438 47.1152C55.7969 46.0898 55.1816 45.6797 54.2246 45.6797C53.2676 45.6797 52.6523 46.2949 52.6523 47.1152C52.6523 48.0723 53.2676 48.4824 54.7031 49.0977L55.5234 49.4395C58.3262 50.6699 59.8984 51.832 59.8984 54.6348C59.8984 57.5742 57.5742 59.2148 54.4297 59.2148C51.3535 59.2148 49.3711 57.7793 48.4141 55.8652L51.1484 54.293ZM39.5273 54.5664C40.0742 55.4551 40.4844 56.2754 41.6465 56.2754C42.7402 56.2754 43.4238 55.8652 43.4238 54.2246V42.877H46.7051V54.0879C46.7051 57.5059 44.7227 59.0098 41.7832 59.0098C39.1172 59.0098 37.6133 57.6426 36.8613 56.002L39.5273 54.5664Z" fill="#212529"/>
</g>
</g>
<defs>
<clipPath id="clip0_762_2808">
<rect width="64" height="64" fill="white"/>
</clipPath>
<clipPath id="clip1_762_2808">
<rect width="35" height="35" fill="white" transform="translate(29 29)"/>
</clipPath>
</defs>
</svg>
