<svg width="64" height="64" viewBox="0 0 64 64" fill="none" xmlns="http://www.w3.org/2000/svg">
<path d="M13.3347 8H17.6668C18.2191 8 18.6668 8.44772 18.6668 9V12.3381C18.6668 12.8904 18.2191 13.3381 17.6668 13.3381H14.3347C13.7824 13.3381 13.3347 13.7858 13.3347 14.3381V26.6698C13.3343 27.37 13.196 28.0633 12.9277 28.7101C12.6594 29.3568 12.2663 29.9444 11.7709 30.4393C11.2754 30.9341 10.6874 31.3265 10.0404 31.5941C9.39329 31.8617 8.69985 31.9993 7.99963 31.9989C8.7001 31.9985 9.39378 32.1361 10.041 32.4039C10.6883 32.6717 11.2765 33.0644 11.7719 33.5596C12.2674 34.0547 12.6604 34.6427 12.9285 35.2898C13.1967 35.9369 13.3347 36.6305 13.3347 37.331V49.6657C13.3347 50.218 13.7824 50.6657 14.3347 50.6657H17.6668C18.2191 50.6657 18.6668 51.1134 18.6668 51.6657V54.9978C18.6668 55.55 18.2191 55.9978 17.6668 55.9978H13.4586C13.3763 55.9978 13.2942 55.9878 13.2146 55.9669C10.4125 55.2325 7.99963 53.5552 7.99963 50.6657V39.9985C7.99963 38.5844 7.43785 37.2281 6.43789 36.2282C5.43793 35.2282 4.0817 34.6664 2.66754 34.6664H0.999999C0.447715 34.6664 0 34.2187 0 33.6664V30.3343C0 29.782 0.447715 29.3343 1 29.3343H2.66754C3.36801 29.3343 4.06162 29.1963 4.70873 28.9282C5.35584 28.66 5.94378 28.267 6.43895 27.7715C6.93412 27.2761 7.32682 26.6879 7.5946 26.0407C7.86239 25.3934 8.00002 24.6997 7.99963 23.9993V13.3381C7.99884 12.6368 8.13638 11.9423 8.40436 11.2943C8.67234 10.6464 9.06551 10.0576 9.56136 9.56173C10.0572 9.06589 10.646 8.67272 11.294 8.40474C11.942 8.13675 12.6365 7.99922 13.3377 8M50.6683 8C51.3688 8 52.0624 8.13802 52.7095 8.40617C53.3566 8.67432 53.9445 9.06735 54.4397 9.56279C54.9349 10.0582 55.3276 10.6464 55.5953 11.2937C55.8631 11.9409 56.0008 12.6346 56.0004 13.3351V23.9993C56 24.6997 56.1376 25.3934 56.4054 26.0407C56.6732 26.6879 57.0659 27.2761 57.561 27.7715C58.0562 28.267 58.6442 28.66 59.2913 28.9282C59.9384 29.1963 60.632 29.3343 61.3325 29.3343H63C63.5523 29.3343 64 29.782 64 30.3343V33.6664C64 34.2187 63.5523 34.6664 63 34.6664H61.3325C60.6322 34.6664 59.9389 34.8043 59.292 35.0723C58.645 35.3403 58.0572 35.733 57.5621 36.2282C57.067 36.7233 56.6742 37.3111 56.4062 37.958C56.1383 38.6049 56.0004 39.2983 56.0004 39.9985V50.6657C56.0004 52.0798 55.4386 53.4361 54.4386 54.436C53.4387 55.436 52.0824 55.9978 50.6683 55.9978H46.3332C45.7809 55.9978 45.3332 55.55 45.3332 54.9978V51.6657C45.3332 51.1134 45.7809 50.6657 46.3332 50.6657H49.6683C50.2206 50.6657 50.6683 50.218 50.6683 49.6657V37.331C50.6683 35.9173 51.2296 34.5615 52.229 33.5617C53.2283 32.5618 54.5837 31.9997 55.9974 31.9989C54.5832 31.9989 53.227 31.4371 52.227 30.4371C51.2271 29.4372 50.6653 28.0809 50.6653 26.6668V14.3351C50.6653 13.7828 50.2176 13.3351 49.6653 13.3351H46.3302C45.7779 13.3351 45.3302 12.8874 45.3302 12.3351V9C45.3302 8.44772 45.7779 8 46.3302 8H50.6683ZM31.9985 39.9985C32.706 39.9985 33.3845 40.2796 33.8847 40.7798C34.385 41.2801 34.666 41.9586 34.666 42.666C34.666 43.3735 34.385 44.052 33.8847 44.5523C33.3845 45.0525 32.706 45.3336 31.9985 45.3336C31.2915 45.3328 30.6138 45.0514 30.1142 44.5512C29.6146 44.051 29.334 43.373 29.334 42.666C29.334 41.9591 29.6146 41.281 30.1142 40.7809C30.6138 40.2807 31.2915 39.9993 31.9985 39.9985ZM21.3343 39.9985C22.0413 39.9993 22.719 40.2807 23.2186 40.7809C23.7182 41.281 23.9989 41.9591 23.9989 42.666C23.9989 43.373 23.7182 44.051 23.2186 44.5512C22.719 45.0514 22.0413 45.3328 21.3343 45.3336C20.984 45.3336 20.6371 45.2646 20.3135 45.1305C19.9899 44.9965 19.6958 44.8 19.4481 44.5523C19.2004 44.3046 19.0039 44.0105 18.8698 43.6869C18.7358 43.3632 18.6668 43.0164 18.6668 42.666C18.6668 42.3157 18.7358 41.9689 18.8698 41.6452C19.0039 41.3216 19.2004 41.0275 19.4481 40.7798C19.6958 40.5321 19.9899 40.3356 20.3135 40.2016C20.6371 40.0675 20.984 39.9985 21.3343 39.9985ZM42.6657 39.9985C43.3726 39.9993 44.0504 40.2807 44.55 40.7809C45.0496 41.281 45.3302 41.9591 45.3302 42.666C45.3302 43.373 45.0496 44.051 44.55 44.5512C44.0504 45.0514 43.3726 45.3328 42.6657 45.3336C41.9582 45.3336 41.2797 45.0525 40.7794 44.5523C40.2792 44.052 39.9981 43.3735 39.9981 42.666C39.9981 41.9586 40.2792 41.2801 40.7794 40.7798C41.2797 40.2796 41.9582 39.9985 42.6657 39.9985Z" fill="#EAB308"/>
</svg>
