<svg width="64" height="64" viewBox="0 0 64 64" fill="none" xmlns="http://www.w3.org/2000/svg">
<g clip-path="url(#clip0_762_5275)">
<path d="M14.667 61.8674C22.7672 61.8674 29.3338 55.3008 29.3338 47.2005C29.3338 39.1003 22.7672 32.5337 14.667 32.5337C6.56668 32.5337 0.000106812 39.1003 0.000106812 47.2005C0.000106812 55.3008 6.56668 61.8674 14.667 61.8674Z" fill="#EF4444"/>
<path d="M49.3332 61.8674C57.4335 61.8674 64 55.3008 64 47.2005C64 39.1003 57.4335 32.5337 49.3332 32.5337C41.2329 32.5337 34.6663 39.1003 34.6663 47.2005C34.6663 55.3008 41.2329 61.8674 49.3332 61.8674Z" fill="#A855F7"/>
<path d="M31.8972 32.3337C39.9974 32.3337 46.564 25.7672 46.564 17.6669C46.564 9.56659 39.9974 3 31.8972 3C23.7969 3 17.2303 9.56659 17.2303 17.6669C17.2303 25.7672 23.7969 32.3337 31.8972 32.3337Z" fill="#22C55E"/>
</g>
<defs>
<clipPath id="clip0_762_5275">
<rect width="64" height="64" fill="white"/>
</clipPath>
</defs>
</svg>
