<svg width="64" height="64" viewBox="0 0 64 64" fill="none" xmlns="http://www.w3.org/2000/svg">
<g clip-path="url(#clip0_762_2978)">
<path d="M56.9218 7.07819C47.4522 -2.3594 32.0961 -2.3594 22.6905 7.07819C16.0682 13.6365 14.0847 23.0741 16.644 31.3919L1.60787 46.4281C0.55214 47.5158 -0.183672 49.6593 0.0402704 51.1949L1.00003 58.1691C1.35194 60.4725 3.49539 62.648 5.7988 62.9679L12.773 63.9276C14.3086 64.1516 16.4521 63.4477 17.5398 62.328L20.1631 59.7047C20.803 59.0969 20.803 58.0731 20.1631 57.4333L13.9567 51.2269C13.029 50.2991 13.029 48.7635 13.9567 47.8357C14.8845 46.908 16.4201 46.908 17.3479 47.8357L23.5863 54.0741C24.1941 54.682 25.2178 54.682 25.8257 54.0741L32.608 47.3239C40.8939 49.9152 50.3315 47.8997 56.9218 41.3414C66.3594 31.9038 66.3594 16.5158 56.9218 7.07819ZM39.9981 31.9678C35.5833 31.9678 32.0002 28.3847 32.0002 23.9699C32.0002 19.555 35.5833 15.9719 39.9981 15.9719C44.413 15.9719 47.9961 19.555 47.9961 23.9699C47.9961 28.3847 44.413 31.9678 39.9981 31.9678Z" fill="#06B6D4"/>
</g>
<defs>
<clipPath id="clip0_762_2978">
<rect width="64" height="64" fill="white"/>
</clipPath>
</defs>
</svg>
