<svg width="64" height="64" viewBox="0 0 64 64" fill="none" xmlns="http://www.w3.org/2000/svg">
<g clip-path="url(#clip0_762_2980)">
<path d="M1.65955 0.000603016C0.190719 0.000603016 -1 1.19132 -1 2.66015V61.3405C-1 62.8093 0.190721 64 1.65955 64H56.6487C59.0091 64 60.1997 61.1538 58.5423 59.473L47.1272 47.8973L33.0996 33.7601C32.0707 32.7232 32.0707 31.0505 33.0996 30.0136L58.3838 4.53356C60.0494 2.85523 58.8606 0.000603016 56.4961 0.000603016H1.65955Z" fill="url(#paint0_linear_762_2980)"/>
<path d="M32.8956 0C32.1903 0 31.5138 0.280202 31.015 0.778964L-0.156341 31.9503C-0.655622 32.4496 -0.935868 33.127 -0.935305 33.833L-0.912868 62.0057C-0.912304 62.7141 -0.0576112 63.0705 0.446054 62.5724L31.3432 32.0138C31.3669 31.9904 31.367 31.9521 31.3435 31.9286C31.32 31.9052 31.32 31.8672 31.3433 31.8437L58.4441 4.53296C60.1097 2.85463 58.9209 0 56.5564 0H32.8956Z" fill="url(#paint1_linear_762_2980)"/>
</g>
<defs>
<linearGradient id="paint0_linear_762_2980" x1="-1.42825" y1="65.258" x2="63.3074" y2="3.57813" gradientUnits="userSpaceOnUse">
<stop stop-color="#0296D8"/>
<stop offset="1" stop-color="#8371D9"/>
</linearGradient>
<linearGradient id="paint1_linear_762_2980" x1="-0.938096" y1="64.3451" x2="65.3543" y2="4.14703" gradientUnits="userSpaceOnUse">
<stop stop-color="#CB55C0"/>
<stop offset="1" stop-color="#F28E0E"/>
</linearGradient>
<clipPath id="clip0_762_2980">
<rect width="64" height="64" fill="white"/>
</clipPath>
</defs>
</svg>
