<svg width="71" height="64" viewBox="0 0 71 64" fill="none" xmlns="http://www.w3.org/2000/svg">
<path d="M25.8614 2.23256H14.2223C8.2093 2.23256 5.23256 5.2093 5.23256 11.2223V22.8912C5.23256 29.0233 8.2093 32 14.2223 31.8512H25.8912C32.0233 32 35 29.0233 34.8512 22.8614V11.2223C35 5.2093 32.0233 2.23256 25.8614 2.23256ZM26.0995 25.3321C24.0754 25.3321 22.1107 24.5581 20.4735 23.1888C18.6279 24.5284 16.3953 25.3321 13.9842 25.3321C12.7637 25.3321 11.7516 24.32 11.7516 23.0995C11.7516 21.8791 12.7637 20.867 13.9842 20.867C17.0205 20.867 19.5507 18.7833 20.4735 15.9256H13.9842C12.7637 15.9256 11.7516 14.9135 11.7516 13.693C11.7516 12.4726 12.7637 11.4605 13.9842 11.4605H17.8242C17.9433 10.3293 18.866 9.43628 20.027 9.43628C21.1879 9.43628 22.1107 10.3293 22.2298 11.4605H23.0037C23.0335 11.4605 23.0633 11.4605 23.0633 11.4605H26.0698C27.2902 11.4605 28.3023 12.4726 28.3023 13.693C28.3023 14.9135 27.32 15.9256 26.0698 15.9256H25.0874C24.8195 17.3544 24.254 18.694 23.5098 19.9144C24.3135 20.5098 25.1767 20.867 26.0995 20.867C27.32 20.867 28.3321 21.8791 28.3321 23.0995C28.3321 24.32 27.32 25.3321 26.0995 25.3321Z" fill="#A855F7"/>
<path d="M26.0698 64C13.3591 64 3 53.6409 3 40.9302C3 39.7098 4.01209 38.6977 5.23256 38.6977C6.45302 38.6977 7.46512 39.7098 7.46512 40.9302C7.46512 49.7414 13.5972 57.1237 21.8428 59.0586L21.0391 57.7191C20.414 56.6474 20.7414 55.2781 21.813 54.653C22.8549 54.0279 24.254 54.3553 24.8791 55.427L28.0047 60.6363C28.4214 61.3209 28.4214 62.1842 28.0344 62.8688C27.6177 63.5535 26.8735 64 26.0698 64Z" fill="#A855F7"/>
<path d="M64.763 25.3023C63.5425 25.3023 62.5304 24.2902 62.5304 23.0698C62.5304 14.2586 56.3983 6.87628 48.1527 4.9414L48.9565 6.28093C49.5816 7.35256 49.2541 8.72186 48.1825 9.34698C47.1406 9.97209 45.7416 9.64465 45.1165 8.57302L41.9909 3.36372C41.5741 2.67907 41.5741 1.81581 41.9611 1.13116C42.3779 0.446512 43.122 0 43.9258 0C56.6365 0 66.9955 10.3591 66.9955 23.0698C66.9955 24.2902 65.9834 25.3023 64.763 25.3023Z" fill="#A855F7"/>
<path d="M49.645 31.5583C41.3101 31.5583 34.5231 38.3155 34.5231 46.6801C34.5231 55.015 41.2803 61.802 49.645 61.802C57.9799 61.802 64.7668 55.0448 64.7668 46.6801C64.7668 38.3155 58.0096 31.5583 49.645 31.5583ZM57.0273 53.8541C55.9259 54.3899 54.5864 53.9731 54.0208 52.842L53.5148 51.8299H45.805L45.2989 52.842C44.912 53.6159 44.1082 54.0624 43.3045 54.0624C42.9771 54.0624 42.6199 53.9731 42.3222 53.8243C41.2208 53.2587 40.7743 51.9192 41.3101 50.8178L47.6803 38.1071C48.0673 37.3629 48.8413 36.8866 49.6748 36.8866C50.5082 36.8866 51.2822 37.3629 51.6692 38.1369L58.0394 50.8476C58.5752 51.9489 58.1287 53.2885 57.0273 53.8541Z" fill="#A855F7"/>
<path d="M48.0349 47.3609H51.2795L49.6423 44.1162L48.0349 47.3609Z" fill="#A855F7"/>
</svg>
