<svg width="64" height="64" viewBox="0 0 64 64" fill="none" xmlns="http://www.w3.org/2000/svg">
<g clip-path="url(#clip0_763_2737)">
<path d="M63.1339 14.4785C63.157 14.5638 63.169 14.6518 63.169 14.7402V28.4776C63.169 28.8365 62.977 29.168 62.6657 29.3465L51.1356 35.9848V49.1426C51.1356 49.5007 50.9453 49.8312 50.6348 50.0115L26.5667 63.8666C26.5117 63.8979 26.4516 63.9179 26.3915 63.9392C26.3689 63.9467 26.3476 63.9605 26.3238 63.9668C26.1556 64.0111 25.9788 64.0111 25.8105 63.9668C25.783 63.9593 25.7579 63.9442 25.7316 63.9342C25.6765 63.9142 25.6189 63.8967 25.5664 63.8666L1.50332 50.0115C1.19218 49.8328 1 49.5014 1 49.1426V7.93029C1 7.84014 1.01252 7.7525 1.03506 7.66736C1.04257 7.63856 1.0601 7.61227 1.07011 7.58347C1.0889 7.53088 1.10642 7.47705 1.13397 7.42822C1.15275 7.39566 1.18029 7.36937 1.20283 7.33932C1.23163 7.29926 1.25792 7.25794 1.29173 7.22288C1.32052 7.19408 1.35808 7.1728 1.39064 7.14776C1.42695 7.11771 1.4595 7.08516 1.50082 7.06137H1.50207L13.5342 0.133807C13.8443 -0.0446025 14.2258 -0.0446025 14.5358 0.133807L26.568 7.06137H26.5705C26.6106 7.08641 26.6444 7.11771 26.6807 7.14651C26.7132 7.17155 26.7495 7.19408 26.7783 7.22163C26.8134 7.25794 26.8384 7.29926 26.8685 7.33932C26.8898 7.36937 26.9186 7.39566 26.9361 7.42822C26.9649 7.4783 26.9812 7.53088 27.0012 7.58347C27.0112 7.61227 27.0287 7.63856 27.0363 7.66861C27.0593 7.75393 27.0711 7.84191 27.0713 7.93029V33.6711L37.0977 27.8979V14.7389C37.0977 14.6513 37.1102 14.5624 37.1327 14.4785C37.1415 14.4484 37.1578 14.4221 37.1678 14.3933C37.1878 14.3408 37.2054 14.2869 37.2329 14.2381C37.2517 14.2055 37.2792 14.1792 37.3005 14.1492C37.3306 14.1091 37.3556 14.0678 37.3907 14.0327C37.4195 14.004 37.4558 13.9827 37.4883 13.9576C37.5259 13.9276 37.5584 13.895 37.5985 13.8712H37.5998L49.6332 6.94368C49.9431 6.76501 50.3248 6.76501 50.6348 6.94368L62.6669 13.8712C62.7095 13.8963 62.7421 13.9276 62.7796 13.9564C62.8109 13.9814 62.8472 14.004 62.876 14.0315C62.9111 14.0678 62.9361 14.1091 62.9662 14.1492C62.9887 14.1792 63.0163 14.2055 63.0338 14.2381C63.0626 14.2869 63.0789 14.3408 63.0989 14.3933C63.1102 14.4221 63.1264 14.4484 63.1339 14.4785ZM61.1632 27.8979V16.4742L56.9526 18.8982L51.1356 22.2474V33.6711L61.1645 27.8979H61.1632ZM49.1311 48.5629V37.1317L43.4092 40.3995L27.0701 49.7248V61.2636L49.1311 48.5629ZM3.00577 9.66437V48.5629L25.0643 61.2624V49.726L13.5405 43.2041L13.5367 43.2016L13.5317 43.1991C13.4929 43.1766 13.4603 43.144 13.424 43.1165C13.3927 43.0914 13.3564 43.0714 13.3289 43.0439L13.3264 43.0401C13.2938 43.0088 13.2713 42.97 13.2437 42.9349C13.2187 42.9011 13.1887 42.8723 13.1686 42.8373L13.1674 42.8335C13.1448 42.796 13.1311 42.7509 13.1148 42.7083C13.0985 42.6708 13.0772 42.6357 13.0672 42.5956V42.5944C13.0547 42.5468 13.0522 42.4967 13.0472 42.4479C13.0422 42.4103 13.0321 42.3728 13.0321 42.3352V42.3327V15.4375L7.2164 12.0871L3.00577 9.66562V9.66437ZM14.0363 2.15962L4.01117 7.93029L14.0338 13.701L24.0576 7.92903L14.0338 2.15962H14.0363ZM19.2498 38.1734L25.0655 34.8255V9.66437L20.8549 12.0883L15.0379 15.4375V40.5986L19.2498 38.1734ZM50.134 8.96948L40.1101 14.7402L50.134 20.5108L60.1566 14.7389L50.134 8.96948ZM49.1311 22.2474L43.3141 18.8982L39.1035 16.4742V27.8979L44.9192 31.2459L49.1311 33.6711V22.2474ZM26.0659 47.9907L40.7687 39.597L48.1182 35.4026L38.1018 29.6357L26.5692 36.2753L16.0583 42.3264L26.0659 47.9907Z" fill="#EF4444"/>
</g>
<defs>
<clipPath id="clip0_763_2737">
<rect width="64" height="64" fill="white"/>
</clipPath>
</defs>
</svg>
