<svg width="64" height="64" viewBox="0 0 64 64" fill="none" xmlns="http://www.w3.org/2000/svg">
<path d="M20.5321 0C20.5321 0.00391137 20.5289 0.00707487 20.525 0.00704908C19.9518 0.00326996 19.3786 0.00164665 18.8054 0.00218209C16.7484 -0.0158301 15.0266 1.1083 13.5292 2.28018C11.895 3.56368 10.496 5.23909 10.0577 7.48324C9.80801 8.79922 9.86095 9.94954 9.86095 11.0988V20.1551C9.86095 23.3528 8.67106 25.729 7.05705 27.2844C6.33953 27.995 4.98005 28.6569 3.35404 29.2697C2.55063 29.5725 2 30.3289 2 31.1874V32.3183C2 33.2182 2.60455 33.9973 3.45652 34.287C4.85431 34.7623 6.10323 35.3449 6.88376 36.0377C8.61265 37.5483 9.85904 39.722 9.85904 42.5614V53.1378C9.85904 56.6516 10.6972 59.328 13.1359 61.1642C15.5746 62.9987 18.4167 63.9113 21.6627 64L21.8482 63.9988C22.9475 63.9914 23.8349 63.0982 23.8349 61.9988V60.2104C23.8349 59.3222 23.2382 58.564 22.423 58.2113C21.5646 57.8398 20.9819 57.4322 20.5206 56.9897C19.2993 55.8839 18.6075 54.0876 18.6075 51.5926V43.0527C18.5611 40.1481 18.0925 37.8761 17.0347 36.232C16.5473 35.4763 15.8461 34.7633 14.9312 34.0929C13.5154 33.0555 13.4426 30.6168 14.7887 29.4903C16.0764 28.4126 17.0352 27.1956 17.6651 25.839C18.3485 24.3538 18.6078 22.3509 18.6078 19.832V12.0016C18.6078 9.41491 19.2082 7.60305 20.248 6.5679C20.7778 6.04067 21.6947 5.60074 22.9584 5.23907C23.1253 5.19133 23.2984 5.16983 23.4719 5.17104C24.543 5.17846 25.4153 4.3122 25.4153 3.24105V2C25.4153 0.89543 24.5199 0 23.4153 0H20.5321ZM44.4421 0C44.4421 0.00391137 44.4453 0.00707487 44.4492 0.00704908C45.0224 0.00326996 45.5956 0.00164665 46.1689 0.00218209C48.2258 -0.0158301 49.9476 1.1083 51.4451 2.28018C53.0793 3.56368 54.4782 5.23909 54.9165 7.48324C55.1662 8.79922 55.1133 9.94954 55.1133 11.0988V20.1551C55.1133 23.3528 56.3032 25.729 57.9172 27.2844C58.6347 27.995 59.9942 28.6569 61.6202 29.2697C62.4236 29.5725 62.9742 30.3289 62.9742 31.1874V32.3183C62.9742 33.2182 62.3697 33.9973 61.5177 34.287C60.1199 34.7623 58.871 35.3449 58.0905 36.0377C56.3616 37.5483 55.1152 39.722 55.1152 42.5614V53.1378C55.1152 56.6516 54.2771 59.328 51.8381 61.1642C49.3993 62.9987 46.5572 63.9113 43.3112 64L43.1258 63.9988C42.0264 63.9914 41.1391 63.0982 41.1391 61.9988V60.2104C41.1391 59.3222 41.7358 58.564 42.5509 58.2113C43.4093 57.8398 43.9921 57.4322 44.4533 56.9897C45.6746 55.8839 46.3664 54.0876 46.3664 51.5926V43.0527C46.4131 40.1481 46.8814 37.8761 47.9392 36.232C48.4266 35.4763 49.1277 34.7634 50.0424 34.093C51.4583 33.0555 51.5312 30.6166 50.1851 29.49C48.8975 28.4124 47.9387 27.1955 47.3088 25.839C46.6254 24.3538 46.3662 22.3509 46.3662 19.832V12.0016C46.3662 9.41491 45.7658 7.60305 44.726 6.5679C44.1962 6.04067 43.2792 5.60073 42.0155 5.23907C41.8487 5.19133 41.6756 5.16983 41.5021 5.17104C40.4311 5.17846 39.5589 4.31231 39.5589 3.24129V2C39.5589 0.89543 40.4544 0 41.5589 0H44.4421Z" fill="#3B82F6"/>
</svg>
