<svg width="64" height="64" viewBox="0 0 64 64" fill="none" xmlns="http://www.w3.org/2000/svg">
<path d="M64 9.93993V47.9657C64 51.0679 61.4735 53.9142 58.3713 54.298L57.3799 54.4259C52.135 55.1295 44.7473 57.3042 38.7988 59.7987C36.72 60.6622 34.4173 59.0952 34.4173 56.8245V12.3385C34.4173 11.1552 35.0889 10.0679 36.1443 9.4922C41.9969 6.32605 50.8557 3.5117 56.8682 3H57.0601C60.8978 3 64 6.10218 64 9.93993Z" fill="#22C55E"/>
<path d="M27.8877 9.4922C22.0351 6.32605 13.1763 3.5117 7.1638 3H6.93993C3.10218 3 0 6.10218 0 9.93993V47.9657C0 51.0679 2.52652 53.9142 5.6287 54.298L6.62012 54.4259C11.865 55.1295 19.2527 57.3042 25.2012 59.7987C27.2801 60.6622 29.5827 59.0952 29.5827 56.8245V12.3385C29.5827 11.1232 28.9431 10.0679 27.8877 9.4922ZM9.62636 19.1825H16.8221C18.1334 19.1825 19.2207 20.2699 19.2207 21.5811C19.2207 22.9243 18.1334 23.9797 16.8221 23.9797H9.62636C8.31513 23.9797 7.22776 22.9243 7.22776 21.5811C7.22776 20.2699 8.31513 19.1825 9.62636 19.1825ZM19.2207 33.5741H9.62636C8.31513 33.5741 7.22776 32.5187 7.22776 31.1755C7.22776 29.8643 8.31513 28.7769 9.62636 28.7769H19.2207C20.532 28.7769 21.6193 29.8643 21.6193 31.1755C21.6193 32.5187 20.532 33.5741 19.2207 33.5741Z" fill="#22C55E"/>
</svg>
