<svg width="64" height="64" viewBox="0 0 64 64" fill="none" xmlns="http://www.w3.org/2000/svg">
<path fill-rule="evenodd" clip-rule="evenodd" d="M22.4 7.8309e-06H22.1893C19.3526 -0.000152169 16.9084 -0.000280237 14.9511 0.262888C12.8534 0.544904 10.8427 1.18087 9.21178 2.81178C7.58086 4.44273 6.94486 6.45345 6.66285 8.55108C6.39968 10.5084 6.39984 12.9526 6.4 15.7893V16V27.2V45.3462C2.67139 46.664 0 50.2202 0 54.4C0 59.7021 4.29808 64 9.6 64H44.7891H44.8C50.1021 64 54.4 59.7021 54.4 54.4V22.4V16H56C60.4182 16 64 12.4183 64 8.00004C64 3.58174 60.4182 3.98744e-05 56 3.98744e-05C55.6675 3.98744e-05 55.3398 0.020296 55.0182 0.059688C54.8182 0.02052 54.6115 7.8309e-06 54.4 7.8309e-06H22.4ZM35.7462 57.6C35.3926 56.599 35.2 55.5219 35.2 54.4V51.2H9.6C7.8327 51.2 6.4 52.6326 6.4 54.4C6.4 56.1674 7.8327 57.6 9.6 57.6H35.7462ZM54.4 9.60004H56C56.8835 9.60004 57.6 8.88369 57.6 8.00004C57.6 7.11636 56.8835 6.40004 56 6.40004C55.1165 6.40004 54.4 7.11636 54.4 8.00004V9.60004ZM19.2 16C19.2 14.2327 20.6327 12.8 22.4 12.8H38.4C40.1674 12.8 41.6 14.2327 41.6 16C41.6 17.7673 40.1674 19.2 38.4 19.2H22.4C20.6327 19.2 19.2 17.7673 19.2 16ZM22.4 25.6C20.6327 25.6 19.2 27.0326 19.2 28.8C19.2 30.5674 20.6327 32 22.4 32H38.4C40.1674 32 41.6 30.5674 41.6 28.8C41.6 27.0326 40.1674 25.6 38.4 25.6H22.4Z" fill="#F97316"/>
</svg>
