<svg width="64" height="64" viewBox="0 0 64 64" fill="none" xmlns="http://www.w3.org/2000/svg">
<path d="M21.7264 26.1824V21.3648C21.7264 20.8125 22.1741 20.3648 22.7264 20.3648H23.4496C24.0019 20.3648 24.4496 19.9171 24.4496 19.3648V9.7264C24.4496 9.17412 24.0019 8.7264 23.4496 8.7264H22.7264C22.1741 8.7264 21.7264 8.27869 21.7264 7.7264V6.41737C21.7264 6.04818 21.9298 5.70902 22.2555 5.53518L32.1548 0.251304C32.449 0.094251 32.8022 0.0942297 33.0964 0.251247L42.9988 5.5352C43.3245 5.70903 43.528 6.04822 43.528 6.41746V7.7296C43.528 8.28189 43.0803 8.7296 42.528 8.7296H41.8016C41.2493 8.7296 40.8016 9.17732 40.8016 9.7296V19.3648C40.8016 19.9171 41.2493 20.3648 41.8016 20.3648H42.528C43.0803 20.3648 43.528 20.8125 43.528 21.3648V25.1824C43.528 25.7347 43.0803 26.1824 42.528 26.1824H40.3779C40.1925 26.1824 40.0109 26.2339 39.8531 26.3312L24.7426 35.6464C24.0206 36.0915 23.1071 35.4921 23.2281 34.6525L24.2849 27.3186C24.3718 26.7158 23.9042 26.176 23.2952 26.176H21.7328C21.7293 26.176 21.7264 26.1789 21.7264 26.1824ZM34.352 20.3648C34.9043 20.3648 35.352 19.9171 35.352 19.3648V9.7264C35.352 9.17412 34.9043 8.7264 34.352 8.7264H30.9024C30.3501 8.7264 29.9024 9.17412 29.9024 9.7264V19.3648C29.9024 19.9171 30.3501 20.3648 30.9024 20.3648H34.352ZM19.5063 64C19.2403 64 19.037 63.7626 19.078 63.4998C19.0976 63.3745 19.1709 63.2641 19.2788 63.1976L42.6373 48.7995C43.25 48.4218 44.0491 48.7957 44.1518 49.5081L45.2584 57.1841C45.3152 57.5785 45.1326 57.9689 44.7935 58.178L35.5933 63.8512C35.4356 63.9485 35.2538 64 35.0685 64H19.5063ZM21.8608 44.1308C21.8608 44.1291 21.8617 44.1274 21.8632 44.1265L40.3514 32.7938C40.964 32.4183 41.7609 32.7921 41.8637 33.5033L42.97 41.1549C43.0271 41.5494 42.8444 41.9402 42.505 42.1493L21.9888 54.7934C21.267 55.2382 20.3539 54.6394 20.4743 53.8002L21.8607 44.1316C21.8608 44.1313 21.8608 44.1311 21.8608 44.1308Z" fill="#F97316"/>
</svg>
