<svg width="64" height="64" viewBox="0 0 64 64" fill="none" xmlns="http://www.w3.org/2000/svg">
<path d="M32.381 48.7619C33.9975 48.7619 35.5479 48.1197 36.6909 46.9767C37.834 45.8336 38.4762 44.2832 38.4762 42.6667C38.4762 41.0501 37.834 39.4998 36.6909 38.3567C35.5479 37.2136 33.9975 36.5714 32.381 36.5714C30.7644 36.5714 29.214 37.2136 28.071 38.3567C26.9279 39.4998 26.2857 41.0501 26.2857 42.6667C26.2857 44.2832 26.9279 45.8336 28.071 46.9767C29.214 48.1197 30.7644 48.7619 32.381 48.7619ZM50.6667 21.3333C52.2832 21.3333 53.8336 21.9755 54.9767 23.1186C56.1197 24.2617 56.7619 25.812 56.7619 27.4286V57.9048C56.7619 59.5213 56.1197 61.0717 54.9767 62.2147C53.8336 63.3578 52.2832 64 50.6667 64H14.0952C12.4787 64 10.9283 63.3578 9.78525 62.2147C8.64217 61.0717 8 59.5213 8 57.9048V27.4286C8 25.812 8.64217 24.2617 9.78525 23.1186C10.9283 21.9755 12.4787 21.3333 14.0952 21.3333H17.1429V15.2381C17.1429 11.1967 18.7483 7.32083 21.606 4.46313C24.4637 1.60544 28.3396 0 32.381 0C36.4223 0 40.2982 1.60544 43.1559 4.46313C46.0136 7.32083 47.619 11.1967 47.619 15.2381V21.3333H50.6667ZM32.381 6.09524C29.9561 6.09524 27.6306 7.0585 25.916 8.77312C24.2014 10.4877 23.2381 12.8133 23.2381 15.2381V21.3333H41.5238V15.2381C41.5238 12.8133 40.5605 10.4877 38.8459 8.77312C37.1313 7.0585 34.8058 6.09524 32.381 6.09524Z" fill="#EAB308"/>
</svg>
