<svg width="64" height="64" viewBox="0 0 64 64" fill="none" xmlns="http://www.w3.org/2000/svg">
<path d="M20.1501 1.16874C20.7488 1.85269 21.0513 2.74636 20.9913 3.65333C20.9313 4.56029 20.5136 5.40632 19.8301 6.00543L13.6356 11.4273L19.8301 16.8491C20.1819 17.1418 20.4717 17.5019 20.6821 17.9082C20.8926 18.3146 21.0197 18.7589 21.0557 19.2152C21.0918 19.6714 21.0361 20.1302 20.8921 20.5646C20.748 20.9989 20.5184 21.4001 20.2169 21.7443C19.9154 22.0886 19.548 22.369 19.1364 22.569C18.7248 22.7691 18.2773 22.8847 17.8203 22.909C17.3633 22.9334 16.9061 22.8661 16.4755 22.7109C16.045 22.5558 15.6498 22.3161 15.3134 22.0058L6.17031 14.0056C5.80319 13.6838 5.50903 13.2873 5.30749 12.8427C5.10596 12.398 5.0017 11.9155 5.0017 11.4273C5.0017 10.9391 5.10596 10.4565 5.30749 10.0119C5.50903 9.56721 5.80319 9.17073 6.17031 8.84893L15.3134 0.848731C15.9973 0.250065 16.891 -0.0525209 17.798 0.00748625C18.705 0.0674934 19.551 0.485182 20.1501 1.16874ZM28.708 1.16874C28.1093 1.85269 27.8068 2.74636 27.8668 3.65333C27.9268 4.56029 28.3445 5.40632 29.028 6.00543L35.2225 11.4273L29.028 16.8491C28.6762 17.1418 28.3864 17.5019 28.176 17.9082C27.9655 18.3146 27.8384 18.7589 27.8024 19.2152C27.7663 19.6714 27.822 20.1302 27.966 20.5646C28.1101 20.9989 28.3397 21.4001 28.6412 21.7443C28.9427 22.0886 29.3101 22.369 29.7217 22.569C30.1333 22.7691 30.5808 22.8847 31.0378 22.909C31.4948 22.9334 31.952 22.8661 32.3826 22.7109C32.8131 22.5558 33.2083 22.3161 33.5447 22.0058L42.6878 14.0056C43.0549 13.6838 43.3491 13.2873 43.5506 12.8427C43.7521 12.398 43.8564 11.9155 43.8564 11.4273C43.8564 10.9391 43.7521 10.4565 43.5506 10.0119C43.3491 9.56721 43.0549 9.17073 42.6878 8.84893L33.5447 0.848731C32.8608 0.250065 31.9671 -0.0525209 31.0601 0.00748625C30.1531 0.0674934 29.3071 0.485182 28.708 1.16874ZM8.42866 29.7134C7.51932 29.7134 6.64723 30.0747 6.00423 30.7177C5.36123 31.3607 5 32.2328 5 33.1421C5 34.0514 5.36123 34.9235 6.00423 35.5665C6.64723 36.2095 7.51932 36.5708 8.42866 36.5708H56.4298C57.3392 36.5708 58.2113 36.2095 58.8543 35.5665C59.4973 34.9235 59.8585 34.0514 59.8585 33.1421C59.8585 32.2328 59.4973 31.3607 58.8543 30.7177C58.2113 30.0747 57.3392 29.7134 56.4298 29.7134H8.42866ZM5 46.8567C5 45.9474 5.36123 45.0753 6.00423 44.4323C6.64723 43.7893 7.51932 43.4281 8.42866 43.4281H56.4298C57.3392 43.4281 58.2113 43.7893 58.8543 44.4323C59.4973 45.0753 59.8585 45.9474 59.8585 46.8567C59.8585 47.7661 59.4973 48.6381 58.8543 49.2811C58.2113 49.9241 57.3392 50.2854 56.4298 50.2854H8.42866C7.51932 50.2854 6.64723 49.9241 6.00423 49.2811C5.36123 48.6381 5 47.7661 5 46.8567ZM8.42866 57.1427C7.51932 57.1427 6.64723 57.5039 6.00423 58.1469C5.36123 58.7899 5 59.662 5 60.5713C5 61.4807 5.36123 62.3528 6.00423 62.9958C6.64723 63.6388 7.51932 64 8.42866 64H38.1437C39.053 64 39.9251 63.6388 40.5681 62.9958C41.2111 62.3528 41.5723 61.4807 41.5723 60.5713C41.5723 59.662 41.2111 58.7899 40.5681 58.1469C39.9251 57.5039 39.053 57.1427 38.1437 57.1427H8.42866Z" fill="#EAB308"/>
</svg>
