<svg width="64" height="64" viewBox="0 0 64 64" fill="none" xmlns="http://www.w3.org/2000/svg">
<g clip-path="url(#clip0_762_2931)">
<path d="M32 63C49.1208 63 63 49.1208 63 32C63 14.8792 49.1208 1 32 1C14.8792 1 1 14.8792 1 32C1 49.1208 14.8792 63 32 63Z" stroke="#3B82F6" stroke-width="1.13548"/>
<path fill-rule="evenodd" clip-rule="evenodd" d="M32.3814 12.9111C27.2181 12.9119 22.2665 14.9313 18.6157 18.5252C14.965 22.1191 12.9141 26.9931 12.9141 32.0752C12.9149 37.1567 14.9662 42.03 18.6168 45.6232C22.2675 49.2164 27.2186 51.2354 32.3814 51.2362C37.5453 51.2369 42.4979 49.2187 46.1499 45.6253C49.8019 42.0319 51.854 37.1578 51.8548 32.0752C51.854 26.9925 49.8019 22.1184 46.1499 18.525C42.4979 14.9317 37.5453 12.9134 32.3814 12.9141V12.9111ZM37.9675 18.6654C38.8866 18.6651 39.7967 18.8429 40.6459 19.1889C41.4951 19.5348 42.2667 20.0421 42.9165 20.6816C43.5664 21.3212 44.0818 22.0805 44.4334 22.9162C44.7849 23.7519 44.9656 24.6475 44.9652 25.552C44.9644 27.3776 44.2267 29.1282 42.9144 30.4185C41.6021 31.7089 39.8226 32.4333 37.9675 32.4325C36.1135 32.4325 34.3353 31.7081 33.0237 30.4185C31.7121 29.1289 30.9745 27.3796 30.9729 25.555C30.9721 24.6508 31.1523 23.7553 31.5033 22.9196C31.8542 22.084 32.3691 21.3246 33.0183 20.6848C33.6676 20.045 34.4386 19.5373 35.2873 19.1908C36.136 18.8444 37.0487 18.6658 37.9675 18.6654Z" fill="#3B82F6"/>
<path d="M54.3086 16.398C58.1717 16.398 61.3033 13.3161 61.3033 9.51441C61.3033 5.71273 58.1717 2.63086 54.3086 2.63086C50.4456 2.63086 47.314 5.71273 47.314 9.51441C47.314 13.3161 50.4456 16.398 54.3086 16.398Z" fill="#3B82F6"/>
</g>
<defs>
<clipPath id="clip0_762_2931">
<rect width="64" height="64" fill="white"/>
</clipPath>
</defs>
</svg>
