<svg width="64" height="64" viewBox="0 0 64 64" fill="none" xmlns="http://www.w3.org/2000/svg">
<g clip-path="url(#clip0_763_2688)">
<path fill-rule="evenodd" clip-rule="evenodd" d="M28.4999 0V14V14.1523C28.4997 15.3397 28.4994 16.4937 28.6279 17.4455C28.7728 18.5184 29.126 19.7428 30.1475 20.7598C31.169 21.7768 32.3989 22.1283 33.4767 22.2725C34.4326 22.4006 35.5917 22.4003 36.7844 22.4H36.9374H50.9999V39.2C50.9999 47.1195 50.9999 51.0793 48.5286 53.5396C46.0573 56 42.0798 56 34.1249 56H22.8749C14.92 56 10.9425 56 8.47123 53.5396C5.99994 51.0793 5.99994 47.1195 5.99994 39.2V16.8C5.99994 8.8804 5.99994 4.92061 8.47123 2.4603C10.9425 0 14.92 0 22.8749 0H28.4999ZM34.1249 0.0129362V14C34.1249 15.3991 34.1308 16.1667 34.2028 16.6993L34.2057 16.7197L34.2262 16.7225C34.7611 16.7941 35.532 16.8 36.9374 16.8H50.987C50.9583 15.6474 50.8663 14.8847 50.5719 14.1766C50.1435 13.1475 49.3307 12.3382 47.7048 10.7196L40.2326 3.2804C38.6067 1.66183 37.7938 0.852544 36.76 0.426272C36.0487 0.132972 35.2826 0.0414682 34.1249 0.0129362ZM17.2499 30.8C17.2499 29.2536 18.5092 28 20.0624 28H36.9374C38.4908 28 39.7499 29.2536 39.7499 30.8C39.7499 32.3464 38.4908 33.6 36.9374 33.6H20.0624C18.5092 33.6 17.2499 32.3464 17.2499 30.8ZM20.0624 39.2C18.5092 39.2 17.2499 40.4536 17.2499 42C17.2499 43.5464 18.5092 44.8 20.0624 44.8H31.3124C32.8658 44.8 34.1249 43.5464 34.1249 42C34.1249 40.4536 32.8658 39.2 31.3124 39.2H20.0624Z" fill="#495057"/>
<path d="M59.6173 42.9433C59.3534 42.8485 59.1402 42.6477 59.0312 42.3893L58.7741 41.7797C58.667 41.5257 58.6699 41.238 58.7809 40.9856C60.6393 36.7595 60.5005 36.6189 60.1158 36.2305L57.508 33.6826L57.4802 33.6592C57.331 33.5335 57.1422 33.4646 56.9471 33.4646V33.4646C56.7932 33.4646 56.344 33.4646 52.739 35.086C52.4897 35.1981 52.2046 35.2047 51.951 35.1024L51.2835 34.8333C51.0315 34.7317 50.8315 34.531 50.7293 34.2793C48.992 30 48.7941 30 48.258 30H44.5793C44.0444 30 43.8266 29.9994 42.2188 34.2788C42.1203 34.541 41.9168 34.751 41.6573 34.8563L40.9956 35.125C40.7499 35.2247 40.4739 35.2223 40.2294 35.1199C37.7831 34.0953 36.3414 33.577 35.938 33.577V33.577C35.7144 33.584 35.5016 33.6748 35.3418 33.8314L32.7853 36.3379C32.3727 36.7259 32.2205 36.8704 34.1776 41.0164C34.2993 41.2743 34.3062 41.572 34.1954 41.8347L33.9406 42.4389C33.8352 42.6888 33.6316 42.8855 33.3788 42.9838C29 44.6867 29 44.8713 29 45.4201V49.0272C29 49.5762 29 49.7803 33.378 51.3601C33.6411 51.4551 33.8536 51.6555 33.9624 51.9132L34.2172 52.5162C34.3246 52.7705 34.3217 53.0584 34.2106 53.311C32.3528 57.5344 32.4932 57.6761 32.8781 58.0609L35.4859 60.6117L35.5151 60.6369C35.6636 60.7645 35.853 60.8347 36.0488 60.8347V60.8347C36.2003 60.8347 36.6438 60.8347 40.2523 59.2106C40.5027 59.0979 40.7891 59.0917 41.0434 59.1951L41.7092 59.4658C41.9599 59.5678 42.1588 59.768 42.2606 60.0187C43.9988 64.299 44.197 64.2979 44.7344 64.2979H48.4137C48.9594 64.2979 49.1635 64.2979 50.7753 60.0208C50.8741 59.7586 51.0779 59.5489 51.3376 59.4438L52.0066 59.1733C52.2521 59.074 52.5278 59.0767 52.772 59.1792C55.2153 60.2041 56.6537 60.7242 57.0546 60.7242V60.7242C57.2797 60.7178 57.4941 60.6268 57.655 60.4693L60.2312 57.9473C60.6209 57.554 60.7652 57.4101 58.8186 53.2812C58.6975 53.0243 58.6903 52.728 58.7999 52.466L59.053 51.8614C59.1581 51.6102 59.3622 51.4125 59.6159 51.3138C64 49.6088 64 49.4104 64 48.874V45.271C63.9995 44.7202 63.9995 44.5172 59.6173 42.9433ZM46.4991 53.1494C43.1256 53.1494 40.3786 50.4558 40.3786 47.1461C40.3786 43.8389 43.1257 41.1479 46.4991 41.1479C49.8708 41.1479 52.612 43.8395 52.612 47.1461C52.6114 50.4558 49.8702 53.1494 46.4991 53.1494Z" fill="#EF4444"/>
</g>
<defs>
<clipPath id="clip0_763_2688">
<rect width="64" height="64" fill="white"/>
</clipPath>
</defs>
</svg>
