<svg width="64" height="64" viewBox="0 0 64 64" fill="none" xmlns="http://www.w3.org/2000/svg">
<path d="M3.2 3H60.8C61.6487 3 62.4626 3.33714 63.0627 3.93726C63.6629 4.53737 64 5.35131 64 6.2V57.4C64 58.2487 63.6629 59.0626 63.0627 59.6627C62.4626 60.2629 61.6487 60.6 60.8 60.6H3.2C2.35131 60.6 1.53737 60.2629 0.937258 59.6627C0.337142 59.0626 0 58.2487 0 57.4V6.2C0 5.35131 0.337142 4.53737 0.937258 3.93726C1.53737 3.33714 2.35131 3 3.2 3ZM14.5 43C15.3284 43 16 42.3284 16 41.5V33.8213C16 32.485 17.6157 31.8157 18.5607 32.7607L21.3393 35.5393C21.9251 36.1251 22.8749 36.1251 23.4607 35.5393L26.2393 32.7607C27.1843 31.8157 28.8 32.485 28.8 33.8213V41.5C28.8 42.3284 29.4716 43 30.3 43H33.7C34.5284 43 35.2 42.3284 35.2 41.5V22.1C35.2 21.2716 34.5284 20.6 33.7 20.6H29.4213C29.0235 20.6 28.642 20.758 28.3607 21.0393L23.4607 25.9393C22.8749 26.5251 21.9251 26.5251 21.3393 25.9393L16.4393 21.0393C16.158 20.758 15.7765 20.6 15.3787 20.6H11.1C10.2716 20.6 9.6 21.2716 9.6 22.1V41.5C9.6 42.3284 10.2716 43 11.1 43H14.5ZM52.7 33.4C51.8716 33.4 51.2 32.7284 51.2 31.9V22.1C51.2 21.2716 50.5284 20.6 49.7 20.6H46.3C45.4716 20.6 44.8 21.2716 44.8 22.1V31.9C44.8 32.7284 44.1284 33.4 43.3 33.4H42.0213C40.685 33.4 40.0157 35.0157 40.9607 35.9607L46.9393 41.9393C47.5251 42.5251 48.4749 42.5251 49.0607 41.9393L55.0393 35.9607C55.9843 35.0157 55.315 33.4 53.9787 33.4H52.7Z" fill="#3B82F6"/>
</svg>
