<svg width="64" height="64" viewBox="0 0 64 64" fill="none" xmlns="http://www.w3.org/2000/svg">
<g clip-path="url(#clip0_734_7719)">
<path d="M6.40234 0.00334215H57.5943C58.4349 0.00290318 59.2674 0.168094 60.0441 0.489477C60.8209 0.81086 61.5267 1.28214 62.1213 1.87638C62.7158 2.47063 63.1875 3.1762 63.5092 3.95278C63.831 4.72936 63.9967 5.56173 63.9967 6.40234V57.601C63.9967 58.4416 63.831 59.274 63.5092 60.0506C63.1875 60.8271 62.7158 61.5327 62.1213 62.127C61.5267 62.7212 60.8209 63.1925 60.0441 63.5139C59.2674 63.8353 58.4349 64.0004 57.5943 64H6.40234C5.56145 64.0004 4.72872 63.8351 3.95175 63.5135C3.17479 63.192 2.46883 62.7204 1.87423 62.1258C1.27963 61.5312 0.80805 60.8252 0.486458 60.0483C0.164866 59.2713 -0.000435731 58.4386 3.49107e-06 57.5977V6.40568C-0.000875133 5.56451 0.164102 4.73142 0.485497 3.95407C0.806893 3.17671 1.2784 2.47036 1.87304 1.8754C2.46769 1.28045 3.1738 0.808575 3.95098 0.486774C4.72817 0.164973 5.56117 0.00290243 6.40234 0.00334215ZM12.8047 12.798V25.5993H25.6027V32.0017H19.2003V51.1987H25.5993V44.7997H38.3973V51.1987H44.7963V32.0017H38.3973V25.6027H51.1953V12.8047H38.3973V25.6027H25.5993V12.8047L12.8047 12.798Z" fill="#22C55E"/>
</g>
<defs>
<clipPath id="clip0_734_7719">
<rect width="64" height="64" fill="white"/>
</clipPath>
</defs>
</svg>
