<svg width="65" height="64" viewBox="0 0 65 64" fill="none" xmlns="http://www.w3.org/2000/svg">
<path d="M37.7737 0C37.6766 0 37.5805 0.00491581 37.4856 0.0139113C37.0713 0.0531632 36.986 0.595195 37.2584 0.909683C37.6376 1.34744 37.881 1.84735 38.0347 2.39212C38.0564 2.50085 38.0782 2.58783 38.0999 2.69657C38.1217 2.8053 38.1434 2.89228 38.1434 3.00102C38.2086 4.45803 37.752 4.63201 37.4475 5.50187C36.9702 6.60836 37.099 7.80145 37.6826 8.75718C37.6853 8.76161 37.6872 8.76513 37.6892 8.76995C37.7259 8.86081 37.8417 8.82224 37.8328 8.72463C37.4914 4.98992 40.6115 4.296 41.3528 3.09504C41.3903 3.03441 41.4077 2.96414 41.4066 2.89289C41.3899 1.80057 40.4904 1.07083 39.7744 0.565407C39.0133 0.130477 38.3609 0 37.7737 0ZM43.4908 1.09356C43.2542 1.00469 43.0208 1.16235 42.9929 1.41352C42.9732 1.53145 42.9713 1.68489 42.9551 1.80965C42.9517 1.83555 42.9451 1.86085 42.9375 1.88584C42.9015 2.00385 42.88 2.12187 42.8406 2.23989L42.7214 2.59762C42.7139 2.62006 42.7048 2.64193 42.6944 2.66321C42.6435 2.76796 42.6048 2.86163 42.5542 2.98054C42.5423 3.00864 42.5277 3.03555 42.5107 3.06096L42.4332 3.17729C42.4149 3.20468 42.3932 3.22972 42.3748 3.25703C42.3491 3.29518 42.3289 3.3388 42.297 3.37071C42.2191 3.4681 42.1412 3.58294 42.0789 3.66835C42.0649 3.68746 42.0492 3.70521 42.033 3.72241C41.941 3.81985 41.8771 3.91592 41.7628 3.99491C41.7569 3.99898 41.7533 4.00566 41.7533 4.01282C41.7533 4.01932 41.7504 4.02547 41.7453 4.02956C41.6403 4.11439 41.5549 4.19923 41.4489 4.28406C41.1009 4.54502 40.7095 4.74074 40.3398 5.0017C40.2311 5.08869 40.1006 5.15392 40.0136 5.24091C39.9049 5.32789 39.7961 5.41488 39.7091 5.50187L39.4047 5.80632C39.3177 5.91505 39.2307 6.02378 39.1655 6.13252C39.0785 6.24125 38.9915 6.37173 38.9263 6.48046C38.861 6.61094 38.8175 6.71967 38.7523 6.8719C38.7088 7.00238 38.6436 7.11111 38.6218 7.26334C38.5826 7.40056 38.5434 7.52012 38.5201 7.63793C38.5151 7.66355 38.5084 7.68887 38.503 7.71441C38.4906 7.77299 38.4873 7.84073 38.4696 7.89398C38.4566 7.93292 38.4514 7.97186 38.4446 8.01079C38.4355 8.06375 38.4265 8.11712 38.4238 8.17079C38.4182 8.28059 38.4044 8.39867 38.4044 8.50289C38.4044 8.5949 38.4044 8.67135 38.4175 8.75858C38.4225 8.79113 38.4258 8.82394 38.4271 8.85684C38.4316 8.97113 38.4506 9.08753 38.4696 9.22052C38.4913 9.351 38.5131 9.48148 38.5566 9.61196L38.6844 9.99534C38.6862 10.0007 38.6887 10.0068 38.6913 10.0118C38.7365 10.1024 38.653 10.1871 38.5586 10.1504L34.9902 8.76384C34.3378 8.58987 33.7071 8.4159 33.0765 8.26368C32.7285 8.17669 32.3806 8.0897 32.0326 8.02446C31.0323 7.82874 30.0319 7.67652 29.0099 7.56779C28.9664 7.56779 28.9664 7.54604 28.9229 7.54604C27.9225 7.43731 26.9439 7.39382 25.9653 7.39382C25.226 7.39382 24.5083 7.43731 23.7907 7.4808C22.7904 7.54604 21.7683 7.67652 20.7679 7.85049C20.5287 7.89398 20.2678 7.93748 20.0285 7.98097C19.5066 8.0897 19.0282 8.19844 18.528 8.30717C18.3017 8.3689 18.0559 8.43063 17.8274 8.49236C17.8016 8.49934 17.7764 8.50845 17.7521 8.51951C17.5251 8.62265 17.298 8.72479 17.071 8.80734C16.897 8.89433 16.7013 8.98131 16.5274 9.04655C16.522 9.04923 16.517 9.05159 16.5122 9.05369C16.4631 9.07546 16.4158 9.10228 16.3678 9.12637C16.2284 9.19625 16.114 9.25478 15.9837 9.32926C15.9144 9.36388 15.839 9.39089 15.7692 9.42457C15.625 9.49428 15.475 9.56399 15.353 9.63371C15.2558 9.67261 15.1411 9.72891 15.0558 9.78705C15.0362 9.80037 15.0189 9.81674 14.9997 9.8305C14.9591 9.85953 14.9098 9.8771 14.8746 9.89467C14.7224 9.98165 14.5702 10.0686 14.4397 10.1339C14.2875 10.2209 14.157 10.3078 14.0483 10.3731C13.9395 10.4601 13.809 10.5253 13.7221 10.6123C13.694 10.6404 13.6575 10.668 13.6244 10.69C13.5343 10.7499 13.4466 10.8225 13.3741 10.895L13.3557 10.9134C13.339 10.9301 13.3211 10.9456 13.3022 10.9598C13.2493 10.9996 13.1973 11.0394 13.151 11.0792C13.1103 11.1143 13.068 11.1469 13.0229 11.1762C12.9978 11.1925 12.9704 11.2083 12.9472 11.2272C12.8959 11.2689 12.8457 11.3161 12.801 11.3598C12.7626 11.3974 12.73 11.441 12.6876 11.474C12.6844 11.4764 12.6813 11.479 12.6782 11.4822C12.5852 11.5752 12.5081 11.6364 12.4197 11.7202C12.3899 11.7484 12.3593 11.7794 12.3303 11.8084C12.2215 11.8953 12.1346 11.9823 12.0258 12.0911C11.9968 12.1201 11.966 12.1508 11.9371 12.1799C11.8751 12.2424 11.815 12.3049 11.7649 12.3674C11.7501 12.3859 11.7349 12.4042 11.717 12.4196C11.6988 12.4351 11.6814 12.4483 11.6666 12.4625C11.6411 12.4868 11.6235 12.5183 11.6008 12.5452C11.5353 12.6231 11.4682 12.6919 11.3903 12.77C11.3648 12.7957 11.3447 12.8266 11.3191 12.8522C11.2935 12.8778 11.2733 12.9087 11.2481 12.9346C11.1339 13.0521 11.0321 13.1696 10.895 13.2871L10.8515 13.3306C10.5906 13.6133 10.3078 13.896 10.0034 14.1352C9.69895 14.3962 9.3945 14.6572 9.0683 14.8746C8.7421 15.1138 8.4159 15.3095 8.06796 15.5053C7.74176 15.6792 7.39382 15.8532 7.02413 16.0054C6.67618 16.1577 6.30649 16.2881 5.9368 16.3969C5.24091 16.5491 4.52328 16.8318 3.91437 16.8753C3.80661 16.8753 3.68402 16.905 3.57109 16.9153C3.52483 16.9195 3.47858 16.9255 3.43361 16.9372C3.30954 16.9693 3.19877 16.9906 3.08801 17.0275C2.95753 17.071 2.82705 17.1363 2.69657 17.1797C2.58189 17.218 2.46721 17.273 2.35252 17.3301C2.321 17.3457 2.29149 17.3651 2.26293 17.3857C2.16344 17.4575 2.04944 17.5169 1.93544 17.5929C1.84103 17.6685 1.73022 17.744 1.64572 17.8338C1.62041 17.8606 1.59464 17.8872 1.56601 17.9105C1.46742 17.9908 1.35876 18.0855 1.28304 18.1801C1.17431 18.2888 1.08733 18.3976 1.00034 18.5063C0.925531 18.6185 0.850723 18.7146 0.789747 18.8362C0.769548 18.8764 0.746563 18.9153 0.7196 18.9514C0.646951 19.0486 0.576752 19.1612 0.521916 19.2892C0.456677 19.4414 0.391437 19.5719 0.347944 19.7241C0.304451 19.8546 0.239212 20.0068 0.195719 20.159C0.153544 20.2855 0.131817 20.4121 0.11071 20.5386C0.109393 20.5465 0.108434 20.5585 0.105527 20.5659C0.0965575 20.589 0.0831789 20.6063 0.0775611 20.6304C0.048576 20.7545 0.0442515 20.8991 0.0436063 21.0012C0.0433983 21.0341 0.040172 21.0669 0.0338525 21.0992C0.0157536 21.1917 0 21.2843 0 21.3768C0 21.4421 8.26323e-08 21.5291 0.0217466 21.5943C0.0434931 21.703 0.0652395 21.8118 0.086986 21.8987C0.129123 22.0041 0.150849 22.089 0.191713 22.1931C0.194338 22.1998 0.195719 22.2069 0.195719 22.2141C0.195719 22.2212 0.197065 22.2284 0.199831 22.235C0.243262 22.3391 0.306476 22.424 0.369691 22.5294C0.434931 22.6381 0.50017 22.7251 0.587156 22.8338C0.674142 22.9208 0.761128 23.0078 0.869861 23.0948C0.978593 23.2035 1.06558 23.2688 1.17431 23.3558C1.56575 23.7037 1.67448 23.8124 2.17465 24.0951L2.41947 24.2176C2.43009 24.2229 2.44778 24.2266 2.45825 24.2321C2.47614 24.2417 2.47795 24.2588 2.47985 24.279C2.48094 24.2905 2.4836 24.2986 2.49012 24.3125C2.49697 24.3271 2.50219 24.3424 2.50485 24.3583C2.52534 24.4808 2.54701 24.6033 2.58784 24.7258C2.63133 24.878 2.67482 25.0085 2.71832 25.1172C2.76181 25.226 2.8053 25.3129 2.84879 25.4217C2.87762 25.4793 2.90704 25.5388 2.93729 25.5957C2.97951 25.6752 3.02173 25.7497 3.06395 25.8312C3.08017 25.8624 3.09924 25.8921 3.12061 25.9201C3.19642 26.0194 3.27014 26.1312 3.32722 26.2263C3.4142 26.335 3.50119 26.4438 3.60992 26.5308C3.71865 26.6395 3.80564 26.7047 3.91437 26.8135C3.91437 26.8135 3.91437 26.8135 3.91437 26.8135C3.93712 26.8362 3.97162 26.8461 3.99634 26.8666C4.0879 26.9429 4.1667 27.017 4.26232 27.0744C4.37105 27.1614 4.50153 27.2266 4.63201 27.2919C4.74074 27.3571 4.87122 27.4224 5.02345 27.4658C5.11778 27.5036 5.21212 27.5413 5.30645 27.5648C5.33447 27.5718 5.36056 27.5853 5.3863 27.5984C5.40655 27.6086 5.42604 27.622 5.4478 27.6285C5.44982 27.6291 5.45185 27.6297 5.45388 27.6303C5.54883 27.6579 5.62826 27.7443 5.6238 27.8431C5.5866 28.6663 5.576 29.422 5.69759 29.7057C5.75573 29.8303 5.89636 29.7614 6.08918 29.5632C6.45626 29.1858 7.18963 29.4256 7.2016 29.9519C7.2097 30.3087 7.24129 30.5939 7.30683 30.7496C7.47349 31.1454 8.39856 29.9845 9.24076 28.6244C9.31177 28.5097 9.42652 28.4267 9.55822 28.3976C21.22 25.8217 31.8218 33.9052 32.946 45.3197C32.7452 43.6733 30.8573 42.6942 29.7644 42.742C29.603 42.7491 29.4742 42.8643 29.41 43.0126C29.0218 43.9106 28.4522 44.9645 27.6462 45.8207C27.3504 46.135 26.8695 45.8781 26.8699 45.4465C26.8699 45.4304 26.8699 45.4143 26.8698 45.3982C26.8679 44.8682 26.1448 44.8076 25.9188 45.287C25.5906 45.9832 25.1903 46.6439 24.7307 47.2533C24.6456 47.3661 24.5149 47.4363 24.3736 47.4388C22.9144 47.4646 21.4685 46.7558 20.669 45.7169C20.6331 45.6704 20.5876 45.63 20.5591 45.5786C20.5408 45.5457 20.5263 45.508 20.5102 45.4741C20.4954 45.4428 20.4788 45.4122 20.4653 45.3804C20.4303 45.2979 20.3889 45.2073 20.3656 45.1251C20.3573 45.0957 20.3489 45.0663 20.3381 45.0378C20.3005 44.9387 20.265 44.8274 20.246 44.7326C20.2243 44.6239 20.2243 44.4934 20.2243 44.3629V44.1732C20.2243 44.1403 20.2275 44.1074 20.2338 44.0751C20.2528 43.9775 20.2741 43.8687 20.3112 43.7757C20.3498 43.6793 20.3713 43.5657 20.406 43.4653C20.4148 43.4401 20.4271 43.4164 20.4398 43.393C20.4822 43.3152 20.5174 43.2293 20.5669 43.1494C20.5966 43.1016 20.6255 43.0528 20.6432 42.9994C20.8978 42.2331 20.8809 41.6314 20.3765 41.2531C20.284 41.1976 20.2072 41.1579 20.1193 41.107C20.0878 41.0888 20.0546 41.0732 20.0196 41.0628C19.9767 41.0501 19.9301 41.0374 19.8884 41.0247C19.8658 41.0178 19.8441 41.0084 19.8227 40.9983C19.8206 40.9973 19.8184 40.9963 19.8163 40.9954C19.7585 40.9689 19.694 40.9572 19.6329 40.9398C19.5628 40.9198 19.4892 40.9055 19.4212 40.8923C19.3912 40.8865 19.3621 40.8771 19.3327 40.8686C19.2507 40.8448 19.1602 40.8408 19.0777 40.8401C19.0448 40.8398 19.012 40.8366 18.9796 40.8306C18.8816 40.8124 18.7701 40.7965 18.6585 40.7965C18.5715 40.7965 18.4845 40.8182 18.4193 40.8182C18.2888 40.8182 18.1801 40.84 18.0496 40.8617C17.9555 40.8805 17.8452 40.8993 17.7467 40.9181C17.7167 40.9239 17.6875 40.933 17.6586 40.9428C17.5596 40.9764 17.4484 40.9978 17.3537 41.0357C17.245 41.0792 17.1363 41.1444 17.0275 41.1879C16.9188 41.2314 16.8318 41.2966 16.7231 41.3619C13.3422 43.5651 14.6727 48.3398 16.8314 50.6434C17.1434 50.9763 16.9922 51.6207 16.5482 51.7259C16.0672 51.8398 15.685 51.9614 15.527 52.0829C15.5049 52.105 15.5094 52.1421 15.5362 52.1582C16.2373 52.5794 16.9597 52.9385 17.7234 53.2355C18.782 53.5811 19.905 53.8839 20.3887 54.0371C20.3946 54.0389 20.3982 54.0443 20.3982 54.0504C20.3982 54.0571 20.4029 54.0628 20.4095 54.0642C21.7759 54.3451 23.1639 54.453 24.5736 54.3663C31.7545 53.8549 37.6827 48.4995 38.9416 41.3485C38.9596 41.246 39.0934 41.2401 39.122 41.3401C39.1655 41.6446 39.2307 41.949 39.2742 42.2752C39.2742 42.2897 39.2763 42.304 39.2799 42.318C39.3143 42.4498 39.3182 42.581 39.3342 42.6972C39.3374 42.7204 39.3395 42.7436 39.3395 42.767C39.3395 42.7871 39.3409 42.8071 39.3437 42.827C39.364 42.9692 39.3829 43.1101 39.3829 43.2321C39.4047 43.406 39.4264 43.6018 39.4264 43.7757V44.0367C39.4264 44.1237 39.4482 44.2107 39.4482 44.2977C39.4482 44.4064 39.4264 44.4934 39.4264 44.6021V44.8413C39.4264 44.95 39.4047 45.0588 39.4047 45.1675C39.4047 45.2168 39.4047 45.2661 39.3953 45.3247C39.3889 45.3651 39.3833 45.4057 39.381 45.4465C39.3777 45.5071 39.3705 45.5727 39.3657 45.64C39.3605 45.7153 39.342 45.7939 39.3398 45.8694C39.3391 45.8962 39.3372 45.9202 39.3328 45.9466C39.3135 46.0602 39.296 46.1618 39.296 46.2983C39.296 46.3183 39.296 46.3428 39.2939 46.3677C39.2891 46.4242 39.2707 46.4793 39.2632 46.5355C39.2451 46.6699 39.227 46.7844 39.209 46.929C39.209 46.9578 39.2048 46.9865 39.1975 47.0144C39.1631 47.1457 39.142 47.277 39.1061 47.4082C39.1023 47.4221 39.1002 47.4365 39.1002 47.4509C39.1002 47.4653 39.0982 47.4797 39.0944 47.4936C39.0578 47.6277 39.0364 47.7618 39.0007 47.8959C38.9948 47.9181 38.9909 47.9414 38.9806 47.9619C38.9703 47.9825 38.9665 48.0058 38.9605 48.028C38.9249 48.1617 38.9037 48.2953 38.8673 48.4289C38.8632 48.4438 38.861 48.459 38.861 48.4744C38.861 48.4879 38.8594 48.5014 38.856 48.5145C38.8162 48.6652 38.7614 48.7839 38.7365 48.9156C38.7321 48.9388 38.7129 48.9673 38.7092 48.9906C38.7079 48.9994 38.7077 48.9993 38.7055 49.0079C38.6621 49.1765 38.599 49.3254 38.5566 49.4951C38.4913 49.669 38.4478 49.7995 38.3826 49.9735C38.3174 50.1475 38.2739 50.2997 38.2086 50.4519C38.1447 50.6224 38.0808 50.7511 38.0169 50.9199C38.0145 50.9262 38.0085 50.9303 38.0018 50.9303C37.9953 50.9303 37.9895 50.9342 37.987 50.9401C37.9231 51.0891 37.8588 51.238 37.7737 51.387C37.7585 51.4174 37.7433 51.4478 37.7355 51.4707C37.7303 51.4863 37.7204 51.5065 37.7117 51.5205C37.6994 51.5405 37.6801 51.5525 37.6695 51.5735C36.5827 53.7338 35.0015 55.6137 33.033 57.1064C32.9025 57.1933 32.772 57.2803 32.6415 57.3891C32.6263 57.4043 32.6111 57.4142 32.5968 57.4225C32.5484 57.4506 32.5104 57.4946 32.4654 57.5278C32.3899 57.5837 32.3071 57.6376 32.2228 57.6839C32.1894 57.7023 32.174 57.7425 32.1882 57.7779L32.1995 57.8062C32.2038 57.8169 32.2142 57.824 32.2258 57.824C32.2275 57.824 32.2292 57.8238 32.2309 57.8235C32.4652 57.7811 32.6787 57.7593 32.9125 57.7174C32.9203 57.716 32.9282 57.7153 32.9361 57.7153C32.9427 57.7153 32.9492 57.7148 32.9557 57.7138C33.3874 57.6487 33.8189 57.5624 34.229 57.476C34.3378 57.4543 34.4682 57.4326 34.5987 57.3891C34.6685 57.3716 34.7243 57.3542 34.7885 57.3479C34.8213 57.3448 34.8542 57.3423 34.8865 57.3361C34.9687 57.3204 35.0589 57.3048 35.1408 57.2891C35.1708 57.2834 35.2 57.2741 35.2291 57.2648C35.3073 57.2397 35.3766 57.2326 35.4555 57.2061C35.4789 57.1983 35.5024 57.1905 35.5264 57.1848C36.5729 56.9354 37.6019 56.6251 38.6079 56.2649C39.0858 56.0937 39.5027 56.642 39.1753 57.03C37.2755 59.281 35.0014 61.2155 32.4352 62.7324C31.9566 63.0153 32.1795 63.7723 32.7278 63.6803C33.7165 63.5143 34.6963 63.2947 35.6643 63.0214C41.3828 61.3264 46.3194 57.7965 49.7364 53.0195C50.0643 52.561 50.8037 52.8601 50.644 53.4007C50.0786 55.3146 49.2958 57.162 48.3105 58.9013C48.0373 59.3836 48.6038 59.9275 49.0329 59.5765C49.8223 58.9308 50.5719 58.2389 51.2783 57.4978C54.3735 54.2758 56.5799 50.3156 57.7092 46.031C57.8504 45.4954 58.6313 45.5021 58.693 46.0525C58.8225 47.2057 58.8758 48.3684 58.8494 49.5265C58.8378 50.0378 59.5067 50.2733 59.7802 49.8411C70.0242 33.6562 59.6027 17.2674 55.1534 12.8564C55.1504 12.8534 55.1482 12.8502 55.1462 12.8465C55.1376 12.8307 55.129 12.8211 55.1221 12.8123C55.1104 12.7975 55.0839 12.7898 55.0839 12.8087C55.0839 12.7898 55.0621 12.7975 55.0617 12.8163C55.0584 12.995 55.0385 13.1737 55.0187 13.3524C54.9752 13.7438 54.91 14.0917 54.8447 14.4614C54.7577 14.8311 54.6707 15.2008 54.562 15.5488C54.4533 15.8967 54.3228 16.2664 54.1706 16.6143C54.0184 16.9405 53.8661 17.2885 53.6704 17.6147C53.4964 17.9191 53.279 18.2671 53.0833 18.5498C52.8658 18.8542 52.6266 19.1587 52.4091 19.4414C52.1699 19.7458 51.8872 20.0068 51.6262 20.2677C51.4523 20.42 51.3218 20.5505 51.1478 20.6809C51.0173 20.7897 50.9086 20.8984 50.7564 21.0071C50.4519 21.2463 50.1692 21.4638 49.8213 21.6595C49.5168 21.8553 49.1689 22.051 48.8427 22.2249C48.4947 22.3989 48.1468 22.5294 47.7989 22.6816C47.4509 22.8121 47.0812 22.9208 46.7115 23.0296C46.3418 23.1383 45.9721 23.2035 45.6025 23.2688C45.211 23.334 44.8413 23.3775 44.4716 23.3993C44.2107 23.421 43.9497 23.4427 43.667 23.4427C43.2756 23.4427 42.9059 23.3993 42.5362 23.3775C42.1448 23.334 41.7751 23.2905 41.4054 23.2035C41.0213 23.1395 40.6791 23.0336 40.3172 22.927C40.3033 22.9229 40.289 22.9208 40.2746 22.9208C40.6442 22.8773 41.0139 22.8556 41.3619 22.7903C41.7533 22.7251 42.1013 22.6381 42.471 22.5511C42.8406 22.4424 43.2103 22.3337 43.5583 22.2032C43.928 22.0727 44.2759 21.8987 44.6021 21.7465C44.9501 21.5725 45.2545 21.3986 45.6025 21.2029C45.9069 20.9854 46.2331 20.7679 46.5376 20.5505C46.842 20.3112 47.1247 20.072 47.3857 19.8111C47.6684 19.5719 47.9076 19.2892 48.1685 19.0065C48.3989 18.7132 48.6293 18.4402 48.8403 18.1485C48.8564 18.1261 48.875 18.1056 48.8907 18.0829C48.9186 18.0424 48.9393 17.9916 48.9732 17.9409C49.1471 17.6799 49.2994 17.419 49.4516 17.1363C49.6256 16.8101 49.7995 16.4839 49.9518 16.1359C50.104 15.788 50.2345 15.44 50.3432 15.0703C50.4519 14.7224 50.5389 14.3527 50.6259 13.983C50.6911 13.5916 50.7564 13.2436 50.7999 12.8739C50.8434 12.4825 50.8651 12.1128 50.8651 11.7431C50.8651 11.4822 50.8434 11.2212 50.8216 10.9385C50.7781 10.5471 50.7346 10.1991 50.6911 9.82943C50.6259 9.43799 50.5389 9.09004 50.4519 8.72035C50.3432 8.37241 50.2127 8.00272 50.0822 7.65477C49.9518 7.30683 49.7778 6.95889 49.6256 6.63269C49.4516 6.30649 49.2559 5.98029 49.0602 5.65409L48.4078 4.74074C48.1685 4.45803 47.9076 4.17533 47.6466 3.89263C47.5161 3.76215 47.3639 3.60992 47.2117 3.47944C46.4723 2.89229 45.6894 2.34862 44.9066 1.84845C44.7978 1.78321 44.6891 1.73972 44.5804 1.67448C44.2114 1.39778 43.8534 1.22974 43.4908 1.09356Z" fill="#EF4444"/>
</svg>
