<svg width="64" height="64" viewBox="0 0 64 64" fill="none" xmlns="http://www.w3.org/2000/svg">
<g clip-path="url(#clip0_763_2767)">
<path d="M45.1573 22.7174C45.462 22.8706 45.7358 23.0785 45.9653 23.3307L52.2293 20.544L46.384 14.7547L45.0747 22.632L45.1573 22.7174ZM32.16 17.456C32.4643 17.915 32.6553 18.4396 32.7173 18.9867L42.0427 22.9387C42.3252 22.7223 42.6465 22.5621 42.9893 22.4667L44.52 13L38.84 7.04271L32.16 17.3147V17.456ZM63.9813 32.0987L53.9867 22.104L47.192 24.888L63.896 31.9867C63.896 31.9867 64.0373 32.0987 63.9813 32.0987ZM62.3093 33.7147L46.2747 26.864C46.0515 27.1601 45.7714 27.4087 45.4508 27.595C45.1303 27.7814 44.7757 27.9019 44.408 27.9494L42.6827 38.5014C43.1974 39.0199 43.4876 39.7201 43.4907 40.4507L53.1787 42.4827L62.0587 33.656V33.4907L62.3093 33.7147ZM41.0667 24.6667L32.352 20.96C32.0514 21.4202 31.6373 21.7951 31.1497 22.0487C30.6621 22.3023 30.1173 22.4261 29.568 22.408H29.0373L21.8267 33.5467L41.0933 25.1947V25.2214C41.0793 25.0733 41.0793 24.9242 41.0933 24.776C41.0968 24.757 41.0962 24.7374 41.0916 24.7185C41.087 24.6997 41.0785 24.6821 41.0667 24.6667ZM51.6453 44.1547L43.1253 42.4C42.8053 42.8094 42.3818 43.1261 41.8987 43.3174L39.8693 55.904L51.7013 44.1814C51.7013 44.1814 51.6747 44.2347 51.6453 44.2347V44.1547ZM39.728 43.2907C39.3252 43.1255 38.9668 42.8682 38.6815 42.5394C38.3962 42.2106 38.192 41.8194 38.0853 41.3974L22.2187 38.1387L21.9947 38.5014L36.3893 59.328L37.2507 58.464L39.7013 43.344C39.7013 43.344 39.784 43.4027 39.728 43.3734V43.2907ZM22.552 36.2187L38.2267 39.448C38.4519 39.0547 38.7698 38.7222 39.1528 38.4796C39.5357 38.237 39.9721 38.0916 40.424 38.056L42.1227 27.672L41.7627 27.3654L22.2747 35.7174C22.3769 35.8789 22.4695 36.0463 22.552 36.2187ZM15.9813 38.8347L15.648 38.5014L8.88267 41.2854L12.168 44.544L15.8987 38.752L15.9813 38.8347ZM20.4347 39.8934C19.9636 40.1099 19.4518 40.2235 18.9333 40.2267C18.5253 40.2283 18.1199 40.1626 17.7333 40.032L13.616 46.0187L31.656 63.8907L34.8293 60.744L20.4347 39.8934ZM17.9013 32.8507C18.1798 32.8249 18.4602 32.8249 18.7387 32.8507C19.0432 32.8124 19.3514 32.8124 19.656 32.8507L26.9493 21.5174C26.3797 20.9275 26.0605 20.1401 26.0587 19.32C26.0323 19.0799 26.0323 18.8375 26.0587 18.5974L17.2053 14.504L10.08 21.4374L17.9013 32.8507ZM18.7093 13.112L27.3413 16.7867C27.9667 16.2723 28.7588 16.0047 29.568 16.0347C29.9273 16.0378 30.2841 16.0945 30.6267 16.2027L37.3627 5.67737L31.7947 0.109375L18.7093 12.944C18.7093 12.944 18.6827 13.0827 18.7093 13.112ZM15.4827 34.8827C15.6559 34.559 15.8711 34.2595 16.1227 33.992L8.74133 22.968L0 31.4587L15.4773 34.8827H15.4827ZM14.784 36.7494L1.42133 33.96L7.296 39.92L14.7013 36.7734L14.784 36.7494Z" fill="#14B8A6"/>
</g>
<defs>
<clipPath id="clip0_763_2767">
<rect width="64" height="64" fill="white"/>
</clipPath>
</defs>
</svg>
