<svg width="64" height="64" viewBox="0 0 64 64" fill="none" xmlns="http://www.w3.org/2000/svg">
<g clip-path="url(#clip0_763_2658)">
<path fill-rule="evenodd" clip-rule="evenodd" d="M48.3008 4.43998C48.3008 4.43836 48.2999 4.43684 48.2985 4.43602C27.1294 -8.00498 0.236751 7.19358 0.00148433 31.7345C-0.219601 55.3032 24.2991 70.6608 45.1961 61.1353C45.7532 60.8814 45.9334 60.1807 45.5804 59.6804L23.4135 28.2553C22.8528 27.4604 21.6023 27.8528 21.5963 28.8256L21.4586 51.3564C21.4586 53.683 15.9479 53.683 15.9479 51.3564L16.0002 15.9502C16.0002 14.0993 20.6429 13.9477 21.6154 15.558L48.889 57.9756C49.1878 58.4404 49.8124 58.573 50.2676 58.2599C69.1598 45.2633 68.6101 16.385 48.3031 4.44393C48.3017 4.44311 48.3008 4.4416 48.3008 4.43998V4.43998ZM48.0499 43.2819C48.0499 44.2618 46.7866 44.657 46.2282 43.8518L42.8796 39.0237C42.7635 38.8563 42.7013 38.6574 42.7013 38.4538V15.9502C42.7013 14.2039 48.0499 14.2039 48.0499 15.9502V43.2819Z" fill="#DEE2E6"/>
</g>
<defs>
<clipPath id="clip0_763_2658">
<rect width="64" height="64" fill="white"/>
</clipPath>
</defs>
</svg>
