<svg width="64" height="64" viewBox="0 0 64 64" fill="none" xmlns="http://www.w3.org/2000/svg">
<g clip-path="url(#clip0_762_5431)">
<path fill-rule="evenodd" clip-rule="evenodd" d="M31.3971 0.1608C31.5796 0.0554582 31.7866 0 31.9973 0C32.2079 0 32.4149 0.0554582 32.5974 0.1608L59.3884 15.5587C59.5722 15.6648 59.7249 15.8173 59.8313 16.0009C59.9376 16.1846 59.9939 16.3929 59.9945 16.6051V47.3949C59.994 47.6067 59.9377 47.8147 59.8313 47.9978C59.7249 48.181 59.5721 48.3329 59.3884 48.4383L32.5974 63.8392C32.4149 63.9445 32.2079 64 31.9973 64C31.7866 64 31.5796 63.9445 31.3971 63.8392L4.60614 48.4383C4.42239 48.3329 4.26963 48.181 4.16322 47.9978C4.05682 47.8147 4.00052 47.6067 4 47.3949V16.6051C4 16.1739 4.2322 15.7758 4.60614 15.5587L31.3971 0.1608ZM22.8798 32.0307C22.8791 30.1606 25.2166 29.3127 26.415 30.7482L39.4584 46.3714C39.5243 46.4505 39.5951 46.5235 39.6764 46.5867C40.1401 46.9474 41.9207 48.1873 44.3132 48.0402C47.2788 47.8549 47.9009 45.649 48.0085 45.1139C48.0241 45.0363 48.0284 44.9578 48.0285 44.8787L48.0315 18.7794L48.0284 18.7553C47.8523 17.9024 47.3878 17.1361 46.7131 16.5854C46.0385 16.0347 45.1947 15.7331 44.3238 15.7313C43.4529 15.7295 42.6079 16.0277 41.931 16.5757C41.2541 17.1237 40.7865 17.888 40.6069 18.7402C40.6009 18.7663 40.5979 18.7929 40.5979 18.8196L40.6085 31.7431C40.61 33.6054 38.2891 34.4588 37.0839 33.0391L23.5041 17.0437C23.4948 17.0328 23.4858 17.0224 23.4758 17.012C23.3229 16.8524 21.9328 15.5039 18.9184 15.8331C16.1754 16.1353 15.5659 18.2206 15.4544 18.7526C15.4372 18.8347 15.4324 18.918 15.4325 19.0019L15.4624 44.8462C15.4625 44.8726 15.4645 44.899 15.4685 44.9251C15.6095 45.8099 16.0626 46.6151 16.7457 47.1949C17.4289 47.7747 18.297 48.0908 19.1931 48.0861C20.0891 48.0814 20.9538 47.7561 21.6308 47.1691C22.2704 46.6145 22.7026 45.8609 22.8593 45.0319C22.8777 44.935 22.884 44.8364 22.8839 44.7378L22.8798 32.0307Z" fill="#22C55E"/>
</g>
<defs>
<clipPath id="clip0_762_5431">
<rect width="64" height="64" fill="white"/>
</clipPath>
</defs>
</svg>
