<svg width="64" height="64" viewBox="0 0 64 64" fill="none" xmlns="http://www.w3.org/2000/svg">
<g clip-path="url(#clip0_762_5447)">
<path d="M16 59.3503C15.9991 59.3083 15.622 58.6249 15.1611 57.8301C14.6997 57.0345 14.3222 56.3521 14.3222 56.3138C14.3222 56.2756 15.6272 53.9973 17.2222 51.2509C18.8173 48.5047 20.1469 46.2037 20.177 46.1377C20.2244 46.0335 19.9564 45.5393 18.1338 42.3704C16.98 40.3645 16.0361 38.6966 16.0361 38.6639C16.0361 38.5954 19.391 32.6973 19.4933 32.5863C19.5501 32.5246 19.5745 32.5337 19.6412 32.6405C19.6851 32.7109 21.9559 36.6533 24.6875 41.401C33.2765 56.331 34.9543 59.2333 35.0308 59.295C35.072 59.3282 35.1054 59.371 35.1054 59.3902C35.1054 59.4094 33.482 59.419 31.4978 59.4113C28.34 59.399 27.8887 59.3873 27.8777 59.3161C27.8626 59.2182 24.0836 52.6193 23.9193 52.4043C23.8169 52.2702 23.795 52.2624 23.7237 52.3344C23.6293 52.4298 19.7523 59.0996 19.6788 59.293C19.6487 59.3722 19.5728 59.4246 19.488 59.4246H17.8142C16.3217 59.4246 16.0008 59.4109 16 59.3503ZM38.9853 42.1214C38.9679 42.0904 39.1491 41.728 39.3885 41.3148C40.3382 39.6766 50.9498 21.3236 52.6232 18.4254C53.603 16.7286 54.4259 15.3441 54.4521 15.3485C54.5018 15.357 57.9991 21.2608 57.9991 21.3363C57.9991 21.3601 57.0718 22.9756 55.9383 24.9262C54.7779 26.9228 53.8902 28.5066 53.9069 28.5501C53.9323 28.6163 54.5328 28.6275 58.051 28.6275H61.9235C62.0742 28.6275 62.2147 28.7039 62.2965 28.8305C62.3688 28.9421 62.7486 29.5913 63.1407 30.2731C63.533 30.9549 63.8882 31.5473 63.9304 31.5894C64.0271 31.6861 64.0268 31.6888 63.9084 31.8051C63.8541 31.8583 63.4476 32.5352 63.0048 33.309C62.562 34.083 62.1741 34.7337 62.1427 34.7551C62.1112 34.7765 59.4414 34.7786 56.2097 34.7598L50.5261 34.7268C50.4056 34.7261 50.2925 34.7846 50.2236 34.8834C50.163 34.9701 49.1942 36.6303 48.0707 38.5726L46.3169 41.6048C46.1382 41.9138 45.8083 42.1041 45.4513 42.1041H43.904C42.7357 42.1041 41.1587 42.12 40.3994 42.1396C39.5027 42.1626 39.0087 42.1564 38.9853 42.1214ZM20.64 20.4694C12.9079 20.4619 6.58114 20.4444 6.58114 20.4307C6.58114 20.417 7.35157 19.041 8.29305 17.3728L9.7181 14.8482C9.89542 14.5341 10.2282 14.3398 10.5889 14.3398H14.1655C17.8843 14.3398 18.3258 14.3309 18.3258 14.256C18.3258 14.2099 17.4125 12.5788 16.2963 10.6312C15.18 8.6837 14.2667 7.07644 14.2667 7.05957C14.2667 7.0427 14.6346 6.39393 15.0842 5.61801C15.5338 4.84209 15.9075 4.16712 15.9148 4.11829C15.9266 4.03792 16.1034 4.02941 17.7764 4.02941C18.793 4.02941 19.623 4.04903 19.6206 4.07289C19.6182 4.09676 19.6508 4.16986 19.6933 4.23529C19.7358 4.30058 21.0324 6.55839 22.5747 9.25237C24.1169 11.9462 25.4153 14.1932 25.46 14.245C25.536 14.3338 25.8096 14.3398 29.7707 14.3398H33.4255C33.7814 14.3398 34.1105 14.529 34.2896 14.8366L35.7691 17.3772C36.742 19.0479 37.5248 20.4361 37.5086 20.4623C37.4926 20.4883 36.8535 20.5038 36.0887 20.4964C35.3241 20.489 28.3718 20.4769 20.64 20.4694Z" fill="#5075C1"/>
<path d="M0.870981 30.1955C0.0345733 31.6443 -0.0466259 31.8018 0.0172911 31.8521C0.0559705 31.8829 0.453463 32.544 0.900608 33.3214C1.34775 34.0988 1.72577 34.7417 1.74045 34.7502C1.75498 34.7586 3.60378 34.7712 5.84842 34.7782C8.09333 34.7853 9.96243 34.8097 10.0023 34.8329C10.0672 34.8704 9.85421 35.2573 7.99471 38.4778L6.20642 41.5753C6.02607 41.8877 6.02793 42.273 6.2113 42.5837L7.68487 45.0799C8.65871 46.7294 9.46549 48.0846 9.47729 48.0915C9.48922 48.0983 12.6672 42.6282 16.54 35.9357C18.097 33.245 19.4497 30.9101 20.7056 28.7427C22.7479 25.1982 23.8981 23.1895 24.4644 22.1771C24.7293 21.7035 24.4882 21.2997 23.9456 21.294C23.707 21.2914 23.4343 21.2895 23.1366 21.2883C22.5955 21.2869 22.064 21.2855 21.3878 21.288L18.4869 21.2985C18.131 21.2998 17.8025 21.4902 17.6245 21.7985L15.797 24.9636C13.8578 28.3226 13.6813 28.6161 13.5671 28.6471C13.5653 28.6476 13.5637 28.6487 13.5627 28.6503C13.5617 28.652 13.5601 28.6529 13.5582 28.6529C13.5319 28.6532 13.3368 28.6527 13.3107 28.6529C12.7222 28.6614 10.5053 28.6615 7.79322 28.6515C4.689 28.6402 2.08527 28.6343 2.00736 28.6383C1.92959 28.6424 1.85004 28.6342 1.83042 28.6202C1.81108 28.6062 1.3793 29.3151 0.870981 30.1955ZM29.0108 4.09317C28.9964 4.11765 29.7832 5.52164 30.7612 7.21596C32.4346 10.1143 43.0225 28.48 43.9666 30.1218C44.1932 30.5158 44.6667 30.5043 44.8995 30.114C45.0675 29.8325 45.2774 29.4755 45.5298 29.0423C45.9831 28.2268 46.4426 27.4148 46.9083 26.6063L47.8143 25.0367C47.9091 24.8443 47.9176 24.7874 47.9038 24.7464C47.8817 24.6805 46.9569 23.0549 45.8488 21.134C44.7408 19.213 43.8155 17.5885 43.7928 17.5239C43.7837 17.4923 43.7839 17.4575 43.7699 17.4277L43.7683 17.4241C43.7462 17.3767 43.7487 17.3215 43.7751 17.2764L46.7006 12.2768C47.2067 11.4117 47.5818 10.7623 47.9996 10.0424C49.2558 7.855 49.6505 7.13613 49.6312 7.08662C49.6139 7.04218 49.2608 6.42413 48.8466 5.71268C48.4322 5.0015 48.0449 4.32077 47.9859 4.20034C47.9284 4.08268 47.8948 4.02822 47.8541 4.0077C47.8421 4.0017 47.8281 4.00185 47.8153 4.00543C47.7577 4.0208 47.0671 4.03218 46.2805 4.03081C45.494 4.02944 44.7415 4.0341 44.6089 4.04082C44.4584 4.04843 44.322 4.13184 44.2466 4.26236L42.3103 7.6162C40.5514 10.6628 40.2414 11.1774 40.1713 11.1663C40.1701 11.1661 40.1668 11.1624 40.1626 11.1569C40.1489 11.1391 40.1215 11.143 40.1019 11.1319C40.0668 11.1116 39.122 9.49942 38.0025 7.5494L36.0328 4.11818C36.0168 4.09267 35.9719 4.01613 35.9699 4.01504C35.9047 3.97733 29.0483 4.05434 29.0108 4.09317ZM26.4538 42.9227C26.4474 42.9376 26.4499 42.9587 26.4593 42.9885C26.5043 43.1325 29.9347 48.9873 29.9942 49.0215C30.0225 49.0379 31.9389 49.0543 34.2531 49.058C37.9084 49.0641 38.4707 49.0789 38.5372 49.1721C38.5793 49.2311 39.907 51.5332 41.4879 54.2877C43.0688 57.0422 44.3892 59.3115 44.4223 59.3307C44.4554 59.3499 45.2352 59.364 46.1551 59.3622C47.0748 59.3605 47.8559 59.3758 47.8911 59.396C47.9091 59.4064 47.9434 59.3767 48.0079 59.2869L48.8319 57.8596C49.5498 56.6163 49.7399 56.2571 49.6952 56.2291C49.6164 56.1797 47.5559 52.5747 46.4227 50.5394C45.9989 49.7918 45.6861 49.2341 45.6765 49.1988C45.6497 49.1011 45.6675 49.086 45.835 49.0643C46.1033 49.0298 53.7076 49.0565 53.8 49.0925C53.8326 49.1051 53.9084 49.0144 54.1557 48.6128C54.4116 48.1921 54.8456 47.4436 55.6646 46.0251C56.6549 44.3099 57.4536 42.9 57.4396 42.892C57.4256 42.8839 57.334 42.885 57.2354 42.8941L57.2291 42.8943C56.6186 42.9223 52.5768 42.9221 36.6906 42.8977C31.3468 42.8895 27.1187 42.8854 26.8271 42.8878C26.6754 42.8892 26.5431 42.898 26.4652 42.9109C26.4632 42.9113 26.4614 42.9121 26.46 42.9136C26.4574 42.9162 26.4553 42.9193 26.4538 42.9227Z" fill="#7DB7E1"/>
</g>
<defs>
<clipPath id="clip0_762_5447">
<rect width="64" height="64" fill="white"/>
</clipPath>
</defs>
</svg>
