<svg width="64" height="64" viewBox="0 0 64 64" fill="none" xmlns="http://www.w3.org/2000/svg">
<path d="M34.3943 0.682793C32.7719 -0.229642 30.6567 -0.225551 29.0329 0.682793C20.9004 5.17091 12.7676 9.66038 4.63351 14.1464C3.05072 14.9791 1.98317 16.6788 2.0002 18.443V45.5607C1.98877 47.3594 3.11136 49.0755 4.73497 49.8967C7.07134 51.1397 9.34126 52.5088 11.7199 53.6691C14.4675 55.0192 17.905 55.3178 20.6862 53.9098C22.9438 52.7429 23.9465 50.1475 23.9436 47.7623C23.9618 38.8128 23.9465 29.8631 23.9506 20.9134C24.0044 20.5157 23.7056 20.0905 23.2718 20.1001C22.2325 20.0837 21.1918 20.0905 20.1525 20.0974C19.7598 20.0604 19.3765 20.3865 19.4062 20.7813C19.3922 29.6732 19.4089 38.5678 19.3977 47.4611C19.4203 48.6912 18.5893 49.8734 17.4037 50.289C14.9101 51.163 8.20548 47.0323 7.028 46.2877C6.90773 46.2116 6.77885 46.1516 6.6718 46.0578C6.49137 45.8998 6.3877 45.6599 6.40942 45.4213C6.40942 36.4745 6.41081 27.5276 6.40942 18.5822C6.36999 18.2215 6.59227 17.8967 6.92347 17.7495C15.0293 13.2878 23.131 8.81496 31.2368 4.35054C31.5184 4.16264 31.9109 4.16321 32.1918 4.35192C40.2976 8.81496 48.4007 13.2837 56.5079 17.7456C56.8403 17.8926 57.0531 18.2229 57.0192 18.5822C57.0179 27.5276 57.022 36.4745 57.0165 45.4201C57.0405 45.7367 56.8768 46.0435 56.5813 46.1824C48.5511 50.6199 40.4295 54.9143 32.472 59.4807C32.1248 59.6798 31.7314 59.9054 31.3424 59.686C29.2498 58.5285 27.1826 57.326 25.0969 56.1573C24.8702 56.0158 24.5815 55.955 24.3449 56.1134C23.4098 56.6062 22.5303 57.0053 21.4565 57.4304C19.9484 58.0275 20.1893 58.2716 21.5495 59.064C23.9886 60.4444 26.4318 61.8192 28.8709 63.201C30.4766 64.203 32.6341 64.2743 34.2914 63.3484C42.4254 58.8659 50.5568 54.3781 58.6924 49.8956C60.3116 49.0698 61.4398 47.3605 61.4284 45.5605V18.443C61.4442 16.7146 60.4174 15.0452 58.8823 14.2002C50.7214 9.69023 42.5566 5.19004 34.3943 0.682793Z" fill="#22C55E"/>
<path d="M46.6672 21.0428C43.4748 19.3349 39.6768 19.2439 36.1292 19.4672C33.5662 19.7205 30.8706 20.4277 29.0034 22.2649C27.0882 24.1118 26.6713 27.0942 27.581 29.5052C28.2329 31.2089 29.8738 32.3168 31.5708 32.9029C33.7566 33.6745 36.0524 33.9132 38.3488 34.1518C40.4434 34.3694 42.5388 34.5872 44.552 35.2096C45.3744 35.4821 46.3321 35.899 46.584 36.7939C46.8167 37.8535 46.5616 39.0853 45.7013 39.8215C42.9685 41.9845 35.3666 41.6531 32.6665 39.9507C31.5749 39.2254 31.1045 37.9415 30.9132 36.718C30.8919 36.3367 30.5849 35.987 30.171 36.016C29.1344 36.0037 28.0978 36.0064 27.0613 36.0147C26.6997 35.9843 26.3237 36.2416 26.3038 36.6108C26.0908 42.2147 31.2375 44.6576 36.0661 45.1955C38.8247 45.4583 41.6439 45.4432 44.3605 44.8512C46.4025 44.3863 48.4501 43.5301 49.8558 41.9573C51.5893 40.0457 51.9301 37.1998 51.1527 34.8188C50.5584 33.0421 48.8599 31.9024 47.1237 31.3161C44.7625 30.5065 41.9644 30.0713 39.8258 29.8677C36.7175 29.5717 33.0238 29.6926 32.144 27.6501C31.7932 26.5806 32.0917 25.2526 33.0745 24.5948C35.675 22.8309 40.9676 23.0652 43.6606 24.3829C44.8972 25.0021 45.6137 26.2739 45.9095 27.5577C45.9644 27.9349 46.2181 28.3285 46.6547 28.312C47.6841 28.3326 48.7136 28.3175 49.7429 28.3189C49.9933 28.3364 50.2605 28.2414 50.4197 28.056C50.5531 27.9005 50.5529 27.6787 50.5419 27.4741C50.4027 24.8907 49.0443 22.3015 46.6672 21.0428Z" fill="#22C55E"/>
</svg>
