<svg width="64" height="64" viewBox="0 0 64 64" fill="none" xmlns="http://www.w3.org/2000/svg">
<path d="M32.1117 4.5521e-08C31.5885 4.5521e-08 31.0648 0.135485 30.5958 0.405962L5.51497 14.8942C5.05447 15.1603 4.67207 15.5428 4.40615 16.0034C4.14023 16.4639 4.00015 16.9864 4 17.5182V46.4953C4.00006 47.0271 4.14017 47.5494 4.40621 48.0097C4.67225 48.4703 5.05481 48.8525 5.51546 49.1179L30.5961 63.5942C31.0565 63.8602 31.5787 64 32.1102 64C32.6419 64 33.1639 63.8602 33.6242 63.5942L58.7111 49.1179C59.1721 48.8522 59.5548 48.47 59.8208 48.0094C60.0869 47.5487 60.227 47.0259 60.2267 46.4941V17.5189C60.2267 16.9872 60.0866 16.4649 59.8208 16.0043C59.5551 15.5438 59.173 15.1612 58.7126 14.895L33.6258 0.406455C33.1651 0.140412 32.6438 -9.23306e-05 32.1117 4.5521e-08ZM15.7143 12.3932C15.7143 12.3932 18.6183 20.5299 24.4535 20.2597L31.2868 16.3279C31.543 16.179 31.8318 16.0953 32.128 16.084H32.2857C32.5813 16.0945 32.8695 16.1783 33.1245 16.3279L39.9572 20.2597C45.7929 20.5292 48.696 12.3932 48.696 12.3932C49.9849 18.0968 48.9571 21.9119 47.2368 24.4494L48.3554 25.0933C48.9272 25.4202 49.2755 26.0282 49.2764 26.6921L49.2469 50.2939C49.2472 50.4546 49.205 50.6129 49.1249 50.7523C49.0446 50.8918 48.9291 51.0079 48.7899 51.0886C48.651 51.172 48.4918 51.2164 48.3299 51.2164C48.1676 51.2164 48.0087 51.172 47.8698 51.0886L38.8198 45.9051C38.2507 45.5691 37.8981 44.9644 37.8981 44.3088V33.2819C37.8988 32.9589 37.8138 32.6414 37.6521 32.3618C37.4905 32.0822 37.2577 31.8504 36.9775 31.6893L33.1245 29.4698C32.847 29.3063 32.5311 29.2204 32.2093 29.221C31.8854 29.2204 31.567 29.3063 31.2874 29.4698L27.4329 31.6893C26.8623 32.0154 26.514 32.6251 26.514 33.2825V44.3091C26.514 44.965 26.1661 45.5654 25.5933 45.9054L16.541 51.0883C16.4033 51.172 16.2452 51.2164 16.084 51.2164C15.9229 51.2164 15.7648 51.172 15.6271 51.0883C15.3381 50.9282 15.1679 50.6236 15.1679 50.2942L15.1342 26.6924C15.1337 26.3684 15.2186 26.0501 15.3804 25.7692C15.5421 25.4887 15.775 25.2556 16.0554 25.0935L17.1741 24.4494C15.4541 21.9116 14.4247 18.0964 15.7143 12.3932Z" fill="#22C55E"/>
</svg>
