<svg width="64" height="64" viewBox="0 0 64 64" fill="none" xmlns="http://www.w3.org/2000/svg">
<g clip-path="url(#clip0_762_2509)">
<path fill-rule="evenodd" clip-rule="evenodd" d="M63.6464 3.53591C63.6464 1.5831 62.0634 0 60.1105 0H3.53591C1.5831 0 0 1.5831 0 3.53591V60.4641C0 62.417 1.5831 64 3.53591 64H60.1105C62.0634 64 63.6464 62.417 63.6464 60.4641V3.53591ZM31.8232 49.5028C31.8232 51.4556 30.2402 53.0387 28.2873 53.0387H14.1437C12.1908 53.0387 10.6078 51.4556 10.6078 49.5028V14.1438C10.6078 12.1909 12.1908 10.6079 14.1437 10.6079H49.5028C51.4556 10.6079 53.0387 12.1909 53.0387 14.1438V49.5028C53.0387 51.4556 51.4556 53.0387 49.5028 53.0387H45.9669C44.014 53.0387 42.4309 51.4556 42.4309 49.5028V24.7514C42.4309 22.7987 40.8479 21.2156 38.895 21.2156H35.3591C33.4062 21.2156 31.8232 22.7987 31.8232 24.7514V49.5028Z" fill="#EF4444"/>
</g>
<defs>
<clipPath id="clip0_762_2509">
<rect width="64" height="64" fill="white"/>
</clipPath>
</defs>
</svg>
