<svg width="64" height="64" viewBox="0 0 64 64" fill="none" xmlns="http://www.w3.org/2000/svg">
<g clip-path="url(#clip0_762_5463)">
<path d="M46.732 11.8947H29.9695C27.6835 11.8844 25.4181 12.3261 23.3034 13.1944C21.1887 14.0627 19.2666 15.3405 17.6475 16.9543C16.0284 18.5682 14.7444 20.4861 13.8692 22.598C12.994 24.7098 12.5449 26.9739 12.5479 29.2599V46.0286C12.5487 50.6278 14.3763 55.0383 17.6287 58.2901C20.8811 61.5419 25.2919 63.3687 29.8911 63.3687H46.6567C48.9361 63.3687 51.1931 62.9194 53.2987 62.0464C55.4043 61.1735 57.3172 59.894 58.9279 58.2812C60.5387 56.6684 61.8157 54.7539 62.686 52.6472C63.5563 50.5405 64.0028 48.2829 63.9999 46.0035V29.2599C64.0057 24.6699 62.1919 20.2648 58.9557 17.0099C55.7195 13.7549 51.3219 11.9155 46.732 11.8947ZM29.7906 30.6411C29.0649 31.3812 28.128 31.8786 27.1083 32.0651C26.0887 32.2516 25.0364 32.1181 24.0956 31.6829C23.1549 31.2477 22.3719 30.532 21.854 29.6342C21.336 28.7363 21.1086 27.7002 21.2029 26.6679C21.2971 25.6357 21.7085 24.6579 22.3804 23.8687C23.0524 23.0794 23.9521 22.5175 24.9561 22.2598C25.9601 22.0022 27.0192 22.0615 27.9882 22.4296C28.9572 22.7977 29.7885 23.4566 30.3682 24.3159C31.0154 25.2753 31.3114 26.4288 31.2062 27.5814C31.1009 28.7339 30.6009 29.8147 29.7906 30.6411ZM46.4307 54.9623C44.6937 54.9617 42.9959 54.4461 41.5519 53.4806C40.108 52.5151 38.9827 51.1432 38.3184 49.5382C37.6541 47.9333 37.4807 46.1674 37.8199 44.4639C38.1592 42.7604 38.9959 41.1957 40.2244 39.9677C41.4528 38.7396 43.0178 37.9034 44.7215 37.5648C46.4251 37.2262 48.1909 37.4003 49.7956 38.0651C51.4004 38.73 52.7719 39.8557 53.7368 41.3C54.7018 42.7443 55.2168 44.4423 55.2168 46.1793C55.2168 47.333 54.9895 48.4753 54.548 49.5411C54.1064 50.607 53.4591 51.5753 52.6432 52.391C51.8273 53.2066 50.8587 53.8535 49.7927 54.2947C48.7268 54.7359 47.5843 54.9627 46.4307 54.9623Z" fill="#3B82F6"/>
<path d="M6.90203 12.9217C9.67433 12.9217 11.9217 10.6743 11.9217 7.90203C11.9217 5.12972 9.67433 2.88232 6.90203 2.88232C4.12972 2.88232 1.88232 5.12972 1.88232 7.90203C1.88232 10.6743 4.12972 12.9217 6.90203 12.9217Z" fill="#3B82F6"/>
<path d="M6.90209 14.8042C10.714 14.8042 13.8042 11.714 13.8042 7.90209C13.8042 4.09017 10.714 1 6.90209 1C3.09017 1 0 4.09017 0 7.90209C0 11.714 3.09017 14.8042 6.90209 14.8042Z" fill="#3B82F6"/>
</g>
<defs>
<clipPath id="clip0_762_5463">
<rect width="64" height="64" fill="white"/>
</clipPath>
</defs>
</svg>
