<svg width="64" height="64" viewBox="0 0 64 64" fill="none" xmlns="http://www.w3.org/2000/svg">
<g clip-path="url(#clip0_762_5475)">
<path d="M52.383 50.1484L54.303 61.3028C53.1144 61.9429 51.1944 62.5371 48.6343 63.0857C46.0286 63.68 42.9656 64 39.4457 64C29.343 63.8171 21.7543 60.8 16.6799 55.0401C11.4686 49.2342 9 41.8745 9 32.96C9.18286 22.3999 12.2914 14.3084 18.3258 8.64007C24.1771 2.92564 31.6744 0 40.7257 0C44.1543 0 47.1259 0.320002 49.5945 0.868581C52.0631 1.41715 53.8917 2.01143 55.0802 2.69715L52.3374 14.0799L47.5832 12.5256C45.7546 12.0684 43.6058 11.8399 41.183 11.8399C35.926 11.7941 31.5373 13.4856 28.1085 16.8685C24.6342 20.2057 22.8973 25.3256 22.7143 32.1371C22.76 38.3543 24.4057 43.2 27.6515 46.7657C30.8972 50.2857 35.4228 52.1142 41.3202 52.1599L47.4002 51.6113C49.3659 51.2456 51.0115 50.7427 52.383 50.1484Z" fill="#F97316"/>
</g>
<defs>
<clipPath id="clip0_762_5475">
<rect width="64" height="64" fill="white"/>
</clipPath>
</defs>
</svg>
