<svg width="64" height="64" viewBox="0 0 64 64" fill="none" xmlns="http://www.w3.org/2000/svg">
<path d="M25.4802 43.0153C26.0963 42.8257 26.7689 43.1956 26.8757 43.8314L27.6412 48.387C27.7122 48.8094 27.5071 49.2334 27.1081 49.3892C26.4364 49.6516 25.5445 49.8997 24.4533 50.1335C22.9333 50.4802 21.1466 50.6668 19.0933 50.6668C13.1999 50.5602 8.77325 48.8002 5.81325 45.4402C2.82659 42.0535 1.33325 37.7602 1.33325 32.5602C1.46659 26.4002 3.25325 21.6802 6.66658 18.3735C10.1866 15.0402 14.5599 13.3335 19.8399 13.3335C21.8399 13.3335 23.5733 13.5202 25.0133 13.8402C26.0517 14.0709 26.896 14.3156 27.5461 14.584C27.9533 14.7522 28.1449 15.2002 28.045 15.6292L26.9127 20.4901C26.7802 21.0592 26.1899 21.3939 25.6334 21.2154L23.8399 20.6402C22.7732 20.3735 21.5466 20.2402 20.1333 20.2402C17.0399 20.2135 14.4799 21.2002 12.4799 23.1735C10.4533 25.1202 9.41325 28.1068 9.33325 32.0802C9.33325 35.7068 10.3199 38.5335 12.2133 40.6135C14.1066 42.6668 16.7733 43.7335 20.1866 43.7602L23.7332 43.4402C24.3701 43.3217 24.9494 43.1785 25.4802 43.0153ZM27.9999 30.3335C27.9999 29.7812 28.4476 29.3335 28.9999 29.3335H32.3333C32.8855 29.3335 33.3333 28.8858 33.3333 28.3335V25.0002C33.3333 24.4479 33.781 24.0002 34.3333 24.0002H37.6666C38.2189 24.0002 38.6666 24.4479 38.6666 25.0002V28.3335C38.6666 28.8858 39.1143 29.3335 39.6666 29.3335H42.9999C43.5522 29.3335 43.9999 29.7812 43.9999 30.3335V33.6668C43.9999 34.2191 43.5522 34.6668 42.9999 34.6668H39.6666C39.1143 34.6668 38.6666 35.1145 38.6666 35.6668V39.0002C38.6666 39.5524 38.2189 40.0002 37.6666 40.0002H34.3333C33.781 40.0002 33.3333 39.5524 33.3333 39.0002V35.6668C33.3333 35.1145 32.8855 34.6668 32.3333 34.6668H28.9999C28.4476 34.6668 27.9999 34.2191 27.9999 33.6668V30.3335ZM46.6666 30.3335C46.6666 29.7812 47.1143 29.3335 47.6666 29.3335H50.9999C51.5522 29.3335 51.9999 28.8858 51.9999 28.3335V25.0002C51.9999 24.4479 52.4476 24.0002 52.9999 24.0002H56.3332C56.8855 24.0002 57.3332 24.4479 57.3332 25.0002V28.3335C57.3332 28.8858 57.781 29.3335 58.3332 29.3335H61.6666C62.2189 29.3335 62.6666 29.7812 62.6666 30.3335V33.6668C62.6666 34.2191 62.2189 34.6668 61.6666 34.6668H58.3332C57.781 34.6668 57.3332 35.1145 57.3332 35.6668V39.0002C57.3332 39.5524 56.8855 40.0002 56.3332 40.0002H52.9999C52.4476 40.0002 51.9999 39.5524 51.9999 39.0002V35.6668C51.9999 35.1145 51.5522 34.6668 50.9999 34.6668H47.6666C47.1143 34.6668 46.6666 34.2191 46.6666 33.6668V30.3335Z" fill="#F97316"/>
</svg>
