<svg width="64" height="64" viewBox="0 0 64 64" fill="none" xmlns="http://www.w3.org/2000/svg">
<path d="M0 23.1618C0 15.0545 0 11.0008 1.57781 7.90414C2.96569 5.18027 5.18027 2.96569 7.90414 1.57781C11.0008 0 15.0545 0 23.1618 0H40.8382C48.9456 0 52.9993 0 56.0958 1.57781C58.8197 2.96569 61.0343 5.18027 62.4222 7.90414C64 11.0008 64 15.0545 64 23.1618V40.8382C64 48.9456 64 52.9993 62.4222 56.0958C61.0343 58.8197 58.8197 61.0343 56.0958 62.4222C52.9993 64 48.9456 64 40.8382 64H23.1618C15.0545 64 11.0008 64 7.90414 62.4222C5.18027 61.0343 2.96569 58.8197 1.57781 56.0958C0 52.9993 0 48.9456 0 40.8382V23.1618Z" fill="#EF4444"/>
<path d="M50.3774 36.3374C47.389 33.0606 39.2459 34.4942 37.2786 34.699C34.4894 31.8318 32.5221 28.5806 31.7253 27.3518C32.7214 24.2798 33.5182 20.8238 33.5182 17.547C33.5182 14.475 32.323 11.4286 29.1602 11.4286C27.965 11.4286 26.9689 12.043 26.3712 13.067C24.9767 15.5246 25.5742 20.4142 27.7657 25.5086C26.5703 29.195 24.5783 34.699 22.2123 38.9742C19.0249 40.203 12.077 43.4542 11.4793 47.1406C11.2801 48.1646 11.6786 49.3934 12.4755 50.0078C13.2723 50.827 14.2684 51.0318 15.2645 51.0318C19.4233 51.0318 23.6069 45.1182 26.5952 39.7934C28.9861 38.9742 32.7463 37.7454 36.5314 37.131C40.8894 41.227 44.8738 41.8158 46.8661 41.8158C49.6553 41.8158 50.6514 40.587 51.0249 39.563C51.5479 38.5902 51.1742 37.1566 50.3774 36.3374ZM47.5883 38.3854C47.389 39.2046 46.3929 40.0238 44.6 39.6142C42.4085 38.9998 40.4411 37.9758 38.8475 36.5422C40.2421 36.3374 43.6039 35.9278 45.9945 36.3374C46.7913 36.5422 47.7874 37.1566 47.5883 38.3854ZM28.3136 13.8862C28.5129 13.4766 28.9113 13.2718 29.3097 13.2718C30.3058 13.2718 30.5049 14.5006 30.5049 15.5246C30.3058 17.9822 29.9074 20.619 29.1104 22.8718C27.5168 18.3918 27.7159 15.115 28.3136 13.8862ZM28.1143 36.9518C29.1104 35.1086 30.3058 31.6526 30.7042 30.4238C31.7003 32.267 33.4933 34.315 34.2903 35.3134C34.4894 35.1342 30.9035 35.9278 28.1143 36.9518ZM21.3657 41.6622C18.6016 46.1422 16.0116 49.0094 14.4179 49.0094C14.2186 49.0094 13.8202 49.0094 13.621 48.8046C13.4218 48.395 13.2225 47.9854 13.4218 47.5758C13.621 45.9374 16.8085 43.6846 21.3657 41.6622Z" fill="#212529"/>
</svg>
