<svg width="64" height="64" viewBox="0 0 64 64" fill="none" xmlns="http://www.w3.org/2000/svg">
<path d="M32 48.4267C14.32 48.4267 0 41.1733 0 32.2133C0 23.2533 14.32 16 32 16C49.68 16 64 23.2533 64 32.2133C64 41.1733 49.68 48.4267 32 48.4267ZM18.16 27.2267C19.6 27.2267 20.5867 27.4933 21.0667 28.0533C21.5467 28.5867 21.6533 29.5467 21.4133 30.8C21.1467 32.2133 20.64 33.12 19.8667 33.7067C19.12 34.2933 17.9733 34.5867 16.4267 34.5867H15.317C14.689 34.5867 14.2165 34.0147 14.3349 33.3981L15.3642 28.0381C15.4546 27.5671 15.8667 27.2267 16.3462 27.2267H18.16ZM9.05834 40.8357C8.93825 41.453 9.41104 42.0267 10.0399 42.0267H11.8423C12.321 42.0267 12.7326 41.6873 12.8239 41.2174L13.4161 38.1693C13.5074 37.6993 13.919 37.36 14.3977 37.36H16.8533C18.2933 37.36 19.4667 37.2 20.4 36.9067C21.3333 36.5867 22.1867 36.08 22.96 35.36C23.6 34.7733 24.1067 34.1333 24.5067 33.4133C24.9067 32.72 25.2 31.92 25.3333 31.0667C25.76 28.9867 25.4667 27.36 24.4533 26.2133C23.4133 25.04 21.8133 24.48 19.6 24.48H13.0642C12.5856 24.48 12.174 24.8192 12.0826 25.2891L9.05834 40.8357ZM28.9842 19.8133C28.5056 19.8133 28.094 20.1525 28.0026 20.6224L24.9783 36.1691C24.8583 36.7864 25.331 37.36 25.9599 37.36H27.7105C28.1886 37.36 28.5997 37.0217 28.6918 36.5526L30.3482 28.1141C30.4403 27.645 30.8514 27.3067 31.3295 27.3067H33.5467C34.5067 27.3067 35.1467 27.4667 35.44 27.7867C35.7333 28.1067 35.7867 28.6933 35.6267 29.5467L34.3384 36.169C34.2183 36.7864 34.6911 37.36 35.32 37.36H37.1472C37.6267 37.36 38.0387 37.0196 38.1292 36.5487L39.5467 29.1733C39.8933 27.52 39.6267 26.32 38.8267 25.5467C38.0267 24.8267 36.56 24.48 34.4267 24.48H32.2667C31.6334 24.48 31.1596 23.8988 31.2872 23.2785L31.7528 21.0148C31.8804 20.3945 31.4066 19.8133 30.7733 19.8133H28.9842ZM48 27.2267C49.4667 27.2267 50.4267 27.4933 50.9067 28.0533C51.3867 28.5867 51.4933 29.5467 51.2533 30.8C50.9867 32.2133 50.48 33.12 49.7333 33.7067C48.96 34.2933 47.8133 34.5867 46.2667 34.5867H45.1974C44.5738 34.5867 44.1023 34.0221 44.2135 33.4084L45.1845 28.0484C45.2707 27.5726 45.6849 27.2267 46.1685 27.2267H48ZM38.9004 40.8343C38.7793 41.452 39.2523 42.0267 39.8818 42.0267H41.6823C42.161 42.0267 42.5726 41.6873 42.6639 41.2174L43.2561 38.1693C43.3474 37.6993 43.759 37.36 44.2377 37.36H46.6667C48.1333 37.36 49.3333 37.2 50.2667 36.9067C51.2 36.5867 52 36.08 52.8 35.36C53.44 34.7733 53.9733 34.1333 54.3467 33.4133C54.7467 32.72 55.04 31.92 55.2 31.0667C55.6 28.9867 55.3067 27.36 54.2933 26.2133C53.3333 25.04 51.6533 24.48 49.44 24.48H42.9297C42.4515 24.48 42.0403 24.8184 41.9483 25.2876L38.9004 40.8343Z" fill="#3B82F6"/>
</svg>
