<svg width="64" height="64" viewBox="0 0 64 64" fill="none" xmlns="http://www.w3.org/2000/svg">
<g clip-path="url(#clip0_762_5511)">
<path d="M21.58 43.9665C21.2632 42.0612 20.3181 40.4691 18.433 39.811C18.3884 39.7954 18.3441 39.7774 18.3021 39.7557C17.6621 39.426 16.7394 38.8136 16.1147 38.5034C15.153 38.1829 14.1891 37.86 13.5457 37.5395C12.9408 37.2381 12.338 37.5034 11.7333 38.0709C11.6557 38.1438 11.5902 38.2304 11.5545 38.3307C11.3703 38.849 11.5773 39.3523 11.8308 39.6676C11.8979 39.751 11.9621 39.8372 12.0132 39.9313C12.3005 40.4604 12.6057 40.7753 13.1546 41.3247C13.2014 41.3715 13.2435 41.4231 13.2807 41.4779C13.8878 42.3732 14.5053 42.9979 15.4048 43.8956C15.4519 43.9426 15.4944 43.9945 15.5317 44.0497C16.1535 44.9683 16.751 45.6111 16.4375 46.8583C16.117 49.109 15.153 51.3597 13.5457 52.9647C13.2252 53.2852 12.9024 53.2853 12.9023 53.2853C12.9023 53.2853 12.9023 53.2853 12.9023 53.2853C11.9384 53.2853 10.6516 52.6442 10.0105 52.0008C9.1223 51.1126 9.3247 50.2243 10.1161 49.5887C10.252 49.4796 10.4297 49.4401 10.5865 49.364C10.6556 49.3304 10.7192 49.2854 10.7743 49.2301C10.8025 49.2017 10.8281 49.1712 10.8507 49.1388C10.9907 48.9391 11.0746 48.695 11.2313 48.5082C11.6526 48.0059 11.8526 47.4746 11.6835 46.7652C11.6472 46.6125 11.5542 46.4816 11.4648 46.3527C11.2855 46.094 11.2356 45.8331 10.9745 45.5738C9.68996 44.287 8.08265 43.0025 6.47533 41.718C2.29903 38.5034 0.368891 34.6477 0.0483367 30.1463C-0.272217 25.006 1.01227 20.1864 3.58352 15.6872C4.54746 14.0799 5.83422 12.4726 7.76209 11.5087C9.04658 10.8653 10.3311 10.5447 11.6178 10.2242C15.153 9.25797 19.0088 8.61686 22.8645 9.25797C26.0791 9.90135 28.6504 11.5087 29.6143 14.7233C30.2577 16.9717 30.5783 18.8996 30.2577 21.1503C29.9349 25.6494 26.3997 29.5052 22.2234 30.7896C20.2955 31.433 19.3293 31.1125 18.3654 29.5052C17.7593 28.5939 16.8648 27.3943 16.2234 26.1807C16.1505 26.0428 16.1147 25.8887 16.1147 25.7328V25.6494C16.1147 25.5747 15.9061 25.6637 15.9188 25.7373C16.2067 27.4167 16.5595 29.0652 17.4014 30.4691C18.0448 31.433 18.6882 32.0764 19.9727 32.0764C24.1513 32.397 27.3636 31.1125 29.9349 27.8978C32.4927 24.3812 33.1427 20.2301 32.5161 15.7579C32.5096 15.711 32.5063 15.6633 32.5055 15.616C32.4911 14.7424 32.2113 14.1272 31.9169 13.2695C31.8821 13.1681 31.8646 13.0612 31.8655 12.9539C31.8695 12.4706 31.9114 12.1852 32.345 11.9185C32.4482 11.855 32.5989 11.832 32.7198 11.8256C33.0888 11.806 33.4102 11.4557 33.7736 11.3886C36.8173 10.8267 40.1038 10.5653 43.1117 10.8653C46.9674 11.1881 50.5026 12.152 53.7173 14.4005C58.8598 17.6151 62.0721 22.4348 63.6794 28.2207C64 29.1846 64 29.8257 64 30.7896C64 31.433 63.6794 31.433 63.0361 31.1125C62.395 30.7896 62.0721 30.1485 61.7516 29.8257C61.431 29.5029 61.1082 28.8618 60.7876 28.5412C60.4671 28.2207 60.1443 28.2207 60.1443 28.5412C60.1443 28.8135 59.913 29.0874 59.8433 29.3602C59.8193 29.4544 59.8095 29.5527 59.7813 29.6458C58.822 32.8041 57.5401 35.6444 55.3223 37.86C55.004 38.1829 54.6812 38.824 54.6812 39.1468C54.6812 40.4313 54.3606 41.7158 54.6812 43.0025C55.0018 45.5715 55.3246 48.4656 55.6451 51.0368C55.9657 52.6442 55.3246 53.2875 54.0378 53.9286C53.0739 54.2492 52.1099 54.572 50.8255 54.572H46.683C46.1307 54.572 45.6886 54.1241 45.6745 53.572C45.6412 52.2673 45.4759 51.0417 44.6573 50.2079C44.3491 49.894 44.1486 49.4608 44.2544 49.0338C44.516 47.9775 44.7785 46.8827 45.0396 45.5738C45.3624 44.287 45.0396 43.3231 44.3962 42.3591C43.78 41.4327 42.8656 41.3967 41.9396 41.6819C41.8647 41.705 41.7932 41.7395 41.7263 41.7802C39.1886 43.3229 36.6469 43.3105 33.7929 42.3591C32.5061 42.0386 31.5422 42.0386 30.8988 43.3231C30.2577 44.6098 29.9349 45.8943 29.9349 47.1811C29.9349 48.7541 30.2449 50.6372 30.5591 52.2247C30.5718 52.2891 30.5783 52.3546 30.5782 52.4203C30.5771 53.3079 30.5445 53.6193 29.6143 53.9286C27.5299 54.5056 25.3441 54.6164 23.2122 54.2535C23.1957 54.2506 23.1789 54.2492 23.1621 54.2492C22.999 54.2492 22.867 54.1169 22.8665 53.9538C22.8623 52.5714 22.7988 51.2143 21.8428 50.2395C21.3471 49.734 21.1482 48.8505 21.4012 48.1893C21.8788 46.9416 21.8148 45.3686 21.58 43.9665ZM8.4032 36.5755C8.69776 36.281 8.99042 35.9883 9.03942 35.4506C9.04915 35.3438 9.06712 35.2376 9.08659 35.1322C9.26607 34.1601 8.35267 32.7029 7.43927 32.397C6.79816 32.0764 6.47533 32.397 6.15478 32.7198C5.29006 33.5845 4.68331 34.4492 3.8717 35.3139C3.69019 35.5073 3.5768 35.7727 3.39241 35.9633C3.3717 35.9848 3.3517 36.0069 3.33387 36.0312C3.24174 36.1567 3.21913 36.3232 3.17687 36.4731C3.01839 37.0352 3.33651 37.5395 3.90408 37.5395C4.13181 37.5395 4.51793 37.5395 4.83898 37.652C5.08811 37.7393 5.33944 37.8641 5.60294 37.848C6.6875 37.7819 7.54715 37.4336 8.4032 36.5755ZM8.4032 25.97C8.4032 25.3266 7.76209 24.6855 7.11871 24.6855C6.51109 24.6855 5.61756 25.2573 5.79204 26.1328C5.81314 26.2387 5.83005 26.3463 5.84769 26.4528C5.92867 26.9418 6.36959 27.399 7.02771 27.5359C7.28737 27.5899 7.54823 27.4753 7.72701 27.2794C8.04329 26.9328 8.4032 26.452 8.4032 25.97Z" fill="#3B82F6"/>
</g>
<defs>
<clipPath id="clip0_762_5511">
<rect width="64" height="64" fill="white"/>
</clipPath>
</defs>
</svg>
