<svg width="64" height="64" viewBox="0 0 64 64" fill="none" xmlns="http://www.w3.org/2000/svg">
<g clip-path="url(#clip0_762_5513)">
<path d="M21.5801 43.9665C21.2633 42.0612 20.3182 40.4691 18.4331 39.811C18.3884 39.7954 18.3442 39.7774 18.3021 39.7557C17.6622 39.426 16.7395 38.8136 16.1147 38.5034C15.1531 38.1829 14.1891 37.86 13.5458 37.5395C12.9409 37.2381 12.338 37.5034 11.7334 38.0709C11.6557 38.1438 11.5902 38.2304 11.5545 38.3307C11.3704 38.849 11.5774 39.3523 11.8309 39.6676C11.8979 39.751 11.9622 39.8372 12.0132 39.9313C12.3006 40.4604 12.6058 40.7753 13.1547 41.3247C13.2015 41.3715 13.2436 41.4231 13.2808 41.4779C13.8879 42.3732 14.5053 42.9979 15.4049 43.8956C15.452 43.9426 15.4944 43.9945 15.5318 44.0497C16.1536 44.9683 16.751 45.6111 16.4376 46.8583C16.117 49.109 15.1531 51.3597 13.5458 52.9647C13.2252 53.2852 12.9024 53.2853 12.9024 53.2853C12.9024 53.2853 12.9024 53.2853 12.9024 53.2853C11.9384 53.2853 10.6517 52.6442 10.0106 52.0008C9.12236 51.1126 9.32477 50.2243 10.1162 49.5887C10.2521 49.4796 10.4298 49.4401 10.5866 49.364C10.6557 49.3304 10.7193 49.2854 10.7743 49.2301C10.8026 49.2017 10.8281 49.1712 10.8508 49.1388C10.9907 48.9391 11.0746 48.695 11.2314 48.5082C11.6526 48.0059 11.8527 47.4746 11.6836 46.7652C11.6472 46.6125 11.5542 46.4816 11.4648 46.3527C11.2856 46.094 11.2357 45.8331 10.9745 45.5738C9.69003 44.287 8.08271 43.0025 6.47539 41.718C2.2991 38.5034 0.368952 34.6477 0.0483978 30.1463C-0.272156 25.006 1.01233 20.1864 3.58359 15.6872C4.54752 14.0799 5.83428 12.4726 7.76215 11.5087C9.04664 10.8653 10.3311 10.5447 11.6179 10.2242C15.1531 9.25797 19.0088 8.61686 22.8646 9.25797C26.0792 9.90135 28.6505 11.5087 29.6144 14.7233C30.2578 16.9717 30.5783 18.8996 30.2578 21.1503C29.9349 25.6494 26.3998 29.5052 22.2235 30.7896C20.2956 31.433 19.3294 31.1125 18.3654 29.5052C17.7594 28.5939 16.8649 27.3943 16.2234 26.1807C16.1506 26.0428 16.1147 25.8887 16.1147 25.7328V25.6494V25.6494C16.1147 25.5747 15.9062 25.6637 15.9188 25.7373C16.2067 27.4167 16.5596 29.0652 17.4015 30.4691C18.0449 31.433 18.6883 32.0764 19.9728 32.0764C24.1513 32.397 27.3637 31.1125 29.9349 27.8978C32.4927 24.3812 33.1428 20.2301 32.5162 15.7579C32.5096 15.711 32.5064 15.6633 32.5056 15.616C32.4911 14.7424 32.2114 14.1272 31.917 13.2695C31.8822 13.1681 31.8646 13.0612 31.8655 12.9539C31.8696 12.4706 31.9114 12.1852 32.3451 11.9185C32.4482 11.855 32.5989 11.832 32.7199 11.8256V11.8256C33.0889 11.806 33.4102 11.4557 33.7736 11.3886C36.8173 10.8267 40.1039 10.5653 43.1118 10.8653C46.9675 11.1881 50.5027 12.152 53.7173 14.4005C58.8598 17.6151 62.0722 22.4348 63.6795 28.2207C64.0001 29.1846 64.0001 29.8257 64.0001 30.7896C64.0001 31.433 63.6795 31.433 63.0361 31.1125C62.395 30.7896 62.0722 30.1485 61.7516 29.8257C61.4311 29.5029 61.1083 28.8618 60.7877 28.5412C60.4671 28.2207 60.1443 28.2207 60.1443 28.5412C60.1443 28.8135 59.9131 29.0874 59.8434 29.3602C59.8193 29.4544 59.8096 29.5527 59.7813 29.6458C58.8221 32.8041 57.5402 35.6444 55.3224 37.86C55.0041 38.1829 54.6813 38.824 54.6813 39.1468C54.6813 40.4313 54.3607 41.7158 54.6813 43.0025C55.0018 45.5715 55.3246 48.4656 55.6452 51.0368C55.9657 52.6442 55.3246 53.2875 54.0379 53.9286C53.0739 54.2492 52.11 54.572 50.8255 54.572H46.683C46.1307 54.572 45.6887 54.1241 45.6746 53.572C45.6412 52.2673 45.476 51.0417 44.6574 50.2079C44.3492 49.894 44.1487 49.4608 44.2544 49.0338C44.516 47.9775 44.7786 46.8827 45.0396 45.5738C45.3625 44.287 45.0396 43.3231 44.3962 42.3591C43.7801 41.4327 42.8656 41.3967 41.9396 41.6819C41.8647 41.705 41.7933 41.7395 41.7263 41.7802C39.1887 43.3229 36.6469 43.3105 33.793 42.3591C32.5062 42.0386 31.5423 42.0386 30.8989 43.3231C30.2578 44.6098 29.9349 45.8943 29.9349 47.1811C29.9349 48.7541 30.245 50.6372 30.5591 52.2247C30.5719 52.2891 30.5784 52.3546 30.5783 52.4203C30.5771 53.3079 30.5446 53.6193 29.6144 53.9286C27.53 54.5056 25.3442 54.6164 23.2123 54.2535C23.1957 54.2506 23.179 54.2492 23.1622 54.2492V54.2492C22.9991 54.2492 22.867 54.1169 22.8665 53.9538C22.8623 52.5714 22.7988 51.2143 21.8429 50.2395C21.3472 49.734 21.1482 48.8505 21.4013 48.1893C21.8789 46.9416 21.8149 45.3686 21.5801 43.9665ZM8.40326 36.5755C8.69782 36.281 8.99048 35.9883 9.03948 35.4506C9.04921 35.3438 9.06718 35.2376 9.08665 35.1322C9.26613 34.1601 8.35273 32.7029 7.43933 32.397C6.79822 32.0764 6.47539 32.397 6.15484 32.7198C5.29012 33.5845 4.68337 34.4492 3.87176 35.3139C3.69025 35.5073 3.57686 35.7727 3.39247 35.9633C3.37176 35.9848 3.35176 36.0069 3.33393 36.0312C3.2418 36.1567 3.21919 36.3232 3.17693 36.4731C3.01845 37.0352 3.33657 37.5395 3.90414 37.5395C4.13187 37.5395 4.51799 37.5395 4.83904 37.652C5.08817 37.7393 5.3395 37.8641 5.603 37.848C6.68756 37.7819 7.54721 37.4336 8.40326 36.5755ZM8.40326 25.97C8.40326 25.3266 7.76215 24.6855 7.11877 24.6855C6.51115 24.6855 5.61762 25.2573 5.7921 26.1328C5.8132 26.2387 5.83011 26.3463 5.84775 26.4528C5.92873 26.9418 6.36966 27.399 7.02777 27.5359C7.28743 27.5899 7.54829 27.4753 7.72707 27.2794C8.04335 26.9328 8.40326 26.452 8.40326 25.97Z" fill="#EC4899"/>
</g>
<defs>
<clipPath id="clip0_762_5513">
<rect width="64" height="64" fill="white"/>
</clipPath>
</defs>
</svg>
