<svg width="64" height="64" viewBox="0 0 64 64" fill="none" xmlns="http://www.w3.org/2000/svg">
<g clip-path="url(#clip0_762_5515)">
<path d="M63.907 1.14276C63.9595 0.538152 63.4825 0.035165 62.8778 0.0870718C53.4703 0.894656 11.9037 6.19362 8.87074 35.9486C8.59368 38.438 8.38424 40.9343 8.24263 43.4347C8.19122 44.3424 9.28193 44.8219 9.92517 44.1794L21.9235 32.195C21.064 32.8981 19.9874 33.2814 18.8771 33.2798C17.604 33.2798 16.3832 32.7741 15.483 31.8739C14.5828 30.9737 14.0771 29.7529 14.0771 28.4798C14.0771 27.2068 14.5828 25.9859 15.483 25.0857C16.3832 24.1856 17.604 23.6799 18.8771 23.6799C20.1501 23.6799 21.371 24.1856 22.2712 25.0857C23.1713 25.9859 23.677 27.2068 23.677 28.4798C23.6779 29.6062 23.2826 30.6971 22.5603 31.5614L30.4834 23.6447C30.8585 23.2691 31.3675 23.058 31.8983 23.0577C32.4291 23.0574 32.9382 23.2679 33.3138 23.6431C33.6893 24.0182 33.9005 24.5271 33.9008 25.0579C33.9011 25.5887 33.6905 26.0979 33.3154 26.4734L25.2354 34.5438C26.1199 33.7319 27.2764 33.2809 28.477 33.2798C29.75 33.2798 30.9709 33.7855 31.8711 34.6857C32.7713 35.5858 33.277 36.8067 33.277 38.0798C33.277 39.3528 32.7713 40.5737 31.8711 41.4739C30.9709 42.374 29.75 42.8797 28.477 42.8797C27.204 42.8797 25.9831 42.374 25.0829 41.4739C24.1828 40.5737 23.677 39.3528 23.677 38.0798C23.676 36.9025 24.1076 35.766 24.8898 34.8862L0.877191 58.8796C0.59879 59.1585 0.378033 59.4894 0.227525 59.8535C0.0770162 60.2177 -0.000296286 60.6079 8.53259e-07 61.0019C0.000297992 61.3959 0.0781991 61.786 0.229257 62.1499C0.380314 62.5138 0.60157 62.8444 0.880391 63.1228C1.15921 63.4012 1.49014 63.622 1.85427 63.7725C2.21841 63.923 2.60862 64.0003 3.00264 64C3.39666 63.9997 3.78675 63.9218 4.15066 63.7707C4.51457 63.6197 4.84516 63.3984 5.12356 63.1196L11.9743 56.2781C12.1611 56.0916 12.4141 55.9866 12.6781 55.9851C17.8014 55.9561 22.9194 55.6501 28.0098 55.0685C33.6501 54.4934 38.4087 52.5354 42.428 49.681C43.1877 49.1415 42.7853 48.0061 41.8535 48.0061H38.126C36.9914 48.0061 36.7336 46.4158 37.81 46.0573L50.0145 41.9927C50.2072 41.9285 50.3761 41.8073 50.4971 41.6441C51.4929 40.3016 52.42 38.9097 53.2749 37.474C53.664 36.8204 53.1845 36.0062 52.4238 36.0062H48.2129C47.1573 36.0062 46.8218 34.583 47.7662 34.1115L56.9542 29.5241C57.1705 29.4161 57.3408 29.233 57.4317 29.009C62.0842 17.5351 63.5144 5.66564 63.907 1.14276Z" fill="#F97316"/>
</g>
<defs>
<clipPath id="clip0_762_5515">
<rect width="64" height="64" fill="white"/>
</clipPath>
</defs>
</svg>
