<svg width="64" height="64" viewBox="0 0 64 64" fill="none" xmlns="http://www.w3.org/2000/svg">
<g clip-path="url(#clip0_762_5517)">
<path d="M62.2549 25.8737C61.5382 27.7616 59.0167 28.5872 57.324 26.7345C51.9867 20.5748 41.5297 20.5108 38.621 29.8159C36.4003 36.5099 41.9328 43.5112 51.7179 42.6248C53.865 42.4552 55.3817 44.3783 54.7065 46.4966L49.8396 59.7983C48.6045 63.0717 45.4366 64.8348 41.6896 63.6093L4.41488 50.0164C1.05826 48.8325 -0.781638 45.1751 0.319102 41.8889L14.1263 4.15331C15.6143 0.787094 18.1837 -0.736023 22.2763 0.342318L59.5511 13.9288C62.9141 15.1223 64.7508 18.7765 63.65 22.0595L62.2549 25.8737ZM55.1417 32.5102C55.1417 27.4832 49.6604 24.3218 45.3022 26.8369C40.9409 29.3519 40.9409 35.6684 45.3022 38.1835C49.6636 40.6985 55.1417 37.5371 55.1417 32.5102Z" fill="#A855F7"/>
</g>
<defs>
<clipPath id="clip0_762_5517">
<rect width="64" height="64" fill="white"/>
</clipPath>
</defs>
</svg>
