<svg width="64" height="64" viewBox="0 0 64 64" fill="none" xmlns="http://www.w3.org/2000/svg">
<g clip-path="url(#clip0_762_5528)">
<path d="M25.2326 44.1328V39.9135L13.5107 43.2352C13.5107 43.2352 14.3788 38.2069 20.4907 36.4707C22.0271 36.0089 23.6509 35.9169 25.2296 36.2021V18.8997H31.0994C30.6141 17.3438 30.0212 15.8234 29.3249 14.3498C28.4657 12.6048 27.5858 13.7592 25.5869 15.4334C24.1785 16.6085 20.6206 19.1182 15.2675 20.5621C9.9144 22.0059 5.58882 21.622 3.78182 21.3091C1.22191 20.8662 -0.118582 20.3022 0.00838076 22.2539C0.117627 23.9664 0.525088 26.6326 1.46107 30.1462C3.49247 37.764 10.1919 52.4385 22.8528 49.0282C26.1597 48.1365 28.4922 46.3768 30.1132 44.1269H25.2326V44.1328ZM6.32402 30.2525L15.3206 27.8816C15.3206 27.8816 15.0549 31.345 11.683 32.2337C8.31113 33.1195 6.32402 30.2525 6.32402 30.2525Z" fill="#EF4444"/>
<path d="M59.099 19.1005C56.7606 19.5139 51.1447 20.0217 44.212 18.1616C37.2733 16.3014 32.6731 13.0565 30.8484 11.53C28.2619 9.36575 27.1281 7.85696 26.0061 10.1334C25.017 12.1412 23.7533 15.4068 22.528 19.9863C19.8765 29.8894 17.8924 50.788 34.2941 55.1844C50.693 59.5808 59.4268 40.4863 62.0782 30.5803C63.3065 26.0096 63.8409 22.5492 63.9886 20.314C64.1598 17.7836 62.4237 18.5188 59.099 19.1035V19.1005ZM26.142 27.297C26.142 27.297 28.7255 23.2726 33.1101 24.5215C37.4977 25.7675 37.8343 30.6187 37.8343 30.6187L26.142 27.297ZM36.8422 45.3374C29.133 43.0787 27.9431 36.9284 27.9431 36.9284L48.6586 42.7214C48.6586 42.7214 44.4777 47.5637 36.8422 45.3374ZM44.1706 32.7003C44.1706 32.7003 46.7512 28.6788 51.1329 29.9307C55.5146 31.1826 55.863 36.0278 55.863 36.0278L44.1706 32.7003Z" fill="#22C55E"/>
</g>
<defs>
<clipPath id="clip0_762_5528">
<rect width="64" height="64" fill="white"/>
</clipPath>
</defs>
</svg>
