<svg width="64" height="64" viewBox="0 0 64 64" fill="none" xmlns="http://www.w3.org/2000/svg">
<path d="M64 15.0728C64 17.282 62.2092 19.0728 60 19.0728H48.9272C46.718 19.0728 44.9272 17.282 44.9272 15.0728V4C44.9272 1.79084 46.718 0 48.9272 0H60C62.2092 0 64 1.79088 64 4V15.0728Z" fill="#F59E0B"/>
<path d="M41.5364 15.0728C41.5364 17.282 39.7456 19.0728 37.5364 19.0728H26.4636C24.2544 19.0728 22.4635 17.282 22.4635 15.0728V4C22.4635 1.79084 24.2544 0 26.4636 0H37.5364C39.7456 0 41.5364 1.79088 41.5364 4V15.0728Z" fill="#F59E0B"/>
<path d="M19.0728 15.0728C19.0728 17.282 17.282 19.0728 15.0728 19.0728H4C1.79084 19.0728 0 17.282 0 15.0728V4C0 1.79084 1.79088 0 4 0H15.0728C17.282 0 19.0728 1.79088 19.0728 4V15.0728Z" fill="#F59E0B"/>
<path d="M64 37.5364C64 39.7452 62.2092 41.5364 60 41.5364H48.9272C46.718 41.5364 44.9272 39.7452 44.9272 37.5364V26.4632C44.9272 24.2544 46.718 22.4634 48.9272 22.4634H60C62.2092 22.4634 64 24.2544 64 26.4632V37.5364Z" fill="#F59E0B"/>
<path d="M41.5364 37.5364C41.5364 39.7452 39.7456 41.5364 37.5364 41.5364H26.4636C24.2544 41.5364 22.4635 39.7452 22.4635 37.5364V26.4632C22.4635 24.2544 24.2544 22.4634 26.4636 22.4634H37.5364C39.7456 22.4634 41.5364 24.2544 41.5364 26.4632V37.5364Z" fill="#737373"/>
<path d="M41.5364 60C41.5364 62.2092 39.7456 64 37.5364 64H26.4636C24.2544 64 22.4635 62.2092 22.4635 60V48.9272C22.4635 46.718 24.2544 44.9272 26.4636 44.9272H37.5364C39.7456 44.9272 41.5364 46.718 41.5364 48.9272V60Z" fill="#737373"/>
<path d="M64 60C64 62.2092 62.2092 64 60 64H48.9272C46.718 64 44.9272 62.2092 44.9272 60V48.9272C44.9272 46.718 46.718 44.9272 48.9272 44.9272H60C62.2092 44.9272 64 46.718 64 48.9272V60Z" fill="#737373"/>
<path d="M19.0728 60C19.0728 62.2092 17.282 64 15.0728 64H4C1.79084 64 0 62.2092 0 60V48.9272C0 46.718 1.79088 44.9272 4 44.9272H15.0728C17.282 44.9272 19.0728 46.718 19.0728 48.9272V60Z" fill="#737373"/>
</svg>
