<svg width="65" height="64" viewBox="0 0 65 64" fill="none" xmlns="http://www.w3.org/2000/svg">
<g clip-path="url(#clip0_762_5545)">
<path d="M62 32.5C62 40.3239 58.892 47.8273 53.3596 53.3596C47.8273 58.892 40.3239 62 32.5 62C24.6761 62 17.1727 58.892 11.6403 53.3596C6.10803 47.8273 3 40.3239 3 32.5C3 24.6761 6.10803 17.1727 11.6403 11.6403C17.1727 6.10803 24.6761 3 32.5 3C40.3239 3 47.8273 6.10803 53.3596 11.6403C58.892 17.1727 62 24.6761 62 32.5Z" stroke="#EF4444" stroke-width="3.81407" stroke-linecap="square"/>
<path d="M60.9716 45.707H4.02742L32.4991 4.60563L60.9716 45.707Z" stroke="#EF4444" stroke-width="3.81407" stroke-linecap="square"/>
<path d="M21.4889 21.3692H45.5845V45.4648H21.4889V21.3692Z" stroke="#EF4444" stroke-width="3.81407" stroke-linecap="square"/>
<path d="M43.7394 32.8991C43.7394 35.605 42.6645 38.2001 40.7511 40.1135C38.8377 42.0269 36.2426 43.1018 33.5367 43.1018C30.8308 43.1018 28.2357 42.0269 26.3223 40.1135C24.4089 38.2001 23.334 35.605 23.334 32.8991C23.334 30.1932 24.4089 27.5981 26.3223 25.6847C28.2357 23.7713 30.8308 22.6964 33.5367 22.6964C36.2426 22.6964 38.8377 23.7713 40.7511 25.6847C42.6645 27.5981 43.7394 30.1932 43.7394 32.8991Z" stroke="#EF4444" stroke-width="3.81407" stroke-linecap="square"/>
</g>
<defs>
<clipPath id="clip0_762_5545">
<rect width="64.8205" height="64" fill="white"/>
</clipPath>
</defs>
</svg>
