<svg width="64" height="64" viewBox="0 0 64 64" fill="none" xmlns="http://www.w3.org/2000/svg">
<path d="M61.8732 8C63.3634 8 64.304 9.21543 63.9101 10.7026L54.3058 53.9175C53.9698 55.4078 52.5131 56.6232 51.0229 56.6232H2.1248C0.637583 56.6232 -0.306052 55.4078 0.0909466 53.9175L9.69222 10.7057C10.0281 9.21543 11.4848 8 12.9751 8H61.8732ZM43.6387 44.4659H31.4844C30.8111 44.4699 30.1669 44.7411 29.6933 45.2198C29.2198 45.6985 28.9556 46.3456 28.9589 47.0189C28.9589 48.445 30.0858 49.5994 31.4814 49.5994H43.6387C43.9778 49.5998 44.3137 49.5333 44.6271 49.4038C44.9406 49.2743 45.2254 49.0843 45.4654 48.8447C45.7053 48.605 45.8956 48.3204 46.0255 48.0071C46.1554 47.6938 46.2222 47.358 46.2222 47.0189C46.2166 46.3383 45.9416 45.6875 45.4575 45.2091C44.9733 44.7307 44.3194 44.4634 43.6387 44.4659ZM13.0972 45.3149C12.8106 45.5153 12.5665 45.7706 12.3791 46.0659C12.1916 46.3612 12.0646 46.6908 12.0052 47.0355C11.9459 47.3802 11.9554 47.7332 12.0333 48.0743C12.1112 48.4153 12.2559 48.7375 12.459 49.0222C12.6593 49.3169 12.9161 49.5691 13.2143 49.7641C13.5126 49.9591 13.8466 50.0931 14.1969 50.1584C14.5472 50.2237 14.907 50.219 15.2555 50.1445C15.604 50.0701 15.9344 49.9273 16.2274 49.7246C38.5663 34.0095 38.7159 33.8294 38.8686 33.7378C39.1256 33.5065 39.3335 33.226 39.4799 32.9128C39.6263 32.5996 39.7081 32.2601 39.7206 31.9146C39.7497 31.3083 39.578 30.7093 39.232 30.2106L24.2804 14.1718C24.0407 13.9101 23.7507 13.6995 23.4276 13.5526C23.1046 13.4058 22.7552 13.3257 22.4004 13.3171C22.0457 13.3086 21.6928 13.3717 21.3631 13.5029C21.0333 13.634 20.7334 13.8304 20.4814 14.0802C20.2221 14.3164 20.0122 14.6018 19.864 14.9198C19.7157 15.2377 19.6321 15.582 19.6179 15.9325C19.6037 16.2831 19.6592 16.6329 19.7812 16.9618C19.9032 17.2908 20.0893 17.5922 20.3287 17.8486L32.9411 31.3405L13.0972 45.3149Z" fill="#0EA5E9"/>
</svg>
