<svg width="64" height="64" viewBox="0 0 64 64" fill="none" xmlns="http://www.w3.org/2000/svg">
<g clip-path="url(#clip0_762_2873)">
<path d="M55.2857 12.1909H52.238C51.3965 12.1909 50.7142 12.8732 50.7142 13.7147C50.7142 14.5563 51.3965 15.2385 52.238 15.2385H55.2857C56.1272 15.2385 56.8095 14.5563 56.8095 13.7147C56.8095 12.8732 56.1272 12.1909 55.2857 12.1909Z" fill="#56B3B4"/>
<path d="M21.7619 60.9526H6.52381C5.68223 60.9526 5 61.6349 5 62.4764C5 63.318 5.68223 64.0003 6.52381 64.0003H21.7619C22.6035 64.0003 23.2857 63.318 23.2857 62.4764C23.2857 61.6349 22.6035 60.9526 21.7619 60.9526Z" fill="#EA5E5E"/>
<path d="M52.2381 36.5713H43.0952C42.2536 36.5713 41.5714 37.2535 41.5714 38.0951C41.5714 38.9367 42.2536 39.6189 43.0952 39.6189H52.2381C53.0797 39.6189 53.7619 38.9367 53.7619 38.0951C53.7619 37.2535 53.0797 36.5713 52.2381 36.5713Z" fill="#BF85BF"/>
<path d="M36.9999 36.5713H24.8095C23.9679 36.5713 23.2856 37.2535 23.2856 38.0951C23.2856 38.9367 23.9679 39.6189 24.8095 39.6189H36.9999C37.8415 39.6189 38.5237 38.9367 38.5237 38.0951C38.5237 37.2535 37.8415 36.5713 36.9999 36.5713Z" fill="#EA5E5E"/>
<path d="M18.7143 36.5713H6.52381C5.68223 36.5713 5 37.2535 5 38.0951C5 38.9367 5.68223 39.6189 6.52381 39.6189H18.7143C19.5559 39.6189 20.2381 38.9367 20.2381 38.0951C20.2381 37.2535 19.5559 36.5713 18.7143 36.5713Z" fill="#56B3B4"/>
<path d="M21.7619 48.7617H6.52381C5.68223 48.7617 5 49.444 5 50.2855C5 51.1271 5.68223 51.8093 6.52381 51.8093H21.7619C22.6035 51.8093 23.2857 51.1271 23.2857 50.2855C23.2857 49.444 22.6035 48.7617 21.7619 48.7617Z" fill="#BF85BF"/>
<path d="M21.7619 24.3804H6.52381C5.68223 24.3804 5 25.0626 5 25.9042C5 26.7458 5.68223 27.428 6.52381 27.428H21.7619C22.6035 27.428 23.2857 26.7458 23.2857 25.9042C23.2857 25.0626 22.6035 24.3804 21.7619 24.3804Z" fill="#BF85BF"/>
<path d="M52.2382 6.09473H21.762C20.9204 6.09473 20.2382 6.77696 20.2382 7.61854C20.2382 8.46011 20.9204 9.14235 21.762 9.14235H52.2382C53.0797 9.14235 53.762 8.46011 53.762 7.61854C53.762 6.77696 53.0797 6.09473 52.2382 6.09473Z" fill="#F7BA3E"/>
<path d="M15.6667 6.09473H6.52381C5.68223 6.09473 5 6.77696 5 7.61854C5 8.46011 5.68223 9.14235 6.52381 9.14235H15.6667C16.5082 9.14235 17.1905 8.46011 17.1905 7.61854C17.1905 6.77696 16.5082 6.09473 15.6667 6.09473Z" fill="#EA5E5E"/>
<path d="M21.7619 54.8569H18.7142C17.8727 54.8569 17.1904 55.5392 17.1904 56.3807C17.1904 57.2223 17.8727 57.9046 18.7142 57.9046H21.7619C22.6034 57.9046 23.2857 57.2223 23.2857 56.3807C23.2857 55.5392 22.6034 54.8569 21.7619 54.8569Z" fill="#F7BA3E"/>
<path d="M21.7619 18.2856H18.7142C17.8727 18.2856 17.1904 18.9679 17.1904 19.8095C17.1904 20.651 17.8727 21.3333 18.7142 21.3333H21.7619C22.6034 21.3333 23.2857 20.651 23.2857 19.8095C23.2857 18.9679 22.6034 18.2856 21.7619 18.2856Z" fill="#56B3B4"/>
<path d="M12.619 54.8569H6.52381C5.68223 54.8569 5 55.5392 5 56.3807C5 57.2223 5.68223 57.9046 6.52381 57.9046H12.619C13.4606 57.9046 14.1429 57.2223 14.1429 56.3807C14.1429 55.5392 13.4606 54.8569 12.619 54.8569Z" fill="#56B3B4"/>
<path d="M12.619 18.2856H6.52381C5.68223 18.2856 5 18.9679 5 19.8095C5 20.651 5.68223 21.3333 6.52381 21.3333H12.619C13.4606 21.3333 14.1429 20.651 14.1429 19.8095C14.1429 18.9679 13.4606 18.2856 12.619 18.2856Z" fill="#F7BA3E"/>
<path d="M55.2857 30.4766H30.9048C30.0632 30.4766 29.381 31.1588 29.381 32.0004C29.381 32.8419 30.0632 33.5242 30.9048 33.5242H55.2857C56.1273 33.5242 56.8096 32.8419 56.8096 32.0004C56.8096 31.1588 56.1273 30.4766 55.2857 30.4766Z" fill="#56B3B4"/>
<path d="M24.8095 30.4766H15.6666C14.8251 30.4766 14.1428 31.1588 14.1428 32.0004C14.1428 32.8419 14.8251 33.5242 15.6666 33.5242H24.8095C25.6511 33.5242 26.3333 32.8419 26.3333 32.0004C26.3333 31.1588 25.6511 30.4766 24.8095 30.4766Z" fill="#F7BA3E"/>
<path d="M9.57143 30.4766H6.52381C5.68223 30.4766 5 31.1588 5 32.0004C5 32.8419 5.68223 33.5242 6.52381 33.5242H9.57143C10.413 33.5242 11.0952 32.8419 11.0952 32.0004C11.0952 31.1588 10.413 30.4766 9.57143 30.4766Z" fill="#EA5E5E"/>
<path d="M46.143 12.1909H33.9525C33.1109 12.1909 32.4287 12.8732 32.4287 13.7147C32.4287 14.5563 33.1109 15.2385 33.9525 15.2385H46.143C46.9846 15.2385 47.6668 14.5563 47.6668 13.7147C47.6668 12.8732 46.9846 12.1909 46.143 12.1909Z" fill="#BF85BF"/>
<path d="M27.8571 12.1909H6.52381C5.68223 12.1909 5 12.8732 5 13.7147C5 14.5563 5.68223 15.2385 6.52381 15.2385H27.8571C28.6987 15.2385 29.381 14.5563 29.381 13.7147C29.381 12.8732 28.6987 12.1909 27.8571 12.1909Z" fill="#56B3B4"/>
<path d="M43.0952 42.667H15.6666C14.8251 42.667 14.1428 43.3492 14.1428 44.1908C14.1428 45.0324 14.8251 45.7146 15.6666 45.7146H43.0952C43.9368 45.7146 44.619 45.0324 44.619 44.1908C44.619 43.3492 43.9368 42.667 43.0952 42.667Z" fill="#F7BA3E"/>
<path d="M9.57143 42.667H6.52381C5.68223 42.667 5 43.3492 5 44.1908C5 45.0324 5.68223 45.7146 6.52381 45.7146H9.57143C10.413 45.7146 11.0952 45.0324 11.0952 44.1908C11.0952 43.3492 10.413 42.667 9.57143 42.667Z" fill="#BF85BF"/>
<path d="M58.3333 18.2856H43.0952C42.2536 18.2856 41.5714 18.9679 41.5714 19.8095C41.5714 20.651 42.2536 21.3333 43.0952 21.3333H58.3333C59.1749 21.3333 59.8571 20.651 59.8571 19.8095C59.8571 18.9679 59.1749 18.2856 58.3333 18.2856Z" fill="#EA5E5E"/>
<path d="M58.3333 24.3804H43.0952C42.2536 24.3804 41.5714 25.0626 41.5714 25.9042C41.5714 26.7458 42.2536 27.428 43.0952 27.428H58.3333C59.1749 27.428 59.8571 26.7458 59.8571 25.9042C59.8571 25.0626 59.1749 24.3804 58.3333 24.3804Z" fill="#F7BA3E"/>
<path d="M43.0952 0H6.52381C5.68223 0 5 0.682233 5 1.52381C5 2.36539 5.68223 3.04762 6.52381 3.04762H43.0952C43.9368 3.04762 44.619 2.36539 44.619 1.52381C44.619 0.682233 43.9368 0 43.0952 0Z" fill="#56B3B4"/>
</g>
<defs>
<clipPath id="clip0_762_2873">
<rect width="64" height="64" fill="white"/>
</clipPath>
</defs>
</svg>
