<svg width="64" height="64" viewBox="0 0 64 64" fill="none" xmlns="http://www.w3.org/2000/svg">
<path d="M58.6495 48.7589L36.6402 2.01887C36.083 0.846995 34.9283 0.074899 33.6324 0.00784144C32.3336 -0.0791818 31.0942 0.56335 30.4167 1.6749L6.54516 40.3388C5.80408 41.5307 5.81967 43.0437 6.58515 44.2201L18.2562 62.2937C19.163 63.6871 20.8783 64.3179 22.4718 63.844L56.3409 53.8256C57.3727 53.524 58.223 52.7898 58.6719 51.813C59.1147 50.8409 59.1071 49.7232 58.6511 48.7573L58.6495 48.7589ZM53.7219 50.7635L24.982 59.262C24.1053 59.5227 23.2637 58.7628 23.4461 57.8781L33.714 8.7127C33.906 7.79278 35.1763 7.64719 35.5779 8.49831L54.5858 48.8629C54.7559 49.2269 54.758 49.6471 54.5915 50.0128C54.4249 50.3785 54.1066 50.6528 53.7203 50.7635H53.7219Z" fill="#14B8A6"/>
</svg>
