<svg width="64" height="64" viewBox="0 0 64 64" fill="none" xmlns="http://www.w3.org/2000/svg">
<g clip-path="url(#clip0_734_7943)">
<path d="M0 25.6939C0 25.357 0.169621 25.0428 0.451248 24.8579L30.4511 5.16568C31.1161 4.72916 31.9998 5.20619 31.9998 6.00166V17.1851C31.9998 17.522 31.8302 17.8362 31.5485 18.0211L1.54875 37.713C0.883746 38.1495 0 37.6725 0 36.877V25.6939Z" fill="#FF5722"/>
<path d="M0 38.1895C0 38.5264 0.169618 38.8406 0.451241 39.0255L30.451 58.7181C31.116 59.1547 31.9998 58.6776 31.9998 57.8821V46.6987C31.9998 46.3618 31.8302 46.0476 31.5486 45.8627L1.54876 26.1701C0.883756 25.7336 0 26.2106 0 27.0061V38.1895Z" fill="#03A9F4"/>
<path d="M64.0002 38.1895C64.0002 38.5264 63.8306 38.8406 63.5489 39.0255L33.5491 58.7181C32.8841 59.1547 31.9998 58.6776 31.9998 57.8821V46.6987C31.9998 46.3618 32.17 46.0476 32.4516 45.8627L62.4514 26.1701C63.1164 25.7336 64.0002 26.2106 64.0002 27.0061V38.1895Z" fill="#FFEB3B"/>
<path d="M64.0002 25.6939C64.0002 25.357 63.8305 25.0428 63.5489 24.8579L33.5491 5.16568C32.8841 4.72916 31.9998 5.20619 31.9998 6.00166V17.1851C31.9998 17.522 32.17 17.8362 32.4516 18.0211L62.4514 37.7134C63.1164 38.1499 64.0002 37.6729 64.0002 36.8774V25.6939Z" fill="#00E676"/>
</g>
<defs>
<clipPath id="clip0_734_7943">
<rect width="64" height="64" fill="white"/>
</clipPath>
</defs>
</svg>
