<svg width="64" height="64" viewBox="0 0 64 64" fill="none" xmlns="http://www.w3.org/2000/svg">
<g clip-path="url(#clip0_762_3027)">
<path d="M53.5541 24.2881C53.4542 22.0902 53.7539 20.1421 52.7549 18.4937C50.3572 14.3977 44.363 12 32.3746 12C20.3863 12 14.0923 14.3977 11.6947 18.5437C10.7456 20.242 10.8455 22.1402 10.6956 24.3381C10.5957 26.0864 9.79651 27.9346 10.1462 29.9326C10.5458 32.5301 10.6956 35.1276 11.0952 37.5253C11.395 39.4734 14.0923 41.1218 14.3421 42.97C15.0414 48.0651 20.3363 50.4128 32.3247 50.4128V50.8124H32.025H32.3746V50.4128C44.363 50.4128 49.4581 48.0651 50.1075 42.97C50.3572 41.0719 52.8548 39.4734 53.1545 37.5253C53.5541 35.1276 53.704 32.5301 54.1036 29.9326C54.4533 27.9346 53.654 26.0364 53.5541 24.2881Z" fill="#EFCCA3"/>
<path d="M32.1749 26.0859C34.3228 26.1359 35.8213 27.4846 37.22 28.7334C38.8684 30.182 41.6657 31.181 42.8146 32.4298C43.9634 33.6786 45.462 34.9274 46.0115 36.8755C46.5609 38.8236 46.7108 41.3212 46.7108 41.9706C46.7108 42.6199 47.0604 42.4701 48.0595 41.9706C50.4072 40.8217 53.0047 37.7247 53.0047 37.7247C52.705 39.6728 50.1574 41.4211 49.9077 43.2693C49.3083 48.3644 44.3631 50.812 32.1249 50.812H32.075H32.3747" fill="#CCAC8D"/>
<path d="M40.0672 22.1902C40.5167 23.7387 42.1152 28.9837 39.0182 27.2354C39.0182 27.2354 40.3169 27.9846 41.1162 30.8319C41.9653 33.6791 44.0134 34.0288 44.0134 34.0288C44.0134 34.0288 47.3601 34.6781 49.8577 32.5302C51.9557 30.732 52.3053 27.5351 51.4062 25.0874C50.5071 22.6898 48.9086 21.9405 46.5609 21.441C44.2132 20.8915 39.5177 20.4419 40.0672 22.1902Z" fill="#CCAC8D"/>
<path d="M46.0115 32.2803C48.4392 32.2803 50.4072 30.3122 50.4072 27.8845C50.4072 25.4568 48.4392 23.4888 46.0115 23.4888C43.5838 23.4888 41.6157 25.4568 41.6157 27.8845C41.6157 30.3122 43.5838 32.2803 46.0115 32.2803Z" fill="black"/>
<path d="M44.8625 27.0854C45.497 27.0854 46.0114 26.571 46.0114 25.9365C46.0114 25.302 45.497 24.7876 44.8625 24.7876C44.228 24.7876 43.7136 25.302 43.7136 25.9365C43.7136 26.571 44.228 27.0854 44.8625 27.0854Z" fill="white"/>
<path d="M39.3179 27.6851C39.3179 27.6851 43.2641 30.3824 45.412 33.0299C47.5599 35.6773 47.51 36.1768 47.51 36.1768L45.9615 36.8762C45.9615 36.8762 43.7636 32.7302 41.0662 31.1817C38.3189 29.6332 38.0192 28.3344 38.0192 28.3344L39.3179 27.6851Z" fill="#EFCCA3"/>
<path d="M32.3246 26.0859C30.1767 26.1359 28.5783 27.4846 27.1297 28.7334C25.4813 30.182 22.5841 31.181 21.4352 32.4298C20.2863 33.6786 18.7378 34.9274 18.1883 36.8755C17.6389 38.8236 17.439 41.3212 17.439 41.9706C17.439 42.6199 17.539 42.6699 16.0904 41.9706C13.7426 40.8716 11.1451 37.7247 11.1451 37.7247C11.4449 39.6728 13.9924 41.4211 14.2421 43.2693C14.9415 48.3644 19.8867 50.812 32.1248 50.812H32.3746" fill="#CCAC8D"/>
<path d="M43.9135 34.528C41.5158 31.5808 37.6695 28.8335 32.3247 28.8335H32.2748C26.9299 28.8335 23.0837 31.5808 20.686 34.528C18.1884 37.575 18.3882 38.7739 18.3882 41.6711C18.3882 52.1609 22.0846 49.1638 24.5323 50.4626C27.0298 51.7113 29.6273 51.3117 32.2748 51.3117H32.3247C35.0221 51.3117 37.5696 51.6614 40.0672 50.4126C42.5148 49.1638 46.2113 52.2608 46.2113 41.771C46.2612 38.8738 46.4111 37.575 43.9135 34.528Z" fill="#56332B"/>
<path d="M32.0749 31.4312C32.0749 31.4312 31.7252 36.2765 31.0259 37.2255L32.3246 36.9258L32.0749 31.4312Z" fill="#442823"/>
<path d="M32.4246 31.4312C32.4246 31.4312 32.7742 36.2765 33.4735 37.2255L32.1748 36.9258L32.4246 31.4312Z" fill="#442823"/>
<path d="M28.2286 30.2824C27.7291 29.1335 29.5274 27.2853 32.3746 27.2354C35.2219 27.2354 37.0201 29.0836 36.5206 30.2824C36.0211 31.4812 34.2228 31.8309 32.3746 31.8809C30.5764 31.8309 28.7281 31.4812 28.2286 30.2824Z" fill="#56332B"/>
<path d="M32.3747 31.4316C32.3747 31.2317 34.073 31.1818 34.9722 30.5824C34.9722 30.5824 33.124 31.1818 32.7243 30.932C32.3247 30.7322 32.2248 30.1328 32.2248 30.1328C32.2248 30.1328 32.075 30.7322 31.7753 30.932C31.4256 31.1318 29.3276 30.5824 29.3276 30.5824C29.3276 30.5824 32.1249 31.2817 32.1249 31.4316C32.1249 31.5814 32.075 32.0809 32.075 32.4306C32.075 33.6794 32.075 36.7764 32.2748 37.0261C32.5745 37.4757 32.4746 33.6794 32.4746 32.4306C32.4246 32.031 32.4246 31.6314 32.3747 31.4316Z" fill="black"/>
<path d="M32.4746 38.1247C33.3238 38.1247 34.8223 38.7241 36.171 39.6732C34.8723 38.2246 33.3238 37.2256 32.4746 37.2256C31.5755 37.2256 29.6773 38.3245 28.3286 39.923C29.7273 38.824 31.5255 38.1247 32.4746 38.1247Z" fill="#7F4A41"/>
<path d="M32.1249 46.9657C30.2267 46.9657 28.3785 46.3663 26.6802 45.9167C26.3305 45.8168 25.9808 46.0666 25.6312 45.9667C22.4842 44.9677 19.9367 43.2693 18.3882 41.1214V41.6209C18.3882 52.1108 22.0846 49.1636 24.5322 50.4124C27.0298 51.6612 29.6273 51.2616 32.2747 51.2616H32.3247C35.0221 51.2616 37.5696 51.6112 40.0672 50.3624C42.5148 49.1137 46.2112 52.1607 46.2112 41.6709C46.2112 41.2712 46.2112 40.8716 46.2612 40.522C44.8126 42.8697 42.1652 44.7179 38.8684 45.8168C38.5686 45.9167 37.8693 45.667 37.5696 45.7169C35.7714 46.3164 34.1729 46.9657 32.1249 46.9657Z" fill="#442823"/>
<path d="M27.3794 41.3213C27.3794 41.3213 26.1306 45.0677 26.9798 46.7161L25.8309 46.2166C25.8309 46.2166 26.6801 42.4202 27.3794 41.3213ZM37.2699 41.3213C37.2699 41.3213 38.5186 45.0677 37.6695 46.7161L38.8184 46.2166C38.8184 46.2166 37.9192 42.4202 37.2699 41.3213Z" fill="#442823"/>
<path d="M24.1826 22.1902C23.733 23.7387 22.1346 28.9837 25.2316 27.2354C25.2316 27.2354 23.9328 27.9846 23.1336 30.8319C22.3344 33.6791 20.2364 34.0288 20.2364 34.0288C20.2364 34.0288 16.8897 34.6781 14.3921 32.5302C12.2941 30.732 11.9445 27.5351 12.8436 25.0874C13.7427 22.6398 15.3412 21.9405 17.6889 21.441C20.0366 20.8915 24.6821 20.4419 24.1826 22.1902Z" fill="#CCAC8D"/>
<path d="M32.3247 37.2253C33.6734 37.2253 37.8693 40.1225 37.9193 43.6691V43.4693C37.9193 39.7728 34.5226 36.8257 32.3247 36.8257C30.1268 36.8257 26.7301 39.8228 26.7301 43.4693V43.6691C26.7801 40.1225 30.976 37.2253 32.3247 37.2253Z" fill="black"/>
<path d="M33.415 30.3092C33.6287 30.2541 33.7181 29.8846 33.6147 29.4839C33.5114 29.0832 33.2543 28.8031 33.0406 28.8582C32.8269 28.9133 32.7375 29.2828 32.8408 29.6835C32.9442 30.0842 33.2012 30.3644 33.415 30.3092Z" fill="#331712"/>
<path d="M30.8477 30.3021C31.0585 30.3675 31.3288 30.1001 31.4514 29.7049C31.574 29.3096 31.5025 28.9362 31.2917 28.8708C31.0809 28.8055 30.8106 29.0728 30.688 29.4681C30.5654 29.8633 30.6369 30.2367 30.8477 30.3021Z" fill="#331712"/>
<path d="M18.488 32.2803C20.9157 32.2803 22.8838 30.3122 22.8838 27.8845C22.8838 25.4568 20.9157 23.4888 18.488 23.4888C16.0603 23.4888 14.0923 25.4568 14.0923 27.8845C14.0923 30.3122 16.0603 32.2803 18.488 32.2803Z" fill="black"/>
<path d="M19.6369 27.0854C20.2714 27.0854 20.7858 26.571 20.7858 25.9365C20.7858 25.302 20.2714 24.7876 19.6369 24.7876C19.0024 24.7876 18.488 25.302 18.488 25.9365C18.488 26.571 19.0024 27.0854 19.6369 27.0854Z" fill="white"/>
<path d="M33.6234 27.9348C33.6234 27.8849 32.4745 28.4344 32.1748 28.4843C31.8751 28.4344 30.7262 27.8849 30.7262 27.9348H33.6234Z" fill="#7F4A41"/>
<path d="M24.8819 27.6851C24.8819 27.6851 20.9357 30.3824 18.7878 33.0299C16.6398 35.6773 16.6898 36.1768 16.6898 36.1768L18.2383 36.8762C18.2383 36.8762 20.4362 32.7302 23.1336 31.1817C25.8309 29.6332 26.1806 28.3344 26.1806 28.3344L24.8819 27.6851Z" fill="#EFCCA3"/>
<path d="M16.2402 19.6926C16.2402 19.6926 14.8915 23.3891 11.8944 24.9376C11.8944 24.9376 16.5899 24.3881 16.2402 19.6926ZM47.7597 19.6926C47.7597 19.6926 49.1084 23.3891 52.1055 24.9376C52.1055 24.9376 47.41 24.3881 47.7597 19.6926ZM39.218 26.586C39.218 26.586 36.2708 23.489 32.3246 23.3891H32.4245C28.4284 23.489 25.5312 26.586 25.5312 26.586C28.9779 24.1883 31.925 24.2382 32.4245 24.2382C32.3746 24.2382 35.7713 24.1883 39.218 26.586ZM35.7713 20.0923C35.7713 20.0923 34.2727 17.9943 32.2747 17.9443H32.3746C30.876 17.9943 28.9279 20.0923 28.9279 20.0923C30.6263 18.4439 32.3746 18.4938 32.3746 18.4938C32.3746 18.4938 34.023 18.4439 35.7713 20.0923ZM18.488 35.4274C18.488 35.4274 16.1403 36.5763 14.4419 35.877H14.392C12.8934 35.0278 12.1442 32.4803 12.1442 32.4803C12.1442 32.4803 13.6427 36.9759 18.488 35.4274ZM45.8615 35.4274C45.8615 35.4274 48.2092 36.5763 49.9076 35.877C51.9057 35.0278 52.2054 32.4803 52.2054 32.4803C52.2054 32.4803 50.7068 36.9759 45.8615 35.4274Z" fill="#CCAC8D"/>
<path d="M21.1854 19.4424C22.4842 19.1926 24.6321 19.1427 26.3305 19.6922C28.4784 20.4414 26.7301 23.1888 27.1796 23.3386C27.6292 23.4885 28.2286 21.4405 32.2248 21.6403C36.2708 21.8401 36.7204 23.6383 37.2699 23.3386C37.8193 23.0389 36.7204 18.3435 42.7645 19.4424C42.7645 19.4424 36.4207 17.744 36.7204 22.3396C36.7204 22.3396 33.0739 19.5423 27.9789 22.0399C28.0288 22.0399 29.3276 17.744 21.1854 19.4424ZM43.314 19.4424C43.4139 19.4424 43.4639 19.4923 43.5138 19.4923C43.5638 19.4923 43.4639 19.4424 43.314 19.4424ZM19.4371 13.2983C19.4371 13.2983 14.0424 20.0918 13.2431 22.6892C12.4439 25.3367 11.8445 36.1762 11.1452 37.7247L8.64758 27.035L13.2431 15.8958L19.4371 13.2983ZM44.8126 13.2983C44.8126 13.2983 50.2073 20.0918 51.0066 22.6892C51.8058 25.3367 52.4052 36.1762 53.1045 37.7247L55.6021 27.035L51.0066 15.8958L44.8126 13.2983Z" fill="#CCAC8D"/>
<path d="M44.5628 13.2993C44.5628 13.2993 50.3572 18.1446 52.0555 23.7392C53.7539 29.3337 53.0546 36.1272 54.3533 36.9763C56.2015 38.1752 58.2995 31.0321 58.9988 30.2828C60.0978 29.084 63.7442 26.0369 63.994 25.4875C64.2437 24.938 56.6011 16.5961 53.2544 14.9477C49.2083 13.0495 44.2131 12.8997 44.5628 13.2993Z" fill="#56332B"/>
<path d="M49.5081 16.2954C49.5081 16.2954 56.3514 25.0369 56.2515 35.9264L58.9989 30.3318C58.9489 30.3318 56.5512 23.1887 49.5081 16.2954Z" fill="#442823"/>
<path d="M19.4372 13.2993C19.4372 13.2993 13.6428 18.1446 11.9444 23.7392C10.2461 29.3337 10.9454 36.1272 9.64664 36.9763C7.79843 38.1752 5.70046 31.0321 5.00114 30.2828C3.9022 29.084 0.255735 26.0369 0.00597699 25.4875C-0.243781 24.938 7.39882 16.5961 10.7456 14.9477C14.7917 13.0495 19.7868 12.8997 19.4372 13.2993Z" fill="#56332B"/>
<path d="M14.4919 16.2954C14.4919 16.2954 7.64851 25.0369 7.74841 35.9264L5.05103 30.3318C5.05103 30.3318 7.4487 23.1887 14.4919 16.2954Z" fill="#442823"/>
<path d="M10.7955 36.1267C10.7955 36.1267 11.295 38.8241 12.0943 39.6732C12.8935 40.5224 12.344 39.0239 12.344 39.0239C12.344 39.0239 11.4949 38.5743 11.6447 35.1276C11.7946 31.681 10.7955 36.1267 10.7955 36.1267ZM53.4043 36.1267C53.4043 36.1267 52.9048 38.8241 52.1055 39.6732C51.3063 40.5224 51.8558 39.0239 51.8558 39.0239C51.8558 39.0239 52.705 38.5743 52.5551 35.1276C52.4052 31.681 53.4043 36.1267 53.4043 36.1267Z" fill="#CCAC8D"/>
<path d="M27.1297 34.4784C27.3504 34.4784 27.5293 34.2995 27.5293 34.0788C27.5293 33.8581 27.3504 33.6792 27.1297 33.6792C26.909 33.6792 26.7301 33.8581 26.7301 34.0788C26.7301 34.2995 26.909 34.4784 27.1297 34.4784Z" fill="#442823"/>
<path d="M24.832 36.8764C25.0527 36.8764 25.2316 36.6975 25.2316 36.4768C25.2316 36.2561 25.0527 36.0771 24.832 36.0771C24.6113 36.0771 24.4324 36.2561 24.4324 36.4768C24.4324 36.6975 24.6113 36.8764 24.832 36.8764Z" fill="#442823"/>
<path d="M24.0827 34.4784C24.3034 34.4784 24.4823 34.2995 24.4823 34.0788C24.4823 33.8581 24.3034 33.6792 24.0827 33.6792C23.862 33.6792 23.6831 33.8581 23.6831 34.0788C23.6831 34.2995 23.862 34.4784 24.0827 34.4784Z" fill="#442823"/>
<path d="M36.8703 34.4784C37.091 34.4784 37.2699 34.2995 37.2699 34.0788C37.2699 33.8581 37.091 33.6792 36.8703 33.6792C36.6496 33.6792 36.4707 33.8581 36.4707 34.0788C36.4707 34.2995 36.6496 34.4784 36.8703 34.4784Z" fill="#442823"/>
<path d="M39.168 36.8764C39.3887 36.8764 39.5677 36.6975 39.5677 36.4768C39.5677 36.2561 39.3887 36.0771 39.168 36.0771C38.9473 36.0771 38.7684 36.2561 38.7684 36.4768C38.7684 36.6975 38.9473 36.8764 39.168 36.8764Z" fill="#442823"/>
<path d="M39.9173 34.4784C40.138 34.4784 40.3169 34.2995 40.3169 34.0788C40.3169 33.8581 40.138 33.6792 39.9173 33.6792C39.6966 33.6792 39.5177 33.8581 39.5177 34.0788C39.5177 34.2995 39.6966 34.4784 39.9173 34.4784Z" fill="#442823"/>
</g>
<defs>
<clipPath id="clip0_762_3027">
<rect width="64" height="64" fill="white"/>
</clipPath>
</defs>
</svg>
