<svg width="64" height="64" viewBox="0 0 64 64" fill="none" xmlns="http://www.w3.org/2000/svg">
<g clip-path="url(#clip0_762_5657)">
<path d="M25.1533 0C22.7259 0 20.3979 0.964274 18.6815 2.68069C16.9651 4.39711 16.0008 6.72508 16.0008 9.15246V14.5287H29.7295C30.9775 14.5287 32.0016 16.3528 32.0016 17.6009H9.15246C6.72508 17.6009 4.39711 18.5652 2.68069 20.2816C0.964274 21.998 0 24.326 0 26.7533V38.8531C0 41.2805 0.964274 43.6085 2.68069 45.3249C4.39711 47.0413 6.72508 48.0056 9.15246 48.0056H12.9286V39.4292C12.9244 38.2288 13.1572 37.0393 13.6137 35.9291C14.0702 34.8189 14.7413 33.8096 15.5886 32.9593C16.436 32.109 17.4428 31.4344 18.5514 30.974C19.6601 30.5137 20.8487 30.2767 22.0491 30.2767H38.8499C43.9062 30.2767 48.0024 26.2093 48.0024 21.1531V9.15246C48.0024 6.72508 47.0381 4.39711 45.3217 2.68069C43.6053 0.964274 41.2773 0 38.8499 0H25.1533ZM22.8491 5.15226C24.1292 5.15226 25.1533 5.53628 25.1533 7.42437C25.1533 9.31247 24.1292 10.2757 22.8491 10.2757C21.6011 10.2757 20.577 9.31567 20.577 7.42757C20.577 5.53948 21.6011 5.15226 22.8491 5.15226Z" fill="#3B82F6"/>
<path d="M51.0714 16.0008V24.5772C51.0751 25.7774 50.842 26.9664 50.3854 28.0763C49.9287 29.1862 49.2575 30.195 48.4102 31.045C47.5629 31.895 46.5562 32.5693 45.4478 33.0295C44.3394 33.4896 43.151 33.7265 41.9509 33.7265H25.1533C23.9529 33.7223 22.7634 33.9551 21.6532 34.4115C20.5429 34.868 19.5337 35.5391 18.6834 36.3865C17.8331 37.2338 17.1584 38.2407 16.6981 39.3493C16.2378 40.4579 16.0008 41.6465 16.0008 42.8469V54.8475C16.0008 57.2749 16.9651 59.6029 18.6815 61.3193C20.3979 63.0357 22.7259 64 25.1533 64H38.8499C41.2768 64 43.6043 63.0362 45.3206 61.3204C47.0369 59.6047 48.0016 57.2776 48.0024 54.8507V49.4745H34.2705C33.0224 49.4745 32.0016 47.6504 32.0016 46.4023H54.8507C57.2781 46.4023 59.6061 45.438 61.3225 43.7216C63.0389 42.0052 64.0032 39.6772 64.0032 37.2499V25.1533C64.0032 22.7259 63.0389 20.3979 61.3225 18.6815C59.6061 16.9651 57.2781 16.0008 54.8507 16.0008H51.0714ZM20.225 30.4431L20.2122 30.4559C20.2506 30.4495 20.2922 30.4527 20.3338 30.4431H20.225ZM41.1541 53.7275C42.4021 53.7275 43.4262 54.6875 43.4262 56.5756C43.4262 56.874 43.3674 57.1695 43.2532 57.4451C43.139 57.7208 42.9717 57.9713 42.7607 58.1823C42.5497 58.3932 42.2992 58.5606 42.0236 58.6748C41.7479 58.789 41.4524 58.8477 41.1541 58.8477C39.874 58.8477 38.8499 58.4637 38.8499 56.5756C38.8499 54.6875 39.874 53.7275 41.1541 53.7275Z" fill="#EAB308"/>
</g>
<defs>
<clipPath id="clip0_762_5657">
<rect width="64" height="64" fill="white"/>
</clipPath>
</defs>
</svg>
