<svg width="64" height="64" viewBox="0 0 64 64" fill="none" xmlns="http://www.w3.org/2000/svg">
<g clip-path="url(#clip0_763_2639)">
<path fill-rule="evenodd" clip-rule="evenodd" d="M28.4999 0V14V14.1523C28.4997 15.3397 28.4994 16.4937 28.6279 17.4455C28.7728 18.5184 29.126 19.7428 30.1475 20.7598C31.169 21.7768 32.3989 22.1283 33.4767 22.2725C34.4326 22.4006 35.5917 22.4003 36.7844 22.4H36.9374H50.9999V39.2C50.9999 47.1195 50.9999 51.0793 48.5286 53.5396C46.0573 56 42.0798 56 34.1249 56H22.8749C14.92 56 10.9425 56 8.47123 53.5396C5.99994 51.0793 5.99994 47.1195 5.99994 39.2V16.8C5.99994 8.8804 5.99994 4.92061 8.47123 2.4603C10.9425 0 14.92 0 22.8749 0H28.4999ZM34.1249 0.0129362V14C34.1249 15.3991 34.1308 16.1667 34.2028 16.6993L34.2057 16.7197L34.2262 16.7225C34.7611 16.7941 35.532 16.8 36.9374 16.8H50.987C50.9583 15.6474 50.8663 14.8847 50.5719 14.1766C50.1435 13.1475 49.3307 12.3382 47.7048 10.7196L40.2326 3.2804C38.6067 1.66183 37.7938 0.852544 36.76 0.426272C36.0487 0.132972 35.2826 0.0414682 34.1249 0.0129362ZM17.2499 30.8C17.2499 29.2536 18.5092 28 20.0624 28H36.9374C38.4908 28 39.7499 29.2536 39.7499 30.8C39.7499 32.3464 38.4908 33.6 36.9374 33.6H20.0624C18.5092 33.6 17.2499 32.3464 17.2499 30.8ZM20.0624 39.2C18.5092 39.2 17.2499 40.4536 17.2499 42C17.2499 43.5464 18.5092 44.8 20.0624 44.8H31.3124C32.8658 44.8 34.1249 43.5464 34.1249 42C34.1249 40.4536 32.8658 39.2 31.3124 39.2H20.0624Z" fill="#495057"/>
<path d="M42.755 29C41.4276 29 40.1546 29.5273 39.2159 30.4659C38.2773 31.4046 37.75 32.6776 37.75 34.005V36.945H45.2575C45.94 36.945 46.5 37.9425 46.5 38.625H34.005C32.6776 38.625 31.4046 39.1523 30.4659 40.0909C29.5273 41.0296 29 42.3026 29 43.63V50.2468C29 51.5742 29.5273 52.8472 30.4659 53.7858C31.4046 54.7244 32.6776 55.2518 34.005 55.2518H36.07V50.5618C36.0677 49.9053 36.195 49.2549 36.4446 48.6477C36.6942 48.0406 37.0612 47.4887 37.5246 47.0237C37.988 46.5588 38.5386 46.1898 39.1448 45.9381C39.7511 45.6863 40.4011 45.5567 41.0575 45.5568H50.245C53.01 45.5568 55.25 43.3325 55.25 40.5675V34.005C55.25 32.6776 54.7227 31.4046 53.7841 30.4659C52.8454 29.5273 51.5724 29 50.245 29H42.755ZM41.495 31.8175C42.195 31.8175 42.755 32.0275 42.755 33.06C42.755 34.0925 42.195 34.6193 41.495 34.6193C40.8125 34.6193 40.2525 34.0943 40.2525 33.0618C40.2525 32.0293 40.8125 31.8175 41.495 31.8175Z" fill="#3B82F6"/>
<path d="M56.9282 37.75V42.44C56.9303 43.0963 56.8028 43.7465 56.5531 44.3535C56.3034 44.9604 55.9364 45.5121 55.473 45.9769C55.0097 46.4417 54.4592 46.8105 53.853 47.0621C53.2469 47.3137 52.597 47.4433 51.9407 47.4432H42.755C42.0986 47.4409 41.4481 47.5683 40.841 47.8179C40.2339 48.0675 39.682 48.4345 39.217 48.8979C38.752 49.3612 38.3831 49.9118 38.1313 50.5181C37.8796 51.1243 37.75 51.7743 37.75 52.4308V58.9932C37.75 60.3207 38.2773 61.5937 39.2159 62.5323C40.1545 63.4709 41.4276 63.9983 42.755 63.9983H50.245C51.5721 63.9983 52.8449 63.4712 53.7835 62.5329C54.722 61.5947 55.2495 60.3221 55.25 58.995V56.055H47.7407C47.0582 56.055 46.5 55.0575 46.5 54.375H58.995C60.3224 54.375 61.5954 53.8477 62.5341 52.9091C63.4727 51.9705 64 50.6974 64 49.37V42.755C64 41.4276 63.4727 40.1546 62.5341 39.2159C61.5954 38.2773 60.3224 37.75 58.995 37.75H56.9282ZM40.06 45.6478L40.053 45.6548C40.074 45.6513 40.0968 45.653 40.1195 45.6478H40.06ZM51.505 58.3808C52.1875 58.3808 52.7475 58.9058 52.7475 59.9383C52.7475 60.1014 52.7154 60.263 52.6529 60.4137C52.5905 60.5645 52.499 60.7015 52.3836 60.8168C52.2682 60.9322 52.1312 61.0237 51.9805 61.0862C51.8297 61.1486 51.6682 61.1808 51.505 61.1808C50.805 61.1808 50.245 60.9708 50.245 59.9383C50.245 58.9058 50.805 58.3808 51.505 58.3808Z" fill="#EAB308"/>
</g>
<defs>
<clipPath id="clip0_763_2639">
<rect width="64" height="64" fill="white"/>
</clipPath>
</defs>
</svg>
