<svg width="64" height="64" viewBox="0 0 64 64" fill="none" xmlns="http://www.w3.org/2000/svg">
<path d="M38.0556 32.0003C38.0556 32.8201 37.8941 33.6319 37.5804 34.3893C37.2667 35.1468 36.8068 35.835 36.2271 36.4147C35.6474 36.9944 34.9592 37.4542 34.2017 37.768C33.4443 38.0817 32.6325 38.2432 31.8127 38.2432C30.9929 38.2432 30.1811 38.0817 29.4236 37.768C28.6662 37.4542 27.978 36.9944 27.3983 36.4147C26.8186 35.835 26.3587 35.1468 26.045 34.3893C25.7313 33.6319 25.5698 32.8201 25.5698 32.0003C25.5698 30.3445 26.2275 28.7566 27.3983 27.5859C28.5691 26.4151 30.157 25.7574 31.8127 25.7574C33.4684 25.7574 35.0563 26.4151 36.2271 27.5859C37.3979 28.7566 38.0556 30.3445 38.0556 32.0003ZM59.5246 15.9988C59.5246 15.9987 59.5246 15.9987 59.5245 15.9986C58.4259 14.1085 57.1371 12.3371 55.6792 10.7117C55.0717 10.0345 54.0712 9.90475 53.2834 10.3596L48.6278 13.0476C47.8941 13.4712 46.9779 13.3799 46.3026 12.8681C44.6765 11.6357 42.9129 10.6234 41.0569 9.84741C40.3396 9.5475 39.5151 9.73739 38.9914 10.312C37.7228 11.704 36.6046 13.1803 35.643 14.7332C34.842 16.0268 35.8983 17.6039 37.4179 17.6813C44.0026 18.0167 50.6824 20.6084 56.9948 25.271C57.6505 25.7554 58.5319 25.821 59.2379 25.4133L61.2776 24.2358C62.0639 23.7818 62.452 22.8529 62.1719 21.9892C61.4971 19.9085 60.6103 17.9012 59.5246 15.9991C59.5246 15.999 59.5246 15.9989 59.5246 15.9988ZM59.5264 47.9982C59.5264 47.9982 59.5264 47.9982 59.5264 47.9982C60.7947 45.7865 61.7939 43.4317 62.5031 40.9839C62.5777 40.7264 62.4647 40.4523 62.2325 40.3182L56.6338 37.0857C55.9 36.6621 55.521 35.8229 55.6266 34.9823C55.8809 32.9579 55.8758 30.9244 55.6198 28.929C55.5209 28.1578 54.9442 27.5387 54.1846 27.3724C52.345 26.9699 50.5074 26.7396 48.6817 26.6833C47.1609 26.6364 46.3234 28.3397 47.0161 29.6944C50.018 35.5647 51.1134 42.6453 50.2317 50.4434C50.1401 51.2535 50.524 52.0495 51.2301 52.4572L54.2293 54.1887C54.45 54.3162 54.7293 54.2793 54.9065 54.096C56.6844 52.2558 58.2355 50.2087 59.5264 47.9982C59.5264 47.9982 59.5264 47.9982 59.5264 47.9982ZM31.8154 63.9999C31.8155 63.9999 31.8156 63.9998 31.8157 63.9998C34.0019 63.9934 36.1803 63.763 38.3169 63.313C39.207 63.1256 39.8197 62.324 39.8197 61.4143V56.0385C39.8197 55.1912 40.3569 54.4434 41.1377 54.1145C43.018 53.3225 44.7765 52.3014 46.3765 51.082C46.9949 50.6107 47.2428 49.8017 47.007 49.0608C46.4357 47.2662 45.7163 45.5596 44.8522 43.9504C44.1324 42.6099 42.2386 42.7363 41.4118 44.0135C37.829 49.5484 32.2445 54.0375 25.0503 57.1729C24.3029 57.4986 23.8055 58.2291 23.8055 59.0444V61.3997C23.8055 62.3077 24.4159 63.1082 25.3039 63.2975C27.4432 63.7534 29.6251 63.9891 31.8151 64C31.8152 64 31.8153 64 31.8154 63.9999ZM4.10213 48.0012C4.10213 48.0013 4.10216 48.0014 4.1022 48.0014C5.20083 49.8916 6.48956 51.6629 7.94755 53.2883C8.55497 53.9655 9.55552 54.0953 10.3433 53.6404L14.9988 50.9525C15.7326 50.5288 16.6488 50.6202 17.3241 51.1319C18.9502 52.3643 20.7138 53.3766 22.5697 54.1526C23.2871 54.4525 24.1116 54.2626 24.6353 53.688C25.9039 52.296 27.0221 50.8197 27.9837 49.2668C28.7847 47.9732 27.7284 46.3961 26.2088 46.3187C19.6241 45.9833 12.9443 43.3916 6.63194 38.729C5.97616 38.2446 5.09482 38.1791 4.38877 38.5867L2.34913 39.7643C1.56281 40.2182 1.17469 41.1471 1.4548 42.0108C2.12964 44.0915 3.01645 46.0988 4.10207 48.001C4.10211 48.001 4.10213 48.0011 4.10213 48.0012ZM4.10025 16.0018C3.01267 17.8983 2.12298 19.9001 1.44433 21.9755C1.16162 22.8401 1.54949 23.7715 2.33727 24.2263L6.99288 26.9143C7.72661 27.338 8.10561 28.1771 8.00003 29.0177C7.74578 31.0422 7.75087 33.0757 8.00681 35.071C8.10573 35.8422 8.68247 36.4614 9.44199 36.6276C11.2817 37.0302 13.1193 37.2604 14.9449 37.3167C16.4657 37.3636 17.3033 35.6603 16.6105 34.3057C13.6086 28.4354 12.5132 21.3548 13.395 13.5567C13.4866 12.7466 13.1026 11.9505 12.3966 11.5429L10.3569 10.3653C9.57062 9.91136 8.57215 10.0397 7.96425 10.7141C6.49969 12.3389 5.20466 14.1107 4.10018 16.0019L4.10025 16.0018ZM31.8112 0.000104155C31.8112 0.000170673 31.8111 0.000207193 31.8109 0.000207499C29.6248 0.00661751 27.4464 0.237021 25.3097 0.686994C24.4196 0.874457 23.807 1.67606 23.807 2.58572V7.96154C23.807 8.80878 23.2698 9.55659 22.489 9.88548C20.6086 10.6775 18.8502 11.6987 17.2501 12.918C16.6317 13.3893 16.3839 14.1984 16.6197 14.9392C17.1909 16.7338 17.9104 18.4405 18.7745 20.0497C19.4943 21.3901 21.3881 21.2638 22.2149 19.9866C25.7978 14.4517 31.3821 9.96258 38.5763 6.82715C39.3237 6.50142 39.8211 5.77092 39.8211 4.95564V2.60029C39.8211 1.69235 39.2108 0.891802 38.3228 0.702546C36.1834 0.246597 34.0016 0.010908 31.8115 8.15892e-07C31.8114 2.89227e-07 31.8113 3.68559e-05 31.8112 0.000104155Z" fill="#3B82F6"/>
</svg>
