<svg width="64" height="64" viewBox="0 0 64 64" fill="none" xmlns="http://www.w3.org/2000/svg">
<path d="M54.9824 64L43.4907 52.5733L43.315 52.5984V52.4731L18.8765 28.3409L24.8984 22.5274L21.3605 2.22934L4.57462 23.0278C1.71426 25.9095 1.18731 30.5955 3.24479 34.0535L13.7329 51.4446C15.3386 54.1259 18.2492 55.7296 21.3856 55.7045L26.5796 55.6544L54.9824 64Z" fill="#29B6F6"/>
<path d="M61.254 22.6281L58.9456 18.3682L57.7412 16.1881L57.2645 15.3361L57.2144 15.3863L50.8913 4.43566C49.3106 1.67925 46.3499 -0.0248132 43.1382 0.000273223L37.593 0.150611L21.058 0.200732C17.9216 0.225792 15.0613 1.87971 13.4804 4.56099L3.41884 24.5073L21.4086 2.18036L44.9951 28.0905L40.8047 32.3255L43.315 52.5984L43.339 52.5474V52.5976H43.2888L43.339 52.6477L45.2961 54.5522L54.8057 63.8489C55.2072 64.2248 55.8596 63.7737 55.5835 63.2976L49.7122 51.7456L59.9494 32.826L60.2755 32.4501C60.401 32.2997 60.5264 32.1495 60.6269 31.9991C62.6342 29.2676 62.91 25.6102 61.254 22.6281Z" fill="#B388FF"/>
<path d="M45.0707 27.9906L21.4093 2.20594L24.7715 22.4031L18.7496 28.2418L43.2632 52.573L41.0552 32.3759L45.0707 27.9906Z" fill="#ECEFF1"/>
</svg>
