<svg width="64" height="64" viewBox="0 0 64 64" fill="none" xmlns="http://www.w3.org/2000/svg">
<g clip-path="url(#clip0_762_5689)">
<path d="M32.0001 26.0014C35.0662 26.0014 37.5666 28.5019 37.5666 31.6274C37.5666 34.6042 35.0662 37.1344 32.0001 37.1344C28.9341 37.1344 26.4336 34.6042 26.4336 31.6274C26.4336 28.5019 28.9341 26.0014 32.0001 26.0014ZM18.2178 55.4414C20.0931 56.5726 24.2011 54.8461 28.9341 50.3809C27.3862 48.6247 25.868 46.7195 24.4392 44.7251C22.0404 44.4956 19.6556 44.1378 17.295 43.6535C15.7769 50.0237 16.3424 54.3995 18.2178 55.4414ZM20.3313 38.3549L19.468 36.8368C19.1406 37.7 18.8131 38.5633 18.6048 39.3968C19.4085 39.5754 20.3015 39.7242 21.2243 39.873L20.3313 38.3549ZM39.7992 36.0926L42.2104 31.6274L39.7992 27.1623C38.9062 25.5847 37.9536 24.1856 37.0904 22.7865C35.4829 22.6972 33.7862 22.6972 32.0001 22.6972C30.2141 22.6972 28.5173 22.6972 26.9099 22.7865C26.0466 24.1856 25.0941 25.5847 24.2011 27.1623L21.7899 31.6274L24.2011 36.0926C25.0941 37.6702 26.0466 39.0693 26.9099 40.4684C28.5173 40.5577 30.2141 40.5577 32.0001 40.5577C33.7862 40.5577 35.4829 40.5577 37.0904 40.4684C37.9536 39.0693 38.9062 37.6702 39.7992 36.0926ZM32.0001 16.0888C31.4345 16.7437 30.8392 17.4284 30.2438 18.2321H33.7564C33.1611 17.4284 32.5657 16.7437 32.0001 16.0888ZM32.0001 47.1661C32.5657 46.5112 33.1611 45.8265 33.7564 45.0228H30.2438C30.8392 45.8265 31.4345 46.5112 32.0001 47.1661ZM45.7527 7.81349C43.9071 6.68233 39.7992 8.40884 35.0662 12.874C36.6141 14.6302 38.1322 16.5354 39.5611 18.5298C42.002 18.7679 44.4131 19.1251 46.7052 19.6014C48.2234 13.2312 47.6578 8.85535 45.7527 7.81349ZM43.669 24.9L44.5322 26.4181C44.8597 25.5549 45.1871 24.6916 45.3955 23.8581C44.5917 23.6795 43.6987 23.5307 42.7759 23.3819L43.669 24.9ZM47.9852 3.91396C52.3611 6.41442 52.8373 12.993 50.9917 20.673C58.5527 22.9056 64.0001 26.5968 64.0001 31.6274C64.0001 36.6581 58.5527 40.3493 50.9917 42.5819C52.8373 50.2619 52.3611 56.8405 47.9852 59.3409C43.6392 61.8414 37.7155 58.9837 32.0001 53.5363C26.2848 58.9837 20.3611 61.8414 15.9852 59.3409C11.6392 56.8405 11.1629 50.2619 13.0085 42.5819C5.44756 40.3493 0.00012207 36.6581 0.00012207 31.6274C0.00012207 26.5968 5.44756 22.9056 13.0085 20.673C11.1629 12.993 11.6392 6.41442 15.9852 3.91396C20.3611 1.41349 26.2848 4.27117 32.0001 9.71861C37.7155 4.27117 43.6392 1.41349 47.9852 3.91396ZM47.122 31.6274C48.1341 33.86 49.0271 36.0926 49.7713 38.3549C56.0224 36.4795 59.535 33.8005 59.535 31.6274C59.535 29.4544 56.0224 26.7754 49.7713 24.9C49.0271 27.1623 48.1341 29.3949 47.122 31.6274ZM16.8783 31.6274C15.8662 29.3949 14.9731 27.1623 14.229 24.9C7.9778 26.7754 4.46524 29.4544 4.46524 31.6274C4.46524 33.8005 7.9778 36.4795 14.229 38.3549C14.9731 36.0926 15.8662 33.86 16.8783 31.6274ZM43.669 38.3549L42.7759 39.873C43.6987 39.7242 44.5917 39.5754 45.3955 39.3968C45.1871 38.5633 44.8597 37.7 44.5322 36.8368L43.669 38.3549ZM35.0662 50.3809C39.7992 54.8461 43.9071 56.5726 45.7527 55.4414C47.6578 54.3995 48.2234 50.0237 46.7052 43.6535C44.4131 44.1298 42.002 44.487 39.5611 44.7251C38.1322 46.7195 36.6141 48.6247 35.0662 50.3809ZM20.3313 24.9L21.2243 23.3819C20.3015 23.5307 19.4085 23.6795 18.6048 23.8581C18.8131 24.6916 19.1406 25.5549 19.468 26.4181L20.3313 24.9ZM28.9341 12.874C24.2011 8.40884 20.0931 6.68233 18.2178 7.81349C16.3424 8.85535 15.7769 13.2312 17.295 19.6014C19.6556 19.1171 22.0404 18.7593 24.4392 18.5298C25.868 16.5354 27.3862 14.6302 28.9341 12.874Z" fill="#06B6D4"/>
</g>
<defs>
<clipPath id="clip0_762_5689">
<rect width="64" height="64" fill="white"/>
</clipPath>
</defs>
</svg>
