<svg width="64" height="64" viewBox="0 0 64 64" fill="none" xmlns="http://www.w3.org/2000/svg">
<g clip-path="url(#clip0_762_5693)">
<path fill-rule="evenodd" clip-rule="evenodd" d="M32 64C49.6736 64 64 49.6736 64 32C64 14.3264 49.6736 0 32 0C14.3264 0 0 14.3264 0 32C0 49.6736 14.3264 64 32 64ZM27.2 47.9712C27.2 45.1968 29.3088 43.2 31.9712 43.2C34.6912 43.2 36.8 45.1968 36.8 47.9712C36.8 50.7456 34.6912 52.8 31.9712 52.8C29.3088 52.8 27.2 50.7456 27.2 47.9712ZM29.3504 12.8C29.1345 12.8002 28.9209 12.8441 28.7224 12.9291C28.5239 13.0141 28.3447 13.1383 28.1955 13.2944C28.0463 13.4505 27.9302 13.6351 27.8543 13.8372C27.7784 14.0393 27.7441 14.2547 27.7536 14.4704L28.7328 36.8704C28.7509 37.2824 28.9275 37.6715 29.2256 37.9565C29.5237 38.2415 29.9204 38.4004 30.3328 38.4H33.6704C34.0828 38.4004 34.4795 38.2415 34.7776 37.9565C35.0757 37.6715 35.2523 37.2824 35.2704 36.8704L36.2464 14.4704C36.2559 14.2544 36.2216 14.0388 36.1454 13.8365C36.0693 13.6341 35.9529 13.4494 35.8034 13.2932C35.6539 13.1371 35.4743 13.0129 35.2754 12.9282C35.0765 12.8434 34.8626 12.7998 34.6464 12.8H29.3504Z" fill="#3B82F6"/>
</g>
<defs>
<clipPath id="clip0_762_5693">
<rect width="64" height="64" fill="white"/>
</clipPath>
</defs>
</svg>
