<svg width="64" height="64" viewBox="0 0 64 64" fill="none" xmlns="http://www.w3.org/2000/svg">
<path d="M35.0035 0C51.7165 0 60.0249 7.83421 60.0249 20.3518C60.0249 27.2251 56.8735 32.3431 52.0741 34.9814C51.0811 35.5273 51.0155 38.3831 51.9695 38.9945C55.1761 41.0499 57.0817 44.3805 57.5647 49.3555L57.6678 50.7231L57.7605 52.0013L57.8361 53.1936L57.8911 54.0938L57.9495 55.159L57.9805 55.7672L58.0217 56.7293L58.0561 57.6399L58.0767 58.1587L58.0973 58.9971L58.1179 59.9592L58.1248 60.4196L58.1385 61.7631V63C58.1385 63.5523 57.6908 64 57.1385 64H41.2572C41.0636 64 40.9067 63.8431 40.9067 63.6495L40.9136 62.9726L40.9239 62.3095L40.9582 60.7117L40.9617 60.1757L40.9685 59.3338V58.8012L40.9617 58.2343L40.9548 57.791L40.941 57.1726L40.9204 56.5163L40.8929 55.8153L40.8586 55.0731L40.838 54.6814L40.8036 54.0698L40.7589 53.4307L40.6971 52.5236L40.6455 51.802C40.6301 51.5842 40.6117 51.3665 40.5906 51.1491L40.5459 50.7334C39.9755 45.813 37.9963 43.8029 34.6015 43.1294L34.3163 43.0779C34.1189 43.0437 33.9207 43.0139 33.7219 42.9885L33.4195 42.9542C33.3669 42.9482 33.3142 42.9425 33.2615 42.937L32.9522 42.9129L32.6258 42.8889L32.2959 42.8717L31.9661 42.8579L31.6259 42.8511L31.2823 42.8442H5C4.44772 42.8442 4 42.3965 4 41.8442V30.5123C4 29.96 4.44772 29.5123 5 29.5123H31.9283C32.3853 29.5123 32.8285 29.5089 33.258 29.4882L33.6807 29.4676L34.093 29.4436L34.5019 29.4092L34.7012 29.392L35.0894 29.3508C35.3472 29.3164 35.598 29.2855 35.8454 29.2477L36.2062 29.1824C40.7383 28.3784 43.0027 26.0075 43.0027 21.3826C43.0027 16.1941 39.3124 13.0467 31.9317 13.0467H5.00344C4.45115 13.0467 4.00344 12.599 4.00344 12.0467V0.999999C4.00344 0.447714 4.45115 0 5.00344 0H35.0035ZM22.2248 54.0595C24.4892 54.0595 25.4307 55.2965 25.7709 56.4819L25.8121 56.6537L25.8499 56.8221L25.8739 56.9526L25.8842 57.0145L25.9014 57.1519L25.9152 57.2791L25.9186 57.3375L25.9255 57.4612L25.9289 57.523V63C25.9289 63.5523 25.4812 64 24.9289 64H5.00344C4.45115 64 4.00344 63.5523 4.00344 63V55.0595C4.00344 54.5072 4.45115 54.0595 5.00344 54.0595H22.2248Z" fill="#DEE2E6"/>
</svg>
