<svg width="64" height="64" viewBox="0 0 64 64" fill="none" xmlns="http://www.w3.org/2000/svg">
<g clip-path="url(#clip0_762_5727)">
<path d="M64 15.9949V22.3929C64 24.9381 62.9889 27.3792 61.1891 29.1789C59.3893 30.9787 56.9483 31.9898 54.4031 31.9898H38.4082C37.5597 31.9898 36.7461 32.3268 36.1461 32.9268C35.5462 33.5267 35.2092 34.3404 35.2092 35.1888H38.4082C39.2566 35.1888 40.0702 35.5258 40.6702 36.1258C41.2701 36.7257 41.6071 37.5393 41.6071 38.3878V60.7806C41.6071 61.6291 41.2701 62.4427 40.6702 63.0427C40.0702 63.6426 39.2566 63.9796 38.4082 63.9796H25.6122C24.7638 63.9796 23.9501 63.6426 23.3502 63.0427C22.7503 62.4427 22.4132 61.6291 22.4132 60.7806V38.3878C22.4132 37.5393 22.7503 36.7257 23.3502 36.1258C23.9501 35.5258 24.7638 35.1888 25.6122 35.1888H28.8112C28.8112 32.6435 29.8223 30.2025 31.6221 28.4027C33.4219 26.603 35.8629 25.5918 38.4082 25.5918H54.4031C55.2515 25.5918 56.0652 25.2548 56.6651 24.6549C57.265 24.055 57.602 23.2413 57.602 22.3929V15.9949C57.602 15.1465 57.265 14.3328 56.6651 13.7329C56.0652 13.133 55.2515 12.7959 54.4031 12.7959H50.6155C49.9602 14.6632 48.742 16.2813 47.1286 17.4272C45.5152 18.5731 43.5861 19.1903 41.6071 19.1939H9.61732C7.07205 19.1939 4.63103 18.1828 2.83126 16.383C1.03148 14.5832 0.0203793 12.1422 0.0203793 9.59694C0.0203793 7.05168 1.03148 4.61066 2.83126 2.81088C4.63103 1.0111 7.07205 0 9.61732 0H41.6071C43.5861 0.00354013 45.5152 0.62079 47.1286 1.76667C48.742 2.91256 49.9602 4.53066 50.6155 6.39796H54.4031C56.9483 6.39796 59.3893 7.40907 61.1891 9.20884C62.9889 11.0086 64 13.4496 64 15.9949ZM5.45865 44.7857H7.37804C8.95835 44.6307 10.4143 43.8605 11.4318 42.6414C12.4492 41.4223 12.9465 39.852 12.8163 38.2694C12.8248 36.9191 12.4654 35.5921 11.7766 34.4306L6.41834 25.5918L1.06005 34.4338C0.371871 35.5943 0.0124743 36.9202 0.0203793 38.2694C-0.109806 39.852 0.387479 41.4223 1.40491 42.6414C2.42234 43.8605 3.87833 44.6307 5.45865 44.7857Z" fill="#EAB308"/>
</g>
<defs>
<clipPath id="clip0_762_5727">
<rect width="64" height="64" fill="white"/>
</clipPath>
</defs>
</svg>
