<svg width="64" height="64" viewBox="0 0 64 64" fill="none" xmlns="http://www.w3.org/2000/svg">
<g clip-path="url(#clip0_762_5750)">
<path d="M3.2 28.4H6.4V47.6H3.2C2.77963 47.6005 2.36329 47.5181 1.97482 47.3574C1.58635 47.1968 1.23338 46.9611 0.936135 46.6639C0.638887 46.3666 0.403196 46.0137 0.24256 45.6252C0.0819238 45.2367 -0.000502263 44.8204 2.30253e-06 44.4V31.6C-0.000502263 31.1796 0.0819238 30.7633 0.24256 30.3748C0.403196 29.9863 0.638887 29.6334 0.936135 29.3361C1.23338 29.0389 1.58635 28.8032 1.97482 28.6426C2.36329 28.4819 2.77963 28.3995 3.2 28.4ZM54.4 23.6V50.8C54.3983 52.4969 53.7235 54.1238 52.5236 55.3236C51.3238 56.5235 49.6969 57.1983 48 57.2H16C14.3031 57.1983 12.6762 56.5235 11.4764 55.3236C10.2765 54.1238 9.60168 52.4969 9.6 50.8V23.6C9.59966 22.5493 9.80635 21.5089 10.2083 20.5381C10.6102 19.5674 11.1994 18.6853 11.9424 17.9424C12.6853 17.1994 13.5674 16.6102 14.5381 16.2083C15.5089 15.8064 16.5493 15.5997 17.6 15.6H28.8V9.2C28.8 8.35131 29.1371 7.53737 29.7373 6.93726C30.3374 6.33714 31.1513 6 32 6C32.8487 6 33.6626 6.33714 34.2627 6.93726C34.8629 7.53737 35.2 8.35131 35.2 9.2V15.6H46.4C47.4507 15.5997 48.4911 15.8064 49.4619 16.2083C50.4326 16.6102 51.3147 17.1994 52.0576 17.9424C52.8006 18.6853 53.3898 19.5674 53.7917 20.5381C54.1936 21.5089 54.4003 22.5493 54.4 23.6ZM26.4 31.6C26.4 30.8089 26.1654 30.0355 25.7259 29.3777C25.2864 28.7199 24.6616 28.2072 23.9307 27.9045C23.1998 27.6017 22.3956 27.5225 21.6196 27.6769C20.8437 27.8312 20.131 28.2122 19.5716 28.7716C19.0122 29.331 18.6312 30.0437 18.4769 30.8196C18.3225 31.5956 18.4017 32.3998 18.7045 33.1307C19.0072 33.8616 19.5199 34.4864 20.1777 34.9259C20.8355 35.3654 21.6089 35.6 22.4 35.6C22.9253 35.6 23.4455 35.4966 23.9308 35.2956C24.4161 35.0946 24.8571 34.8 25.2285 34.4285C25.6 34.0571 25.8946 33.6161 26.0956 33.1308C26.2966 32.6455 26.4 32.1253 26.4 31.6ZM25.6 44.4H19.2V47.6H25.6V44.4ZM35.2 44.4H28.8V47.6H35.2V44.4ZM45.6 31.6C45.6 30.8089 45.3654 30.0355 44.9259 29.3777C44.4864 28.7199 43.8616 28.2072 43.1307 27.9045C42.3998 27.6017 41.5956 27.5225 40.8196 27.6769C40.0437 27.8312 39.331 28.2122 38.7716 28.7716C38.2122 29.331 37.8312 30.0437 37.6769 30.8196C37.5225 31.5956 37.6017 32.3998 37.9045 33.1307C38.2072 33.8616 38.7199 34.4864 39.3777 34.9259C40.0355 35.3654 40.8089 35.6 41.6 35.6C42.1253 35.6 42.6455 35.4966 43.1308 35.2956C43.6161 35.0946 44.0571 34.8 44.4285 34.4285C44.8 34.0571 45.0946 33.6161 45.2956 33.1308C45.4966 32.6455 45.6 32.1253 45.6 31.6ZM44.8 44.4H38.4V47.6H44.8V44.4ZM64 31.6V44.4C64.0005 44.8204 63.9181 45.2367 63.7574 45.6252C63.5968 46.0137 63.3611 46.3666 63.0639 46.6639C62.7666 46.9611 62.4137 47.1968 62.0252 47.3574C61.6367 47.5181 61.2204 47.6005 60.8 47.6H57.6V28.4H60.8C61.2204 28.3995 61.6367 28.4819 62.0252 28.6426C62.4137 28.8032 62.7666 29.0389 63.0639 29.3361C63.3611 29.6334 63.5968 29.9863 63.7574 30.3748C63.9181 30.7633 64.0005 31.1796 64 31.6Z" fill="#EF4444"/>
</g>
<defs>
<clipPath id="clip0_762_5750">
<rect width="64" height="64" fill="white"/>
</clipPath>
</defs>
</svg>
