<svg width="64" height="64" viewBox="0 0 64 64" fill="none" xmlns="http://www.w3.org/2000/svg">
<g clip-path="url(#clip0_762_5752)">
<path d="M55.7441 21.2489C55.7441 29.1528 51.424 36.0332 45.0563 39.6805C44.6724 40.0005 44.4484 40.5125 44.6724 40.9925L55.5848 62.56C55.8727 63.2319 55.4247 64 54.6887 64H12.9925L13.2165 63.872C14.7845 62.976 25.6646 41.504 36.288 31.3278C46.9125 21.1518 48.2562 24.5438 42.4 13.472C42.4 13.472 46.9119 22.272 43.0719 22.944C40.0639 23.488 33.1521 16.8001 35.7119 10.7838C38.2719 4.89581 48.352 6.01585 52.9918 10.8159C54.7518 13.8878 55.7439 17.4399 55.7439 21.2483M16.384 35.6161C12.16 43.3921 9.472 49.0557 8 53.0236V0.991987C8 0.447951 8.44805 0 8.99199 0H34.8163C42.3043 0.127942 48.8645 4.09599 52.5445 10.08C49.8565 6.71999 45.6325 4.79993 41.4728 4.79993C33.5689 4.79993 31.5849 7.68002 16.3847 35.6154L16.384 35.6161Z" fill="#EF4444"/>
</g>
<defs>
<clipPath id="clip0_762_5752">
<rect width="64" height="64" fill="white"/>
</clipPath>
</defs>
</svg>
