<svg width="64" height="64" viewBox="0 0 64 64" fill="none" xmlns="http://www.w3.org/2000/svg">
<g clip-path="url(#clip0_762_2665)">
<path d="M8.40325 38.3998C9.066 38.3998 9.60326 38.9371 9.60326 39.5998V62.8C9.60326 63.4627 9.066 64 8.40325 64H1.20321C0.540462 64 0.00319979 63.4627 0.00319979 62.8V39.5998C0.00319979 38.9371 0.540462 38.3998 1.20321 38.3998H8.40325ZM62.8004 38.3998C63.4632 38.3998 64.0004 38.9371 64.0004 39.5998V62.8C64.0004 63.4627 63.4632 64 62.8004 64H55.6004C54.9376 64 54.4004 63.4627 54.4004 62.8V39.5998C54.4004 38.9371 54.9376 38.3998 55.6004 38.3998H62.8004ZM22.5985 5.93882L25.133 11.2253C25.2359 11.4383 25.2926 11.6707 25.2993 11.9072C25.306 12.1437 25.2626 12.3789 25.1719 12.5974C25.0813 12.8159 24.9454 13.0128 24.7732 13.175C24.601 13.3373 24.3965 13.4613 24.173 13.5389C15.6705 16.5597 9.60006 24.3709 9.60006 33.5326V34.0094C9.60006 34.6722 9.0628 35.2094 8.40005 35.2094H1.20001C0.537262 35.2094 0 34.6722 0 34.0094V33.5326C0 20.5533 8.51206 9.47805 20.5057 5.08762C20.8979 4.94318 21.3299 4.95039 21.717 5.10785C22.1041 5.26531 22.4185 5.56166 22.5985 5.93882ZM43.4947 5.06522C55.4884 9.46845 64.0004 20.5533 64.0004 33.523V35.1998H54.4004V33.523C54.4004 24.3613 48.3427 16.5533 39.8243 13.5293C39.6015 13.4513 39.3976 13.3272 39.2261 13.165C39.0546 13.0028 38.9192 12.8062 38.8289 12.5882C38.7386 12.3701 38.6953 12.1354 38.702 11.8994C38.7086 11.6634 38.765 11.4315 38.8675 11.2189L41.3987 5.91642C41.7731 5.13562 42.6787 4.76442 43.4915 5.06522H43.4947Z" fill="#737373"/>
<path d="M32.0002 15.2381C42.6051 15.2381 51.2003 23.4237 51.2003 33.523V62.8C51.2003 63.4627 50.6631 64 50.0003 64H42.8003C42.1375 64 41.6003 63.4627 41.6003 62.8V33.523C41.6003 28.4734 37.3026 24.3805 32.0002 24.3805C26.701 24.3805 22.4033 28.4702 22.4033 33.523V62.8C22.4033 63.4627 21.8661 64 21.2033 64H14.0033C13.3405 64 12.8033 63.4627 12.8033 62.8V33.523C12.8033 23.4237 21.4017 15.2381 32.0034 15.2381H32.0002ZM38.093 0.412389C38.3546 0.448292 38.604 0.545328 38.821 0.695627C39.0381 0.845926 39.2166 1.04526 39.3422 1.27746C39.4678 1.50966 39.537 1.7682 39.544 2.0321C39.551 2.29601 39.4957 2.55785 39.3827 2.7964L35.3602 11.2285C35.2144 11.5298 34.9823 11.781 34.6934 11.9502C34.4046 12.1194 34.072 12.199 33.7378 12.1789C32.5824 12.1145 31.4244 12.1145 30.269 12.1789C29.9353 12.1988 29.6032 12.1191 29.3149 11.9498C29.0266 11.7806 28.7951 11.5295 28.6498 11.2285L24.621 2.7964C24.5079 2.55762 24.4527 2.29553 24.4599 2.03141C24.4671 1.7673 24.5365 1.5086 24.6624 1.27634C24.7884 1.04407 24.9673 0.844793 25.1847 0.694679C25.4022 0.544564 25.6519 0.447849 25.9138 0.412389C29.9549 -0.137463 34.0519 -0.137463 38.093 0.412389Z" fill="#EAB308"/>
</g>
<defs>
<clipPath id="clip0_762_2665">
<rect width="64" height="64" fill="white"/>
</clipPath>
</defs>
</svg>
