<svg width="64" height="64" viewBox="0 0 64 64" fill="none" xmlns="http://www.w3.org/2000/svg">
<g clip-path="url(#clip0_762_5773)">
<path d="M53.757 0.0192595C53.757 0.0247751 53.7611 0.0295173 53.7666 0.0304472C61.8252 1.40881 64.1245 6.94159 63.9949 12.7298V12.6074L60.4787 58.6542C60.4031 59.6447 59.6119 60.4296 58.6208 60.4973L13.0575 63.6096H13.0863C9.21095 63.4535 0.685442 63.0776 0.025154 51.3998C0.00488923 51.0414 0.0909945 50.6776 0.263436 50.3627L2.40943 46.4446C3.21047 44.982 5.3443 45.0844 6.00162 46.6169L11.1071 58.5201C11.8403 60.2294 14.3053 60.1 14.8556 58.3235L20.7834 39.1862C20.7908 39.1622 20.7698 39.139 20.7452 39.1439L20.7137 39.1502C20.691 39.1548 20.6761 39.1271 20.6925 39.1107C20.6987 39.1045 20.7079 39.1023 20.7162 39.1049L41.9301 45.8748C43.4271 46.3525 44.865 44.9966 44.4759 43.4742L39.6052 24.4186C39.2946 23.2035 40.1661 22.0056 41.4178 21.9272L57.441 20.9236C59.2549 20.81 59.9893 18.5315 58.5831 17.3801L46.2734 7.30075C45.1814 6.4066 45.3341 4.69319 46.567 4.00622L53.7402 0.00937419C53.7477 0.00517139 53.757 0.0106248 53.757 0.0192595ZM13.6787 13.342C13.6891 13.342 13.6991 13.3379 13.7065 13.3305C23.1757 3.89546 35.4222 -1.66537 40.1269 3.10053C44.7975 7.80355 39.8676 19.3882 30.3968 28.7943C20.7963 38.2039 8.73623 44.0917 4.02961 39.3563C-0.6715 34.5903 4.15534 22.7576 13.651 13.3534C13.6583 13.3461 13.6683 13.342 13.6787 13.342Z" fill="#EF4444"/>
</g>
<defs>
<clipPath id="clip0_762_5773">
<rect width="64" height="64" fill="white"/>
</clipPath>
</defs>
</svg>
