<svg width="64" height="64" viewBox="0 0 64 64" fill="none" xmlns="http://www.w3.org/2000/svg">
<g clip-path="url(#clip0_734_5801)">
<path d="M29.9984 7.54033C29.9984 7.03581 30.1988 6.55195 30.5556 6.1952C30.9123 5.83844 31.3962 5.63802 31.9007 5.63802C32.4052 5.63802 32.8891 5.83844 33.2459 6.1952C33.6026 6.55195 33.803 7.03581 33.803 7.54033C33.803 8.04486 33.6026 8.52871 33.2459 8.88547C32.8891 9.24222 32.4052 9.44264 31.9007 9.44264C31.3962 9.44264 30.9123 9.24222 30.5556 8.88547C30.1988 8.52871 29.9984 8.04486 29.9984 7.54033ZM7.30531 24.7634C7.30531 24.2589 7.50573 23.775 7.86249 23.4183C8.21924 23.0615 8.7031 22.8611 9.20762 22.8611C9.71214 22.8611 10.196 23.0615 10.5528 23.4183C10.9095 23.775 11.1099 24.2589 11.1099 24.7634C11.1099 25.2679 10.9095 25.7518 10.5528 26.1085C10.196 26.4653 9.71214 26.6657 9.20762 26.6657C8.7031 26.6657 8.21924 26.4653 7.86249 26.1085C7.50573 25.7518 7.30531 25.2679 7.30531 24.7634ZM52.6904 24.8521C52.6904 24.3475 52.8909 23.8637 53.2476 23.5069C53.6044 23.1502 54.0882 22.9497 54.5928 22.9497C55.0973 22.9497 55.5811 23.1502 55.9379 23.5069C56.2946 23.8637 56.4951 24.3475 56.4951 24.8521C56.4951 25.3566 56.2946 25.8404 55.9379 26.1972C55.5811 26.5539 55.0973 26.7544 54.5928 26.7544C54.0882 26.7544 53.6044 26.5539 53.2476 26.1972C52.8909 25.8404 52.6904 25.3566 52.6904 24.8521ZM12.8117 27.4586C13.2323 27.2715 13.5615 26.9251 13.7268 26.4954C13.8922 26.0658 13.8802 25.588 13.6935 25.1672L13.4704 24.6625C13.1782 24.0015 13.6622 23.2582 14.385 23.2582H15.1687C15.721 23.2582 16.1687 23.7059 16.1687 24.2582V37.2192C16.1687 37.7715 15.721 38.2192 15.1687 38.2192H10.2273C9.78048 38.2192 9.3857 37.9233 9.27726 37.4898C8.65325 34.9955 8.44415 32.415 8.65874 29.8519C8.68847 29.4968 8.91423 29.1899 9.2399 29.0452L12.8117 27.4586ZM27.696 27.826C27.1436 27.8261 26.6959 27.3783 26.6959 26.826V24.4163C26.6959 23.864 27.1436 23.4163 27.6959 23.4163H34.6C35.008 23.4163 37.4827 23.888 37.4827 25.7382C37.4827 27.2749 35.5849 27.8256 34.0242 27.8256L27.696 27.826ZM15.9048 51.5693C15.9048 51.0648 16.1052 50.5809 16.462 50.2242C16.8188 49.8674 17.3026 49.667 17.8071 49.667C18.3117 49.667 18.7955 49.8674 19.1523 50.2242C19.509 50.5809 19.7094 51.0648 19.7094 51.5693C19.7094 52.0738 19.509 52.5577 19.1523 52.9144C18.7955 53.2712 18.3117 53.4716 17.8071 53.4716C17.3026 53.4716 16.8188 53.2712 16.462 52.9144C16.1052 52.5577 15.9048 52.0738 15.9048 51.5693ZM44.0904 51.658C44.0904 51.1534 44.2908 50.6696 44.6476 50.3128C45.0043 49.9561 45.4882 49.7557 45.9927 49.7557C46.4972 49.7557 46.9811 49.9561 47.3378 50.3128C47.6946 50.6696 47.895 51.1534 47.895 51.658C47.895 52.1625 47.6946 52.6464 47.3378 53.0031C46.9811 53.3599 46.4972 53.5603 45.9927 53.5603C45.4882 53.5603 45.0043 53.3599 44.6476 53.0031C44.2908 52.6464 44.0904 52.1625 44.0904 51.658ZM44.6785 47.3443C44.4556 47.2965 44.2255 47.2931 44.0013 47.3343C43.7772 47.3755 43.5633 47.4605 43.372 47.5844C43.1807 47.7083 43.0157 47.8687 42.8865 48.0565C42.7573 48.2443 42.6663 48.4556 42.6189 48.6786L41.77 52.641C41.7036 52.9513 41.4944 53.2129 41.2026 53.3375C38.2609 54.5944 35.0911 55.236 31.8886 55.2207C28.6842 55.2054 25.5187 54.5326 22.5876 53.246C22.3002 53.1199 22.0947 52.8603 22.0289 52.5534L21.1788 48.5851C21.1313 48.3623 21.0404 48.1511 20.9112 47.9635C20.782 47.7759 20.6171 47.6156 20.4259 47.4917C20.2348 47.3678 20.0211 47.2829 19.797 47.2416C19.573 47.2004 19.343 47.2037 19.1203 47.2514L15.7279 47.9796C15.391 48.0519 15.0395 47.9468 14.8053 47.6941C14.6672 47.5449 14.531 47.394 14.3968 47.2413C13.8549 46.6248 14.3141 45.6987 15.1349 45.6987H32.2925C32.5094 45.6987 32.6536 45.6591 32.6536 45.462V38.6914C32.6536 38.4943 32.5094 38.4553 32.2925 38.4553H27.6948C27.1425 38.4553 26.6948 38.0076 26.6948 37.4553V35.1636C26.6948 34.6113 27.1425 34.1636 27.6948 34.1636H32.7492C33.302 34.1636 35.704 34.3217 36.4721 37.3924C36.7124 38.3367 37.2412 41.4085 37.6023 42.3919C37.9623 43.4948 39.4274 45.6981 40.9887 45.6981H48.8754C49.6986 45.6981 50.1569 46.6287 49.61 47.2438C49.4374 47.4379 49.2616 47.6292 49.0826 47.8175C48.8483 48.064 48.5011 48.1654 48.1686 48.094L44.6785 47.3443ZM54.7752 29.2319C55.1037 29.3779 55.3303 29.6889 55.357 30.0474C55.4204 30.8992 55.4372 31.7538 55.4072 32.6073C55.3888 33.1303 54.9517 33.5338 54.4283 33.5338H52.9532C52.7129 33.5338 52.6162 33.6919 52.6162 33.9275V35.031C52.6162 37.6285 51.1516 38.1931 49.8681 38.3373C48.646 38.4751 47.2909 37.8256 47.1237 37.0778C46.5527 33.8663 45.6803 32.655 44.3999 31.5467C43.8789 31.0958 43.9135 30.2737 44.4655 29.8613C46.4003 28.416 48.1087 26.4711 48.1087 24.006C48.1087 20.8172 45.923 18.8094 44.4333 17.825C42.3427 16.447 40.0289 16.1714 39.4045 16.1714H16.7901C15.9257 16.1714 15.487 15.1644 16.1222 14.5781C19.2038 11.7339 23.0016 9.76167 27.1231 8.88299C27.4547 8.81229 27.7975 8.92396 28.0315 9.16941L30.5854 11.8486C30.7426 12.0135 30.9307 12.1458 31.1391 12.2378C31.3474 12.3299 31.5719 12.38 31.7996 12.3852C32.0273 12.3904 32.2539 12.3507 32.4662 12.2682C32.6785 12.1858 32.8725 12.0622 33.0371 11.9047L35.9442 9.12459C36.177 8.90193 36.5031 8.80368 36.8184 8.86992C39.9738 9.53294 42.9603 10.8408 45.5896 12.7136C48.2211 14.5879 50.4348 16.9853 52.0933 19.7538C52.2565 20.0261 52.2722 20.3609 52.1437 20.6512L50.1042 25.2569C49.9181 25.6779 49.9065 26.1555 50.0719 26.585C50.2373 27.0145 50.5662 27.3609 50.9866 27.5484L54.7752 29.2319ZM61.2379 29.7577C61.0267 29.627 60.8886 29.4052 60.8645 29.158C60.8404 28.9113 60.9326 28.6676 61.1138 28.4986L63.1375 26.611C63.6076 26.173 63.4313 25.2906 62.8309 25.0668L60.2495 24.1018C60.0142 24.0138 59.8333 23.8212 59.7605 23.5808C59.6876 23.3404 59.7309 23.0799 59.8776 22.8761L61.4876 20.6399C61.8636 20.1197 61.5186 19.2885 60.8856 19.1849L58.1617 18.7418C57.9149 18.7016 57.7009 18.5486 57.583 18.328C57.4652 18.1076 57.4569 17.8449 57.5605 17.6175L58.7048 15.1047C58.9729 14.5198 58.4751 13.7715 57.8309 13.7961L55.0603 13.8925C54.8135 13.9011 54.5768 13.7944 54.4198 13.6038C54.2621 13.4123 54.2029 13.1581 54.2598 12.9166L54.8959 10.2201C55.0428 9.59513 54.4082 8.95952 53.7827 9.1064L51.0867 9.74196C50.8452 9.79887 50.591 9.73975 50.3995 9.5821C50.2086 9.425 50.1018 9.188 50.1104 8.94093L50.2073 6.17082C50.2318 5.53093 49.4825 5.03045 48.8986 5.29645L46.3876 6.44109C46.1595 6.54509 45.8959 6.53654 45.6749 6.41798C45.4549 6.29989 45.3023 6.0861 45.2622 5.8396L44.8184 3.11505C44.7153 2.48318 43.8837 2.13759 43.364 2.51255L41.125 4.12319C40.9216 4.26949 40.6617 4.31267 40.4219 4.23999C40.1819 4.16724 39.9896 3.98676 39.9018 3.75189L38.9366 1.16975C38.7122 0.567782 37.8298 0.394189 37.3929 0.862088L35.5053 2.88723C35.3363 3.06854 35.0925 3.16077 34.8458 3.13673C34.5987 3.11263 34.3769 2.97458 34.2462 2.76342L32.7887 0.40861C32.4522 -0.136203 31.5506 -0.136203 31.2152 0.40861L29.7577 2.7634C29.627 2.97457 29.4052 3.11264 29.158 3.13673C28.9114 3.16077 28.6676 3.06856 28.4986 2.88729L26.6104 0.862088C26.173 0.394189 25.2911 0.567782 25.0668 1.16975L24.1011 3.75164C24.0132 3.98666 23.8208 4.16725 23.5806 4.24C23.3407 4.31268 23.0806 4.26943 22.8772 4.12303L20.6388 2.51255C20.1186 2.13706 19.2875 2.48318 19.1844 3.11505L18.7402 5.83965C18.7 6.08613 18.5474 6.29988 18.3274 6.41796C18.1064 6.53653 17.8428 6.54508 17.6146 6.44107L15.1036 5.29645C14.5198 5.02938 13.7704 5.53093 13.795 6.17082L13.8914 8.94101C13.9 9.18803 13.7931 9.42498 13.6023 9.58205C13.4107 9.73972 13.1565 9.79884 12.915 9.74188L10.219 9.10587C9.59353 8.96059 8.95845 9.5946 9.1048 10.2201L9.7401 12.9175C9.79685 13.1585 9.7379 13.4121 9.5807 13.6033C9.42382 13.7942 9.187 13.9011 8.9401 13.8925L6.16975 13.7961C5.53253 13.7774 5.02991 14.5198 5.29538 15.1047L6.44053 17.6163C6.54454 17.8444 6.536 18.108 6.41746 18.3289C6.29936 18.549 6.08556 18.7016 5.83904 18.7417L3.11505 19.1849C2.48211 19.2875 2.13919 20.1197 2.51255 20.6399L4.1225 22.8761C4.26923 23.0799 4.31255 23.3404 4.23968 23.5808C4.16679 23.8212 3.98598 24.0138 3.75068 24.1018L1.16921 25.0668C0.569384 25.2911 0.393655 26.1724 0.862622 26.611L2.88681 28.4986C3.06805 28.6676 3.16024 28.9114 3.1362 29.158C3.1121 29.4052 2.97401 29.627 2.76282 29.7577L0.40861 31.2146C-0.136203 31.5511 -0.136203 32.4527 0.40861 32.7882L2.76285 34.2456C2.97403 34.3763 3.1121 34.5981 3.1362 34.8453C3.16024 35.092 3.06806 35.3358 2.88684 35.5048L0.862622 37.3929C0.393655 37.8298 0.569384 38.7112 1.16921 38.9366L3.75066 39.9016C3.98597 39.9895 4.1668 40.1822 4.23969 40.4226C4.31256 40.6629 4.26924 40.9235 4.12254 41.1273L2.51255 43.364C2.13813 43.8853 2.48264 44.7164 3.11559 44.8184L5.83825 45.2611C6.08524 45.3012 6.29943 45.4541 6.41761 45.6747C6.53607 45.8958 6.54451 46.1595 6.44042 46.3877L5.29538 48.8981C5.02831 49.4819 5.53253 50.2334 6.17028 50.2073L8.93872 50.1104C9.18583 50.1018 9.42288 50.2087 9.58001 50.3996C9.73763 50.5911 9.79679 50.8452 9.73995 51.0866L9.1048 53.7843C8.95791 54.4082 9.59353 55.0422 10.219 54.8953L12.9164 54.2604C13.1571 54.2038 13.4104 54.2625 13.6017 54.4192C13.7932 54.5762 13.9005 54.8136 13.8918 55.061L13.795 57.8309C13.7704 58.4713 14.5198 58.9718 15.1036 58.7048L17.615 57.5609C17.843 57.4571 18.1063 57.4656 18.327 57.5839C18.5473 57.7019 18.7 57.9157 18.7402 58.1624L19.1839 60.8851C19.2869 61.5191 20.1186 61.862 20.6394 61.4887L22.875 59.8777C23.0791 59.7306 23.3402 59.6874 23.5808 59.7607C23.8206 59.8338 24.0126 60.0143 24.1004 60.249L25.0662 62.8304C25.2906 63.4302 26.173 63.607 26.6099 63.137L28.4973 61.1136C28.6667 60.9319 28.9113 60.8397 29.1585 60.8643C29.4051 60.8889 29.6263 61.0268 29.7567 61.2376L31.2146 63.5926C31.5501 64.1353 32.4517 64.1363 32.7882 63.5926L34.2461 61.2375C34.3766 61.0268 34.5977 60.8889 34.8443 60.8643C35.0915 60.8397 35.3361 60.9319 35.5055 61.1136L37.3924 63.137C37.8293 63.607 38.7117 63.4302 38.936 62.8304L39.9012 60.2494C39.9891 60.0144 40.1813 59.8338 40.4213 59.7607C40.662 59.6873 40.9232 59.7306 41.1274 59.8777L43.3634 61.4887C43.8837 61.862 44.7148 61.518 44.8174 60.8851L45.262 58.162C45.3022 57.9156 45.4548 57.7019 45.6749 57.5838C45.8958 57.4652 46.1595 57.4567 46.3877 57.5607L48.8981 58.7048C49.4819 58.9718 50.2297 58.4724 50.2067 57.8309L50.1103 55.0606C50.1017 54.8137 50.2086 54.5769 50.3995 54.42C50.5907 54.2628 50.8443 54.2038 51.0853 54.2605L53.7822 54.8953C54.4077 55.0422 55.0428 54.4082 54.8959 53.7843L54.2604 51.0854C54.2038 50.8447 54.2625 50.5913 54.4194 50.4002C54.5763 50.2089 54.8134 50.1018 55.0606 50.1104L57.8304 50.2073C58.4681 50.2329 58.9724 49.4819 58.7042 48.8981L57.56 46.3865C57.4564 46.159 57.4646 45.8962 57.5823 45.6756C57.7003 45.4545 57.9147 45.3012 58.162 45.261L60.8851 44.8184C61.5191 44.7169 61.8631 43.8853 61.4871 43.364L59.8771 41.1273C59.7304 40.9235 59.687 40.6629 59.7599 40.4226C59.8328 40.1822 60.0136 39.9895 60.2489 39.9016L62.8304 38.9366C63.4313 38.7112 63.607 37.8298 63.137 37.3929L61.1132 35.5048C60.9321 35.3358 60.8399 35.092 60.8639 34.8454C60.888 34.5982 61.0261 34.3763 61.2373 34.2456L63.5915 32.7882C64.1363 32.4527 64.1369 31.5517 63.5921 31.2146L61.2379 29.7577Z" fill="#F97316"/>
</g>
<defs>
<clipPath id="clip0_734_5801">
<rect width="64" height="64" fill="white"/>
</clipPath>
</defs>
</svg>
