<svg width="64" height="64" viewBox="0 0 64 64" fill="none" xmlns="http://www.w3.org/2000/svg">
<path d="M57.6859 9.42288C55.8691 2.29439 44.0499 -0.0481419 32.8635 3.92552C26.2055 6.2913 19.0007 10.0031 13.8178 14.8499C7.65612 20.6131 6.67351 25.6281 7.07988 27.7243C8.5079 35.1186 18.6413 39.9537 22.8063 43.5386V43.5601C21.5775 44.1638 12.589 48.7138 10.485 53.3653C8.26575 58.2727 10.8385 61.7931 12.5421 62.2679C17.8208 63.7369 23.2362 61.0957 26.149 56.7528C28.9583 52.5624 28.7239 47.1529 27.5028 44.4607C29.1867 44.0173 31.1502 43.818 33.645 44.1091C40.6857 44.9316 42.0669 49.3272 41.8032 51.1675C41.5394 53.0079 40.0625 54.0197 39.5682 54.3244C39.0739 54.6292 38.9236 54.7367 38.9647 54.9633C39.0252 55.2935 39.2538 55.2817 39.6737 55.2094C40.254 55.1118 43.3699 53.713 43.5048 50.3177C43.6747 46.006 39.5429 41.1827 32.2266 41.3096C29.2141 41.3624 27.3191 41.6476 25.9496 42.1575C25.8483 42.041 25.7448 41.9263 25.6391 41.8136C21.1165 36.9882 12.7552 33.5753 13.1086 27.0874C13.2377 24.7294 14.0582 18.519 29.1751 10.9858C41.5589 4.8144 51.4736 6.51393 53.1868 10.2766C55.6347 15.6529 47.8887 25.6457 35.0281 27.0874C30.1285 27.6364 27.5477 25.7373 26.9069 25.0302C26.231 24.2859 26.1314 24.2527 25.8774 24.3914C25.4671 24.62 25.7269 25.2764 25.8774 25.6691C26.2623 26.6693 27.8369 28.4412 30.5231 29.3223C32.8869 30.0978 38.6384 30.5237 45.5971 27.8337C53.388 24.8153 59.4735 16.4305 57.6859 9.42288ZM24.5353 45.7482C25.1195 47.909 25.0549 49.9231 24.4513 51.7457C24.3174 52.1517 24.1568 52.5485 23.9707 52.9334C23.5058 53.8985 22.8807 54.8011 22.1168 55.6353C19.7841 58.179 16.5275 59.1421 15.1306 58.3313C13.6226 57.4561 14.3785 53.8693 17.0803 51.0131C19.9891 47.9382 24.1738 45.9612 24.1738 45.9612L24.168 45.9493L24.5353 45.7481V45.7482Z" fill="#EC4899" stroke="#EC4899" stroke-width="2.42703"/>
</svg>
