<svg width="64" height="64" viewBox="0 0 64 64" fill="none" xmlns="http://www.w3.org/2000/svg">
<path fill-rule="evenodd" clip-rule="evenodd" d="M8.00613 8.8255C8.00613 7.8336 8.73313 6.99156 9.71443 6.84689L53.8651 0.337704C55.0727 0.159658 56.1568 1.09561 56.1568 2.31632V14.2548C56.1568 15.2467 55.4298 16.0888 54.4485 16.2334L10.2978 22.7426C9.09019 22.9207 8.00613 21.9847 8.00613 20.764V8.8255ZM8.00161 29.312C8.00161 28.3201 8.72861 27.478 9.7099 27.3334L53.8606 20.8242C55.0682 20.6461 56.1523 21.5821 56.1523 22.8028V34.7413C56.1523 35.7332 55.4253 36.5752 54.444 36.7199L10.2933 43.2291C9.08567 43.4071 8.00161 42.4712 8.00161 41.2505V29.312ZM8 49.7451C8 48.7533 8.72699 47.9112 9.70827 47.7665L53.8583 41.2571C55.0659 41.079 56.15 42.015 56.15 43.2357V55.1742C56.15 56.1661 55.423 57.0081 54.4417 57.1528L10.2917 63.662C9.08406 63.84 8 62.9041 8 61.6833V49.7451Z" fill="#EF4444"/>
<path fill-rule="evenodd" clip-rule="evenodd" d="M8.60876 21.2159C8.77871 20.6904 9.34248 20.4022 9.86798 20.5721L38.8396 29.9424C39.3651 30.1123 39.6533 30.6761 39.4833 31.2015L39.1842 32.1266C39.0142 32.6521 38.4504 32.9403 37.925 32.7703L8.95336 23.4001C8.42788 23.2302 8.13967 22.6664 8.30961 22.1409L8.60876 21.2159ZM24.969 11.4356C25.139 10.9101 25.7027 10.6219 26.2282 10.7918L55.1998 20.1624C55.7253 20.3323 56.0135 20.8961 55.8436 21.4216L55.5444 22.3466C55.3745 22.8721 54.8107 23.1603 54.2852 22.9904L25.3136 13.6198C24.7881 13.4499 24.4999 12.8861 24.6698 12.3607L24.969 11.4356ZM8.60812 41.6833C8.77806 41.1578 9.34184 40.8696 9.86733 41.0396L38.839 50.4098C39.3644 50.5797 39.6526 51.1435 39.4827 51.6689L39.1835 52.5943C39.0136 53.1198 38.4498 53.408 37.9243 53.2381L8.9527 43.8675C8.42723 43.6976 8.13902 43.1338 8.30896 42.6084L8.60812 41.6833ZM24.9716 31.8704C25.1415 31.3449 25.7053 31.0567 26.2308 31.2266L55.2023 40.5971C55.7278 40.7671 56.016 41.3309 55.846 41.8564L55.5467 42.7815C55.3768 43.307 54.813 43.5951 54.2875 43.4252L25.3162 34.0546C24.7907 33.8847 24.5025 33.3209 24.6724 32.7955L24.9716 31.8704Z" fill="#EF4444"/>
</svg>
