<svg width="64" height="64" viewBox="0 0 64 64" fill="none" xmlns="http://www.w3.org/2000/svg">
<path d="M51.3691 20.4091V43.4651L31.7783 55.056L31.6023 55.216V63.8331L31.7783 64L59.3691 48.064V15.936L59.1131 15.8743L51.3417 20.2171L51.3806 20.4046" fill="#2F406A"/>
<path d="M12.1257 43.6571L31.7829 55.0583V64L4 48V16L4.28571 15.9566L12.0411 20.4663L12.1257 20.7246V43.6571Z" fill="#2379BD"/>
<path d="M12.1257 20.7246L4 16L31.7166 0L59.3737 15.936L51.3737 20.4091L31.7166 9.19543L12.1257 20.7246Z" fill="#03AFEF"/>
<path d="M31.4423 41.0171L31.2297 40.7886V32.1417L31.4423 32.032L31.4949 31.8194L38.9166 27.4903L39.1451 27.5406V36.4549L31.4446 41.0103" fill="#2F406A"/>
<path d="M23.6137 36.7383V27.4766H23.8286L31.3714 31.8697L31.4354 32.0434V41.0286L23.6069 36.7497" fill="#2379BD"/>
<path d="M31.3143 22.9189L23.6137 27.4743L31.4423 32.0297L39.1429 27.5383L31.3143 22.9189Z" fill="#03AFEF"/>
<path d="M21.856 46.6629L21.6434 46.4343V37.7897L21.856 37.68L21.9086 37.4674L29.3326 33.1429L29.5611 33.1931V42.1074L21.856 46.6629Z" fill="#2F406A"/>
<path d="M14.0297 42.3863V33.1223H14.2446L21.7874 37.5154L21.8514 37.6891V46.6743L14.0297 42.3863Z" fill="#2379BD"/>
<path d="M21.7303 28.5714L14.0297 33.1223L21.856 37.68L29.5589 33.1886L21.7303 28.5714Z" fill="#03AFEF"/>
<path d="M41.7097 46.8777L41.4971 46.6491V38.0023L41.7097 37.8926L41.7623 37.68L49.184 33.3509L49.4126 33.4011V42.3154L41.712 46.8709" fill="#2F406A"/>
<path d="M33.8811 42.5989V33.3371H34.096L41.6389 37.7303L41.7029 37.904V46.8891L33.8743 42.6103" fill="#2379BD"/>
<path d="M41.5817 28.7817L33.8811 33.3371L41.7097 37.8926L49.4103 33.4011L41.5817 28.7817Z" fill="#03AFEF"/>
<path d="M32.1257 52.5257L31.9131 52.2971V43.6571L32.1257 43.5474L32.1783 43.3349L39.6 39.0057L39.8286 39.056V47.9703L32.1257 52.5257Z" fill="#2F406A"/>
<path d="M24.2971 48.2469V38.9851H24.512L32.0549 43.3783L32.1189 43.552V52.5257L24.2903 48.2469" fill="#2379BD"/>
<path d="M31.9977 34.4274L24.2971 38.9829L32.1257 43.5383L39.8263 39.0469L31.9977 34.4274Z" fill="#03AFEF"/>
<path d="M31.4423 28.7383L31.2297 28.5097V19.8629L31.4423 19.7531L31.4949 19.5406L38.9166 15.2114L39.1451 15.2617V24.176L31.4446 28.7314" fill="#2F406A"/>
<path d="M23.6137 24.4571V15.1977H23.8286L31.3714 19.5909L31.4354 19.7646V28.7497L23.6137 24.4571Z" fill="#2379BD"/>
<path d="M31.3143 10.6423L23.6137 15.1977L31.4423 19.7531L39.1429 15.2617L31.3143 10.6423Z" fill="#03AFEF"/>
<path d="M21.856 34.3863L21.6434 34.1577V25.5109L21.856 25.4011L21.9086 25.1886L29.3303 20.8594L29.5589 20.9097V29.824L21.856 34.3863Z" fill="#2F406A"/>
<path d="M14.0297 30.1074V20.8457H14.2446L21.7874 25.2389L21.8514 25.4126V34.3977L14.0297 30.1074Z" fill="#2379BD"/>
<path d="M21.7303 16.288L14.0297 20.8457L21.856 25.4011L29.5566 20.9097L21.7303 16.288Z" fill="#03AFEF"/>
<path d="M41.7097 34.5989L41.4971 34.3703V25.7257L41.7097 25.616L41.7623 25.4034L49.184 21.0743L49.4126 21.1246V30.0389L41.712 34.5943" fill="#2F406A"/>
<path d="M33.8811 30.3223V21.0583H34.096L41.6389 25.4514L41.7029 25.6251V34.6103L33.8743 30.3314" fill="#2379BD"/>
<path d="M41.5817 16.5029L33.8811 21.0583L41.7097 25.6137L49.4103 21.1223L41.5817 16.5029Z" fill="#03AFEF"/>
<path d="M32.1257 40.2469L31.9131 40.0183V31.3714L32.1257 31.2617L32.1783 31.0491L39.6 26.72L39.8286 26.7703V35.6846L32.128 40.24" fill="#2F406A"/>
<path d="M24.2971 35.968V26.7063H24.512L32.0549 31.0994L32.1189 31.2731V40.2583L24.2903 35.9794" fill="#2379BD"/>
<path d="M31.9977 22.1509L24.2971 26.7063L32.1257 31.2617L39.8263 26.7703L31.9977 22.1486" fill="#03AFEF"/>
</svg>
