<svg width="64" height="64" viewBox="0 0 64 64" fill="none" xmlns="http://www.w3.org/2000/svg">
<path d="M55.6477 24.5464C55.3837 24.452 55.1649 24.2491 55.056 23.9907L54.305 22.2102C54.1978 21.9561 54.203 21.6632 54.3143 21.4109C57.8617 13.3672 57.6106 13.1129 56.8974 12.3928L52.1289 7.73398L51.9349 7.57052C51.7545 7.41857 51.5263 7.33524 51.2905 7.33524H51.1033C50.8173 7.33524 49.9741 7.33524 43.0882 10.4444C42.839 10.5569 42.5501 10.5651 42.2965 10.4628L40.4202 9.70631C40.1682 9.60471 39.966 9.39884 39.8641 9.14699C36.5665 1 36.2083 1 35.2146 1H28.4878C27.4959 1 27.1004 0.998908 24.0456 9.1599C23.9474 9.42225 23.7418 9.63776 23.4822 9.74314L21.6169 10.5005C21.3712 10.6002 21.0952 10.5979 20.8508 10.4951C16.185 8.53351 13.4415 7.54082 12.6867 7.54082L12.441 7.54845C12.1901 7.55624 11.9512 7.65814 11.772 7.83391L6.92169 12.5894C6.15644 13.3089 5.88105 13.5705 9.62369 21.4746C9.74571 21.7323 9.7552 22.0357 9.6444 22.2984L8.8975 24.0694C8.79209 24.3193 8.58344 24.5181 8.33054 24.6162C0 27.8468 0 28.18 0 29.1968V35.7926C0 36.8105 0 37.1799 8.34259 40.18C8.60581 40.2747 8.82384 40.4771 8.93269 40.7348L9.67944 42.5027C9.78682 42.7569 9.78166 43.0501 9.67027 43.3026C6.12377 51.3415 6.37797 51.5981 7.09134 52.3113L11.8598 56.9758L12.0531 57.1418C12.2344 57.2978 12.4657 57.3835 12.7049 57.3835H12.8892C13.1707 57.3835 14.0035 57.3835 20.8974 54.2685C21.1476 54.1555 21.4378 54.1476 21.6922 54.251L23.5647 55.0125C23.8154 55.1145 24.0164 55.3198 24.118 55.5706C27.4167 63.7181 27.7755 63.7161 28.7714 63.7161H35.4994C36.5112 63.7161 36.8809 63.7161 39.9439 55.5594C40.0424 55.2971 40.2484 55.0818 40.5082 54.9767L42.3869 54.217C42.6325 54.1177 42.9081 54.1203 43.1522 54.2231C47.8125 56.1854 50.5497 57.1813 51.2998 57.1813L51.5485 57.1743C51.8002 57.1672 52.04 57.0654 52.2199 56.8893L57.1084 52.1036C57.8313 51.3741 58.0924 51.1138 54.3701 43.2424C54.2487 42.9857 54.239 42.6837 54.3486 42.4217L55.0903 40.6493C55.1954 40.3982 55.4046 40.1984 55.6585 40.1C64 36.8656 64 36.5064 64 35.5125V28.9241C63.9991 27.9029 63.9991 27.5356 55.6477 24.5464ZM31.9984 43.3302C25.8296 43.3302 20.8066 38.4049 20.8066 32.3529C20.8066 26.3054 25.8298 21.3848 31.9984 21.3848C38.1638 21.3848 43.1763 26.3066 43.1763 32.3529C43.1751 38.4049 38.1627 43.3302 31.9984 43.3302Z" fill="#3B82F6"/>
</svg>
