<svg width="64" height="64" viewBox="0 0 64 64" fill="none" xmlns="http://www.w3.org/2000/svg">
<g clip-path="url(#clip0_763_2617)">
<path d="M23.3034 41.9535C23.493 41.7437 23.7626 41.624 24.0453 41.624H45.9995C46.8686 41.624 47.324 42.6561 46.7382 43.2981L35.234 55.9048C35.0446 56.1125 34.7765 56.2308 34.4954 56.2308H12.6517C11.7849 56.2308 11.3286 55.2033 11.9098 54.5603L23.3034 41.9535ZM62.4727 25.986C63.0584 25.344 62.603 24.312 61.734 24.312H13.7681C13.4869 24.312 13.2188 24.4303 13.0293 24.638L1.52731 37.2448C0.941606 37.8867 1.39704 38.9188 2.26604 38.9188H50.2319C50.5131 38.9188 50.7812 38.8004 50.9707 38.5928L62.4727 25.986ZM28.7265 7.32689C28.916 7.11868 29.1845 7 29.466 7H51.3402C52.2082 7 52.664 8.03007 52.0803 8.6725L40.625 21.2793C40.4354 21.4878 40.1667 21.6068 39.8849 21.6068H17.9916C17.1232 21.6068 16.6675 20.5759 17.2521 19.9337L28.7265 7.32689Z" fill="#3B82F6"/>
</g>
<defs>
<clipPath id="clip0_763_2617">
<rect width="64" height="64" fill="white"/>
</clipPath>
</defs>
</svg>
