<svg width="64" height="64" viewBox="0 0 64 64" fill="none" xmlns="http://www.w3.org/2000/svg">
<g clip-path="url(#clip0_762_5893)">
<path d="M7.986 58.9736L6.00231 6.14978C5.97142 5.31266 6.26843 4.49654 6.83013 3.87508C7.39183 3.25363 8.17388 2.8759 9.00984 2.8223L53.9309 0.00673309C54.3703 -0.0217483 54.8109 0.0403311 55.2253 0.189124C55.6398 0.337916 56.0193 0.57025 56.3402 0.871724C56.6612 1.1732 56.9168 1.53738 57.0913 1.94171C57.2657 2.34604 57.3552 2.78188 57.3543 3.22223V60.7973C57.3526 61.2306 57.2633 61.6591 57.0918 62.057C56.9204 62.455 56.6702 62.8141 56.3564 63.113C56.0427 63.4118 55.6717 63.6441 55.2659 63.796C54.8601 63.9479 54.4277 64.0162 53.9948 63.9968L11.0415 62.0771C10.2384 62.0377 9.4792 61.6988 8.91359 61.1273C8.34799 60.5557 8.01704 59.793 7.986 58.9896V58.9736Z" fill="#EC4899"/>
<path d="M43.9164 7.87751L44.2364 0.486659L50.3954 0.00673368L50.6674 7.62155C50.6698 7.71347 50.6458 7.80415 50.5981 7.88281C50.5505 7.96146 50.4813 8.02478 50.3987 8.06523C50.3161 8.10567 50.2237 8.12154 50.1323 8.11095C50.041 8.10036 49.9546 8.06376 49.8835 8.00549L47.4999 6.13378L44.6843 8.27745C44.6119 8.33182 44.5256 8.36461 44.4354 8.37202C44.3452 8.37944 44.2547 8.36119 44.1744 8.31936C44.0941 8.27754 44.0272 8.21386 43.9816 8.13568C43.936 8.05749 43.9134 7.96799 43.9164 7.87751ZM36.0296 24.131C36.0296 25.3788 44.4603 24.7709 45.5962 23.891C45.5962 15.3803 41.0209 10.901 32.6382 10.901C24.2715 10.901 19.5682 15.4443 19.5682 22.2593C19.5682 34.1454 35.6137 34.3854 35.6137 40.8644C35.6137 42.6881 34.7178 43.7599 32.7661 43.7599C30.2065 43.7599 29.1987 42.4481 29.3107 38.0168C29.3107 37.057 19.5682 36.753 19.2802 38.0168C18.5284 48.7671 25.2153 51.8707 32.8781 51.8707C40.301 51.8707 46.1241 47.9033 46.1241 40.7524C46.1241 28.0184 29.8546 28.3543 29.8546 22.0353C29.8546 19.4757 31.7583 19.1398 32.8941 19.1398C34.0619 19.1398 36.2056 19.3477 36.0296 24.131Z" fill="#DEE2E6"/>
</g>
<defs>
<clipPath id="clip0_762_5893">
<rect width="64" height="64" fill="white"/>
</clipPath>
</defs>
</svg>
