<svg width="64" height="64" viewBox="0 0 64 64" fill="none" xmlns="http://www.w3.org/2000/svg">
<path d="M43.144 53.9457C48.8902 47.0725 49.5665 39.9741 45.1156 26.7915C42.2989 18.4538 37.6227 12.0313 41.0593 6.84836C44.7215 1.32747 52.4955 6.67957 46.0169 14.0595L47.3126 14.9607C55.087 15.8623 58.9181 5.21427 53.1153 2.17219C37.7919 -5.82751 24.3836 9.55247 30.2989 27.3547C32.8343 34.9038 36.3835 42.9039 33.5102 49.2699C31.0314 54.7347 26.2426 57.9459 23.0317 58.0586C16.3277 58.3969 20.7786 43.0169 28.4964 39.1859C29.1724 38.8483 30.1301 38.3973 29.2289 37.2704C19.7082 36.2003 14.1308 40.5943 10.9195 46.7353C1.56755 64.5941 28.6656 71.1854 43.1444 53.9461L43.144 53.9457Z" fill="#EAB308"/>
</svg>
