<svg width="68" height="64" viewBox="0 0 68 64" fill="none" xmlns="http://www.w3.org/2000/svg">
<path fill-rule="evenodd" clip-rule="evenodd" d="M33.9885 63.8329C33.9885 63.8329 33.9886 63.8329 33.9886 63.8329C41.1319 38.2888 41.1161 37.5109 46.0088 20.2105C46.2121 19.4916 47.0399 19.1494 47.6869 19.523C48.3795 19.9231 48.9465 19.5959 48.9465 18.7978V10.1596C48.9465 9.9739 48.9726 9.78827 49.0236 9.6097C50.0215 6.11594 50.8594 3.20933 51.3634 1.45395C51.6105 0.593283 52.3973 0 53.2927 0H56.7389C57.2429 0 57.7283 0.1903 58.0981 0.532829L65.4252 7.32072C66.2998 8.13095 66.2758 9.52156 65.3737 10.3011L62.3632 12.9028C61.5075 13.6423 61.4347 14.9437 62.2027 15.774L64.4397 18.1927C65.0797 18.8846 65.1498 19.9293 64.608 20.7004L34.3054 63.8325C34.1528 64.0834 33.9404 64.0263 33.9884 63.8329C33.9884 63.8328 33.9885 63.8328 33.9885 63.8329ZM37.4004 7.30253C37.6825 7.30253 37.9128 7.45847 37.9128 7.65202V12.2224C37.9128 12.4155 37.6825 12.5724 37.4005 12.5724H29.6854C29.4018 12.5724 29.1721 12.4161 29.1721 12.2224V7.65202C29.1721 7.45912 29.4016 7.30253 29.6854 7.30253H37.4005H37.4004Z" fill="#DEE2E6"/>
<path fill-rule="evenodd" clip-rule="evenodd" d="M46.9234 2.24279L38.9056 6.87141C38.6508 7.01851 38.5944 7.35876 38.5944 7.65299V12.2236C38.5944 12.5776 38.6369 13.0121 38.9435 13.1892L46.9234 17.7959C47.5078 18.1333 47.9872 17.8573 47.9872 17.1832V2.85615C47.9872 2.18142 47.5079 1.90616 46.9234 2.24279ZM28.49 12.223C28.49 12.223 28.4901 12.223 28.4901 12.223V7.65282C28.4901 7.35889 28.4335 7.01989 28.179 6.87292L20.1599 2.24279C19.5758 1.90616 19.0969 2.18158 19.0969 2.85615V17.183C19.0969 17.8569 19.5752 18.1337 20.1599 17.7951L28.6338 12.9024C28.6846 12.873 28.6957 12.8047 28.662 12.7566C28.5535 12.6019 28.4899 12.4208 28.4899 12.223C28.4899 12.223 28.49 12.2229 28.49 12.223Z" fill="#DEE2E6"/>
<path fill-rule="evenodd" clip-rule="evenodd" d="M32.7079 63.7599C32.7402 63.8058 32.7928 63.8332 32.849 63.8332C32.9632 63.8332 33.0441 63.718 33.0134 63.608C25.934 38.2841 25.9339 37.46 21.056 20.2107C20.8527 19.4917 20.0248 19.1494 19.3778 19.523C18.6855 19.9231 18.1184 19.5959 18.1184 18.7978V10.1597C18.1184 9.97392 18.0923 9.78825 18.0412 9.60964C17.0428 6.11503 16.205 3.20785 15.7008 1.45262C15.4537 0.592548 14.6674 0 13.7725 0H10.3258C9.82177 0 9.33633 0.190304 8.96659 0.532841L1.63951 7.3208C0.764957 8.131 0.788941 9.52155 1.69091 10.3011L4.7011 12.9028C5.55677 13.6423 5.62949 14.9437 4.86155 15.774L2.62443 18.1927C1.9845 18.8846 1.91442 19.9293 2.45619 20.7004L32.7079 63.7599Z" fill="#DEE2E6"/>
<path d="M33.2999 22.1155C34.5793 22.1155 35.6165 21.0784 35.6165 19.799C35.6165 18.5196 34.5793 17.4824 33.2999 17.4824C32.0205 17.4824 30.9834 18.5196 30.9834 19.799C30.9834 21.0784 32.0205 22.1155 33.2999 22.1155Z" fill="#DEE2E6"/>
<path d="M33.2999 35.8904C34.5793 35.8904 35.6165 34.8533 35.6165 33.5739C35.6165 32.2945 34.5793 31.2573 33.2999 31.2573C32.0205 31.2573 30.9834 32.2945 30.9834 33.5739C30.9834 34.8533 32.0205 35.8904 33.2999 35.8904Z" fill="#DEE2E6"/>
<path d="M33.2998 49.6645C34.5791 49.6645 35.6162 48.6274 35.6162 47.3481C35.6162 46.0688 34.5791 45.0317 33.2998 45.0317C32.0205 45.0317 30.9834 46.0688 30.9834 47.3481C30.9834 48.6274 32.0205 49.6645 33.2998 49.6645Z" fill="#DEE2E6"/>
</svg>
