<svg width="64" height="64" viewBox="0 0 64 64" fill="none" xmlns="http://www.w3.org/2000/svg">
<g clip-path="url(#clip0_762_5924)">
<path d="M7.00761 62.9737C7.00677 62.9746 7.00533 62.974 7.00533 62.9728V47.8107C7.024 47.016 7.52267 46.3413 8.224 46.0667L8.23733 46.0613L25.1057 40.7177C26.0361 40.423 26.0364 39.1065 25.1062 38.8113L8.23467 33.456C7.752 33.272 7.37333 32.9093 7.17333 32.4507C7.16978 32.4418 7.16553 32.4332 7.16075 32.4249C7.06375 32.2569 7.00533 32.0587 7.00533 31.8453C7.00533 31.832 7.00533 31.8187 7.00533 31.808V31.8107V16.5387C7.00533 16.5307 7.00533 16.52 7.00533 16.512C7.00533 16.2907 7.06667 16.0827 7.176 15.9067L7.17333 15.912C7.37867 15.44 7.75733 15.0773 8.22667 14.9013L8.24 14.896L55.0347 0.0586667C55.1307 0.0213333 55.2427 0 55.3573 0C55.864 0 56.272 0.410667 56.272 0.914667C56.272 0.954667 56.2693 0.992 56.264 1.032V1.02667V16.1893C56.2427 16.984 55.744 17.656 55.0453 17.9333L55.032 17.9387L38.3722 23.2201C37.4418 23.5151 37.4418 24.8316 38.3722 25.1266L55.04 30.4107C55.7547 30.6907 56.2533 31.3653 56.272 32.16V32.1627V47.328V47.336C56.272 47.432 56.2613 47.528 56.2427 47.6187C56.2429 47.6179 56.2441 47.6182 56.2439 47.619C56.1269 48.3032 55.6642 48.857 55.0453 49.0987L55.032 49.104L8.23467 63.9413C8.13333 63.976 8.016 63.9973 7.89333 64C7.39733 63.9867 7 63.5787 7 63.08C7 63.0444 7.00243 63.0088 7.00728 62.9731C7.00735 62.9727 7.008 62.9727 7.008 62.9732C7.008 62.9733 7.00796 62.9734 7.00789 62.9734L7.00761 62.9737Z" fill="#EAB308"/>
</g>
<defs>
<clipPath id="clip0_762_5924">
<rect width="64" height="64" fill="white"/>
</clipPath>
</defs>
</svg>
