<svg width="64" height="64" viewBox="0 0 64 64" fill="none" xmlns="http://www.w3.org/2000/svg">
<path d="M38.2428 0.00385533C34.9236 0.0680148 31.6209 0.989671 28.7027 2.84877L13.794 12.3495C11.7818 13.6133 10.0553 15.2828 8.72461 17.2514C7.39392 19.22 6.48829 21.4444 6.06555 23.7826C5.42256 27.3413 5.86635 31.0017 7.32456 34.2913C7.61941 34.9565 7.58045 35.7254 7.22282 36.359C6.2797 38.0299 5.62284 39.85 5.2824 41.7439C4.85657 44.1338 4.91281 46.5847 5.4478 48.9526C5.98279 51.3204 6.98574 53.5575 8.3977 55.5321C14.3429 64.0384 26.0843 66.5592 34.5732 61.1512L49.4824 51.6907C51.4923 50.4242 53.217 48.7539 54.5474 46.7858C55.8778 44.8177 56.7848 42.5946 57.2109 40.2576C57.8514 36.7002 57.4058 33.0419 55.9466 29.7546C55.6514 29.0895 55.6899 28.3204 56.0476 27.6867C56.991 26.0154 57.6499 24.1957 57.9943 22.3021C58.4188 19.9122 58.3619 17.4615 57.827 15.0939C57.2937 12.7337 56.2961 10.5034 54.8924 8.53273C54.8837 8.52048 54.879 8.50582 54.879 8.49078C54.879 8.476 54.8744 8.46152 54.8659 8.44941C50.9632 2.87925 44.5725 -0.118471 38.2428 0.00385533ZM39.5507 7.30607C39.5507 7.30593 39.5508 7.30582 39.551 7.30583C41.3703 7.38939 43.1459 7.89159 44.7395 8.77336C46.3332 9.65516 47.702 10.8928 48.7393 12.3899C49.5889 13.5767 50.1925 14.9214 50.5145 16.345C50.8365 17.7685 50.8705 19.2421 50.6144 20.679C50.5251 21.1489 50.4067 21.6127 50.2597 22.0679C50.1192 22.4896 49.6064 22.6494 49.2512 22.3821L49.2136 22.3538C47.4492 21.0586 45.4775 20.0728 43.3827 19.4386L43.3628 19.4328C43.0425 19.3399 42.8328 19.0332 42.8626 18.701C42.9286 17.9134 42.7141 17.1278 42.2569 16.4832C41.8373 15.8941 41.2482 15.4467 40.5682 15.2006C39.8881 14.9545 39.1492 14.9212 38.4498 15.1053C38.1261 15.191 37.8175 15.326 37.5348 15.5055L22.6207 24.9894C22.2564 25.2196 21.9439 25.5228 21.7027 25.88C21.4616 26.2372 21.2972 26.6405 21.2199 27.0644C21.1452 27.4988 21.1573 27.9437 21.2554 28.3735C21.3536 28.8032 21.5359 29.2092 21.7918 29.5681C22.2068 30.1621 22.7927 30.6157 23.4716 30.869C24.1505 31.1222 24.8903 31.163 25.593 30.986C25.9159 30.8979 26.2242 30.763 26.508 30.5855L32.2246 26.9615C33.1586 26.3622 34.1807 25.9128 35.2538 25.6295C37.5995 25.0185 40.0763 25.1427 42.3491 25.9852C44.6219 26.8277 46.5812 28.3478 47.962 30.3401C48.8109 31.5272 49.4141 32.8719 49.736 34.2954C50.0579 35.7189 50.0921 37.1923 49.8366 38.6292C49.5842 40.0384 49.0404 41.3794 48.2402 42.5665C47.4399 43.7536 46.4007 44.7607 45.1891 45.5232L30.2746 55.0239C29.338 55.6185 28.3166 56.0675 27.2453 56.3555C24.8983 56.9646 22.4209 56.8391 20.1475 55.9959C17.874 55.1526 15.914 53.6323 14.5318 51.64C13.6833 50.4528 13.0808 49.1079 12.7598 47.6844C12.4388 46.2608 12.4058 44.7875 12.6628 43.351C12.7469 42.8838 12.8652 42.4235 13.0167 41.9736C13.1545 41.5522 13.6653 41.3904 14.0206 41.6557L14.0631 41.6874C15.8239 42.9729 17.7897 43.9509 19.8772 44.5799L19.8968 44.5856C20.2172 44.6785 20.427 44.9852 20.3973 45.3175C20.3423 46.1013 20.5626 46.8797 21.0203 47.5183C21.4373 48.1177 22.028 48.5749 22.7127 48.8284C23.3975 49.0819 24.1435 49.1195 24.8503 48.9362C25.1734 48.8492 25.4817 48.7142 25.7648 48.5357L40.6506 39.035C41.0162 38.805 41.3298 38.501 41.571 38.1427C41.8122 37.7843 41.9759 37.3795 42.0514 36.9541C42.1275 36.5207 42.1162 36.0764 42.018 35.6474C41.9198 35.2184 41.7367 34.8134 41.4796 34.4562C41.0625 33.8569 40.4718 33.3997 39.7871 33.1463C39.1023 32.8928 38.3564 32.8552 37.6496 33.0386C37.3261 33.1243 37.0177 33.2591 36.7351 33.4383L31.0185 37.0684C30.0836 37.6613 29.064 38.1084 27.9946 38.3947C25.6514 39.0001 23.179 38.8733 20.91 38.0312C18.6411 37.1891 16.6846 35.6722 15.3038 33.6845C14.4577 32.4962 13.8576 31.1509 13.5385 29.7275C13.2195 28.304 13.188 26.8312 13.4459 25.3955C13.6983 23.9862 14.242 22.6452 15.0422 21.458C15.8424 20.2709 16.8815 19.2638 18.0932 18.5011L33.0245 9.00044C33.954 8.4087 34.9679 7.96145 36.0316 7.67397C37.1795 7.37586 38.3657 7.25192 39.5504 7.30632C39.5506 7.30632 39.5507 7.30621 39.5507 7.30607Z" fill="#F97316"/>
</svg>
