<svg width="64" height="64" viewBox="0 0 64 64" fill="none" xmlns="http://www.w3.org/2000/svg">
<g clip-path="url(#clip0_763_2528)">
<path d="M10.017 27.8726H21.9847L13.5049 19.3928C10.273 19.3928 7.649 16.7688 7.649 13.5049C7.649 11.9518 8.26596 10.4623 9.36415 9.36415C10.4623 8.26596 11.9518 7.649 13.5049 7.649C16.7688 7.649 19.3928 10.273 19.3928 13.5049L27.8726 21.9847V10.017C26.7803 8.91438 26.1675 7.42509 26.1675 5.87303C26.1675 4.32097 26.7803 2.83168 27.8726 1.7291C28.4116 1.18149 29.0542 0.746593 29.7628 0.449737C30.4715 0.15288 31.2322 0 32.0006 0C32.7689 0 33.5296 0.15288 34.2383 0.449737C34.947 0.746593 35.5895 1.18149 36.1285 1.7291C38.4005 4.00106 38.4005 7.713 36.1285 10.017V21.9847L44.6403 13.5049C44.6403 11.9518 45.2573 10.4623 46.3555 9.36415C47.4537 8.26596 48.9432 7.649 50.4962 7.649C52.0493 7.649 53.5388 8.26596 54.637 9.36415C55.7352 10.4623 56.3521 11.9518 56.3521 13.5049C56.3521 16.7688 53.7282 19.3928 50.4962 19.3928L42.0164 27.8726H53.9842C55.0868 26.7803 56.576 26.1675 58.1281 26.1675C59.6802 26.1675 61.1695 26.7803 62.272 27.8726C64.576 30.1446 64.576 33.8565 62.272 36.1285C60.0001 38.4005 56.2881 38.4005 53.9842 36.1285H42.0164L50.4962 44.6403C53.7282 44.6403 56.3521 47.2323 56.3521 50.4962C56.3521 52.0493 55.7352 53.5388 54.637 54.637C53.5388 55.7352 52.0493 56.3521 50.4962 56.3521C47.2323 56.3521 44.6403 53.7282 44.6403 50.4962L36.1285 42.0164V53.9842C38.4005 56.2881 38.4005 60.0001 36.1285 62.272C33.8565 64.576 30.1446 64.576 27.8726 62.272C26.7803 61.1695 26.1675 59.6802 26.1675 58.1281C26.1675 56.576 26.7803 55.0868 27.8726 53.9842V42.0164L19.3928 50.4962C19.3928 53.7282 16.7688 56.3521 13.5049 56.3521C11.9518 56.3521 10.4623 55.7352 9.36415 54.637C8.26596 53.5388 7.649 52.0493 7.649 50.4962C7.649 48.9432 8.26596 47.4537 9.36415 46.3555C10.4623 45.2573 11.9518 44.6403 13.5049 44.6403L21.9847 36.1285H10.017C7.713 38.4005 4.00106 38.4005 1.7291 36.1285C1.18149 35.5895 0.746593 34.947 0.449737 34.2383C0.15288 33.5296 0 32.7689 0 32.0006C0 31.2322 0.15288 30.4715 0.449737 29.7628C0.746593 29.0542 1.18149 28.4116 1.7291 27.8726C2.83168 26.7803 4.32097 26.1675 5.87303 26.1675C7.42509 26.1675 8.91438 26.7803 10.017 27.8726Z" fill="#EAB308"/>
</g>
<defs>
<clipPath id="clip0_763_2528">
<rect width="64" height="64" fill="white"/>
</clipPath>
</defs>
</svg>
