<svg width="64" height="64" viewBox="0 0 64 64" fill="none" xmlns="http://www.w3.org/2000/svg">
<g clip-path="url(#clip0_762_5936)">
<path d="M27.444 0C26.9884 0 26.5895 0.30772 26.4812 0.750203C26.1291 2.18776 25.8412 3.60301 25.5893 5.02571C25.5191 5.42281 25.2196 5.73953 24.8291 5.84026C22.6046 6.41414 20.4609 7.26491 18.4483 8.37263C18.1055 8.56131 17.6846 8.54362 17.3637 8.31968C16.2097 7.51437 15.0354 6.73199 13.8134 5.99434C13.426 5.76047 12.9302 5.82493 12.6092 6.14386L6.15355 12.5569C5.82931 12.879 5.76398 13.3803 6.00074 13.7713C6.67142 14.8786 7.37622 15.965 8.11412 17.0287C8.34756 17.3653 8.35614 17.8087 8.142 18.1578C6.84175 20.2776 5.83402 22.5634 5.14626 24.9533C5.0386 25.3274 4.73161 25.6122 4.34895 25.6836C3.14583 25.9084 1.94835 26.1594 0.745585 26.458C0.305239 26.5673 0 26.9651 0 27.4189V36.5392C0 36.9924 0.304549 37.39 0.744378 37.4993C1.82089 37.7668 2.89292 37.9934 3.96965 38.1954C4.37139 38.2708 4.68802 38.58 4.7808 38.9781C5.39128 41.5976 6.38295 44.1135 7.72411 46.4451C7.92162 46.7884 7.90872 47.2152 7.686 47.5427C7.0973 48.4086 6.53442 49.2917 5.99811 50.191C5.76634 50.5796 5.83244 51.075 6.15239 51.395L12.6115 57.8541C12.9316 58.1742 13.4274 58.2403 13.8152 58.0068C14.6614 57.4972 15.4818 56.9644 16.2866 56.4193C16.6208 56.193 17.0569 56.187 17.4014 56.3972C19.7878 57.8528 22.3831 58.9341 25.097 59.6035C25.489 59.7002 25.7918 60.0144 25.8677 60.4109C26.0499 61.3628 26.2568 62.3097 26.4882 63.2508C26.5968 63.6928 26.9955 64 27.4507 64H36.613C37.0684 64 37.4673 63.6925 37.5751 63.2501C37.816 62.262 38.0267 61.2745 38.2182 60.29C38.2932 59.9041 38.5851 59.5973 38.9647 59.4952C41.5975 58.7876 44.1108 57.6933 46.4224 56.2481C46.7655 56.0336 47.2031 56.0352 47.5392 56.2606C48.4188 56.8504 49.3013 57.4255 50.2003 57.9785C50.5907 58.2186 51.0939 58.1551 51.4176 57.8308L57.8568 51.38C58.1791 51.0571 58.2427 50.5566 58.0055 50.1668C57.3956 49.1647 56.7573 48.1801 56.0915 47.2142C55.8691 46.8916 55.8521 46.4702 56.042 46.1275C57.278 43.8971 58.199 41.5062 58.7787 39.023C58.871 38.6274 59.1846 38.3192 59.5837 38.2436C60.806 38.0123 62.0253 37.7632 63.2474 37.462C63.688 37.3534 63.9932 36.9555 63.9932 36.5018V27.4098C63.9932 26.9568 63.6889 26.5593 63.2493 26.4497C61.9195 26.1178 60.5861 25.8444 59.2323 25.6061C58.8454 25.538 58.5332 25.2524 58.424 24.8751C57.7734 22.6292 56.8421 20.4743 55.6521 18.4616C55.4459 18.1128 55.4591 17.6748 55.6918 17.343C56.5108 16.1761 57.2913 14.9826 58.0321 13.7646C58.2698 13.3737 58.2052 12.8715 57.881 12.5488L51.4144 6.11257C51.0919 5.79161 50.5929 5.72801 50.2042 5.96445C48.9201 6.74549 47.6815 7.56957 46.467 8.42382C46.1419 8.65247 45.7135 8.66899 45.3675 8.47341C43.4222 7.37378 41.3487 6.51816 39.194 5.92591C38.8097 5.82029 38.5172 5.5051 38.4487 5.11251C38.1947 3.65626 37.8997 2.2 37.5354 0.74374C37.4255 0.30428 37.0281 0 36.5751 0H27.444ZM31.7325 12.4999C31.7517 12.4999 31.7708 12.4999 31.79 12.4999C34.1453 12.4964 36.4827 12.9105 38.6935 13.7231C39.1989 13.9075 39.6893 14.107 40.1796 14.3623C44.4107 16.3111 47.8409 19.6585 49.8923 23.8408C50.0842 24.2321 50.2625 24.6303 50.4333 25.0285C52.3077 29.5874 52.4416 34.6762 50.8095 39.3274C50.7317 39.5548 50.6531 39.7754 50.5678 39.9673C48.6426 44.8659 44.8894 48.8235 40.1021 51.0058C40.0542 51.0276 40.0082 51.0534 39.9648 51.0832C39.9187 51.1147 39.8698 51.142 39.8185 51.1642C37.3441 52.236 34.6798 52.8014 31.9828 52.8269C29.2651 52.8525 26.5703 52.3293 24.0598 51.2887C24.048 51.2838 24.0419 51.2711 24.0412 51.2584C24.0408 51.2498 24.0347 51.2427 24.0268 51.2394C21.5351 50.1874 19.279 48.6474 17.3916 46.7101C15.5009 44.7694 14.0184 42.4695 13.0318 39.9462L12.9321 39.6757C11.1159 34.7975 11.2586 29.4056 13.3302 24.6303C13.4436 24.3606 13.5645 24.0901 13.7005 23.8272C15.827 19.4856 19.4317 16.0443 23.8672 14.1213C24.3087 13.9319 24.7571 13.7588 25.2113 13.6022C27.3093 12.8785 29.5132 12.506 31.7325 12.4999ZM38.299 17.3921C38.2965 17.3916 38.294 17.3913 38.2915 17.3913C37.8459 17.3863 37.4056 17.4885 37.0077 17.6893C36.6087 17.8907 36.2642 18.1852 36.0032 18.5481C35.7423 18.9109 35.5726 19.3313 35.5086 19.7736C35.4447 20.2159 35.4883 20.6671 35.6357 21.089C35.6908 21.2428 35.7594 21.3909 35.8405 21.5315C36.0713 21.9319 36.1635 22.4305 35.9326 22.8308L34.2132 25.8114C33.9588 26.2523 33.4152 26.4219 32.9222 26.2948C32.3757 26.1538 31.8093 26.0955 31.2422 26.1233C30.2816 26.177 29.3516 26.4799 28.5437 27.0023C27.9889 27.361 27.5049 27.8148 27.1125 28.3404C26.8064 28.7505 26.2731 28.9605 25.7966 28.7735L21.1992 26.9693C21.1669 26.9567 21.1457 26.9256 21.1457 26.8909C21.2097 26.274 21.0475 25.6548 20.6892 25.1484C20.331 24.6421 19.8011 24.283 19.198 24.138C18.5949 23.993 17.9597 24.0719 17.4104 24.36C16.8611 24.6482 16.4351 25.126 16.2116 25.7046C15.9882 26.2832 15.9824 26.9233 16.1954 27.5058C16.4083 28.0884 16.8256 28.5738 17.3696 28.8718C17.9136 29.1699 18.5473 29.2603 19.1529 29.1262C19.5058 29.048 19.8351 28.8968 20.1213 28.6853C20.4858 28.4158 20.9559 28.2582 21.3779 28.4238L25.3306 29.9749C25.7996 30.159 26.0482 30.6633 26.0033 31.1651C25.936 31.9167 26.0225 32.6772 26.2612 33.3995C26.4988 34.1186 26.8801 34.7784 27.3786 35.3403C27.7158 35.7203 27.8144 36.2797 27.5404 36.7075L25.9101 39.2526C25.6501 39.6585 25.1376 39.8042 24.6602 39.7378C24.4458 39.708 24.2283 39.699 24.0108 39.7112C23.2279 39.7594 22.4855 40.0758 21.9086 40.6071C21.3316 41.1385 20.9552 41.8523 20.8429 42.6286C20.7305 43.4049 20.8889 44.1962 21.2915 44.8693C21.6941 45.5425 22.3163 46.0564 23.0534 46.3246C23.7904 46.5929 24.5974 46.5991 25.3385 46.3421C26.0795 46.0852 26.7095 45.5808 27.1223 44.9139C27.5352 44.247 27.7057 43.4582 27.6052 42.6803C27.5403 42.1782 27.3651 41.7004 27.0961 41.2795C26.8375 40.8749 26.7584 40.3506 27.0181 39.9467L28.6505 37.4075C28.9243 36.9816 29.4713 36.8376 29.9562 36.9834C30.7905 37.2343 31.6764 37.2864 32.5418 37.1297C33.4072 36.973 34.2186 36.6136 34.9118 36.0861C35.3148 35.7794 35.8777 35.7225 36.2835 36.0255L38.0888 37.3734C38.4825 37.6673 38.5905 38.2015 38.4584 38.6747C38.3612 39.0229 38.3107 39.3838 38.3092 39.7479C38.3066 40.3975 38.4601 41.0382 38.7569 41.616C39.0536 42.1938 39.485 42.6918 40.0145 43.0681C40.544 43.4443 41.1562 43.6878 41.7995 43.7779C42.4428 43.8681 43.0983 43.8023 43.7108 43.5861C44.3234 43.3699 44.875 43.0096 45.3192 42.5356C45.7633 42.0617 46.0871 41.4879 46.2631 40.8626C46.4391 40.2373 46.4623 39.5789 46.3306 38.9428C46.1844 38.2295 45.8487 37.5687 45.3588 37.03C44.8689 36.4913 44.243 36.0945 43.5467 35.8813C42.8504 35.6682 42.1096 35.6466 41.4021 35.8187C40.9727 35.9232 40.5652 36.0968 40.1948 36.3309C39.779 36.5937 39.2354 36.6436 38.8406 36.3501L37.0538 35.0216C36.6439 34.7168 36.5395 34.1546 36.7239 33.6783C37.1022 32.7014 37.1972 31.6306 36.9878 30.5916C36.7777 29.5495 36.273 28.5966 35.5423 27.8414C35.1898 27.4772 35.0664 26.9244 35.3197 26.4853L37.0307 23.5194C37.2667 23.1103 37.759 22.9423 38.2312 22.953C38.3609 22.956 38.4909 22.9498 38.6204 22.9346C39.0192 22.8875 39.403 22.7546 39.7455 22.545C40.0881 22.3354 40.3811 22.0541 40.6046 21.7205C40.828 21.3869 40.9765 21.0088 41.0399 20.6123C41.1033 20.2158 41.0801 19.8102 40.9718 19.4236C40.8635 19.0369 40.6728 18.6782 40.4127 18.3723C40.1526 18.0664 39.8293 17.8204 39.4651 17.6514C39.1021 17.4828 38.707 17.3947 38.3068 17.3929C38.3042 17.3929 38.3015 17.3926 38.299 17.3921Z" fill="#3B82F6"/>
</g>
<defs>
<clipPath id="clip0_762_5936">
<rect width="64" height="64" fill="white"/>
</clipPath>
</defs>
</svg>
