<svg width="64" height="64" viewBox="0 0 64 64" fill="none" xmlns="http://www.w3.org/2000/svg">
<g clip-path="url(#clip0_762_5938)">
<path d="M32 26.0014C35.066 26.0014 37.5665 28.5019 37.5665 31.6274C37.5665 34.6042 35.066 37.1344 32 37.1344C28.934 37.1344 26.4335 34.6042 26.4335 31.6274C26.4335 28.5019 28.934 26.0014 32 26.0014ZM18.2177 55.4414C20.093 56.5726 24.2009 54.8461 28.934 50.3809C27.386 48.6247 25.8679 46.7195 24.4391 44.7251C22.0403 44.4956 19.6555 44.1378 17.2949 43.6535C15.7767 50.0237 16.3423 54.3995 18.2177 55.4414ZM20.3312 38.3549L19.4679 36.8368C19.1405 37.7 18.813 38.5633 18.6047 39.3968C19.4084 39.5754 20.3014 39.7242 21.2242 39.873L20.3312 38.3549ZM39.7991 36.0926L42.2102 31.6274L39.7991 27.1623C38.906 25.5847 37.9535 24.1856 37.0902 22.7865C35.4828 22.6972 33.786 22.6972 32 22.6972C30.214 22.6972 28.5172 22.6972 26.9098 22.7865C26.0465 24.1856 25.094 25.5847 24.2009 27.1623L21.7898 31.6274L24.2009 36.0926C25.094 37.6702 26.0465 39.0693 26.9098 40.4684C28.5172 40.5577 30.214 40.5577 32 40.5577C33.786 40.5577 35.4828 40.5577 37.0902 40.4684C37.9535 39.0693 38.906 37.6702 39.7991 36.0926ZM32 16.0888C31.4344 16.7437 30.8391 17.4284 30.2437 18.2321H33.7563C33.1609 17.4284 32.5656 16.7437 32 16.0888ZM32 47.1661C32.5656 46.5112 33.1609 45.8265 33.7563 45.0228H30.2437C30.8391 45.8265 31.4344 46.5112 32 47.1661ZM45.7526 7.81349C43.907 6.68233 39.7991 8.40884 35.066 12.874C36.614 14.6302 38.1321 16.5354 39.5609 18.5298C42.0019 18.7679 44.413 19.1251 46.7051 19.6014C48.2233 13.2312 47.6577 8.85535 45.7526 7.81349ZM43.6688 24.9L44.5321 26.4181C44.8595 25.5549 45.187 24.6916 45.3953 23.8581C44.5916 23.6795 43.6986 23.5307 42.7758 23.3819L43.6688 24.9ZM47.9851 3.91396C52.3609 6.41442 52.8372 12.993 50.9916 20.673C58.5526 22.9056 64 26.5968 64 31.6274C64 36.6581 58.5526 40.3493 50.9916 42.5819C52.8372 50.2619 52.3609 56.8405 47.9851 59.3409C43.6391 61.8414 37.7153 58.9837 32 53.5363C26.2847 58.9837 20.3609 61.8414 15.9851 59.3409C11.6391 56.8405 11.1628 50.2619 13.0084 42.5819C5.44744 40.3493 0 36.6581 0 31.6274C0 26.5968 5.44744 22.9056 13.0084 20.673C11.1628 12.993 11.6391 6.41442 15.9851 3.91396C20.3609 1.41349 26.2847 4.27117 32 9.71861C37.7153 4.27117 43.6391 1.41349 47.9851 3.91396ZM47.1219 31.6274C48.134 33.86 49.027 36.0926 49.7712 38.3549C56.0223 36.4795 59.5349 33.8005 59.5349 31.6274C59.5349 29.4544 56.0223 26.7754 49.7712 24.9C49.027 27.1623 48.134 29.3949 47.1219 31.6274ZM16.8781 31.6274C15.866 29.3949 14.973 27.1623 14.2288 24.9C7.97768 26.7754 4.46512 29.4544 4.46512 31.6274C4.46512 33.8005 7.97768 36.4795 14.2288 38.3549C14.973 36.0926 15.866 33.86 16.8781 31.6274ZM43.6688 38.3549L42.7758 39.873C43.6986 39.7242 44.5916 39.5754 45.3953 39.3968C45.187 38.5633 44.8595 37.7 44.5321 36.8368L43.6688 38.3549ZM35.066 50.3809C39.7991 54.8461 43.907 56.5726 45.7526 55.4414C47.6577 54.3995 48.2233 50.0237 46.7051 43.6535C44.413 44.1298 42.0019 44.487 39.5609 44.7251C38.1321 46.7195 36.614 48.6247 35.066 50.3809ZM20.3312 24.9L21.2242 23.3819C20.3014 23.5307 19.4084 23.6795 18.6047 23.8581C18.813 24.6916 19.1405 25.5549 19.4679 26.4181L20.3312 24.9ZM28.934 12.874C24.2009 8.40884 20.093 6.68233 18.2177 7.81349C16.3423 8.85535 15.7767 13.2312 17.2949 19.6014C19.6555 19.1171 22.0403 18.7593 24.4391 18.5298C25.8679 16.5354 27.386 14.6302 28.934 12.874Z" fill="#EAB308"/>
</g>
<defs>
<clipPath id="clip0_762_5938">
<rect width="64" height="64" fill="white"/>
</clipPath>
</defs>
</svg>
