<svg width="64" height="64" viewBox="0 0 64 64" fill="none" xmlns="http://www.w3.org/2000/svg">
<path d="M48.2733 56.3597C40.7236 60.7104 30.3907 61.1583 19.9299 56.6796C13.6206 53.9706 8.05676 49.8401 3.65456 44.6436C2.92089 43.7776 4.16821 42.5022 5.16916 43.0374C5.88329 43.4193 6.6144 43.7855 7.35776 44.1395C17.5551 48.8901 27.7238 48.8324 35.2107 44.8596C35.8292 44.5314 35.8745 43.6821 35.3259 43.2471C25.0388 35.0904 16.2649 24.7607 9.69305 16.276C9.63541 16.2183 9.57839 16.1601 9.52196 16.1014C8.74424 15.292 9.85364 14.2178 10.7484 14.8955C29.848 29.3624 30.4998 33.1814 19.0294 16.1483C18.3592 15.153 19.7628 13.9647 20.6484 14.7743C33.2535 26.2987 43.6723 32.7802 43.9796 32.9706C43.991 32.9776 43.9926 32.9782 44.0043 32.9848C44.066 33.0197 44.1244 33.0537 44.1801 33.0867C44.6955 33.3926 45.3367 33.1899 45.5326 32.6235C45.6951 32.1538 45.8429 31.6738 45.97 31.1834C48.0992 23.5021 46.3909 14.8671 42.0312 7.1915C41.4914 6.24117 42.574 5.15109 43.4414 5.81601C55.4552 15.0254 62.1527 29.6695 58.894 42.1561C58.818 42.435 58.7419 42.7139 58.7296 43.0885C58.7228 43.2935 58.8048 43.4922 58.9303 43.6546C65.8646 52.6302 63.9719 61.8775 63.0528 60.1026C59.182 52.4569 51.9202 54.8242 48.2733 56.3597Z" fill="#F97316"/>
</svg>
