<svg width="64" height="64" viewBox="0 0 64 64" fill="none" xmlns="http://www.w3.org/2000/svg">
<path d="M17.2702 24.279C16.9726 24.598 16.4171 24.3104 16.5552 23.8965C18.9792 16.6307 24.1294 13 32.0015 13C44.7997 13 46.4024 22.5987 52.8015 24.1985C56.5176 25.1281 59.8277 24.0327 62.7339 20.9179C63.0315 20.5989 63.587 20.8865 63.449 21.3003C61.0274 28.5643 55.8769 32.1974 48.0022 32.1974C35.2039 32.1974 33.6041 22.5987 27.205 20.9989C23.4862 20.0667 20.1778 21.162 17.2702 24.279ZM1.2673 43.4758C0.969577 43.7947 0.413904 43.5069 0.552045 43.0931C2.9762 35.83 8.12631 32.1974 15.9978 32.1974C28.799 32.1974 30.3959 41.7961 36.8008 43.3959C40.5132 44.3278 43.8244 43.2335 46.7305 40.1189C47.0283 39.7998 47.5842 40.0878 47.446 40.5017C45.0196 47.7653 39.8722 51.3948 32.0015 51.3948C19.2003 51.3948 17.6005 41.7961 11.1985 40.1963C7.48541 39.2668 4.17374 40.3618 1.2673 43.4758Z" fill="#10B981"/>
</svg>
