<svg width="64" height="64" viewBox="0 0 64 64" fill="none" xmlns="http://www.w3.org/2000/svg">
<path d="M43.619 23.2904C43.6188 24.4949 43.2615 25.6723 42.5923 26.6738C41.9231 27.6752 40.9719 28.4558 39.8591 28.9168C38.7463 29.3777 37.5218 29.4984 36.3404 29.2635C35.1591 29.0286 34.0739 28.4487 33.222 27.5972C32.5137 26.889 31.9909 26.017 31.7001 25.0586C31.4092 24.1001 31.3593 23.0847 31.5546 22.1023C31.75 21.1199 32.1846 20.2008 32.82 19.4265C33.4554 18.6522 34.2719 18.0465 35.1973 17.6632C36.1227 17.2799 37.1283 17.1307 38.1251 17.2289C39.1219 17.327 40.0791 17.6695 40.912 18.226C41.7448 18.7825 42.4275 19.5358 42.8996 20.4192C43.3718 21.3026 43.619 22.2888 43.619 23.2904Z" fill="#EAB308"/>
<path d="M27.2835 34.6412C23.9197 34.6412 21.193 37.3679 21.193 40.7314C21.193 44.0952 23.9197 46.8219 27.2835 46.8219C30.647 46.8219 33.374 44.0952 33.374 40.7314C33.374 37.3679 30.647 34.6412 27.2835 34.6412Z" fill="#06B6D4"/>
<path fill-rule="evenodd" clip-rule="evenodd" d="M50.1501 42.8078C48.0598 44.1592 45.7682 45.1645 43.3642 45.7883C42.8197 45.9295 42.3522 45.3997 42.4965 44.856C42.9771 43.0444 43.1427 41.1617 42.9843 39.2907C42.9556 38.9512 43.1545 38.6319 43.4718 38.5081C45.6768 37.6475 47.6707 36.3171 49.3136 34.6068C51.0914 32.7561 52.4081 30.5126 53.157 28.0581C54.2869 24.3549 54.0645 20.3708 52.5295 16.8163C50.9945 13.2619 48.2467 10.3684 44.7762 8.65198C41.3058 6.93554 37.3386 6.50766 33.582 7.44466C29.9298 8.35563 26.7076 10.4991 24.4566 13.5078C24.3337 13.6721 24.1497 13.7804 23.9461 13.8057C21.5164 14.1083 19.141 14.7382 16.884 15.6765C16.2966 15.9207 15.6757 15.3751 15.9074 14.7826C17.7466 10.0804 21.0739 6.08857 25.4037 3.43245C30.2129 0.482204 35.9307 -0.618894 41.4916 0.334344C47.0526 1.28717 52.0774 4.22931 55.6299 8.61252C59.1823 12.9957 61.0199 18.521 60.8004 24.1587C60.6551 27.8945 59.6112 31.5402 57.7572 34.7867C55.9032 38.033 53.2938 40.7845 50.1501 42.8078ZM17.5465 19.6068C16.9152 19.8991 17.0853 20.7818 17.7758 20.8656L20.6095 21.2095C21.0083 21.2579 21.3688 20.9726 21.4334 20.5761C21.5031 20.1477 21.59 19.7223 21.6936 19.301C21.8289 18.7509 21.3445 18.2273 20.8006 18.3861C19.6866 18.7114 18.5988 19.1195 17.5465 19.6068Z" fill="#EAB308"/>
<path fill-rule="evenodd" clip-rule="evenodd" d="M14.6328 21.2144C16.732 19.8517 19.0349 18.8384 21.4518 18.211C22.001 18.0684 22.4697 18.6081 22.3163 19.1544C21.8068 20.9683 21.6151 22.8587 21.7515 24.7415C21.7758 25.0763 21.5791 25.3895 21.267 25.5131C19.0664 26.3842 17.0791 27.724 15.4447 29.442C13.6785 31.2983 12.3738 33.5441 11.636 35.9979C10.898 38.4518 10.7477 41.0449 11.1974 43.5676C11.647 46.0903 12.684 48.4718 14.2243 50.5195C15.7647 52.5673 17.7653 54.2239 20.0644 55.3554C22.3635 56.487 24.8965 57.0616 27.4588 57.033C30.021 57.0045 32.5406 56.3735 34.8138 55.1912C36.9914 54.0586 38.8844 52.4505 40.3535 50.4877C40.4768 50.3229 40.6617 50.2145 40.866 50.1897C43.295 49.8939 45.6707 49.271 47.9289 48.3396C48.5164 48.0973 49.1354 48.6433 48.9034 49.2349C47.7486 52.1804 46.0023 54.8651 43.7663 57.1199C41.1358 59.7726 37.9048 61.7524 34.3469 62.8917C30.7891 64.0313 27.0092 64.2969 23.327 63.666C19.6448 63.0352 16.1688 61.5264 13.1933 59.2674C10.2179 57.0085 7.83046 54.0661 6.2331 50.689C4.63573 47.312 3.87545 43.5999 4.01661 39.8668C4.15777 36.1338 5.19622 32.4897 7.04405 29.2429C8.89189 25.9962 11.4953 23.2421 14.6328 21.2144Z" fill="#06B6D4"/>
</svg>
