<svg width="64" height="64" viewBox="0 0 64 64" fill="none" xmlns="http://www.w3.org/2000/svg">
<path d="M7.0045 1.74508C5.67118 0.970658 4 1.93261 4 3.47453V19.049C4 19.7615 4.3791 20.4203 4.9952 20.7783L18.3912 28.5621C19.7245 29.3368 21.396 28.3748 21.396 26.8328V11.2552C21.396 10.5426 21.0168 9.88373 20.4005 9.52579L7.0045 1.74508ZM40.7 22.5276C40.7 21.8147 40.3206 21.1558 39.704 20.7979L26.304 13.0197C24.9707 12.2458 23.3 13.2078 23.3 14.7494V30.3249C23.3 31.0375 23.6792 31.6963 24.2954 32.0542L37.6954 39.8386C39.0287 40.6131 40.7 39.6512 40.7 38.1092V22.5276ZM45.6088 39.8381C44.2755 40.6128 42.604 39.6508 42.604 38.1088V22.5275C42.604 21.8147 42.9834 21.1557 43.5998 20.7978L56.9958 13.0202C58.3291 12.2461 60 13.2081 60 14.7498V30.325C60 31.0375 59.6209 31.6963 59.0048 32.0543L45.6088 39.8381ZM40.696 60.5255C40.696 62.0674 39.0248 63.0293 37.6915 62.2549L24.2955 54.4742C23.6792 54.1163 23.3 53.4574 23.3 52.7448V37.1698C23.3 35.6281 24.9709 34.6661 26.3042 35.4402L39.7002 43.2178C40.3166 43.5757 40.696 44.2347 40.696 44.9475V60.5255Z" fill="#A855F7"/>
</svg>
