<svg width="64" height="64" viewBox="0 0 64 64" fill="none" xmlns="http://www.w3.org/2000/svg">
<path fill-rule="evenodd" clip-rule="evenodd" d="M23.3557 15.7478C23.3558 16.3002 22.9081 16.7479 22.3557 16.7479H14.51C13.9577 16.7479 13.51 17.1956 13.51 17.7479V40.0474C13.51 40.5997 13.0623 41.0474 12.51 41.0474H10.8457C10.2934 41.0474 9.8457 40.5997 9.8457 40.0474V17.7479C9.8457 17.1956 9.39798 16.7479 8.8457 16.7479H0.999999C0.447715 16.7479 0 16.3002 0 15.7479V14.4907C0 13.9384 0.447715 13.4907 1 13.4907H22.3556C22.9079 13.4907 23.3556 13.9384 23.3556 14.4906L23.3557 15.7478Z" fill="#0EA5E9"/>
<path fill-rule="evenodd" clip-rule="evenodd" d="M38.5285 49.3608C38.5285 49.9131 38.0808 50.3608 37.5285 50.3608H21.3738C20.8215 50.3608 20.3738 49.9131 20.3738 49.3608V23.8037C20.3738 23.2514 20.8215 22.8037 21.3738 22.8037H37.5285C38.0808 22.8037 38.5285 23.2514 38.5285 23.8037V25.0609C38.5285 25.6132 38.0808 26.0609 37.5285 26.0609H25.0374C24.4851 26.0609 24.0374 26.5086 24.0374 27.0609V32.6117C24.0374 33.1639 24.4851 33.6117 25.0374 33.6117H37.5285C38.0808 33.6117 38.5285 34.0594 38.5285 34.6117V35.8689C38.5285 36.4211 38.0808 36.8689 37.5285 36.8689H25.0374C24.4851 36.8689 24.0374 37.3166 24.0374 37.8689V46.1032C24.0374 46.6555 24.4851 47.1032 25.0374 47.1032H37.5285C38.0808 47.1032 38.5285 47.5509 38.5285 48.1032V49.3608Z" fill="#0EA5E9"/>
<path fill-rule="evenodd" clip-rule="evenodd" d="M62.0811 13.0006C62.8898 13.0004 63.3643 13.9102 62.9013 14.5732L54.8822 26.0555C54.6445 26.3959 54.6419 26.8479 54.8756 27.1911L62.9164 38.9941C63.3687 39.6579 62.8932 40.5571 62.09 40.5571H60.2803C59.9449 40.5571 59.6318 40.3889 59.4466 40.1093L53.053 30.456C52.6602 29.8629 51.7913 29.858 51.3918 30.4466L44.8281 40.1186C44.642 40.3929 44.3321 40.5571 44.0007 40.5571H42.45C41.6417 40.5571 41.1674 39.6479 41.6299 38.9849L49.744 27.3536C49.9814 27.0133 49.984 26.5618 49.7506 26.2188L41.8187 14.5639C41.3669 13.9001 41.8424 13.0013 42.6455 13.0013H44.438C44.7733 13.0013 45.0862 13.1694 45.2715 13.4488L51.5718 22.9543C51.9649 23.5473 52.834 23.5517 53.2332 22.9628L59.6866 13.4401C59.8726 13.1657 60.1825 13.0013 60.514 13.0011L62.0811 13.0006Z" fill="#0EA5E9"/>
</svg>
