<svg width="64" height="64" viewBox="0 0 64 64" fill="none" xmlns="http://www.w3.org/2000/svg">
<path d="M19.2 0H44.8C49.8922 0 54.7758 2.02285 58.3765 5.62355C61.9772 9.22425 64 14.1078 64 19.2V44.8C64 49.8922 61.9772 54.7758 58.3765 58.3765C54.7758 61.9772 49.8922 64 44.8 64H19.2C14.1078 64 9.22425 61.9772 5.62355 58.3765C2.02285 54.7758 0 49.8922 0 44.8V19.2C0 14.1078 2.02285 9.22425 5.62355 5.62355C9.22425 2.02285 14.1078 0 19.2 0ZM38.4 28.8C37.5513 28.8 36.7374 29.1371 36.1373 29.7373C35.5371 30.3374 35.2 31.1513 35.2 32C35.2 32.8487 35.5371 33.6626 36.1373 34.2627C36.7374 34.8629 37.5513 35.2 38.4 35.2H48C48.8487 35.2 49.6626 34.8629 50.2627 34.2627C50.8629 33.6626 51.2 32.8487 51.2 32C51.2 31.1513 50.8629 30.3374 50.2627 29.7373C49.6626 29.1371 48.8487 28.8 48 28.8H38.4ZM32 41.6C31.1513 41.6 30.3374 41.9371 29.7373 42.5373C29.1371 43.1374 28.8 43.9513 28.8 44.8C28.8 45.6487 29.1371 46.4626 29.7373 47.0627C30.3374 47.6629 31.1513 48 32 48H48C48.8487 48 49.6626 47.6629 50.2627 47.0627C50.8629 46.4626 51.2 45.6487 51.2 44.8C51.2 43.9513 50.8629 43.1374 50.2627 42.5373C49.6626 41.9371 48.8487 41.6 48 41.6H32ZM32 16C31.1513 16 30.3374 16.3371 29.7373 16.9373C29.1371 17.5374 28.8 18.3513 28.8 19.2C28.8 20.0487 29.1371 20.8626 29.7373 21.4627C30.3374 22.0629 31.1513 22.4 32 22.4H48C48.8487 22.4 49.6626 22.0629 50.2627 21.4627C50.8629 20.8626 51.2 20.0487 51.2 19.2C51.2 18.3513 50.8629 17.5374 50.2627 16.9373C49.6626 16.3371 48.8487 16 48 16H32ZM18.6496 32.7776L16.3872 30.5152C16.092 30.2096 15.7389 29.9658 15.3485 29.7981C14.9581 29.6304 14.5382 29.5421 14.1133 29.5384C13.6884 29.5347 13.267 29.6157 12.8737 29.7766C12.4805 29.9375 12.1232 30.1751 11.8227 30.4755C11.5223 30.776 11.2847 31.1333 11.1238 31.5266C10.9629 31.9198 10.8819 32.3412 10.8856 32.7661C10.8893 33.191 10.9776 33.6109 11.1453 34.0013C11.313 34.3917 11.5568 34.7448 11.8624 35.04L16.3872 39.5648C16.6844 39.8623 17.0373 40.0984 17.4258 40.2594C17.8143 40.4204 18.2307 40.5033 18.6512 40.5033C19.0717 40.5033 19.4881 40.4204 19.8766 40.2594C20.2651 40.0984 20.618 39.8623 20.9152 39.5648L29.9648 30.5152C30.5657 29.9152 30.9036 29.101 30.9042 28.2519C30.9048 27.4027 30.568 26.5881 29.968 25.9872C29.368 25.3863 28.5538 25.0484 27.7047 25.0478C26.8555 25.0472 26.0409 25.384 25.44 25.984L18.6496 32.7744V32.7776Z" fill="#22C55E"/>
</svg>
