<svg width="64" height="64" viewBox="0 0 64 64" fill="none" xmlns="http://www.w3.org/2000/svg">
<g clip-path="url(#clip0_762_2673)">
<path d="M15.2884 27.7033C15.2884 27.7033 5.33071 34.7117 4.94163 37.3818L5.68871 37.2282C5.68871 37.2282 17.6131 29.3254 27.0657 28.3612L27.2796 27.1615L15.2884 27.7033ZM30.92 26.7016L23.0764 32.2649L23.5005 32.6049C23.8202 32.3469 37.4331 28.1896 37.4331 28.1896L40.3029 26.3902C38.3774 26.63 30.92 26.7016 30.92 26.7016ZM37.7365 33.4307C43.306 33.4307 51.6547 27.9757 51.6547 27.9757L48.9561 27.462C48.8224 27.5957 44.604 27.3143 44.604 27.3143L42.6012 26.7579L37.8171 32.2097L37.4277 33.1558C37.7716 33.016 37.7365 33.4307 37.7365 33.4307ZM55.9124 50.8259L54.1918 51.31L46.242 51.1384L41.2689 47.2712L35.2576 48.7751L28.3056 48.1736L24.4123 52.4278L17.1077 54.6097L13.4601 53.479L13.2762 53.3208L14.9134 57.3296C14.9134 57.3296 18.6217 61.3053 20.6932 61.7727C22.7642 62.2402 26.5058 61.7391 29.3124 61.3046C32.1183 60.8703 34.3566 59.8682 35.2587 58.2317C36.1604 56.5941 36.294 56.1267 36.294 56.1267C36.294 56.1267 38.9673 59.9018 41.2721 60.3364C43.577 60.7706 50.4257 58.4315 50.4257 58.4315C50.4257 58.4315 54.6018 57.296 55.3362 55.8593C56.0714 54.423 58.0095 49.7125 58.0095 49.7125L55.9124 50.8259ZM14.2259 54.0917L14.1103 54.0386C13.8365 53.802 13.6125 53.6087 13.4662 53.483L14.2259 54.0917Z" fill="#CB3349"/>
<path d="M62.6643 22.4272C62.6464 22.2124 62.624 21.998 62.5971 21.7841C62.5784 21.6318 62.5555 21.48 62.5285 21.329C61.9548 20.846 61.3024 20.4164 60.6236 20.0259C59.8881 19.596 59.1186 19.2113 58.3329 18.854C57.5525 18.4855 56.7513 18.1528 55.9453 17.8277C55.5432 17.6644 55.1372 17.5061 54.73 17.3548C54.324 17.1965 53.914 17.0492 53.5029 16.8996C54.3659 17.0423 55.2199 17.2381 56.0678 17.4563C56.6191 17.599 57.1674 17.7587 57.7122 17.9292C53.8367 7.79953 44.5697 1.20262 34.4523 1.20262C24.3335 1.20262 15.0677 7.79917 11.1928 17.9288C11.7368 17.7579 12.2849 17.6003 12.8365 17.4563C13.6855 17.2381 14.5402 17.0423 15.4025 16.8992C14.99 17.0492 14.581 17.1965 14.1735 17.3548C13.7682 17.5061 13.3622 17.6644 12.9583 17.8277C12.1523 18.1528 11.3532 18.4859 10.5711 18.8536C9.78717 19.2113 9.01697 19.5964 8.28109 20.0259C7.60229 20.4161 6.95094 20.846 6.37474 21.3286C6.35089 21.4749 6.32669 21.6331 6.30754 21.7845C6.28189 21.9976 6.25805 22.2126 6.24035 22.4275C6.20442 22.8598 6.18562 23.2933 6.18399 23.727C6.17787 24.5946 6.23134 25.4616 6.34403 26.3219C6.46216 27.1835 6.62039 28.0393 6.85412 28.8662C6.96973 29.2806 7.09978 29.6895 7.25115 30.0847C7.36376 30.3761 7.48936 30.6623 7.62757 30.9424L7.68285 31.0475C7.74643 31.08 7.81326 31.1125 7.87684 31.1436L8.2623 31.3275C8.47689 31.425 8.7742 31.5659 9.01986 31.6764C9.03368 31.6649 9.04694 31.6527 9.0596 31.64L8.34431 28.9157C8.49604 28.8742 9.854 28.5238 12.1946 28.0783C11.4647 27.9395 10.7497 27.7311 10.0596 27.4559C9.80668 27.3493 9.55813 27.2326 9.32079 27.099C9.08344 26.9628 8.84971 26.8085 8.66908 26.6037C11.2405 27.4425 16.5539 27.0625 21.2769 26.5748C25.5965 26.1293 29.9261 25.8407 34.2786 25.832C38.631 25.8407 42.9621 26.1293 47.2802 26.5744C52.0054 27.0625 57.3184 27.4425 59.8895 26.6033C59.7089 26.8085 59.4759 26.9631 59.2385 27.099C58.9993 27.2319 58.7526 27.351 58.4998 27.4559C57.9896 27.6594 57.4657 27.8266 56.9319 27.9562C56.8531 27.975 56.7737 27.9923 56.6945 28.0093C59.2609 28.4855 60.7551 28.8727 60.9148 28.9154L60.2305 31.5106C60.3678 31.4485 60.5069 31.3885 60.6431 31.3267L61.0278 31.1425C61.0918 31.1118 61.1568 31.0793 61.2222 31.0468L61.2753 30.942C61.3223 30.8528 61.3667 30.7596 61.4093 30.6653C61.496 30.4763 61.5784 30.2816 61.6539 30.0844C61.8055 29.6847 61.9382 29.2781 62.0513 28.8659C62.285 28.0386 62.4429 27.1828 62.5614 26.3215C62.6719 25.4621 62.7297 24.594 62.7218 23.7263C62.7181 23.2924 62.7026 22.8592 62.6643 22.4272Z" fill="#F4EDAE"/>
<path d="M37.3717 58.4513C37.031 58.5026 36.6907 58.546 36.3518 58.5713C36.1336 58.5821 35.9028 58.6038 35.6933 58.6038L35.6156 58.6056C35.8222 58.1436 36.0269 57.6807 36.2297 57.2169C36.5379 57.5627 36.9302 57.9904 37.3717 58.4513ZM38.1108 59.2067C39.1678 60.2537 40.4781 60.8533 41.9199 60.9599C39.498 61.9436 37.2152 62.3233 35.457 62.4414C33.7038 62.5588 31.9268 62.3522 30.1852 61.875C30.3311 61.8486 30.4381 61.8298 30.567 61.8143C30.7101 61.7969 33.8328 61.3898 35.2406 59.2963L35.3728 59.2996L35.7185 59.2967C35.9523 59.2967 36.1647 59.2775 36.3883 59.2689C36.9125 59.2233 37.4336 59.1481 37.9493 59.0438C38.0028 59.0984 38.0559 59.1525 38.1108 59.2067Z" fill="#E6CCAD"/>
<path d="M41.106 27.8627C41.0048 27.9949 40.891 28.1408 40.7707 28.2925C40.1519 29.0747 39.2939 30.075 38.2766 31.0533C37.0605 31.0156 35.8439 30.9967 34.6272 30.9966C32.5601 30.9966 30.5775 31.0515 28.6953 31.1429C31.3549 30.0392 34.5499 28.9609 38.0104 28.3135C39.0208 28.122 40.0551 27.9692 41.106 27.8627ZM25.5412 29.0537C24.5922 29.7206 23.52 30.5717 22.4803 31.6042C20.1713 31.8345 17.8697 32.1345 15.5788 32.5037C18.5249 31.149 21.8871 29.9027 25.5412 29.0537ZM58.0724 34.5506L56.9893 42.128L51.8017 45.7615L38.2712 44.2233L36.2341 37.5158C36.2103 37.4359 36.1644 37.3643 36.1017 37.3093C36.039 37.2544 35.962 37.2183 35.8797 37.2051C35.3782 37.1238 34.9346 37.0826 34.565 37.0826C34.194 37.0826 33.7522 37.1238 33.2483 37.2051C33.1661 37.2187 33.0895 37.255 33.0269 37.3099C32.9643 37.3648 32.9184 37.4361 32.8942 37.5158L30.9073 44.0596L17.4523 47.0541L12.1205 43.3187L11.07 34.8158C11.2987 34.6864 11.531 34.5578 11.7661 34.4292C12.0963 34.3581 12.4673 34.2825 12.8784 34.2038L13.8683 42.2273C13.8838 42.3527 13.9528 42.4643 14.0561 42.5365L17.7236 45.1069C17.7747 45.1415 17.8323 45.1653 17.893 45.177C17.9536 45.1887 18.0159 45.1879 18.0762 45.1748L29.1386 42.7136C29.2154 42.6964 29.2862 42.6593 29.3439 42.6058C29.4016 42.5524 29.4441 42.4846 29.467 42.4094L31.459 35.8497C31.9933 35.7124 33.3621 35.3923 34.5647 35.3923C35.7644 35.3923 37.1343 35.712 37.669 35.8497L39.6609 42.409C39.7126 42.5795 39.8607 42.7009 40.0374 42.7219L51.0998 43.9783C51.2071 43.9902 51.3165 43.9624 51.4047 43.901L55.0747 41.3328C55.1737 41.2624 55.2409 41.1518 55.2578 41.0301L56.2379 34.1756C56.9742 34.3176 57.5894 34.4466 58.0724 34.5506ZM59.4387 29.7983L58.4864 33.4108C56.5392 32.9817 52.2605 32.1392 46.437 31.572C48.3398 30.7607 50.2772 29.743 52.0473 28.471C55.5125 28.9609 58.0569 29.4851 59.4387 29.7983Z" fill="#656C67"/>
<path d="M20.4276 41.1009C21.1819 40.6934 22.0345 40.7541 23.3683 40.7555C23.5117 40.7592 23.6591 40.7574 23.8133 40.7541C23.9445 40.7527 24.0763 40.7505 24.2158 40.7469C25.5907 40.7335 26.7337 40.8643 26.7139 38.7051C26.6929 36.5465 25.7341 34.8017 24.3606 34.8154C22.9857 34.8273 21.6552 36.596 21.7375 38.7531C21.7599 39.3152 21.8423 39.7209 21.9749 40.0132C20.7766 40.3134 20.4464 41.0547 20.4276 41.1009ZM36.958 32.2212C36.4261 32.6553 35.8648 33.0522 35.2782 33.409L33.3274 34.5867C32.5351 34.6868 31.7511 34.8438 30.9814 35.0564C30.9102 35.0773 30.8453 35.1156 30.7925 35.1677C30.7396 35.2198 30.7005 35.2842 30.6786 35.3551L28.6917 41.9022L18.0726 44.2637L14.7277 41.921L13.7549 34.0383C15.6543 33.6894 18.1947 33.2855 21.2459 32.9437C20.9133 33.3413 20.5979 33.7529 20.3005 34.1774L18.4837 36.785L21.1288 35.0217C21.1686 34.9942 22.8527 33.8859 25.6084 32.538C29.3846 32.2546 33.1719 32.1488 36.958 32.2212ZM48.5876 40.2176C48.5742 40.1667 48.2852 39.2982 47.006 39.4507C47.1538 39.1299 47.2192 38.6967 47.1729 38.1032C47.0038 35.9497 45.751 34.2378 44.3775 34.2854C43.004 34.3342 42.124 36.1195 42.1998 38.2784C42.2757 40.4358 43.4288 40.4207 44.8023 40.3722C46.6484 40.3379 47.6628 39.7708 48.5876 40.2176ZM55.3651 34.0149L54.4078 40.7165L51.0351 43.0781L40.43 41.8729L38.4514 35.3566C38.4294 35.2858 38.3904 35.2215 38.3376 35.1694C38.2849 35.1173 38.2201 35.079 38.1491 35.0578C38.0833 35.0387 36.7705 34.664 35.3782 34.5434L35.6326 34.5264C35.8526 34.5109 39.5103 34.0622 43.8783 32.5565C48.7148 32.9278 52.6647 33.5232 55.3651 34.0149Z" fill="#E5CAA3"/>
<path d="M20.4276 41.1009C21.1819 40.6934 22.0345 40.7541 23.3683 40.7555C23.5117 40.7592 23.6591 40.7574 23.8133 40.7541C23.9445 40.7527 24.0763 40.7505 24.2158 40.7469C25.5907 40.7335 26.7337 40.8643 26.7139 38.7051C26.6929 36.5465 25.7341 34.8017 24.3606 34.8154C22.9857 34.8273 21.6552 36.596 21.7375 38.7531C21.7599 39.3152 21.8423 39.7209 21.9749 40.0132C20.7766 40.3134 20.4464 41.0547 20.4276 41.1009ZM36.958 32.2212C36.4261 32.6553 35.8648 33.0522 35.2782 33.409L33.3274 34.5867C32.5351 34.6868 31.7511 34.8438 30.9814 35.0564C30.9102 35.0773 30.8453 35.1156 30.7925 35.1677C30.7396 35.2198 30.7005 35.2842 30.6786 35.3551L28.6917 41.9022L18.0726 44.2637L14.7277 41.921L13.7549 34.0383C15.6543 33.6894 18.1947 33.2855 21.2459 32.9437C20.9133 33.3413 20.5979 33.7529 20.3005 34.1774L18.4837 36.785L21.1288 35.0217C21.1686 34.9942 22.8527 33.8859 25.6084 32.538C29.3846 32.2546 33.1719 32.1488 36.958 32.2212ZM48.5876 40.2176C48.5742 40.1667 48.2852 39.2982 47.006 39.4507C47.1538 39.1299 47.2192 38.6967 47.1729 38.1032C47.0038 35.9497 45.751 34.2378 44.3775 34.2854C43.004 34.3342 42.124 36.1195 42.1998 38.2784C42.2757 40.4358 43.4288 40.4207 44.8023 40.3722C46.6484 40.3379 47.6628 39.7708 48.5876 40.2176ZM55.3651 34.0149L54.4078 40.7165L51.0351 43.0781L40.43 41.8729L38.4514 35.3566C38.4294 35.2858 38.3904 35.2215 38.3376 35.1694C38.2849 35.1173 38.2201 35.079 38.1491 35.0578C38.0833 35.0387 36.7705 34.664 35.3782 34.5434L35.6326 34.5264C35.8526 34.5109 39.5103 34.0622 43.8783 32.5565C48.7148 32.9278 52.6647 33.5232 55.3651 34.0149Z" fill="#C7B39A"/>
<path d="M59.9925 36.9602C60.155 37.0942 60.284 37.4414 60.1384 39.0587C59.9596 41.0388 59.1269 44.5144 58.6118 45.0747C58.0428 45.1849 56.8499 45.0541 56.1227 44.8843C56.2484 44.3855 56.2842 44.1463 56.3857 43.6362L57.6577 42.7464C57.7588 42.676 57.826 42.5654 57.8434 42.4451L58.7321 36.216C59.2718 36.5079 59.8267 36.824 59.9925 36.9602ZM13.0984 45.0913C13.162 45.3168 13.2289 45.5415 13.2982 45.7633C12.6136 45.9645 11.2196 46.1571 10.5892 46.0469C10.0668 45.5205 9.09211 41.8978 8.87897 39.9741C8.7052 38.4153 8.82695 38.0783 8.98554 37.9471C9.16978 37.7925 9.85834 37.4006 10.4551 37.0808L11.2615 43.6246C11.2766 43.7504 11.3435 43.8616 11.449 43.9339L13.0984 45.0913ZM38.8308 45.1809L38.7824 45.5986C38.7824 45.5986 37.3164 46.958 34.9567 47.2621C32.5966 47.5663 30.7419 46.1159 30.7419 46.1159C30.8192 46.368 30.9294 46.9374 31.4637 47.4236C30.7934 47.3417 30.1188 47.2997 29.4435 47.2979C29.1863 47.2979 28.9262 47.3051 28.6751 47.3174C27.2229 47.3933 25.1796 49.5894 23.7425 51.8017C23.0377 52.0249 20.8344 52.7243 18.2836 53.4779C15.9029 50.1789 14.7321 46.808 14.6132 46.4594L14.615 46.4576C14.567 46.3232 14.5186 46.1889 14.4741 46.0516L15.0861 46.48L16.5983 47.5403L17.1041 47.8925C17.1796 47.946 17.2688 47.9735 17.358 47.9735C17.3905 47.9735 17.4231 47.9698 17.4556 47.9637L31.3549 44.8692C31.5106 44.8352 31.6367 44.7178 31.6829 44.5654L33.6648 38.0403C33.9631 37.997 34.264 37.9734 34.5654 37.9699C34.8219 37.9699 35.1243 37.9941 35.4664 38.0403L37.506 44.7597C37.5577 44.9295 37.7055 45.0538 37.8807 45.0722L38.8308 45.1809Z" fill="#E6CCAD"/>
<path d="M55.1451 44.5076C55.0707 44.8179 54.991 45.1269 54.906 45.4345C54.2824 47.4337 53.5458 49.2024 52.7283 50.7645C52.5477 50.7768 52.3569 50.784 52.1525 50.784C51.5214 50.784 50.8769 50.7306 50.1634 50.6648C48.9257 50.5514 46.9612 50.3267 46.3409 50.2544C45.8063 49.8281 43.9776 48.3752 42.456 47.1776C42.396 47.1296 42.3447 47.0848 42.2945 47.0432C42.0264 46.8167 41.7219 46.5591 41.1049 46.5591C40.5449 46.5591 39.7263 46.7632 37.7488 47.3619C38.7762 46.5935 38.7831 45.6018 38.7831 45.6018L38.8315 45.1842L51.8707 46.6653C51.9769 46.6776 52.0871 46.6502 52.1763 46.5884L53.4866 45.6708L55.1451 44.5076Z" fill="#E6CCAD"/>
<path d="M45.0997 17.388C45.1394 18.5476 45.1101 20.6502 44.5701 22.6183C44.5498 22.6921 44.5498 22.7699 44.5701 22.8437C43.8833 22.7722 43.1956 22.7091 42.5073 22.6544C43.2789 21.0371 43.4473 19.315 43.4838 18.7084C44.0762 18.2868 44.6665 17.7814 45.0997 17.388ZM25.4249 18.708C25.4603 19.315 25.6286 21.0335 26.3992 22.6494C25.7117 22.7043 25.0243 22.7678 24.3382 22.8401C24.3579 22.7674 24.3579 22.6907 24.3382 22.6179C23.7985 20.6534 23.7711 18.5495 23.809 17.3877C24.2418 17.7814 24.8299 18.2868 25.4249 18.708Z" fill="#EBD599"/>
<path d="M48.5876 40.2176C47.6628 39.7708 46.6484 40.3379 44.8023 40.3722C43.4288 40.4207 42.2757 40.4358 42.1998 38.2784C42.124 36.1195 43.004 34.3342 44.3775 34.2854C45.751 34.2378 47.0038 35.9497 47.1729 38.1032C47.2192 38.6967 47.1538 39.1299 47.006 39.4507C48.2852 39.2982 48.5742 40.1667 48.5876 40.2176ZM44.2713 37.0566C44.4573 37.0526 44.6342 36.9751 44.7634 36.8411C44.8925 36.7071 44.9634 36.5274 44.9606 36.3414C44.9591 36.2491 44.9394 36.158 44.9026 36.0734C44.8658 35.9888 44.8127 35.9122 44.7462 35.8482C44.6797 35.7842 44.6012 35.734 44.5153 35.7005C44.4293 35.6669 44.3375 35.6507 44.2453 35.6528C44.0607 35.6586 43.8859 35.7369 43.7586 35.8707C43.6313 36.0046 43.5619 36.1831 43.5653 36.3677C43.5687 36.5524 43.6447 36.7282 43.7769 36.8572C43.909 36.9862 44.0866 37.0576 44.2713 37.0566Z" fill="#2D3136"/>
<path d="M44.2708 37.0512C44.6584 37.0441 44.9668 36.7242 44.9597 36.3366C44.9526 35.949 44.6327 35.6405 44.2451 35.6476C43.8575 35.6547 43.549 35.9747 43.5561 36.3623C43.5632 36.7499 43.8832 37.0583 44.2708 37.0512Z" fill="#EDF6FA"/>
<path d="M26.7139 38.7051C26.7337 40.8643 25.5907 40.7335 24.2158 40.7469C24.0763 40.7505 23.9445 40.7527 23.8133 40.7541C23.6591 40.7574 23.5117 40.7592 23.3683 40.7555C22.0345 40.7541 21.1819 40.6934 20.4276 41.1009C20.4464 41.0547 20.7766 40.3134 21.9749 40.0132C21.8423 39.7209 21.7599 39.3152 21.7375 38.7531C21.6552 36.596 22.9857 34.8273 24.3606 34.8154C25.7341 34.8017 26.6929 36.5465 26.7139 38.7051ZM24.5908 37.575C24.777 37.5698 24.9535 37.4908 25.0814 37.3555C25.2094 37.2201 25.2784 37.0395 25.2732 36.8532C25.2679 36.667 25.189 36.4905 25.0536 36.3626C24.9182 36.2346 24.7376 36.1656 24.5514 36.1708C24.4592 36.1734 24.3684 36.1941 24.2842 36.2318C24.2 36.2695 24.124 36.3234 24.0607 36.3904C23.9327 36.5258 23.8637 36.7064 23.869 36.8926C23.8742 37.0788 23.9532 37.2553 24.0885 37.3833C24.2239 37.5113 24.4045 37.5803 24.5908 37.575Z" fill="#2D3136"/>
<path d="M24.5908 37.575C24.9785 37.5651 25.2847 37.2443 25.2747 36.8565C25.2647 36.4688 24.9423 36.1626 24.5546 36.1725C24.1669 36.1825 23.859 36.5049 23.869 36.8926C23.8789 37.2804 24.203 37.585 24.5908 37.575Z" fill="#EDF6FA"/>
<path d="M16.2201 24.0496C16.2201 24.0496 16.4332 21.2679 16.8692 20.2022C17.0939 19.6531 18.4682 19.303 19.5176 19.0534C20.5667 18.8034 22.2404 18.3038 22.5655 19.7777C22.8903 21.2517 23.4145 22.3257 23.7642 22.8004L23.3148 16.7302L16.0951 18.4786L15.62 23.8502L15.8451 24.2747L16.2201 24.0496ZM52.754 24.0496C52.754 24.0496 52.5408 21.2679 52.1048 20.2022C51.8797 19.6531 50.5055 19.303 49.4568 19.0534C48.407 18.8034 46.7336 18.3038 46.4085 19.7777C46.0841 21.2517 45.5592 22.3257 45.2091 22.8004L45.6592 16.7302L52.879 18.4786L53.3537 23.8502L53.1286 24.2747L52.754 24.0496Z" fill="#EBD599" fill-opacity="0.8"/>
<path d="M42.5459 5.8809C42.5459 5.8809 42.3545 20.4377 38.9543 20.4377H30.1136C26.7131 20.4377 26.4386 5.8874 26.4386 5.8874L24.7681 10.8276L24.7956 17.6062L25.9816 18.5491L26.5209 21.4601L27.2752 23.158L41.8296 23.1851L42.5029 21.972L43.069 19.9237L43.1503 18.6304L44.7579 14.041L42.5459 5.8809ZM53.2561 19.454C53.2561 19.454 53.9562 24.4755 55.808 25.3812L53.2149 24.5991L53.2561 19.454ZM15.6493 19.454C15.6493 19.454 14.9492 24.4755 13.097 25.3812L15.6905 24.5991L15.6493 19.454Z" fill="#EBD599" fill-opacity="0.75"/>
<path d="M53.7557 24.5759C54.6372 24.8649 55.5237 25.1706 56.3272 25.6402C55.8973 25.4697 55.4536 25.3479 55.0068 25.2378C54.5618 25.1256 54.1135 25.027 53.6625 24.9423C52.7609 24.7709 51.8539 24.6292 50.943 24.5174C50.0338 24.3984 49.122 24.2998 48.2083 24.2219C47.2939 24.1446 46.3814 24.0673 45.4649 24.0138C41.8021 23.7884 38.1292 23.732 34.4538 23.7284C30.7791 23.7302 27.1058 23.7992 23.4427 24.0156C22.5269 24.0687 21.614 24.1464 20.6997 24.2237C19.7857 24.301 18.8724 24.3993 17.9649 24.5192C17.0538 24.6294 16.1478 24.7739 15.2458 24.9437C14.7953 25.0282 14.3462 25.1261 13.8997 25.2378C13.4546 25.3479 13.0092 25.4697 12.5793 25.6402C13.3824 25.1709 14.2689 24.8635 15.1526 24.5745C15.2266 24.5503 15.3021 24.5297 15.3776 24.5059C15.3726 24.4867 15.3671 24.4697 15.3639 24.4491C15.3484 24.3476 15.0218 21.9341 15.5908 18.4826C15.6182 18.3175 15.7367 18.1835 15.8985 18.1387L16.832 17.8728C17.0347 10.6325 20.0165 7.22766 20.1097 7.12254C17.4454 11.4096 17.4697 16.4943 17.5159 17.6785L23.3166 16.0293L23.3303 16.0264C23.3545 16.021 23.3784 16.0178 23.4026 16.016C23.4091 16.016 23.4181 16.0142 23.4264 16.0142C23.456 16.0127 23.4889 16.016 23.5214 16.0228C23.5265 16.0228 23.5315 16.0264 23.5384 16.0279C23.5626 16.0329 23.585 16.0412 23.6103 16.0517C23.6208 16.0571 23.6273 16.0626 23.6378 16.0676C23.6562 16.0785 23.6757 16.09 23.6945 16.1037C23.6995 16.107 23.7053 16.1084 23.71 16.1139L23.7201 16.1243C23.7255 16.1294 23.732 16.133 23.7375 16.1384C23.7411 16.1435 23.8957 16.2959 24.1413 16.525C24.0832 14.6139 24.1739 9.1304 26.7854 4.58579C26.7301 4.74511 24.6587 10.803 25.3725 17.5925C25.6029 17.7779 25.8408 17.9539 26.0856 18.1199C26.2005 18.1994 26.2713 18.3294 26.2728 18.4689C26.2749 18.4913 26.3244 20.6556 27.2803 22.4965C27.2937 22.524 27.3038 22.5529 27.3128 22.5822C29.6899 22.4207 32.0742 22.3553 34.4527 22.3538C36.8323 22.3553 39.2141 22.4239 41.5911 22.5876C41.5998 22.5565 41.6103 22.5262 41.6258 22.4965C42.5813 20.6556 42.6315 18.4913 42.6315 18.4685C42.6348 18.3294 42.7052 18.199 42.8205 18.1199C43.0643 17.9532 43.3017 17.7773 43.5322 17.5925C44.2471 10.803 42.1753 4.74511 42.1207 4.58579C44.7297 9.1304 44.8229 14.6136 44.7644 16.5253C44.9007 16.3982 45.0352 16.2693 45.1679 16.1384C45.173 16.133 45.1806 16.1298 45.1849 16.124C45.1885 16.1211 45.1907 16.1175 45.1958 16.1139C45.2008 16.1088 45.2062 16.1066 45.2113 16.1034C45.2304 16.09 45.2492 16.0781 45.268 16.0658C45.2769 16.0618 45.2855 16.0571 45.2937 16.0517C45.3197 16.0412 45.3435 16.0329 45.3695 16.0264C45.3746 16.0264 45.38 16.0228 45.3851 16.0228C45.4158 16.016 45.449 16.0127 45.4797 16.0142C45.4884 16.0142 45.4952 16.016 45.5021 16.016C45.5259 16.0178 45.552 16.021 45.5762 16.0264C45.5798 16.0282 45.5848 16.0282 45.5895 16.0297L51.3906 17.6781C51.4375 16.4943 51.4614 11.4092 48.7975 7.12254C48.89 7.2273 51.8725 10.6329 52.0734 17.8728L53.0083 18.1387C53.168 18.1835 53.2883 18.3175 53.3161 18.4826C53.8847 21.9341 53.5567 24.3476 53.5426 24.4491C53.5393 24.4697 53.5343 24.4889 53.5292 24.5073C53.6058 24.5297 53.6799 24.5517 53.7557 24.5759ZM52.7009 24.2663C52.7453 23.8798 52.953 21.7675 52.5116 18.8901L45.945 17.0235C46.0039 18.1355 46.0299 20.5472 45.3988 22.847C45.3903 22.8754 45.3795 22.9031 45.3663 22.9297C45.4313 22.9366 45.497 22.9416 45.5603 22.9503C47.4063 23.1616 49.244 23.4571 51.0608 23.856C51.6088 23.9831 52.1575 24.1193 52.7009 24.2663ZM44.5701 22.6183C45.1101 20.6502 45.1394 18.5476 45.0997 17.388C44.6665 17.7814 44.0762 18.2868 43.4838 18.7084C43.4473 19.315 43.2789 21.0371 42.5073 22.6544C43.1956 22.7091 43.8833 22.7722 44.5701 22.8437C44.5498 22.7699 44.5498 22.6921 44.5701 22.6183ZM26.3992 22.6494C25.6286 21.0335 25.4603 19.315 25.4249 18.708C24.8299 18.2868 24.2418 17.7814 23.809 17.3877C23.7711 18.5495 23.7985 20.6534 24.3382 22.6179C24.3588 22.6938 24.3567 22.7697 24.3382 22.8401C25.0243 22.7678 25.7117 22.7043 26.3992 22.6494ZM23.5413 22.9257C23.5287 22.9004 23.5182 22.874 23.5099 22.847C22.8777 20.5468 22.9055 18.1355 22.9622 17.0231L16.3978 18.8898C15.956 21.7639 16.1623 23.8762 16.2063 24.2649C16.7518 24.1168 17.2981 23.9809 17.8486 23.8538C18.7557 23.6529 19.6704 23.4846 20.5866 23.33C21.5045 23.1768 22.4254 23.0601 23.3466 22.9481C23.4123 22.9394 23.4755 22.9347 23.5413 22.9257Z" fill="#2D3136"/>
<path d="M41.3715 6.07128V11.5194H37.5097V9.9277H36.639V17.2818H37.954V21.3936H31.1996V17.2818H32.5091V9.92806H31.6418V11.5198H27.7821V6.07128H41.3715ZM40.2111 10.3619V7.22947H28.9399V10.3619H30.481V8.77023H33.6695V18.4422H32.3574V20.2362H36.7944V18.4422H35.4823V8.77023H38.6707V10.3619H40.2111Z" fill="#2D3136"/>
<path d="M33.6695 8.77023H30.481V10.3619H28.9399V7.22947H40.2111V10.3619H38.6707V8.77023H35.4823V18.4422H36.7944V20.2362H32.3574V18.4422H33.6695V8.77023Z" fill="#CB3349"/>
<path d="M9.82077 29.7983C10.3836 29.6704 11.144 29.5078 12.0772 29.3279C11.3955 29.7935 10.7313 30.2842 10.0859 30.7989L9.82077 29.7983Z" fill="#656C67"/>
<path d="M30.4341 44.7297C30.4341 44.7297 30.5916 45.7427 29.174 46.1758C27.7572 46.6094 18.7796 49.2848 17.7558 49.14C16.732 48.9955 14.1338 47.2603 14.1338 47.2603L13.5034 45.0191L17.3486 47.4164L30.4341 44.7297ZM38.4757 44.5343C38.4757 44.5343 38.3622 45.553 39.7975 45.9251C41.2324 46.2965 50.3173 48.5793 51.3335 48.3904C52.3497 48.201 54.8702 46.3547 54.8702 46.3547L55.4027 44.0878L51.8682 46.1961L38.4757 44.5343Z" fill="#C7B39A"/>
<path d="M9.0903 42.8675C9.0903 42.8675 10.3341 45.3554 12.3434 44.4938L13.7787 45.0202L13.6353 46.0732L10.6213 46.4555L9.80848 45.9775L9.0903 42.8675ZM60.0149 42.1825C60.0149 42.1825 57.9817 44.7792 55.9724 43.9183L55.3265 44.3349L55.4699 45.3872L58.4839 45.7702L59.2967 45.2918L60.0149 42.1825ZM28.5678 61.7283C28.5678 61.7283 35.9375 65.4438 44.2818 60.3881L41.6023 60.2053C41.6023 60.2053 35.755 62.5195 31.1259 61.2406L28.5678 61.7283Z" fill="#C7B39A"/>
<path d="M36.0404 54.8836L36.5505 55.4912C36.5621 55.5057 37.695 56.8542 39.0804 58.2277C40.0016 59.1406 41.1143 59.6027 42.3902 59.6027C42.8469 59.6003 43.3018 59.5442 43.7453 59.4354C44.1741 59.331 44.6401 59.2201 45.117 59.1059C46.8402 58.6941 48.7913 58.2263 49.7375 57.9611C49.9415 57.9056 50.1469 57.8553 50.3534 57.8101C51.6124 57.5193 53.3385 57.118 54.2532 55.2857C54.941 53.9107 55.868 52.1261 56.5562 50.818C55.9601 51.0929 55.3352 51.3909 54.8912 51.6247C54.2069 51.9838 53.311 52.1579 52.1528 52.1579C51.4639 52.1579 50.7873 52.1001 50.0391 52.0336C48.5432 51.896 46.0115 51.5979 45.9858 51.5943L45.7918 51.5727L45.6387 51.4506C45.6159 51.4339 43.3978 49.6663 41.6049 48.2563C41.5322 48.1971 41.4658 48.1418 41.4062 48.0923C41.2172 47.9312 41.2172 47.9312 41.1045 47.9312C40.5298 47.9312 38.8582 48.4496 35.1969 49.5847L34.9718 49.6562L34.7515 49.5731C34.7262 49.5648 32.3238 48.6736 29.4453 48.6736C29.2098 48.6736 28.975 48.6797 28.7463 48.6916C28.458 48.7064 26.8396 49.4752 24.7703 52.7493L24.6363 52.9595L24.3989 53.0354C24.3646 53.0477 20.803 54.1972 17.0257 55.2773L16.7804 55.3471L16.5485 55.2394C16.5239 55.2293 15.0456 54.5436 13.6393 53.897C14.4062 55.0303 15.387 56.4438 16.2501 57.5522C17.7576 59.4936 19.6578 61.2876 23.3011 61.2876C23.7581 61.2876 24.2436 61.2598 24.7421 61.203C28.4479 60.784 29.4023 60.6153 29.9157 60.5257C30.0894 60.4961 30.2271 60.4708 30.403 60.4498C30.4308 60.4462 33.4657 60.0535 34.3172 58.1436C35.1951 56.1809 35.3725 55.713 35.3793 55.6953L35.6889 54.8688C35.6889 54.8688 35.7272 54.6545 35.7901 54.5881C35.7901 54.5895 35.7901 54.5895 35.7919 54.5895L35.798 54.5946C35.8956 54.6647 36.0404 54.8836 36.0404 54.8836ZM12.9583 17.8277C12.1523 18.1528 11.3532 18.4859 10.5711 18.8536C9.78717 19.2113 9.01697 19.5964 8.28109 20.0259C7.60193 20.4171 6.95239 20.8452 6.37763 21.3297C6.35227 21.481 6.32975 21.6327 6.31007 21.7849C6.23033 22.4292 6.18702 23.0777 6.18399 23.727C6.17861 24.5948 6.23412 25.4621 6.34656 26.3226C6.46577 27.1842 6.62292 28.0408 6.85665 28.8673C6.96968 29.2792 7.10229 29.6855 7.25404 30.0847C7.32882 30.2838 7.41154 30.4774 7.49825 30.6664C7.54087 30.7603 7.58567 30.8535 7.6301 30.9427L7.68538 31.0475C7.74968 31.0804 7.81398 31.1136 7.87684 31.1436L8.26483 31.3267C8.48014 31.4264 8.77456 31.5673 9.01986 31.6764C9.03368 31.6649 9.04694 31.6527 9.0596 31.64L8.34756 28.9164C8.49857 28.8753 9.85725 28.5241 12.1978 28.0783C12.0075 28.0431 11.8181 28.0027 11.6299 27.9573C11.0964 27.8274 10.5726 27.6602 10.0624 27.457C9.8097 27.3516 9.56306 27.2322 9.32368 27.0993C9.08669 26.9631 8.85296 26.8092 8.67233 26.604C11.2438 27.4436 16.5564 27.0628 21.2802 26.5759C25.6001 26.1301 29.9287 25.8421 34.2811 25.8317C38.6328 25.8418 42.965 26.1297 47.2827 26.5759C52.0091 27.0628 57.3221 27.444 59.8924 26.604C59.7118 26.8092 59.4788 26.9631 59.2418 27.099C59.0052 27.2333 58.7548 27.3493 58.5026 27.457C57.9919 27.66 57.4659 27.8261 56.9319 27.9562C56.8539 27.9743 56.7762 27.9934 56.6967 28.0104C59.2631 28.4858 60.7558 28.8724 60.9148 28.9154L60.2305 31.5106C60.3678 31.4485 60.5069 31.3885 60.6431 31.3267L61.0307 31.1436C61.0957 31.1125 61.1603 31.0804 61.2244 31.0475L61.2775 30.9431C61.3244 30.8521 61.3691 30.7599 61.4115 30.6667C61.4982 30.4774 61.5806 30.2838 61.6571 30.0851C61.8078 29.6913 61.9382 29.2817 62.0527 28.8677C62.2864 28.0411 62.444 27.1828 62.5614 26.3215C62.6719 25.4621 62.7297 24.594 62.7218 23.7263C62.7196 23.2928 62.7026 22.8603 62.6672 22.4283C62.6488 22.2135 62.6261 21.9991 62.5993 21.7852C62.5802 21.633 62.5573 21.4812 62.5307 21.33C61.9559 20.846 61.3027 20.4172 60.6236 20.0259C59.8881 19.596 59.1186 19.2113 58.3329 18.854C57.5525 18.4855 56.7513 18.1528 55.9453 17.8277C55.5432 17.6644 55.1372 17.5061 54.73 17.3548C54.324 17.1965 53.914 17.0492 53.5029 16.8996C54.3659 17.0423 55.2199 17.2381 56.0678 17.4563C56.6191 17.599 57.1674 17.7587 57.7122 17.9292C53.8367 7.79953 44.5697 1.20262 34.4523 1.20262C24.3332 1.20262 15.0698 7.79989 11.195 17.9303C11.7388 17.7587 12.2849 17.6007 12.8365 17.4563C13.6848 17.2395 14.5413 17.0423 15.4047 16.9C14.9918 17.0492 14.581 17.1976 14.1735 17.3548C13.7682 17.5061 13.3622 17.6644 12.9583 17.8277ZM63.9775 23.6883C64.0241 24.6207 63.9992 25.5549 63.8948 26.483C63.7949 27.4131 63.6217 28.3338 63.3767 29.2365C63.249 29.6914 63.0991 30.1398 62.9273 30.58C62.839 30.8036 62.744 31.0246 62.6427 31.2426C62.591 31.3517 62.5368 31.4593 62.4754 31.5706L62.3843 31.7346C62.3496 31.7971 62.3124 31.8584 62.2731 31.9181L62.1792 32.0644L62.0314 32.1403C61.8739 32.2216 61.7449 32.2826 61.6019 32.3491L61.1864 32.5366C60.9083 32.6558 60.6283 32.7678 60.3483 32.8773C60.1529 32.9538 59.9802 33.0236 59.8165 33.0929L59.3541 34.8486C59.2175 34.8142 59.0807 34.7806 58.9437 34.7478L58.9185 34.9317C59.4289 35.1983 60.431 35.7388 60.7724 36.0206C61.4599 36.5884 61.5083 37.4883 61.3559 39.1696C61.2778 40.033 60.9913 41.7125 60.594 43.2554C59.9076 45.9107 59.5434 46.2225 59.0731 46.3427C58.8346 46.4042 58.4669 46.4656 58.1103 46.4656C57.3853 46.4656 56.3976 46.4854 55.7333 46.3247C55.5627 46.9291 55.0758 48.5049 54.1112 50.473C54.1596 50.4495 54.2073 50.4296 54.2507 50.4065C55.4399 49.7819 57.7259 48.7863 57.8224 48.7429L59.6283 47.9583L58.7035 49.6974C58.6818 49.7353 56.6989 53.4649 55.4847 55.9002C54.2781 58.3123 52.0174 58.8372 50.6637 59.1486C50.46 59.1966 50.2664 59.2414 50.1092 59.2844C49.1378 59.5575 47.1715 60.0264 45.4374 60.444C45.4168 60.4487 45.3959 60.4542 45.3746 60.457C44.2639 61.1446 43.09 61.7244 41.8689 62.1885C37.2069 63.9544 32.2935 63.8554 27.8388 62.2182C27.1152 62.3114 26.1637 62.4252 24.8967 62.5693C24.3672 62.6297 23.8347 62.6607 23.3018 62.6622C19.057 62.6622 16.8075 60.5069 15.1656 58.3964C13.408 56.1364 11.2578 52.7818 11.1664 52.6413L9.92011 50.6966L12.027 51.6442C13.0356 52.0983 16.0347 53.4866 16.8927 53.884C16.9621 53.8645 17.03 53.8442 17.0983 53.8244C15.672 51.7905 14.5023 49.4712 13.6757 46.9016C12.9735 47.1133 11.8911 47.2773 11.0498 47.2773C10.7423 47.2773 10.4667 47.2546 10.255 47.2047C9.78428 47.097 9.24745 46.6433 8.51699 44.0704C8.09287 42.5766 7.77641 40.9456 7.68393 40.1064C7.5015 38.4677 7.53473 37.5899 8.2157 37.023C8.62645 36.6798 10.0111 35.9526 10.298 35.8042L10.2366 35.2984C5.83646 37.8839 3.19929 40.1689 3.14655 40.2155L0 42.9769L2.2416 39.4417C4.01537 36.6401 6.06478 34.3754 7.95018 32.6309C7.87215 32.5994 7.79953 32.568 7.72295 32.537L7.3075 32.3495C7.16309 32.2829 7.02013 32.2133 6.87869 32.1407L6.73094 32.0648L6.63665 31.9185C6.58354 31.839 6.56078 31.7942 6.52574 31.735L6.4329 31.571C6.3751 31.46 6.31838 31.352 6.26672 31.2429C6.16232 31.0226 6.06803 30.8022 5.98241 30.5804C5.81053 30.1402 5.66055 29.6919 5.53301 29.2369C5.28697 28.3344 5.11361 27.4136 5.01461 26.4834C4.91239 25.5555 4.8846 24.621 4.93152 23.6887C4.9568 23.223 5.0016 22.7577 5.0659 22.2953C5.09914 22.0634 5.13382 21.8315 5.18042 21.601C5.22847 21.3662 5.27507 21.1472 5.34624 20.8904L5.39573 20.7098L5.52506 20.6086C6.25914 20.0317 7.05065 19.5964 7.85589 19.2106C8.51662 18.9024 9.19039 18.623 9.87531 18.3732C11.7773 13.0952 15.0474 8.41584 19.3449 5.15369C23.7884 1.78244 29.0129 0 34.4552 0C39.8972 0 45.1221 1.78244 49.5648 5.15405C53.8627 8.41584 57.1328 13.0959 59.0333 18.3724C59.7188 18.6222 60.3931 18.9019 61.0542 19.2106C61.8591 19.5967 62.651 20.032 63.3847 20.6086L63.514 20.7101L63.5639 20.8908C63.6365 21.1476 63.6831 21.3665 63.7293 21.6013C63.7763 21.8318 63.8124 22.0638 63.8438 22.2957C63.9089 22.7574 63.9551 23.2227 63.9775 23.6883ZM60.1384 39.0587C60.2844 37.4421 60.1568 37.0928 59.9925 36.9602C59.8285 36.8225 59.2721 36.5093 58.7321 36.216L57.8434 42.4451C57.8347 42.5055 57.8153 42.5623 57.7833 42.6142C57.7514 42.6661 57.7076 42.7116 57.6577 42.7464L56.3857 43.6362C56.2845 44.1456 56.2495 44.3862 56.1252 44.8847C56.8524 45.0538 58.0435 45.1842 58.6118 45.0747C59.1276 44.5155 59.9614 41.0402 60.1384 39.0587ZM58.4864 33.4108L59.4387 29.7983C58.0569 29.4851 55.5125 28.9609 52.0473 28.471C50.2772 29.743 48.3398 30.7607 46.437 31.572C52.2605 32.1392 56.5392 32.9817 58.4864 33.4108ZM56.9893 42.128L58.0724 34.5506C57.5894 34.4466 56.9742 34.3176 56.2379 34.1756L55.26 41.0315C55.2419 41.1526 55.174 41.2631 55.0747 41.3328L51.4047 43.901C51.3165 43.9624 51.2071 43.9902 51.0998 43.9783L40.0374 42.7219C39.9511 42.7123 39.8713 42.677 39.8044 42.6217C39.7375 42.5664 39.6865 42.492 39.6609 42.409L37.669 35.8497C37.1354 35.7117 35.7662 35.392 34.5672 35.392C33.3628 35.392 31.9925 35.7117 31.459 35.8497L29.467 42.4094C29.4441 42.4846 29.4016 42.5524 29.3439 42.6058C29.2862 42.6593 29.2154 42.6964 29.1386 42.7136L18.0762 45.1748C18.0441 45.1816 18.0118 45.1847 17.979 45.1849C17.8894 45.1849 17.7998 45.1582 17.7254 45.1047L14.0561 42.5365C14.0051 42.5008 13.9617 42.4538 13.9295 42.4004C13.8973 42.3471 13.8762 42.2891 13.8683 42.2273L12.8784 34.2038C12.4677 34.2836 12.0978 34.3599 11.7661 34.4292C11.531 34.5578 11.2987 34.6864 11.07 34.8158L12.1205 43.3187L17.4523 47.0541L30.9073 44.0596L32.8942 37.5158C32.9184 37.4361 32.9643 37.3648 33.0269 37.3099C33.0895 37.255 33.1661 37.2187 33.2483 37.2051C33.7522 37.1238 34.194 37.0826 34.565 37.0826C34.9346 37.0826 35.3782 37.1238 35.8797 37.2051C36.0484 37.2315 36.1856 37.3514 36.2341 37.5158L38.2712 44.2233L51.8017 45.7615L56.9893 42.128ZM54.4078 40.7165L55.3648 34.012C52.6644 33.5207 48.7155 32.9278 43.8783 32.5565C39.5103 34.0622 35.8526 34.5109 35.6326 34.5264L35.3782 34.5434C36.7705 34.664 38.0833 35.0387 38.1491 35.0578C38.2936 35.1012 38.4067 35.2117 38.4514 35.3566L40.43 41.8729L51.0351 43.0781L54.4078 40.7165ZM55.1451 44.5076L54.695 44.82L53.4866 45.6708L52.1763 46.5884C52.0871 46.6502 51.9769 46.6776 51.8707 46.6653L38.8308 45.1809L37.8807 45.0722C37.7945 45.0623 37.7146 45.0289 37.6481 44.9734C37.5815 44.9179 37.5312 44.8427 37.506 44.7597L35.4664 38.0403C35.1685 37.9972 34.8685 37.9752 34.5676 37.9717C34.3089 37.9717 34.0062 37.9937 33.6648 38.0403L31.6847 44.5672C31.6618 44.6422 31.6193 44.7097 31.5617 44.7629C31.5041 44.8161 31.4315 44.8523 31.3549 44.8692L17.4574 47.9651C17.4252 47.9714 17.3908 47.9734 17.358 47.9735C17.2688 47.9735 17.1796 47.946 17.1041 47.8925L16.5997 47.5421L15.0872 46.484L15.0861 46.48L14.4759 46.0534C14.5193 46.1907 14.5684 46.325 14.6172 46.4591L14.6154 46.4609C14.7331 46.8102 15.9032 50.18 18.2836 53.4779C20.1088 52.9383 21.9287 52.3785 23.7425 51.8017C25.1785 49.5883 27.2236 47.3947 28.6769 47.3189C28.9329 47.3063 29.1891 47.2998 29.4453 47.2994C30.1563 47.2994 30.8344 47.3488 31.4637 47.4236C30.9294 46.9374 30.8192 46.368 30.7419 46.1159C30.7419 46.1159 32.5966 47.5674 34.957 47.2647C37.3182 46.9598 38.7824 45.5986 38.7824 45.5986C38.7824 45.5986 38.7773 46.5935 37.7488 47.3619C39.7263 46.7632 40.5449 46.5591 41.1049 46.5591C41.7219 46.5591 42.0264 46.8167 42.2945 47.0432C42.3447 47.0848 42.396 47.1296 42.456 47.1776C43.9776 48.3752 45.8063 49.8281 46.3409 50.2544C46.9612 50.3267 48.9257 50.5514 50.1634 50.6648C50.8769 50.7306 51.5214 50.784 52.1525 50.784C52.3569 50.784 52.5477 50.7768 52.7283 50.7645C53.5458 49.2024 54.2824 47.4337 54.906 45.4345C54.991 45.1269 55.0707 44.8179 55.1451 44.5076ZM50.3335 27.996C50.3299 27.9942 50.327 27.9923 50.3234 27.9923C49.276 27.9135 48.2278 27.844 47.1791 27.7839C45.7218 27.7016 44.264 27.6303 42.8057 27.57C42.6423 27.8104 42.4744 28.0476 42.3021 28.2817C41.5088 29.3557 39.9348 31.3253 37.9164 32.9954C40.7732 32.4835 45.7275 31.2162 50.0138 28.2257C50.1211 28.1498 50.2277 28.0704 50.3335 27.996ZM40.7733 28.2922C40.8939 28.1415 41.0052 27.9952 41.106 27.8627C40.0685 27.9678 39.0372 28.1188 38.0129 28.3139C34.552 28.9616 31.3564 30.0385 28.6975 31.1418C30.6737 31.0454 32.6519 30.9969 34.6304 30.9962C35.8811 30.9962 37.0971 31.0179 38.2795 31.0525C39.2968 30.0746 40.1551 29.0739 40.7733 28.2922ZM41.9199 60.9599C40.4781 60.8533 39.1678 60.2537 38.1108 59.2067C38.0574 59.1521 38.005 59.0961 37.9515 59.0416C37.4354 59.1456 36.9139 59.2208 36.3894 59.2667C36.1661 59.275 35.9537 59.2945 35.7203 59.2945L35.3728 59.2996L35.2406 59.2963C33.8328 61.3898 30.7101 61.7969 30.567 61.8143C30.4381 61.8287 30.3333 61.8457 30.187 61.8725C31.9282 62.3497 33.7056 62.5567 35.4584 62.4389C37.216 62.3215 39.4991 61.9404 41.921 60.9578L41.9199 60.9599ZM36.3518 58.5713C36.6927 58.543 37.0336 58.5035 37.3717 58.4513C36.9834 58.0471 36.6024 57.6356 36.2297 57.2169C36.0791 57.5634 35.8793 58.0189 35.6156 58.6056L35.6933 58.6038C35.9028 58.6038 36.1336 58.5821 36.3518 58.5713ZM35.2782 33.409C35.8648 33.0522 36.4261 32.6553 36.958 32.2212C36.194 32.2082 35.4205 32.1974 34.6304 32.1974C31.3864 32.1974 28.355 32.331 25.6084 32.538C22.8531 33.8848 21.17 34.9917 21.1303 35.0199L18.4837 36.785L20.3005 34.1774C20.5966 33.7517 20.9138 33.3392 21.248 32.9426C18.1965 33.2837 15.6536 33.689 13.7549 34.0383L14.7277 41.921L18.0726 44.2637L28.6917 41.9022L30.6805 35.353C30.7135 35.2463 30.7851 35.1559 30.8813 35.0993C30.9124 35.0793 30.9457 35.066 30.9814 35.0564C31.0428 35.0397 32.1052 34.7348 33.3295 34.5856L35.2782 33.409ZM36.501 27.3959C35.7615 27.3843 35.0213 27.3778 34.2822 27.376C33.1973 27.3778 32.1089 27.3894 31.0204 27.4111L29.0143 28.3615C29.0125 28.3634 29.001 28.3688 28.9862 28.3771C28.6845 28.5241 26.0502 29.8532 23.572 32.2237C25.7937 31.0558 29.0588 29.5302 32.9007 28.3471C34.0875 27.9817 35.2886 27.6644 36.501 27.3959ZM22.4803 31.6042C23.52 30.5717 24.5922 29.7206 25.5412 29.0537C21.8885 29.9019 18.5256 31.1465 15.5803 32.5016C17.8706 32.1325 20.1719 31.8347 22.4803 31.6042ZM23.1707 28.4183C24.4181 28.069 25.6792 27.7706 26.9508 27.5238C25.0954 27.5913 23.2389 27.6777 21.3853 27.7821C20.3081 27.8417 19.2362 27.9147 18.1644 27.9956C17.6296 28.0344 17.0954 28.0818 16.5622 28.1379C16.4097 28.1527 16.2605 28.1694 16.1084 28.1892C14.7104 29.0255 9.34752 32.3921 5.66631 36.7936C9.24384 34.3078 15.4755 30.5721 23.1707 28.4183ZM13.2982 45.7633C13.2284 45.5401 13.1626 45.3141 13.0999 45.0888L11.449 43.9339C11.3976 43.8983 11.3537 43.8512 11.3213 43.7978C11.289 43.7444 11.2693 43.6866 11.2615 43.6246L10.4551 37.0808C9.85834 37.4006 9.16978 37.7925 8.98554 37.9471C8.82695 38.0783 8.7052 38.4153 8.87897 39.9741C9.09283 41.8971 10.0664 45.5184 10.5899 46.0447C11.2196 46.156 12.6144 45.9641 13.2982 45.7633ZM12.0772 29.3279C11.144 29.5078 10.3836 29.6704 9.82077 29.7983L10.0859 30.7989C10.7313 30.2842 11.3955 29.7935 12.0772 29.3279Z" fill="#2D3136"/>
</g>
<defs>
<clipPath id="clip0_762_2673">
<rect width="64" height="64" fill="white"/>
</clipPath>
</defs>
</svg>
