<svg width="64" height="64" viewBox="0 0 64 64" fill="none" xmlns="http://www.w3.org/2000/svg">
<g clip-path="url(#clip0_762_2496)">
<path fill-rule="evenodd" clip-rule="evenodd" d="M28.4999 0V14V14.1523C28.4997 15.3397 28.4994 16.4937 28.6279 17.4455C28.7728 18.5184 29.126 19.7428 30.1475 20.7598C31.169 21.7768 32.3989 22.1283 33.4767 22.2725C34.4326 22.4006 35.5917 22.4003 36.7844 22.4H36.9374H50.9999V39.2C50.9999 47.1195 50.9999 51.0793 48.5286 53.5396C46.0573 56 42.0798 56 34.1249 56H22.8749C14.92 56 10.9425 56 8.47123 53.5396C5.99994 51.0793 5.99994 47.1195 5.99994 39.2V16.8C5.99994 8.8804 5.99994 4.92061 8.47123 2.4603C10.9425 0 14.92 0 22.8749 0H28.4999ZM34.1249 0.0129362V14C34.1249 15.3991 34.1308 16.1667 34.2028 16.6993L34.2057 16.7197L34.2262 16.7225C34.7611 16.7941 35.532 16.8 36.9374 16.8H50.987C50.9583 15.6474 50.8663 14.8847 50.5719 14.1766C50.1435 13.1475 49.3307 12.3382 47.7048 10.7196L40.2326 3.2804C38.6067 1.66183 37.7938 0.852544 36.76 0.426272C36.0487 0.132972 35.2826 0.0414682 34.1249 0.0129362ZM17.2499 30.8C17.2499 29.2536 18.5092 28 20.0624 28H36.9374C38.4908 28 39.7499 29.2536 39.7499 30.8C39.7499 32.3464 38.4908 33.6 36.9374 33.6H20.0624C18.5092 33.6 17.2499 32.3464 17.2499 30.8ZM20.0624 39.2C18.5092 39.2 17.2499 40.4536 17.2499 42C17.2499 43.5464 18.5092 44.8 20.0624 44.8H31.3124C32.8658 44.8 34.1249 43.5464 34.1249 42C34.1249 40.4536 32.8658 39.2 31.3124 39.2H20.0624Z" fill="#495057"/>
<g clip-path="url(#clip1_762_2496)">
<path d="M58.75 29H34.25C31.3505 29 29 31.3505 29 34.25V58.75C29 61.6495 31.3505 64 34.25 64H58.75C61.6495 64 64 61.6495 64 58.75V34.25C64 31.3505 61.6495 29 58.75 29Z" fill="#2563EB"/>
<path d="M44.9277 48.4143H49.3027V45.6115H37.0664V48.4143H41.4414V60.924H44.9277V48.4143ZM50.6699 60.2404C51.2236 60.5275 51.9004 60.7395 52.6523 60.883C53.4043 61.0266 54.2246 61.0949 55.0449 61.0949C55.8652 61.0949 56.6172 61.0197 57.3691 60.8625C58.1211 60.7053 58.7363 60.4455 59.2832 60.1105C59.8369 59.7482 60.3086 59.2902 60.582 58.675C60.8555 58.0598 61.0674 57.3762 61.0674 56.4875C61.0674 55.8654 60.9717 55.3254 60.7871 54.8469C60.6025 54.3684 60.3359 53.9582 59.9668 53.6164C59.6182 53.2541 59.2148 52.9328 58.7363 52.6594C58.2578 52.3859 57.7109 52.0988 57.0957 51.8391C56.6445 51.6545 56.2754 51.4768 55.8652 51.299C55.5098 51.1213 55.2021 50.9436 54.9766 50.7658C54.7236 50.5812 54.5322 50.3898 54.3955 50.1916C54.2588 49.9865 54.1904 49.7609 54.1904 49.508C54.1904 49.2756 54.2513 49.0637 54.375 48.8723C54.4987 48.6809 54.6689 48.5236 54.8877 48.3869C55.1064 48.2502 55.3799 48.1477 55.708 48.0725C56.0293 47.9973 56.3848 47.9631 56.8018 47.9631C57.0889 47.9631 57.3896 47.9843 57.6904 48.0273C58.0049 48.0704 58.3262 48.1367 58.6475 48.2256C58.9688 48.3145 59.2832 48.4238 59.6045 48.5605C59.9053 48.6973 60.1855 48.8545 60.4248 49.0322V45.8193C59.9053 45.6211 59.3311 45.4707 58.7158 45.375C58.1006 45.2793 57.417 45.2314 56.5967 45.2314C55.7764 45.2314 55.0244 45.3203 54.2725 45.4912C53.5205 45.6621 52.9053 45.9355 52.3584 46.3115C51.8047 46.6807 51.4014 47.1318 51.0596 47.7471C50.7383 48.3213 50.5811 48.9775 50.5811 49.7979C50.5811 50.8232 50.875 51.7119 51.4697 52.3955C52.0576 53.1475 52.9736 53.6943 54.1357 54.2412C54.6074 54.4326 55.0244 54.624 55.4346 54.8086C55.8447 54.9932 56.1865 55.1846 56.46 55.3828C56.7539 55.5811 56.9863 55.7998 57.1436 56.0322C57.3145 56.2646 57.4033 56.5381 57.4033 56.8525C57.4033 57.0713 57.35 57.2764 57.2461 57.4678C57.1422 57.6592 56.9795 57.8232 56.7607 57.96C56.542 58.0967 56.2754 58.2061 55.9404 58.2881C55.6191 58.3633 55.2568 58.4043 54.7783 58.4043C54.0264 58.4043 53.2744 58.2744 52.5908 58.0146C51.8389 57.7549 51.1553 57.3652 50.6699 56.9592V60.2404Z" fill="#DEE2E6"/>
</g>
</g>
<defs>
<clipPath id="clip0_762_2496">
<rect width="64" height="64" fill="white"/>
</clipPath>
<clipPath id="clip1_762_2496">
<rect width="35" height="35" fill="white" transform="translate(29 29)"/>
</clipPath>
</defs>
</svg>
