<svg width="64" height="64" viewBox="0 0 64 64" fill="none" xmlns="http://www.w3.org/2000/svg">
<g clip-path="url(#clip0_762_6022)">
<path d="M14.2222 2C14.2222 0.895433 13.3268 0 12.2222 0L9.11111 0C8.00654 0 7.11111 0.895431 7.11111 2V19.3333C7.11111 20.4379 8.00654 21.3333 9.11111 21.3333H12.2222C13.3268 21.3333 14.2222 20.4379 14.2222 19.3333V2ZM56.8889 2C56.8889 0.895432 55.9935 0 54.8889 0L51.7778 0C50.6732 0 49.7778 0.895431 49.7778 2V33.5556C49.7778 34.6601 50.6732 35.5556 51.7778 35.5556H54.8889C55.9935 35.5556 56.8889 34.6601 56.8889 33.5556V2ZM0 33.5556C0 34.6601 0.895432 35.5556 2 35.5556H5.11111C6.21568 35.5556 7.11111 36.451 7.11111 37.5556L7.11111 62C7.11111 63.1046 8.00654 64 9.11111 64H12.2222C13.3268 64 14.2222 63.1046 14.2222 62L14.2222 37.5556C14.2222 36.451 15.1177 35.5556 16.2222 35.5556H19.3333C20.4379 35.5556 21.3333 34.6601 21.3333 33.5556V30.4444C21.3333 29.3399 20.4379 28.4444 19.3333 28.4444H2C0.895432 28.4444 0 29.3399 0 30.4444V33.5556ZM42.6667 16.2222C42.6667 15.1177 41.7712 14.2222 40.6667 14.2222H37.5556C36.451 14.2222 35.5556 13.3268 35.5556 12.2222V2C35.5556 0.89543 34.6601 0 33.5556 0L30.4444 0C29.3399 0 28.4444 0.895431 28.4444 2V12.2222C28.4444 13.3268 27.549 14.2222 26.4444 14.2222H23.3333C22.2288 14.2222 21.3333 15.1177 21.3333 16.2222V19.3333C21.3333 20.4379 22.2288 21.3333 23.3333 21.3333L40.6667 21.3333C41.7712 21.3333 42.6667 20.4379 42.6667 19.3333V16.2222ZM28.4444 62C28.4444 63.1046 29.3399 64 30.4444 64H33.5556C34.6601 64 35.5556 63.1046 35.5556 62V30.4444C35.5556 29.3399 34.6601 28.4444 33.5556 28.4444H30.4444C29.3399 28.4444 28.4444 29.3399 28.4444 30.4444L28.4444 62ZM44.6667 42.6667C43.5621 42.6667 42.6667 43.5621 42.6667 44.6667V47.7778C42.6667 48.8823 43.5621 49.7778 44.6667 49.7778H47.7778C48.8823 49.7778 49.7778 50.6732 49.7778 51.7778V62C49.7778 63.1046 50.6732 64 51.7778 64H54.8889C55.9935 64 56.8889 63.1046 56.8889 62V51.7778C56.8889 50.6732 57.7843 49.7778 58.8889 49.7778H62C63.1046 49.7778 64 48.8823 64 47.7778V44.6667C64 43.5621 63.1046 42.6667 62 42.6667H44.6667Z" fill="#EAB308"/>
</g>
<defs>
<clipPath id="clip0_762_6022">
<rect width="64" height="64" fill="white"/>
</clipPath>
</defs>
</svg>
