<svg width="64" height="64" viewBox="0 0 64 64" fill="none" xmlns="http://www.w3.org/2000/svg">
<g clip-path="url(#clip0_762_6024)">
<path d="M26.6823 0.984941C26.6823 0.446109 26.2553 0.00245036 25.7165 0.000261051C19.1944 -0.0262388 12.7165 1.9648 7.17813 5.9777C6.60457 6.39328 6.67144 7.25388 7.28772 7.60298L9.46904 8.83862C9.81325 9.0336 10.239 9.00563 10.5633 8.7792C14.9771 5.69832 20.374 4.27251 25.6382 4.30833C26.2076 4.3122 26.6823 3.85945 26.6823 3.29007V0.984941Z" fill="#2979FF"/>
<path d="M48.1207 9.65916C43.3435 4.6134 37.2033 1.38502 30.5638 0.412376C29.9753 0.32617 29.4589 0.790856 29.4589 1.3856V3.73888C29.4589 4.22842 29.8138 4.6441 30.2943 4.7381C35.5822 5.77269 40.4655 8.29234 44.3722 11.9999C44.7764 12.3835 45.4153 12.387 45.8081 11.9918L48.1207 9.66527C48.1224 9.66358 48.1224 9.66085 48.1207 9.65916Z" fill="#448AFF"/>
<path d="M56.1648 30.4765C56.7319 30.4761 57.1868 30.0046 57.1448 29.4392C56.7079 23.5469 54.4821 17.697 50.8239 12.6131C50.4704 12.1217 49.762 12.0772 49.3354 12.5068L47.7167 14.1368C47.3701 14.4859 47.3304 15.0346 47.6111 15.4385C50.6401 19.7969 52.4483 24.5512 52.8543 29.5243C52.8979 30.0575 53.3363 30.4785 53.8713 30.4781L56.1648 30.4765Z" fill="#7E57C2"/>
<path d="M49.3354 51.4956C49.762 51.9251 50.4704 51.8806 50.8239 51.3892C54.482 46.3053 56.7077 40.4532 57.1448 34.5609C57.1867 33.9951 56.7314 33.5236 56.1641 33.5236H53.8711C53.3362 33.5236 52.8981 33.9448 52.8548 34.4779C52.4508 39.4487 50.6401 44.203 47.6108 48.5639C47.3302 48.9678 47.37 49.5163 47.7165 49.8653L49.3354 51.4956Z" fill="#AB47BC"/>
<path d="M29.4589 62.6092C29.4589 63.2056 29.9777 63.6708 30.5672 63.581C36.7018 62.6472 42.7607 59.6742 47.4461 55.0305C47.8298 54.6503 47.8213 54.0325 47.4407 53.6492L45.8273 52.0245C45.4284 51.6227 44.7768 51.6336 44.3741 52.0316C40.4153 55.9451 35.4911 58.4226 30.3265 59.2853C29.8314 59.368 29.4589 59.79 29.4589 60.292V62.6092Z" fill="#D81B60"/>
<path d="M7.28463 56.4011C6.66918 56.7497 6.6015 57.6087 7.17385 58.0244C12.5584 61.9343 19.0541 64.0303 25.7172 63.9997C26.2557 63.9972 26.6823 63.5537 26.6823 63.0152V60.7123C26.6823 60.1429 26.2075 59.6902 25.6381 59.694C20.3875 59.7291 15.1719 58.2943 10.5573 55.2018C10.236 54.9865 9.82059 54.9646 9.48411 55.1552L7.28463 56.4011Z" fill="#F50057"/>
<path d="M25.5303 14.3589C28.0857 14.3329 30.6217 14.8039 32.9974 15.7457C35.1886 16.5826 37.1845 17.8606 38.8614 19.5006C40.5394 21.1504 41.8683 23.1209 42.7689 25.295C43.6695 27.469 44.1234 29.802 44.1037 32.1551C44.1037 34.6604 43.6465 37.0011 42.726 39.1742C41.8039 41.3092 40.4697 43.2414 38.7998 44.86C37.1299 46.4787 35.1571 47.752 32.9944 48.6072C30.6133 49.5212 28.0806 49.9763 25.5303 49.9482C22.8055 49.9482 20.3033 49.5032 18.0235 48.6072C15.8522 47.7365 13.874 46.446 12.2022 44.8096C10.5717 43.1982 9.27316 41.2825 8.38022 39.1712C7.4528 36.9492 6.98421 34.5627 7.00261 32.1551C7.00261 29.6528 7.45978 27.3273 8.38022 25.1756C9.26649 23.0507 10.5656 21.1228 12.2022 19.5036C13.8682 17.8706 15.8487 16.5931 18.0235 15.7487C20.3033 14.8252 22.8086 14.3589 25.5303 14.3589ZM25.5303 22.8562C24.2563 22.8562 23.0433 23.0939 21.8881 23.5694C20.7604 24.0174 19.7699 24.6575 18.9104 25.4895C18.0461 26.3334 17.3527 27.3362 16.8684 28.4428C16.357 29.613 16.0994 30.8782 16.1125 32.1551C16.1125 33.4961 16.3624 34.7335 16.8684 35.8673C17.8422 38.094 19.6416 39.8563 21.8881 40.7835C23.0433 41.2315 24.2563 41.454 25.5303 41.454C26.8043 41.454 28.0051 41.2315 29.1297 40.7835C30.2879 40.308 31.2937 39.6527 32.1532 38.8176C33.0397 37.984 33.7497 36.9807 34.2409 35.8673C34.7519 34.6971 35.0095 33.432 34.9968 32.1551C34.9968 30.814 34.7438 29.5766 34.2409 28.4428C33.7504 27.3291 33.0403 26.3256 32.1532 25.4926C31.2861 24.654 30.2574 24.0007 29.1297 23.5724C27.9918 23.0928 26.7652 22.8491 25.5303 22.8562Z" fill="#ECEFF1"/>
</g>
<defs>
<clipPath id="clip0_762_6024">
<rect width="64" height="64" fill="white"/>
</clipPath>
</defs>
</svg>
