<svg width="64" height="64" viewBox="0 0 64 64" fill="none" xmlns="http://www.w3.org/2000/svg">
<path d="M29.7223 24.6272L36.8623 17.3987C37.4878 16.7733 38.2018 15.9707 38.9158 15.0768C39.6298 14.2743 40.4323 13.5603 41.2377 12.9348C42.7543 11.5953 44.5392 10.4358 46.7726 10.4358C48.7376 10.4358 50.4312 11.3297 51.6821 12.4893C52.933 13.6488 53.647 15.3453 53.647 17.3102C53.647 18.1127 53.5585 19.0066 53.29 19.6321C52.6646 20.883 52.1305 21.7741 51.5936 22.4881C51.3251 22.8451 51.0566 23.2021 51.0566 23.5591C51.0566 23.8276 51.0566 24.096 51.2366 24.1846C52.219 26.595 52.933 28.6485 53.3786 31.1475C53.647 32.1299 54.1811 32.5755 55.075 32.5755C55.432 32.5755 55.789 32.4869 56.146 32.2185C56.86 31.7729 57.4855 31.0589 58.1109 30.3449C58.4679 29.9879 58.7364 29.631 58.9135 29.451C62.1265 26.3266 64 21.8655 64 17.313C64 12.4921 62.0351 8.20813 58.9135 5.08653C55.789 2.05061 51.4165 0 46.7755 0C42.1345 0 37.6706 1.87353 34.549 5.17792L22.3225 17.3159C19.1095 20.6174 17.3245 24.9014 17.3245 29.4539C17.3245 30.7933 17.8614 33.5608 18.7525 36.1483C19.6464 38.6473 20.8059 40.8779 22.3225 40.8779C23.125 40.8779 24.8215 39.5384 26.2495 38.0219C27.6775 36.5053 29.1054 34.8089 29.1054 34.1834C29.1054 33.7379 28.7484 33.2009 28.3915 32.3984C27.9459 31.5959 27.766 30.6134 27.766 29.4539C27.766 27.6689 28.48 25.8839 29.7309 24.633L29.7223 24.6272ZM29.4567 58.8992L41.6833 46.7612C44.8962 43.6368 46.6812 39.0843 46.6812 34.5347C46.6812 33.1952 46.1443 30.5192 45.2532 27.9288C44.4507 25.4298 43.1998 23.1079 41.6833 23.1079C41.0578 23.1079 39.1843 24.5359 37.8448 26.0524C36.3283 27.5689 34.9003 29.1768 34.9003 29.8023C34.9003 30.2478 35.1687 30.9618 35.6143 31.6758C36.0598 32.4784 36.4168 33.3723 36.4168 34.5318C36.3283 36.3168 35.6143 38.1018 34.3633 39.5298L27.1348 46.6698C26.5093 47.3838 25.7954 48.0978 25.0814 48.9004L22.8508 51.1309C21.3343 52.5589 19.4579 53.5413 17.2274 53.5413C13.4774 53.5413 10.4444 50.5968 10.4444 46.7584C10.4444 45.8644 10.6243 45.0619 10.8899 44.4364C11.4268 43.1855 11.9609 42.2944 12.5864 41.5804C12.8548 41.2234 12.9434 40.8664 12.9434 40.598C12.9434 40.418 12.8548 40.241 12.7634 39.884C11.6924 37.4735 11.067 35.4201 10.6214 32.9211C10.4415 32.4755 10.353 32.1185 10.0845 31.9386C9.81606 31.5816 9.37052 31.4931 8.92499 31.4931C8.56799 31.4931 8.29952 31.5816 7.94252 31.8501C7.22852 32.2956 6.51453 33.0096 5.88906 33.7236C5.6206 34.0806 5.2636 34.3491 5.08653 34.5261C1.87353 37.7391 0 42.203 0 46.7526C0 51.4822 1.87353 55.8576 5.08653 58.9792C8.21099 62.1036 12.495 63.9771 17.2245 63.9771C21.8655 63.9771 26.3294 62.1921 29.451 58.8906L29.4567 58.8992Z" fill="#3B82F6"/>
</svg>
