<svg width="64" height="64" viewBox="0 0 64 64" fill="none" xmlns="http://www.w3.org/2000/svg">
<g clip-path="url(#clip0_762_2636)">
<path d="M42.2101 61.9603L63.8895 1.6734C64.2572 0.650927 63.6774 -0.094605 62.596 0.00974629L45.547 1.65204C44.4655 1.75639 43.2973 2.67402 42.94 3.69981L22.8738 61.3156C22.5163 62.3416 23.1083 63.1746 24.1947 63.1746H40.7901C41.3333 63.1746 41.9235 62.7597 42.1074 62.2483L42.2101 61.9603Z" fill="#546E7A"/>
<path d="M1.40355 0.0105746L18.4526 1.65287C19.534 1.75722 20.7036 2.67435 21.0625 3.69981L41.5541 62.2452C41.7335 62.7582 41.4382 63.1741 40.8949 63.1741L24.1947 63.1746C23.1081 63.1746 21.9278 62.3442 21.5603 61.3218L0.110592 1.6734C-0.257122 0.650928 0.322111 -0.0937767 1.40355 0.0105746Z" fill="#3B82F6"/>
</g>
<defs>
<clipPath id="clip0_762_2636">
<rect width="64" height="64" fill="white"/>
</clipPath>
</defs>
</svg>
