<svg width="64" height="58" viewBox="0 0 64 58" fill="none" xmlns="http://www.w3.org/2000/svg">
<path fill-rule="evenodd" clip-rule="evenodd" d="M10.941 0.763597C13.5345 0.187236 16.6233 0 20.1953 0H25.371C28.5803 0 31.5773 1.60392 33.3575 4.27423L35.9571 8.1738C36.5506 9.06384 37.5495 9.59855 38.6194 9.59855H54.7943C59.9055 9.59855 64.0482 13.6336 63.9996 18.8298C63.9413 25.0176 63.9903 31.2078 63.9903 37.3959C63.9903 40.9679 63.8031 44.0567 63.2266 46.6502C62.6423 49.2802 61.6159 51.5925 59.8037 53.4047C57.9915 55.2169 55.6792 56.2433 53.0492 56.8275C50.4557 57.4041 47.3669 57.5913 43.795 57.5913H20.1953C16.6233 57.5913 13.5345 57.4041 10.941 56.8275C8.31119 56.2433 5.99871 55.2169 4.1865 53.4047C2.37433 51.5925 1.34805 49.2802 0.763597 46.6502C0.187236 44.0567 0 40.9679 0 37.3959V20.1953C0 16.6233 0.187236 13.5345 0.763597 10.941C1.34805 8.31119 2.37433 5.99871 4.1865 4.1865C5.99871 2.37433 8.31119 1.34805 10.941 0.763597Z" fill="#495057"/>
</svg>
