<svg width="64" height="64" viewBox="0 0 64 64" fill="none" xmlns="http://www.w3.org/2000/svg">
<g clip-path="url(#clip0_762_2832)">
<path d="M13.952 18.5H0V29.6038H13.952V18.5Z" fill="#F97316"/>
<path d="M13.947 13.7245V0.412513C6.65101 1.75651 1.88301 6.46051 0.475008 13.6925H13.851C13.883 13.6925 13.915 13.7245 13.947 13.7245Z" fill="#F97316"/>
<path d="M13.952 45.792V34.4H0V45.696H13.568C13.696 45.696 13.824 45.76 13.952 45.792Z" fill="#F97316"/>
<path d="M63.5181 13.695C62.1421 6.68701 57.6621 2.07901 50.7501 0.575007V13.695H63.5181Z" fill="#F97316"/>
<path d="M45.9501 29.6V0.032C45.7901 -2.90573e-08 45.5981 0 45.4061 0H18.75V29.6H45.9501Z" fill="#F97316"/>
<path d="M63.9981 34.4H50.7501V45.696H63.9981V34.4Z" fill="#F97316"/>
<path d="M50.7501 63.4278C57.5981 61.9238 62.0781 57.3802 63.4861 50.4998H50.7501V63.4278Z" fill="#F97316"/>
<path d="M13.5685 50.5014H0.512512C1.98451 57.6054 6.72051 62.2454 13.9525 63.5894V50.4374C13.8245 50.4694 13.6965 50.5014 13.5685 50.5014Z" fill="#F97316"/>
<path d="M63.9981 18.5H50.7501V29.6038H63.9981V18.5Z" fill="#F97316"/>
<path d="M18.75 34.4V64H45.4061C45.5981 64 45.7901 64 45.9501 63.968V34.4H18.75Z" fill="#F97316"/>
</g>
<defs>
<clipPath id="clip0_762_2832">
<rect width="64" height="64" fill="white"/>
</clipPath>
</defs>
</svg>
