<svg width="64" height="64" viewBox="0 0 64 64" fill="none" xmlns="http://www.w3.org/2000/svg">
<g clip-path="url(#clip0_762_6096)">
<path d="M37.1436 5.66082V4.7976C37.1436 4.28697 37.3389 3.79568 37.6895 3.42442L38.4394 2.6303C38.8172 2.23021 39.3432 2.00348 39.8935 2.00348H61.422C62.0395 2.00348 62.6224 2.28872 63.0013 2.77634L63.5793 3.52015C63.852 3.87109 64 4.30286 64 4.74729V8.39886C64 8.91721 63.7988 9.41531 63.4387 9.78817L13.6164 61.3808C13.2395 61.7711 12.7203 61.9915 12.1777 61.9915H6.91902C6.57887 61.9915 6.24433 61.9048 5.94704 61.7395L4.45243 60.9083C3.81789 60.5555 3.42441 59.8865 3.42441 59.1604V12.3567C3.42441 11.6827 2.87808 11.1364 2.20414 11.1364C1.88749 11.1364 1.58324 11.0133 1.35566 10.7931L0.609352 10.0711C0.219893 9.6943 0 9.1756 0 8.6337V4.85882C0 4.37824 0.173046 3.91373 0.487473 3.55028L1.23046 2.69147C1.61036 2.25234 2.16234 2 2.74299 2H24.0162C24.5907 2 25.1376 2.24711 25.5172 2.67834L26.7382 4.06508C26.8108 4.17389 26.8495 4.30174 26.8495 4.43251V8.73376C26.8495 9.11756 26.739 9.49326 26.5314 9.81601L25.6665 11.16C25.4417 11.5093 25.0548 11.7205 24.6394 11.7205C23.9649 11.7205 23.4181 12.2673 23.4181 12.9418V23.0117C23.4181 24.7766 25.5377 25.6764 26.8074 24.4504L39.4435 12.2489C39.6437 12.0556 39.5069 11.717 39.2287 11.717C39.1367 11.717 39.0495 11.6761 38.9907 11.6053L37.1366 9.37378" fill="#22C55E"/>
</g>
<defs>
<clipPath id="clip0_762_6096">
<rect width="64" height="64" fill="white"/>
</clipPath>
</defs>
</svg>
