<svg width="64" height="64" viewBox="0 0 64 64" fill="none" xmlns="http://www.w3.org/2000/svg">
<g clip-path="url(#clip0_762_2861)">
<path d="M48.0014 22.8876C48.0014 22.0479 47.0291 21.5821 46.3748 22.1083L33.7884 32.2302C33.2849 32.6352 33.2919 33.4043 33.8027 33.8L46.389 43.5511C47.0461 44.0602 48.0014 43.5918 48.0014 42.7606V22.8876ZM8.64009 52.4805L0.467184 47.3345C0.176412 47.1514 0 46.8319 0 46.4883V18.9608C0 18.5304 0.27543 18.1483 0.683772 18.0122L9.09356 15.2089C9.41005 15.1034 9.75831 15.1627 10.0221 15.3669L22.6913 25.1782C23.0774 25.4772 23.623 25.4536 23.9819 25.1224L50.6394 0.51774C50.9706 0.212026 51.4654 0.165684 51.8476 0.40458L63.5303 7.70639C63.8227 7.88913 64.0003 8.2096 64.0003 8.55439V56.923C64.0003 57.3319 63.7513 57.6996 63.3717 57.8514L48.5984 63.7608C48.2342 63.9064 47.8184 63.8257 47.5352 63.5543L24.1229 41.1202C23.7599 40.7724 23.195 40.7482 22.8035 41.0637L8.64009 52.4799M9.6 36.113C9.6 36.9852 10.6386 37.4393 11.2789 36.8472L14.7717 33.6174C15.1948 33.2261 15.2005 32.5592 14.7842 32.1607L11.2914 28.8182C10.6554 28.2095 9.6 28.6603 9.6 29.5407V36.113Z" fill="#A855F7"/>
</g>
<defs>
<clipPath id="clip0_762_2861">
<rect width="64" height="64" fill="white"/>
</clipPath>
</defs>
</svg>
