<svg width="64" height="64" viewBox="0 0 64 64" fill="none" xmlns="http://www.w3.org/2000/svg">
<path d="M63.7082 9.47277L33.6819 63.1647C33.0618 64.2731 31.4693 64.2797 30.8398 63.1766L0.218323 9.47779C-0.467116 8.27553 0.560585 6.81943 1.92278 7.06277L31.9815 12.4357C32.1733 12.47 32.3696 12.4697 32.5612 12.4348L61.9912 7.07053C63.3488 6.82309 64.3818 8.26822 63.7082 9.47277Z" fill="url(#paint0_linear_763_2654)"/>
<path d="M46.2999 0.0157747L24.0796 4.36968C23.902 4.40443 23.741 4.49722 23.6219 4.63346C23.5029 4.7697 23.4324 4.94166 23.4218 5.12229L22.055 28.2074C22.023 28.7512 22.5223 29.1732 23.0528 29.0507L29.2393 27.6232C29.8183 27.4895 30.3413 27.9995 30.2222 28.5814L28.3844 37.5819C28.2605 38.1874 28.8292 38.7056 29.4207 38.526L33.2418 37.3648C33.8343 37.185 34.4034 37.7046 34.2782 38.3107L31.3573 52.4484C31.1745 53.3326 32.3508 53.8147 32.8413 53.0566L33.1689 52.5503L51.2752 16.4158C51.5784 15.8108 51.0559 15.121 50.391 15.2492L44.0233 16.4782C43.4247 16.5936 42.9156 16.0363 43.0845 15.4507L47.2408 1.04279C47.4098 0.456054 46.899 -0.101664 46.2999 0.0157747Z" fill="url(#paint1_linear_763_2654)"/>
<defs>
<linearGradient id="paint0_linear_763_2654" x1="-0.529411" y1="-2.12593" x2="42.6575" y2="50.0775" gradientUnits="userSpaceOnUse">
<stop stop-color="#41D1FF"/>
<stop offset="1" stop-color="#BD34FE"/>
</linearGradient>
<linearGradient id="paint1_linear_763_2654" x1="30.2547" y1="1.19769" x2="37.0144" y2="47.5687" gradientUnits="userSpaceOnUse">
<stop stop-color="#FFEA83"/>
<stop offset="0.0833" stop-color="#FFDD35"/>
<stop offset="1" stop-color="#FFA800"/>
</linearGradient>
</defs>
</svg>
