<svg width="64" height="64" viewBox="0 0 64 64" fill="none" xmlns="http://www.w3.org/2000/svg">
<path d="M48.0284 20.702L32.7283 42.8239C32.5661 43.0585 32.3315 43.2342 32.0601 43.3244C31.7888 43.4145 31.4954 43.4137 31.2246 43.3231C30.9537 43.2321 30.7202 43.0555 30.5594 42.8206C30.3987 42.5852 30.3194 42.304 30.3337 42.0199L30.946 29.8063L21.0606 27.7098C20.8493 27.6651 20.6525 27.5691 20.4875 27.4305C20.3225 27.2918 20.1944 27.1148 20.1147 26.915C20.0349 26.7152 20.0059 26.4989 20.0302 26.2851C20.0545 26.0714 20.1313 25.8668 20.2539 25.6895L35.554 3.56758C35.7162 3.3329 35.9508 3.15724 36.2222 3.06719C36.4936 2.97714 36.787 2.97761 37.0579 3.06859C37.3287 3.15953 37.5622 3.33599 37.723 3.57122C37.8838 3.80641 37.963 4.08749 37.9487 4.37183L37.3363 16.5854L47.2218 18.6818C47.4331 18.7265 47.6299 18.8225 47.795 18.9611C47.9602 19.0998 48.088 19.2768 48.1676 19.4766C48.2476 19.6764 48.2764 19.8928 48.2523 20.1065C48.2282 20.3202 48.1511 20.5247 48.0284 20.702Z" fill="#EAB308"/>
<path d="M32.0065 61.3831C31.5996 61.3835 31.1965 61.3039 30.8206 61.1481C30.4446 60.9923 30.1031 60.7637 29.8158 60.4758L15.3591 46.0199C14.7808 45.4386 14.4566 44.6516 14.4576 43.8315C14.4587 43.0114 14.785 42.2248 15.3649 41.6452C15.9448 41.0651 16.7311 40.7387 17.5512 40.7374C18.3714 40.7366 19.1585 41.0605 19.74 41.6388L32.0066 53.9041L58.7294 27.1826C59.3119 26.6094 60.0973 26.2897 60.9144 26.293C61.732 26.2963 62.5148 26.6224 63.0923 27.2003C63.6702 27.7782 63.9966 28.561 64 29.3782C64.003 30.1955 63.6833 30.9809 63.1101 31.5635L34.1967 60.476C33.9094 60.7643 33.568 60.9925 33.1921 61.1483C32.8163 61.3041 32.4133 61.3835 32.0065 61.3831Z" fill="#22C55E"/>
<path d="M31.9936 61.3831C32.4005 61.3835 32.8035 61.3039 33.1795 61.1481C33.5555 60.9923 33.8969 60.7637 34.1843 60.4758L48.641 46.0199C49.2193 45.4386 49.5436 44.6516 49.5424 43.8315C49.5415 43.0114 49.2151 42.2248 48.6351 41.6452C48.055 41.0651 47.2688 40.7387 46.4487 40.7374C45.6286 40.7366 44.8416 41.0605 44.2599 41.6388L31.9933 53.9041L5.27053 27.1826C4.68797 26.6094 3.90252 26.2897 3.08531 26.293C2.26806 26.2963 1.48524 26.6224 0.907368 27.2003C0.329499 27.7782 0.00337067 28.561 2.59777e-05 29.3782C-0.00331871 30.1955 0.316433 30.9809 0.889586 31.5635L29.8034 60.476C30.0907 60.7643 30.4321 60.9925 30.808 61.1483C31.1838 61.3041 31.5868 61.3835 31.9936 61.3831Z" fill="#22C55E" fill-opacity="0.5"/>
</svg>
