<svg width="64" height="64" viewBox="0 0 64 64" fill="none" xmlns="http://www.w3.org/2000/svg">
<g clip-path="url(#clip0_762_2858)">
<path d="M51.5162 0.594985C50.777 0.235989 49.8936 0.365593 49.2887 0.921747L23.4195 24.7074C22.7088 25.3608 21.6329 25.4133 20.862 24.8322L7.55103 14.7991C6.90802 14.3144 6.03706 14.2626 5.34114 14.6676L2.34537 16.4112C1.18092 17.089 1.00611 18.7008 1.99818 19.6125L13.8762 30.5272C14.7385 31.3196 14.7385 32.6801 13.8762 33.4725L1.99549 44.3898C1.00421 45.3006 1.17781 46.911 2.34045 47.5897L5.34041 49.3409C6.03661 49.7473 6.90875 49.696 7.55251 49.2108L20.8623 39.1787C21.633 38.5977 22.7088 38.6501 23.4194 39.3033L49.2887 63.0787C49.8936 63.6346 50.7769 63.7641 51.5159 63.4052L62.8727 57.8893C63.5616 57.5547 63.9989 56.8561 63.9989 56.0903V7.90997C63.9989 7.14414 63.5616 6.44554 62.8727 6.11095L51.5162 0.594985ZM47.0876 19.4056C48.4055 18.4126 50.2912 19.3528 50.2912 21.0029V42.9956C50.2912 44.6458 48.4055 45.586 47.0876 44.5929L32.4937 33.5962C31.4318 32.796 31.4318 31.2016 32.4938 30.4015L47.0876 19.4056Z" fill="#3B82F6"/>
</g>
<defs>
<clipPath id="clip0_762_2858">
<rect width="64" height="64" fill="white"/>
</clipPath>
</defs>
</svg>
