<svg width="64" height="64" viewBox="0 0 64 64" fill="none" xmlns="http://www.w3.org/2000/svg">
<path d="M11.5922 4H2.13333C1.36946 4 0.663885 4.41108 0.28343 5.07782C-0.0970249 5.74455 -0.0942882 6.56512 0.290605 7.22928L30.1573 58.7643C30.5396 59.4239 31.2413 59.8298 32 59.8298C32.7588 59.8298 33.4604 59.4239 33.8428 58.7643L63.7095 7.22928C64.0943 6.56512 64.0969 5.74455 63.7167 5.07782C63.3361 4.41108 62.6304 4 61.8667 4H52.4079L32.0002 38.2359L11.5922 4Z" fill="#22C55E"/>
<path d="M47.432 4H34.9482L32 9.93501L29.0518 4H16.5679L32.0001 29.8887L47.432 4Z" fill="#22C55E"/>
</svg>
