<svg width="64" height="64" viewBox="0 0 64 64" fill="none" xmlns="http://www.w3.org/2000/svg">
<g clip-path="url(#clip0_762_2950)">
<path fill-rule="evenodd" clip-rule="evenodd" d="M28.4999 0V14V14.1523C28.4997 15.3397 28.4994 16.4937 28.6279 17.4455C28.7728 18.5184 29.126 19.7428 30.1475 20.7598C31.169 21.7768 32.3989 22.1283 33.4767 22.2725C34.4326 22.4006 35.5917 22.4003 36.7844 22.4H36.9374H50.9999V39.2C50.9999 47.1195 50.9999 51.0793 48.5286 53.5396C46.0573 56 42.0798 56 34.1249 56H22.8749C14.92 56 10.9425 56 8.47123 53.5396C5.99994 51.0793 5.99994 47.1195 5.99994 39.2V16.8C5.99994 8.8804 5.99994 4.92061 8.47123 2.4603C10.9425 0 14.92 0 22.8749 0H28.4999ZM34.1249 0.0129362V14C34.1249 15.3991 34.1308 16.1667 34.2028 16.6993L34.2057 16.7197L34.2262 16.7225C34.7611 16.7941 35.532 16.8 36.9374 16.8H50.987C50.9583 15.6474 50.8663 14.8847 50.5719 14.1766C50.1435 13.1475 49.3307 12.3382 47.7048 10.7196L40.2326 3.2804C38.6067 1.66183 37.7938 0.852544 36.76 0.426272C36.0487 0.132972 35.2826 0.0414682 34.1249 0.0129362ZM17.2499 30.8C17.2499 29.2536 18.5092 28 20.0624 28H36.9374C38.4908 28 39.7499 29.2536 39.7499 30.8C39.7499 32.3464 38.4908 33.6 36.9374 33.6H20.0624C18.5092 33.6 17.2499 32.3464 17.2499 30.8ZM20.0624 39.2C18.5092 39.2 17.2499 40.4536 17.2499 42C17.2499 43.5464 18.5092 44.8 20.0624 44.8H31.3124C32.8658 44.8 34.1249 43.5464 34.1249 42C34.1249 40.4536 32.8658 39.2 31.3124 39.2H20.0624Z" fill="#495057"/>
<path d="M35.3395 33H30.1667C29.7489 33 29.3631 33.2248 29.155 33.5894C28.9469 33.9541 28.9484 34.4028 29.1589 34.766L45.4923 62.9492C45.7014 63.31 46.0851 63.5319 46.5 63.5319C46.9149 63.5319 47.2987 63.31 47.5078 62.9492L63.8411 34.766C64.0516 34.4028 64.053 33.9541 63.8451 33.5894C63.637 33.2248 63.251 33 62.8334 33H57.6606L46.5001 51.7227L35.3395 33Z" fill="#22C55E"/>
<path d="M54.9394 33H48.1123L46.5 36.2457L44.8877 33H38.0605L46.5 47.1579L54.9394 33Z" fill="#22C55E"/>
</g>
<defs>
<clipPath id="clip0_762_2950">
<rect width="64" height="64" fill="white"/>
</clipPath>
</defs>
</svg>
