<svg width="64" height="64" viewBox="0 0 64 64" fill="none" xmlns="http://www.w3.org/2000/svg">
<g clip-path="url(#clip0_762_3034)">
<path d="M48.2997 40.0762C47.831 40.0762 47.4252 40.4017 47.3235 40.8592L45.9187 47.1788C45.7798 47.8033 46.2551 48.3958 46.8948 48.3958H50.1174C50.77 48.3958 51.2477 47.7809 51.0864 47.1486L49.4737 40.8289C49.3607 40.3861 48.9618 40.0762 48.5048 40.0762H48.2997Z" fill="#A855F7"/>
<path d="M39.6716 0C39.484 0 39.3362 0.157541 39.3265 0.344917V0.344917C39.3265 1.30861 39.1367 2.26287 38.7679 3.15321C38.3991 4.04354 37.8586 4.85252 37.1771 5.53396C35.8009 6.91018 33.9344 7.68333 31.9881 7.68333C31.0252 7.68255 30.0719 7.49212 29.1825 7.1229C28.2932 6.75369 27.4853 6.21293 26.805 5.5315C26.1247 4.85006 25.5852 4.0413 25.2175 3.15138C24.8497 2.26147 24.6608 1.30783 24.6616 0.344917V0.344917C24.6519 0.157541 24.5041 0 24.3165 0L1 0C0.447716 0 0 0.447715 0 1V63C0 63.5523 0.447715 64 1 64H63C63.5523 64 64 63.5523 64 63V1C64 0.447715 63.5523 0 63 0H39.6716ZM31.3608 57.1492C30.8851 57.1492 30.4751 56.814 30.3807 56.3477L27.4263 41.7555C27.4232 41.7401 27.4096 41.729 27.394 41.729V41.729C27.3785 41.729 27.3651 41.7398 27.3617 41.755L24.1732 56.3625C24.073 56.8218 23.6663 57.1492 23.1962 57.1492H20.516C20.0446 57.1492 19.6372 56.82 19.5382 56.3591L15.1031 35.7016C14.9694 35.079 15.444 34.4917 16.0808 34.4917H18.254C18.735 34.4917 19.1479 34.8342 19.2368 35.3068L21.9805 49.8911C21.9834 49.9066 21.997 49.9179 22.0128 49.9179V49.9179C22.0281 49.9179 22.0414 49.9072 22.0448 49.8923L25.3592 35.2707C25.4625 34.8151 25.8674 34.4917 26.3345 34.4917H28.6834C29.1597 34.4917 29.5699 34.8277 29.6638 35.2946L32.6364 50.0789C32.6398 50.0959 32.6548 50.1082 32.6722 50.1082V50.1082C32.6894 50.1082 32.7043 50.0961 32.7079 50.0792L35.8403 35.2846C35.9382 34.8224 36.3462 34.4917 36.8186 34.4917H38.9043C39.5505 34.4917 40.027 35.0953 39.877 35.7238L34.9485 56.3813C34.8411 56.8315 34.4387 57.1492 33.9758 57.1492H31.3608ZM54.644 57.1492C54.1979 57.1492 53.8056 56.8536 53.6827 56.4247L52.6529 52.8308C52.53 52.4019 52.1378 52.1063 51.6916 52.1063H45.619C45.1497 52.1063 44.7435 52.4327 44.6424 52.891L43.8764 56.3646C43.7754 56.8229 43.3692 57.1492 42.8999 57.1492H40.7342C40.0867 57.1492 39.6099 56.5433 39.7622 55.914L44.7612 35.2565C44.8698 34.8078 45.2715 34.4917 45.7332 34.4917H50.8883C51.3319 34.4917 51.7225 34.7839 51.8477 35.2095L57.9256 55.867C58.1141 56.5075 57.634 57.1492 56.9663 57.1492H54.644Z" fill="#A855F7"/>
</g>
<defs>
<clipPath id="clip0_762_3034">
<rect width="64" height="64" fill="white"/>
</clipPath>
</defs>
</svg>
