<svg width="64" height="64" viewBox="0 0 64 64" fill="none" xmlns="http://www.w3.org/2000/svg">
<g clip-path="url(#clip0_762_3098)">
<path d="M50.262 31.0302C50.6203 31.6496 50.6203 32.4133 50.2621 33.0327L41.9846 47.3454C41.6271 47.9635 40.9673 48.3441 40.2532 48.3441H23.7468C23.0327 48.3441 22.3729 47.9635 22.0154 47.3454L13.738 33.0327C13.3797 32.4133 13.3797 31.6496 13.738 31.0302L22.0154 16.7175C22.3729 16.0994 23.0327 15.7188 23.7468 15.7188H40.2532C40.9673 15.7188 41.6271 16.0994 41.9846 16.7175L50.262 31.0302ZM63.423 31.0317C63.7801 31.6504 63.7801 32.4125 63.423 33.0312L54.0165 49.3295C53.4641 50.2866 52.2402 50.6143 51.2834 50.0613L50.0424 49.344C49.0868 48.7916 48.7594 47.5695 49.3107 46.6133L57.1435 33.0305C57.5001 32.4122 57.5001 31.6507 57.1435 31.0323L49.3107 17.4496C48.7594 16.4934 49.0868 15.2713 50.0424 14.7189L51.2834 14.0016C52.2402 13.4485 53.4641 13.7762 54.0165 14.7334L63.423 31.0317ZM0.576987 33.0312C0.219929 32.4125 0.219929 31.6504 0.576987 31.0317L9.98346 14.7334C10.5359 13.7762 11.7598 13.4485 12.7166 14.0016L13.9576 14.7189C14.9132 15.2713 15.2406 16.4934 14.6893 17.4496L6.85653 31.0323C6.49994 31.6507 6.49995 32.4122 6.85653 33.0305L14.6893 46.6133C15.2406 47.5695 14.9132 48.7916 13.9576 49.344L12.7166 50.0613C11.7598 50.6143 10.5359 50.2866 9.98346 49.3295L0.576987 33.0312Z" fill="#3B82F6"/>
</g>
<defs>
<clipPath id="clip0_762_3098">
<rect width="64" height="64" fill="white"/>
</clipPath>
</defs>
</svg>
