<svg width="64" height="64" viewBox="0 0 64 64" fill="none" xmlns="http://www.w3.org/2000/svg">
<path d="M59.6889 51.2201C56.391 52.0032 54.7214 52.7246 50.6401 55.3836C44.2504 59.5059 37.2835 61.4231 37.2835 61.4231C37.2835 61.4231 36.7064 62.2887 35.0369 62.6803C32.1513 63.3812 21.2887 63.9791 20.2993 63.9996C17.6403 64.0201 16.012 63.3194 15.5584 62.2267C14.1776 58.9291 17.5372 57.4863 17.5372 57.4863C17.5372 57.4863 16.7954 57.0327 16.3625 56.6207C15.971 56.2291 15.5586 55.4457 15.4348 55.7342C14.9198 56.9915 14.6517 60.0628 13.2707 61.4441C11.3743 63.3607 7.78788 62.7218 5.66498 61.6089C3.33578 60.3721 5.83002 57.4658 5.83002 57.4658C5.83002 57.4658 4.57252 58.2077 3.56258 56.6824C2.65565 55.2809 1.81049 52.8899 2.03728 49.9424C2.32584 46.5415 6.07731 43.2848 6.07731 43.2848C6.07731 43.2848 5.41768 38.3177 7.58211 33.2262C9.54024 28.5885 14.817 24.8578 14.817 24.8578C14.817 24.8578 10.3854 19.9731 12.0345 15.5413C13.1062 12.6557 13.539 12.6762 13.8893 12.5524C15.1261 12.0786 16.3215 11.5633 17.208 10.5943C21.6396 5.8124 27.2871 6.71933 27.2871 6.71933C27.2871 6.71933 29.9257 -1.38097 32.3989 0.206083C33.1615 0.700938 35.9028 6.80185 35.9028 6.80185C35.9028 6.80185 38.8296 5.09102 39.1594 5.73015C40.9323 9.17204 41.1383 15.7476 40.3549 19.7463C39.0359 26.3421 35.7378 29.8876 34.4188 32.1135C34.1097 32.6288 37.9639 34.2571 40.3962 40.9972C42.6428 47.1601 40.6437 52.3339 40.994 52.911C41.0558 53.014 41.0765 53.0552 41.0765 53.0552C41.0765 53.0552 43.653 53.2613 48.8265 50.0664C51.5886 48.3556 54.8659 46.4387 58.5967 46.3975C62.2036 46.3357 62.3891 50.5818 59.6891 51.2206L59.6889 51.2201Z" fill="#3B82F6"/>
</svg>
