<svg width="64" height="64" viewBox="0 0 64 64" fill="none" xmlns="http://www.w3.org/2000/svg">
<g clip-path="url(#clip0_762_3134)">
<path d="M1 15.1685C0.447716 15.1685 0 15.6162 0 16.1685V48.3019C0 48.8541 0.447715 49.3019 1 49.3019H8.10667L10.5795 45.1805C10.6372 45.0843 10.7107 44.9985 10.7968 44.9267L15.7867 40.7685H9.53333C8.98105 40.7685 8.53333 40.3208 8.53333 39.7685V24.7019C8.53333 24.1496 8.98105 23.7019 9.53333 23.7019H13.9333C14.4856 23.7019 14.9333 23.2542 14.9333 22.7019V16.1685C14.9333 15.6162 14.4856 15.1685 13.9333 15.1685H1ZM18.0667 15.1685C17.5144 15.1685 17.0667 15.6162 17.0667 16.1685V22.7019C17.0667 23.2542 17.5144 23.7019 18.0667 23.7019H42.52C43.0723 23.7019 43.52 23.2542 43.52 22.7019V16.1685C43.52 15.6162 43.0723 15.1685 42.52 15.1685H18.0667ZM55.8933 15.1685L53.4205 19.2899C53.3628 19.3861 53.2893 19.4719 53.2032 19.5437L48.2133 23.7019H54.4667C55.019 23.7019 55.4667 24.1496 55.4667 24.7019V39.7685C55.4667 40.3208 55.019 40.7685 54.4667 40.7685H50.0667C49.5144 40.7685 49.0667 41.2162 49.0667 41.7685V48.3019C49.0667 48.8541 49.5144 49.3019 50.0667 49.3019H63C63.5523 49.3019 64 48.8541 64 48.3019V16.1685C64 15.6162 63.5523 15.1685 63 15.1685H55.8933ZM21.48 40.7685C20.9277 40.7685 20.48 41.2162 20.48 41.7685V48.3019C20.48 48.8541 20.9277 49.3019 21.48 49.3019H45.9333C46.4856 49.3019 46.9333 48.8542 46.9333 48.3019V41.7685C46.9333 41.2162 46.4856 40.7685 45.9333 40.7685H21.48Z" fill="#EAB308"/>
<path d="M15.7867 40.7685L8.10667 49.3019L8.10667 43.662C8.10667 43.2127 8.4062 42.8187 8.83902 42.6984L15.7867 40.7685ZM48.2133 23.7019L55.8933 15.1685V20.8084C55.8933 21.2577 55.5938 21.6517 55.161 21.772L48.2133 23.7019ZM41.1862 15.6505C41.3116 15.5112 41.4737 15.41 41.6538 15.3583L53.5057 11.9609C54.4715 11.684 55.1967 12.8446 54.5244 13.5913L22.7924 48.8327C22.667 48.972 22.505 49.0732 22.3249 49.1249L10.473 52.5223C9.5072 52.7992 8.78201 51.6386 9.4543 50.8919L41.1862 15.6505Z" fill="#EAB308"/>
</g>
<defs>
<clipPath id="clip0_762_3134">
<rect width="64" height="64" fill="white"/>
</clipPath>
</defs>
</svg>
