<svg width="64" height="64" viewBox="0 0 64 64" fill="none" xmlns="http://www.w3.org/2000/svg">
<g clip-path="url(#clip0_763_2711)">
<path d="M39.1111 49.7778H34C32.8954 49.7778 32 48.8823 32 47.7778V42.6667H26.8889C25.7843 42.6667 24.8889 41.7712 24.8889 40.6667V37.5556C24.8889 36.451 25.7843 35.5556 26.8889 35.5556H32V42.6667H39.1111M39.1111 21.3333H32V28.4444H37.1111C38.2157 28.4444 39.1111 29.3399 39.1111 30.4444V33.5556C39.1111 34.6601 38.2157 35.5556 37.1111 35.5556H32V28.4444H26.8889C25.7843 28.4444 24.8889 27.549 24.8889 26.4444V23.3333C24.8889 22.2288 25.7843 21.3333 26.8889 21.3333H32V14.2222H26.8889C25.7843 14.2222 24.8889 13.3268 24.8889 12.2222V9.11111C24.8889 8.00654 25.7843 7.11111 26.8889 7.11111H30C31.1046 7.11111 32 8.00654 32 9.11111V14.2222H39.1111M56.8889 0H7.11111C3.16444 0 0 3.16444 0 7.11111V56.8889C0 58.7749 0.749204 60.5836 2.0828 61.9172C3.41639 63.2508 5.22513 64 7.11111 64H56.8889C58.7749 64 60.5836 63.2508 61.9172 61.9172C63.2508 60.5836 64 58.7749 64 56.8889V7.11111C64 5.22513 63.2508 3.41639 61.9172 2.0828C60.5836 0.749204 58.7749 0 56.8889 0Z" fill="#EAB308"/>
</g>
<defs>
<clipPath id="clip0_763_2711">
<rect width="64" height="64" fill="white"/>
</clipPath>
</defs>
</svg>
