<svg width="64" height="64" viewBox="0 0 64 64" fill="none" xmlns="http://www.w3.org/2000/svg">
<g clip-path="url(#clip0_202_7285)">
<path d="M0 15.8392C0 13.0151 1.78814e-08 11.603 0.22192 10.4268C1.19885 5.24899 5.24899 1.19885 10.4268 0.22192C11.603 1.78814e-08 13.0151 0 15.8392 0C17.0765 0 17.6952 0 18.2898 0.055616C20.8533 0.295328 23.2849 1.30253 25.267 2.94563C25.7267 3.32675 26.1642 3.76426 27.039 4.6392L28.8 6.4C31.4106 9.0105 32.7158 10.3157 34.2787 11.1854C35.1373 11.6631 36.0483 12.0403 36.9933 12.3097C38.7133 12.8 40.559 12.8 44.2509 12.8H45.4467C53.8704 12.8 58.0819 12.8 60.8198 15.2623C61.0717 15.4888 61.3114 15.7285 61.5376 15.9803C64 18.7179 64 22.9297 64 31.3533V38.4C64 50.4678 64 56.5021 60.2509 60.2509C56.5021 64 50.4678 64 38.4 64H25.6C13.532 64 7.49808 64 3.74902 60.2509C5.72205e-07 56.5021 0 50.4678 0 38.4V15.8392Z" fill="#374151"/>
<path fill-rule="evenodd" clip-rule="evenodd" d="M32.8 25.6C32.8 24.2745 33.8746 23.2 35.2 23.2H51.2C52.5254 23.2 53.6 24.2745 53.6 25.6C53.6 26.9254 52.5254 28 51.2 28H35.2C33.8746 28 32.8 26.9254 32.8 25.6Z" fill="#374151"/>
<path d="M47.9539 3.26701C47.4627 3.2 46.8774 3.2 45.7072 3.2H32L33.1837 4.42598C35.3149 6.63357 36.1341 7.45763 37.0806 8.00307C37.6301 8.31968 38.2128 8.56973 38.8173 8.74826C39.8589 9.05578 41.001 9.07322 44.0147 9.07322H45.0848C48.2925 9.07315 50.8784 9.07312 52.9245 9.33959C53.4349 9.40605 53.9267 9.49062 54.4 9.6C53.8061 6.28202 51.2138 3.71152 47.9539 3.26701Z" fill="#374151"/>
</g>
<defs>
<clipPath id="clip0_202_7285">
<rect width="64" height="64" fill="white"/>
</clipPath>
</defs>
</svg>
