<svg width="64" height="64" viewBox="0 0 64 64" fill="none" xmlns="http://www.w3.org/2000/svg">
<g clip-path="url(#clip0_210_5827)">
<mask id="path-1-inside-1_210_5827" fill="white">
<path d="M0 15.8394C0 13.0153 2.38422e-08 11.6032 0.221923 10.427C1.19886 5.24906 5.24906 1.19886 10.427 0.221923C11.6032 2.38422e-08 13.0153 0 15.8394 0C17.0768 0 17.6955 0 18.2901 0.0556167C20.8535 0.295332 23.2852 1.30254 25.2673 2.94567C25.727 3.32679 26.1645 3.7643 27.0394 4.63926L28.8004 6.40008C31.411 9.01061 32.7163 10.3159 34.2792 11.1855C35.1377 11.6632 36.0488 12.0405 36.9938 12.3099C38.7138 12.8002 40.5596 12.8002 44.2514 12.8002H45.4473C53.8711 12.8002 58.0827 12.8002 60.8206 15.2625C61.0725 15.489 61.3121 15.7286 61.5384 15.9805C64.0008 18.7182 64.0008 22.93 64.0008 31.3537V38.4005C64.0008 50.4685 64.0008 56.5028 60.2516 60.2516C56.5028 64.0008 50.4685 64.0008 38.4005 64.0008H25.6003C13.5322 64.0008 7.49818 64.0008 3.74907 60.2516C3.81475e-07 56.5028 0 50.4685 0 38.4005V15.8394Z"/>
</mask>
<path d="M0 15.8394C0 13.0153 2.38422e-08 11.6032 0.221923 10.427C1.19886 5.24906 5.24906 1.19886 10.427 0.221923C11.6032 2.38422e-08 13.0153 0 15.8394 0C17.0768 0 17.6955 0 18.2901 0.0556167C20.8535 0.295332 23.2852 1.30254 25.2673 2.94567C25.727 3.32679 26.1645 3.7643 27.0394 4.63926L28.8004 6.40008C31.411 9.01061 32.7163 10.3159 34.2792 11.1855C35.1377 11.6632 36.0488 12.0405 36.9938 12.3099C38.7138 12.8002 40.5596 12.8002 44.2514 12.8002H45.4473C53.8711 12.8002 58.0827 12.8002 60.8206 15.2625C61.0725 15.489 61.3121 15.7286 61.5384 15.9805C64.0008 18.7182 64.0008 22.93 64.0008 31.3537V38.4005C64.0008 50.4685 64.0008 56.5028 60.2516 60.2516C56.5028 64.0008 50.4685 64.0008 38.4005 64.0008H25.6003C13.5322 64.0008 7.49818 64.0008 3.74907 60.2516C3.81475e-07 56.5028 0 50.4685 0 38.4005V15.8394Z" fill="#374151" fill-opacity="0.35" stroke="#374151" stroke-width="14.4002" mask="url(#path-1-inside-1_210_5827)"/>
<path d="M47.9541 3.26623C47.4629 3.19922 46.8776 3.19922 45.7074 3.19922H32L33.1837 4.42522C35.3149 6.63283 36.1341 7.4569 37.0807 8.00235C37.6302 8.31896 38.2129 8.56902 38.8174 8.74755C39.859 9.05507 41.0011 9.07251 44.0149 9.07251H45.085C48.2927 9.07245 50.8786 9.07241 52.9247 9.33888C53.4352 9.40535 53.927 9.48992 54.4003 9.5993C53.8064 6.28127 51.214 3.71075 47.9541 3.26623Z" fill="#374151"/>
<path fill-rule="evenodd" clip-rule="evenodd" d="M24.2312 31.1068L17.3373 38.0006L24.2312 44.8946C25.2563 45.9195 25.2563 47.5817 24.2312 48.6068C23.206 49.632 21.544 49.632 20.5188 48.6068L11.7688 39.8568C10.7437 38.8317 10.7437 37.1695 11.7688 36.1446L20.5188 27.3945C21.544 26.3693 23.206 26.3693 24.2312 27.3945C25.2563 28.4196 25.2563 30.0816 24.2312 31.1068ZM39.7688 31.1068C38.7438 30.0816 38.7438 28.4196 39.7688 27.3945C40.7939 26.3693 42.4561 26.3693 43.4812 27.3945L52.2312 36.1446C53.2562 37.1695 53.2562 38.8317 52.2312 39.8568L43.4812 48.6068C42.4561 49.632 40.7939 49.632 39.7688 48.6068C38.7438 47.5817 38.7438 45.9195 39.7688 44.8946L46.6627 38.0006L39.7688 31.1068ZM31.0466 52.6373C30.695 54.0437 29.2698 54.8988 27.8633 54.5472C26.4569 54.1956 25.6018 52.7704 25.9534 51.364L32.9534 23.364C33.305 21.9575 34.7302 21.1024 36.1366 21.454C37.5431 21.8056 38.3982 23.2308 38.0466 24.6373L31.0466 52.6373Z" fill="#22C55E"/>
</g>
<defs>
<clipPath id="clip0_210_5827">
<rect width="64" height="64" fill="white"/>
</clipPath>
</defs>
</svg>
